<svg xmlns="http://www.w3.org/2000/svg" viewBox="0 0 158.75 105.833">
   <path fill="#5aa5dc" d="M0 0h158.75v105.833H0z"/>
   <circle fill="#fff" cx="79.375" cy="52.9165" r="25"/>
   <use href="#f" transform="translate(158.75, 0) scale(-1, 1)"/>
   <g id="f">
      <path fill="#cf152d" d="M79.375 55.086v6.978H63.383c-1.126-2.028-1.958-4.261-2.287-6.478V52.583a1 .566 0 012.609 0v2.174l.4455.33.4455-.33V52.583a1 .566 0 012.643 0v2.152l.4455.351.4455-.351V52.583a1 .566 0 012.598 0v2.051l.599.452Z"/>
      <path d="M61.968 53.534a.397.397 0 00.794 0 .397.397 0 00-.794 0m3.58 0a.397.397 0 00.794 0 .397.397 0 00-.794 0m3.576 0a.397.397 0 00.794 0 .397.397 0 00-.794 0m27.73 0"/>
      <path fill="none" stroke="#000" stroke-width=".1" d="M68.071 60.96V61.85M66.934 60.03V60.92M68.974 60.045V60.935M63.701 59.154V59.998M66.098 59.162V60.006M68.071 59.162V60.006M68.974 58.263V59.106M62.764 58.251V59.095M68.071 55.632V56.475M70.119 55.665V56.509M69.78 60.959H62.594M64.928 60.053V60.943M70.015 60.033H62.282M70.293 59.13H62.003M70.505 58.238H61.713M70.751 57.298H61.447M68.974 56.479V57.322M66.957 56.468V57.311M66.065 55.621V56.464M64.928 56.468V57.311M63.757 55.621V56.464M61.683 55.643V56.486M62.765 56.479V57.322M63.701 57.326V58.17M66.098 57.337V58.181M68.071 57.326V58.17M66.934 58.263V59.106M64.928 58.263V59.106M70.894 56.462H61.211M63.701 60.999V61.889M66.098 60.959V61.85M71.137 55.663H61.138M71.327 55.086 70.728 54.634V52.583A1 .566 0 0068.13 52.583V54.735L67.6845 55.086 67.239 54.735V52.583A1 .566 0 0064.596 52.583V54.757L64.1505 55.087 63.705 54.757V52.583A1 .566 0 0061.096 52.583"/>
   </g>

   <path fill="#1d9add" stroke="#000" stroke-width=".3" d="m61 62a22 22 0 0018 10 22 22 0 0018-10z"/>

   <path fill="#cf152d" stroke="#000" stroke-width=".4" d="M105.64 52.916a26.265 26.265 0 100 .001m-7.674 0a18.591 18.591 0 110-.001Z"/>
   <path fill="#fecb00" d="M79.375 35.786l-.593 6.467-.346.173.504.173v.284l-.331.3-.678-.647v1.514l.315.678-.378.378-.662-.694v1.152l.362.315v1.009l-1.261-.773v2.491l-1.671-1.009v1.356l-1.482-.977v1.513l-1.104-.773v2.665h1.183v1.466h.501V51.17h1.16v1.677h.668V50.88h1.405v1.967h.602v-3.505h3.612v3.505h.602V50.88h1.405v1.967h.668V51.17h1.16v1.677h.501v-1.466H86.7v-2.665l-1.104.773v-1.513l-1.482.977v-1.356l-1.671 1.01v-2.492l-1.261.773v-1.01l.362-.314v-1.152l-.662.694-.378-.378.315-.678v-1.514l-.678.647-.33-.3V42.6l.503-.173-.346-.173z"/>
   <g fill="#fff" stroke="#000">
      <path stroke-width=".2" d="M69.338 61.897l1.989-6.811h16.096l1.844 6.81z"/>
      <path stroke-width=".1" d="M71.327 52.847h16.096v1.12H71.327zm0 1.12h16.096v1.119H71.327z"/>
      <path stroke-width=".1" d="M78.494 52.85h1.762v9.021h-1.762z"/>
   </g>

   <g id="w" fill="#e9d200" stroke="#000" stroke-width=".2">
      <path d="M97.662 41.649c-1.231.616-6.032-2.313-6.028-4.996 2.554-.318 5.953 2.96 6.028 4.996Z"/>
      <path d="M93.426 35.187c-2.09-.3-5.108-2.638-5.485-4.453 2.515.267 4.811 2.746 5.485 4.453z"/>
      <path d="M87.506 33.883c.843-1.113 5.92 1.304 5.485 2.553-1.362.198-5.805-1.32-5.485-2.553zm12.436 13.142c.75-2.048-2.28-5.376-3.42-5.865-.813 2.248 2.004 5.258 3.42 5.865zm1.195 4.996c-1.264-.11-3.343-4.048-2.932-5.539 1.737.543 3.575 3.1 2.932 5.54zm-1.955-.923c1.955.923 2.7 4.183 2.064 6.082-1.822-1.032-2.847-4.399-2.064-6.082zm-.76 9.667c-2.504 2.506-3.994 5.403-4.616 8.634 2.432-1.821 4.38-4.399 4.616-8.634z"/>
      <path d="M99.236 55.443c1.526.409.676 6.742-.38 8.145-1.34-1.03-1.351-7.672.38-8.145zm1.792-13.523s-.89 6.451.435 8.635c1.683-3.258.691-9.117-.435-8.635z"/>
      <path d="M103.146 47.297c-1.007-.715-2.622 9.02-.977 9.177 1.52-2.666 2.132-8.811.977-9.177z"/>
      <path d="M104.45 53.542c-1.037-.467-4.503 6.442-5.105 11.024 2.395-3.12 6.004-10.113 5.105-11.024z"/>
      <path d="M102.603 61.58c.73.871-4.458 6.337-8.417 8.85 1.903-4.123 7.369-9.46 8.417-8.85zm-2.009-16.13c.565-4.136-1.581-8.02-2.607-8.417-1.445.441 1.105 7.787 2.607 8.417z"/>
      <path d="M97.444 39.585c-3.19-2.666-5.158-5.38-4.29-6.68 1.54-.307 6.291 4.75 4.29 6.68z"/>
   </g>
   <use href="#w" transform="translate(158.75, 0) scale(-1, 1)"/>
   <path fill="#fff" stroke="#000" stroke-width=".2" d="M62.898 71.158l1.721 1.387 1.73-1.267 1.315.836-.272 2.209 1.216.62 1.607-1.498 1.344.536.041 2.181 1.589.468 1.254-1.794 1.325.258.442 2.124 1.707.199.92-2.019h1.386l.885 2.012 1.595-.162.483-2.112 1.524-.293 1.1 1.824 1.59-.456.233-2.235 1.294-.525 1.492 1.532 1.305-.671-.212-2.199 1.252-.803 1.79 1.188 1.577-1.273-2.954-3.34a20.6181 20.6181 0 01-27.091-.076Z"/>
   <path fill="#fff" d="M79.506 27.507l.737 2.267h2.383l-1.928 1.401.736 2.267-1.928-1.4-1.928 1.4.736-2.267-1.928-1.4h2.383z"/>
</svg>
