<?xml version="1.0" encoding="utf-8"?>
<!-- Generator: Adobe Illustrator 23.0.1, SVG Export Plug-In . SVG Version: 6.00 Build 0)  -->
<svg version="1.1" id="Livello_1" xmlns="http://www.w3.org/2000/svg" xmlns:xlink="http://www.w3.org/1999/xlink" x="0px" y="0px"
	 width="900px" height="600px" viewBox="0 0 900 600" enable-background="new 0 0 900 600" xml:space="preserve">
<path fill="#AB080E" d="M0,600h900V0H0V600z"/>
<g>
	<g>
		<path fill="#F9DC00" d="M237.292,201.751c-4.206,0-7.61,3.404-7.61,7.623v181.518c0,4.205,3.404,7.623,7.61,7.623
			c4.205,0,7.61-3.418,7.61-7.623V209.375C244.916,205.169,241.498,201.751,237.292,201.751z"/>
		<path fill="#F9DC00" d="M270.776,215.022c-4.206,0-7.61,3.404-7.61,7.623v155.003c0,4.206,3.404,7.623,7.61,7.623
			s7.61-3.418,7.61-7.623V222.632C278.4,218.427,274.982,215.022,270.776,215.022z"/>
		<path fill="#F9DC00" d="M304.26,244.194c-4.206,0-7.61,3.404-7.61,7.623v96.54c0,4.206,3.404,7.623,7.61,7.623
			c4.205,0,7.61-3.404,7.61-7.623v-96.54C311.87,247.611,308.466,244.194,304.26,244.194z"/>
		
			<ellipse transform="matrix(0.0014 -1 1 0.0014 37.7238 637.8101)" fill="#F9DC00" cx="338.222" cy="300.016" rx="11.989" ry="11.976"/>
		<path fill="#F9DC00" d="M223.661,181.472c1.415-1.963,2.256-4.366,2.256-6.982c0-6.622-5.367-11.989-11.976-11.989
			c-6.609,0-11.976,5.367-11.976,11.989c0,3.097,1.188,5.914,3.111,8.037c-10.307,12.483-23.845,20.066-29.078,22.696
			c-1.829-4.272-6.075-7.263-11.014-7.263c-6.622,0-11.976,5.367-11.976,11.989c0,6.622,5.367,11.989,11.976,11.989
			c2.71,0,5.193-0.908,7.196-2.43c13.231,20.387,16.969,44.498,18.024,56.554c-12.082-1.041-36.207-4.753-56.594-18.01
			c1.442-1.976,2.296-4.406,2.296-7.036c0-6.622-5.367-11.989-11.976-11.989c-6.622,0-11.976,5.367-11.976,11.989
			c0,4.98,3.031,9.239,7.343,11.054c-3.004,6.008-11.602,21.615-23.591,29.732c-2.19-2.336-5.287-3.792-8.731-3.792
			C80.354,288.011,75,293.378,75,300c0,6.622,5.367,11.989,11.976,11.989c3.458,0,6.555-1.469,8.745-3.818
			c11.989,8.117,20.574,23.751,23.578,29.746c-4.312,1.816-7.343,6.075-7.343,11.054c0,6.622,5.367,11.989,11.976,11.989
			c6.622,0,11.976-5.367,11.976-11.989c0-2.63-0.854-5.06-2.296-7.036c20.4-13.271,44.538-16.982,56.607-18.01
			c-1.041,12.042-4.753,36.101-18.037,56.554c-2.003-1.509-4.499-2.43-7.196-2.43c-6.622,0-11.976,5.367-11.976,11.989
			s5.367,11.989,11.976,11.989c4.94,0,9.185-2.991,11.014-7.263c5.234,2.617,18.745,10.16,29.078,22.696
			c-1.936,2.123-3.124,4.94-3.124,8.051c0,6.622,5.367,11.989,11.976,11.989c6.609,0,11.976-5.367,11.976-11.989
			c0-2.603-0.841-5.007-2.256-6.982c-10.293-17.663-26.822-28.971-36.474-34.432c18.157-31.134,18.117-66.38,18.104-67.969
			l-0.053-7.223l-7.209-0.067c-1.602-0.013-36.822-0.107-67.942,18.037c-4.059-7.343-11.215-18.531-20.961-26.902
			c9.746-8.358,16.902-19.532,20.961-26.875c31.121,18.144,66.354,18.05,67.956,18.037l7.209-0.067l0.053-7.223
			c0.013-1.589,0.053-36.835-18.104-67.969C196.853,210.443,213.381,199.148,223.661,181.472L223.661,181.472z"/>
	</g>
	<g>
		<path fill="#FFFFFF" d="M415.98,334.272c-19.092,0-34.058-14.312-34.058-32.576c0-18.464,14.646-32.389,34.058-32.389
			c19.092,0,34.058,14.232,34.058,32.389C450.038,319.973,435.085,334.272,415.98,334.272z M416.073,278.465
			c-13.07,0-23.698,10.427-23.698,23.244c0,12.91,10.627,23.417,23.698,23.417c12.91,0,23.417-10.507,23.417-23.417
			C439.504,288.679,429.21,278.465,416.073,278.465z"/>
		<path fill="#FFFFFF" d="M483.321,334.178c-14.432,0-24.512-10.12-24.512-24.606c0-14.592,10.08-24.779,24.512-24.779
			c8.504,0,15.393,2.67,19.946,7.73l-5.407,6.355c-3.578-3.538-8.304-5.407-13.698-5.407h-0.36c-8.825,0-14.993,6.622-14.993,16.101
			s6.168,16.101,14.993,16.101c6.155,0,11.175-1.989,14.566-5.781l5.46,5.46C499.302,331.134,492.226,334.178,483.321,334.178
			L483.321,334.178z"/>
		<path fill="#FFFFFF" d="M535.363,334.178c-14.432,0-24.512-10.12-24.512-24.606c0-14.592,10.08-24.779,24.512-24.779
			c8.504,0,15.393,2.67,19.946,7.73l-5.407,6.355c-3.578-3.538-8.304-5.407-13.698-5.407h-0.36c-8.825,0-14.993,6.622-14.993,16.101
			s6.168,16.101,14.993,16.101c6.155,0,11.175-1.989,14.566-5.781l5.461,5.46C551.344,331.134,544.268,334.178,535.363,334.178z"/>
		<path fill="#FFFFFF" d="M567.779,333.818v-48.637h9.893v48.637L567.779,333.818z M572.718,276.796
			c-3.351,0-5.874-2.603-5.874-6.061c0-3.511,2.523-6.155,5.874-6.155s5.874,2.643,5.874,6.155
			C578.593,274.193,576.069,276.796,572.718,276.796z"/>
		<path fill="#FFFFFF" d="M611.222,334.272c-3.164,0-13.471-1.015-13.471-14.032v-25.927h-6.956v-7.29h6.956v-13.538h9.893v13.538
			h14.552v7.29h-14.552v23.978c0,4.846,1.736,7.009,5.621,7.009c2.056,0,4.299-0.614,7.209-2.003l2.483,7.53
			C619.059,333.123,615.12,334.272,611.222,334.272L611.222,334.272z"/>
		<path fill="#FFFFFF" d="M648.15,334.272c-10.013,0-16.996-6.155-16.996-14.953c0-8.852,7.009-14.406,18.304-14.499h15.26v-1.829
			c0-6.609-4.299-10.253-12.109-10.253c-4.74,0-9.599,1.629-14.446,4.86l-4.005-6.809c6.876-4.059,11.802-5.995,20.76-5.995
			c12.363,0,19.505,6.195,19.599,17.009l0.094,32.015h-9.799v-6.208l-2.19,1.976C659.232,332.656,654.225,334.272,648.15,334.272
			L648.15,334.272z M651.034,311.936c-7.29,0-10.534,2.136-10.534,6.916c0,4.659,3.885,7.663,9.893,7.663
			c7.73,0,13.765-4.072,14.339-9.666v-4.913H651.034z"/>
		<path fill="#FFFFFF" d="M727.788,333.818v-27.383c0-7.583-4.673-12.296-12.203-12.296c-8.037,0.093-13.524,5.367-14.339,13.751
			v25.927h-9.986v-48.637h9.986v9.653l2.35-3.111c3.471-4.593,8.905-6.916,16.154-6.916c11.108,0,18.01,7.156,18.01,18.664v30.346
			L727.788,333.818z"/>
		<path fill="#FFFFFF" d="M754.436,333.818v-48.637h9.893v48.637L754.436,333.818z M759.376,276.796
			c-3.351,0-5.874-2.603-5.874-6.061c0-3.511,2.523-6.155,5.874-6.155s5.874,2.643,5.874,6.155
			C765.25,274.193,762.727,276.796,759.376,276.796z"/>
		<path fill="#FFFFFF" d="M802.699,334.178c-14.886,0-24.873-9.88-24.873-24.606c0-14.499,10.12-24.686,24.606-24.779
			c7.423,0,13.151,2.109,17.022,6.262c4.486,4.82,6.422,12.283,5.754,22.176H787.76l0.494,1.669
			c2.056,6.996,7.917,11.335,15.313,11.335c5.327,0,10.24-1.989,13.898-5.594l5.193,5.541
			C817.732,331.415,810.843,334.178,802.699,334.178L802.699,334.178z M802.513,292.644c-7.543,0-12.99,4.446-14.579,11.896
			l-0.334,1.575h29.051l-0.147-1.442C815.703,297.143,810.483,292.644,802.513,292.644L802.513,292.644z"/>
		<path fill="#FFFFFF" d="M381.922,250.802l0.107-35.486l6.515,0.107l-0.107,29.412l15.193,0.107l-0.107,5.861H381.922z"/>
		<path fill="#FFFFFF" d="M416.193,251.056c-5.634,0-9.573-3.485-9.573-8.478c0-5.1,3.845-8.184,10.267-8.224h7.65l0.107-0.534
			c0-3.311-2.096-5.06-6.061-5.06c-2.51,0-5.087,0.895-7.663,2.643l-0.334,0.227l-2.577-4.606l0.28-0.04
			c3.845-2.283,6.555-3.378,11.535-3.378c6.916,0,10.921,3.485,10.974,9.573l0.053,17.743l-6.262-0.107l0.107-2.537v-0.254
			l-0.174,0.174C422.602,250.055,419.718,251.056,416.193,251.056z M417.742,239.054c-3.698,0-5.207,0.948-5.207,3.271
			c0,2.256,1.869,3.671,4.86,3.671c3.912,0,6.969-2.016,7.249-4.793v-2.043L417.742,239.054z"/>
		<path fill="#FFFFFF" d="M451.066,250.802l0.107-35.486l14.406,0.107c9.092,0,14.299,4.432,14.299,12.163
			c0,5.42-2.47,9.452-6.969,11.375l7.797,11.842h-7.383l-6.275-10.48c-0.534-0.027-1.001-0.027-1.482-0.027h-7.89l-0.107,10.614
			L451.066,250.802z M457.568,234.381l7.997,0.107c5.434,0,8.197-2.27,8.197-6.756c0-4.312-2.764-6.502-8.197-6.502h-7.997V234.381z
			"/>
		<path fill="#FFFFFF" d="M498.127,251.003c-8.264,0-13.805-5.487-13.805-13.658c0-8.051,5.621-13.711,13.658-13.751
			c4.125,0,7.303,1.175,9.466,3.498c2.523,2.71,3.591,6.889,3.191,12.416l-0.027,0.347l-19.773-0.093
			c0.895,3.805,3.898,6.088,7.743,6.088c2.804,0,5.38-1.068,7.276-3.004l0.267-0.28l3.391,3.765l-0.227,0.107
			C506.538,249.427,502.693,251.003,498.127,251.003L498.127,251.003z M498.021,228.693c-3.832,0-6.675,2.376-7.423,6.208
			l14.406,0.12C504.763,231.03,502.119,228.693,498.021,228.693z M493.815,220.536l5.754-8.024l6.595,2.884l-6.662,5.14H493.815z"/>
		<path fill="#FFFFFF" d="M527.432,260.615c-3.938,0-7.69-1.188-11.148-3.525l-0.294-0.2l2.857-4.646l0.174,0.28
			c2.643,1.963,5.167,2.83,8.157,2.83c4.886,0,8.051-2.844,8.051-7.249v-2.47l-0.187,0.24c-1.896,2.376-4.766,3.645-8.304,3.645
			c-7.303,0-12.216-5.247-12.216-13.057c0-7.637,4.833-12.803,12.016-12.857c3.685,0,6.542,1.228,8.504,3.658l0.187,0.227v-3.805
			l6.315,0.107l-0.107,24.165C541.437,255.635,535.937,260.615,527.432,260.615L527.432,260.615z M527.873,228.747
			c-4.339,0-7.396,3.231-7.45,7.85c0.053,4.726,3.044,7.89,7.45,7.89c4.326,0,7.356-3.244,7.356-7.904
			C535.229,231.978,532.199,228.747,527.873,228.747z"/>
		<path fill="#FFFFFF" d="M548.754,250.802l0.107-27.116l6.315,0.107l-0.107,27.009L548.754,250.802z M551.971,220.189
			c-2.056,0-3.605-1.589-3.605-3.698c0-2.136,1.549-3.752,3.605-3.752s3.605,1.615,3.605,3.752
			C555.563,218.6,554.014,220.189,551.971,220.189z"/>
		<path fill="#FFFFFF" d="M574.614,251.003c-8.304,0-14.112-5.634-14.112-13.711c0-8.197,5.674-13.711,14.112-13.711
			c8.278,0,14.058,5.634,14.058,13.711C588.673,245.369,582.892,251.003,574.614,251.003z M574.614,229.054
			c-4.619,0-7.85,3.418-7.85,8.304c0,4.993,3.151,8.344,7.85,8.344c4.593,0,7.797-3.431,7.797-8.344
			C582.411,232.458,579.207,229.054,574.614,229.054z"/>
		<path fill="#FFFFFF" d="M594,250.802l0.107-27.116l6.355,0.107l-0.107,3.992v0.347l0.2-0.28c1.936-2.817,5.073-4.259,9.292-4.259
			c6.248,0,10.12,4.019,10.12,10.467v16.742h-6.355l0.107-15.153c0-3.858-2.283-6.155-6.101-6.155
			c-4.059,0.053-6.836,2.724-7.25,6.982v14.432L594,250.802z"/>
		<path fill="#FFFFFF" d="M393.056,351.361c6.529,0,10.267,3.231,10.267,8.865c0,5.861-3.752,9.265-10.267,9.265h-5.968v7.824
			h-4.379v-25.954H393.056z M387.089,365.553h5.781c4.005,0,6.262-1.709,6.262-5.234c0-3.418-2.256-5.047-6.262-5.047h-5.781
			V365.553z"/>
		<path fill="#FFFFFF" d="M416.073,380.025c-1.228,3.111-3.444,4.673-6.408,4.673c-1.776,0-3.191-0.521-4.566-1.669l1.816-3.298
			c0.921,0.668,1.669,0.961,2.563,0.961c1.295,0,2.336-0.708,3.004-2.19l0.668-1.482l-8.157-19.425h4.406l5.901,14.94l5.487-14.94
			h4.259L416.073,380.025z"/>
		<path fill="#FFFFFF" d="M432.495,361.521c1.335-2.67,3.712-4.072,6.822-4.072v4.072c-3.965-0.227-6.488,2.109-6.822,5.487v10.307
			h-4.259v-19.733h4.259V361.521z"/>
		<path fill="#FFFFFF" d="M460.198,369.077h-14.913c0.668,3.044,3.004,4.926,6.115,4.926c2.149,0,4.112-0.814,5.567-2.296
			l2.256,2.417c-1.923,2.109-4.753,3.338-8.157,3.338c-6.088,0-10.08-4.045-10.08-9.973c0-5.968,4.112-10.013,9.973-10.053
			C457.901,357.435,460.718,361.961,460.198,369.077L460.198,369.077z M456.486,365.966c-0.147-3.191-2.256-5.113-5.487-5.113
			c-3.111,0-5.3,1.963-5.781,5.113H456.486z M448.262,354.765l3.925-5.487l4.379,1.856l-4.526,3.631H448.262z"/>
		<path fill="#FFFFFF" d="M483.522,365.032v12.269h-4.259V366.22c0-2.964-1.776-4.78-4.753-4.78c-3.258,0.04-5.3,2.296-5.594,5.38
			v10.494h-4.259v-19.732h4.259v3.778c1.415-2.737,3.925-3.925,7.263-3.925C480.771,357.435,483.522,360.332,483.522,365.032z"/>
		<path fill="#FFFFFF" d="M506.578,369.077h-14.913c0.668,3.044,3.004,4.926,6.115,4.926c2.149,0,4.112-0.814,5.567-2.296
			l2.256,2.417c-1.923,2.109-4.753,3.338-8.157,3.338c-6.088,0-10.08-4.045-10.08-9.973c0-5.968,4.112-10.013,9.973-10.053
			C504.282,357.435,507.099,361.961,506.578,369.077L506.578,369.077z M502.867,365.966c-0.147-3.191-2.256-5.113-5.487-5.113
			c-3.111,0-5.3,1.963-5.781,5.113H502.867z M494.643,354.765l3.925-5.487l4.379,1.856l-4.526,3.631H494.643z"/>
		<path fill="#FFFFFF" d="M528.38,369.077h-14.913c0.668,3.044,3.004,4.926,6.115,4.926c2.149,0,4.112-0.814,5.567-2.296
			l2.256,2.417c-1.923,2.109-4.753,3.338-8.157,3.338c-6.088,0-10.08-4.045-10.08-9.973c0-5.968,4.112-10.013,9.973-10.053
			C526.084,357.435,528.901,361.961,528.38,369.077L528.38,369.077z M524.669,365.966c-0.147-3.191-2.256-5.113-5.487-5.113
			c-3.111,0-5.3,1.963-5.781,5.113H524.669z"/>
		<path fill="#FFFFFF" d="M545.616,359.398l-1.562,3.151c-1.749-1.081-3.925-1.749-5.674-1.749c-1.669,0-2.897,0.561-2.897,1.963
			c0,3.631,10.494,1.669,10.454,8.825c0,4.045-3.591,5.861-7.57,5.861c-2.897,0-5.968-0.961-7.93-2.75l1.522-3.044
			c1.709,1.522,4.446,2.443,6.595,2.443c1.816,0,3.231-0.628,3.231-2.109c0-4.045-10.387-1.776-10.347-8.905
			c0-4.005,3.484-5.714,7.263-5.714C541.197,357.395,543.841,358.143,545.616,359.398L545.616,359.398z"/>
		<path fill="#FFFFFF" d="M558.927,367.488v-2.924h9.119v2.924H558.927z"/>
		<path fill="#FFFFFF" d="M606.683,377.315l-0.04-19.399l-8.197,16.689h-2.857l-8.197-16.689v19.399h-4.112v-25.954h5.193
			l8.571,17.249l8.531-17.249h5.153v25.954H606.683z"/>
		<path fill="#FFFFFF" d="M634.666,369.077h-14.913c0.668,3.044,3.004,4.926,6.115,4.926c2.149,0,4.112-0.814,5.567-2.296
			l2.256,2.417c-1.922,2.109-4.753,3.338-8.157,3.338c-6.088,0-10.08-4.045-10.08-9.973c0-5.968,4.112-10.013,9.973-10.053
			C632.37,357.435,635.187,361.961,634.666,369.077L634.666,369.077z M630.955,365.966c-0.147-3.191-2.256-5.113-5.487-5.113
			c-3.111,0-5.3,1.963-5.781,5.113H630.955z M622.73,354.765l3.925-5.487l4.379,1.856l-4.526,3.631H622.73z"/>
		<path fill="#FFFFFF" d="M657.91,377.315h-4.259v-3.378c-1.415,2.296-3.778,3.565-6.929,3.565c-5.674,0-9.452-4.112-9.452-10.12
			c0-5.928,3.818-9.973,9.386-9.973c3.191,0,5.567,1.295,7.009,3.591v-11.201h4.259v27.516H657.91z M653.651,367.528
			c0-3.818-2.483-6.489-6.048-6.489c-3.565,0-6.048,2.71-6.088,6.489c0.04,3.752,2.483,6.408,6.088,6.408
			C651.168,373.937,653.651,371.267,653.651,367.528z"/>
		<path fill="#FFFFFF" d="M668.991,351.948c0,1.482-1.081,2.563-2.483,2.563c-1.415,0-2.483-1.081-2.483-2.563
			c0-1.522,1.081-2.59,2.483-2.59C667.923,349.358,668.991,350.426,668.991,351.948z M664.398,377.315v-19.733h4.232v19.733H664.398
			z"/>
		<path fill="#FFFFFF" d="M686.093,376.046c-1.562,0.921-3.191,1.442-4.86,1.442c-2.964,0-5.527-1.709-5.527-5.741v-10.24h-2.777
			v-3.191h2.777v-5.407h4.232v5.407h5.821v3.191h-5.821v9.452c0,2.043,0.774,2.67,2.109,2.67c0.895,0,1.816-0.294,2.964-0.854
			L686.093,376.046z"/>
		<path fill="#FFFFFF" d="M707.148,369.077h-14.913c0.668,3.044,3.004,4.926,6.115,4.926c2.149,0,4.112-0.814,5.567-2.296
			l2.256,2.417c-1.923,2.109-4.753,3.338-8.157,3.338c-6.088,0-10.08-4.045-10.08-9.973c0-5.968,4.112-10.013,9.973-10.053
			C704.851,357.435,707.668,361.961,707.148,369.077L707.148,369.077z M703.436,365.966c-0.147-3.191-2.256-5.113-5.487-5.113
			c-3.111,0-5.3,1.963-5.781,5.113H703.436z"/>
		<path fill="#FFFFFF" d="M715.852,361.521c1.335-2.67,3.712-4.072,6.822-4.072v4.072c-3.965-0.227-6.489,2.109-6.822,5.487v10.307
			h-4.259v-19.733h4.259V361.521z"/>
		<path fill="#FFFFFF" d="M730.472,361.521c1.335-2.67,3.712-4.072,6.822-4.072v4.072c-3.965-0.227-6.488,2.109-6.822,5.487v10.307
			h-4.259v-19.733h4.259V361.521z"/>
		<path fill="#FFFFFF" d="M751.86,374.898c-1.402,1.749-3.672,2.59-6.529,2.59c-4.259,0-6.929-2.63-6.929-6.115
			c0-3.591,2.71-5.901,7.45-5.928h5.968v-0.587c0-2.483-1.589-3.965-4.713-3.965c-1.896,0-3.858,0.668-5.821,2.003l-1.749-2.964
			c2.737-1.629,4.753-2.483,8.491-2.483c5.087,0,7.93,2.59,7.97,6.929l0.04,12.937h-4.192v-2.417H751.86z M751.82,370.372v-1.816
			h-5.34c-2.777,0-4.072,0.748-4.072,2.63c0,1.776,1.442,2.924,3.818,2.924C749.27,374.124,751.606,372.535,751.82,370.372z"/>
		<path fill="#FFFFFF" d="M780.631,365.032v12.269h-4.259V366.22c0-2.964-1.776-4.78-4.753-4.78c-3.258,0.04-5.3,2.296-5.594,5.38
			v10.494h-4.259v-19.732h4.259v3.778c1.415-2.737,3.925-3.925,7.263-3.925C777.88,357.435,780.631,360.332,780.631,365.032z"/>
		<path fill="#FFFFFF" d="M803.687,369.077h-14.913c0.668,3.044,3.004,4.926,6.115,4.926c2.149,0,4.112-0.814,5.567-2.296
			l2.256,2.417c-1.923,2.109-4.753,3.338-8.157,3.338c-6.088,0-10.08-4.045-10.08-9.973c0-5.968,4.112-10.013,9.973-10.053
			C801.391,357.435,804.208,361.961,803.687,369.077z M799.976,365.966c-0.147-3.191-2.256-5.113-5.487-5.113
			c-3.111,0-5.3,1.963-5.781,5.113H799.976z M791.752,354.765l3.925-5.487l4.379,1.856l-4.526,3.631H791.752z"/>
		<path fill="#FFFFFF" d="M825.489,369.077h-14.913c0.668,3.044,3.004,4.926,6.115,4.926c2.149,0,4.112-0.814,5.567-2.296
			l2.256,2.417c-1.923,2.109-4.753,3.338-8.157,3.338c-6.088,0-10.08-4.045-10.08-9.973c0-5.968,4.112-10.013,9.973-10.053
			C823.193,357.435,826.01,361.961,825.489,369.077z M821.778,365.966c-0.147-3.191-2.256-5.113-5.487-5.113
			c-3.111,0-5.3,1.963-5.781,5.113H821.778z"/>
	</g>
</g>
</svg>
