<?xml version="1.0" encoding="UTF-8"?>
<svg id="Layer_1" xmlns="http://www.w3.org/2000/svg" version="1.1" xmlns:xlink="http://www.w3.org/1999/xlink" viewBox="0 0 2827.4 1884.9">
  <!-- Generator: Adobe Illustrator 29.0.1, SVG Export Plug-In . SVG Version: 2.1.0 Build 192)  -->
  <defs>
    <style>
      .st0 {
        fill: #305da5;
      }

      .st1 {
        fill: #fff;
      }

      .st2, .st3, .st4, .st5, .st6, .st7, .st8, .st9 {
        fill-rule: evenodd;
      }

      .st2, .st10, .st11 {
        fill: #ffe779;
      }

      .st3 {
        fill: url(#linear-gradient6);
      }

      .st12, .st13 {
        fill: none;
      }

      .st14 {
        fill: #e5e5e5;
      }

      .st15 {
        fill: #14223a;
      }

      .st16 {
        fill: #d84615;
      }

      .st4 {
        fill: url(#linear-gradient5);
      }

      .st5 {
        fill: url(#linear-gradient1);
      }

      .st10, .st13 {
        stroke: #d84615;
        stroke-miterlimit: 10;
        stroke-width: 2.6px;
      }

      .st6 {
        fill: url(#linear-gradient4);
      }

      .st7 {
        fill: url(#linear-gradient3);
      }

      .st8 {
        fill: url(#linear-gradient);
      }

      .st9 {
        fill: url(#linear-gradient2);
      }
    </style>
    <linearGradient id="linear-gradient" x1="-3201" y1="6670.7" x2="-3110" y2="6670.7" gradientTransform="translate(-1475.4 -5321.1) rotate(-180) scale(1 -1)" gradientUnits="userSpaceOnUse">
      <stop offset="0" stop-color="#cea347"/>
      <stop offset=".5" stop-color="#f6ed57"/>
      <stop offset="1" stop-color="#cea347"/>
    </linearGradient>
    <linearGradient id="linear-gradient1" x1="291.3" y1="6671.4" x2="382.3" y2="6671.4" gradientTransform="translate(810.2 -5321.5)" gradientUnits="userSpaceOnUse">
      <stop offset="0" stop-color="#cea347"/>
      <stop offset=".5" stop-color="#f6ed57"/>
      <stop offset="1" stop-color="#cea347"/>
    </linearGradient>
    <linearGradient id="linear-gradient2" x1="403.5" y1="6761.4" x2="803.2" y2="6761.4" gradientTransform="translate(810.2 -5321.5)" gradientUnits="userSpaceOnUse">
      <stop offset="0" stop-color="#cea347"/>
      <stop offset=".5" stop-color="#f6ed57"/>
      <stop offset="1" stop-color="#cea347"/>
    </linearGradient>
    <linearGradient id="linear-gradient3" x1="371.2" y1="6684" x2="834.8" y2="6684" gradientTransform="translate(810.2 -5321.5)" gradientUnits="userSpaceOnUse">
      <stop offset="0" stop-color="#cea347"/>
      <stop offset=".5" stop-color="#f6ed57"/>
      <stop offset="1" stop-color="#cea347"/>
    </linearGradient>
    <linearGradient id="linear-gradient4" x1="638.2" y1="6736.9" x2="773.2" y2="6736.9" gradientTransform="translate(810.2 -5321.5)" gradientUnits="userSpaceOnUse">
      <stop offset="0" stop-color="#cea347"/>
      <stop offset=".4" stop-color="#f6ed57"/>
      <stop offset=".6" stop-color="#cea347"/>
      <stop offset=".8" stop-color="#f6ed57"/>
      <stop offset="1" stop-color="#cea347"/>
    </linearGradient>
    <linearGradient id="linear-gradient5" x1="431.7" y1="6736.2" x2="566.7" y2="6736.2" gradientTransform="translate(810.2 -5321.5)" gradientUnits="userSpaceOnUse">
      <stop offset="0" stop-color="#cea347"/>
      <stop offset=".2" stop-color="#f6ed57"/>
      <stop offset=".4" stop-color="#cea347"/>
      <stop offset=".6" stop-color="#f6ed57"/>
      <stop offset="1" stop-color="#cea347"/>
    </linearGradient>
    <linearGradient id="linear-gradient6" x1="557.7" y1="6733.8" x2="648.7" y2="6733.8" gradientTransform="translate(810.2 -5321.5)" gradientUnits="userSpaceOnUse">
      <stop offset="0" stop-color="#cea347"/>
      <stop offset=".5" stop-color="#f6ed57"/>
      <stop offset="1" stop-color="#cea347"/>
    </linearGradient>
  </defs>
  <rect class="st15" width="1424.2" height="1884.9"/>
  <rect class="st0" x="1424.2" width="1403.2" height="1884.9"/>
  <g>
    <g id="Layer_2">
      <ellipse class="st1" cx="1413.7" cy="946.2" rx="534.1" ry="542.3"/>
    </g>
    <path id="path79592" class="st10" d="M1413.7,380.2c-310,0-561.3,251.3-561.3,561.3s251.3,561.3,561.3,561.3,561.3-251.3,561.3-561.3-251.3-561.3-561.3-561.3h0ZM1413.7,403.9c296.9,0,537.6,240.7,537.6,537.6s-240.7,537.6-537.6,537.6-537.6-240.7-537.6-537.6,240.7-537.6,537.6-537.6h0Z"/>
    <path id="path16586" class="st2" d="M1850.3,1120.8s-.6,10.4,2.3,19.8c3.4,10.8,10.5,21.3,9.5,30.4-1.1,10.4-13.7,28.3-13.7,28.3l-8.8-28.1-12.7-16.2s-10.4-8.1-16.5-10.3c-6.8-2.4-21.5-2.7-21.5-2.7,0,0-34.7-6.4-46.3-18.2-3.9-4-8.9-8.6-12-15-5.5-11.3-1.9-25.9-4.5-37.8-1.7-7.7-3.3-15-6.1-19.6-2.5-4.2-6.1-6.1-6.1-6.1,0,0,8.3-2.5,12.3-1.4,4.4,1.1,11.1,7.9,11.1,7.9l2.3-7.2c-2.8-2.7-10.7-6.1-16.4-9.6-4-2.4-6.8-5.7-7.8-7.7-2.6-5.2-2.2-14.5-3-21.3-.6-5.4-2.7-9.2-2.7-9.2,0,0-7.2-6.9-9.3-11.3-1.6-3.3-.7-9.3-1.3-13.4-.3-2.6-2.3-4.4-2.3-4.4,0,0,1.8.5,4.6,2.7,2.8,2.3,3,8.4,7.2,12.3,3.5,3.2,10.9,4.2,15.3,7.8,6.1,5,5.9,15,11.9,19.6,10.6,8,21,3.5,28.3,10.3,7.4,6.8,13.1,14.7,12.3,27.5-.3,4.7-1.7,13.2-5.5,19.9-3.9,6.9-10.4,10-11.8,16.6-1.1,5.1,1.2,10.4,3,15.3,1,2.8,4.1,7.8,4.1,7.8,0,0-.2-12.7,1.3-18.7,1.2-4.5,3.3-9.7,7-14.8,3.6-4.9,8.6-9.9,11-14.5,3.5-6.9,1.7-14.1,1.7-14.1,0,0,6.8,5.1,9.2,11.9,2.3,6.3.3,14.2,2.6,19,5,10.4,23.2,12.4,30.9,25.1,4.9,8.1,3.4,20.1,4,28.5.6,7.5,3.5,12.1,3.5,12.1,0,0,2.7-9.6,5.4-13.7,1.9-2.9,7.3-7.4,7.3-7.4h.2Z"/>
    <path id="rect16553" class="st2" d="M978.2,1120.8s.6,10.4-2.3,19.8c-3.4,10.8-10.5,21.3-9.5,30.4,1.1,10.4,13.7,28.3,13.7,28.3l8.8-28.1,12.7-16.2s10.4-8.1,16.5-10.3c6.8-2.4,21.5-2.7,21.5-2.7,0,0,34.7-6.4,46.3-18.2,3.9-4,8.9-8.6,12-15,5.5-11.3,1.9-25.9,4.5-37.8,1.7-7.7,3.3-15,6.1-19.6,2.5-4.2,6.1-6.1,6.1-6.1,0,0-8.3-2.5-12.3-1.4-4.4,1.1-11.1,7.9-11.1,7.9l-2.3-7.2c2.8-2.7,10.7-6.1,16.4-9.6,4-2.4,6.8-5.7,7.8-7.7,2.6-5.2,2.2-14.5,3-21.3.6-5.4,2.7-9.2,2.7-9.2,0,0,7.2-6.9,9.3-11.3,1.6-3.3.7-9.3,1.3-13.4.3-2.6,2.3-4.4,2.3-4.4,0,0-1.8.5-4.6,2.7-2.8,2.3-3,8.4-7.2,12.3-3.5,3.2-10.9,4.2-15.3,7.8-6.1,5-5.9,15-11.9,19.6-10.6,8-21,3.5-28.3,10.3-7.4,6.8-13.1,14.7-12.3,27.5.3,4.7,1.7,13.2,5.5,19.9,3.9,6.9,10.4,10,11.8,16.6,1.1,5.1-1.2,10.4-3,15.3-1,2.8-4.1,7.8-4.1,7.8,0,0,.2-12.7-1.3-18.7-1.2-4.5-3.3-9.7-7-14.8-3.6-4.9-8.6-9.9-11-14.5-3.5-6.9-1.7-14.1-1.7-14.1,0,0-6.8,5.1-9.2,11.9-2.3,6.3-.3,14.2-2.6,19-5,10.4-23.2,12.4-30.9,25.1-4.9,8.1-3.4,20.1-4,28.5-.6,7.5-3.5,12.1-3.5,12.1,0,0-2.7-9.6-5.4-13.7-1.9-2.9-7.3-7.4-7.3-7.4h-.2Z"/>
    <path id="path13688" class="st2" d="M1918.6,957.1l-3.8,46.5s-13.5-29.9-23.5-42.7c-4.6-5.9-12-14.5-18.5-20-4.4-3.7-9-5.6-9-5.6,0,0,6.1,5.3,9,12.9,2.6,7,2.1,15.9.4,21.3-1.6,5.1-6.6,12.4-12.4,16.4-6.5,4.6-13.7,5.4-13.7,5.4,0,0,13.9-12.1,14.4-20.4.2-3.2-.9-7.9-3.3-11.4-2.7-3.9-6.7-6.3-6.7-6.3,0,0-7.4-3.5-11.3-4.5-5.7-1.4-17.4-1.8-17.4-1.8,0,0-1.7,10.3-8.7,15.9-6.1,4.9-17.3,5.3-23.2,5.2-12.6,0-31.9-6.4-44-17-11-9.6-15.4-23.8-15.4-23.8,0,0,11.4,12.2,24.3,14.3,10.1,1.6,21.2-6.5,28.9-8.1,8.9-1.8,23.8-13.5,23.8-13.5l-40.5,2.6s-26.7-1.8-39.5-5.4c-10.9-3-31.1-13.2-31.1-13.2l11.3-4.5c-20.7-8.4-42.2-20.1-73.1-72.9l11.5,5.6,6.5,1.3,3.5-1s-8.6-3.3-11.7-6.6c-3.4-3.6-7.6-8.8-8.9-15-1.2-5.8.4-12.5-2.4-17.2s-10.9-12.1-10.9-12.1c0,0,6-2.4,9.2-2.6,4.2-.3,12.5,1.5,12.5,1.5,0,0,2.9-4.6-4.4-7.3-2.9-1.1-9.5,0-14.9-.5-3.6-.4-6.8-2.3-7.9-3.4-6.5-6.1-6.4-17-11.8-24.2-2.7-3.6-10-9-10-9,0,0,8.3-3.1,18.4.5,7.8,2.8,16.8,12.2,23,13.7,6.4,1.5,16.9.7,25.1,1.6,8.5.9,14.6,3.5,14.6,3.5,0,0,3.9-9.4,1.9-18.6-1.8-8-9.1-15.7-14.5-18.3-4.3-2-12.2-1.4-17.9,1.5-6.5,3.3-10.5,9.1-10.5,9.1l3.7-15s-15,5.5-22.5,4.4c-5.4-.8-13.2-3.7-19.2-7.3-6.9-4.2-11.5-9.1-11.5-9.1,0,0,10.4-1.1,14-4.5,2.9-2.7,4.4-10.9,4.4-10.9,0,0-8,7.4-12.7,6.7-4.9-.8-10-.9-14.9-4.8-8.5-6.8-8.6-19.5-14.3-28.3-5.3-8.2-16.4-12.7-16.4-12.7,0,0,7.5-1.1,11.2-.5,5.3.9,14.9,5.9,14.9,5.9,0,0,4.2-7-6.2-12.9-2.7-1.5-9.9-.4-16.2-1.4-6-1-11.2-4.1-12.8-5.7-2.9-3.1-6.3-7.7-7.6-13.5-1.2-5.1-.2-11.3-2.2-15.7-4.6-10.4-13-16.2-13-16.2,0,0,9.3-.5,19.5,7.9,5.8,4.8,10,18.4,17.8,21.9,7.8,3.4,16.2-.3,24.5.2,7.7.4,15.5,5,19.9,9.1,2.9,2.8,5.8,8.1,6.7,14.1.9,5.6-.2,11.9,1.8,16.4,4.3,9.6,14,12.6,14,12.6,0,0,.2-8.3.8-16.2.6-7.5,1.7-14.4,0-19-.9-2.4-4.2-6.5-4.2-6.5,0,0,9.1,1.4,12.7,4,2.8,2.1,4.1,8.1,6.4,11.9,2.5,4.2,5.7,6.1,5.7,6.1,0,0,3.3,2.1,9.2,3,5.4.8,13.2.4,19.3,2.7,7,2.7,12,7.6,15.6,12,6.9,8.4,6.1,32.2,6.1,32.2,0,0,7-10.5,8.6-16.5,1.1-4.1.5-12.7.5-12.7,0,0,8.6,12.7,15.7,27.5,5.4,11.3,9.6,23.9,10.5,33.4.6,6.3.7,16-1.4,24-2.7,10.3-7.9,18.4-7.9,18.4,0,0,12.6-.3,17,2.5,5.1,3.2,4.8,17.3,4.8,17.3,0,0-2.3-3.7-6.3-5-3.1-1-7.9.2-9.8,1.7-5.9,4.5-11.6,13.9-12.1,23.2-.7,13.6,6,27.6,8.5,31.3,6,9,23.5,22.2,23.5,22.2,0,0,.5-16.6,2.5-24.6,1.8-7.3,8.3-20.8,8.3-20.8,0,0-2.8,19.4.3,28.3,2.2,6.4,5.1,18.3,10.6,25.1,6.7,8.1,16.1,10.6,16.1,10.6,0,0-8.6-7.3-11-12.2-2.2-4.6-1.2-12.3-1.9-18.7-.7-6.1-3.2-11.1-3.2-11.1l-3.4-8.8s7.7,3.6,11,6.1c2.8,2.1,7.4,7.3,7.4,7.3,0,0,2.4-4.2-6.4-14.7-2.2-2.6-3.5-4.7-2.9-9.8,1.2-10.4,16.1-29.6,16.3-40.4,0-9.5-9.6-12.7-9.8-20.2-.2-5.7,6.6-15.8,6.6-15.8,0,0,2.2,10.7,10.5,18.8,4.3,4.2,12,6.4,17.2,10.1,5.5,3.8,8.5,9,10.5,13.6,1.1,2.5,1.9,6.9,1.3,11.6-.8,5.8-3.1,12.1-3,16.3.2,7.8,5,8.4,5,8.4,0,0,2.5-3.1,3.2-4.9,1.1-3-1.7-7.3-1.3-11.4.5-5,4-9.6,4-9.6,0,0,2.2,10.2,8.9,18,2.8,3.2,10.2,7.6,13.8,10.4,4.9,3.9,5.9,6.3,8.5,11.5,4.8,9.4.7,14.6.4,22.5-.3,5.8-9.1,14.7-9.1,14.7,0,0,18.8.6,26.8,5,11.5,6.3,26.8,28.8,26.8,28.8,0,0-10.5-5.4-16.2-5.2-5.9.2-16.3,6.5-16.3,6.5,0,0,16.9,11.6,24.2,18.7,7.9,7.8,20.9,26,20.9,26h0v-.2h-.1Z"/>
    <path id="rect13595" class="st2" d="M908.8,957.7l3.8,46.5s13.5-29.9,23.5-42.7c4.6-5.9,12-14.5,18.5-20,4.4-3.7,9-5.6,9-5.6,0,0-6.1,5.3-9,12.9-2.6,7-2.1,15.9-.4,21.3,1.6,5.1,6.6,12.4,12.4,16.4,6.5,4.6,13.7,5.4,13.7,5.4,0,0-13.9-12.1-14.4-20.4-.2-3.2.9-7.9,3.3-11.4,2.7-3.9,6.7-6.3,6.7-6.3,0,0,7.4-3.5,11.3-4.5,5.7-1.4,17.4-1.8,17.4-1.8,0,0,1.7,10.3,8.7,15.9,6.1,4.9,17.3,5.3,23.2,5.2,12.6,0,31.9-6.4,44-17,11-9.6,15.4-23.8,15.4-23.8,0,0-11.4,12.2-24.3,14.3-10.1,1.6-21.2-6.5-28.9-8.1-8.9-1.8-23.8-13.5-23.8-13.5l40.5,2.6s26.7-1.8,39.5-5.4c10.9-3,31.1-13.2,31.1-13.2l-11.3-4.5c20.7-8.4,42.2-20.1,73.1-72.9l-11.5,5.6-6.5,1.3-3.5-1s8.6-3.3,11.7-6.6c3.4-3.6,7.6-8.8,8.9-15,1.2-5.8-.4-12.5,2.4-17.2s10.9-12.1,10.9-12.1c0,0-6-2.4-9.2-2.6-4.2-.3-12.5,1.5-12.5,1.5,0,0-2.9-4.6,4.4-7.3,2.9-1.1,9.5,0,14.9-.5,3.6-.4,6.8-2.3,7.9-3.4,6.5-6.1,6.4-17,11.8-24.2,2.7-3.6,10-9,10-9,0,0-8.3-3.1-18.4.5-7.8,2.8-16.8,12.2-23,13.7-6.4,1.5-16.9.7-25.1,1.6-8.5.9-14.6,3.5-14.6,3.5,0,0-3.9-9.4-1.9-18.6,1.8-8,9.1-15.7,14.5-18.3,4.3-2,12.2-1.4,17.9,1.5,6.5,3.3,10.5,9.1,10.5,9.1l-3.7-15s15,5.5,22.5,4.4c5.4-.8,13.2-3.7,19.2-7.3,6.9-4.2,11.5-9.1,11.5-9.1,0,0-10.4-1.1-14-4.5-2.9-2.7-4.4-10.9-4.4-10.9,0,0,8,7.4,12.7,6.7,4.9-.8,10-.9,14.9-4.8,8.5-6.8,8.6-19.5,14.3-28.3,5.3-8.2,16.4-12.7,16.4-12.7,0,0-7.5-1.1-11.2-.5-5.3.9-14.9,5.9-14.9,5.9,0,0-4.2-7,6.2-12.9,2.7-1.5,9.9-.4,16.2-1.4,6-1,11.2-4.1,12.8-5.7,2.9-3.1,6.3-7.7,7.6-13.5,1.2-5.1.2-11.3,2.2-15.7,4.6-10.4,13-16.2,13-16.2,0,0-9.3-.5-19.5,7.9-5.8,4.8-10,18.4-17.8,21.9-7.8,3.4-16.2-.3-24.5.2-7.7.4-15.5,5-19.9,9.1-2.9,2.8-5.8,8.1-6.7,14.1-.9,5.6.2,11.9-1.8,16.4-4.3,9.6-14,12.6-14,12.6,0,0-.2-8.3-.8-16.2-.6-7.5-1.7-14.4,0-19,.9-2.4,4.2-6.5,4.2-6.5,0,0-9.1,1.4-12.7,4-2.8,2.1-4.1,8.1-6.4,11.9-2.5,4.2-5.7,6.1-5.7,6.1,0,0-3.3,2.1-9.2,3-5.4.8-13.2.4-19.3,2.7-7,2.7-12,7.6-15.6,12-6.9,8.4-6.1,32.2-6.1,32.2,0,0-7-10.5-8.6-16.5-1.1-4.1-.5-12.7-.5-12.7,0,0-8.6,12.7-15.7,27.5-5.4,11.3-9.6,23.9-10.5,33.4-.6,6.3-.7,16,1.4,24,2.7,10.3,7.9,18.4,7.9,18.4,0,0-12.6-.3-17,2.5-5.1,3.2-4.8,17.3-4.8,17.3,0,0,2.3-3.7,6.3-5,3.1-1,7.9.2,9.8,1.7,5.9,4.5,11.6,13.9,12.1,23.2.7,13.6-6,27.6-8.5,31.3-6,9-23.5,22.2-23.5,22.2,0,0-.5-16.6-2.5-24.6-1.8-7.3-8.3-20.8-8.3-20.8,0,0,2.8,19.4-.3,28.3-2.2,6.4-5.1,18.3-10.6,25.1-6.7,8.1-16.1,10.6-16.1,10.6,0,0,8.6-7.3,11-12.2,2.2-4.6,1.2-12.3,1.9-18.7.7-6.1,3.2-11.1,3.2-11.1l3.4-8.8s-7.7,3.6-11,6.1c-2.8,2.1-7.4,7.3-7.4,7.3,0,0-2.4-4.2,6.4-14.7,2.2-2.6,3.5-4.7,2.9-9.8-1.2-10.4-16.1-29.6-16.3-40.4,0-9.5,9.6-12.7,9.8-20.2.2-5.7-6.6-15.8-6.6-15.8,0,0-2.2,10.7-10.5,18.8-4.3,4.2-12,6.4-17.2,10.1-5.5,3.8-8.5,9-10.5,13.6-1.1,2.5-1.9,6.9-1.3,11.6.8,5.8,3.1,12.1,3,16.3-.2,7.8-5,8.4-5,8.4,0,0-2.5-3.1-3.2-4.9-1.1-3,1.7-7.3,1.3-11.4-.5-5-4-9.6-4-9.6,0,0-2.2,10.2-8.9,18-2.8,3.2-10.2,7.6-13.8,10.4-4.9,3.9-5.9,6.3-8.5,11.5-4.8,9.4-.7,14.6-.4,22.5.3,5.8,9.1,14.7,9.1,14.7,0,0-18.8.6-26.8,5-11.5,6.3-26.8,28.8-26.8,28.8,0,0,10.5-5.4,16.2-5.2,5.9.2,16.3,6.5,16.3,6.5,0,0-16.9,11.6-24.2,18.7-7.9,7.8-20.9,26-20.9,26h0v-.2h.1Z"/>
    <path id="path11610" class="st8" d="M1680.4,1330.9s4.7,11.1,5.7,16.9c.9,4.9.5,14.8.5,14.8,0,0,10.3-8.8,13.1-14.7,4-8.3,5.8-14.2,4.9-27.1-.5-8-4.6-15.4-9.4-19-5-3.8-18.7,3-18.7,3,0,0,2.2-7.8,9.8-11,3.5-1.5,8.8-3.1,13.4-2.6,3.8.4,7.1,2.8,9.3,3.7,5,2.1,10.2,8.9,12.9,15.6,3.1,7.8,3.4,15.6,3.4,15.6,0,0,.9,6.2-1.1,14.2-1.8,7-6.5,15.6-9.3,20.5-5.8,9.9-24,24.7-24,24.7l-39,22.5,2.6-16.8s-5.1.6-9.7-1.1c-3.4-1.2-6.4-4.4-7.9-6.7-2.3-3.5-4.5-9.5-4.1-15.1.5-6.3,3.9-11.9,3.9-11.9,0,0,2.4-5.9,10.6-8.7,7.3-2.4,20.2-1.5,24.9-5.2,3.8-3,8.2-11.8,8.2-11.8h0v.2h0Z"/>
    <path id="path11606" class="st2" d="M1805.3,1276.5c-4.3,20.4-26.9,41.9-48,60.1-28.6,24.7-56.8,43.1-56.8,43.1l24.4-39.9,22.1-19.4,32.5-30.3s-5.4.5-9,0c-2.7-.4-5.6-2.4-7.2-3.8-2.2-2-4.4-5.6-5.1-9.4-.8-3.9,0-7.8,0-7.8,0,0,.9-6.3,7.7-13.2,7.5-7.6,20.9-16.2,22.1-24.5.4-3.2.4-7.6-1.8-11.7-4.1-7.3-11.8-14.1-11.8-14.1,0,0,9.4,3.5,17.4,11.3,4.2,4.1,7.2,10.5,9.9,15.9,7,13.8,6.2,32,3.8,43.5h0l-.2.2h0Z"/>
    <path id="path11612" class="st2" d="M1896.4,1090.8c3.4,9.2,5.4,23.3,3.6,36.1-2.3,15.8-9.2,29.5-9.2,29.5,0,0-12,26.3-19,38.9-9.5,17.1-31.4,49.8-31.4,49.8l6-24v-18.4s5.6-9.1,12.8-22.6c4.8-8.9,10.9-19.6,14.4-31.4,3.9-13.1,7-27.7,7.2-39.6.3-12.3-2.5-21.8-4-25.1-3.4-7.3-7.7-15.4-15.1-22.4-8.3-7.9-20-14.4-26.3-21-6.3-6.5-2.2-10-7.9-16.9-1.6-2-4.9-6-4.9-6,0,0,5.8,1.6,9.3,5.5,3.4,3.8,4.3,9.9,10.4,14.7,6.3,4.9,17.2,7.7,24.3,13.3,14.5,11.4,24.9,26.6,29.8,39.6h0Z"/>
    <path id="path11608" class="st2" d="M1846.3,1218.9c-1.2,9-3.7,19.9-9.8,30.3-13.8,23.5-36.5,45.7-36.5,45.7l5.6-19.8,1.4-16.3s12.9-14.6,19.6-31.8c5.7-14.8,5.8-31.6,1.6-42.7-4.2-10.9-15-28.1-28.5-34.1-10.7-4.7-25,.5-25,.5,0,0,10.7-9.6,25.9-8,9.3,1,23.6,10.8,28.6,15.7,15.4,14.9,20,39.7,17.1,60.5h0Z"/>
    <path id="rect11572" class="st2" d="M1021.8,1276.1c4.3,20.4,26.9,41.9,48,60.1,28.6,24.7,56.8,43.1,56.8,43.1l-24.4-39.9-22.1-19.4-32.5-30.3s5.4.5,9,0c2.7-.4,5.6-2.4,7.2-3.8,2.2-2,4.4-5.6,5.1-9.4.8-3.9,0-7.8,0-7.8,0,0-.9-6.3-7.7-13.2-7.5-7.6-20.9-16.2-22.1-24.5-1.2-8.8,13.7-25.8,13.7-25.8,0,0-19.4,11.6-27.3,27.2-7,13.8-6.2,32-3.8,43.5h0v.2h0Z"/>
    <path id="rect11570" class="st2" d="M980.8,1218.5c1.2,9,3.7,19.9,9.8,30.3,13.8,23.5,36.5,45.7,36.5,45.7l-5.6-19.8-1.4-16.3s-12.9-14.6-19.6-31.8c-5.7-14.8-5.8-31.6-1.6-42.7,4.2-10.9,15-28.1,28.5-34.1,10.7-4.7,25,.5,25,.5,0,0-10.7-9.6-25.9-8-9.3,1-23.6,10.8-28.6,15.7-15.4,14.9-20,39.7-17.1,60.5h0Z"/>
    <path id="rect11577" class="st5" d="M1146.8,1330.5s-4.7,11.1-5.7,16.9c-.9,4.9-.5,14.8-.5,14.8,0,0-10.3-8.8-13.1-14.7-4-8.3-5.8-14.2-4.9-27.1.5-8,4.6-15.4,9.4-19,5-3.8,18.7,3,18.7,3,0,0-2.2-7.8-9.8-11-6.4-2.7-17.9-.9-22.7,1.1-5,2.1-10.2,8.9-12.9,15.6-3.1,7.8-3.4,15.6-3.4,15.6,0,0-.9,6.2,1.1,14.2,1.8,7,6.5,15.6,9.3,20.5,5.8,9.9,24,24.7,24,24.7l39,22.5-2.6-16.8s5.1.6,9.7-1.1c3.4-1.2,6.4-4.4,7.9-6.7,4.9-7.5.2-26.9.2-26.9,0,0-2.4-5.9-10.6-8.7-7.3-2.4-20.2-1.5-24.9-5.2-3.8-3-8.2-11.8-8.2-11.7h0Z"/>
    <path id="rect11559" class="st2" d="M930.8,1090.3c-3.4,9.2-5.4,23.3-3.6,36.1,2.3,15.8,9.2,29.5,9.2,29.5,0,0,12,26.3,19,38.9,9.5,17.1,31.4,49.8,31.4,49.8l-6-24v-18.4s-5.6-9.1-12.8-22.6c-4.8-8.9-10.9-19.6-14.4-31.4-3.9-13.1-7-27.7-7.2-39.6-.3-12.3,2.5-21.8,4-25.1,3.4-7.3,7.7-15.4,15.1-22.4,8.3-7.9,20-14.4,26.3-21,6.3-6.5,2.2-10,7.9-16.9,1.6-2,4.9-6,4.9-6,0,0-5.8,1.6-9.3,5.5-3.4,3.8-4.3,9.9-10.4,14.7-6.3,4.9-17.2,7.7-24.3,13.3-14.5,11.4-24.9,26.6-29.7,39.7h-.1Z"/>
    <g id="g9606">
      <path id="path9602" class="st2" d="M1914.1,805.8c20.1,39.9,24.9,107,21.6,163-3,51-13.3,92.9-13.3,92.9l-9-52.7s5.6-30.9,6-67.6c.4-33.9-3.9-72.8-13.1-97.7-4.9-13.2-9.8-30.1-18.5-46-8.5-15.6-20.7-30.1-31.6-42.1-16.2-17.7-39-26.4-39-26.4,0,0,26.5,4.2,48,18.4,22.2,14.6,39.5,39.5,48.9,58.2h0Z"/>
      <path id="path9600" class="st2" d="M1915.3,1005.6c4.6,13.5,7.2,34.9,7.2,53s-21.1,76.4-21.1,76.4c0,0,.6-17.6-.4-26.4-.7-5.7-3.9-16.8-3.9-16.8,0,0,5.8-14.2,6.9-30.4.9-12.9-2.7-27.1-4.2-36.9-2.3-14.9-26-52.9-26-52.9,0,0,1.5-10.2.8-15.3-.8-6-5.7-17.1-5.7-17.1,0,0,9.3,6.6,17.8,17.1,11.5,14.2,23.6,34.7,28.6,49.3h0Z"/>
    </g>
    <path id="rect7258" class="st2" d="M912.6,1004.1c-4.6,13.5-7.2,34.9-7.2,53s21.1,76.4,21.1,76.4c0,0-.6-17.6.4-26.4.7-5.7,3.9-16.8,3.9-16.8,0,0-5.8-14.2-6.9-30.4-.9-12.9,2.7-27.1,4.2-36.9,2.3-14.9,26-52.9,26-52.9,0,0-1.5-10.2-.8-15.3.8-6,5.7-17.1,5.7-17.1,0,0-9.3,6.6-17.8,17.1-11.5,14.2-23.6,34.7-28.6,49.3h0Z"/>
    <path id="rect7050" class="st2" d="M912.3,806.3c-20.1,39.9-24.9,107-21.6,163,3,51,13.3,92.9,13.3,92.9l9-52.7s-12-113.5,7-165.2c4.9-13.2,9.8-30.1,18.5-46,8.5-15.6,20.7-30.1,31.6-42.1,16.2-17.7,39-26.4,39-26.4,0,0-26.5,4.2-48,18.4-22.2,14.6-39.5,39.5-48.9,58.1h.1Z"/>
    <path id="rect5725" class="st9" d="M1236.8,1414.6l-23.1,10.2s36.1,16.4,85.2,27.6c37.6,8.6,85.3,12.6,114.8,12.6s56.7-2.1,88.5-7.2c18.6-3,37-7.9,53.1-12,34.3-8.7,58.1-21,58.1-21,0,0-10.2-1.5-14.8-3.7-3.2-1.5-8.4-6.4-8.4-6.4,0,0-24.2,10.8-57.2,18.4-38,8.7-87.4,14.2-119.4,14.2s-73.5-4.5-109.5-12.4c-38.3-8.4-67.2-20.1-67.2-20.1h0v-.2h0Z"/>
    <path id="rect27691" class="st7" d="M1205.6,1287.9v46.4l-24.2-11.5s8.9,11.8,12,18.4,6.2,20.9,6.2,20.9l-7.2-4.3s1.4,11,.8,16.4c-.4,3.3-3,10.5-7.7,13.7-5.5,3.7-13,3-13,3l1.8,11.7,8.7,9.5,28,12.7s271.5,27.3,403,0c9.4-2,26.3-11.5,26.3-11.5,0,0,8.8-5.7,11.2-10.1,2-3.6,2.1-12.2,2.1-12.2,0,0-8,.7-13.5-3.4-4.7-3.4-7-11.2-7.2-15.3-.2-4.6,1.3-13.8,1.3-13.8l-7.6,3.3s3.2-14.1,6.2-20.6c3.1-6.6,12-18.3,12-18.3l-23.6,12.3-.5-47.2s-21.1,12.6-52.4,21.7c-46.2,13.5-113.3,25.2-155.7,25.2s-97.4-9-142.3-21.6c-37.4-10.6-64.8-25.3-64.7-25.4h0Z"/>
    <path id="path8942" class="st6" d="M1583.4,1384.8s-1,14.1-2.6,21c-1.1,4.8-4.9,13.9-4.9,13.9l-26.6,8.5s-24.9,6.7-37.5,9.2c-18.1,3.6-54.7,8.4-54.7,8.4l-8.7-27.3s3.5-5.4,6.2-6.9c5.4-3.1,15.1-2.4,22.6-3.4,6.7-.9,11.6-3.6,11.6-3.6l-1.5,7.3,25.1-9.2,8.9-7.1-.3,12.4,10.8-6.7,25.7-8.1-.9,6,26.7-14.4h.1Z"/>
    <path id="rect8939" class="st4" d="M1241.9,1384.1s1,14.1,2.6,21c1.1,4.8,4.9,13.9,4.9,13.9l26.6,8.5s24.9,6.7,37.5,9.2c18.1,3.6,54.7,8.4,54.7,8.4l8.7-27.3s-3.5-5.4-6.2-6.9c-5.4-3.1-15.1-2.4-22.6-3.4-6.7-.9-11.6-3.6-11.6-3.6l1.5,7.3-25.1-9.2-8.9-7.1.3,12.4-10.8-6.7-25.7-8.1.9,6-26.7-14.4h-.1Z"/>
    <path id="rect6946" class="st3" d="M1413.2,1377.2s-5,7.9-10.9,15.5c-3.7,4.7-8.4,8.5-10.2,12.7-1.8,4.1-2.3,13.2-2.3,13.2l-4.7-5.7s-13.2,11.4-16.3,19.3c-1.6,4-.5,13-.5,13l45.2,2,44.6-1.9s1.5-7.5.3-11c-2.9-8.6-17.1-21.3-17.1-21.3l-5.7,5.9-1.2-13-11.4-15.2-9.9-13.3v-.2h0Z"/>
    <path id="rect23578" class="st2" d="M1622.2,480.7c-40.6,5.3-61.6,28.6-61.6,28.6,0,0,13.2-7.7,32.5-10.8,16.1-2.5,37.3-.7,49.5,2.1,17.4,3.9,41.4,13.8,61.3,26.8,30.8,20.1,55.1,44.8,55.1,44.8l52.2,28.6-30.9-33-35.3-31.7-58.6-41.6s-34.2-17.8-64.2-13.8h0Z"/>
    <path id="rect23821" class="st2" d="M1499.5,431.1c-24.8,1.1-72.1,18.9-72.1,18.9,0,0,14.8-3.1,34.1-4.1,20.1-1,45.1.3,61.1,2.7,15.6,2.3,38.8,8.3,58.1,15.1,23.3,8.1,41.5,16.9,41.5,16.9l53.6,7.5s-62-32.9-95.4-43.1c-15.5-4.8-31.2-10.5-47.4-13.1-11-1.7-22.4-1.3-33.5-.8h0Z"/>
    <path id="rect25736" class="st2" d="M1670.6,589.5s11.5-10.5,24.6-11.1c9.3-.4,20.4,7.4,24.1,13.1.6,1,8.9,4.2,8.9,4.2l-9.6,6.1-6.5,6.6s7.1-.5,10.4.7c8.2,2.9,13,12.2,21.2,15,5.6,1.9,12.2,2.7,17.7.6,5.4-2,12.7-11.9,12.7-11.9,0,0,12.5,3.3,24.1,11.2,12,8.2,23.3,21.2,30.9,30.1,27.4,32.2,59.2,112.3,59.2,112.3,0,0,15.1,20.5,21.5,31.4,5.9,10,15.4,31.3,15.4,31.3,0,0-19.3-72.5-35.5-106-9.9-20.4-24-48.2-40.4-72.1-18.5-27-38.8-49-38.8-49,0,0-27.5-22.2-57.4-31.6-13.1-4.1-27.4-5.3-38.5-4.3-7.8.7-13.9,3-17.3,3.9-10.7,2.9-26.6,19.7-26.6,19.7v-.2h0Z"/>
    <path id="path25749" class="st2" d="M1328.4,431.1c24.8,1.1,72.1,18.9,72.1,18.9,0,0-14.8-3.1-34.1-4.1-20.1-1-45.1.3-61.1,2.7-15.6,2.3-38.8,8.3-58.1,15.1-23.3,8.1-41.5,16.9-41.5,16.9l-53.6,7.5s62-32.9,95.4-43.1c15.5-4.8,31.2-10.5,47.4-13.1,11-1.7,22.4-1.3,33.5-.8h0Z"/>
    <path id="path25747" class="st2" d="M1205.7,480.7c40.6,5.3,61.6,28.6,61.6,28.6,0,0-13.2-7.7-32.5-10.8-16.1-2.5-37.3-.7-49.5,2.1-17.4,3.9-41.4,13.8-61.3,26.8-30.8,20.1-55.1,44.8-55.1,44.8l-54.1,30.3,32.8-34.7,35.3-31.7,30.1-23.2,28.4-18.3s34.2-17.8,64.3-13.9h0Z"/>
    <path id="path25751" class="st2" d="M1157.3,589.5s-11.5-10.5-24.6-11.1c-9.3-.4-20.4,7.4-24.1,13.1-.6,1-8.9,4.2-8.9,4.2l9.6,6.1,6.5,6.6s-7.1-.5-10.4.7c-8.2,2.9-13,12.2-21.2,15-5.6,1.9-12.2,2.7-17.7.6-5.4-2-12.7-11.9-12.7-11.9,0,0-12.5,3.3-24.1,11.2-12,8.2-23.3,21.2-30.9,30.1-27.4,32.2-59.2,112.3-59.2,112.3,0,0-15.2,20.4-21.5,31.4-6.2,10.9-15.9,34.2-15.9,34.2,0,0,4.4-23.7,12-48,6.6-21.3,16.4-45.3,24-61,9.9-20.4,24-48.2,40.4-72.1,18.5-27,38.8-49,38.8-49,0,0,27.5-22.2,57.4-31.6,13.1-4.1,27.4-5.3,38.5-4.3,7.8.7,13.9,3,17.3,3.9,10.7,2.9,26.6,19.7,26.6,19.7h0Z"/>
    <path id="path79648" class="st12" d="M1563.7,439.5c-65.4-24-133.3,11.2-133.3,11.2,80.8-18.7,162,17.1,162,17.1,9.4,3.5,29.6,12.8,42.2,18.5,2.3,1.1,59.6,13.3,61.3,14.1"/>
    <path id="path9311" class="st13" d="M1868.3,1163.2c-6.5,13.3-13.5,26.3-21.1,38.9"/>
    <path id="path9313" class="st13" d="M1868.3,1163.2"/>
    <path id="path9315" class="st13" d="M1413.7,1377.2s7.2,13.2,16.7,22.4c9.4,9.2,3.7,21.3,3.7,21.3,0,0,7-6.2,7.2-8.1,0,0,23.9,18.7,16.8,32.4"/>
    <path id="path9335" class="st13" d="M1477.4,860.4"/>
    <path id="path9349" class="st13" d="M1413.7,945.8"/>
    <path id="path9369" class="st13" d="M1596.2,1389.6s-7.5-44.4,48.8-66.8c0,0-15.8,16.6-18.5,40.9"/>
    <path id="path9371" class="st13" d="M1624.3,1394.8c1.4,2.1.8,5-1.3,6.4-1.1.8-2.5,1-3.7.9,0,0-8.1.7-8.1-14.7s24.8-31.2,24.8-31.2c0,0-13.5,34.7,17.9,34.7,0,0,1.3,15.6-10.5,21.2"/>
    <path id="path9373" class="st13" d="M1448.8,1419.8s2.6-12.5,20.4-11.9c17.9.6,21-5.6,21-5.6,0,0-1.2,8.6-5.2,13.2,0,0,8.8-9.9,18.9-10.3s18.5-10.3,18.5-10.3c0,0,1.1,20.2-5.1,29-6.3,8.8-15.9,9.9-17.7,9.9-3.7,0-10.6-.4-10.6-9,0,0-.2-5.6,6.4-6.2"/>
    <path id="path9375" class="st13" d="M1554,1427.4c-4-.6-9.4-2.5-8.7-10.4,0,0,.4-5.9,7.4-5.8"/>
    <path id="path9377" class="st13" d="M1583.6,1389.1s-.9,21.4-8.4,30c-.9,1-1.8,1.9-2.7,2.7"/>
    <path id="path9379" class="st13" d="M1521.2,1413.2s2.7-12.5,19.1-14.6,18.4-8.2,18.4-8.2c0,0,.2,8-2.8,12.8,0,0,6.6-10.3,15.7-12.3,9.2-1.9,14.7-12.2,14.7-12.2"/>
    <path id="path9381" class="st13" d="M1615.2,1424.8c-45.8-3-29.1-46.2-29.1-46.2"/>
    <path id="path9393" class="st13" d="M1205.6,1336.3v-48.4c65,39.8,207.1,46.9,207.1,46.9h.9s142.1-7.1,207.1-46.9v48.4"/>
    <path id="path9395" class="st13" d="M1406.4,1387.3c-87-1.1-157.5-24.8-186.5-36.1"/>
    <path id="path9397" class="st13" d="M1606.5,1351.2c-29,11.4-99.4,35-186.5,36.1"/>
    <path id="path9399" class="st13" d="M1412.8,1377.2s-7.2,13.2-16.7,22.4c-9.4,9.2-3.7,21.3-3.7,21.3,0,0-7-6.2-7.2-8.1,0,0-23.8,18.6-16.8,32.3"/>
    <path id="path9401" class="st13" d="M1205.6,1335.1s89.1,42.2,207.1,42.2h.9c118,0,207.1-42.2,207.1-42.2"/>
    <path id="path9447" class="st13" d="M1349,860.4"/>
    <path id="path9463" class="st13" d="M1412.8,945.8"/>
    <path id="path9487" class="st13" d="M1386.7,1446.4c0-3.5,1.7-11.6,13.3-18.7,0,0,8.6-6.1,12.8-12.2h.9c4.2,6.2,12.8,12.2,12.8,12.2,11.4,7,13.1,15,13.3,18.5"/>
    <path id="path9489" class="st13" d="M1230.2,1389.6s7.5-44.4-48.8-66.8c0,0,15.8,16.6,18.5,40.9"/>
    <path id="path9491" class="st13" d="M1202.1,1394.8c-1.4,2.1-.8,5,1.3,6.4,1.1.8,2.5,1,3.7.9,0,0,8.1.7,8.1-14.7s-24.8-31.2-24.8-31.2c0,0,13.5,34.7-17.9,34.7,0,0-1.3,15.6,10.5,21.2"/>
    <path id="path9493" class="st13" d="M1377.6,1419.8s-2.6-12.5-20.4-11.9c-17.9.6-21-5.6-21-5.6,0,0,1.2,8.6,5.2,13.2,0,0-8.8-9.9-18.9-10.3s-18.5-10.3-18.5-10.3c0,0-1.1,20.2,5.2,29,6.3,8.8,15.9,9.9,17.7,9.9,3.7,0,10.6-.4,10.6-9,0,0,.2-5.6-6.4-6.2"/>
    <path id="path9495" class="st13" d="M1274.7,1426.9c.2,0,.3,0,.5-.2.5-.2.9-.3,1.4-.6,2.7-1.3,5-3.9,4.4-9.2,0,0-.4-5.9-7.4-5.8"/>
    <path id="path9497" class="st13" d="M1242.8,1389.1s.9,21.4,8.4,30c.2.2.4.5.6.7l.6.6"/>
    <path id="path9499" class="st13" d="M1305.2,1413.2s-2.7-12.5-19.1-14.6-18.4-8.2-18.4-8.2c0,0-.2,8,2.8,12.8,0,0-6.6-10.3-15.7-12.3-9.2-1.9-14.7-12.2-14.7-12.2"/>
    <path id="path9501" class="st13" d="M1211.2,1424.8c45.8-3,29.1-46.2,29.1-46.2"/>
    <g>
      <polygon class="st11" points="1243 1156.3 1246.6 1168.2 1253.1 1179.6 1259.7 1184.8 1266.9 1192.1 1272.5 1200.5 1276.9 1207.1 1284.6 1213.3 1287.9 1214.6 1289.5 1224.2 1281.1 1223.1 1271.5 1225.6 1262.8 1235.5 1260.8 1246.5 1263.1 1259 1268.9 1270.2 1274.5 1280.9 1273.5 1289 1269.2 1292.6 1263 1293.3 1259.7 1292.8 1263.1 1300.5 1270.5 1306.2 1279.7 1308 1287.8 1305.1 1298.1 1300.6 1304.3 1294.3 1308.4 1284 1309.9 1278.3 1322.7 1282.2 1347.4 1286.6 1367.1 1288.5 1382.5 1289.5 1389.9 1289.8 1395.1 1305.1 1401.2 1314.8 1411.4 1327.8 1417 1324.5 1427.7 1311.2 1434.1 1299 1436.5 1289.8 1469 1287.8 1495.3 1284 1516.6 1278.3 1518.7 1288.4 1526.1 1298.8 1534 1304.2 1542.1 1308.5 1552.5 1307.8 1562 1302.3 1566.8 1292.8 1558.4 1293.8 1553.4 1289.8 1551.6 1283.8 1555.5 1273.4 1563.7 1258.1 1565.3 1242 1561.4 1231.3 1554.9 1225.6 1545.2 1223.1 1534.3 1225.1 1537.9 1220.1 1538.6 1214.6 1544.1 1212 1550.2 1206.4 1557 1195.3 1565.8 1185.6 1573.4 1179.6 1579.9 1168.1 1583.5 1157.6 1551.3 1161.9 1499.2 1167.8 1461.6 1170 1419.1 1171.1 1359.8 1169.2 1300 1165.3 1263 1160.9 1243 1156.3"/>
      <path id="path9383" class="st10" d="M1367,719.3s-6.9,3.4-8,10.7h-17.6s-13.2-1.8-31.3,25.5c-18.2,27.2-48,29-48,29v37.2s35.4,1.2,35.4,37.8c0,0,2.9,20.4-58.3,53,0,0-76.2,40.4-76.2,122.4,0,0-2.6,94.5,80,121.7,0,0,92.7,13.9,169.8,13.9h.9c77.1,0,169.8-13.9,169.8-13.9,82.6-27.2,80-121.7,80-121.7,0-82-76.2-122.4-76.2-122.4-61.2-32.7-58.3-53-58.3-53,0-36.6,35.4-37.8,35.4-37.8v-37.2s-29.9-1.8-48-29c-18.2-27.2-31.3-25.5-31.3-25.5h-17.6c-1.1-7.2-8-10.7-8-10.7"/>
      <path id="path9385" class="st10" d="M1412.8,719.3h-45.8s-8.7-1.2-11.8-11.8c-3.1-10.5-9.6-12.9-9.6-12.9,0,0,4.1-.9,9.4-9.4s13.9-8.6,13.9-8.6h16v-8.6c-9.2,0-19.3-17.1-19.3-17.1,40-55.4,33.5-127.1,33.5-127.1,5.9-3.8,14.1-16,14.1-16,0,0,8.3,12.2,14.1,16,0,0-6.4,71.8,33.5,127.1,0,0-10.1,17.1-19.3,17.1v8.6h16s8.6,0,13.9,8.6,9.4,9.4,9.4,9.4c0,0-6.5,2.3-9.6,12.9-3.1,10.5-11.8,11.8-11.8,11.8h-46.7.1Z"/>
      <path id="path9323" class="st13" d="M1440,742.6s-1.4,16.4-13.9,23.7-12.4,18.2-12.4,18.2M1440,742.6s1.4,16.4,13.9,23.7,12.4,18.2,12.4,18.2"/>
      <path id="path9325" class="st13" d="M1492.5,742.6s-1.4,16.4-13.9,23.7-12.4,18.2-12.4,18.2M1492.5,742.6s1.4,16.4,13.9,23.7,12.4,18.2,12.4,18.2"/>
      <path id="path9327" class="st13" d="M1538.6,1213.6s1.1,9-6.7,11"/>
      <path id="path9329" class="st13" d="M1427.8,862.4c3.5,3.2,5.6,7.8,5.6,12.9s-2.2,9.7-5.6,12.9M1439.1,862.4c-3.5,3.2-5.6,7.8-5.6,12.9s2.2,9.7,5.6,12.9"/>
      <path id="path9331" class="st13" d="M1466.9,862.4c3.5,3.2,5.6,7.8,5.6,12.9s-2.2,9.7-5.6,12.9M1478.2,862.4c-3.5,3.2-5.6,7.8-5.6,12.9s2.2,9.7,5.6,12.9"/>
      <path id="path9333" class="st13" d="M1504.5,862.4c3.5,3.2,5.6,7.8,5.6,12.9s-2.2,9.7-5.6,12.9M1515.8,862.4c-3.5,3.2-5.6,7.8-5.6,12.9s2.2,9.7,5.6,12.9"/>
      <path id="path9337" class="st13" d="M1413.7,821.7s5.8,8.2,14.1,13.2c8.3,5,6.3,17.6,6.3,17.6"/>
      <path id="path9339" class="st13" d="M1454.9,821.7s-5.8,8.2-14.1,13.2c-8.3,5-6.3,17.6-6.3,17.6"/>
      <path id="path9341" class="st13" d="M1475.4,852.4s2-12.6-6.3-17.6-14.1-13.2-14.1-13.2"/>
      <path id="path9343" class="st13" d="M1496.2,821.7s-5.8,8.2-14.1,13.2c-8.3,5-6.3,17.6-6.3,17.6"/>
      <path id="path9345" class="st13" d="M1516.6,852.4s2-12.6-6.3-17.6-14.1-13.2-14.1-13.2"/>
      <path id="path9347" class="st13" d="M1537.5,821.7s-5.8,8.2-14.1,13.2c-8.3,5-6.3,17.6-6.3,17.6"/>
      <path id="path9351" class="st13" d="M1431.5,898.7c45.9,136.2,2.6,251.6,2.6,251.6,0,0,2.3-10.5-9.7-21.4-12-10.8-10.5-19.3-10.5-19.3"/>
      <path id="path79570" class="st16" d="M1393.9,897.2l-.2,1.3s-1.8,12.3,7.4,22.2c4.4,4.6,7,8,8.6,10.2,1.5,2.2,2,3.1,2,3.1l.5,1.2,1.1,1.1,1.1-1.1.5-1.2s.4-.9,2-3.1,4.2-5.6,8.6-10.2c9.2-9.8,7.4-22.2,7.4-22.2l-.2-1.3-2.5.4.2,1.3s1.7,11.1-6.7,20c-4.4,4.7-7.2,8.2-8.8,10.5-.7,1-1.2,1.7-1.5,2.3-.3-.6-.8-1.3-1.5-2.3-1.6-2.3-4.3-5.8-8.8-10.5-8.4-8.9-6.7-20-6.7-20l.2-1.3-2.5-.4h-.2Z"/>
      <path id="path9355" class="st13" d="M1472.6,898.7s10.4,11.8,25.7,20c15.3,8.2,19.2,14.8,19.2,14.8,0,0,1.3-9,3.4-15.7s3.4-12.4-1.4-19.1c0,0,9.1,10.9,21,17.4s19.7,17.4,19.7,17.4c0,0,.2-8.4,1-11.6.8-3.2,1.1-12.6-11.5-23.2,0,0,13.8,12,27.6,17.4,13.7,5.4,22.2,17.4,22.2,17.4,0,0-1.6-11.1-4-16.1"/>
      <path id="path9357" class="st13" d="M1431.5,898.7s5.7,14.9,20.1,21.7c14.4,6.7,17.4,13.1,17.4,13.1,0,0,2.4-4.9,6-13.8,3.7-8.9-2.4-20.9-2.4-20.9"/>
      <path id="path9359" class="st13" d="M1445.4,624.2c-1.2,3.3-3.1,6.9-6.4,10-8.4,8.2-8.2,16.7-8.2,16.7"/>
      <path id="path9361" class="st13" d="M1485.7,1148.2s63.9-138.5-13.1-249.5"/>
      <path id="path9363" class="st13" d="M1434.1,1150.3s6.9-13.5,18.5-20.7,18.9-22.2,18.9-22.2c0,0,1.3,10.3,8.8,17.4,7.5,7,5.4,23.4,5.4,23.4,0,0,10.6-15.3,23.6-21.7,13-6.4,19.3-21.7,19.3-21.7,0,0,2.6,9,7.9,15.6s2.6,20.4.4,23.5c0,0,87.2-130.9-18-245.2"/>
      <path id="path9365" class="st13" d="M1536.9,1143.9s19.6-17.6,30.5-22.6c11-5.1,17.3-15.4,18.8-22.6,0,0,0,5.9,1.2,17.1,1.3,11.2-2,19.6-2,19.6,0,0,37.4-40.6,37.4-111.9s-73.3-124.7-73.3-124.7"/>
      <path id="path9367" class="st13" d="M1585.5,1135.3s11.2-12.5,29-24.6,21.3-23.1,21.3-23.1c0,0,8.1,23.3,0,32.5"/>
      <polyline id="polyline9409" class="st13" points="1365.5 650.9 1412.8 650.9 1413.7 650.9 1460.9 650.9"/>
      <polyline id="polyline9411" class="st13" points="1345.6 694.7 1412.8 694.7 1413.7 694.7 1480.8 694.7"/>
      <polyline id="polyline9413" class="st13" points="1384.9 668 1412.8 668 1413.7 668 1441.6 668"/>
      <polyline id="polyline9415" class="st13" points="1384.9 676.7 1412.8 676.7 1413.7 676.7 1441.6 676.7"/>
      <polyline id="polyline9417" class="st13" points="1359 730 1412.8 730 1413.7 730 1467.5 730"/>
      <polyline id="polyline9419" class="st13" points="1320 742.6 1412.8 742.6 1413.7 742.6 1506.4 742.6"/>
      <path id="path9421" class="st13" d="M1412.8,784.5s0-10.8-12.4-18.2c-12.5-7.3-13.9-23.7-13.9-23.7M1360.2,784.5s0-10.8,12.4-18.2c12.5-7.3,13.9-23.7,13.9-23.7"/>
      <path id="path9423" class="st13" d="M1360.2,784.5s0-10.8-12.4-18.2c-12.5-7.3-13.9-23.7-13.9-23.7M1307.7,784.5s0-10.8,12.4-18.2c12.5-7.3,13.9-23.7,13.9-23.7"/>
      <polyline id="polyline9425" class="st13" points="1262 784.5 1412.8 784.5 1413.7 784.5 1564.4 784.5"/>
      <polyline id="polyline9427" class="st13" points="1262 801.7 1412.8 801.7 1413.7 801.7 1564.4 801.7"/>
      <polyline id="polyline9429" class="st13" points="1297.1 852.4 1412.8 852.4 1413.7 852.4 1529.3 852.4"/>
      <polyline id="polyline9431" class="st13" points="1297.1 862.4 1412.8 862.4 1413.7 862.4 1529.3 862.4"/>
      <polyline id="polyline9433" class="st13" points="1276.9 888.2 1412.8 888.2 1413.7 888.2 1549.5 888.2"/>
      <polyline id="polyline9435" class="st13" points="1262.5 898.7 1412.8 898.7 1413.7 898.7 1564 898.7"/>
      <path id="path9437" class="st13" d="M1287.9,1213.6s-1.1,9,6.7,11"/>
      <path id="path9441" class="st13" d="M1398.6,888.2c-3.5-3.2-5.6-7.8-5.6-12.9s2.2-9.7,5.6-12.9M1387.3,888.2c3.5-3.2,5.6-7.8,5.6-12.9s-2.2-9.7-5.6-12.9"/>
      <path id="path9443" class="st13" d="M1359.5,888.2c-3.5-3.2-5.6-7.8-5.6-12.9s2.2-9.7,5.6-12.9M1348.2,888.2c3.5-3.2,5.6-7.8,5.6-12.9s-2.2-9.7-5.6-12.9"/>
      <path id="path9445" class="st13" d="M1321.9,888.2c-3.5-3.2-5.6-7.8-5.6-12.9s2.2-9.7,5.6-12.9M1310.6,888.2c3.5-3.2,5.6-7.8,5.6-12.9s-2.2-9.7-5.6-12.9"/>
      <path id="path9449" class="st13" d="M1412.8,821.7s-5.8,8.2-14.1,13.2c-8.3,5-6.3,17.6-6.3,17.6"/>
      <path id="path9451" class="st13" d="M1371.5,821.7s5.8,8.2,14.1,13.2,6.3,17.6,6.3,17.6"/>
      <path id="path9453" class="st13" d="M1351.1,852.4s-2-12.6,6.3-17.6,14.1-13.2,14.1-13.2"/>
      <path id="path9455" class="st13" d="M1330.2,821.7s5.8,8.2,14.1,13.2c8.3,5,6.3,17.6,6.3,17.6"/>
      <path id="path9457" class="st13" d="M1309.8,852.4s-2-12.6,6.3-17.6,14.1-13.2,14.1-13.2"/>
      <path id="path9459" class="st13" d="M1289,821.7s5.8,8.2,14.1,13.2,6.3,17.6,6.3,17.6"/>
      <polyline id="polyline9461" class="st13" points="1262 821.7 1412.8 821.7 1413.7 821.7 1564.4 821.7"/>
      <path id="path9465" class="st13" d="M1395,898.7c-45.9,136.2-2.6,251.6-2.6,251.6,0,0-2.3-10.5,9.7-21.4,12-10.8,10.5-19.3,10.5-19.3"/>
      <path id="path9469" class="st13" d="M1353.9,898.7s-10.4,11.8-25.7,20c-15.3,8.2-19.2,14.8-19.2,14.8,0,0-1.3-9-3.4-15.7s-3.4-12.4,1.4-19.1c0,0-9.1,10.9-21,17.4s-19.7,17.4-19.7,17.4c0,0-.2-8.4-1-11.6-.8-3.2-1.1-12.6,11.5-23.2,0,0-13.8,12-27.6,17.4-13.7,5.4-22.2,17.4-22.2,17.4,0,0,1.6-11.1,4-16.1"/>
      <path id="path9471" class="st13" d="M1395,898.7s-5.7,14.9-20.1,21.7c-14.4,6.7-17.4,13.1-17.4,13.1,0,0-2.4-4.9-6-13.8-3.7-8.9,2.4-20.9,2.4-20.9"/>
      <path id="path9473" class="st13" d="M1399.1,523.8s9.2,2.6,13.7,2.6h.9c4.5,0,13.7-2.6,13.7-2.6"/>
      <path id="path9475" class="st13" d="M1396.2,650.9s-.2-8.5,8.2-16.7c8.4-8.2,8.9-19.6,8.9-19.6,0,0,.5,11.4,8.9,19.6,8.4,8.2,8.2,16.7,8.2,16.7"/>
      <path id="path9477" class="st13" d="M1381,624.2c1.2,3.3,3.1,6.9,6.4,10,8.4,8.2,8.2,16.7,8.2,16.7"/>
      <path id="path9479" class="st13" d="M1340.8,1148.2s-63.9-138.5,13.1-249.5"/>
      <path id="path9481" class="st13" d="M1392.3,1150.3s-6.9-13.5-18.5-20.7-18.9-22.2-18.9-22.2c0,0-1.3,10.3-8.8,17.4-7.5,7-5.4,23.4-5.4,23.4,0,0-10.6-15.3-23.6-21.7-13-6.4-19.3-21.7-19.3-21.7,0,0-2.6,9-7.9,15.6s-2.6,20.4-.4,23.5c0,0-87.2-130.9,18-245.2"/>
      <path id="path9483" class="st13" d="M1289.5,1143.9s-19.6-17.6-30.5-22.6c-11-5.1-17.3-15.4-18.8-22.6,0,0,0,5.9-1.2,17.1-1.3,11.2,2,19.6,2,19.6,0,0-37.4-40.6-37.4-111.9s73.3-124.7,73.3-124.7"/>
      <path id="path9485" class="st13" d="M1241,1135.3s-11.2-12.5-29-24.6-21.3-23.1-21.3-23.1c0,0-8.1,23.3,0,32.5"/>
      <rect class="st11" x="1402.1" y="1300.3" width="6.6" height="34.3" transform="translate(-486.7 955.7) rotate(-32.3)"/>
      <rect class="st11" x="1404.7" y="1312.5" width="34.3" height="6.6" transform="translate(-452.4 1805.7) rotate(-57.4)"/>
      <g>
        <path id="path9321" class="st13" d="M1436.5,1288.8c23.2-.8,58.7-3.3,80.1-11.4"/>
        <path id="path9407" class="st13" d="M1389.9,1288.8c-23.2-.8-58.7-3.3-80.1-11.4"/>
        <g>
          <path id="path9317" class="st13" d="M1421.4,1272.4s15.4-1.3,15.4,14.5c0,0,1.5,20.7-23,47.8"/>
          <path id="path9319" class="st13" d="M1518,1267.8s-33.9,9.7-82.2,12.2"/>
          <path id="path9387" class="st13" d="M1243,1156.6c2.4,11.4,10.1,22,10.1,22,66.8,17.1,159.7,18.9,159.7,18.9h.9s92.9-1.8,159.7-18.9c0,0,7.7-10.5,10.1-22"/>
          <path id="path9389" class="st13" d="M1253.1,1178.6s13.6,8.9,19.5,20.9,15.3,14.1,15.3,14.1c0,0,54.5,12.9,124.9,12.9h.9c70.4,0,124.9-12.9,124.9-12.9,0,0,9.5-2,15.3-14.1,5.9-12,19.5-20.9,19.5-20.9"/>
          <path id="path9391" class="st13" d="M1294.8,1268.5s-5.3.7-5.3-5.3,6.3-5.6,6.3-5.6c14.7,0,14.1,19.7,14.1,19.7,0,15.6-15,29.7-33.3,29.7s-16.9-15.2-16.9-15.2c15.5,3.1,15.2-8,15.2-9.1s.4-4.2-6.8-14.9c-7.2-10.8-7.2-21.1-7.2-21.1,0-24.4,18.5-24.6,21.7-24.6s9.4,1.8,9.4,1.8c52.4,15.2,120.9,14.6,120.9,14.6h.9s68.4.6,120.9-14.6c0,0,6.1-1.8,9.4-1.8s21.7.2,21.7,24.6c0,0,0,10.3-7.2,21.1-7.2,10.8-6.8,13.8-6.8,14.9s-.3,12.2,15.2,9.1c0,0-3.3,15.2-16.9,15.2s-33.3-14.1-33.3-29.7c0,0-.7-19.7,14.1-19.7,0,0,6.3-.3,6.3,5.6s-5.3,5.3-5.3,5.3"/>
          <path id="path9403" class="st13" d="M1405.1,1272.4s-15.4-1.3-15.4,14.5c0,0-1.5,20.7,23,47.8"/>
          <path id="path9405" class="st13" d="M1308.4,1267.8s33.9,9.7,82.2,12.2"/>
          <path id="path9439" class="st13" d="M1203.6,1134.1c19.9,24,209.2,28.3,209.2,28.3h.9s189.3-4.2,209.2-28.3"/>
          <path id="path9503" class="st13" d="M1378.3,1195.9s-3.1,4.6,0,11.7"/>
          <path id="path9505" class="st13" d="M1447.5,1195.9s3.1,4.6,0,11.7"/>
          <path id="path9507" class="st13" d="M1324,1191.1s-6,6,0,11.5"/>
          <path id="path9509" class="st13" d="M1503.9,1191.1s6,6,0,11.5"/>
          <path id="path9511" class="st13" d="M1275.8,1183.8s-3.7,6-1.7,12.2"/>
          <path id="path9513" class="st13" d="M1550.2,1183.8s3.7,6,1.7,12.2"/>
        </g>
      </g>
    </g>
    <path id="path9515" class="st13" d="M1634,1362.8s5.1-18.2,24.7-16.8c19.6,1.5,21.1-17.3,21.1-17.3,0,0,7.5,8.3,7.5,26.4s-10.7,25-17.7,25-9.4-3.8-9.4-8.6,5.5-7.4,9.2-3.7"/>
    <path id="path9517" class="st13" d="M1686.6,1362.6s16.6-8.2,18.9-36.3c0,0,1.7-26.4-15.7-26.4,0,0-8.6-.3-12.5,4.4,0,0,4.8-13.3,19.8-13.3s29,9.2,29,39.5-34.4,54.6-34.4,54.6"/>
    <path id="path9521" class="st13" d="M1795.2,1299.9s15.8-17.6,11.9-49.9c-4.3-35.3-34.1-45.5-34.1-45.5,0,0,15.8,13,15.8,24.4s-14.1,19.1-15.8,20.4c-1.8,1.3-14.5,10.8-14.5,23.3s9.9,17.4,14.3,17.4,11.9-2.9,11.9-12.5-11-8.3-11-8.3c0,0,8.6-1.3,11.4,3.5,2.9,4.8,2.5,9.2-2.3,14.3l-.3.3c-17.8,19-37,36.6-57.5,52.6"/>
    <path id="path9523" class="st13" d="M1835,1252.3c14.2-20.1,12.5-41.7,12.5-41.7-.9-65.2-48.3-68.5-48.3-68.5-22.8,0-27.7,14.1-27.7,14.1,6.4-8.9,18.7-8.5,18.7-8.5,21.1,0,41.7,28.3,41.7,53.8s-14.8,44.8-14.8,44.8h0c-3.1,4-6.3,8-9.5,12"/>
    <path id="path9525" class="st13" d="M1868.2,1163.3s40-80.4-18.7-111.2c0,0-16.8-11.6-18.4-21.7s-12.2-14.2-12.2-14.2c0,0,13.6.6,18,13.6,0,0,1.5,7.5,18.9,14.1s66.4,48,35.5,111.9"/>
    <path id="path9527" class="st13" d="M1935.9,903.6c-8.2-168-117.2-173.8-117.2-173.8,97,44.2,99.4,176.3,99.4,176.3v-.3c.8,11.8,1.2,23.7,1.2,35.7,0,23.1-1.5,45.8-4.5,68"/>
    <path id="path9529" class="st13" d="M1854.8,1188.8s13.7-18.2,2.6-37c-11.1-18.7-7.6-32.4-7.6-32.4,0,0-13.2,11.2-11.1,23.8,0,0-6.1-3.4-5-15.5,1.2-12,4.1-25.8-18.2-38.1-22.3-12.3-19-20.5-18.7-24.3s1.5-10.5-10-20.2c0,0,1.5,13.5-5.6,20.2,0,0-15.2,13.8-15.2,31.6s12,24.9,23.4,24.9,12.9-9.4,12.9-12,0-10-9.7-10"/>
    <path id="path9531" class="st13" d="M1796.7,1142.1s-70-4-70-48.8-13.5-48-13.5-48c0,0,14.1-7,23.4,6.4,0,0,7.6-7.6-3.5-12s-21.7-7.9-21.1-26.4-8.5-23.1-8.5-23.1c0,0-5.9-3.2-5-13.8,0,0,.9-7.9-3.1-9.2,0,0,7.2.9,8.6,7.3,1.5,6.4,4.1,10,11.9,12.3s9.7,4.5,13.9,15.2c4.2,10.7,13.6,13,18.7,12.6s27.2,6.4,27.2,30.6c0,0,1.3,19.4-13.6,32.4,0,0-13.6,12.2,8.1,35.2"/>
    <path id="path9533" class="st13" d="M1772.7,612.3c46.5,10,81.8,81.3,81.8,81.3h0c13.2,23.3,24.5,47.8,33.9,73.3"/>
    <path id="path9535" class="st13" d="M1831.6,626.1s-41.3-60.3-111-60.3c0,0-32.3-2.2-51.8,26.4,0,0,12.3-10.8,19.5-12.5,7.2-1.8,18.7-3.7,26.4,7.2,7.7,11,24.2,9.1,24.2,9.1"/>
    <path id="path9537" class="st13" d="M1730.2,595.6s-11.6,3.6-18.2,12.8c0,0,10.1-3.1,19.8,6.8,9.7,9.9,16.7,10.9,21.1,10.9s19.9-2.4,19.9-13.8-6.2-13-9.3-13-5.6,1.5-5.6,5.6"/>
    <path id="path9539" class="st13" d="M1686.4,494.5c-77.4-39-125.8,14.7-125.8,14.7,64.1-33.7,135.7,12.9,135.7,12.9h0c22.2,15,43.1,31.7,62.6,49.9"/>
    <path id="path9543" class="st13" d="M1621.7,670.2c-1.9.9.2.5-2.3,0-7.9-1.8-16.8-10.5-15.7-24.6,1.5-18.6-21.1-30.9-35.2-27.1-14.1,3.8-22.6-2.3-28.1-15.2-5.6-12.9-25.2-15.2-25.2-15.2,0,0,15.5,12.5,14.6,24.3s7,28.5,27.2,27,17,16.1,17,16.1c0,0-11.7-11.4-26.9-7.3,0,0,19,7.9,19.9,22.4s22.8,33.8,38.4,16.8c0,0,1.2,15.4-18.5,15.4,0,0,29,30.9,56.9,8.8"/>
    <path id="path9545" class="st13" d="M1640.3,678.1c.2-3.1,2.8-5.5,5.9-5.3,3.9.2,6.9,3.5,6.7,7.4-.2,4.9-4.4,8.6-9.2,8.3,0,0-27.5,0-23.4-34.6,0,0,4-19.9-4.2-25.5,0,0,13-1.6,17,11.1,4,12.7,15.5,15.1,23.6,14.5,13.3-1,39.4,9.9,34.5,46.3"/>
    <path id="path9547" class="st13" d="M1677.5,756.1c1.7-3.9,2.7-7.9,2.7-11.7,0-14.1-9.4-26.5-22.6-26.5s-21.1,11.9-21.1,11.9c0,0,.9-27.1,29.6-27.1s57.4,42.3,33.4,81.3"/>
    <path id="path9549" class="st13" d="M1808.7,869.6c3.2-3.6,6.1-3.3,6.1-3.3,9.2,0,8.3,8.9,8.3,8.9,0,13.6-24.6,13.6-24.6,13.6-60.5,0-43.5-72.1-43.5-72.1-13.4,26.9-12.2,44-12.2,44,0,61.6,59.7,60.4,59.7,60.4,21.1,0,25.8-15.1,25.8-15.1,0,19.3,24.2,18,24.2,18,2.1,0,10.8-.7,23.2-12.4,12.3-11.7,31,0,31,0,0,0-16.8-34.1-49.6-34.1,0,0-12.8-.9-12.8,10.7,0,0-1,8.7,8.3,8.7s3.8-.4,4.9-1.1"/>
    <path id="path9551" class="st13" d="M1683.4,707.7s20.2-14.2,16.7-36.5c0,0,46.2,57.6,16.9,103.2"/>
    <path id="path9553" class="st13" d="M1832.6,889.6c10.1-8.1,9.8-17.9,9.8-17.9,0-26.2-18.2-25.9-28.1-31.5-10-5.6-6.3-17.9-6.3-17.9,0,0-20,13.9-20,42s27.2,21.2,27.2,21.2"/>
    <path id="path9555" class="st13" d="M1844.6,884.6s-3.8-1.2-7.4.4"/>
    <path id="path9557" class="st13" d="M1795.2,888.8s-29.3-4.9-27.7-23.8c1.5-18.2-6.6-29.6-6.6-29.6,0,0,15.5,6,20.2,16.5,0,0,2-6.4-6.6-15.8-8.6-9.4-3.1-21.8,2.2-28,0,0,19.1-23.4,3.4-36,0,0-9.9-5.3,3-24.3,0,0,2.1,17,19.1,24.1,17,7,24,21.7,18.9,36.1-5.1,14.4,3.5,18.6,3.5,18.6,0,0,4.7-2.4,2.9-9.8-1.8-7.5-1.6-12,3-16,0,0,1.4,16.3,20,26.6,14.8,8.3,19.9,32.7,2.6,50.5"/>
    <path id="path9559" class="st13" d="M1874.1,913c33.6,21,45,44.7,45,44.7"/>
    <path id="path9561" class="st13" d="M1732.4,888.8c-36.8-20-42.9-48.8-42.9-76.7,0,0,0-37.1,32.1-38.1,22.8-.7,17.1,20.2,17.1,20.2-6.3-9.7-16.1-3.3-16.1-3.3-12.2,9.4-12.1,23.2-12.1,23.2,0,0-4.1,31.7,32,53.5"/>
    <path id="path9563" class="st13" d="M1847.4,923.9c57.1,29.2,67.4,85.6,67.4,85.6,0,0,11.6,38.4,6.3,61.2"/>
    <path id="path9565" class="st13" d="M1682.6,832.7c3.4-1.9,6.5-5,7.2-10.4"/>
    <path id="path9567" class="st13" d="M1683.3,787.3c0-3.8-3.2-6.9-7-6.8-4.8,0-8.6,4-8.5,8.8,0,6,4.4,10.6,11.1,10.6h0c18.2,0,16.9-15.9,16.9-15.9,0-34.8-41.9-31.6-41.9-31.6,0,0-20.8,1.8-29.6-9-8.8-10.8-27.8-6.5-27.8-6.5,0,0,13.8,7.5,16.3,21.7s11.1,16.3,21.8,14.8c10.7-1.5,13.5,8.9,13.5,8.9,0,0-12.9-5.9-24.3,0,0,0,12.9,4.8,12.2,21.5,0,0-.3,27.1,29.2,31"/>
    <path id="path9569" class="st13" d="M1836.6,920.7c-3.7-1-6.8-1.5-8.8-1.5-10.1,0-25.8,4.6-47.2,17.8-27.5,16.9-48.6-9-48.6-9,0,0,11.7,40.8,62.2,40.8,0,0,26.8,1.3,27.2-18.7v-.4c0-1,0-2.1-.3-3.2-1.2-4.6-5.9-7.4-10.5-6.2-3.7,1-5.9,4.7-4.9,8.4"/>
    <path id="path9571" class="st13" d="M1821.3,947.7s40.7-2.8,40.7,23.8c0,0,1,10.3-14.4,20.4,0,0,27.5-3.8,27.5-32.2s-16.4-30.5-30.4-36.2"/>
    <path id="path9573" class="st13" d="M1840.9,1002.5"/>
    <path id="path9575" class="st13" d="M1801.2,921.2s-58.4,11-103.2-16.5c0,0,13.1-1.9,18.7-7.2s10.9-8.8,16.8-8.8,13,3.4,13,10.9-8.5,8.2-8.5,8.2c0,0,13.8.7,16.9-7.7"/>
    <path id="path9577" class="st13" d="M1711.3,900.9s-47.3-15-73.9-72.6c0,0,15.6,9.2,28.6,6.4,12.9-2.8,27.6-4.9,27.6,9v.3c0,7.2-5.1,11.8-11.5,12-4.1,0-7.6-2.5-8.9-6.1,0,0,.8,10.9,13.1,10.9s11.7-5.8,11.7-5.8"/>
    <path id="path9579" class="st13" d="M1873.8,970.1s40.3,51.6,28.1,103.8c0,0-1.5,6.3-4.8,16.4"/>
    <path id="path9581" class="st13" d="M1191.4,1357.5c-3.2-5.3-9.8-12.3-22.3-11.4-19.6,1.5-21.1-17.3-21.1-17.3,0,0-7.5,8.3-7.5,26.4s10.7,25,17.7,25,9.4-3.8,9.4-8.6-5.5-7.4-9.2-3.7"/>
    <path id="path9583" class="st13" d="M1141.3,1362.6s-16.6-8.2-18.9-36.3c0,0-1.7-26.4,15.7-26.4,0,0,8.6-.3,12.4,4.4,0,0-4.8-13.3-19.8-13.3s-29,9.2-29,39.5,34.4,54.6,34.4,54.6"/>
    <path id="path9587" class="st13" d="M1032.7,1299.9s-15.8-17.6-11.9-49.9c4.3-35.3,34.1-45.5,34.1-45.5,0,0-15.8,13-15.8,24.4s14.1,19.1,15.8,20.4c1.8,1.3,14.5,10.8,14.5,23.3s-9.9,17.4-14.3,17.4-11.9-2.9-11.9-12.5,11-8.3,11-8.3c0,0-8.6-1.3-11.4,3.5-2.9,4.8-2.5,9.2,2.3,14.3l.3.3c17.8,19,37,36.6,57.5,52.6"/>
    <path id="path9589" class="st13" d="M992.9,1252.3c-14.2-20.1-12.5-41.7-12.5-41.7.9-65.2,48.3-68.5,48.3-68.5,22.8,0,27.7,14.1,27.7,14.1-6.4-8.9-18.7-8.5-18.7-8.5-21.1,0-41.7,28.3-41.7,53.8s14.8,44.8,14.8,44.8h0c3.1,4,6.3,8,9.5,12"/>
    <path id="path9591" class="st13" d="M959.7,1163.3s-40-80.4,18.7-111.2c0,0,16.8-11.6,18.4-21.7,1.6-10.1,12.2-14.2,12.2-14.2,0,0-13.6.6-18,13.6,0,0-1.5,7.5-18.9,14.1s-66.4,48-35.5,111.9"/>
    <path id="path9593" class="st13" d="M892,903.6c8.2-168,117.2-173.8,117.2-173.8-97,44.2-99.4,176.3-99.4,176.3v-.3c-.8,11.8-1.2,23.7-1.2,35.7,0,23.1,1.5,45.8,4.5,68"/>
    <path id="path9595" class="st13" d="M973.1,1188.8s-13.7-18.2-2.6-37c11.1-18.7,7.6-32.4,7.6-32.4,0,0,13.2,11.2,11.1,23.8,0,0,6.1-3.4,5-15.5-1.2-12-4.1-25.8,18.2-38.1,22.3-12.3,19-20.5,18.7-24.3-.3-3.8-1.5-10.5,10-20.2,0,0-1.5,13.5,5.6,20.2,0,0,15.2,13.8,15.2,31.6s-12,24.9-23.4,24.9-12.9-9.4-12.9-12,0-10,9.7-10"/>
    <path id="path9597" class="st13" d="M1031.2,1142.1s70-4,70-48.8,13.5-48,13.5-48c0,0-14.1-7-23.4,6.4,0,0-7.6-7.6,3.5-12s21.7-7.9,21.1-26.4,8.5-23.1,8.5-23.1c0,0,5.9-3.2,5-13.8,0,0-.9-7.9,3.1-9.2,0,0-7.2.9-8.6,7.3-1.5,6.4-4.1,10-11.9,12.3s-9.7,4.5-13.9,15.2c-4.2,10.7-13.6,13-18.7,12.6s-27.2,6.4-27.2,30.6c0,0-1.3,19.4,13.6,32.4,0,0,13.6,12.2-8.1,35.2"/>
    <path id="path9599" class="st13" d="M1055.2,612.3c-46.5,10-81.8,81.3-81.8,81.3h0c-13.2,23.3-24.5,47.8-33.9,73.3"/>
    <path id="path9601" class="st13" d="M996.3,626.1s41.3-60.3,111-60.3c0,0,32.3-2.2,51.8,26.4,0,0-12.3-10.8-19.6-12.5-7.2-1.8-18.7-3.7-26.4,7.2-7.7,11-24.2,9.1-24.2,9.1"/>
    <path id="path9603" class="st13" d="M1097.7,595.6s11.6,3.6,18.2,12.8c0,0-10.1-3.1-19.8,6.8-9.7,9.9-16.7,10.9-21.1,10.9s-19.9-2.4-19.9-13.8,6.2-13,9.3-13,5.6,1.5,5.6,5.6"/>
    <path id="path9605" class="st13" d="M1141.5,494.5c77.4-39,125.8,14.7,125.8,14.7-64.1-33.7-135.7,12.9-135.7,12.9h0c-22.2,15-43.1,31.7-62.6,49.9"/>
    <path id="path9607" class="st13" d="M1267.3,438.8c65.4-24,133.3,11.2,133.3,11.2-80.8-18.7-162,17.1-162,17.1-11.1,4.1-22.1,8.6-32.8,13.5"/>
    <path id="path9609" class="st13" d="M1205.8,670.5h.8c.6,0,1.2-.2,1.8-.3,7.9-1.8,16.8-10.5,15.7-24.6-1.5-18.6,21.1-30.9,35.1-27.1,14.1,3.8,22.6-2.3,28.1-15.2,5.6-12.9,25.2-15.2,25.2-15.2,0,0-15.5,12.5-14.6,24.3s-7,28.5-27.2,27-17,16.1-17,16.1c0,0,11.7-11.4,26.9-7.3,0,0-19,7.9-19.9,22.4s-22.8,33.8-38.4,16.8c0,0-1.2,15.4,18.5,15.4,0,0-29,30.9-56.9,8.8"/>
    <path id="path9611" class="st13" d="M1187.6,678.1c-.2-3.1-2.8-5.5-5.9-5.3-3.9.2-6.9,3.5-6.7,7.4.2,4.9,4.4,8.6,9.2,8.3,0,0,27.5,0,23.4-34.6,0,0-4-19.9,4.2-25.5,0,0-13-1.6-17,11.1-4,12.7-15.5,15.1-23.6,14.5-13.3-1-39.4,9.9-34.5,46.3"/>
    <path id="path9613" class="st13" d="M1150.4,756.1c-1.7-3.9-2.7-7.9-2.7-11.7,0-14.1,9.4-26.5,22.6-26.5s21.1,11.9,21.1,11.9c0,0-.9-27.1-29.6-27.1s-57.4,42.3-33.4,81.3"/>
    <path id="path9615" class="st13" d="M1019.2,869.6c-3.2-3.6-6.1-3.3-6.1-3.3-9.2,0-8.3,8.9-8.3,8.9,0,13.6,24.6,13.6,24.6,13.6,60.5,0,43.5-72.1,43.5-72.1,13.4,26.9,12.2,44,12.2,44,0,61.6-59.7,60.4-59.7,60.4-21.1,0-25.8-15.1-25.8-15.1,0,19.3-24.2,18-24.2,18-2.1,0-10.8-.7-23.1-12.4s-31,0-31,0c0,0,16.8-34.1,49.6-34.1,0,0,12.8-.9,12.8,10.7,0,0,1,8.7-8.3,8.7s-3.8-.4-4.9-1.1"/>
    <path id="path9617" class="st13" d="M1144.5,707.7s-20.2-14.2-16.7-36.5c0,0-46.1,57.6-16.9,103.2"/>
    <path id="path9619" class="st13" d="M995.3,889.6c-10.1-8.1-9.8-17.9-9.8-17.9,0-26.2,18.2-25.9,28.1-31.5,10-5.6,6.3-17.9,6.3-17.9,0,0,20,13.9,20,42s-27.2,21.2-27.2,21.2"/>
    <path id="path9621" class="st13" d="M983.3,884.6s3.8-1.2,7.4.4"/>
    <path id="path9623" class="st13" d="M1032.7,888.8s29.3-4.9,27.7-23.8c-1.5-18.2,6.6-29.6,6.6-29.6,0,0-15.5,6-20.2,16.5,0,0-2-6.4,6.6-15.8,8.6-9.4,3.1-21.8-2.2-28,0,0-19.1-23.4-3.4-36,0,0,9.9-5.3-3-24.3,0,0-2.1,17-19.1,24.1-17,7-24,21.7-18.9,36.1,5.1,14.4-3.5,18.6-3.5,18.6,0,0-4.7-2.4-2.9-9.8,1.8-7.5,1.6-12-3-16,0,0-1.4,16.3-20,26.6-14.8,8.3-19.9,32.7-2.6,50.5"/>
    <path id="path9625" class="st13" d="M953.8,913c-33.6,21-45,44.7-45,44.7"/>
    <path id="path9627" class="st13" d="M1095.5,888.8c36.8-20,42.9-48.8,42.9-76.7,0,0,0-37.1-32.1-38.1-22.8-.7-17.1,20.2-17.1,20.2,6.3-9.7,16.1-3.3,16.1-3.3,12.2,9.4,12.1,23.2,12.1,23.2,0,0,4.1,31.7-32,53.5"/>
    <path id="path9629" class="st13" d="M980.5,923.9c-57.1,29.2-67.4,85.6-67.4,85.6,0,0-11.6,38.4-6.3,61.2"/>
    <path id="path9631" class="st13" d="M1145.3,832.7c-3.4-1.9-6.5-5-7.2-10.4"/>
    <path id="path9633" class="st13" d="M1144.6,787.3c0-3.8,3.2-6.9,7-6.8,4.8,0,8.6,4,8.5,8.8,0,6-4.4,10.6-11.1,10.6h0c-18.2,0-16.9-15.9-16.9-15.9,0-34.8,41.9-31.6,41.9-31.6,0,0,20.8,1.8,29.6-9,8.8-10.8,27.8-6.5,27.8-6.5,0,0-13.8,7.5-16.3,21.7s-11.1,16.3-21.8,14.8c-10.7-1.5-13.5,8.9-13.5,8.9,0,0,12.9-5.9,24.3,0,0,0-12.9,4.8-12.2,21.5,0,0,.3,27.1-29.2,31"/>
    <path id="path9635" class="st13" d="M991.3,920.7c3.7-1,6.8-1.5,8.8-1.5,10.1,0,25.8,4.6,47.2,17.8,27.5,16.9,48.5-9,48.5-9,0,0-11.7,40.8-62.2,40.8,0,0-26.8,1.3-27.2-18.7v-.4c0-1,0-2.1.3-3.2,1.2-4.6,5.9-7.4,10.5-6.2,3.7,1,5.9,4.7,4.9,8.4"/>
    <path id="path9637" class="st13" d="M1006.6,947.7s-40.7-2.8-40.7,23.8c0,0-1,10.3,14.4,20.4,0,0-27.5-3.8-27.5-32.2s16.4-30.5,30.4-36.2"/>
    <path id="path9639" class="st13" d="M987,1002.5"/>
    <path id="path9641" class="st13" d="M1026.7,921.2s58.4,11,103.2-16.5c0,0-13.1-1.9-18.7-7.2s-10.9-8.8-16.8-8.8-13,3.4-13,10.9,8.5,8.2,8.5,8.2c0,0-13.8.7-16.9-7.7"/>
    <path id="path9643" class="st13" d="M1116.6,900.9s47.3-15,73.9-72.6c0,0-15.6,9.2-28.6,6.4-12.9-2.8-27.6-4.9-27.6,9v.3c0,7.2,5.1,11.8,11.5,12,4.1,0,7.6-2.5,8.9-6.1,0,0-.8,10.9-13.1,10.9s-11.7-5.8-11.7-5.8"/>
    <path id="path9645" class="st13" d="M954.1,970.1s-40.3,51.6-28.1,103.8c0,0,1.5,6.3,4.8,16.4"/>
    <path id="path9647" class="st13" d="M1413.5,1447.1c62.2,0,121.9-11.2,176.9-31.8-55,20.5-114.7,31.8-176.9,31.8"/>
    <path id="path5823" class="st13" d="M1413.5,1447.1c-62.2,0-121.7-12-176.7-32.5,55,20.5,114.6,32.5,176.7,32.5"/>
    <path id="path79646" class="st13" d="M1560.6,438.8c-65.4-24-133.3,11.2-133.3,11.2,80.8-18.7,162,17.1,162,17.1,11.1,4.1,22.1,8.6,32.8,13.5"/>
    <path id="path9541" class="st13" d="M1560.6,438.8c-65.4-24-133.3,11.2-133.3,11.2,80.8-18.7,162,17.1,162,17.1,11.1,4.1,22.1,8.6,32.8,13.5"/>
    <path id="path16408" class="st13" d="M959.7,1163.3c6.5,13.3,13.5,26.3,21.1,38.9"/>
    <path id="path795921" class="st10" d="M1415,403.5c-297.6,0-538.9,241.3-538.9,538.9s241.3,538.9,538.9,538.9,538.9-241.3,538.9-538.9-241.3-538.8-538.9-538.9h0ZM1415,426.3c285,0,516.1,231.1,516.1,516.1s-231.1,516.1-516.1,516.1-516.1-231.1-516.1-516.1,231.1-516.1,516.1-516.1h0Z"/>
    <g>
      <path class="st16" d="M1168.3,1257.8c1.4.9,3.3.4,5,.6,14.6,2.1,26.8,13,39.1,20.4,119.4,71.7,272.7,73,393.6,4.1,13.5-7.7,31.2-22.5,46.3-24.5,1.7-.2,3.7.3,5-.6h4.9c3.7.9,7.5,1.6,11.1,2.9,6,2.3,12.3,6.2,16.3,11.3,3-1,5.4-3.5,8.6-4.6,5.7-2,12-.9,17.9-.2,13.3,1.6,26.4,4.5,39.7,6.3v7.4c-.6,11.8-1.8,24.3-3,36.1-.8,8.6-1,16.8-7.1,23.4-1,1-3.7,2.5-3.7,3.7,9,10.9,9.7,26.1,5.9,39.3-1.3,4.8-4.3,11.7-7.4,15.6-3.9,4.9-23.7,16.8-30.1,20.7-182.2,113.2-413.1,113.2-595.2,0-7.9-4.9-16.8-10.5-24.3-16-6-4.4-8.8-8.5-11.5-15.5-5.5-14.2-5.7-31.9,4.3-44.1-1.9-2.6-4.5-4-6.3-7-4.5-7.3-4.7-23.9-5.5-32.8-.7-8.6-1.6-18-2-26.5s-.2-3.6.2-4.2c13.2-1.8,26.3-4.7,39.5-6.3,5.9-.7,12.2-1.8,17.9.2s5.5,3.7,8.6,4.6c3.9-4.9,10.1-8.9,15.9-11.2s8.1-2.7,11-3.1h5.4-.1ZM1404.5,1337.4c-78-4.2-135.5-21.1-202.2-60.7-14.1-8.4-25.4-18.6-43.4-14.3-9.2,2.2-17.3,7.5-22.8,15.1-6.3-7.1-12.9-8.1-22.1-7.3-13.4,1.2-27.3,4.8-40.7,6.3,0,.8.5,1.4.5,2.2.5,12.1,1.3,24.8,2.5,36.9.4,4.4.8,9.8,1.7,14,1.4,6.3,5.6,9.9,10.6,13.5-4,4.8-7.2,9.8-8.5,16-2.5,11.4.3,30,9,38.5,7.2,7.1,25.6,17.6,34.8,23.2,176.5,107,401.7,106.9,578.2-.2,10.2-6.2,23.6-14.1,32.7-21.4,10.7-8.7,13.8-29.4,10.3-42.1-1.5-5.6-4.4-9.7-8-14.1,5-3.6,9.2-7.2,10.6-13.5s1.3-9.6,1.7-14c1.1-12,2-24.8,2.5-36.9,0-.8.5-1.5.5-2.2-13.4-1.6-27.3-5.2-40.7-6.3-9.1-.8-15.7.2-22.1,7.3-3-4-6.6-7.6-10.9-10.2-25.4-15.6-44.8,3.4-65.7,15.7-58.8,34.4-126.2,53.2-194.7,54.5h-13.8Z"/>
      <path class="st11" d="M1404.5,1337.4c3.6.2,7.3.5,11.1.5s2.2.3,2.7-.5c68.5-1.3,135.8-20,194.7-54.5,21-12.3,40.4-31.3,65.7-15.7,4.3,2.6,7.9,6.2,10.9,10.2,6.3-7.1,12.9-8.1,22.1-7.3,13.4,1.2,27.3,4.8,40.7,6.3,0,.8-.5,1.4-.5,2.2-.5,12.1-1.3,24.8-2.5,36.9-.4,4.4-.8,9.8-1.7,14-1.4,6.3-5.6,9.9-10.6,13.5,3.6,4.4,6.5,8.5,8,14.1,3.5,12.6.4,33.4-10.3,42.1-9.1,7.4-22.5,15.2-32.7,21.4-176.5,107.1-401.7,107.2-578.2.2-9.2-5.6-27.6-16.2-34.8-23.2-8.7-8.5-11.5-27.1-9-38.5,1.4-6.3,4.5-11.2,8.5-16-5-3.6-9.2-7.2-10.6-13.5-.9-4.2-1.3-9.6-1.7-14-1.1-12-2-24.8-2.5-36.9s-.5-1.5-.5-2.2c13.4-1.6,27.3-5.2,40.7-6.3,9.1-.8,15.7.2,22.1,7.3,5.5-7.6,13.6-12.9,22.8-15.1,18.1-4.3,29.3,5.9,43.4,14.3,66.7,39.6,124.2,56.6,202.2,60.7h0ZM1687.4,1289.8c-9.4-16.3-24.5-24.9-42.7-15.3-9,4.8-18.3,12.1-27.4,17.4-126.3,73.7-282.8,73.7-409,0-9.8-5.7-28-20-38.3-21.2-14.9-1.7-24.5,7.2-31.7,19.1-5.1-3-9.1-7.7-15-9.3-5.7-1.6-10.9-.7-16.6,0-7.8,1-15.6,2.8-23.4,3.9l2.4,32.6c1.4,11.5,5.5,17.9,14.7,24.6-4.8,7.8-11.8,15.3-12.2,25s2.4,17.5,6.5,23c3.6,4.9,19.1,14,25,17.7,180.4,113.6,409.6,112.3,589-2.3,4.8-3.1,21.1-13.5,23.6-17.3,4.3-6.6,6.2-18.3,4.5-25.8-1.7-7.8-7.5-13.7-11.4-20.4,9.2-6.8,13.3-13.2,14.7-24.6l2.4-32.6c-7.8-1.1-15.6-2.9-23.4-3.9-5.8-.7-10.9-1.6-16.6,0-5.9,1.6-9.9,6.3-15,9.3h0Z"/>
      <path class="st14" d="M1418.3,1337.4c-.5.8-1.9.5-2.7.5-3.8,0-7.4-.3-11.1-.5h13.8Z"/>
      <path class="st16" d="M1687.4,1289.8c5.1-3,9.1-7.7,15-9.3,5.7-1.6,10.9-.7,16.6,0,7.8,1,15.6,2.8,23.4,3.9l-2.4,32.6c-1.4,11.5-5.5,17.9-14.7,24.6,3.9,6.7,9.7,12.6,11.4,20.4,1.7,7.6-.2,19.3-4.5,25.8-2.5,3.8-18.8,14.2-23.6,17.3-179.4,114.5-408.7,115.8-589,2.3-5.9-3.7-21.4-12.8-25-17.7-4.1-5.5-6.8-16.2-6.5-23,.4-9.7,7.5-17.2,12.2-25-9.2-6.8-13.3-13.2-14.7-24.6l-2.4-32.6c7.8-1.1,15.6-2.9,23.4-3.9,5.8-.7,10.9-1.6,16.6,0,5.9,1.6,9.9,6.3,15,9.3,7.2-11.9,16.7-20.8,31.7-19.1,10.4,1.2,28.5,15.4,38.3,21.2,126.3,73.7,282.8,73.7,409,0,9.1-5.3,18.4-12.6,27.4-17.4,18.1-9.6,33.3-1,42.7,15.3h0ZM1623,1326.2c-1,1.6,3.5,9.8,5,9.7l33.2-18.3c-1.2-2-6.2-13.1-7.6-13.5-1.1-.3-9.8,4.1-10.2,4.8-1.1,1.7,1.7,4.1,1.7,5.9l-22.1,11.4ZM1169.4,1323.5l32.2,18.2h1.2c1-.3,5.2-7.6,4.6-8.8l-21.7-12.8-.2-.7c.7-1.1,2.4-2.9,1.7-4.3s-8.7-5.6-9.5-5.8-1-.2-1.6,0-6.5,10.6-6.9,11.8-.4,1.5.2,2.1v.2h0ZM1133.5,1372.2l29.4,16.1,24.3-42.1v-2.4l-34-19.2c-.4,0-.8,0-1.2.2s-4.5,7.3-4.7,8.1,0,1,.5,1.5l22.8,13.5c-1.9,2.7-12.9,24.5-14.4,24.3s-7.7-4.2-7.7-5.1l8.3-15.7c-.2-.7-11.1-7-12.3-7.4-3.2-1.2-5.5,6.1-6.9,8.4l3.9,3.8c-2.1,4.4-5.9,9-7.8,13.4s-.9,1.8-.5,2.6h.3ZM1661.3,1340.9c1.8-.9,11.5-5.3,11.7-6.7-.9-2-3.7-9.3-6-9l-30.5,16.2c-.9,1,2.3,7.4,3.2,8.6,2.4,3.2,6.9-1.7,10.2-2.4,12.4-2.6,14.5,13.3,20.2,20.7-1.8,3.3-8.6,2.6-7,7.4.5,1.5,3.6,7.2,5.2,6.9l18.6-10.5c-3.4-6.5-6.6-13.4-10.3-19.8-3.5-6.1-5.3-9.5-12.8-10.9-.9-.2-2.2.7-2.5-.6h0ZM1586.5,1374.3l15.6,36.3,38-16-19.6-46.6-11.3,4.2v1.2l14.2,36.6-13.7,5.2-15.6-36.1-17.3,6.9c-.4.7,2.8,8.8,3.6,9.3,2,1.4,4.1-.9,6.1-1h0ZM1189.6,1368.9l-3.9,9.4c1.4,1.7,3.3,2.4,4.9,4,5,5.3,6.5,14.1,6.4,21,.6.9,10.2,5.1,11.4,4.7l20.3-46.1c-.4-.7-12.3-6-14.1-6.6s-2.4-1.2-3.4-.5l-3.8,8.8c.9,1.8,3.1,2.1,4.8,2.8.2.4,0,1.1,0,1.5-.8,3.4-5.4,12.8-7.2,16.4s-1,2.2-1.8,3.1c-.4-7.9-5.2-17.2-13.5-18.6h-.1ZM1319.4,1370.8l.9-4.6c-.3-1.6-11.4-3.8-12.7-3s-3.6,13.8-3.2,14.5.5.5.8.7l35.8,8c.8,0,1.9-.2,2.3-.9.6-.9,2.2-8.3,1-9.4l-24.9-5.4h0ZM1253.5,1389.4l4.2-15.7c-.9-1.8-13.9-4.5-16.4-5.8-.7-.2-1.3-.2-1.8.4s-2.9,8.7-2.6,9.5l5.3,2.5-11.7,37.3c.2.7.7.9,1.3,1.2,1.3.6,8.2,2.8,9.3,3s1,.2,1.6,0c1.1-.7,6-18.7,6.9-21.4.5-.5,12.4,3.8,13.2,4.5s.7,2.4.5,3.4c-.7,4.9-4.5,11.5-5.2,16.5s-.3,1.5,0,2.1,10.6,3.7,11.7,3.4c.6-.5.9-1.6,1.2-2.4,1.5-4.1,5.8-16.2,6-20s-2.7-6.5-4.4-10.3c0-.7,7-3.2,8.4-4.6,1.2-1.3,4.3-9.2,3.9-10.6s-1-1.1-1.6-1.4c-1.1-.5-9-2.9-9.8-2.8s-1,.3-1.2.5c-.5.6-2.1,7.7-3,9.6-3.7,7.6-9.9,2.2-15.8,1.1h0ZM1564.8,1370.4c-.4-.3-.9-.4-1.4-.3-1.3,0-10.4,3-11,3.7l-9.1,22.6c-.7,0-.8-.7-1-1.2-1.1-2.5-4.3-16.1-5.4-16.8l-18.2,5.5c-.3.9,2,8.9,2.6,9.5,1.5,1.5,4.3-.9,6.1-.5l10.8,36.1c.2.6.7,1.5,1.4,1.6s11.4-3.2,11.7-3.9l-4.7-17.9,9.1-20.4,10.8,33.4c.4.6.8.4,1.3.4,1,0,9.5-2.7,10.2-3.1s.8-.5.9-1.1l-14.3-47.7h.2ZM1318.3,1442.5l10.3-49.3-31.9-7.1c-.4,1.9-2.8,9.4-2,10.7l18.3,4.1.8,1.1-5.9,26.8-9.2-.9-2,9.9,21.6,4.7h0ZM1511.3,1414.6c-.6-3.3-4-26.6-5.4-27.3s-10.5,1.5-11.5,1.8-.7.3-.8.7l4.3,27.2-13.2,2.5-5.4-27.3c-.5-.4-1-.2-1.6,0-3.4.3-12.3,1.9-15.4,2.9s-.2,8.3.3,10.7c1.1,1.1,4.1-.4,5.5-.3l.7.8,6.5,36.7,1.3,1.7,11.4-2c1.6-1.2-1.8-9.6-.7-11.7l12.6-2.2c1.6,1.9,1.1,10.5,3.3,11s10.9-1.6,11.5-2.1c1.6-1.3-1.4-9-1-11.2.3-1.3,5.5,0,5.4-3s-1.5-8.4-1.9-8.9c-1.1-1.3-4.4.5-5.9.3v-.3h0ZM1356.4,1407.3l16.9,1.4-2.6,38.5c.3.8.8,1.2,1.6,1.3,1.4.2,4.8.4,6.4.5s3.2,0,4.7-.2c.4-.3.9-3.6.9-4.5,1.5-13.1,2.9-28.7,3.4-41.8,0-1.5.6-4.4-1.2-4.7l-42.3-3-4.4,50.2,2,.9,18.2,1.5c2.6,0,2.3-8.8,2-10.8-1.8-1.3-7.8,0-8.2-2.2l2.6-27.1h0ZM1421.2,1448.8v-10.3l.7-.7h12.3l.7.7v9.8c0,2.3,10.5.9,12.5.7l.8-.7v-10.3c1.4-1.6,4,0,5.7-1.2.3-.5.4-7.6.2-8.7-.5-3.9-4.4-1-6.4-2.9v-26s-1.1-1.2-1.2-1.2h-11.3c-2.3,2-.8,4.4-.7,6.6,0,5.8.7,14.7,0,20.2,0,.7,0,1.3-.8,1.7h-12.3c-.7-.4-.7-1-.8-1.7-.6-5.5.3-12.5,0-18.2s-.7-5.1-.7-7.6c-.4-.5-1-.4-1.5-.5-5.2-.6-12.2.2-17.5.5v9.6s.5,1.1.8,1.2c1.3.3,5-.8,5.5.8l.8,39c.5.8,5.2.5,6.4.5s6.4-.5,6.6-1.2h.2ZM1643.2,1427.3c1.2.7,8.9-2.4,9.2-3.7s-6.2-16.1-7.2-17.7-.7-1.4-1.4-1.5-10.5,3.9-11.2,4.4c-2.2,1.6,1.7,9.7,3.4,9.8l2.5-.8c1.4,0,3.9,8.1,4.7,9.6h0Z"/>
      <path class="st11" d="M1356.4,1407.3l-2.6,27.2c.4,2.2,6.4.9,8.2,2.2.4,2,.6,10.7-2,10.8l-18.2-1.5-2-.9,4.4-50.2,42.3,3c1.8.2,1.3,3.2,1.2,4.7-.5,13.1-2,28.7-3.4,41.8,0,.8-.5,4.2-.9,4.5-1.5.3-3.2.3-4.7.2s-5-.3-6.4-.5-1.4-.5-1.6-1.3l2.6-38.5-16.9-1.5h0Z"/>
      <path class="st11" d="M1511.3,1414.6c1.5.3,4.8-1.5,5.9-.3s1.9,7.9,1.9,8.9c0,3-5.1,1.6-5.4,3-.4,2.2,2.6,9.9,1,11.2s-10.7,2.3-11.5,2.1c-2.2-.6-1.7-9.1-3.3-11l-12.6,2.2c-1.1,2.1,2.3,10.6.7,11.7l-11.4,2-1.3-1.7-6.5-36.7-.7-.8c-1.4,0-4.4,1.5-5.5.3-.5-2.4-3.4-9.7-.3-10.7s12-2.5,15.4-2.9,1.1-.3,1.6,0l5.4,27.3,13.2-2.5-4.3-27.2c0-.4.4-.6.8-.7,1-.4,10.9-2.1,11.5-1.8,1.5.7,4.8,24,5.4,27.3v.3h0Z"/>
      <path class="st11" d="M1421.2,1448.8c-.2.7-5.5,1.2-6.6,1.2s-5.9.3-6.4-.5l-.8-39c-.5-1.6-4.2-.5-5.5-.8-.3,0-.8-1.1-.8-1.2v-9.6c5.3-.3,12.3-1.1,17.5-.5s1.1,0,1.5.5c0,2.5.6,5.2.7,7.6.3,5.7-.7,12.7,0,18.2s0,1.3.8,1.7h12.3c.7-.4.7-1,.8-1.7.6-5.5,0-14.4,0-20.2s-1.5-4.6.7-6.6h11.3s1.2,1.1,1.2,1.2v26c2,2,5.9-1,6.4,2.9,0,1.1,0,8.2-.2,8.7-1.7,1.2-4.3-.4-5.7,1.2v10.3l-.8.7c-1.9.2-12.5,1.6-12.5-.7v-9.8l-.7-.7h-12.3l-.7.7v10.3h-.2Z"/>
      <path class="st11" d="M1564.8,1370.4l14.3,47.7c0,.5-.5.8-.9,1.1-.7.5-9.2,3-10.2,3.1s-1,.2-1.3-.4l-10.8-33.4-9.1,20.4,4.7,17.9c-.3.7-11,4.1-11.7,3.9s-1.1-1-1.4-1.6l-10.8-36.1c-1.9-.5-4.6,2-6.1.5s-2.9-8.7-2.6-9.5l18.2-5.5c1,.6,4.3,14.3,5.4,16.8s.3,1.2,1,1.2l9.1-22.6c.6-.7,9.7-3.6,11-3.7s1,0,1.4.3h-.2Z"/>
      <path class="st11" d="M1586.5,1374.3c-2.1,0-4.2,2.5-6.2,1s-4-8.6-3.6-9.3l17.3-6.9,15.6,36.1,13.7-5.2-14.2-36.6v-1.2l11.3-4.2,19.6,46.6-38,16-15.5-36.3h0Z"/>
      <path class="st11" d="M1253.5,1389.4c5.9,1.1,12.1,6.5,15.8-1.1s2.5-9,3-9.6.9-.5,1.2-.5c.7,0,8.7,2.4,9.8,2.8s1.4.6,1.6,1.4c.4,1.4-2.7,9.3-3.9,10.6-1.4,1.4-8.2,3.9-8.4,4.6,1.7,3.8,4.8,5.7,4.4,10.3s-4.5,15.9-6,20-.5,1.8-1.2,2.4c-1.1.3-11.3-2.8-11.7-3.4s-.2-1.4,0-2.1c.7-5,4.5-11.5,5.2-16.5.2-1,.2-2.7-.5-3.4s-12.6-5-13.2-4.5c-.9,2.7-5.8,20.7-6.9,21.4s-1,.2-1.6,0c-1.2-.2-8.1-2.4-9.3-3s-1.1-.5-1.3-1.2l11.7-37.3-5.3-2.5c-.3-.9,2-8.9,2.6-9.5s1.1-.6,1.8-.4c2.5,1.4,15.5,4.1,16.4,5.8l-4.2,15.7h0Z"/>
      <path class="st11" d="M1133.5,1372.2c-.4-.7,0-1.9.5-2.6,1.9-4.4,5.7-9,7.8-13.4l-3.9-3.8c1.4-2.3,3.6-9.5,6.9-8.4s12.1,6.7,12.3,7.4l-8.3,15.7c0,.9,6.9,5,7.7,5.1,1.4,0,12.5-21.7,14.4-24.3l-22.8-13.5c-.4-.4-.6-.9-.5-1.5s4.2-7.8,4.7-8.1.8-.3,1.2-.2l34,19.2v2.4l-24.4,42.1-29.4-16.1h-.2Z"/>
      <path class="st11" d="M1661.3,1340.9c.4,1.3,1.6.4,2.5.6,7.5,1.4,9.3,4.8,12.8,10.9,3.7,6.4,6.8,13.2,10.3,19.8l-18.6,10.5c-1.5.2-4.6-5.4-5.2-6.9-1.7-4.8,5.1-4.2,7-7.4-5.7-7.5-7.8-23.3-20.2-20.7-3.3.7-7.9,5.6-10.2,2.4-.9-1.2-4.2-7.5-3.2-8.6l30.5-16.2c2.3-.2,5.1,7,6,9-.3,1.4-9.9,5.8-11.7,6.7h0Z"/>
      <path class="st11" d="M1189.6,1368.9c8.2,1.4,13.1,10.7,13.5,18.6.9-.9,1.3-2,1.8-3.1,1.8-3.7,6.4-13,7.2-16.4s.3-1.1,0-1.5c-1.7-.7-3.8-1-4.8-2.8l3.8-8.8c1-.6,2.4.2,3.4.5,1.7.6,13.7,5.9,14.1,6.6l-20.3,46.1c-1.2.4-10.9-3.8-11.4-4.7,0-7-1.5-15.8-6.4-21s-3.5-2.3-4.9-4l3.9-9.4h.1Z"/>
      <path class="st11" d="M1318.3,1442.5l-21.5-4.7,2-9.9,9.2.9,5.9-26.8-.8-1.1-18.3-4.1c-.8-1.3,1.6-8.8,2-10.7l31.9,7.1-10.4,49.3h0Z"/>
      <path class="st11" d="M1319.4,1370.8l24.9,5.4c1.2,1-.5,8.4-1,9.4s-1.6,1-2.3.9l-35.8-8c-.3-.2-.6-.4-.8-.7-.3-.7,2.6-14.1,3.2-14.5,1.3-.8,12.4,1.4,12.7,3l-.9,4.6h0Z"/>
      <path class="st11" d="M1169.4,1323.5c-.6-.6-.4-1.4-.2-2.1.4-1.2,6.3-11.5,6.9-11.8s1-.3,1.6,0,9.2,5.3,9.5,5.8c.7,1.3-1,3.2-1.7,4.3l.2.7,21.7,12.8c.6,1.2-3.5,8.5-4.6,8.8s-.8,0-1.2,0l-32.2-18.2v-.2h0Z"/>
      <path class="st11" d="M1623,1326.2l22.1-11.4c0-1.8-2.8-4.2-1.7-5.9.5-.8,9.1-5.1,10.2-4.8,1.4.4,6.4,11.5,7.6,13.5l-33.2,18.3c-1.5,0-6-8-5-9.7Z"/>
      <path class="st11" d="M1643.2,1427.3c-.8-1.5-3.3-9.5-4.7-9.6l-2.5.8c-1.7,0-5.6-8.2-3.4-9.8s10.6-4.5,11.2-4.4,1.1,1,1.4,1.5c.9,1.7,7.4,16.8,7.2,17.7s-8,4.4-9.2,3.7h0Z"/>
    </g>
  </g>
</svg>