<?xml version="1.0" encoding="UTF-8" standalone="no"?>
<!-- Created with Inkscape (http://www.inkscape.org/) -->

<svg
   version="1.1"
   id="svg1"
   width="8000"
   height="5333.3335"
   viewBox="0 0 8000 5333.3335"
   sodipodi:docname="ธงจังหวัดชัยภูมิใหม่.svg"
   inkscape:version="1.3.2 (091e20e, 2023-11-25, custom)"
   xmlns:inkscape="http://www.inkscape.org/namespaces/inkscape"
   xmlns:sodipodi="http://sodipodi.sourceforge.net/DTD/sodipodi-0.dtd"
   xmlns="http://www.w3.org/2000/svg"
   xmlns:svg="http://www.w3.org/2000/svg">
  <defs
     id="defs1">
    <clipPath
       clipPathUnits="userSpaceOnUse"
       id="clipPath5">
      <path
         d="M 0,4000 H 6000 V 0 H 0 Z"
         transform="translate(-2948.0458,-3156.985)"
         id="path5" />
    </clipPath>
    <clipPath
       clipPathUnits="userSpaceOnUse"
       id="clipPath7">
      <path
         d="M 0,4000 H 6000 V 0 H 0 Z"
         transform="translate(-2104.4566,-1633.4069)"
         id="path7" />
    </clipPath>
    <clipPath
       clipPathUnits="userSpaceOnUse"
       id="clipPath9">
      <path
         d="M 0,4000 H 6000 V 0 H 0 Z"
         transform="translate(-2104.4566,-1633.4069)"
         id="path9" />
    </clipPath>
    <clipPath
       clipPathUnits="userSpaceOnUse"
       id="clipPath11">
      <path
         d="M 0,4000 H 6000 V 0 H 0 Z"
         transform="translate(-3926.3724,-1696.6229)"
         id="path11" />
    </clipPath>
    <clipPath
       clipPathUnits="userSpaceOnUse"
       id="clipPath13">
      <path
         d="M 0,4000 H 6000 V 0 H 0 Z"
         transform="translate(-3926.3724,-1696.6229)"
         id="path13" />
    </clipPath>
    <clipPath
       clipPathUnits="userSpaceOnUse"
       id="clipPath15">
      <path
         d="M 0,4000 H 6000 V 0 H 0 Z"
         transform="translate(-3277.9105,-1194.5557)"
         id="path15" />
    </clipPath>
    <clipPath
       clipPathUnits="userSpaceOnUse"
       id="clipPath17">
      <path
         d="M 0,4000 H 6000 V 0 H 0 Z"
         transform="translate(-3729.5668,-1323.571)"
         id="path17" />
    </clipPath>
    <clipPath
       clipPathUnits="userSpaceOnUse"
       id="clipPath19">
      <path
         d="M 0,4000 H 6000 V 0 H 0 Z"
         transform="translate(-2511.9334,-1122.9929)"
         id="path19" />
    </clipPath>
    <clipPath
       clipPathUnits="userSpaceOnUse"
       id="clipPath21">
      <path
         d="M 0,4000 H 6000 V 0 H 0 Z"
         transform="translate(-3505.4166,-1069.1329)"
         id="path21" />
    </clipPath>
    <clipPath
       clipPathUnits="userSpaceOnUse"
       id="clipPath23">
      <path
         d="M 0,4000 H 6000 V 0 H 0 Z"
         transform="translate(-3052.7084,-937.643)"
         id="path23" />
    </clipPath>
    <clipPath
       clipPathUnits="userSpaceOnUse"
       id="clipPath25">
      <path
         d="M 0,4000 H 6000 V 0 H 0 Z"
         transform="translate(-2179.8589,-1378.5769)"
         id="path25" />
    </clipPath>
    <clipPath
       clipPathUnits="userSpaceOnUse"
       id="clipPath27">
      <path
         d="M 0,4000 H 6000 V 0 H 0 Z"
         transform="translate(-3533.6651,-1237.9565)"
         id="path27" />
    </clipPath>
    <clipPath
       clipPathUnits="userSpaceOnUse"
       id="clipPath29">
      <path
         d="M 0,4000 H 6000 V 0 H 0 Z"
         transform="translate(-2381.4933,-1315.1581)"
         id="path29" />
    </clipPath>
    <clipPath
       clipPathUnits="userSpaceOnUse"
       id="clipPath31">
      <path
         d="M 0,4000 H 6000 V 0 H 0 Z"
         transform="translate(-2699.6128,-1088.9866)"
         id="path31" />
    </clipPath>
    <clipPath
       clipPathUnits="userSpaceOnUse"
       id="clipPath33">
      <path
         d="M 0,4000 H 6000 V 0 H 0 Z"
         transform="translate(-3616.9571,-1422.124)"
         id="path33" />
    </clipPath>
    <clipPath
       clipPathUnits="userSpaceOnUse"
       id="clipPath35">
      <path
         d="M 0,4000 H 6000 V 0 H 0 Z"
         transform="translate(-2345.3452,-1446.7372)"
         id="path35" />
    </clipPath>
    <clipPath
       clipPathUnits="userSpaceOnUse"
       id="clipPath37">
      <path
         d="M 0,4000 H 6000 V 0 H 0 Z"
         transform="translate(-2862.6616,-1148.8021)"
         id="path37" />
    </clipPath>
    <clipPath
       clipPathUnits="userSpaceOnUse"
       id="clipPath39">
      <path
         d="M 0,4000 H 6000 V 0 H 0 Z"
         transform="translate(-3712.9842,-1199.0872)"
         id="path39" />
    </clipPath>
    <clipPath
       clipPathUnits="userSpaceOnUse"
       id="clipPath41">
      <path
         d="M 0,4000 H 6000 V 0 H 0 Z"
         transform="translate(-3538.349,-1752.9376)"
         id="path41" />
    </clipPath>
    <clipPath
       clipPathUnits="userSpaceOnUse"
       id="clipPath43">
      <path
         d="M 0,4000 H 6000 V 0 H 0 Z"
         transform="translate(-3339.3482,-1515.5485)"
         id="path43" />
    </clipPath>
    <clipPath
       clipPathUnits="userSpaceOnUse"
       id="clipPath45">
      <path
         d="M 0,4000 H 6000 V 0 H 0 Z"
         transform="translate(-3536.0028,-1752.9376)"
         id="path45" />
    </clipPath>
    <clipPath
       clipPathUnits="userSpaceOnUse"
       id="clipPath47">
      <path
         d="M 0,4000 H 6000 V 0 H 0 Z"
         transform="translate(-3389.3592,-1520.6594)"
         id="path47" />
    </clipPath>
    <clipPath
       clipPathUnits="userSpaceOnUse"
       id="clipPath49">
      <path
         d="M 0,4000 H 6000 V 0 H 0 Z"
         transform="translate(-2639.5945,-2859.3404)"
         id="path49" />
    </clipPath>
    <clipPath
       clipPathUnits="userSpaceOnUse"
       id="clipPath51">
      <path
         d="M 0,4000 H 6000 V 0 H 0 Z"
         transform="translate(-3531.3109,-2708.9698)"
         id="path51" />
    </clipPath>
    <clipPath
       clipPathUnits="userSpaceOnUse"
       id="clipPath53">
      <path
         d="M 0,4000 H 6000 V 0 H 0 Z"
         transform="translate(-3337.7621,-2513.0747)"
         id="path53" />
    </clipPath>
    <clipPath
       clipPathUnits="userSpaceOnUse"
       id="clipPath55">
      <path
         d="M 0,4000 H 6000 V 0 H 0 Z"
         transform="translate(-2732.4435,-1989.8806)"
         id="path55" />
    </clipPath>
    <clipPath
       clipPathUnits="userSpaceOnUse"
       id="clipPath57">
      <path
         d="M 0,4000 H 6000 V 0 H 0 Z"
         transform="translate(-3613.4137,-2565.8567)"
         id="path57" />
    </clipPath>
    <clipPath
       clipPathUnits="userSpaceOnUse"
       id="clipPath59">
      <path
         d="M 0,4000 H 6000 V 0 H 0 Z"
         transform="translate(-2771.1681,-2671.4437)"
         id="path59" />
    </clipPath>
    <clipPath
       clipPathUnits="userSpaceOnUse"
       id="clipPath61">
      <path
         d="M 0,4000 H 6000 V 0 H 0 Z"
         transform="translate(-2920.5492,-2213.1848)"
         id="path61" />
    </clipPath>
    <clipPath
       clipPathUnits="userSpaceOnUse"
       id="clipPath63">
      <path
         d="M 0,4000 H 6000 V 0 H 0 Z"
         transform="translate(-2777.032,-2321.8472)"
         id="path63" />
    </clipPath>
    <clipPath
       clipPathUnits="userSpaceOnUse"
       id="clipPath65">
      <path
         d="M 0,4000 H 6000 V 0 H 0 Z"
         transform="translate(-3008.1205,-2433.2945)"
         id="path65" />
    </clipPath>
    <clipPath
       clipPathUnits="userSpaceOnUse"
       id="clipPath67">
      <path
         d="M 0,4000 H 6000 V 0 H 0 Z"
         transform="translate(-3110.1781,-2598.6848)"
         id="path67" />
    </clipPath>
    <clipPath
       clipPathUnits="userSpaceOnUse"
       id="clipPath69">
      <path
         d="M 0,4000 H 6000 V 0 H 0 Z"
         transform="translate(-3164.1368,-2645.6189)"
         id="path69" />
    </clipPath>
    <clipPath
       clipPathUnits="userSpaceOnUse"
       id="clipPath71">
      <path
         d="M 0,4000 H 6000 V 0 H 0 Z"
         transform="translate(-3065.6134,-2388.7373)"
         id="path71" />
    </clipPath>
    <clipPath
       clipPathUnits="userSpaceOnUse"
       id="clipPath73">
      <path
         d="M 0,4000 H 6000 V 0 H 0 Z"
         transform="translate(-2958.846,-2131.8245)"
         id="path73" />
    </clipPath>
    <clipPath
       clipPathUnits="userSpaceOnUse"
       id="clipPath75">
      <path
         d="M 0,4000 H 6000 V 0 H 0 Z"
         transform="translate(-2703.1302,-2228.0035)"
         id="path75" />
    </clipPath>
    <clipPath
       clipPathUnits="userSpaceOnUse"
       id="clipPath77">
      <path
         d="M 0,4000 H 6000 V 0 H 0 Z"
         transform="translate(-3015.1771,-2298.4)"
         id="path77" />
    </clipPath>
    <clipPath
       clipPathUnits="userSpaceOnUse"
       id="clipPath79">
      <path
         d="M 0,4000 H 6000 V 0 H 0 Z"
         transform="translate(-3229.4156,-2529.0725)"
         id="path79" />
    </clipPath>
    <clipPath
       clipPathUnits="userSpaceOnUse"
       id="clipPath81">
      <path
         d="M 0,4000 H 6000 V 0 H 0 Z"
         transform="translate(-3146.5387,-2413.3439)"
         id="path81" />
    </clipPath>
    <clipPath
       clipPathUnits="userSpaceOnUse"
       id="clipPath83">
      <path
         d="M 0,4000 H 6000 V 0 H 0 Z"
         transform="translate(-3264.211,-2552.1317)"
         id="path83" />
    </clipPath>
    <clipPath
       clipPathUnits="userSpaceOnUse"
       id="clipPath85">
      <path
         d="M 0,4000 H 6000 V 0 H 0 Z"
         transform="translate(-2739.7638,-2100.4148)"
         id="path85" />
    </clipPath>
    <clipPath
       clipPathUnits="userSpaceOnUse"
       id="clipPath87">
      <path
         d="M 0,4000 H 6000 V 0 H 0 Z"
         transform="translate(-3344.7916,-2694.8789)"
         id="path87" />
    </clipPath>
    <clipPath
       clipPathUnits="userSpaceOnUse"
       id="clipPath89">
      <path
         d="M 0,4000 H 6000 V 0 H 0 Z"
         transform="translate(-3205.1915,-2569.3531)"
         id="path89" />
    </clipPath>
    <clipPath
       clipPathUnits="userSpaceOnUse"
       id="clipPath91">
      <path
         d="M 0,4000 H 6000 V 0 H 0 Z"
         transform="translate(-3016.3439,-2202.2201)"
         id="path91" />
    </clipPath>
    <clipPath
       clipPathUnits="userSpaceOnUse"
       id="clipPath93">
      <path
         d="M 0,4000 H 6000 V 0 H 0 Z"
         transform="translate(-3304.0985,-2590.1351)"
         id="path93" />
    </clipPath>
    <clipPath
       clipPathUnits="userSpaceOnUse"
       id="clipPath95">
      <path
         d="M 0,4000 H 6000 V 0 H 0 Z"
         transform="translate(-2764.1302,-2152.9508)"
         id="path95" />
    </clipPath>
    <clipPath
       clipPathUnits="userSpaceOnUse"
       id="clipPath97">
      <path
         d="M 0,4000 H 6000 V 0 H 0 Z"
         transform="translate(-3222.7904,-2569.3819)"
         id="path97" />
    </clipPath>
    <clipPath
       clipPathUnits="userSpaceOnUse"
       id="clipPath99">
      <path
         d="M 0,4000 H 6000 V 0 H 0 Z"
         transform="translate(-3166.495,-2558.8241)"
         id="path99" />
    </clipPath>
    <clipPath
       clipPathUnits="userSpaceOnUse"
       id="clipPath101">
      <path
         d="M 0,4000 H 6000 V 0 H 0 Z"
         transform="translate(-3172.349,-2340.6229)"
         id="path101" />
    </clipPath>
    <clipPath
       clipPathUnits="userSpaceOnUse"
       id="clipPath103">
      <path
         d="M 0,4000 H 6000 V 0 H 0 Z"
         transform="translate(-3133.6434,-2324.2189)"
         id="path103" />
    </clipPath>
    <clipPath
       clipPathUnits="userSpaceOnUse"
       id="clipPath105">
      <path
         d="M 0,4000 H 6000 V 0 H 0 Z"
         transform="translate(-2952.9813,-2571.7235)"
         id="path105" />
    </clipPath>
    <clipPath
       clipPathUnits="userSpaceOnUse"
       id="clipPath107">
      <path
         d="M 0,4000 H 6000 V 0 H 0 Z"
         transform="translate(-3022.1949,-2619.8131)"
         id="path107" />
    </clipPath>
    <clipPath
       clipPathUnits="userSpaceOnUse"
       id="clipPath109">
      <path
         d="M 0,4000 H 6000 V 0 H 0 Z"
         transform="translate(-2747.7057,-2386.3655)"
         id="path109" />
    </clipPath>
    <clipPath
       clipPathUnits="userSpaceOnUse"
       id="clipPath111">
      <path
         d="M 0,4000 H 6000 V 0 H 0 Z"
         transform="translate(-2652.6891,-2082.5558)"
         id="path111" />
    </clipPath>
    <clipPath
       clipPathUnits="userSpaceOnUse"
       id="clipPath113">
      <path
         d="M 0,4000 H 6000 V 0 H 0 Z"
         transform="translate(-3208.5978,-2495.3591)"
         id="path113" />
    </clipPath>
    <clipPath
       clipPathUnits="userSpaceOnUse"
       id="clipPath115">
      <path
         d="M 0,4000 H 6000 V 0 H 0 Z"
         transform="translate(-2685.523,-2278.4569)"
         id="path115" />
    </clipPath>
    <clipPath
       clipPathUnits="userSpaceOnUse"
       id="clipPath117">
      <path
         d="M 0,4000 H 6000 V 0 H 0 Z"
         transform="translate(-2896.6854,-2436.808)"
         id="path117" />
    </clipPath>
    <clipPath
       clipPathUnits="userSpaceOnUse"
       id="clipPath119">
      <path
         d="M 0,4000 H 6000 V 0 H 0 Z"
         transform="translate(-2962.219,-2268.901)"
         id="path119" />
    </clipPath>
    <clipPath
       clipPathUnits="userSpaceOnUse"
       id="clipPath121">
      <path
         d="M 0,4000 H 6000 V 0 H 0 Z"
         transform="translate(-3131.2975,-2196.3541)"
         id="path121" />
    </clipPath>
    <clipPath
       clipPathUnits="userSpaceOnUse"
       id="clipPath123">
      <path
         d="M 0,4000 H 6000 V 0 H 0 Z"
         transform="translate(-2943.6022,-2368.7759)"
         id="path123" />
    </clipPath>
    <clipPath
       clipPathUnits="userSpaceOnUse"
       id="clipPath125">
      <path
         d="M 0,4000 H 6000 V 0 H 0 Z"
         transform="translate(-2676.1444,-2278.4447)"
         id="path125" />
    </clipPath>
    <clipPath
       clipPathUnits="userSpaceOnUse"
       id="clipPath127">
      <path
         d="M 0,4000 H 6000 V 0 H 0 Z"
         transform="translate(-2816.9143,-2516.6042)"
         id="path127" />
    </clipPath>
    <clipPath
       clipPathUnits="userSpaceOnUse"
       id="clipPath129">
      <path
         d="M 0,4000 H 6000 V 0 H 0 Z"
         transform="translate(-2961.204,-2249.1185)"
         id="path129" />
    </clipPath>
    <clipPath
       clipPathUnits="userSpaceOnUse"
       id="clipPath131">
      <path
         d="M 0,4000 H 6000 V 0 H 0 Z"
         transform="translate(-3051.5206,-2319.4913)"
         id="path131" />
    </clipPath>
    <clipPath
       clipPathUnits="userSpaceOnUse"
       id="clipPath133">
      <path
         d="M 0,4000 H 6000 V 0 H 0 Z"
         transform="translate(-2703.1422,-2433.3011)"
         id="path133" />
    </clipPath>
    <clipPath
       clipPathUnits="userSpaceOnUse"
       id="clipPath135">
      <path
         d="M 0,4000 H 6000 V 0 H 0 Z"
         transform="translate(-2816.9158,-2490.7976)"
         id="path135" />
    </clipPath>
    <clipPath
       clipPathUnits="userSpaceOnUse"
       id="clipPath137">
      <path
         d="M 0,4000 H 6000 V 0 H 0 Z"
         transform="translate(-2990.5189,-2310.1297)"
         id="path137" />
    </clipPath>
    <clipPath
       clipPathUnits="userSpaceOnUse"
       id="clipPath139">
      <path
         d="M 0,4000 H 6000 V 0 H 0 Z"
         transform="translate(-3133.6424,-2493.1393)"
         id="path139" />
    </clipPath>
    <clipPath
       clipPathUnits="userSpaceOnUse"
       id="clipPath141">
      <path
         d="M 0,4000 H 6000 V 0 H 0 Z"
         transform="translate(-2827.4623,-2357.0531)"
         id="path141" />
    </clipPath>
    <clipPath
       clipPathUnits="userSpaceOnUse"
       id="clipPath143">
      <path
         d="M 0,4000 H 6000 V 0 H 0 Z"
         transform="translate(-3050.943,-2188.1312)"
         id="path143" />
    </clipPath>
    <clipPath
       clipPathUnits="userSpaceOnUse"
       id="clipPath145">
      <path
         d="M 0,4000 H 6000 V 0 H 0 Z"
         transform="translate(-3198.162,-2430.9659)"
         id="path145" />
    </clipPath>
    <clipPath
       clipPathUnits="userSpaceOnUse"
       id="clipPath147">
      <path
         d="M 0,4000 H 6000 V 0 H 0 Z"
         transform="translate(-3046.8463,-2271.4105)"
         id="path147" />
    </clipPath>
    <clipPath
       clipPathUnits="userSpaceOnUse"
       id="clipPath149">
      <path
         d="M 0,4000 H 6000 V 0 H 0 Z"
         transform="translate(-3004.6039,-2369.9387)"
         id="path149" />
    </clipPath>
    <clipPath
       clipPathUnits="userSpaceOnUse"
       id="clipPath151">
      <path
         d="M 0,4000 H 6000 V 0 H 0 Z"
         transform="translate(-2732.463,-2115.395)"
         id="path151" />
    </clipPath>
    <clipPath
       clipPathUnits="userSpaceOnUse"
       id="clipPath153">
      <path
         d="M 0,4000 H 6000 V 0 H 0 Z"
         transform="translate(-2767.6423,-2400.4604)"
         id="path153" />
    </clipPath>
    <clipPath
       clipPathUnits="userSpaceOnUse"
       id="clipPath155">
      <path
         d="M 0,4000 H 6000 V 0 H 0 Z"
         transform="translate(-3076.1512,-2320.688)"
         id="path155" />
    </clipPath>
    <clipPath
       clipPathUnits="userSpaceOnUse"
       id="clipPath157">
      <path
         d="M 0,4000 H 6000 V 0 H 0 Z"
         transform="translate(-2868.5272,-2367.5909)"
         id="path157" />
    </clipPath>
    <clipPath
       clipPathUnits="userSpaceOnUse"
       id="clipPath159">
      <path
         d="M 0,4000 H 6000 V 0 H 0 Z"
         transform="translate(-3137.1747,-2264.3804)"
         id="path159" />
    </clipPath>
    <clipPath
       clipPathUnits="userSpaceOnUse"
       id="clipPath161">
      <path
         d="M 0,4000 H 6000 V 0 H 0 Z"
         transform="translate(-2703.1251,-2408.66)"
         id="path161" />
    </clipPath>
    <clipPath
       clipPathUnits="userSpaceOnUse"
       id="clipPath163">
      <path
         d="M 0,4000 H 6000 V 0 H 0 Z"
         transform="translate(-2747.6988,-2213.9351)"
         id="path163" />
    </clipPath>
    <clipPath
       clipPathUnits="userSpaceOnUse"
       id="clipPath165">
      <path
         d="M 0,4000 H 6000 V 0 H 0 Z"
         transform="translate(-3154.7525,-2592.8312)"
         id="path165" />
    </clipPath>
    <clipPath
       clipPathUnits="userSpaceOnUse"
       id="clipPath167">
      <path
         d="M 0,4000 H 6000 V 0 H 0 Z"
         transform="translate(-2818.0789,-2294.8799)"
         id="path167" />
    </clipPath>
    <clipPath
       clipPathUnits="userSpaceOnUse"
       id="clipPath169">
      <path
         d="M 0,4000 H 6000 V 0 H 0 Z"
         transform="translate(-3209.8912,-2421.5825)"
         id="path169" />
    </clipPath>
    <clipPath
       clipPathUnits="userSpaceOnUse"
       id="clipPath171">
      <path
         d="M 0,4000 H 6000 V 0 H 0 Z"
         transform="translate(-2714.8669,-2435.6528)"
         id="path171" />
    </clipPath>
    <clipPath
       clipPathUnits="userSpaceOnUse"
       id="clipPath173">
      <path
         d="M 0,4000 H 6000 V 0 H 0 Z"
         transform="translate(-2745.3612,-2170.547)"
         id="path173" />
    </clipPath>
    <clipPath
       clipPathUnits="userSpaceOnUse"
       id="clipPath175">
      <path
         d="M 0,4000 H 6000 V 0 H 0 Z"
         transform="translate(-3036.2735,-2300.7389)"
         id="path175" />
    </clipPath>
    <clipPath
       clipPathUnits="userSpaceOnUse"
       id="clipPath177">
      <path
         d="M 0,4000 H 6000 V 0 H 0 Z"
         transform="translate(-2949.4618,-2418.05)"
         id="path177" />
    </clipPath>
    <clipPath
       clipPathUnits="userSpaceOnUse"
       id="clipPath179">
      <path
         d="M 0,4000 H 6000 V 0 H 0 Z"
         transform="translate(-2735.9217,-2360.5309)"
         id="path179" />
    </clipPath>
    <clipPath
       clipPathUnits="userSpaceOnUse"
       id="clipPath181">
      <path
         d="M 0,4000 H 6000 V 0 H 0 Z"
         transform="translate(-2710.1575,-2582.2799)"
         id="path181" />
    </clipPath>
    <clipPath
       clipPathUnits="userSpaceOnUse"
       id="clipPath183">
      <path
         d="M 0,4000 H 6000 V 0 H 0 Z"
         transform="translate(-2963.5498,-2154.1009)"
         id="path183" />
    </clipPath>
    <clipPath
       clipPathUnits="userSpaceOnUse"
       id="clipPath185">
      <path
         d="M 0,4000 H 6000 V 0 H 0 Z"
         transform="translate(-3227.4874,-2563.4977)"
         id="path185" />
    </clipPath>
    <clipPath
       clipPathUnits="userSpaceOnUse"
       id="clipPath187">
      <path
         d="M 0,4000 H 6000 V 0 H 0 Z"
         transform="translate(-2701.9576,-2082.5558)"
         id="path187" />
    </clipPath>
    <clipPath
       clipPathUnits="userSpaceOnUse"
       id="clipPath189">
      <path
         d="M 0,4000 H 6000 V 0 H 0 Z"
         transform="translate(-2732.4525,-2435.6393)"
         id="path189" />
    </clipPath>
    <clipPath
       clipPathUnits="userSpaceOnUse"
       id="clipPath191">
      <path
         d="M 0,4000 H 6000 V 0 H 0 Z"
         transform="translate(-2699.6109,-2510.734)"
         id="path191" />
    </clipPath>
    <clipPath
       clipPathUnits="userSpaceOnUse"
       id="clipPath193">
      <path
         d="M 0,4000 H 6000 V 0 H 0 Z"
         transform="translate(-2913.6949,-2423.9161)"
         id="path193" />
    </clipPath>
    <clipPath
       clipPathUnits="userSpaceOnUse"
       id="clipPath195">
      <path
         d="M 0,4000 H 6000 V 0 H 0 Z"
         transform="translate(-3128.9029,-2273.72)"
         id="path195" />
    </clipPath>
    <clipPath
       clipPathUnits="userSpaceOnUse"
       id="clipPath197">
      <path
         d="M 0,4000 H 6000 V 0 H 0 Z"
         transform="translate(-3153.5855,-2266.7141)"
         id="path197" />
    </clipPath>
    <clipPath
       clipPathUnits="userSpaceOnUse"
       id="clipPath199">
      <path
         d="M 0,4000 H 6000 V 0 H 0 Z"
         transform="translate(-2765.2954,-2168.1844)"
         id="path199" />
    </clipPath>
    <clipPath
       clipPathUnits="userSpaceOnUse"
       id="clipPath201">
      <path
         d="M 0,4000 H 6000 V 0 H 0 Z"
         transform="translate(-3150.0663,-2229.1766)"
         id="path201" />
    </clipPath>
    <clipPath
       clipPathUnits="userSpaceOnUse"
       id="clipPath203">
      <path
         d="M 0,4000 H 6000 V 0 H 0 Z"
         transform="translate(-3118.1725,-2423.6944)"
         id="path203" />
    </clipPath>
    <clipPath
       clipPathUnits="userSpaceOnUse"
       id="clipPath205">
      <path
         d="M 0,4000 H 6000 V 0 H 0 Z"
         transform="translate(-3079.671,-2291.3605)"
         id="path205" />
    </clipPath>
    <clipPath
       clipPathUnits="userSpaceOnUse"
       id="clipPath207">
      <path
         d="M 0,4000 H 6000 V 0 H 0 Z"
         transform="translate(-2830.9912,-2502.5252)"
         id="path207" />
    </clipPath>
    <clipPath
       clipPathUnits="userSpaceOnUse"
       id="clipPath209">
      <path
         d="M 0,4000 H 6000 V 0 H 0 Z"
         transform="translate(-3086.7272,-2420.4032)"
         id="path209" />
    </clipPath>
    <clipPath
       clipPathUnits="userSpaceOnUse"
       id="clipPath211">
      <path
         d="M 0,4000 H 6000 V 0 H 0 Z"
         transform="translate(-2724.2422,-2216.2682)"
         id="path211" />
    </clipPath>
    <clipPath
       clipPathUnits="userSpaceOnUse"
       id="clipPath213">
      <path
         d="M 0,4000 H 6000 V 0 H 0 Z"
         transform="translate(-3083.2015,-2423.9045)"
         id="path213" />
    </clipPath>
    <clipPath
       clipPathUnits="userSpaceOnUse"
       id="clipPath215">
      <path
         d="M 0,4000 H 6000 V 0 H 0 Z"
         transform="translate(-3223.9664,-2548.2464)"
         id="path215" />
    </clipPath>
    <clipPath
       clipPathUnits="userSpaceOnUse"
       id="clipPath217">
      <path
         d="M 0,4000 H 6000 V 0 H 0 Z"
         transform="translate(-3130.1231,-2409.8522)"
         id="path217" />
    </clipPath>
    <clipPath
       clipPathUnits="userSpaceOnUse"
       id="clipPath219">
      <path
         d="M 0,4000 H 6000 V 0 H 0 Z"
         transform="translate(-2640.9583,-1342.6061)"
         id="path219" />
    </clipPath>
  </defs>
  <sodipodi:namedview
     id="namedview1"
     pagecolor="#ffffff"
     bordercolor="#000000"
     borderopacity="0.25"
     inkscape:showpageshadow="2"
     inkscape:pageopacity="0.0"
     inkscape:pagecheckerboard="0"
     inkscape:deskcolor="#d1d1d1"
     inkscape:zoom="0.52962298"
     inkscape:cx="4706.178"
     inkscape:cy="1649.2864"
     inkscape:window-width="1366"
     inkscape:window-height="705"
     inkscape:window-x="-8"
     inkscape:window-y="-8"
     inkscape:window-maximized="1"
     inkscape:current-layer="layer-MC1">
    <inkscape:page
       x="0"
       y="0"
       inkscape:label="1"
       id="page1"
       width="8000"
       height="5333.3335"
       margin="0"
       bleed="0" />
  </sodipodi:namedview>
  <g
     id="layer-MC0"
     inkscape:groupmode="layer"
     inkscape:label="svg1">
    <path
       id="path1"
       d="m 0,3198.799 h 5999.999 v 801.2 H 0 Z"
       style="fill:#703634;fill-opacity:1;fill-rule:nonzero;stroke:none"
       transform="matrix(1.3333333,0,0,-1.3333333,0,5333.3333)" />
    <path
       id="path2"
       d="M 0,0 H 5999.999 V 801.2 H 0 Z"
       style="fill:#703634;fill-opacity:1;fill-rule:nonzero;stroke:none"
       transform="matrix(1.3333333,0,0,-1.3333333,0,5333.3333)" />
    <path
       id="path3"
       d="M 1.333,798.266 H 5999.998 V 3198.532 H 1.333 Z"
       style="fill:#f27437;fill-opacity:1;fill-rule:nonzero;stroke:none"
       transform="matrix(1.3333333,0,0,-1.3333333,0,5333.3333)" />
  </g>
  <g
     id="layer-MC1"
     inkscape:groupmode="layer"
     inkscape:label="Layer 2">
    <path
       id="path4"
       d="m 0,0 c -599.135,-25.957 -1082.343,-511.392 -1104.72,-1111.178 -25.224,-676.077 524.482,-1226.3 1200.576,-1201.763 665.527,24.153 1171.834,606.456 1107.926,1269.844 -54.693,567.732 -526.401,1018.4 -1097.368,1042.281 -2.315,0.097 -4.609,1.326 -7.002,1.21 z m 1251.882,-1146.908 c 0.037,-6.631 0.037,-13.31 0,-19.942 -3.469,-627.999 -503.136,-1153.748 -1130.242,-1188.297 -666.976,-36.747 -1241.241,475.542 -1268.59,1144.356 -27.624,675.542 492.709,1233.636 1167.768,1253.318 668.197,19.481 1227.371,-521.271 1231.064,-1189.435"
       style="fill:#ffd740;fill-opacity:1;fill-rule:nonzero;stroke:none"
       transform="matrix(1.3333333,0,0,-1.3333333,3930.7276,1124.0201)"
       clip-path="url(#clipPath5)" />
    <path
       id="path6"
       d="m 0,0 -95.172,-152.461 -0.426,-3.718 c 82.514,-156.174 202.18,-292.2 346.669,-393.652 298.653,-209.697 682.756,-261.098 1027.079,-135.997 259.936,94.44 480.865,286.107 608.107,531.697 L 1790.46,-0.396 1609.465,-21.218 c -58.867,-106.389 -140.01,-199.346 -238.565,-270.541 -284.445,-205.481 -669.321,-204.864 -953.257,1.173 -97.666,70.871 -178.022,163.549 -236.586,269.001 z m 1900.766,-121.873 c 1.618,-0.325 1.932,0.061 2.84,1.238 1.93,2.5 7.19,15.079 9.076,19.077 96.772,205.042 124.894,449.246 83.885,672.002 -109.181,593.076 -670.12,993.715 -1269.259,904.015 C 140.053,1386.538 -276.599,851.574 -220.118,258.783 -207.577,127.17 -170.246,-5.072 -111.61,-123.048 L -15.225,31.681 201.59,5.986 204.393,4.097 c 157.611,-300.391 493.446,-464.848 829.688,-404.796 236.492,42.237 442.02,194.699 553.147,406.681 l 217.699,25.645 z m -1057.177,1645.451 99.412,0.394 c 2.394,0.117 4.687,-1.113 7.002,-1.21 C 1520.97,1498.881 1992.678,1048.214 2047.371,480.481 2111.279,-182.907 1604.972,-765.21 939.446,-789.363 263.351,-813.9 -286.355,-263.677 -261.131,412.4 c 22.378,599.786 505.586,1085.221 1104.72,1111.178"
       style="fill:#e11f26;fill-opacity:1;fill-rule:nonzero;stroke:none"
       transform="matrix(1.3333333,0,0,-1.3333333,2805.942,3155.4575)"
       clip-path="url(#clipPath7)" />
    <path
       id="path8"
       d="m 0,0 181.057,-21.585 c 58.564,-105.452 138.92,-198.13 236.586,-269.001 283.936,-206.037 668.812,-206.654 953.257,-1.173 98.555,71.195 179.698,164.152 238.565,270.541 l 180.995,20.822 95.797,-153.735 c -127.242,-245.59 -348.171,-437.257 -608.107,-531.697 -344.323,-125.101 -728.426,-73.7 -1027.079,135.997 -144.489,101.452 -264.155,237.478 -346.669,393.652 l 0.426,3.718 z"
       style="fill:#ffd740;fill-opacity:1;fill-rule:nonzero;stroke:none"
       transform="matrix(1.3333333,0,0,-1.3333333,2805.942,3155.4575)"
       clip-path="url(#clipPath9)" />
    <path
       id="path10"
       d="m 0,0 71.966,-115.125 2.761,-0.765 c 90.534,213.553 108.58,455.916 52.581,681.349 -136.958,551.342 -679.797,907.708 -1242.857,808.072 -580.906,-102.793 -975.766,-652.939 -884.064,-1238.773 13.544,-86.525 38.218,-171.017 71.378,-251.812 l 75.867,117.071 255.264,-31.678 c 3.007,-0.905 16.443,-29.409 19.39,-34.572 161.004,-282.135 485.596,-430.239 806.309,-362.497 221.089,46.699 413.338,194.566 513.551,396.738 z m 78.85,-185.089 -95.839,153.5 -217.699,-25.645 c -111.127,-211.982 -316.655,-364.444 -553.147,-406.681 -336.242,-60.052 -672.077,104.405 -829.688,404.796 l -2.803,1.889 -216.815,25.695 -96.385,-154.729 c -58.635,117.976 -95.967,250.218 -108.507,381.831 -56.482,592.791 360.17,1127.755 947.425,1215.676 599.139,89.7 1160.078,-310.939 1269.26,-904.015 41.008,-222.756 12.886,-466.961 -83.885,-672.002 -1.887,-3.998 -7.147,-16.577 -9.077,-19.077 -0.908,-1.177 -1.221,-1.563 -2.84,-1.238"
       style="fill:#ffffff;fill-opacity:1;fill-rule:nonzero;stroke:none"
       transform="matrix(1.3333333,0,0,-1.3333333,5235.1631,3071.1695)"
       clip-path="url(#clipPath11)" />
    <path
       id="path12"
       d="m 0,0 -257.854,-31.992 c -100.213,-202.172 -292.462,-350.039 -513.551,-396.738 -320.713,-67.742 -645.305,80.362 -806.309,362.497 -2.947,5.163 -16.383,33.667 -19.39,34.572 l -255.264,31.678 -75.867,-117.071 c -33.16,80.795 -57.834,165.287 -71.378,251.812 -91.702,585.834 303.158,1135.98 884.064,1238.773 C -552.489,1473.167 -9.65,1116.801 127.308,565.459 183.307,340.026 165.261,97.663 74.727,-115.89 l -2.761,0.765 z"
       style="fill:#3296d3;fill-opacity:1;fill-rule:nonzero;stroke:none"
       transform="matrix(1.3333333,0,0,-1.3333333,5235.1631,3071.1695)"
       clip-path="url(#clipPath13)" />
    <path
       id="path14"
       d="m 0,0 3.545,-15.25 -46.854,-11.225 -22.34,-25.734 34.615,-7.591 41.619,-157.22 -166.58,-25.815 -7.012,82.682 c 8.509,10.594 20.142,18.464 22.263,33.443 -42.918,5.089 -39.934,58.773 4.059,62.227 34.66,2.722 55.121,-29.995 38.369,-60.656 -6.885,-12.6 -16.026,-17.61 -27.029,-25.855 l 5.718,-55.476 82.106,11.742 -26.139,118.758 c -4.861,11.136 -24.617,9.268 -34.854,12.632 l 22.285,28.128 c -19.089,-1.462 -58.755,-23.921 -69.441,1.541 -13.344,31.793 39.464,43.845 41.89,7.837 10.896,4.63 28.209,5.085 38.391,9.707 4.035,1.831 7.648,8.143 12.687,10.774 5.615,2.931 14.194,3.967 20.403,2.938 3.385,-0.56 4.813,-3.455 8.113,-3.424 C -20.693,-5.804 -1.164,0.858 0,0"
       style="fill:#e11f26;fill-opacity:1;fill-rule:nonzero;stroke:none"
       transform="matrix(1.3333333,0,0,-1.3333333,4370.5472,3740.5924)"
       clip-path="url(#clipPath15)" />
    <path
       id="path16"
       d="m 0,0 16.386,-2.946 c 24.929,-9.478 26.145,-47.331 1.656,-57.907 -29.095,-12.565 -55.725,17.618 -40.624,45.051 l -36.84,28.595 c -61.816,-30.428 -70.843,72.999 -5.05,53.555 l 49.843,-35.871 c 25.636,9.599 48.334,27.295 75.617,32.897 l -98.436,74.019 c -0.617,0.901 0.677,2.837 1.252,3.8 5.733,9.599 16.329,20.458 22.842,29.997 L 128.981,64.993 106.734,34.557 C 65.732,41.963 34.947,15.282 0,0"
       style="fill:#e11f26;fill-opacity:1;fill-rule:nonzero;stroke:none"
       transform="matrix(1.3333333,0,0,-1.3333333,4972.7556,3568.572)"
       clip-path="url(#clipPath17)" />
    <path
       id="path18"
       d="m 0,0 57.466,21.704 c 15.617,4.031 24.474,-1.292 37.529,-8.8 -5.849,12.96 -6.075,27.461 5.85,36.978 13.07,10.431 34.227,6.11 40.953,-9.543 8.223,-19.136 -5.961,-39.777 -26.844,-38.005 0.378,-1.809 2.391,-1.743 3.837,-3.77 4.071,-5.712 4.949,-10.964 4.35,-17.911 -1.128,-13.074 -31.147,-70.698 -38.858,-86.65 -0.885,-1.83 -3.771,-8.536 -5.229,-8.875 l -36.744,18.211 32.205,66.128 c 3.712,8.12 -6.658,14.84 -13.211,16.198 -7.947,1.646 -23.748,-6.732 -31.609,-10.093 C 8.361,-33.55 -12.556,-44.02 -33.641,-53.709 l -34.177,21.435 60.556,95.045 c -13.925,14.311 -9.562,40.807 8.985,48.695 26.208,11.146 50.486,-12.541 41.4,-39.055 z"
       style="fill:#e11f26;fill-opacity:1;fill-rule:nonzero;stroke:none"
       transform="matrix(1.3333333,0,0,-1.3333333,3349.2444,3836.0095)"
       clip-path="url(#clipPath19)" />
    <path
       id="path20"
       d="m 0,0 -148.342,-64.449 -26.336,72.055 c 3.057,4.625 7.95,6.164 10.419,11.758 1.931,4.374 2.094,8.692 1.203,13.296 -32.478,-1.615 -53.166,50.761 -31.027,71.669 23.307,22.011 63.674,-5.687 45,-37.961 -2.117,-3.659 -6.646,-4.181 -3.39,-9.639 8.64,-14.484 29.185,-10.088 39.932,-0.526 7.43,-22.006 -2.374,-41.51 -20.94,-53.525 l 8.148,-22.637 77.326,32.781 -64.377,127.474 c -0.331,1.52 0.812,1.883 1.763,2.566 8.165,5.859 22.175,9.61 30.92,15.401 z"
       style="fill:#e11f26;fill-opacity:1;fill-rule:nonzero;stroke:none"
       transform="matrix(1.3333333,0,0,-1.3333333,4673.8887,3907.8229)"
       clip-path="url(#clipPath21)" />
    <path
       id="path22"
       d="m 0,0 -28.165,-1.173 -5.203,117.382 c -10.011,32.131 -59.253,34.079 -76.222,6.871 -7.995,-12.82 -7.367,-46.464 -7.77,-62.613 -0.23,-9.19 0.272,-18.44 0.042,-27.621 l 14.074,-0.633 9.222,14.421 c 0.532,2.642 -4.951,8.401 -6.253,12.053 -9.975,27.984 25.982,46.416 42.787,24.018 6.687,-8.912 5.877,-18.851 1.746,-28.722 L -83.48,0.198 l -71.376,0.975 5.026,108.186 c 11.122,78.357 136.441,85.584 144.981,1.351 C -2.098,83.585 -0.742,50.281 0.042,22.929 0.261,15.305 -0.22,7.616 0,0"
       style="fill:#e11f26;fill-opacity:1;fill-rule:nonzero;stroke:none"
       transform="matrix(1.3333333,0,0,-1.3333333,4070.2777,4083.1427)"
       clip-path="url(#clipPath23)" />
    <path
       id="path24"
       d="M 0,0 C -24.281,10.964 -20.508,47.504 4.525,54.945 25.724,61.247 45.86,43.973 43.184,22.148 l -16.755,-59.51 2.63,-2.262 c 2.189,-0.56 5.993,3.137 7.948,4.606 12.089,9.082 55.424,42.132 61.406,52.381 5.508,9.437 5.788,16.726 2.885,27.097 -8.171,29.192 -40.531,34.75 -65.971,24.907 -2.831,9.39 -12.349,18.591 -15.522,27.358 -0.464,1.282 -1.69,1.18 0.245,2.51 10.345,7.114 37.484,8.736 49.815,7.638 53.106,-4.729 85.86,-69.829 56.004,-114.62 -11.106,-16.662 -66.436,-57.296 -85.361,-71.829 -5.753,-4.418 -11.637,-8.715 -17.564,-12.9 l -36.743,45.367 z"
       style="fill:#e11f26;fill-opacity:1;fill-rule:nonzero;stroke:none"
       transform="matrix(1.3333333,0,0,-1.3333333,2906.4785,3495.2309)"
       clip-path="url(#clipPath25)" />
    <path
       id="path26"
       d="m 0,0 c 12.111,3.427 25.334,-1.762 35.161,-8.802 -29.742,-26.248 3.016,-53.775 14.734,-79.134 6.988,-15.123 2.57,-34.97 -14.069,-41.161 -31.462,-11.705 -51.744,24.291 -31.358,48.535 -4.929,11.432 -13.163,19.758 -12.764,33.055 0.098,3.275 2.823,11.004 2.327,12.752 -1.231,4.341 -13.121,1.113 -15.759,-1.335 l -1.186,0.777 C -44.645,-2.831 -30.136,48.83 4.265,66.693 41.999,86.287 84.585,73.435 112.036,43.416 131.722,21.887 148.623,-4.072 168.243,-25.889 L 170,-29.8 c -8.4,-5.771 -16.721,-15.425 -25.126,-20.699 -1.011,-0.633 -1.532,-1.722 -2.936,-0.611 L 78.031,28.18 C 47.133,55.584 0.643,43.719 0,0"
       style="fill:#e11f26;fill-opacity:1;fill-rule:nonzero;stroke:none"
       transform="matrix(1.3333333,0,0,-1.3333333,4711.5533,3682.7247)"
       clip-path="url(#clipPath27)" />
    <path
       id="path28"
       d="m 0,0 c 0.876,-1.496 -0.005,-3.839 -0.701,-5.324 l -52.764,-97.115 41.96,-35.18 3.361,-0.42 50.465,65.113 c -11.045,16.003 -7.224,40.367 12.373,47.407 28.733,10.322 51.948,-20.601 35.16,-45.717 l -91.384,-117.195 -94.358,76.764 67.917,131.301 3.55,-0.038 z"
       style="fill:#e11f26;fill-opacity:1;fill-rule:nonzero;stroke:none"
       transform="matrix(1.3333333,0,0,-1.3333333,3175.3243,3579.7893)"
       clip-path="url(#clipPath29)" />
    <path
       id="path30"
       d="m 0,0 c -1.376,1.56 5.193,11.956 6.557,13.957 42.221,61.902 147.456,36.459 140.056,-46.21 -1.524,-17.014 -17.383,-66.621 -24.079,-83.843 -13.449,-34.591 -58.973,-20.592 -51.888,14.349 2.274,11.208 16.087,19.727 27.09,19.833 l 1.758,1.762 14.298,49.047 c 4.424,49.146 -60.856,58.476 -82.659,19.641 z"
       style="fill:#e11f26;fill-opacity:1;fill-rule:nonzero;stroke:none"
       transform="matrix(1.3333333,0,0,-1.3333333,3599.4837,3881.3513)"
       clip-path="url(#clipPath31)" />
    <path
       id="path32"
       d="m 0,0 39.862,43.996 1.219,4.718 C 15.799,51.381 -6.957,24.662 0,0 M 82.095,82.107 -28.16,-41.052 c -1.511,17.259 -1.542,32.149 3.205,48.983 6.995,24.803 30.105,52.446 53.978,62.155 16.362,6.655 35.471,11.182 53.072,12.021"
       style="fill:#e11f26;fill-opacity:1;fill-rule:nonzero;stroke:none"
       transform="matrix(1.3333333,0,0,-1.3333333,4822.6093,3437.168)"
       clip-path="url(#clipPath33)" />
    <path
       id="path34"
       d="M 0,0 66.818,-74.469 54.542,-85.496 -27.25,5.027 c -10.102,11.344 -5.819,32.749 8.794,37.498 C 11.119,52.136 27.495,12.558 0,0"
       style="fill:#e11f26;fill-opacity:1;fill-rule:nonzero;stroke:none"
       transform="matrix(1.3333333,0,0,-1.3333333,3127.1269,3404.3504)"
       clip-path="url(#clipPath35)" />
    <path
       id="path36"
       d="m 0,0 96.2,-15.26 -2.399,-15.186 -120.073,17.657 c -28.325,6.798 -24.005,45.918 3.391,46.877 C -4.01,34.749 4.932,16.743 0,0"
       style="fill:#e11f26;fill-opacity:1;fill-rule:nonzero;stroke:none"
       transform="matrix(1.3333333,0,0,-1.3333333,3816.8821,3801.5972)"
       clip-path="url(#clipPath37)" />
    <path
       id="path38"
       d="m 0,0 23.492,-29.962 -112.845,-91.025 c -4.261,-2.673 -5.742,4.771 -9.567,4.957 -1.888,0.091 -4.757,-1.896 -7.196,-2.21 -26.493,-3.41 -29.947,37.225 -3.251,38.553 14.773,0.734 18.857,-14.985 28.638,-21.752 l 82.034,65.816 -18.7,23.336 C -14.254,-10.194 -3.374,1.954 0,0"
       style="fill:#e11f26;fill-opacity:1;fill-rule:nonzero;stroke:none"
       transform="matrix(1.3333333,0,0,-1.3333333,4950.6455,3734.5504)"
       clip-path="url(#clipPath39)" />
    <path
       id="path40"
       d="m 0,0 c -22.692,-3.029 -9.51,-26.701 -8.362,-40.633 3.092,-37.514 -33.289,-63.353 -64.266,-39.632 -8.166,6.254 -16.655,25.31 -28.243,12.791 -9.452,-10.212 -12.579,-49.753 -19.387,-66.246 -17.913,-43.395 -74.785,-65.619 -114.723,-37.342 -52.811,37.39 -17.774,86.601 -14.892,136.457 1.252,21.667 -4.348,52.804 -21.662,67.467 -44.384,37.586 -85.326,-37.981 -109.741,-65.101 -53.854,-59.823 -163.307,-69.475 -224.578,-15.837 -21.032,18.413 -48.175,58.081 -55.812,84.95 -5.251,18.477 15.678,27.447 25.318,11.246 5.829,-9.796 9.566,-23.07 15.598,-33.67 35.109,-61.686 95.757,-84.462 164.386,-63.1 78.014,24.284 88.383,131.036 182.311,121.224 32.024,-3.346 54.579,-33.771 59.261,-63.911 5.787,-37.257 -26.401,-116.178 -4.008,-144.774 17.631,-22.514 50.161,-12.326 65.618,7.161 18.753,23.643 12.737,54.371 31.181,79.086 12.742,17.074 43.447,30.796 61.582,14.654 2.821,-2.51 3.895,-8.324 9.143,-6.87 6.932,1.92 0.904,17.514 0.758,22.707 C -51.37,10.741 -19.412,18.545 0,0"
       style="fill:#ffffff;fill-opacity:1;fill-rule:nonzero;stroke:none"
       transform="matrix(1.3333333,0,0,-1.3333333,4717.7985,2996.0833)"
       clip-path="url(#clipPath41)" />
    <path
       id="path42"
       d="M 0,0 C 6.609,6.609 15.395,8.631 24.52,7.176 36.91,5.2 41.611,-4.98 53.53,9.803 54.377,-0.501 47.638,-12.031 36.486,-12.541 c -3.447,-0.158 -6.43,1.49 -9.35,1.337 -7.455,-0.389 -8.919,-12.401 -11.672,-17.75 -20.458,-39.737 -63.823,-27.033 -75.133,12.94 -2.233,7.89 -2.105,29.403 -16.476,21.182 -8.177,-4.678 -16.078,-30.137 -21.847,-39.146 -30.182,-47.136 -93.831,-29.063 -98.31,24.444 -2.776,33.162 28.643,93.12 -16.982,108.536 -37.926,12.814 -60.9,-24.159 -82.143,-46.985 -81.166,-87.208 -180.151,-49.325 -239.217,38.832 -28.547,42.606 -57.254,120.258 -55.881,171.708 0.435,16.328 22.688,19.209 27.308,5.004 2.585,-7.949 2.092,-25.477 3.571,-35.14 13.402,-87.554 73.295,-208.813 177.377,-200.311 65.668,5.364 82.533,88.973 143.457,95.848 59.036,6.662 91.851,-35.137 84.577,-91.616 -2.052,-15.941 -17.898,-64.56 6.862,-69.667 26.181,-5.401 31.631,35.253 43.753,50.725 20.315,25.929 60.804,23.343 70.683,-10.201 2.789,-9.467 1.864,-35.682 16.424,-32.351 C -9.652,-23.583 -6.016,-6.016 0,0"
       style="fill:#ffffff;fill-opacity:1;fill-rule:nonzero;stroke:none"
       transform="matrix(1.3333333,0,0,-1.3333333,4452.4641,3312.602)"
       clip-path="url(#clipPath43)" />
    <path
       id="path44"
       d="m 0,0 c -8.245,1.319 -21.222,-3.444 -23.858,-11.933 -4.659,-15.009 7.757,-28.672 7.519,-43.815 -0.428,-27.248 -27.038,-36.991 -48.077,-20.997 -12.153,9.238 -22.274,30.775 -38.787,11.602 -15.768,-18.308 -8.887,-48.799 -21.821,-70.85 -24.584,-41.916 -85.325,-58.613 -118.946,-17.077 -40.484,50.013 28.547,114.295 6.405,170.633 -13.174,33.521 -48.765,43.943 -79.945,27.2 -28.462,-15.284 -50.784,-59.451 -77.797,-82.913 -69.672,-60.514 -179.636,-53.981 -235.582,21.346 -7.312,9.846 -29.348,48.752 -29.571,59.616 -0.186,9.016 5.237,5.047 5.907,-1.764 2.55,3.649 9.548,7.771 13.562,4.787 1.342,-0.999 11.825,-25.642 14.376,-30.211 44.889,-80.374 146.748,-110.069 221.29,-49.622 31.688,25.697 40.771,69.736 77.254,90.494 37.986,21.613 89.394,16.072 107.257,-28.047 21.869,-54.012 -51.52,-147.303 -0.792,-186.136 25.321,-19.384 52.114,-12.403 73.815,8.096 30.849,29.14 16.012,62.652 36.322,93.887 10.604,16.307 30.739,24.61 46.962,10.541 7.391,-6.41 12.855,-21.794 25.853,-17.673 14.006,4.44 1.722,30.162 1.079,39.902 -1.297,19.653 9.847,30.67 29.67,27.335 C -5.45,3.988 -1.051,2.507 0,0"
       style="fill:#e11f26;fill-opacity:1;fill-rule:nonzero;stroke:none"
       transform="matrix(1.3333333,0,0,-1.3333333,4714.6703,2996.0833)"
       clip-path="url(#clipPath45)" />
    <path
       id="path46"
       d="m 0,0 c 1.449,-1.565 -6.431,-8.318 -8.141,-8.866 -7.268,-2.331 -11.308,4.092 -20.58,-4.045 -14.146,-12.413 -10.23,-41.739 -38.72,-41.972 -17.488,-0.144 -28.92,10.041 -35.169,25.578 -4.264,10.599 -4.907,37.001 -22.01,33.779 -13.701,-2.582 -21.857,-32.502 -29.245,-43.566 -19.231,-28.801 -62.099,-30.999 -76.255,3.102 -15.26,36.757 17.364,70.101 -10.564,111.435 -12.931,19.137 -28.705,24.168 -51.141,18.732 -40.958,-9.925 -59.351,-54.149 -96.088,-75.179 -138.8,-79.455 -244.759,108.584 -251.382,224.424 -0.214,3.732 -1.501,16.955 2.868,17.012 l 5.318,-2.366 c -0.135,6.005 6.9,9.404 10.384,3.918 2.681,-67.897 23.606,-131.887 65.911,-185.118 47.564,-59.848 122.731,-81.428 184.155,-27.029 14.567,12.9 24.429,29.618 38.678,42.263 53.169,47.187 120.671,14.168 118.552,-56.378 -0.782,-26.048 -20.699,-75.542 13.191,-87.581 17.33,-6.157 32.615,2.595 42.366,16.773 12.709,18.479 14.253,54.2 45.579,48.881 30.57,-5.192 12.11,-62.26 49.48,-55.959 12.675,2.138 14.017,30.997 28.929,37.934 C -21.799,1.395 -10.399,-11.094 0,0"
       style="fill:#e11f26;fill-opacity:1;fill-rule:nonzero;stroke:none"
       transform="matrix(1.3333333,0,0,-1.3333333,4519.1455,3305.7875)"
       clip-path="url(#clipPath47)" />
    <path
       id="path48"
       d="m 0,0 c -0.579,-257.069 0.413,-514.179 0.026,-771.261 1.489,-7.805 33.489,-25.404 41.411,-28.973 71.261,-32.104 185.966,-29.859 257.31,1.177 39.479,17.174 59.345,39.005 91.33,64.687 22.516,18.078 35.082,19.098 61.296,26.683 104.327,30.191 115.051,171.774 170.544,250.585 4.325,6.142 35.115,42.83 31.466,47.703 l -4.675,-0.591 c 16.636,22.573 24.867,51.25 29.136,78.785 1.899,12.252 2.088,24.765 4.045,37.013 15.998,100.142 93.177,150.395 191.503,146.435 5.189,-0.209 11.947,-3.219 16.961,-0.049 51.677,-47.844 97.265,-160.228 178.876,-154.829 46.5,3.077 76.04,37.357 124.967,11.151 9.589,-5.136 19.741,-14.344 26.278,-22.991 10.212,-13.509 13.028,-31.938 34.133,-31.659 17.959,0.237 37.263,20.297 39.285,37.625 2.499,0.352 1.895,0.106 2.618,-1.49 9.675,-21.355 4.801,-59.278 -12.606,-75.928 -33.258,-31.811 -71.28,-2.238 -103.018,-26.018 -20.678,-15.492 -29.355,-54.076 -48.28,-76.065 -57.695,-67.036 -147.509,-67.997 -224.62,-36.897 -9.202,3.71 -17.752,8.782 -27.017,12.268 5.99,-9.33 11.612,-18.783 16.255,-28.895 6.709,-14.614 14.731,-48.097 31.798,-52.656 15.001,-4.007 28.387,10.305 41.641,14.743 25.893,8.669 54.236,-0.781 69.641,-23.119 2.511,-3.642 9.127,-19.952 10.206,-20.307 3.786,-1.245 7.478,9.341 9.671,12.561 4.257,6.247 9.708,12.881 16.644,16.201 18.981,9.083 39.623,-2.281 37.571,-24.091 -21.683,11.18 -20.484,-14.085 -23.776,-27.242 -5.841,-23.343 -31.242,-36.612 -54.203,-34.913 -14.775,1.094 -23.72,8.842 -39.312,1.738 -15.075,-6.869 -17.295,-29.931 -24.065,-43.973 -21.583,-44.763 -87.181,-59.894 -132.21,-48.949 -28.427,6.91 -54.048,22.849 -83.826,8.085 -16.571,-8.215 -26.796,-25.718 -15.855,-43.247 12.034,-19.278 40.605,-5.243 57.487,-1.904 34.047,6.731 63.697,-4.508 77.851,-37.544 3.864,-9.019 3.767,-22.809 14.988,-24.933 21.303,-4.034 12.174,35.708 36.415,33.507 -7.677,-9.381 1.774,-24.146 4.119,-35.167 7.921,-37.221 -26.47,-67.51 -62.174,-65.684 -15.895,0.813 -32.176,8.072 -46.765,13.873 -21.095,-21.593 -46.991,-37.092 -76.963,-42.674 -61.069,-11.373 -95.05,16.716 -146.254,37.998 -74.376,30.913 -141.07,-39.881 -199.228,-76.106 -87.326,-54.393 -208.109,-83.609 -310.875,-72.694 -31.772,3.375 -64.371,11.334 -90.344,30.481 l -0.637,2.882 C 1.617,-698.645 -4.821,-352.437 -1.193,-6.435 -1.173,-4.453 -1.943,-1.22 0,0"
       style="fill:#ffd740;fill-opacity:1;fill-rule:nonzero;stroke:none"
       transform="matrix(1.3333333,0,0,-1.3333333,3519.4593,1520.8796)"
       clip-path="url(#clipPath49)" />
    <path
       id="path50"
       d="m 0,0 c -5.014,-3.17 -11.772,-0.161 -16.961,0.048 -98.326,3.961 -175.505,-46.292 -191.503,-146.435 -1.956,-12.247 -2.145,-24.76 -4.045,-37.012 -4.269,-27.536 -12.5,-56.212 -29.135,-78.786 l 4.675,0.592 c 3.648,-4.873 -27.141,-41.562 -31.466,-47.704 -55.493,-78.81 -66.217,-220.393 -170.544,-250.584 -26.214,-7.586 -38.781,-8.606 -61.296,-26.684 -31.985,-25.681 -51.851,-47.512 -91.33,-64.687 -71.344,-31.036 -186.049,-33.28 -257.311,-1.176 -7.921,3.568 -39.921,21.168 -41.411,28.972 0.387,257.082 -0.605,514.192 -0.026,771.261 0.026,11.343 -0.572,23.381 0,34.625 0.067,1.323 -0.766,3.221 1.158,2.904 63.72,-96.259 148.507,-183.859 260.978,-220.569 67.578,-22.057 143.319,-14.526 210.044,7.058 66.129,21.392 123.594,62.417 192.921,75.71 C -148.94,62.167 -59.251,54.857 0,0"
       style="fill:#e11f26;fill-opacity:1;fill-rule:nonzero;stroke:none"
       transform="matrix(1.3333333,0,0,-1.3333333,4708.4144,1721.3737)"
       clip-path="url(#clipPath51)" />
    <path
       id="path52"
       d="m 0,0 c 2.041,7.324 1.946,15.668 3.509,22.873 0.345,1.59 -0.146,2.959 1.764,4.078 L 17.305,11.126 C 16.468,8.025 1.164,-1.221 0,0 m 1.01,-39.057 c -0.884,-3.14 -14.788,-8.999 -16.265,-7.86 L -5.29,-22.3 c 2.593,-2.894 7.242,-13.346 6.3,-16.757 m -25.804,-42.905 -16.269,-2.493 14.094,16.404 c 3.119,-0.789 2.805,-12.931 2.175,-13.911 M 15.831,80.912 C 19.005,76.896 26.902,64.273 25.628,59.496 24.858,56.612 9.257,46.929 8.212,48.095 c -1.416,1.578 5.683,32.897 7.619,32.817 m 19.37,38.731 c 2.738,1.893 6.331,-17.843 5.712,-19.79 -6.38,-2.469 -12.707,-5.74 -19.804,-4.829 z m -122.013,-293.25 c 5.674,10.155 9.827,21.528 16.139,31.324 0.739,1.146 -0.125,2.092 2.618,1.511 l 3.016,-21.097 c -1.012,-1.959 -20.788,-12.564 -21.773,-11.738 m -3.605,-46.818 -19.85,-7.149 10.565,28.145 c 4.239,-0.907 10.473,-19.382 9.285,-20.996 m -43.311,-63.456 13.483,31.643 c 2.605,0.005 8.22,-15.974 8.701,-19.145 -2.231,-2.654 -20.605,-14.071 -22.184,-12.498 m -12.795,-40.541 c -2.498,-3.292 -17.729,-8.611 -22.404,-8.721 l 19.356,23.425 c 1.6,-10e-4 5.04,-12.079 3.048,-14.704 M -261.1,-398.758 c -8.531,-2.567 -17.485,-2.627 -26.305,-2.423 8.42,9.498 20.621,15.109 31.66,21.103 1.406,-1.926 -2.959,-17.05 -5.355,-18.68 m -65.005,-51.127 c -6.807,-2.144 -13.352,0.79 -19.952,1.783 L -319.09,-427 c -1.087,-7.902 -2.356,-16.131 -7.015,-22.885 m -68.767,-36.7 c -6.343,1.743 -13.738,2.436 -19.219,6.217 l 29.315,11.132 c 1.615,-1.629 -7.891,-16.916 -10.096,-17.349 m -72.643,-20.219 -19.302,9.436 c 0.234,1.746 5.07,1.935 6.607,2.167 9.086,1.377 18.298,2.47 27.403,3.671 z m -71.427,-3.521 c -6.166,3.039 -11.952,7.283 -15.921,12.941 h 32.845 c 1.905,-1.406 -13.065,-13.253 -16.924,-12.941 m -64.366,4.906 c -2.048,1.094 -15.563,14.621 -13.722,16.24 l 34.013,-4.697 c -2.064,-4.327 -16.467,-12.516 -20.291,-11.543 m -65.353,22.696 c -1.906,0.932 -11.365,17.508 -10.547,18.173 l 30.497,-15.223 c -5.094,-1.629 -14.961,-5.389 -19.95,-2.95 M 73.891,152.486 69.608,137.139 50.436,134.907 c 1.391,3.213 21.937,19.203 23.455,17.579 m 29.809,15.366 c 8.939,4.111 22.567,5.627 32.369,6.916 l -13.622,-12.61 -20.398,3.249 c -0.48,3.014 0.292,1.82 1.651,2.445 M 34.301,4.509 c 2.935,-0.564 10.38,-5.813 12.994,-5.443 l 13.08,9.122 20.071,-14.056 c 29.568,4.966 58.04,4.638 87.307,-1.752 21.045,-4.594 40.939,-12.994 60.987,-20.528 C 201.925,-8.126 170.46,6.134 138.411,15.826 124.746,19.959 102.403,26.713 88.584,27.046 78.416,27.29 69.434,16.218 61.322,10.719 L 44.15,15.005 31.679,5.859 C 28.74,16.111 25.985,27.248 17.612,34.599 26.604,40.186 35.293,46.474 42.04,54.71 l -9.203,27.388 20.962,9.234 6.842,-9.029 c 4.089,-1.264 12.678,2.614 15.664,1.504 4.397,-1.633 12.634,-16.497 17.185,-17.877 30.654,2.451 61.02,1.867 89.118,-11.772 l 26.19,-15.441 c -18.638,20.641 -47.047,38.664 -73.297,48.102 -7.143,2.568 -28.593,9.166 -35.25,8.777 -6.401,-0.375 -16.905,-8.815 -23.438,-10.819 -1.89,0.15 -8.846,9.941 -11.075,10.781 -1.862,0.702 -9.329,-2.233 -11.769,-2.899 l -4.714,29.33 30.4,3.633 8.332,29.218 c 8.898,-5.078 35.632,-1.582 41.602,-8.242 7.524,-8.393 1.239,-13.77 18.659,-11.562 1.448,0.183 6.357,0.563 5.407,2.776 -3.052,1.481 -7.517,9.679 -9.364,10.585 -3.453,1.694 -10.121,-0.024 -14.087,0.587 l 20.696,22.093 28.221,-8.98 18.427,9.18 c 7.097,-3.032 19.149,-7.462 26.389,-10.082 0.349,-0.127 -0.375,0.209 0,0 -1.32,1.746 -1.447,1.877 -3.523,4.656 -0.013,0.017 -2.875,3.582 -3.912,4.807 l -2.026,2.593 c -2.137,2.231 -4.96,6.14 -7.853,9.154 -0.058,0.06 -0.854,0.149 -1.25,0.226 C 160.309,191.438 100.658,179.947 62.969,153.448 -26.18,90.769 21.215,-1.053 -36.403,-68.598 c -7.535,-8.835 -16.552,-17.332 -24.564,-25.878 -7.792,-8.311 -16.272,-15.559 -24.101,-23.994 -2.855,-3.077 -12.783,-16.201 -13.285,-19.645 -0.48,-3.289 1.852,-4.912 4.527,-3.27 1.429,0.878 3.963,6.782 5.362,8.715 7.787,10.764 14.969,18.253 26.671,24.943 3.721,2.128 9.42,5.419 13.686,5.084 -18.12,-18.997 -31.012,-41.847 -42.836,-65.086 -32.404,-63.685 -42.146,-128.731 -99.082,-177.76 -30.352,-26.137 -68.674,-33.115 -107.932,-31.075 -0.837,-3.023 2.451,-2.809 4.407,-3.172 6.999,-1.302 14.373,-1.108 21.389,-2.096 -35.805,-24.949 -64.21,-55.687 -103.609,-75.869 -86.933,-44.532 -218.73,-48.409 -304.225,1.174 -3.808,2.208 -16.683,12.261 -19.105,12.606 -2.703,0.384 -4.558,-2.454 -1.757,-5.368 4.557,-4.741 5.852,-15.171 9.085,-22.535 4.243,-9.668 10.889,-18.262 16.075,-27.402 13.962,1.011 27.333,4.895 40.293,9.954 8.429,-12.073 17.967,-23.801 29.479,-32.721 10.057,4.698 20.428,8.864 29.881,14.704 2.11,1.304 3.221,4.717 6.283,3.915 l 30.089,-25.096 -8.945,-11.742 c 1.304,-3.616 7.232,-10.095 6.46,-13.778 -1.044,-4.977 -14.626,-18.089 -17.96,-23.181 -1.05,-2.404 -0.748,-5.054 -0.593,-7.585 2.234,-36.425 25.026,-104.764 37.211,-141.096 0.835,-2.489 1.26,-5.457 3.247,-7.311 -3.066,51.345 -2.867,103.127 2.999,154.302 -0.817,6.391 -18.232,18.377 -22.185,24.755 l 8.024,13.906 -7.076,11.768 c -0.003,2.25 20.855,15.28 24.701,18.714 3.325,2.97 6.181,6.354 8.78,9.967 10.703,-11.204 25.25,-17.571 39.3,-23.46 l -7.015,-13.507 7.99,-12.676 c -4.467,-9.729 -16.877,-20.528 -16.108,-31.699 0.414,-6.013 3.518,-15.682 5.163,-21.863 10.605,-39.853 27.949,-78.012 45.746,-114.975 l -12.304,89.764 c -0.425,19.053 -2.741,38.296 -0.189,57.239 l -20.368,21.923 6.057,14.673 -7.603,10.37 c 9.9,12.127 23.903,21.143 30.952,35.96 13.501,-7.914 29.024,-10.293 43.93,-14.087 l -3.352,-13.215 9.029,-10.603 -11.502,-23.56 c 14.568,-47.061 43.292,-87.241 77.97,-121.524 1.683,0.833 -0.231,2.871 -0.766,3.927 -20.271,40.048 -36.696,82.534 -42.697,127.396 l -21.544,14.296 3.472,16.6 -9.328,7.276 c 8.585,13.523 19.365,26.523 22.185,42.829 16.05,-4.2 32.637,-6.561 49.254,-5.877 l -2.421,-13.265 9.554,-7.434 -9.388,-23.285 c 15.582,-40.724 44.568,-79.376 77.919,-107.337 1.318,-1.105 1.907,-2.846 4.109,-2.332 -22.498,37.315 -40.987,77.831 -49.899,120.77 -3.502,3.513 -17.122,8.013 -19.4,11.095 -2.819,3.813 1.159,10.281 0.618,14.823 l -9.796,7.745 c 3.66,15.832 13.343,30.48 11.607,47.327 18.147,-0.938 36.004,1.446 53.96,3.508 l -0.969,-13.294 11.347,-8.512 -6.652,-30.096 c 14.367,-29.008 37.834,-52.245 63.266,-71.728 12.581,-9.638 27.176,-20.264 42.109,-25.331 -34.803,30.572 -60.706,70.862 -72.198,116.067 l -24.028,11.163 -1.335,16.853 -10.443,4.472 9.58,31.969 c 21.943,0.187 43.403,4.835 64.398,10.673 l 2.322,-12.348 14.707,-4.062 6.658,-29.118 c 37.194,-14.405 69,-40.081 94.119,-70.699 l 12.399,-18.669 c -6.022,27.979 -24.14,55.036 -42.247,76.801 -7.568,9.095 -31.783,35.192 -41.522,39.419 -5.744,2.493 -26.64,0.775 -28.915,4.226 -1.744,2.644 -2.515,11.148 -4.62,12.68 l -12.903,2.957 2.89,17.633 43.68,17.355 11.47,-8.001 15.111,6.821 25.948,-18.486 c 40.921,13.258 86.609,15.824 128.703,6.585 5.709,-1.253 10.825,-3.694 16.144,-4.979 1.181,-0.285 3.838,-1.541 3.57,0.639 -24.596,15.599 -52.1,24.711 -80.69,30.17 -16.878,3.223 -51.355,8.081 -67.427,4.77 -7.12,-1.466 -18.251,-13.488 -25.153,-17.166 -3.687,-0.979 -12.431,7.815 -14.986,7.67 -1.694,-0.097 -10.952,-8.077 -12.322,-6.659 l -6.56,30.545 c 15.823,5.22 28.171,16.381 41.836,25.348 l -14.165,35.596 32.099,13.011 c 8.42,-17.696 10.494,-9.093 22.51,-9.43 1.532,-0.042 2.299,-0.202 3.549,-1.134 3.459,-2.577 12.165,-23.651 13.581,-24.537 21.19,-0.125 42.606,-2.497 63.405,-6.397 19.421,-3.641 41.332,-9.83 59.205,-18.217 11.074,-5.196 33.539,-21.979 42.571,-24.293 3.15,-0.807 6.226,-0.634 9.414,-0.539 l -11.618,5.374 c -32.014,30.822 -67.052,55.919 -108.908,71.742 -10.132,3.831 -35.094,12.802 -44.907,10.296 -5.156,-1.317 -17.206,-9.736 -21.77,-10.016 -4.72,-0.289 -8.29,9.599 -13.037,11.573 l -14.418,-3.351 -10.642,35.674 c 14.634,4.444 26.085,14.288 38.419,22.832 l 10.498,-8.996 14.639,5.063 18.111,-13.547 c 29.989,5.992 64.914,-0.259 91.639,-15.015 21.775,-12.022 38.373,-36.465 66.071,-29.515 l -11.967,2.678 c -30.115,16.539 -45.551,42.161 -77.931,58.144 -15.119,7.463 -52.827,19.889 -68.417,13.613 -4.717,-1.899 -13.077,-13.384 -17.302,-14.488 -3.955,-1.033 -9.009,7.292 -12.917,7.897 -4.479,0.694 -7.336,-5.455 -12.044,-4.512 l -7.131,35.648 c 17.227,6.068 29.814,19.49 44.147,30.06 l -2.919,39.135 28.688,15.957 10.783,-9.187 14.375,2.798 16.127,-14.532 c 33.104,7.516 63.143,2.559 92.18,-14.473 16.746,-9.822 39.504,-37.898 58.289,-20.294 -2.84,0.957 -5.026,-0.844 -8.475,-0.37 -13.246,1.822 -36.897,30.275 -49.784,39.464 -20.411,14.554 -61.639,28.621 -86.683,26.08 -7.839,-0.796 -13.993,-10.689 -21.246,-13.984 l -11.583,9.245 -14.594,-3.547 c -1.988,11.127 -3.267,23.194 -10.456,32.389 l -0.11,1.612 c 8.956,-0.327 22.969,17.541 29.612,16.263"
       style="fill:#e11f26;fill-opacity:1;fill-rule:nonzero;stroke:none"
       transform="matrix(1.3333333,0,0,-1.3333333,4450.3493,1982.5671)"
       clip-path="url(#clipPath53)" />
    <path
       id="path54"
       d="M 0,0 4.311,-12.343 -5.69,-25.014 c 3.687,-9.299 17.839,-20.795 17.461,-30.642 l -31.688,-151.966 -11.77,158.882 24.118,24.142 -3.973,15.54 z"
       style="fill:#e11f26;fill-opacity:1;fill-rule:nonzero;stroke:none"
       transform="matrix(1.3333333,0,0,-1.3333333,3643.2579,2680.1592)"
       clip-path="url(#clipPath55)" />
    <path
       id="path56"
       d="m 0,0 c -20.174,20.416 -43.213,37.715 -69.582,49.472 -8.922,3.978 -25.494,7.724 -32.409,12.167 -2.286,1.469 -18.751,19.652 -18.8,21.063 2.629,2.175 7.824,2.36 11.263,2.79 13.166,1.645 16.611,1.694 28.213,-4.35 C -52.156,65.949 -21.888,34.595 -3.724,7.408 -2.245,5.195 0,2.787 0,0"
       style="fill:#e11f26;fill-opacity:1;fill-rule:nonzero;stroke:none"
       transform="matrix(1.3333333,0,0,-1.3333333,4817.8848,1912.1911)"
       clip-path="url(#clipPath57)" />
    <path
       id="path58"
       d="M 0,0 C -4.2,-0.293 -6.809,2.095 -11.092,2.408 -22.745,3.262 -33.884,-4.93 -37.39,-15.58 l 29.812,-46.601 c 10.047,6.559 13.577,23.251 8.736,34.014 -21.261,-11.452 -26.583,23.596 -2.009,18.496 9.633,-1.998 17.245,-15.897 18.321,-25.072 2.089,-17.813 -2.688,-30.321 -12.795,-44.471 l 6.596,-8.727 c 19.222,14.947 23.547,41.92 14.748,64.093 C 21.531,-12.537 7.25,0.971 7.476,12.121 7.609,18.701 11.479,27.819 18.752,28.136 22.795,8.504 49.506,3 45.761,-19.954 l 9.366,4.692 c 0.922,-9.977 5.178,-18.771 1.062,-28.624 -1.881,-4.505 -5.93,-7.583 -8.105,-11.834 l 9.388,1.743 c 1.716,-23.066 -11.709,-41.28 -29.201,-54.536 l 25.103,-27.55 c 1.399,-0.014 3.155,12 4.061,14.684 4.409,13.062 14.425,18.004 21.183,28.687 l 2.403,-0.711 5.185,-13.349 c 6.065,5.399 4.574,13.834 7.809,20.35 8.073,16.257 40.851,22.701 57.309,19.514 -3.707,-3.777 -9.193,-5.882 -12.261,-10.601 -5.139,-7.903 -0.055,-14.763 -10.106,-21.567 -6.586,-4.459 -18.494,-4.88 -26.881,-8.311 -13.745,-5.621 -31.77,-21.086 -35.836,-35.719 -0.831,-2.991 -0.054,-9.471 2.391,-5.913 1.643,2.392 3.042,8.11 5.045,11.38 9.279,15.152 24.969,27.299 43.62,20.878 1.194,-0.411 9.147,-4.087 5.895,-5.875 -17.214,-2.723 -33.659,-12.912 -39.059,-30.153 -0.867,-2.767 -2.634,-7.991 -1.846,-10.643 0.352,-1.181 10.63,-9.808 11.558,-9.028 -6.026,11.402 -0.621,26.788 12.6,29.034 5.301,0.9 15.381,-1.27 18.305,0.388 8.251,4.677 -0.27,18.529 11.326,17.477 -5.2,-7.663 5.649,-10.616 4.476,-20.209 -1.426,-11.656 -18.127,-10.461 -21.189,-17.613 -5.552,-12.968 13.042,-39.776 22.566,-48.398 l 48.102,-31.063 c -37.016,13.502 -71.36,37.004 -101.434,62.191 -64.234,53.794 -116.587,121.404 -149.802,198.597 -3.423,7.956 -10.707,23.893 -11.533,31.893 -0.285,2.756 0.067,2.953 1.462,0.283 C -68.662,45.136 -52.322,7.052 -49.855,7.048 -35.442,21.645 -9.907,17.783 0,0"
       style="fill:#ffd740;fill-opacity:1;fill-rule:nonzero;stroke:none"
       transform="matrix(1.3333333,0,0,-1.3333333,3694.8907,1771.4085)"
       clip-path="url(#clipPath59)" />
    <path
       id="path60"
       d="m 0,0 c -0.955,0.868 -1.107,2.995 -2.737,3.099 4.935,-14.563 3.168,-31.512 -12.909,-37.531 0.334,6.608 -4.516,12.631 -3.281,19.062 1.479,7.698 14.547,13.728 13.866,20.187 -0.34,3.218 -14.417,15.131 -17.618,18.225 1.162,-8.384 2.99,-14.835 0.359,-23.245 -2.782,-8.896 -12.093,-14.766 -20.771,-9.466 -5.402,3.299 -1.606,8.387 -11.648,3.168 -12.214,-6.349 -13.681,-20.801 -9.02,-32.629 -19.303,14.311 -14.846,40.398 6.631,50.274 7.496,3.447 31.931,7.299 28.375,19.267 -33.764,37.549 -62.937,78.817 -89.443,121.766 -34.797,56.388 -66.029,117.347 -82.788,181.72 l 22.07,-52.402 c 55.94,-110.645 125.187,-227.425 222.53,-306.52 40.127,-32.604 66.689,-50.155 112.959,-42.248 24.815,4.242 24.815,7.918 29.434,5.184 2.728,-1.614 21.197,2.856 18.288,1.037 -10.558,-6.599 -29.222,-13.857 -49.395,-15.742 C 80.44,-83.753 50.122,-45.541 0,0"
       style="fill:#ffd740;fill-opacity:1;fill-rule:nonzero;stroke:none"
       transform="matrix(1.3333333,0,0,-1.3333333,3894.0655,2382.4203)"
       clip-path="url(#clipPath61)" />
    <path
       id="path62"
       d="m 0,0 c -6.465,-9.133 -11.798,-5.951 -20.508,-7.045 -21.936,-2.755 -42.187,-17.452 -40.537,-41.671 0.213,-3.133 2.638,-14.415 7.048,-12.883 6.629,2.303 2.887,7.657 3.847,13.824 3.713,23.854 34.932,29.05 53.913,20.463 45.083,-20.394 35.331,-84.635 0.338,-109.917 0.838,6.883 0.838,15.741 2.281,22.353 1.254,5.75 7.554,13.209 9.778,19.549 10.751,30.65 -9.283,65.297 -43.728,61.325 -11.408,-1.316 -23.299,-10.84 -19.953,-23.453 7.906,2.547 6.927,10.55 15.511,13.818 15.351,5.845 33.886,-5.823 38.252,-21.08 6.527,-22.814 -5.932,-46.98 -26.777,-57.261 -1.261,3.497 -0.239,7.395 -0.673,11.04 -0.311,2.616 -2.657,5.842 -2.083,8.072 0.248,0.964 7.359,9.426 9.046,13.31 4.318,9.939 5.502,20.95 -0.996,30.337 -5.237,7.565 -17.993,13.553 -24.636,4.678 30.266,-4.303 26.88,-43.411 -5.275,-40.446 -18.074,1.666 -30.878,22.373 -32.311,39.237 C -81.113,-12.808 -38.064,10.704 0,0"
       style="fill:#ffd740;fill-opacity:1;fill-rule:nonzero;stroke:none"
       transform="matrix(1.3333333,0,0,-1.3333333,3702.7093,2237.5371)"
       clip-path="url(#clipPath63)" />
    <path
       id="path64"
       d="m 0,0 c -28.01,-0.66 -49.347,20.454 -62.166,43.397 4.656,0.542 8.718,1.444 13.532,1.228 13.735,-0.619 12.025,-5.057 20.469,-12.377 C -11.167,17.515 13.287,6.615 35.472,16.741 56.783,26.468 58.641,56.17 41.075,70.389 45.201,42.954 3.505,40.647 0.111,65.213 -5.683,107.148 59.465,119.141 75.973,75.387 94.481,26.336 48.588,-14.861 0.589,-7.036 c -1.378,0.225 -2.094,0.619 -2.902,1.756 z"
       style="fill:#ffd740;fill-opacity:1;fill-rule:nonzero;stroke:none"
       transform="matrix(1.3333333,0,0,-1.3333333,4010.8272,2088.9408)"
       clip-path="url(#clipPath65)" />
    <path
       id="path66"
       d="m 0,0 c 2.241,-2.435 -3.644,-2.871 -4.401,-3.788 -2.59,-3.141 1.29,-15.925 -1.373,-22.676 -1.755,-4.45 -8.207,-8.672 -11.812,-11.649 l 4.694,-0.586 c -2.658,-15.924 -20.962,-21.09 -34.831,-15.464 -13.345,5.414 -17.21,14.579 -6.239,25.446 -6.824,3.317 -11.281,-7.679 -15.262,-9.372 -2.878,-1.224 -10.233,-1.608 -14.664,-2.932 -47.135,-14.089 -61.918,-68.865 -17.347,-95.979 l 23.811,-8.43 c -26.388,-2.195 -56.115,14.448 -62.997,40.8 -15.249,58.387 41.711,105.634 97.1,94.754 1.988,-1.333 0.755,-8.485 1.363,-11.541 1.21,-6.091 8.313,-12.845 14.974,-10.224 -0.441,2.037 -3.505,1.813 -5.308,3.47 -5.354,4.923 -3.427,13.755 2.551,17.458 2.058,1.275 5.988,1.636 7.179,2.802 0.888,0.868 0.942,3.143 2.065,4.357 C -17.198,0.015 -3.117,3.387 0,0"
       style="fill:#ffd740;fill-opacity:1;fill-rule:nonzero;stroke:none"
       transform="matrix(1.3333333,0,0,-1.3333333,4146.904,1868.4203)"
       clip-path="url(#clipPath67)" />
    <path
       id="path68"
       d="m 0,0 c 1.853,-9.815 -9.427,-10.138 -10.938,-16.63 -0.941,-4.041 1.984,-13.195 1.595,-19.188 -0.908,-13.967 -10.303,-19.33 -23.502,-18.129 1.415,-11.195 -9.447,-20.602 -19.932,-21.116 4.829,10.503 -2.561,22.734 10.548,28.727 -10.999,11.827 -29.215,7.817 -41.87,0.824 -2.461,-1.36 -4.442,-4.697 -6.82,-4.928 -3.146,-0.306 -10.749,2.178 -15.181,2.406 -9.763,0.502 -19.319,-0.189 -28.789,-2.397 0.319,22.53 18.23,34.981 39.249,36.401 14.325,0.968 30.008,-5.186 43.329,2.216 2.853,-0.666 5.404,-11.739 5.503,-14.597 0.104,-3.024 -3.683,-11.566 3.893,-3.978 8.527,8.54 1.123,24.525 20.16,26.784 5.507,0.653 11.223,-2.295 16.072,-0.837 C -4.092,-3.663 -3.22,0.397 0,0"
       style="fill:#ffd740;fill-opacity:1;fill-rule:nonzero;stroke:none"
       transform="matrix(1.3333333,0,0,-1.3333333,4218.8489,1805.8415)"
       clip-path="url(#clipPath69)" />
    <path
       id="path70"
       d="m 0,0 c -0.249,2.185 2.466,0.97 3.756,0.827 12.597,-1.391 25.039,-4.888 37.832,-5.581 95.086,-5.148 191.36,33.828 210.27,135.879 1.891,10.202 2.199,20.85 4.112,31.081 5.93,8.648 10.307,-1.42 10.186,-7.837 -0.087,-4.61 -1.671,-14.566 -2.234,-20.058 C 256.31,60.034 206.005,12.055 135.788,-7.359 90.211,-19.96 44.505,-13.038 0,0"
       style="fill:#ffd740;fill-opacity:1;fill-rule:nonzero;stroke:none"
       transform="matrix(1.3333333,0,0,-1.3333333,4087.4844,2148.3503)"
       clip-path="url(#clipPath71)" />
    <path
       id="path72"
       d="m 0,0 c -5.131,4.544 -9.821,-0.931 -15.541,0.201 -5.818,1.15 -7.869,12.064 -17.897,12.774 -10.434,0.74 -7.439,-4.937 -11.126,-11.791 6.445,-0.902 12.351,-2.23 18.761,-0.016 0.885,-0.851 -5.968,-8.828 -7,-9.997 -16.359,-18.548 -37.083,-28.23 -60.788,-34.23 -40.538,-10.262 -83.307,-10.434 -124.592,-5.041 l 0.002,7.048 c 53.48,-6.417 107.355,7.809 149.575,41.046 1.025,-1.323 0.862,-4.844 0.553,-6.42 -0.994,-5.069 -21.197,-16.61 -26.508,-19.24 -20.473,-10.138 -45.722,-16.295 -68.477,-17.75 -0.272,-2.05 2.66,-1.097 4.088,-1.16 9.903,-0.435 21.599,1.122 31.491,2.54 29.563,4.236 59.79,13.844 77.029,39.678 -14.502,-1.585 -18.961,13.847 -7.614,22.289 11.609,8.638 28.912,4.486 39.162,-4.22 1.931,-1.64 3.669,-5.886 6.007,-6.896 C -8.333,6.854 -0.158,9.306 0,0"
       style="fill:#ffd740;fill-opacity:1;fill-rule:nonzero;stroke:none"
       transform="matrix(1.3333333,0,0,-1.3333333,3945.1279,2490.9007)"
       clip-path="url(#clipPath73)" />
    <path
       id="path74"
       d="m 0,0 c -6.954,-4.168 -10.183,-11.97 -15.208,-17.039 -6.23,-6.284 -17.3,-9.561 -15.279,-21.66 33.911,12.749 34.314,-40.541 1.104,-35.681 -1.432,-10.974 -11.465,-12.363 -17.532,-20.047 l -4.686,-9.957 c -3.446,16.068 -5.13,39.065 8.188,51.038 1.894,4.603 -8.937,-1.072 -9.368,-0.597 C -56.589,-22.214 -31.198,2.031 0,0"
       style="fill:#ffd740;fill-opacity:1;fill-rule:nonzero;stroke:none"
       transform="matrix(1.3333333,0,0,-1.3333333,3604.1735,2362.6621)"
       clip-path="url(#clipPath75)" />
    <path
       id="path76"
       d="m 0,0 c -3.231,14.394 -11.444,23.979 -25.021,29.537 -44.728,18.309 -79.732,-18.995 -77.025,-62.957 0.713,-11.567 6.484,-21.727 10.523,-32.272 -14.875,12.887 -21.593,36.413 -19.912,55.701 1.135,13.028 7.407,25.302 9.378,38.143 l 4.094,-3.498 C -73.402,55.048 -24.652,62.741 1.762,30.513 11.855,18.198 12.504,10.879 0,0"
       style="fill:#ffd740;fill-opacity:1;fill-rule:nonzero;stroke:none"
       transform="matrix(1.3333333,0,0,-1.3333333,4020.236,2268.8001)"
       clip-path="url(#clipPath77)" />
    <path
       id="path78"
       d="m 0,0 c 12.597,-12.602 9.772,-39.517 3.329,-54.693 -11.56,-27.227 -47.681,-47.622 -75.034,-55.176 -4.757,-1.314 -8.614,-3.312 -13.507,-1.139 6.03,4.553 14.728,5.999 21.903,9.167 29.561,13.05 55.523,42.144 49.644,76.451 -14.668,-4.436 -25.458,11.486 -16.946,24.579 C -23.242,10.523 -8.749,8.753 0,0"
       style="fill:#ffd740;fill-opacity:1;fill-rule:nonzero;stroke:none"
       transform="matrix(1.3333333,0,0,-1.3333333,4305.8873,1961.2367)"
       clip-path="url(#clipPath79)" />
    <path
       id="path80"
       d="m 0,0 c -0.189,-2.307 -4.421,-2.278 -6.1,-2.096 -5.727,0.62 -13.784,6.758 -16.414,11.848 -10.693,20.696 14.919,30.7 25.47,43.036 8.35,9.762 17.179,27.53 7.023,38.705 C -4.412,72.36 -28.141,96.828 -9.398,110.892 6.921,123.137 30.934,106.368 33.746,88.299 37.042,67.121 25.659,51.16 9.286,39.419 2.211,34.346 -9.859,30.547 -12.947,21.775 -16.165,12.63 -9.6,1.673 0,0"
       style="fill:#ffd740;fill-opacity:1;fill-rule:nonzero;stroke:none"
       transform="matrix(1.3333333,0,0,-1.3333333,4195.3848,2115.5416)"
       clip-path="url(#clipPath81)" />
    <path
       id="path82"
       d="m 0,0 c 0.731,-1.035 4.374,-2.917 5.845,-2.569 4.267,1.007 3.594,6.224 4.628,7.804 2.065,3.157 18.235,4.63 18.493,-2.062 L 22.981,1.528 c -1.89,-5.002 -0.679,-10.572 -3.147,-15.62 -6.901,-14.117 -29.686,-13.744 -24.888,4.347 -8.642,0.699 -8.871,-7.321 -6.077,-13.707 3.859,-8.819 15.649,-14.169 24.842,-10.923 -2.558,-17.116 -16.692,-38.326 -36.353,-36.353 5.014,15.852 6.044,34.123 -3.716,48.481 -5.197,7.644 -12.987,7.769 -9.57,19.35 3.172,10.753 15.291,14.362 25.321,12.816 C 0.685,8.179 -3.5,4.953 0,0"
       style="fill:#ffd740;fill-opacity:1;fill-rule:nonzero;stroke:none"
       transform="matrix(1.3333333,0,0,-1.3333333,4352.2812,1930.4912)"
       clip-path="url(#clipPath83)" />
    <path
       id="path84"
       d="m 0,0 c -0.794,0.574 -1.608,4.338 -2.614,5.59 23.531,-3.299 47.1,-3.395 70.104,3.224 23.246,6.688 51.981,27.766 60.473,50.967 0.74,2.021 0.485,5.703 1.333,6.879 1.352,1.873 10.272,0.559 11.185,6.417 l -8.532,0.807 c -14.255,11.56 2.317,27.232 16.705,17.882 13.435,-8.731 8.751,-27.654 1.72,-39.146 C 129.394,18.333 70.388,-1.477 32.046,-2.666 27.173,-2.816 2.812,-2.034 0,0"
       style="fill:#ffd740;fill-opacity:1;fill-rule:nonzero;stroke:none"
       transform="matrix(1.3333333,0,0,-1.3333333,3653.0183,2532.7803)"
       clip-path="url(#clipPath85)" />
    <path
       id="path86"
       d="m 0,0 c 0.689,-0.913 -7.071,-5.248 -8.195,-6.451 -7.302,-7.814 -2.154,-16.398 -3.608,-25.718 -0.66,-4.234 -4.061,-6.426 -4.617,-10.038 2.267,0.187 9.94,-2.522 9.34,-5.212 -11.067,-10.111 -11.135,-29.092 -31.017,-25.267 -9.138,1.758 -10.074,17.154 -0.023,17.69 2.038,0.108 7.461,-2.887 6.433,0.439 -2.994,9.687 -22.645,11.521 -31.006,8.759 -9.368,-3.095 -10.588,-14.715 -23.96,-6.83 -0.78,12.3 13.663,23.243 25.063,24.497 7.299,0.802 23.038,-3.172 27.509,-0.54 4.785,2.818 4.005,13.608 5.87,18.774 C -24.358,0.774 -9.691,3.281 0,0"
       style="fill:#ffd740;fill-opacity:1;fill-rule:nonzero;stroke:none"
       transform="matrix(1.3333333,0,0,-1.3333333,4459.722,1740.1615)"
       clip-path="url(#clipPath87)" />
    <path
       id="path88"
       d="m 0,0 c 1.81,-2.042 -0.406,-1.961 -1.698,-2.358 -21.053,-6.469 -21.712,10.753 -29.74,24.33 l -0.223,2.673 5.934,1.909 c -3.168,15.966 5.761,27.884 6.964,42.684 l 10.616,-0.602 c 6.804,12.27 16.617,21.719 30.139,26.122 13.073,4.257 24.837,1.167 37.831,4.974 L 46.98,77.982 C 26.129,78.63 5.029,72.308 -5.626,53.166 -14.755,36.765 -16.671,16.418 -3.561,1.684 -2.445,0.429 -0.155,0.175 0,0"
       style="fill:#ffd740;fill-opacity:1;fill-rule:nonzero;stroke:none"
       transform="matrix(1.3333333,0,0,-1.3333333,4273.5885,1907.5293)"
       clip-path="url(#clipPath89)" />
    <path
       id="path90"
       d="M 0,0 24.866,3.855 C 44.898,7.528 74.162,28.721 68.96,51.941 67.599,58.015 58.835,64.437 56.299,56.307 72.848,52.401 56.654,34.811 46.256,46.836 38.155,56.206 47.081,72.076 58.134,73.813 83.078,77.734 93.156,52.644 85.848,32.026 74.787,0.825 28.817,-9.287 0,0"
       style="fill:#ffd740;fill-opacity:1;fill-rule:nonzero;stroke:none"
       transform="matrix(1.3333333,0,0,-1.3333333,4021.7917,2397.04)"
       clip-path="url(#clipPath91)" />
    <path
       id="path92"
       d="m 0,0 c -1.501,-2.019 -1.768,-5.946 -4.584,-8.911 -4.937,-5.2 -12.952,-6.701 -19.837,-5.985 -2.93,0.304 -6.309,2.358 -8.233,2.271 -4.721,-0.212 -7.426,-6.412 -19.628,-4.333 -8.973,1.529 -7.045,5.242 -10.862,9.078 -1.695,1.705 -4.628,1.442 -6.942,3.615 -6.89,6.47 -7.321,26.087 1.673,31.598 3.403,-17.571 15.158,-27.06 33.344,-24.529 4.5,0.627 10.595,5.227 13,5.293 4.585,0.126 13.677,-5.972 14.662,5.158 -20.08,-5.995 -17.849,19.421 2.879,16.359 1.972,-0.291 3.424,-1.704 5.018,-2.013 3.839,-0.743 11.332,0.843 12.106,-4.402 C 13.497,17.09 8.001,7.926 4.389,3.221 3.171,1.634 0.742,0.999 0,0"
       style="fill:#ffd740;fill-opacity:1;fill-rule:nonzero;stroke:none"
       transform="matrix(1.3333333,0,0,-1.3333333,4405.4645,1879.82)"
       clip-path="url(#clipPath93)" />
    <path
       id="path94"
       d="m 0,0 c 4.344,3.517 5.729,10.102 9.324,13.539 7.168,6.852 19.397,11.788 27.641,20.454 27.877,29.306 31.771,75.94 1.751,105.009 16.75,0.145 27.966,-19.553 31.318,-34.373 C 81.561,53.676 46.323,14.202 0,0"
       style="fill:#ffd740;fill-opacity:1;fill-rule:nonzero;stroke:none"
       transform="matrix(1.3333333,0,0,-1.3333333,3685.5068,2462.7324)"
       clip-path="url(#clipPath95)" />
    <path
       id="path96"
       d="M 0,0 C -19.737,-0.313 -25.815,19.727 -21.734,36.396 -15.922,60.134 9.535,77.753 33.291,66.711 42.927,62.232 50.423,51.067 46.042,40.179 39.652,24.3 13.464,37.568 28.774,51.606 c 1.051,2.349 -4.408,3.367 -5.867,3.54 C -3.826,58.315 -14.786,30.309 -4.908,8.57 -3.381,5.208 -0.731,3.328 0,0"
       style="fill:#ffd740;fill-opacity:1;fill-rule:nonzero;stroke:none"
       transform="matrix(1.3333333,0,0,-1.3333333,4297.0537,1907.4909)"
       clip-path="url(#clipPath97)" />
    <path
       id="path98"
       d="m 0,0 c 5.579,0.737 9.476,-0.906 12.875,-5.285 -9.938,-3.232 -9.217,-17.94 -19.579,-20.28 -8.852,-1.999 -16.833,3.935 -17.949,12.654 -15.872,-7.854 -29.684,-28.341 -14.064,-43.39 -13.042,2.854 -18.608,18.382 -14.317,30.145 8.628,23.65 50.652,31.658 47.169,62.509 C 3.66,32.968 5.906,20.217 4.406,11.416 3.698,7.26 0.622,4.045 0,0"
       style="fill:#ffd740;fill-opacity:1;fill-rule:nonzero;stroke:none"
       transform="matrix(1.3333333,0,0,-1.3333333,4221.9932,1921.568)"
       clip-path="url(#clipPath99)" />
    <path
       id="path100"
       d="m 0,0 c 2.058,-1.702 -7.801,-8.689 -10.559,-7.039 1.303,-11.579 20.584,-22.315 29.361,-12.34 8.668,9.852 -3.342,7.933 -7.412,9.068 -8.163,2.277 -5.803,16.677 5.639,17.428 3.94,0.258 7.035,-2.093 8.192,-2.021 1.104,0.068 5.449,3.79 9.579,3.894 4.265,0.106 8.441,-3.3 13.309,-1.367 1.628,-9.5 -9.551,-9.169 -10.684,-10.682 -1.493,-1.992 0.375,-8.254 -1.125,-12.707 -6.156,-18.272 -38.654,-23.515 -50.856,-7.588 -4.602,6.007 -4.496,14.233 -11.224,18.08 l 4.666,3.515 c -6.042,7.238 -16.067,11.937 -25.342,13.369 -1.368,0.212 -14.361,-0.871 -11.016,2.456 12.076,4.369 25.973,3.149 37.174,-3.278 C -13.468,6.869 -8.777,-1.543 0,0"
       style="fill:#ffd740;fill-opacity:1;fill-rule:nonzero;stroke:none"
       transform="matrix(1.3333333,0,0,-1.3333333,4229.7985,2212.5029)"
       clip-path="url(#clipPath101)" />
    <path
       id="path102"
       d="m 0,0 c -6.709,15.313 -29.087,13.186 -38.046,1.083 -8.337,-11.263 -7.639,-25.365 -1.849,-37.46 -22.096,12.841 -15.453,43.082 4.779,54.472 16.948,9.541 38.016,3.437 47.785,-13.064 5.675,-9.586 5.895,-20.201 17.808,-25.572 0.036,-1.833 -8.872,-4.012 -10.994,-3.981 -3.422,0.05 -8.877,2.963 -10.689,2.957 -1.265,-0.004 -3.929,-1.831 -7.002,-2 C -16.314,-24.559 -17.927,-1.924 0,0"
       style="fill:#ffd740;fill-opacity:1;fill-rule:nonzero;stroke:none"
       transform="matrix(1.3333333,0,0,-1.3333333,4178.1911,2234.3749)"
       clip-path="url(#clipPath103)" />
    <path
       id="path104"
       d="M 0,0 C 1.003,-10.577 8.938,-17.943 14.128,-26.441 5.334,-47.007 4.977,-68.257 12.909,-89.148 -22.451,-75.187 -24.08,-28.599 -2.671,-1.486 -1.928,-0.544 -2.711,0.672 0,0"
       style="fill:#ffd740;fill-opacity:1;fill-rule:nonzero;stroke:none"
       transform="matrix(1.3333333,0,0,-1.3333333,3937.3083,1904.3688)"
       clip-path="url(#clipPath105)" />
    <path
       id="path106"
       d="m 0,0 c 0.948,-1.082 -2.289,-14.246 -2.381,-17.063 -0.107,-3.26 2.39,-7.147 0.667,-9.935 -12.68,-5.585 -25.99,-12.945 -35.809,-22.86 -2.17,-2.19 -11.943,-16.147 -13.456,-15.814 -3.86,0.851 -5.518,12.307 -5.394,15.829 C -55.515,-25.395 -22.129,-3.671 0,0"
       style="fill:#ffd740;fill-opacity:1;fill-rule:nonzero;stroke:none"
       transform="matrix(1.3333333,0,0,-1.3333333,4029.5931,1840.2493)"
       clip-path="url(#clipPath107)" />
    <path
       id="path108"
       d="m 0,0 c -0.589,-2.297 -3.435,-2.772 -4.712,-4.402 -2.44,-3.113 -3.745,-8.391 -6.402,-10.864 -2.819,-2.623 -9.475,-4.71 -13.417,-7.698 -7.541,-5.716 -15.969,-17.731 -17.416,-27.16 -0.679,-4.428 0.645,-11.528 -0.473,-14.777 -0.575,-1.672 -4.096,-2.923 -5.676,-4.882 -2.065,-2.561 -3.572,-6.013 -5.528,-8.489 -0.74,-0.936 0.036,-2.166 -2.663,-1.479 -2.854,6.667 -4.216,11.922 -3.519,19.341 0.368,3.911 2.703,7.788 2.938,10.529 0.951,11.141 -1.78,16.571 5.916,27.53 6.105,8.695 10.393,8.294 18.022,12.478 3.285,1.802 5.589,6.149 10.373,8.396 C -15.193,1.981 -7.811,1.835 0,0"
       style="fill:#ffd740;fill-opacity:1;fill-rule:nonzero;stroke:none"
       transform="matrix(1.3333333,0,0,-1.3333333,3663.6075,2151.5127)"
       clip-path="url(#clipPath109)" />
    <path
       id="path110"
       d="m 0,0 c -1.092,9.733 7.442,16.272 5.87,25.809 l 6.861,-1.067 C 15.103,29.14 33.93,51.699 36.969,51.686 L 54.561,34.032 C 59.473,28.705 59.049,22.785 68.032,25.809 66.461,16.272 74.995,9.732 73.903,0 H 56.307 C 58.202,14.967 46.781,24.637 36.964,33.808 26.167,26.373 15.876,13.83 17.596,0 Z"
       style="fill:#ffd740;fill-opacity:1;fill-rule:nonzero;stroke:none"
       transform="matrix(1.3333333,0,0,-1.3333333,3536.9187,2556.5924)"
       clip-path="url(#clipPath111)" />
    <path
       id="path112"
       d="m 0,0 c 0.744,-33.563 -31.456,-57.377 -59.722,-68.493 -8.073,-3.174 -12.1,-5.159 -11.535,6.266 26.744,12.357 61.676,37.856 51.448,71.724 C -14.057,3.927 -8.049,0.912 0,0"
       style="fill:#ffd740;fill-opacity:1;fill-rule:nonzero;stroke:none"
       transform="matrix(1.3333333,0,0,-1.3333333,4278.1303,2006.1879)"
       clip-path="url(#clipPath113)" />
    <path
       id="path114"
       d="m 0,0 c -34.798,21.886 -36.648,65.226 -16.992,98.531 1.244,-4.279 0.177,-8.789 0.863,-13.203 0.685,-4.409 5.352,-11.372 5.441,-14.313 0.116,-3.841 -3.349,-11.714 -3.415,-16.529 -0.184,-13.498 6.667,-29.294 16.181,-38.782 z"
       style="fill:#ffd740;fill-opacity:1;fill-rule:nonzero;stroke:none"
       transform="matrix(1.3333333,0,0,-1.3333333,3580.6972,2295.3909)"
       clip-path="url(#clipPath115)" />
    <path
       id="path116"
       d="m 0,0 c -17.006,-13.321 -7.595,-36.268 -20.516,-51.615 -10.056,-11.944 -16.56,-4.887 -29.92,-5.847 -1.034,0.888 7.041,9.788 7.998,11.346 6.901,11.247 4.125,17.938 7.808,27.384 C -29.91,-6.624 -11.839,-1.124 0,0"
       style="fill:#ffd740;fill-opacity:1;fill-rule:nonzero;stroke:none"
       transform="matrix(1.3333333,0,0,-1.3333333,3862.2471,2084.2561)"
       clip-path="url(#clipPath117)" />
    <path
       id="path118"
       d="M 0,0 C -0.7,0.601 -4.573,-0.383 -7.537,1.279 -23.622,10.297 -16.311,39.36 6.641,36.557 20.235,34.897 21.227,15.081 5.924,19.453 1.404,20.744 4.605,25.719 -0.367,24.81 -9.691,23.106 -5.797,9.01 1.387,4.333 14.711,-4.34 33.088,6.27 39.091,19.305 L 44.719,37.7 C 49.224,24.491 48.035,10.763 37.741,0.712 29.798,-7.042 9.382,-14.633 1.288,-3.933 0.356,-2.701 0.333,-0.285 0,0"
       style="fill:#ffd740;fill-opacity:1;fill-rule:nonzero;stroke:none"
       transform="matrix(1.3333333,0,0,-1.3333333,3949.6253,2308.1321)"
       clip-path="url(#clipPath119)" />
    <path
       id="path120"
       d="m 0,0 c -9.949,-0.089 -17.878,-10.225 -26.362,-15.293 -36.047,-21.533 -83.486,-11.75 -112.059,17.616 5.422,-1.93 10.088,-6.207 15.226,-8.811 26.584,-13.471 53.214,-15.241 80.582,-3.112 C -30.034,-4.025 -12.188,13.034 0,0"
       style="fill:#ffd740;fill-opacity:1;fill-rule:nonzero;stroke:none"
       transform="matrix(1.3333333,0,0,-1.3333333,4175.0632,2404.8613)"
       clip-path="url(#clipPath121)" />
    <path
       id="path122"
       d="m 0,0 c -0.828,-3.472 -3.212,-5.553 -4.165,-9.313 -1.534,-6.047 -0.531,-15.125 -6.41,-19.398 -4.362,-3.17 -11.749,-2.964 -13.545,2.866 -0.974,3.163 1.629,7.937 -1.072,7.065 -16.253,-5.244 -28.654,-24.227 -30.985,-40.577 -0.494,-3.458 0.292,-7.164 -0.12,-10.456 -0.204,-1.629 -0.703,-3.464 -2.338,-1.739 C -70.904,-31.985 -36.34,-3.391 0,0"
       style="fill:#ffd740;fill-opacity:1;fill-rule:nonzero;stroke:none"
       transform="matrix(1.3333333,0,0,-1.3333333,3924.8028,2174.9655)"
       clip-path="url(#clipPath123)" />
    <path
       id="path124"
       d="m 0,0 c 0.147,-1.991 -2.598,-1.04 -4.148,-2.281 -3.287,-2.632 -6.375,-7.383 -6.392,-11.783 11.94,7.328 22.75,-2.974 17.668,-15.922 -3.13,-7.973 -11.879,-5.937 -13.947,-7.751 -0.722,-0.633 -5.771,-12.702 -11.288,-13.936 l -4.161,-9.306 c -4.16,10.947 -3.563,23.952 4.678,32.826 l -7.032,-1.156 C -25.636,-13.75 -17.465,1.798 0,0"
       style="fill:#ffd740;fill-opacity:1;fill-rule:nonzero;stroke:none"
       transform="matrix(1.3333333,0,0,-1.3333333,3568.1924,2295.4072)"
       clip-path="url(#clipPath125)" />
    <path
       id="path126"
       d="m 0,0 c -23.176,-8.787 -41.695,-28.491 -49.283,-52.139 -1.475,-2.755 -7.843,7.477 -8.487,9.083 -2.657,6.627 8.542,23 13.166,28.407 4.439,5.191 10.542,10.389 16.084,14.416 3.476,2.526 17.884,12.52 21.468,10.242 C -6.535,9.681 0.6,0.784 0,0"
       style="fill:#ffd740;fill-opacity:1;fill-rule:nonzero;stroke:none"
       transform="matrix(1.3333333,0,0,-1.3333333,3755.8857,1977.8611)"
       clip-path="url(#clipPath127)" />
    <path
       id="path128"
       d="m 0,0 c 10.123,-2.298 16.229,-5.219 26.611,-1.379 5.5,2.035 11.462,7.87 16.709,9.099 7.723,1.808 16.343,-1.495 23.533,2.849 C 60.505,-20.639 14.88,-30.843 0,0"
       style="fill:#ffd740;fill-opacity:1;fill-rule:nonzero;stroke:none"
       transform="matrix(1.3333333,0,0,-1.3333333,3948.2719,2334.5088)"
       clip-path="url(#clipPath129)" />
    <path
       id="path130"
       d="m 0,0 -0.725,-2.32 c -21.598,-6.274 -27.314,17.542 -42.288,27.945 -5.3,3.681 -11.894,5.584 -16.801,9.575 5.068,0.832 9.744,6.435 14.772,7.03 13.529,1.603 26.15,-13.548 32.348,-23.824 C -9.016,12.309 -7.223,2.408 0,0"
       style="fill:#ffd740;fill-opacity:1;fill-rule:nonzero;stroke:none"
       transform="matrix(1.3333333,0,0,-1.3333333,4068.694,2240.6784)"
       clip-path="url(#clipPath131)" />
    <path
       id="path132"
       d="M 0,0 C 8.089,16.495 12.445,44.757 -4.324,57.273 -22.642,70.945 -49.311,55.765 -60.999,39.884 -54.196,67.931 -11.873,84.949 7.512,59.725 20.573,42.729 15.706,13.608 0,0"
       style="fill:#ffd740;fill-opacity:1;fill-rule:nonzero;stroke:none"
       transform="matrix(1.3333333,0,0,-1.3333333,3604.1895,2088.932)"
       clip-path="url(#clipPath133)" />
    <path
       id="path134"
       d="m 0,0 c -11.883,-6.126 -22.827,-21.31 -28.37,-33.231 -3.143,-6.759 -4.212,-14.061 -7.407,-20.724 -1.12,0.047 -11.215,16.914 -11.241,19.312 -0.097,9.093 16.38,32.039 25.581,35.537 C -15.405,3.187 -4.91,4.677 0,0"
       style="fill:#ffd740;fill-opacity:1;fill-rule:nonzero;stroke:none"
       transform="matrix(1.3333333,0,0,-1.3333333,3755.8877,2012.2699)"
       clip-path="url(#clipPath135)" />
    <path
       id="path136"
       d="m 0,0 c -16.383,16.996 -42.55,10.183 -53.268,-9.48 -15.348,-28.158 -2.96,-66.258 21.601,-84.958 -2.825,-1.048 -8.003,3.697 -10.566,5.857 -21.319,17.975 -30.226,48.505 -21.145,75.135 6.749,19.792 30.161,33.498 50.464,25.741 C -8.083,10.45 -1.762,5.118 0,0"
       style="fill:#ffd740;fill-opacity:1;fill-rule:nonzero;stroke:none"
       transform="matrix(1.3333333,0,0,-1.3333333,3987.3584,2253.1605)"
       clip-path="url(#clipPath137)" />
    <path
       id="path138"
       d="m 0,0 c -22.925,-7.102 -46.086,8.98 -43.408,33.428 0.937,8.551 7.584,16.353 7.056,25.212 2.222,-0.926 4.304,-2.212 5.874,-4.085 8.117,-9.681 1.972,-14.59 2.249,-24.662 0.241,-8.802 4.596,-18.438 12.366,-22.895 z"
       style="fill:#ffd740;fill-opacity:1;fill-rule:nonzero;stroke:none"
       transform="matrix(1.3333333,0,0,-1.3333333,4178.1897,2009.1477)"
       clip-path="url(#clipPath139)" />
    <path
       id="path140"
       d="M 0,0 C -8.835,8.749 -11.652,13.981 -6.419,25.786 0.364,41.088 15.421,57.866 29.328,66.863 29.221,63.864 26.994,61.858 26.15,58.908 24.638,53.623 24.574,47.964 22.518,42.598 17.439,29.347 0.631,16.573 0,0"
       style="fill:#ffd740;fill-opacity:1;fill-rule:nonzero;stroke:none"
       transform="matrix(1.3333333,0,0,-1.3333333,3769.9496,2190.596)"
       clip-path="url(#clipPath141)" />
    <path
       id="path142"
       d="m 0,0 c -0.396,0.101 -1.797,1.596 -1.759,2.334 22.345,0.184 46.704,13.234 59.627,31.297 5.874,8.21 10.281,25.428 20.713,27.39 2.763,0.52 1.79,-2.165 1.821,-4.165 C 80.773,33.276 41.681,0 19.942,0 15.144,0 3.671,-0.935 0,0"
       style="fill:#ffd740;fill-opacity:1;fill-rule:nonzero;stroke:none"
       transform="matrix(1.3333333,0,0,-1.3333333,4067.9239,2415.8252)"
       clip-path="url(#clipPath143)" />
    <path
       id="path144"
       d="m 0,0 c 5.685,5.463 13.03,8.619 19.386,14.035 7.883,6.718 19.809,25.336 25.239,28.722 4.462,2.783 11.614,2.331 16.362,5.327 C 57.323,34.449 44.296,20.349 33.408,11.743 23.686,4.059 12.857,-3.818 0,0"
       style="fill:#ffd740;fill-opacity:1;fill-rule:nonzero;stroke:none"
       transform="matrix(1.3333333,0,0,-1.3333333,4264.2159,2092.0456)"
       clip-path="url(#clipPath145)" />
    <path
       id="path146"
       d="m 0,0 c -3.368,-16.46 1.353,-31.306 15.24,-41.038 -23.845,6.609 -28.136,29.539 -22.462,51.192 0.455,1.739 7.459,21.381 9.546,19.179 C 3.516,18.882 21.145,13.042 11.221,1.095 Z"
       style="fill:#ffd740;fill-opacity:1;fill-rule:nonzero;stroke:none"
       transform="matrix(1.3333333,0,0,-1.3333333,4062.4616,2304.7861)"
       clip-path="url(#clipPath147)" />
    <path
       id="path148"
       d="m 0,0 c 2.242,-2.299 -5.607,-3.462 -6.922,-4.208 -3.743,-2.124 -8.966,-7.603 -12.677,-8.432 -10.617,-2.372 -25.4,1.686 -36.697,-4.934 C -54.58,0.714 -37.85,5.679 -21.713,4.694 -18.664,4.508 -1.362,1.396 0,0"
       style="fill:#ffd740;fill-opacity:1;fill-rule:nonzero;stroke:none"
       transform="matrix(1.3333333,0,0,-1.3333333,4006.1384,2173.4151)"
       clip-path="url(#clipPath149)" />
    <path
       id="path150"
       d="M 0,0 C 37.257,-1.874 75.854,9.279 103.212,35.198 91.347,7.408 55.737,-4.39 27.61,-5.908 20.347,-6.3 2.199,-8.066 0,0"
       style="fill:#ffd740;fill-opacity:1;fill-rule:nonzero;stroke:none"
       transform="matrix(1.3333333,0,0,-1.3333333,3643.2839,2512.8067)"
       clip-path="url(#clipPath151)" />
    <path
       id="path152"
       d="M 0,0 C -13.969,5.569 -30.986,3.754 -44.875,-1.46 -50.599,-3.608 -55.272,-7.581 -60.986,-9.384 -60.387,18.868 -27.937,22.682 -8.31,8.688 -7.035,7.779 1.5,1.419 0,0"
       style="fill:#ffd740;fill-opacity:1;fill-rule:nonzero;stroke:none"
       transform="matrix(1.3333333,0,0,-1.3333333,3690.1897,2132.7195)"
       clip-path="url(#clipPath153)" />
    <path
       id="path154"
       d="m 0,0 c -7.155,4.943 -6.782,15.462 -3.313,22.679 6.641,13.813 25.491,17.692 35.584,27.738 2.317,-1.652 1.863,-4.056 1.828,-6.442 C 33.879,28.91 23.046,28.941 13.537,21.079 7.06,15.724 1.092,8.664 0,0"
       style="fill:#ffd740;fill-opacity:1;fill-rule:nonzero;stroke:none"
       transform="matrix(1.3333333,0,0,-1.3333333,4101.5348,2239.0827)"
       clip-path="url(#clipPath155)" />
    <path
       id="path156"
       d="m 0,0 c 1.938,-2.067 -0.722,-1.963 -1.658,-2.435 -2.328,-1.173 -4.814,-1.307 -7.148,-3.398 -7.716,-6.912 -10.151,-22.458 -14.059,-31.681 -2.382,4.152 -11.788,14.185 -12.325,18.262 -1.167,8.861 6.517,23.823 17.016,24.055 C -15.266,4.868 -1.471,1.569 0,0"
       style="fill:#ffd740;fill-opacity:1;fill-rule:nonzero;stroke:none"
       transform="matrix(1.3333333,0,0,-1.3333333,3824.7028,2176.5456)"
       clip-path="url(#clipPath157)" />
    <path
       id="path158"
       d="M 0,0 -4.645,15.933 -23.468,11.737 C -20.438,34.214 3.86,24.527 18.746,30.499 17.113,15.743 13.597,6.917 0,0"
       style="fill:#ffd740;fill-opacity:1;fill-rule:nonzero;stroke:none"
       transform="matrix(1.3333333,0,0,-1.3333333,4182.8995,2314.1595)"
       clip-path="url(#clipPath159)" />
    <path
       id="path160"
       d="m 0,0 c -3.565,-6.757 -2.219,-18.606 -5.364,-24.538 -2.397,-4.523 -11.554,-13.172 -15.518,-19.669 -0.939,-1.541 -2.862,-9.283 -4.901,-7.396 -1.014,0.938 -3.626,11.389 -3.623,13.486 0.011,6.887 4.15,15.735 8.324,21.086 C -19.27,-14.709 -1.983,2.108 0,0"
       style="fill:#ffd740;fill-opacity:1;fill-rule:nonzero;stroke:none"
       transform="matrix(1.3333333,0,0,-1.3333333,3604.1667,2121.7868)"
       clip-path="url(#clipPath161)" />
    <path
       id="path162"
       d="m 0,0 c 5.312,-18.37 -5.521,-35.619 -24.626,-37.523 1.919,2.824 7.852,7.733 5.65,11.505 -1.17,2.005 -6.65,1.039 -5.622,8.907 1.048,8.014 10.335,8.733 15.686,11.371 C -5.31,-3.963 -3.658,-0.754 0,0"
       style="fill:#ffd740;fill-opacity:1;fill-rule:nonzero;stroke:none"
       transform="matrix(1.3333333,0,0,-1.3333333,3663.5983,2381.4199)"
       clip-path="url(#clipPath163)" />
    <path
       id="path164"
       d="m 0,0 c -0.095,-19.408 -17.397,-25.369 -29.334,-35.759 -5.413,-4.711 -9.436,-10.465 -14.051,-15.849 -8.177,24.87 15.059,27.076 29.216,38.222 z"
       style="fill:#ffd740;fill-opacity:1;fill-rule:nonzero;stroke:none"
       transform="matrix(1.3333333,0,0,-1.3333333,4206.3365,1876.2252)"
       clip-path="url(#clipPath165)" />
    <path
       id="path166"
       d="m 0,0 c -12.009,11.404 -25.184,-4.69 -36.952,5.852 -2.818,2.524 -4.183,7.586 -7.593,9.985 C -30.11,31.348 -6.072,16.418 0,0"
       style="fill:#ffd740;fill-opacity:1;fill-rule:nonzero;stroke:none"
       transform="matrix(1.3333333,0,0,-1.3333333,3757.4385,2273.4935)"
       clip-path="url(#clipPath167)" />
    <path
       id="path168"
       d="m 0,0 c -18.921,-3.725 -36.099,-12.949 -54.89,-17.264 -12.475,-2.865 -25.029,-4.097 -37.775,-5.03 -0.572,3.532 0.867,1.882 2.844,2.371 18.788,4.648 33.663,7.532 51.902,15.014 C -25.055,0.369 -14.116,11.278 0,0"
       style="fill:#ffd740;fill-opacity:1;fill-rule:nonzero;stroke:none"
       transform="matrix(1.3333333,0,0,-1.3333333,4279.8548,2104.5567)"
       clip-path="url(#clipPath169)" />
    <path
       id="path170"
       d="m 0,0 c 0.525,3.067 2.835,5.178 4.081,8.225 6.014,14.719 7.607,32.44 1.797,47.507 C 4.079,60.396 1.009,63.509 -0.581,68.043 16.876,54.498 22.504,26.507 15.78,5.91 Z"
       style="fill:#ffd740;fill-opacity:1;fill-rule:nonzero;stroke:none"
       transform="matrix(1.3333333,0,0,-1.3333333,3619.8225,2085.7963)"
       clip-path="url(#clipPath171)" />
    <path
       id="path172"
       d="m 0,0 c 5.146,5.054 5.588,15.274 9.911,19.99 4.37,4.767 15.739,7.409 20.574,12.841 C 36.1,12.96 19.463,-2.172 0,0"
       style="fill:#ffd740;fill-opacity:1;fill-rule:nonzero;stroke:none"
       transform="matrix(1.3333333,0,0,-1.3333333,3660.4815,2439.2708)"
       clip-path="url(#clipPath173)" />
    <path
       id="path174"
       d="m 0,0 c -0.363,-3.014 -2.651,-4.619 -3.243,-7.889 -0.552,-3.042 0.131,-6.164 -0.391,-8.994 -2.673,-14.498 -8.808,-22.194 -24.505,-20.64 0.501,3.487 3.601,4.822 5.281,8.192 C -16.536,-16.645 -21.669,-0.453 0,0"
       style="fill:#ffd740;fill-opacity:1;fill-rule:nonzero;stroke:none"
       transform="matrix(1.3333333,0,0,-1.3333333,4048.3645,2265.6816)"
       clip-path="url(#clipPath175)" />
    <path
       id="path176"
       d="m 0,0 c -2.533,-12.804 -15.865,-8.514 -25.19,-9.403 -12.902,-1.23 -24.372,-7.852 -34.613,-15.23 -1.458,7.418 2.322,10.974 7.815,15.048 7.028,5.212 19.287,9.331 28.002,9.601 C -16.354,0.253 -7.621,-3.325 0,0"
       style="fill:#ffd740;fill-opacity:1;fill-rule:nonzero;stroke:none"
       transform="matrix(1.3333333,0,0,-1.3333333,3932.6156,2109.2667)"
       clip-path="url(#clipPath177)" />
    <path
       id="path178"
       d="M 0,0 C 3.158,-7.601 3.099,-15.24 0.984,-23.168 L -23.4,-32.8 C -23.872,-18.521 -14.944,-2.18 0,0"
       style="fill:#ffd740;fill-opacity:1;fill-rule:nonzero;stroke:none"
       transform="matrix(1.3333333,0,0,-1.3333333,3647.8955,2185.9589)"
       clip-path="url(#clipPath179)" />
    <path
       id="path180"
       d="m 0,0 c -2.15,0.663 -2.828,3.27 -3.715,5.071 -3.742,7.596 -7.534,18.947 -10.372,27.165 -10.941,31.678 -19.609,65.492 -21.081,99.14 z"
       style="fill:#ffd740;fill-opacity:1;fill-rule:nonzero;stroke:none"
       transform="matrix(1.3333333,0,0,-1.3333333,3613.5433,1890.2936)"
       clip-path="url(#clipPath181)" />
    <path
       id="path182"
       d="m 0,0 c -1.97,-3.818 -9.076,-6.812 -13.07,-6.399 -6.209,0.641 -12.6,12.741 -22.14,16.364 -7.259,2.756 -13.493,3.224 -21.091,2.358 9.984,9.753 26.701,9.386 37.427,1.073 C -12.592,8.527 -9.593,-1.209 0,0"
       style="fill:#ffd740;fill-opacity:1;fill-rule:nonzero;stroke:none"
       transform="matrix(1.3333333,0,0,-1.3333333,3951.3997,2461.1989)"
       clip-path="url(#clipPath183)" />
    <path
       id="path184"
       d="m 0,0 c -4.08,-11.554 -9.665,-7.987 -18.551,-10.175 -14.083,-3.469 -23.955,-19.696 -16.64,-33.204 -2.266,-1.83 -5.805,5.387 -6.42,7.059 C -50.557,-12.014 -20.73,4.384 0,0"
       style="fill:#ffd740;fill-opacity:1;fill-rule:nonzero;stroke:none"
       transform="matrix(1.3333333,0,0,-1.3333333,4303.3164,1915.3365)"
       clip-path="url(#clipPath185)" />
    <path
       id="path186"
       d="M 0,0 H -25.807 C -27.3,10.8 -19.993,18.36 -13.365,25.758 -4.594,20.413 1.793,10.534 0,0"
       style="fill:#ffd740;fill-opacity:1;fill-rule:nonzero;stroke:none"
       transform="matrix(1.3333333,0,0,-1.3333333,3602.61,2556.5924)"
       clip-path="url(#clipPath187)" />
    <path
       id="path188"
       d="M 0,0 -4.705,-13.465 C -24.258,-17.486 -42.243,-25.458 -55.118,-41.049 -47.546,-16.344 -21.889,-8.17 0,0"
       style="fill:#ffd740;fill-opacity:1;fill-rule:nonzero;stroke:none"
       transform="matrix(1.3333333,0,0,-1.3333333,3643.2699,2085.8144)"
       clip-path="url(#clipPath189)" />
    <path
       id="path190"
       d="m 0,0 c -21.004,7.205 -42.405,-2.446 -54.935,-19.566 -2.01,-2.746 -2.996,-5.737 -4.605,-8.26 -0.742,-1.164 0.114,-2.095 -2.625,-1.506 -0.827,2.593 0.953,5.841 0.863,7.878 -0.107,2.4 -2.508,2.166 -1.18,5.808 2.039,5.586 12.114,14.058 17.465,16.662 C -32.42,7.148 -11.538,9.287 0,0"
       style="fill:#ffd740;fill-opacity:1;fill-rule:nonzero;stroke:none"
       transform="matrix(1.3333333,0,0,-1.3333333,3599.4811,1985.6881)"
       clip-path="url(#clipPath191)" />
    <path
       id="path192"
       d="m 0,0 c -5.546,-0.69 -14.409,-4.611 -18.775,-8.205 -0.874,-0.187 -0.787,1.195 -0.567,1.734 2.044,5.009 18.651,20.683 24.052,20.497 C 10.984,9.66 20.42,7.17 26.355,2.893 28.732,1.181 25.787,0 24.634,0 17.158,0 7.039,0.876 0,0"
       style="fill:#ffd740;fill-opacity:1;fill-rule:nonzero;stroke:none"
       transform="matrix(1.3333333,0,0,-1.3333333,3884.9264,2101.4453)"
       clip-path="url(#clipPath193)" />
    <path
       id="path194"
       d="M 0,0 C 5.045,-12.926 1.724,-19.837 -11.667,-23.417 -19.778,-9.458 -16.675,-1.492 0,0"
       style="fill:#ffd740;fill-opacity:1;fill-rule:nonzero;stroke:none"
       transform="matrix(1.3333333,0,0,-1.3333333,4171.8704,2301.7067)"
       clip-path="url(#clipPath195)" />
    <path
       id="path196"
       d="M 0,0 C -8.838,-11.764 1.299,-31.417 -17.589,-35.174 -14.194,-21.117 -19.245,-2.386 0,0"
       style="fill:#ffd740;fill-opacity:1;fill-rule:nonzero;stroke:none"
       transform="matrix(1.3333333,0,0,-1.3333333,4204.7805,2311.0479)"
       clip-path="url(#clipPath197)" />
    <path
       id="path198"
       d="m 0,0 c -0.87,-15.518 -16.791,-21.481 -30.492,-19.926 4.925,3.611 10.132,12.337 14.836,15.065 C -11.333,-2.354 -4.796,-1.778 0,0"
       style="fill:#ffd740;fill-opacity:1;fill-rule:nonzero;stroke:none"
       transform="matrix(1.3333333,0,0,-1.3333333,3687.0605,2442.4209)"
       clip-path="url(#clipPath199)" />
    <path
       id="path200"
       d="M 0,0 C -10.686,-8.878 -14.178,-26.33 -31.672,-23.438 -22.204,-12.903 -17.449,2.921 0,0"
       style="fill:#ffd740;fill-opacity:1;fill-rule:nonzero;stroke:none"
       transform="matrix(1.3333333,0,0,-1.3333333,4200.0883,2361.098)"
       clip-path="url(#clipPath201)" />
    <path
       id="path202"
       d="M 0,0 2.569,-6.805 -51.393,-18.536 Z"
       style="fill:#ffd740;fill-opacity:1;fill-rule:nonzero;stroke:none"
       transform="matrix(1.3333333,0,0,-1.3333333,4157.5632,2101.7409)"
       clip-path="url(#clipPath203)" />
    <path
       id="path204"
       d="M 0,0 C -15.344,4.678 -15.368,15.507 -16.406,29.32 -3.188,29.428 -5.469,18.086 -3.179,9.126 -2.376,5.987 0.414,3.55 0,0"
       style="fill:#ffd740;fill-opacity:1;fill-rule:nonzero;stroke:none"
       transform="matrix(1.3333333,0,0,-1.3333333,4106.2279,2278.1861)"
       clip-path="url(#clipPath205)" />
    <path
       id="path206"
       d="m 0,0 c -9.886,-5.014 -19.557,0.082 -29.315,-2.356 -0.75,2.732 0.665,1.969 1.486,2.683 2.831,2.462 14.788,9.956 18.093,9.991 C -7.413,9.944 1.099,1.479 0,0"
       style="fill:#ffd740;fill-opacity:1;fill-rule:nonzero;stroke:none"
       transform="matrix(1.3333333,0,0,-1.3333333,3774.6549,1996.6332)"
       clip-path="url(#clipPath207)" />
    <path
       id="path208"
       d="m 0,0 c 0.825,9.115 11.249,9.864 18.378,13.869 5.053,2.84 9.332,6.875 14.45,9.586 C 33.449,22.711 28.471,12.47 26.947,11.165 24.504,9.073 1.372,-1.312 0,0"
       style="fill:#ffd740;fill-opacity:1;fill-rule:nonzero;stroke:none"
       transform="matrix(1.3333333,0,0,-1.3333333,4115.6361,2106.1292)"
       clip-path="url(#clipPath209)" />
    <path
       id="path210"
       d="m 0,0 c 0.86,-3.643 -2.412,-1.785 -4.634,-2.943 -4.51,-2.35 -3.413,-7.581 -5.046,-9.646 -1.22,-1.544 -8.272,-2.655 -10.244,-4.988 C -25.038,-2.761 -13.423,5.594 0,0"
       style="fill:#ffd740;fill-opacity:1;fill-rule:nonzero;stroke:none"
       transform="matrix(1.3333333,0,0,-1.3333333,3632.3229,2378.3092)"
       clip-path="url(#clipPath211)" />
    <path
       id="path212"
       d="m 0,0 c -2.343,-6.441 -7.823,-8.387 -13.82,-10.215 -14.301,-4.36 -32.225,-5.962 -47.173,-6.184 l 34.266,7.36 z"
       style="fill:#ffd740;fill-opacity:1;fill-rule:nonzero;stroke:none"
       transform="matrix(1.3333333,0,0,-1.3333333,4110.9352,2101.4607)"
       clip-path="url(#clipPath213)" />
    <path
       id="path214"
       d="m 0,0 c -5.026,-7.991 -15.586,-5.064 -22.673,-10.742 l -7.812,-9.18 C -30.397,-5.214 -13.127,4.168 0,0"
       style="fill:#ffd740;fill-opacity:1;fill-rule:nonzero;stroke:none"
       transform="matrix(1.3333333,0,0,-1.3333333,4298.6217,1935.6716)"
       clip-path="url(#clipPath215)" />
    <path
       id="path216"
       d="m 0,0 -49.26,-9.386 c -0.279,1.687 2.068,1.64 3.275,1.974 7.237,2.004 15.519,3.309 23.02,5.145 C -16.322,-0.642 -3.906,6.327 0,0"
       style="fill:#ffd740;fill-opacity:1;fill-rule:nonzero;stroke:none"
       transform="matrix(1.3333333,0,0,-1.3333333,4173.4973,2120.1972)"
       clip-path="url(#clipPath217)" />
    <path
       id="path218"
       d="m 0,0 -25.822,14.649 -1.225,3.466 -0.539,1536.171 c -4.77,3.967 -8.768,10.687 -8.771,17.028 -0.003,4.812 4.262,10.851 4.26,12.904 -0.005,5.684 -5.268,7.056 -2.74,19.595 4.083,20.263 12.535,47.843 19.001,67.796 0.529,1.632 1.013,5.603 2.92,5.861 L 8.21,1599.445 c 2.13,-5.042 -3.446,-11.84 -3.435,-15.229 0.006,-2.04 2.73,-6.465 3.14,-9.7 C 9.471,1562.23 0,1554.874 0,1553.718 Z"
       style="fill:#ffffff;fill-opacity:1;fill-rule:nonzero;stroke:none"
       transform="matrix(1.3333333,0,0,-1.3333333,3521.2777,3543.1919)"
       clip-path="url(#clipPath219)" />
  </g>
</svg>
