<?xml version="1.0" encoding="UTF-8" standalone="no"?>
<!-- Created with Inkscape (http://www.inkscape.org/) -->

<svg
   xmlns:dc="http://purl.org/dc/elements/1.1/"
   xmlns:cc="http://creativecommons.org/ns#"
   xmlns:rdf="http://www.w3.org/1999/02/22-rdf-syntax-ns#"
   xmlns:svg="http://www.w3.org/2000/svg"
   xmlns="http://www.w3.org/2000/svg"
   xmlns:sodipodi="http://sodipodi.sourceforge.net/DTD/sodipodi-0.dtd"
   xmlns:inkscape="http://www.inkscape.org/namespaces/inkscape"
   id="svg2"
   sodipodi:version="0.32"
   inkscape:version="0.48.4 r9939"
   width="300"
   height="500"
   version="1.0"
   sodipodi:docname="Flag_of_Centar_Municipality,_Macedonia.svg"
   inkscape:output_extension="org.inkscape.output.svg.inkscape">
  <metadata
     id="metadata7">
    <rdf:RDF>
      <cc:Work
         rdf:about="">
        <dc:format>image/svg+xml</dc:format>
        <dc:type
           rdf:resource="http://purl.org/dc/dcmitype/StillImage" />
      </cc:Work>
    </rdf:RDF>
  </metadata>
  <defs
     id="defs5">
    <inkscape:perspective
       sodipodi:type="inkscape:persp3d"
       inkscape:vp_x="0 : 526.18109 : 1"
       inkscape:vp_y="0 : 1000 : 0"
       inkscape:vp_z="744.09448 : 526.18109 : 1"
       inkscape:persp3d-origin="372.04724 : 350.78739 : 1"
       id="perspective9" />
    <inkscape:perspective
       id="perspective2464"
       inkscape:persp3d-origin="372.04724 : 350.78739 : 1"
       inkscape:vp_z="744.09448 : 526.18109 : 1"
       inkscape:vp_y="0 : 1000 : 0"
       inkscape:vp_x="0 : 526.18109 : 1"
       sodipodi:type="inkscape:persp3d" />
    <inkscape:perspective
       id="perspective2535"
       inkscape:persp3d-origin="372.04724 : 350.78739 : 1"
       inkscape:vp_z="744.09448 : 526.18109 : 1"
       inkscape:vp_y="0 : 1000 : 0"
       inkscape:vp_x="0 : 526.18109 : 1"
       sodipodi:type="inkscape:persp3d" />
    <inkscape:perspective
       id="perspective2466"
       inkscape:persp3d-origin="372.04724 : 350.78739 : 1"
       inkscape:vp_z="744.09448 : 526.18109 : 1"
       inkscape:vp_y="0 : 1000 : 0"
       inkscape:vp_x="0 : 526.18109 : 1"
       sodipodi:type="inkscape:persp3d" />
  </defs>
  <sodipodi:namedview
     inkscape:window-height="738"
     inkscape:window-width="1278"
     inkscape:pageshadow="2"
     inkscape:pageopacity="0.0"
     guidetolerance="10.0"
     gridtolerance="10.0"
     objecttolerance="10.0"
     borderopacity="1.0"
     bordercolor="#666666"
     pagecolor="#ffffff"
     id="base"
     showgrid="false"
     inkscape:zoom="0.21321518"
     inkscape:cx="311.87233"
     inkscape:cy="498.95498"
     inkscape:window-x="0"
     inkscape:window-y="24"
     inkscape:current-layer="svg2"
     showguides="true"
     inkscape:guide-bbox="true"
     inkscape:window-maximized="0">
    <sodipodi:guide
       position="0,0"
       orientation="0,300"
       id="guide2992" />
    <sodipodi:guide
       position="300,0"
       orientation="-500,0"
       id="guide2994" />
    <sodipodi:guide
       position="300,500"
       orientation="0,-300"
       id="guide2996" />
    <sodipodi:guide
       position="0,500"
       orientation="500,0"
       id="guide2998" />
  </sodipodi:namedview>
  <rect
     style="fill:#eb4a5a;fill-opacity:1;fill-rule:evenodd;stroke:#eb4a5a;stroke-width:0;stroke-linecap:round;stroke-linejoin:round;stroke-miterlimit:40;stroke-opacity:1;stroke-dasharray:none"
     id="rect2385"
     width="300.71548"
     height="500.56885"
     x="-0.48609179"
     y="-0.37409607" />
  <g
     id="g3000"
     transform="matrix(0.52627689,0,0,0.51024905,-483.62724,336.60754)">
    <g
       transform="translate(717.2152,-587.32494)"
       id="g2387">
      <path
         inkscape:connector-curvature="0"
         style="fill:#eb4a5a;fill-opacity:1;fill-rule:evenodd;stroke:#eb4a5a;stroke-width:4.37154579;stroke-linecap:round;stroke-linejoin:round;stroke-miterlimit:40;stroke-opacity:1;stroke-dasharray:none"
         d="m 481.08009,530.20519 c -1.37979,-0.79042 -6.44441,-3.63576 -11.25474,-6.32301 -4.81034,-2.68722 -10.48739,-6.19583 -12.61568,-7.79688 -2.12833,-1.60103 -4.26269,-2.91098 -4.74313,-2.91098 -0.78491,0 -14.24341,-9.61263 -15.77251,-11.26544 -0.3439,-0.37169 -4.8458,-4.08736 -10.00422,-8.257 -10.9064,-8.81583 -30.74163,-29.72034 -38.00436,-40.05309 -2.77021,-3.94121 -5.38968,-7.44649 -5.82108,-7.78956 -3.33165,-2.64948 -22.14751,-37.15235 -26.19213,-48.02882 -0.51028,-1.37224 -1.5378,-3.89844 -2.28336,-5.61375 -1.85269,-4.26263 -7.82537,-23.33198 -8.98669,-28.69254 -3.25971,-15.04674 -4.88782,-24.05992 -5.63342,-31.18754 -0.80326,-7.67911 -0.8272,-138.31163 -0.0277,-151.57144 0.20683,-3.43064 0.44051,-14.24915 0.51926,-24.04116 l 0.14319,-17.80365 3.43894,-1.37606 c 1.89143,-0.75686 4.56442,-1.84654 5.93999,-2.4215 9.55007,-3.99179 34.79187,-10.91404 49.39581,-13.54622 4.47063,-0.80579 10.09799,-1.9652 12.50527,-2.57649 2.40726,-0.61131 6.90915,-1.41348 10.00421,-1.78259 3.09504,-0.36911 12.09884,-1.61162 20.00843,-2.76113 15.30431,-2.22423 78.1183,-3.09776 88.16212,-1.22605 2.75115,0.5127 8.94125,1.4265 13.75578,2.0307 8.74636,1.09763 18.08054,2.75035 27.51162,4.87127 2.75111,0.61871 8.04206,1.74457 11.75768,2.50193 13.10018,2.67029 45.20708,14.11876 48.20505,15.20858 0.81816,0.29742 2.24327,1.02659 3.41542,1.13106 2.11329,0.18834 2.19568,4.29874 1.55877,90.75575 -0.72741,98.73484 -1.20828,106.65849 -8.08112,133.17079 -4.94457,19.07389 -7.92056,27.895 -13.04554,38.66875 -2.43024,5.10899 -4.41866,9.67772 -4.41866,10.1527 0,1.43943 -13.81913,25.64628 -15.72789,27.55044 -0.97871,0.97636 -1.77954,2.25636 -1.77954,2.84446 0,0.58812 -0.72191,1.81111 -1.6043,2.71777 -0.88238,0.90666 -2.95195,3.6133 -4.59907,6.01474 -6.90182,10.06256 -38.74181,43.60488 -41.43474,43.65009 -0.40884,0.007 -2.37844,1.43737 -4.37686,3.17891 -10.44091,9.09892 -52.45977,34.56894 -56.31589,34.1363 -0.59959,-0.0673 -2.21912,-0.76899 -3.59888,-1.55938 l 0,4e-5 z m 11.53073,-89.53634 c 14.11027,-7.90608 22.59861,-16.1998 27.49125,-26.86086 2.29476,-5.00035 4.26395,-7.32706 7.67219,-9.06523 8.72834,-4.45136 18.9661,-18.703 18.9661,-26.40205 0,-2.95546 0.14962,-2.95423 6.77425,0.0563 9.44502,4.29233 19.48682,17.16662 19.48682,24.98356 0,8.22264 12.46885,-6.22083 14.44587,-16.73352 0.531,-2.82372 1.54588,-4.46042 2.76572,-4.46042 3.19505,0 15.19829,12.89294 16.07519,17.26672 1.01627,5.06926 3.16953,5.02314 5.30022,-0.11356 0.92497,-2.22991 2.5291,-5.94932 3.56474,-8.26535 5.01061,-11.20533 12.0459,-42.14604 14.21664,-62.52344 2.14488,-20.13404 2.60704,-52.29127 2.43261,-169.21039 l -0.0263,-17.63199 -6.56527,-2.5547 c -3.61085,-1.40507 -7.97208,-2.90899 -9.69156,-3.34205 -1.71948,-0.43306 -4.25179,-1.25654 -5.62742,-1.82998 -14.76913,-6.15676 -53.76963,-14.29106 -84.41051,-17.60545 -14.62481,-1.58195 -66.26015,-0.82626 -80.65896,1.18042 -4.81453,0.67097 -12.97422,1.79354 -18.13264,2.49459 -12.52756,1.70251 -42.27149,8.10972 -53.14738,11.44861 -4.81452,1.47805 -11.38016,3.3324 -14.59031,4.12077 -3.21013,0.78837 -6.08169,2.12882 -6.77369,2.36819 -6.73722,2.33047 -8.12163,2.75113 -3.07656,0.9348 1.10522,-0.39791 -2.71778,0.70172 -3.42454,1.55937 -1.63306,1.98174 -2.55979,30.68441 -3.47392,107.59702 -0.73728,62.034 -0.35973,70.64596 4.34801,99.17638 2.67341,16.20178 9.11565,37.88989 14.80372,49.83736 3.09012,6.49068 3.29041,6.66015 4.42292,3.7425 2.7757,-7.15099 4.28311,-9.5354 9.08546,-14.3716 2.78995,-2.80961 6.2922,-5.42656 7.78272,-5.81539 2.32128,-0.60557 2.83264,-0.0539 3.56461,3.84573 1.0804,5.75587 3.7991,12.3013 6.94295,16.71585 2.48731,3.49264 4.7739,4.50069 4.7739,2.1046 0,-2.83008 6.79241,-14.96862 10.48357,-18.7349 2.13608,-2.1795 6.89281,-5.38402 10.57062,-7.12118 7.13726,-3.37114 8.86069,-2.82224 8.96677,2.85583 0.12983,6.94947 12.17793,22.86932 18.92391,25.00523 1.24813,0.39518 4.35934,4.68618 6.9138,9.53554 2.55446,4.84937 6.71032,10.80499 9.23528,13.2347 4.89342,4.70882 20.79831,15.0328 23.34277,15.15195 0.83879,0.0393 3.64969,-1.119 6.24638,-2.57397 l 2e-5,0 z"
         id="path2472"
         sodipodi:nodetypes="csssssssssssscccsssssssssssssssssssssscccssssssssssscccsssssssssssssssssssssssssscc" />
      <path
         inkscape:connector-curvature="0"
         style="fill:#eb4a5a;fill-opacity:1;fill-rule:evenodd;stroke:#eb4a5a;stroke-width:4.37154579;stroke-linecap:round;stroke-linejoin:round;stroke-miterlimit:40;stroke-opacity:1;stroke-dasharray:none"
         d="m 476.00342,414.30981 c -8.83798,-10.44423 -10.22899,-21.4907 -4.35427,-34.57819 1.99205,-4.43783 3.28319,-8.61553 2.86916,-9.28382 -0.41406,-0.66827 -1.35623,-0.1249 -2.09378,1.2075 -1.15136,2.07986 -6.02902,7.08895 -14.78418,15.18237 -2.04393,1.88945 -2.18843,1.80425 -2.18843,-1.29024 0,-2.57799 -0.76317,-3.50075 -3.43894,-4.15812 -7.79766,-1.91568 -12.81789,-7.93086 -12.81789,-15.35824 0,-2.09243 0.26403,-3.80446 0.58675,-3.80446 0.32267,0 2.88139,1.19315 5.68595,2.65143 8.93729,4.6471 20.26461,0.58383 23.82285,-8.54562 2.54015,-6.51724 5.69946,-41.3368 4.38494,-48.32692 -0.82161,-4.36907 -1.0431,-4.54154 -4.85283,-3.7789 -2.72154,0.54483 -6.87699,3.72459 -13.05819,9.99235 -8.58012,8.70025 -9.06631,9.49809 -9.06631,14.87794 0,3.12656 -0.56275,5.68469 -1.25053,5.68469 -0.68779,0 -1.25632,-2.66654 -1.26339,-5.92563 -0.0118,-5.39701 -0.56951,-6.50858 -6.25263,-12.46008 -3.43192,-3.59394 -6.23978,-6.82185 -6.23978,-7.17313 0,-2.09063 3.83168,0.13461 9.1037,5.28694 l 6.06329,5.92563 3.19752,-3.74249 c 1.75865,-2.05839 5.38027,-6.09539 8.04809,-8.97112 4.1398,-4.4624 4.85056,-6.05186 4.85056,-10.84657 0,-5.12039 -0.58146,-6.19349 -6.56525,-12.11616 -6.52113,-6.45448 -17.38726,-13.96527 -32.30929,-22.33248 -18.82935,-10.55817 -35.63588,-31.21095 -45.98439,-56.50815 -1.96334,-4.79952 -1.86002,-4.95973 1.69892,-2.63346 4.08895,2.67271 3.94584,1.52354 -1.04003,-8.35073 -2.28728,-4.52981 -4.8056,-10.70493 -5.59631,-13.72251 -3.37685,-12.88716 -2.5981,-18.15448 1.54845,-10.47343 2.13485,3.9546 5.33615,6.40259 6.65382,5.0881 0.32051,-0.31973 -0.60415,-2.24405 -2.05478,-4.27632 -1.45058,-2.03226 -2.63746,-4.55765 -2.63746,-5.61196 0,-1.05432 -0.5054,-2.22852 -1.12312,-2.60937 -1.76299,-1.08696 -3.05312,-17.63292 -1.5791,-20.25256 1.2247,-2.17648 1.32706,-2.16666 2.23403,0.21398 0.83594,2.19419 4.69729,8.72222 9.53252,16.1158 2.51443,3.84481 13.41515,15.969 18.31458,20.37012 2.48022,2.22797 9.0114,6.99126 14.51373,10.58507 5.50231,3.59382 10.28558,6.85298 10.62947,7.24258 0.34389,0.38965 2.83661,2.36285 5.53935,4.38495 2.70271,2.02211 7.88584,7.26752 11.51799,11.65647 6.2317,7.53013 6.59933,8.36295 6.52254,14.77606 -0.0723,6.03725 0.37432,7.26517 3.99947,10.99633 4.54603,4.67896 11.76914,8.5618 14.19777,7.63209 2.11967,-0.81144 5.55431,-21.7581 5.26639,-32.11812 -0.19131,-6.88366 -0.87342,-9.20235 -4.25251,-14.45549 -4.06374,-6.31742 -5.28741,-9.66822 -2.52405,-6.91155 4.40393,4.39331 4.63125,-0.84518 0.3601,-8.29845 -4.24161,-7.40165 -3.937,-7.7328 1.89086,-2.0558 2.75115,2.67993 5.0021,5.36014 5.0021,5.95603 0,1.42253 3.58038,4.03543 4.84114,4.71753 15.79708,8.54655 -0.39947,-5.64145 -2.20177,-3.68218 -2.54478,2.76643 5.89074,10.67015 7.18052,7.19196 1.03215,-2.78334 1.12373,-2.74098 3.14393,1.4549 2.53171,5.25829 8.02867,11.56333 11.42144,13.10052 2.00132,0.90677 1.32303,1.21559 -3.3948,1.54566 -5.62194,0.39331 -5.93344,0.61233 -6.70493,4.71484 -0.80923,4.30339 1.18877,25.72719 2.61392,28.02756 1.20626,1.94701 4.3459,1.42786 9.214,-1.52355 8.63436,-5.23475 12.42709,-12.08582 10.63469,-19.21007 -0.4564,-1.81408 -0.20694,-2.9969 0.63208,-2.9969 0.76235,0 1.3861,-0.76174 1.3861,-1.69275 0,-2.97642 19.38138,-21.21989 27.65356,-26.03 10.46023,-6.08242 13.68481,-8.56766 24.70049,-19.03702 8.34292,-7.92916 18.01274,-20.61455 22.61953,-29.67351 2.26156,-4.44724 3.76691,-2.32832 3.78347,5.32568 0.0141,6.50693 -1.71801,13.37833 -5.2793,20.94363 -4.16481,8.84747 -1.20933,8.54002 5.03572,-0.52382 1.36374,-1.97936 1.49263,-1.2962 0.85367,4.52796 -0.78541,7.15966 -6.28616,20.24407 -11.37274,27.0522 -1.63186,2.18411 -2.96705,4.28928 -2.96705,4.67812 0,1.83578 3.13147,0.36351 5.79298,-2.72364 3.65138,-4.23529 3.78365,-2.15355 0.35747,5.62735 -2.46281,5.59323 -3.41879,7.51403 -6.6583,13.37831 -2.89929,5.24842 -12.44382,17.16122 -18.64433,23.27037 -6.48772,6.39223 -24.57771,19.12718 -31.32894,22.05495 -4.74291,2.05684 -17.73756,11.9499 -23.61255,17.97667 -7.13778,7.3222 -6.03407,13.43266 4.55395,25.21226 l 7.36765,8.19675 6.02189,-5.6192 c 5.44304,-5.07897 8.6302,-6.88216 8.6302,-4.88267 0,0.40508 -2.89548,3.52057 -6.43441,6.92325 -5.51662,5.30429 -6.47858,6.93408 -6.74421,11.4266 -0.42232,7.1427 -0.41419,7.11115 -1.8277,7.11115 -0.68778,0 -1.25052,-2.77492 -1.25052,-6.16651 0,-5.68425 -0.55398,-6.81793 -7.08306,-14.49545 -4.06067,-4.77486 -8.96684,-9.11411 -11.49766,-10.16899 -6.90489,-2.87807 -8.08927,-0.35864 -7.16282,15.23718 2.13299,35.90642 2.76465,38.38516 11.26992,44.22276 4.45655,3.05878 5.90386,3.43749 10.16581,2.66003 2.73322,-0.49857 6.46038,-1.88108 8.28266,-3.07219 3.19086,-2.08568 3.34231,-2.07418 4.10116,0.31095 1.84186,5.78908 -5.39995,15.41633 -12.76548,16.97047 -3.54505,0.748 -4.06422,1.36043 -4.06422,4.79421 l 0,3.93666 -3.43894,-3.37995 c -1.89143,-1.85898 -5.26786,-5.03533 -7.50316,-7.05858 -2.23532,-2.02323 -4.06422,-4.84456 -4.06422,-6.26959 0,-1.47141 -0.81051,-2.59096 -1.87579,-2.59096 -2.48829,0 -2.37455,1.16845 0.80976,8.31721 3.5204,7.90334 3.85807,21.70436 0.67499,27.58754 -2.61518,4.83353 -9.31844,11.50031 -11.56327,11.50031 -0.8685,0 -3.12301,-1.82447 -5.00999,-4.05437 z"
         id="path2474"
         sodipodi:nodetypes="csssssssssssssssssscccssssssssssssssssssssssssssssssssssssssssssssssssssssssssscccssssssssssssscccssssssc" />
      <path
         sodipodi:type="arc"
         style="fill:#ffffff;fill-opacity:1;fill-rule:evenodd;stroke:#eb4a5a;stroke-width:0;stroke-linecap:round;stroke-linejoin:round;stroke-miterlimit:40;stroke-opacity:1;stroke-dasharray:none"
         id="path3260"
         sodipodi:cx="305.39819"
         sodipodi:cy="169.06454"
         sodipodi:rx="2.9085543"
         sodipodi:ry="4.1550775"
         d="m 308.30675,169.06454 c 0,2.29479 -1.30221,4.15508 -2.90856,4.15508 -1.60635,0 -2.90855,-1.86029 -2.90855,-4.15508 0,-2.29478 1.3022,-4.15507 2.90855,-4.15507 1.60635,0 2.90856,1.86029 2.90856,4.15507 z"
         transform="matrix(0.6561262,0,0,0.4448506,283.06977,118.11811)" />
    </g>
    <path
       inkscape:connector-curvature="0"
       id="path2393"
       d="m 1193.2987,-152.8185 c -10.1973,-6.73481 -13.4908,-10.17432 -20.2057,-21.10133 -4.2032,-6.83976 -5.9306,-8.87426 -9.6064,-11.31409 -7.3482,-4.87752 -14.2608,-14.66339 -15.6932,-22.21624 -0.4522,-2.38473 -1.2325,-4.83017 -1.734,-5.43436 -1.5783,-1.90173 -6.6833,-1.25766 -12.2004,1.53928 -7.1071,3.60302 -13.3853,10.1402 -17.5476,18.27141 l -3.3882,6.61897 -2.4556,-4.60714 c -1.3506,-2.53394 -3.0952,-6.98741 -3.877,-9.89661 -1.6468,-6.12774 -3.0703,-8.13919 -5.7601,-8.13919 -4.2559,0 -13.8287,8.54204 -17.3851,15.51312 l -1.8015,3.53129 -1.0275,-1.99079 c -2.1195,-4.10684 -6.9584,-17.98831 -9.2468,-26.52678 -9.1276,-34.05585 -10.4702,-54.08777 -9.1607,-136.67692 0.9132,-57.59348 1.4221,-77.14213 2.2182,-85.2047 l 0.4541,-4.59824 5.8327,-2.11103 c 16.6249,-6.01702 55.2086,-14.96162 79.1114,-18.3399 18.9263,-2.67494 30.9032,-3.32794 61.0389,-3.32794 26.221,0 30.0847,0.18046 43.3122,2.02295 31.0676,4.32747 50.5327,8.7032 75.0747,16.87671 l 17.3988,5.79451 -0.4464,83.11862 c -0.2622,48.80896 -0.8085,87.1517 -1.3236,92.88912 -2.3363,26.02589 -8.8779,56.29492 -15.7611,72.92904 l -2.6997,6.5239 -2.587,-3.99247 c -1.4228,-2.19582 -5.1652,-6.42459 -8.3164,-9.39724 -7.9463,-7.49617 -10.8795,-7.23863 -13.378,1.17471 -1.4981,5.0447 -4.9654,11.5038 -7.4065,13.79702 l -1.8448,1.73315 -1.008,-3.11634 c -2.8848,-8.91911 -11.2878,-18.26956 -20.2993,-22.58821 -7.7087,-3.69429 -8.8931,-3.28352 -10.5962,3.6746 -2.0986,8.574 -8.0878,16.19106 -18.7378,23.83058 -2.678,1.92095 -4.6648,4.46549 -7.4239,9.50791 -2.2119,4.04209 -5.8306,8.9996 -8.7641,12.00625 -5.8569,6.00291 -19.034,14.82679 -22.1416,14.82679 -1.2775,0 -5.5474,-2.25234 -10.6168,-5.60042 l 0,1e-5 z m 11.9374,-18.12598 c 6.4799,-6.12841 8.7655,-11.32791 8.8466,-20.12535 0.036,-3.86987 -0.2264,-8.66937 -0.5824,-10.6655 l -0.6473,-3.62937 5.6569,5.46132 c 3.1113,3.00372 5.9673,5.4557 6.3467,5.44884 1.7486,-0.0316 2.6336,-1.51738 2.8728,-4.82287 0.2464,-3.40359 0.4312,-3.64422 3.6099,-4.69944 9.3284,-3.09674 16.2491,-15.2625 12.0735,-21.22391 -1.6085,-2.29652 -2.7588,-2.27228 -7.5572,0.15929 -7.8205,3.96292 -11.8603,3.45602 -17.8629,-2.24137 -3.7651,-3.57373 -4.8984,-8.2826 -6.2969,-26.16497 -1.3684,-17.49587 -1.5045,-24.76411 -0.4935,-26.35919 1.1329,-1.78756 5.502,1.0213 11.7132,7.53034 6.5164,6.82886 8.7375,10.96355 8.7375,16.26547 0,4.81878 1.1257,7.01727 3.5929,7.01727 2.6667,0 3.4462,-1.30808 4.124,-6.92076 0.7582,-6.2783 1.1623,-6.9937 7.9234,-14.02403 5.7018,-5.92893 6.4311,-7.77486 3.741,-9.46886 -1.9059,-1.20016 -5.6316,0.68466 -11.124,5.62756 l -4.3629,3.92644 -3.5742,-4.02232 c -1.9659,-2.21231 -5.0405,-6.17088 -6.8325,-8.79683 -4.4674,-6.54653 -4.4382,-9.5327 0.1444,-14.73878 4.3224,-4.91048 16.3617,-14.23725 23.3654,-18.10096 7.3666,-4.06385 20.5293,-13.04012 27.1436,-18.5103 13.273,-10.97728 27.0934,-30.80957 32.0432,-45.98205 1.4173,-4.34448 1.4138,-4.41973 -0.2677,-5.7813 l -1.7036,-1.37952 2.795,-5.85107 c 5.4965,-11.50595 7.6583,-23.59519 4.5197,-25.27489 -0.8367,-0.44781 -1.7982,-0.55231 -2.1366,-0.2322 -0.3385,0.3201 -0.3986,-0.15078 -0.1335,-1.0464 2.0624,-6.97108 2.9756,-12.1006 2.9653,-16.65875 -0.015,-6.46152 -1.2898,-9.39586 -4.0831,-9.39586 -1.5838,0 -2.7353,1.12538 -5.4153,5.29234 -12.5732,19.54891 -24.8261,32.24 -42.601,44.12418 -12.5679,8.40279 -23.7652,18.16361 -29.7312,25.91688 -3.4452,4.47731 -3.6491,5.03227 -3.6491,9.93347 0,4.23473 -0.3973,5.80385 -2.1561,8.51632 -2.0639,3.18313 -9.991,9.21394 -12.111,9.21394 -1.3942,0 -1.8371,-2.08217 -2.9491,-13.86598 -1.1907,-12.61746 -0.8159,-14.60149 2.7795,-14.71241 3.8744,-0.11955 6.436,-1.00025 7.4127,-2.5486 0.7155,-1.13427 0.025,-2.132 -3.994,-5.76982 -2.6751,-2.42152 -6.2771,-6.82445 -8.0142,-9.79619 -3.0122,-5.15304 -8.8096,-10.30146 -11.6001,-10.30146 -0.573,0 -3.3961,-2.41296 -6.2737,-5.36214 -4.0249,-4.12507 -5.6777,-5.29907 -7.1643,-5.08879 -2.7473,0.38862 -2.8388,3.00612 -0.2813,8.05298 1.7227,3.39968 1.936,4.38832 1.0655,4.94005 -0.5985,0.37938 -1.363,0.6954 -1.6988,0.70226 -1.4373,0.0293 -0.394,3.70157 2.5052,8.81788 4.2292,7.4633 5.0287,10.0723 5.0113,16.35293 -0.016,5.75849 -1.873,20.23872 -3.2526,25.36198 -0.8215,3.05071 -0.8955,3.10054 -3.3405,2.2482 -1.3753,-0.47943 -4.508,-2.74745 -6.9616,-5.04007 l -4.461,-4.16841 -0.6327,-7.03013 c -0.7142,-7.93565 -1.1985,-8.85859 -9.6852,-18.45686 -5.7535,-6.50711 -13.6811,-12.93348 -27.3679,-22.18543 -4.8947,-3.3087 -11.097,-8.04211 -13.7829,-10.51867 -7.1344,-6.57838 -16.6014,-18.31269 -21.449,-26.58597 -7.0811,-12.085 -7.1401,-12.13819 -10.0585,-9.06024 -1.6116,1.69975 -1.7131,2.50771 -1.4068,11.19534 0.1831,5.19159 0.7743,10.17959 1.3269,11.19534 0.8684,1.59636 0.8044,1.83196 -0.4976,1.83196 -0.8219,0 -1.9339,0.43967 -2.4713,0.97705 -2.4089,2.40887 0.09,15.31134 5.0883,26.2702 l 2.9577,6.48498 -1.8159,1.36965 c -1.6666,1.25714 -1.7376,1.6304 -0.8647,4.54375 3.0698,10.24612 14.1478,28.8448 23.8741,40.08187 7.3824,8.52895 14.8681,14.47143 28.7579,22.82914 18.8267,11.32828 31.5031,21.79984 32.6365,26.95987 1.1002,5.00955 -0.547,8.01102 -9.914,18.06399 l -3.6088,3.87305 -5.5937,-4.81439 c -6.6089,-5.68808 -8.4904,-6.48265 -10.6731,-4.50731 -0.8635,0.78149 -1.5701,1.7183 -1.5701,2.08179 0,0.36349 2.7071,3.81215 6.0158,7.66367 5.957,6.93436 7.0115,9.14979 7.0115,14.72971 0,1.67271 0.6445,3.39242 1.6471,4.39502 3.1306,3.13066 5.6808,-0.34311 5.6808,-7.73832 0,-3.3334 3.5993,-8.12032 11.0865,-14.74463 6.3118,-5.58448 8.8819,-7.18229 10.2211,-6.35462 2.1061,1.30165 -1.044,40.52676 -3.8655,48.13316 -1.5435,4.16113 -4.9641,7.20122 -9.4667,8.41365 -4.0509,1.09079 -7.2706,0.56045 -13.2687,-2.18554 -3.6372,-1.66518 -4.7759,-1.88188 -5.7296,-1.09038 -1.8169,1.50793 -1.5646,9.88996 0.4146,13.76941 1.974,3.86952 6.7572,7.93262 10.7576,9.13823 2.5015,0.7539 3.1139,1.39167 3.6912,3.84448 1.1179,4.74861 3.3779,4.37006 9.604,-1.6086 2.9052,-2.78974 5.2779,-4.73939 5.2726,-4.33255 -0.01,0.40685 -0.5506,2.75488 -1.2117,5.21787 -3.0441,11.34119 0.5528,23.29022 9.4231,31.30397 4.443,4.01403 6.4078,3.79859 11.7911,-1.29274 l 0,1e-5 z"
       style="fill:#ffffff;fill-opacity:1;fill-rule:evenodd;stroke:#eb4a5a;stroke-width:0;stroke-linecap:round;stroke-linejoin:round;stroke-miterlimit:40;stroke-opacity:1;stroke-dasharray:none" />
    <path
       inkscape:connector-curvature="0"
       id="path2395"
       d="m 1193.9465,-47.426367 c -8.7209,-3.58593 -27.9063,-15.642747 -43.307,-27.215727 -20.4457,-15.36402 -39.7117,-34.488946 -53.8366,-53.442146 -21.2661,-28.53556 -37.8874,-64.32341 -44.9999,-96.89059 -4.2277,-19.35817 -5.1474,-27.72829 -5.7256,-52.10922 -0.6128,-25.84468 0.294,-154.60192 1.191,-169.09732 l 0.5886,-9.51285 4.1673,-1.80267 c 23.3881,-10.11736 64.6679,-19.55816 106.7572,-24.41566 34.4763,-3.97889 87.3336,-2.50285 121.7239,3.39915 20.9031,3.58733 71.258,17.83883 80.9403,22.9078 1.5201,0.79582 1.5424,2.55711 0.9931,78.26895 -0.8436,116.25745 -1.8554,132.70142 -9.9412,161.55175 -9.9641,35.55239 -28.5624,71.72987 -49.2712,95.84273 -7.9928,9.30666 -29.9721,30.950246 -39.0051,38.409376 -12.2392,10.10667 -29.3741,21.16488 -48.5126,31.308097 -10.5257,5.57851 -13.9349,6.01688 -21.7622,2.79834 l 0,-10e-6 z m 15.7461,-8.597217 c 11.2377,-5.68613 37.0958,-22.01618 52.264,-33.00598 7.9972,-5.7942 29.9897,-28.491506 41.2361,-42.557606 4.7628,-5.95694 8.807,-11.26963 8.9869,-11.80599 0.18,-0.53638 1.6804,-2.99037 3.3341,-5.45335 8.9531,-13.33401 20.8709,-38.2042 26.3383,-54.96356 6.6712,-20.44873 10.5026,-38.76968 11.9182,-56.98985 1.0491,-13.50263 2.7094,-129.80555 2.3159,-162.22417 -0.2821,-23.24291 -0.3892,-24.71304 -1.9111,-26.22484 -1.6977,-1.68638 -29.8185,-11.50555 -44.3582,-15.48885 -12.0139,-3.29135 -30.3366,-7.02476 -48.4452,-9.8711 -12.1049,-1.90264 -19.2778,-2.53306 -32.9754,-2.8981 -24.7099,-0.65851 -60.443,0.84612 -78.5805,3.30884 -32.8632,4.46217 -74.7653,14.85178 -89.9603,22.30557 l -4.4781,2.19673 -0.4956,20.76227 c -0.2725,11.41925 -0.5473,54.93235 -0.6106,96.6958 -0.1244,82.03228 -0.2843,78.33791 4.3843,101.26061 6.6566,32.68401 23.1897,69.37705 43.243,95.97217 16.5195,21.90845 38.293,43.309766 58.9924,57.983806 7.1156,5.04435 25.7437,16.41928 33.8621,20.67723 7.326,3.842447 7.9524,3.855867 14.9397,0.32036 l 0,1e-5 z"
       style="fill:#ffffff;fill-opacity:1;fill-rule:evenodd;stroke:#eb4a5a;stroke-width:0;stroke-linecap:round;stroke-linejoin:round;stroke-miterlimit:40;stroke-opacity:1;stroke-dasharray:none" />
  </g>
</svg>
