<?xml version="1.0" encoding="UTF-8" standalone="no"?>
<!-- Created with Inkscape (http://www.inkscape.org/) -->

<svg
   width="800"
   height="500"
   id="svg3047"
   version="1.1"
   inkscape:version="1.3.2 (091e20e, 2023-11-25, custom)"
   sodipodi:docname="Dubăsari_District_flag.svg"
   xmlns:inkscape="http://www.inkscape.org/namespaces/inkscape"
   xmlns:sodipodi="http://sodipodi.sourceforge.net/DTD/sodipodi-0.dtd"
   xmlns="http://www.w3.org/2000/svg"
   xmlns:svg="http://www.w3.org/2000/svg"
   xmlns:rdf="http://www.w3.org/1999/02/22-rdf-syntax-ns#"
   xmlns:cc="http://creativecommons.org/ns#"
   xmlns:dc="http://purl.org/dc/elements/1.1/">
  <defs
     id="defs3049" />
  <sodipodi:namedview
     id="base"
     pagecolor="#ffffff"
     bordercolor="#666666"
     borderopacity="1.0"
     inkscape:pageopacity="0.0"
     inkscape:pageshadow="2"
     inkscape:zoom="0.47781383"
     inkscape:cx="233.35449"
     inkscape:cy="603.79165"
     inkscape:current-layer="layer1"
     inkscape:document-units="px"
     showgrid="false"
     inkscape:window-width="1920"
     inkscape:window-height="1009"
     inkscape:window-x="3832"
     inkscape:window-y="-8"
     inkscape:window-maximized="1"
     inkscape:pagecheckerboard="0"
     fit-margin-top="0"
     fit-margin-left="0"
     fit-margin-right="0"
     fit-margin-bottom="0"
     inkscape:showpageshadow="2"
     inkscape:deskcolor="#d1d1d1" />
  <metadata
     id="metadata3052">
    <rdf:RDF>
      <cc:Work
         rdf:about="">
        <dc:format>image/svg+xml</dc:format>
        <dc:type
           rdf:resource="http://purl.org/dc/dcmitype/StillImage" />
      </cc:Work>
    </rdf:RDF>
  </metadata>
  <g
     id="layer1"
     inkscape:label="Layer 1"
     inkscape:groupmode="layer"
     transform="translate(-1.8570224,-2.1325171)">
    <rect
       style="fill:#001283;fill-opacity:1;stroke:#000000;stroke-width:0;stroke-miterlimit:4;stroke-dasharray:none;stroke-dashoffset:0;stroke-opacity:1"
       id="rect3997"
       width="799.02295"
       height="500"
       x="2.3570225"
       y="2.6325171" />
    <rect
       style="fill:#ffffff;fill-opacity:1;stroke:#000000;stroke-width:0;stroke-miterlimit:4;stroke-dasharray:none;stroke-dashoffset:0;stroke-opacity:1"
       id="rect3999"
       width="800"
       height="253.80678"
       x="2.3570225"
       y="127.62305" />
    <g
       id="g4"
       transform="matrix(0.53469516,0,0,0.53568692,828.34929,-47.106985)">
      <path
         id="path3"
         style="opacity:1;fill:#ff0000;fill-opacity:1;fill-rule:evenodd;stroke:#000000;stroke-width:1.646;stroke-linecap:round;stroke-linejoin:round;stroke-dasharray:none;stroke-opacity:1;paint-order:markers fill stroke"
         d="m -997.45352,517.10322 -39.10158,25.58594 c 0,0 156.84844,48.9082 237.76173,48.9082 80.91329,0 237.76172,-48.9082 237.76172,-48.9082 l -39.10156,-25.58594 c 0,0 -132.44011,0 -198.66016,0 -66.22005,0 -198.66015,0 -198.66015,0 z"
         sodipodi:nodetypes="cczcczc" />
      <path
         id="path2"
         style="opacity:1;fill:#ff0000;fill-opacity:1;fill-rule:evenodd;stroke:#000000;stroke-width:1.646;stroke-linecap:round;stroke-linejoin:round;stroke-dasharray:none;stroke-opacity:1;paint-order:markers fill stroke"
         d="m -1099.8617,474.64619 c -4.8775,46.73758 -74.0564,166.79101 301.06833,166.79101 375.12473,0 305.94586,-120.05343 301.06836,-166.79101 -38.21976,41.6059 -198.20996,63.76172 -301.06836,63.76172 -102.8584,0 -262.84863,-22.15582 -301.06833,-63.76172 z"
         sodipodi:nodetypes="czczc" />
      <path
         id="path4-9"
         style="opacity:1;fill:#ff0000;fill-opacity:1;fill-rule:evenodd;stroke:#000000;stroke-width:3;stroke-linecap:round;stroke-linejoin:round;stroke-dasharray:none;stroke-opacity:1;paint-order:markers fill stroke"
         d="m -1087.9359,493.58174 c -8.7738,44.42032 2.8475,69.79841 29.2597,88.22461 64.91008,45.28381 227.79556,44.46289 259.88283,44.46289 32.08727,0 194.9708,0.82092 259.88086,-44.46289 26.41217,-18.4262 38.03551,-43.80429 29.26172,-88.22461 -35.52376,46.70537 -213.99704,62.0332 -289.14258,62.0332 -75.14554,0 -253.61883,-15.32783 -289.14253,-62.0332 z"
         sodipodi:nodetypes="cszsczc" />
      <path
         id="path4"
         style="opacity:1;fill:#ff0000;fill-opacity:1;fill-rule:evenodd;stroke:#000000;stroke-width:3;stroke-linecap:round;stroke-linejoin:round;stroke-dasharray:none;stroke-opacity:1;paint-order:markers fill stroke"
         d="m -1096.6078,495.84736 c -8.7738,44.42033 3.4511,73.03865 29.8633,91.46484 64.91,45.28382 235.86386,44.3379 267.95113,44.3379 32.08727,0 203.04114,0.94592 267.95117,-44.3379 26.41218,-18.42619 38.63708,-47.04451 29.86328,-91.46484 -28.89357,48.47341 -222.34158,67.23047 -297.81445,67.23047 -75.47287,0 -268.92093,-18.75706 -297.81443,-67.23047 z"
         sodipodi:nodetypes="cszsczc" />
    </g>
  </g>
</svg>
