<?xml version="1.0" encoding="utf-8"?>
<!-- Generator: Adobe Illustrator 26.4.1, SVG Export Plug-In . SVG Version: 6.00 Build 0)  -->
<svg version="1.1" id="Layer_1" xmlns="http://www.w3.org/2000/svg" xmlns:xlink="http://www.w3.org/1999/xlink" x="0px" y="0px"
	 viewBox="0 0 324 216" style="enable-background:new 0 0 324 216;" xml:space="preserve">
<style type="text/css">
	.st0{fill:#34CBFE;}
	.st1{fill:#012B7F;}
	.st2{fill-rule:evenodd;clip-rule:evenodd;fill:#151417;}
	.st3{fill-rule:evenodd;clip-rule:evenodd;fill:#F7FF08;}
	.st4{fill-rule:evenodd;clip-rule:evenodd;fill:#3938A5;}
	.st5{fill-rule:evenodd;clip-rule:evenodd;fill:#4A71F7;}
	.st6{fill-rule:evenodd;clip-rule:evenodd;fill:#ADCFEF;}
	.st7{fill-rule:evenodd;clip-rule:evenodd;fill:#FFFFFF;}
	.st8{fill-rule:evenodd;clip-rule:evenodd;fill:#FEA59D;}
	.st9{fill:#151417;}
	.st10{fill-rule:evenodd;clip-rule:evenodd;fill:#2671E4;}
	.st11{fill:#D9270D;}
	.st12{fill:#2671E4;}
	.st13{fill:#FFFFFF;}
</style>
<rect class="st0" width="324" height="216"/>
<g>
	<g>
		<path class="st1" d="M85.3,58.5l3.2-0.6c0.5,1.8,0.4,3.3-0.1,4.6c-0.5,1.3-1.5,2.3-3,3.2c-1.8,1-3.7,1.2-5.5,0.5
			c-1.9-0.7-3.5-2.1-4.7-4.4c-1.3-2.4-1.8-4.6-1.4-6.6c0.4-2,1.6-3.5,3.5-4.6c1.7-0.9,3.3-1.2,4.9-0.7c1,0.3,1.9,0.9,2.9,1.9
			l-2.3,2.2c-0.6-0.7-1.2-1.1-2-1.2s-1.5,0-2.2,0.4c-1,0.6-1.6,1.4-1.8,2.5c-0.2,1.1,0.2,2.5,1.1,4.2c1,1.8,2,2.9,3.1,3.4
			c1,0.4,2.1,0.4,3.1-0.2c0.7-0.4,1.2-1,1.5-1.8C85.7,60.6,85.6,59.6,85.3,58.5z"/>
		<path class="st1" d="M88.6,54.3c-0.7-1.5-1-2.9-1.1-4.2c0-0.9,0.1-1.8,0.4-2.7c0.3-0.9,0.7-1.6,1.2-2.2c0.7-0.8,1.6-1.4,2.8-2
			c2.1-0.9,4.1-1,6-0.2c1.9,0.8,3.3,2.5,4.4,4.9c1.1,2.4,1.3,4.6,0.6,6.5s-2,3.4-4.1,4.3c-2.1,0.9-4.1,1-6,0.2S89.7,56.7,88.6,54.3z
			 M91.5,52.9c0.8,1.7,1.7,2.8,2.8,3.4c1.1,0.5,2.3,0.6,3.4,0.1s1.9-1.4,2.2-2.6s0.1-2.7-0.6-4.4c-0.8-1.7-1.7-2.9-2.8-3.4
			c-1.1-0.5-2.2-0.5-3.4,0c-1.2,0.5-2,1.4-2.3,2.6C90.6,49.7,90.8,51.1,91.5,52.9z"/>
		<path class="st1" d="M109.7,36.8l10.5-3.1l4.6,15.8l-3,0.9l-3.9-13.1l-4.5,1.3l2,6.7c0.6,1.9,0.9,3.3,1,4.1c0.1,0.8,0,1.5-0.4,2.1
			c-0.3,0.6-1,1-2,1.3c-0.4,0.1-1,0.3-2,0.5l-0.7-2.5l0.7-0.2c0.6-0.2,1-0.4,1.2-0.6c0.2-0.2,0.1-0.7-0.1-1.4l-0.8-2.7L109.7,36.8z"
			/>
		<path class="st1" d="M127.6,48.9l-3.2-16.1l11.3-2.3l0.5,2.7l-8.2,1.6l0.7,3.6l7.7-1.5l0.5,2.7l-7.7,1.5l0.9,4.4l8.5-1.7l0.5,2.7
			L127.6,48.9z"/>
		<path class="st1" d="M139.8,29.8l12.3-1.3l1.7,16.4l-3.1,0.3l-1.4-13.6l-6.1,0.6l1.4,13.6l-3.1,0.3L139.8,29.8z"/>
		<path class="st1" d="M156,36.6c0-1.7,0.2-3.1,0.7-4.2c0.4-0.8,0.8-1.6,1.4-2.3c0.6-0.7,1.3-1.2,2-1.5c1-0.4,2.1-0.7,3.4-0.7
			c2.3,0,4.1,0.7,5.5,2.2c1.4,1.5,2.1,3.6,2.1,6.3c0,2.7-0.7,4.7-2,6.2c-1.4,1.5-3.2,2.3-5.5,2.3c-2.3,0-4.2-0.7-5.5-2.2
			C156.7,41.3,156,39.2,156,36.6z M159.2,36.5c0,1.9,0.4,3.3,1.2,4.2c0.8,1,1.9,1.4,3.1,1.4s2.3-0.5,3.1-1.4s1.2-2.4,1.2-4.3
			c0-1.9-0.4-3.3-1.2-4.2c-0.8-0.9-1.8-1.4-3.1-1.4s-2.3,0.5-3.1,1.4C159.6,33.1,159.2,34.6,159.2,36.5z"/>
		<path class="st1" d="M183.7,39.7l2.9,1.3c-0.6,1.7-1.5,3-2.7,3.8c-1.2,0.8-2.6,1.1-4.2,0.9c-2.1-0.2-3.7-1.1-4.9-2.7
			c-1.2-1.6-1.7-3.7-1.4-6.3c0.3-2.7,1.1-4.8,2.6-6.2c1.5-1.4,3.3-2,5.5-1.8c1.9,0.2,3.4,0.9,4.5,2.2c0.6,0.8,1.1,1.8,1.3,3.2
			l-3.2,0.5c-0.1-0.9-0.4-1.6-1-2.1c-0.5-0.5-1.2-0.9-2.1-0.9c-1.1-0.1-2.1,0.2-2.9,1c-0.8,0.8-1.3,2.2-1.5,4.1
			c-0.2,2.1,0,3.6,0.6,4.5c0.6,0.9,1.5,1.5,2.6,1.6c0.8,0.1,1.6-0.1,2.2-0.6C182.8,41.7,183.3,40.9,183.7,39.7z"/>
		<path class="st1" d="M202.8,49.2l-3.4-0.7l-0.6-3.9l-6.1-1.2l-2,3.4l-3.3-0.6l9.1-15l3.3,0.6L202.8,49.2z M198.3,41.7l-0.9-6.4
			l-3.2,5.6L198.3,41.7z"/>
		<path class="st1" d="M209.8,34.1l6,1.8c1.2,0.4,2,0.7,2.6,1c0.5,0.3,1,0.7,1.4,1.1c0.4,0.5,0.6,1,0.7,1.7s0.1,1.3-0.1,2
			c-0.2,0.7-0.6,1.4-1.2,1.9c-0.6,0.5-1.2,0.8-2,0.9c0.8,0.6,1.4,1.2,1.7,2.1c0.3,0.8,0.3,1.7,0,2.6c-0.2,0.7-0.6,1.4-1.1,1.9
			c-0.5,0.6-1.1,1-1.8,1.2c-0.7,0.2-1.4,0.3-2.2,0.1c-0.5-0.1-1.7-0.4-3.7-1l-5.1-1.5L209.8,34.1z M210.2,43.9l-1.3,4.2l2.8,0.8
			c1.1,0.3,1.8,0.5,2.1,0.5c0.5,0,0.9,0,1.3-0.3c0.4-0.2,0.7-0.7,0.8-1.2c0.1-0.5,0.2-0.9,0-1.3s-0.4-0.7-0.7-1
			c-0.4-0.3-1.2-0.6-2.6-1L210.2,43.9z M212,37.6l-1.1,3.6l2,0.6c1.2,0.4,1.9,0.6,2.2,0.6c0.5,0.1,1,0,1.4-0.2s0.7-0.6,0.8-1.1
			c0.1-0.5,0.1-0.9,0-1.3c-0.2-0.4-0.5-0.7-1-0.9c-0.3-0.1-1.1-0.4-2.6-0.8L212,37.6z"/>
		<path class="st1" d="M225.9,39.1l2.7,1.1l-4.1,10.2l10-7.8l2.9,1.2l-6.2,15.3l-2.7-1.1l4-10l-9.9,7.6l-2.9-1.2L225.9,39.1z"/>
		<path class="st1" d="M240.6,45.1l10.9,5.8l-1.3,2.5l-4.1-2.2l-1.6,3c1.5,0.2,2.7,0.5,3.8,1.1c0.8,0.4,1.5,1,2,1.6
			c0.5,0.6,0.8,1.3,0.9,2s0.1,1.3,0,1.8c-0.1,0.5-0.5,1.3-1.1,2.4l-2.4,4.5l-2.8-1.5l1.6-3.1c0.7-1.3,1.1-2.2,1.3-2.7s0.1-1-0.1-1.6
			c-0.2-0.5-0.7-1-1.4-1.4c-1-0.5-2-0.7-3.2-0.7l-3.5,6.6l-2.8-1.5l6.4-12.1l-4.1-2.2L240.6,45.1z"/>
	</g>
</g>
<g>
	<g id="Layer_x0020_1_00000019645650840518856280000011991275179561672363_">
		<g id="_1920539623584_00000156586338950837179770000016833430309996905137_">
			<path class="st2" d="M162,188c-0.8,0-2-0.7-2.7-1c-1.3-0.7-2.6-1.4-4-2c-10.6-4.3-21.8-9.2-30.2-17c-10.2-9.5-14-21.4-14-34.9
				c0-6.3,1.4-12,4.1-17.7c1.1-2.3,2.3-4.5,3.7-6.7c1.2-1.9,2.4-3.9,3.4-5.9c0.6-1.1,1.1-2.3,1.5-3.5c0.5-1.8,0.8-3.8,0.4-5.7
				c-0.8-4.1-4-6.3-7.8-7.5c-0.1,0-0.2-0.1-0.2-0.1c0-0.1,0.1-0.2,0.1-0.2c1.9-5.8,3.8-11.7,5.6-17.5c0-0.1,0-0.1,0-0.2
				c0.1,0,0.1,0,0.2,0c13.3,0,26.7,0,40,0s26.7,0,40,0c0.1,0,0.1,0,0.2,0c0,0,0,0.1,0.1,0.2c1.9,5.8,3.8,11.7,5.6,17.5
				c0,0.1,0,0.2,0.1,0.2c-0.1,0-0.2,0-0.2,0.1c-3.8,1.2-7.1,3.5-7.8,7.5c-0.6,3.1,0.5,6.4,1.9,9.2c1.1,2,2.3,3.9,3.4,5.9
				c1.3,2.2,2.6,4.4,3.7,6.7c2.7,5.7,4.1,11.4,4.1,17.7c0,13.6-3.8,25.4-14,34.9c-8.4,7.8-19.6,12.7-30.2,17c-1.4,0.6-2.7,1.3-4,2
				C164,187.3,162.8,188,162,188z"/>
			<path class="st3" d="M162,187.7c-1.2,0-3.4-1.7-6.6-3c-22.5-9.1-44.1-19.7-44.1-51.7c0-14.3,7.1-22.7,11.2-30.2
				c3-5.6,4.1-13.8-6.1-17.1c1.9-5.8,3.8-11.7,5.6-17.5c13.3,0,26.7,0,40,0s26.7,0,40,0c1.9,5.8,3.8,11.7,5.6,17.5
				c-10.2,3.3-9.1,11.4-6.1,17.1c4,7.5,11.2,16,11.2,30.2c0,32-21.6,42.6-44.1,51.7C165.4,186.1,163.2,187.7,162,187.7z"/>
			<path class="st4" d="M125.5,90.1c2,3.9,1.5,8.8-1.1,13.8c-2.3,4.2-5,8.1-7,12.5c-2.6,5.4-3.9,10.8-3.9,16.7
				c0,1.8,0.1,3.6,0.2,5.3h96.5c0.1-1.8,0.2-3.5,0.2-5.3c0-6-1.3-11.3-3.9-16.7c-2.1-4.4-4.8-8.3-7-12.5c-2.7-4.9-3.2-9.9-1.1-13.8
				H125.5z"/>
			<path class="st5" d="M162,70.4c-12.8,0-25.6,0-38.3,0c-1.5,4.7-3,9.3-4.5,14c3.1,1.4,5.2,3.3,6.4,5.6h72.9
				c1.2-2.3,3.3-4.2,6.4-5.6c-1.5-4.7-3-9.3-4.5-14C187.6,70.4,174.8,70.4,162,70.4z"/>
			<path class="st3" d="M131.3,111.6c1,0.2,2.2-0.6,2.9-1.3c2.7-2.6,7.9-8.5,8.5-9.2c0.3-0.3-3.7,2.5-3.6,2.2
				c0.4-0.8,2.3-2.5,4.1-4.2c-0.8,0.2-2.7,1.4-6.8,4.8c0.4-0.8,2.3-2.5,3.6-4.1c-0.1,0-12.2,9.4-9.6,11.5c-4.6,4.2-6.6,9.8-6.8,10.8
				c-0.2,1.6,1.5-0.8,0.5,2.1c-0.5,2.7-3.7,3.9-1.9,11.1c0.2,1,0.9,1.3,1.4,1.3c0.6,0,1.3-0.4,1.7-1.3c1.2-2.2,1.9-7,0.6-10.7
				c-0.3-0.7-0.5-0.8-0.5-1.6c0-0.3,0.5-0.5,0.7-0.1c0.1,0.4,0.2,0.2,0.2,0.9c0.2,0.9,0.9,0.4,1.1-0.3c2.5-5,1.6-7.8,3.3-11.6
				C130.8,111.7,130.8,111.5,131.3,111.6z M194.9,104.7c-0.4-0.8-0.8-0.6-0.8,0c-0.2,1.3,0.8,3,0.8,4.5c0,0.9,0.3,2,0.8,2.7
				c0.1,0.2,1,1.3,0.6,1.6c-0.4,0.3-2.1-2-2.1-2.5c-0.1-6.1-1.3-7.7-5.5-10.2c-0.4-0.3-2.2-1.5-2.2-1.4c0,0.5,0,0.3,0.4,1.1
				c0.2,0.4,1.2,1.7,1.4,2.1c0.3,1.4,1.1,2.2,1.4,2.7c0.2,0.4,0.3,0.6,0.1,0.6c-0.3,0.2-0.4,0-0.8-0.3c-0.4-0.4-1.2-1.1-1.2-1.5
				c-0.1-1.9-1.6-3.7-3.7-4c-1.1,0-2.9-0.7-3.5-0.8c-0.2,0,1.5,2.6,1.5,2.6c1.4,1.7,0.9,2.4,3.7,2.7c1.1,0.1,2.1,0.9,2.8,1.7
				c0.4,0.4-0.1,0.9-0.6,0.3c-0.1-0.2-0.4-0.6-1-0.7c-1-0.1-1.6,0-2.6-0.4c-0.6-0.2-2.2-1.6-2.4-1.1c-0.2,0.8,2.3,3.8,5,5.1
				c1.7,0.9,3.4,0.9,4,1.1c0.9,0.3,2,0.6,2.7,1c0.2,0.2,1.9,2.4,1.4,2.7c-0.4,0.2-1.4-1.8-3.2-2.1c-1.4-0.2-3.2-0.7-3.4-0.8
				l-1.1-0.6c-0.7,1,3.9,4.7,4.6,6.4c0.6,1.3,1,2.8,2.6,3.9c1.1,0.8,2.3,1.4,3.2,1.8c1.6,0.6,2.2,3.1,2.4,3.9
				c0.6,1.5,1.3,3.6,0.5,3.5c-0.8-0.1-1.4-3-1.9-3.7c-1.1-1.5-4.1-3.9-5.7-5c-0.9-0.6-0.9-0.7-0.5,0.5c0.9,2.4,2.4,8.1,2.5,8.5
				c1,4.3,7.6,6.4,11.3,5.3c0.9-0.3,1.1-1.7,1.3-3.5c0.5-3.9-1.8-6.4-1.8-9c0-3.2-1.5-5.6-2.4-7.1c-0.1,2.6-1.9,5.4-1.9,8.1
				c-0.3,1.6,1.3,4.9,1,5c-0.6,0.3-1.2-1.2-1.7-2.8c-0.4-1.2-1.2-3.2-0.7-4.4c1.1-2.1,2.5-4.2,1.7-7.8c-0.4-1.6-1.8-2.3-3.4-4.6
				C196.9,107.7,195.4,105.3,194.9,104.7z M142.2,102.9c0.1-0.1,0.2-0.1,0.2-0.1c-1.9,3-4.2,5.1-6.1,8.4c0,0-1.8,3.9-1.8,4.1
				c0,0.3-0.9,2-0.9,2.2c-0.3,1.5-3,4.8-4.9,5.4c0.5-1.2,0.9-2.4,1.2-3.6c0.3-1.2,0.4-2.4,0.7-3.6c0.2-1.1,0.4-2.2,0.9-3.3
				c1.2,0.1,2.5-0.8,3.3-1.5c1.3-1.2,2.5-2.6,3.7-3.9C139.7,105.6,140.9,104.2,142.2,102.9z M130.8,106.6c3.7-4.9,6.9-6.1,4.8-5.6
				c-1.5,0.4-8.1,5.9-8.5,7.9c0,0.1-0.3,0.5-0.4,1.1c-3.6,4.2-7.3,6.3-4.1,12.1c0-0.1,0-0.1,0-0.2c0.1-0.5,0.3-1.2,0.5-1.7
				c0.4-0.9,0.8-1.9,1.3-2.8c1.2-2.3,2.8-4.5,4.7-6.3C128.8,110,130.1,107.7,130.8,106.6z M125.7,136.2c2,0.1,4.5-2.7,4.6-4.5
				c0.1-1.2-0.1-3.5,0.2-5.7c0.1-0.4,0.4-1.3,0.6-2.1c0.2-1.1,0.1-2.1-0.5-1c-0.8,1.3-2.2,2.2-3.4,3.1c0.1,0.5,0.2,1,0.2,1.5
				c0.2,2.5-0.1,5.9-1.3,8.1C126,135.8,125.9,136,125.7,136.2z M123.1,124.6c-1.8-1.2-2.6-5.2-3.1-5.3c-0.7-0.2-0.4,1.6-0.4,2.4
				c0,1.6-1.2,4.9-1.6,7.6c-0.3,2.1,0.9,6.9,3.8,7.1c-0.2-0.3-0.3-0.6-0.4-1c-0.6-2.3-0.9-4.8-0.1-7.1c0.2-0.7,0.6-1.4,1-2.1
				C122.5,125.7,122.8,125.2,123.1,124.6C123,124.6,123,124.6,123.1,124.6z"/>
			<g>
				<path class="st2" d="M161.8,75.2c-3,1.5-7.6,6.1-9.2,6.8c-1.5-0.6-3-1.1-4.5-1.7c-5,3.1-9.8,6-14.8,9.1l-8.1,0.1
					c0.3,0.5,0.5,0.9,0.7,1.4l7.2,0.1c4.1,1.3,7.8,3.3,11.8,4.6c6.5,5.3,10.6,13.7,16.9,18.3c2.6-1.8,1.5-3.6,3.8-6.3
					c1.6-1.8,6-4.7,8.1-6.4c2.2-1.8,3.8-4.2,5.8-5.9c4-1.3,6.9-3.1,11-4.4l7.6-0.1c0.2-0.5,0.4-0.9,0.7-1.4l-8.5-0.1
					c-5-3.1-9.8-6-14.9-9.1c-1.5,0.6-3,1.1-4.5,1.7C169.4,81.2,164.8,76.7,161.8,75.2z"/>
				<path class="st6" d="M161.8,113.5c0.7-0.5,1.2-1.1,1.5-2c0.3-0.6,0.4-1.2,0.7-1.8c0.4-0.8,0.8-1.6,1.4-2.3
					c1.1-1.2,2.8-2.5,4.2-3.5c1.3-0.9,2.7-1.9,3.9-2.9c2.2-1.8,3.7-4.1,5.8-5.9l0,0l0,0c3.8-1.2,7.2-3.2,11-4.4h0l0,0l7.7-0.1
					c0.1-0.3,0.3-0.6,0.5-0.9l-8.3-0.1h-0.1l-0.1,0c-4.9-3-9.8-6-14.7-9c-1.5,0.6-2.9,1.1-4.4,1.7l-0.1,0l-0.1,0
					c-0.7-0.3-1.6-1-2.2-1.5c-1-0.8-2-1.6-3-2.5c-1.2-0.9-2.6-2.1-3.9-2.8c-1.3,0.7-2.7,1.8-3.9,2.8c-1,0.8-2,1.6-3,2.5
					c-0.6,0.5-1.5,1.2-2.2,1.5l-0.1,0l-0.1,0c-1.5-0.6-2.9-1.1-4.4-1.7c-4.9,3-9.8,6-14.7,9l-0.1,0h-0.1l-7.9,0.1
					c0.2,0.3,0.3,0.6,0.5,0.9l7.3,0.1l0,0h0c4.1,1.3,7.8,3.3,11.8,4.6l0,0l0,0c2.5,2.1,4.7,4.6,6.7,7.1
					C154.7,106.2,157.9,110.6,161.8,113.5z"/>
			</g>
			<g>
				<path class="st2" d="M154.2,83.8c0,0.4-1,0.6-1.4,0.7c-0.6,0.3-0.9,0.7-1.6,1.2c-1.5-1.8-2.3-2.8-3.1-3.7c1.2-0.7,1.6-1,1.9-1.1
					l1.4,0.6c-0.1,0-0.6,0.2-1.5,0.6c0,0-0.1,0.1,0,0.1c0.3,0,1,0,1,0.1c0.1,0.3,0.3,0.4,0.7,0.4C152.3,82.6,153.8,83.3,154.2,83.8z
					"/>
				<path class="st7" d="M153.8,83.9c-0.4-0.4-1.7-1-2.2-1c-0.4,0-0.7-0.2-0.9-0.5c-0.2,0-0.6,0-0.8,0c-0.4,0-0.5-0.4-0.1-0.6
					c0.3-0.1,0.6-0.2,0.9-0.3l-0.7-0.3c-0.5,0.3-1,0.6-1.5,0.9c0.9,1.1,1.8,2.2,2.7,3.3c0.5-0.4,0.9-0.8,1.5-1.1
					C152.8,84.2,153.6,84,153.8,83.9z"/>
			</g>
			<g>
				<path class="st2" d="M169.4,83.8c0,0.4,1.1,0.6,1.4,0.7c0.6,0.3,0.9,0.7,1.6,1.2c1.5-1.8,2.3-2.8,3.1-3.7
					c-1.2-0.7-1.6-1-1.9-1.1l-1.4,0.6c0.1,0,0.6,0.2,1.5,0.6c0,0,0.1,0.1,0,0.1c-0.3,0-1,0-1,0.1c-0.1,0.3-0.3,0.4-0.7,0.4
					C171.3,82.6,169.8,83.3,169.4,83.8z"/>
				<path class="st7" d="M169.7,83.9c0.4-0.4,1.7-1,2.2-1c0.4,0,0.7-0.2,0.9-0.5c0.2,0,0.6,0,0.8,0c0.4,0,0.5-0.4,0.1-0.6
					c-0.3-0.1-0.6-0.2-0.9-0.3l0.7-0.3c0.5,0.3,1,0.6,1.5,0.9c-0.9,1.1-1.8,2.2-2.7,3.3c-0.5-0.4-0.9-0.8-1.5-1.1
					C170.8,84.2,170,84,169.7,83.9z"/>
			</g>
			<g>
				<polygon class="st3" points="162.5,98.7 166,98.7 166,100.1 162.5,100.1 162.5,106.4 161.1,106.4 161.1,100.1 157.6,100.1 
					157.6,98.7 161.1,98.7 161.1,95.1 162.5,95.1 				"/>
				<polygon class="st2" points="162.2,98.9 165.7,98.9 165.7,99.8 162.2,99.8 162.2,106.1 161.3,106.1 161.3,99.8 157.9,99.8 
					157.9,98.9 161.3,98.9 161.3,95.4 162.2,95.4 				"/>
			</g>
			<ellipse class="st2" cx="161.8" cy="117.3" rx="13.7" ry="11.5"/>
			<ellipse class="st8" cx="161.8" cy="117.3" rx="13.2" ry="11.1"/>
			<path class="st9" d="M158,116.8c0.4-0.5,0.9-0.9,1.4-1.2c0.7-0.4,1.5-0.6,2.4-0.6c0.9,0,1.8,0.3,2.6,0.7c0.6,0.3,1.1,0.8,1.4,1.3
				c0.3-0.5,0.7-1,1.2-1.3c0.7-0.5,1.5-0.7,2.4-0.7c0.6,0,1.1,0.1,1.6,0.3c0.4,0.2,0.8,0.4,1.1,0.6c0.8-0.8,1.6-1.3,2.4-1.4
				c1-0.2,2.1,0.1,3,0.7l0.2,0.1v23H146v-23l0.2-0.1c1-0.7,2.1-0.9,3.2-0.7c0.9,0.2,1.7,0.7,2.4,1.5c0.3-0.3,0.7-0.5,1.1-0.7
				c0.5-0.2,1.1-0.4,1.7-0.4c0.8,0,1.6,0.2,2.2,0.6C157.2,115.9,157.6,116.3,158,116.8z M159.7,116.2c-0.6,0.3-1.1,0.9-1.5,1.5
				l-0.3,0.6l-0.3-0.6c-0.3-0.6-0.7-1.1-1.3-1.4c-0.5-0.3-1.2-0.5-1.8-0.5c-0.5,0-1,0.1-1.4,0.3c-0.4,0.2-0.8,0.5-1.2,0.9l-0.3,0.3
				l-0.3-0.3c-0.7-0.9-1.4-1.4-2.2-1.6c-0.8-0.2-1.7,0-2.5,0.5V138h30.2v-22.2c-0.8-0.5-1.6-0.7-2.4-0.5c-0.8,0.1-1.5,0.6-2.2,1.4
				l-0.2,0.3l-0.3-0.3c-0.3-0.3-0.7-0.6-1.1-0.7c-0.4-0.2-0.9-0.3-1.3-0.3c-0.7,0-1.4,0.2-2,0.6c-0.6,0.4-1,1-1.2,1.6l-0.3,0.8
				l-0.4-0.7c-0.3-0.7-0.9-1.2-1.5-1.7c-0.6-0.4-1.4-0.6-2.2-0.6C161,115.7,160.3,115.9,159.7,116.2z"/>
			<path class="st7" d="M146.4,115.6V138h30.8v-22.4c-0.8-0.5-1.7-0.8-2.7-0.6c-0.9,0.1-1.6,0.6-2.2,1.3l-0.3,0.3l-0.3-0.3
				c-0.3-0.2-0.6-0.4-0.9-0.6c-0.4-0.2-0.9-0.3-1.4-0.3c-0.8,0-1.5,0.2-2.1,0.7c-0.4,0.3-0.8,0.7-1.1,1.2l-0.3,0.6l-0.4-0.6
				c-0.3-0.5-0.8-0.9-1.3-1.2c-0.7-0.4-1.5-0.6-2.3-0.6c-0.8,0-1.5,0.2-2.2,0.6c-0.5,0.3-1,0.7-1.3,1.1l-0.4,0.5l-0.3-0.5
				c-0.3-0.4-0.7-0.8-1.1-1.1c-0.6-0.4-1.3-0.6-2-0.6c-0.5,0-1,0.1-1.5,0.3c-0.4,0.2-0.7,0.4-1,0.6l-0.3,0.3l-0.3-0.4
				c-0.6-0.7-1.3-1.2-2.2-1.4C148.2,114.8,147.2,115.1,146.4,115.6z"/>
			<path class="st10" d="M152.7,137.2h3.5v-18.8c0-0.9-0.8-1.7-1.8-1.7l0,0c-1,0-1.8,0.8-1.8,1.7V137.2z M148,137.2h2.4v-19
				c0-1.1-0.9-1.9-2-1.9l0,0c-0.2,0-0.3,0-0.5,0.1V137.2z M173.2,137.2h2.5v-20.9c-0.2,0-0.3-0.1-0.5-0.1l0,0c-1.1,0-2,0.9-2,1.9
				V137.2z M167.6,137.2h3.5v-18.8c0-0.9-0.8-1.7-1.8-1.7l0,0c-1,0-1.8,0.8-1.8,1.7V137.2z M159.3,137.2h5V119
				c0-1.3-1.1-2.4-2.5-2.4l0,0c-1.4,0-2.5,1.1-2.5,2.4V137.2z"/>
			<path class="st4" d="M113.9,140.3c1.2,9.9,5,18.6,12.9,25.9c8.1,7.6,19.2,12.3,29.5,16.5c1.4,0.6,2.7,1.2,4,1.9
				c2,1.1,1.5,1.1,3.5,0c1.3-0.7,2.6-1.4,4-1.9c10.3-4.2,21.3-8.9,29.5-16.5c7.9-7.3,11.7-16.1,12.8-25.9H113.9z"/>
			<path class="st2" d="M134.1,144.7c1.3-0.1,2.8-0.6,4-1c1.8-0.5,4.4-1.4,6.3-1.4c1.3,0,2.6,0.4,3.8,0.8c1.1,0.3,2.4,0.8,3.5,0.8
				h20.6c1.2,0,2.4-0.4,3.5-0.8c1.2-0.4,2.5-0.8,3.8-0.8c1.9,0,4.5,0.8,6.3,1.4c1.2,0.4,2.8,0.9,4,1l0.2,0l-0.3,2.2l-0.2,0
				c-1.4-0.2-3.1-0.7-4.5-1.1c-1.5-0.5-4-1.3-5.6-1.3c-1,0-2.1,0.4-3,0.7c-1.4,0.4-2.8,1-4.3,1h-20.6c-1.5,0-2.9-0.5-4.3-1
				c-0.9-0.3-2-0.7-3-0.7c-1.6,0-4.1,0.8-5.6,1.3c-1.4,0.4-3,0.9-4.5,1.1l-0.2,0l-0.3-2.2L134.1,144.7z"/>
			<path class="st11" d="M134.1,144.9c1-0.1,2.5-0.6,4-1c2.2-0.7,4.6-1.4,6.3-1.4c1.2,0,2.5,0.4,3.7,0.8c1.2,0.4,2.4,0.8,3.6,0.8
				H162h10.3c1.2,0,2.4-0.4,3.6-0.8c1.3-0.4,2.5-0.8,3.7-0.8c1.7,0,4,0.7,6.3,1.4c1.6,0.5,3.1,0.9,4.1,1l-0.3,1.9
				c-1.1-0.1-2.7-0.6-4.4-1.1c-2.1-0.6-4.3-1.3-5.6-1.3c-0.9,0-2,0.3-3.1,0.7c-1.4,0.4-2.8,1-4.2,1H162h-10.3c-1.5,0-2.9-0.5-4.2-1
				c-1.1-0.3-2.2-0.7-3.1-0.7c-1.3,0-3.6,0.7-5.6,1.3c-1.7,0.5-3.3,1-4.4,1.1L134.1,144.9z"/>
			<path class="st2" d="M134.1,146.8c1.3-0.1,2.8-0.7,4-1c1.8-0.6,4.4-1.4,6.3-1.4c1.3,0,2.6,0.4,3.8,0.8c1.1,0.3,2.4,0.7,3.5,0.7
				h20.6c1.2,0,2.4-0.4,3.5-0.7c1.2-0.4,2.5-0.8,3.8-0.8c1.9,0,4.5,0.8,6.3,1.4c1.2,0.4,2.8,0.9,4,1l0.2,0l-0.3,2.2l-0.2,0
				c-1.4-0.2-3.1-0.7-4.5-1.1c-1.5-0.5-4-1.3-5.6-1.3c-1,0-2.1,0.4-3,0.7c-1.4,0.4-2.8,1-4.3,1h-20.6c-1.5,0-2.9-0.5-4.3-1
				c-0.9-0.3-2-0.7-3-0.7c-1.6,0-4.1,0.8-5.6,1.3c-1.4,0.4-3,0.9-4.5,1.1l-0.2,0l-0.3-2.2L134.1,146.8z"/>
			<path class="st12" d="M134.1,147c1-0.1,2.5-0.6,4-1c2.2-0.7,4.6-1.4,6.3-1.4c1.2,0,2.5,0.4,3.7,0.8c1.2,0.4,2.4,0.8,3.6,0.8H162
				h10.3c1.2,0,2.4-0.4,3.6-0.8c1.3-0.4,2.5-0.8,3.7-0.8c1.7,0,4,0.7,6.3,1.4c1.6,0.5,3.1,0.9,4.1,1l-0.3,1.9
				c-1.1-0.1-2.7-0.6-4.4-1.1c-2.1-0.6-4.3-1.3-5.6-1.3c-0.9,0-2,0.3-3.1,0.7c-1.4,0.4-2.8,1-4.2,1H162h-10.3c-1.5,0-2.9-0.5-4.2-1
				c-1.1-0.3-2.2-0.7-3.1-0.7c-1.3,0-3.6,0.6-5.6,1.3c-1.7,0.5-3.3,1-4.4,1.1L134.1,147z"/>
			<path class="st2" d="M134.1,148.9c1.3-0.1,2.8-0.6,4-1c1.8-0.5,4.4-1.4,6.3-1.4c1.3,0,2.6,0.4,3.8,0.8c1.1,0.3,2.4,0.8,3.5,0.8
				h20.6c1.2,0,2.4-0.4,3.5-0.8c1.2-0.4,2.5-0.8,3.8-0.8c1.9,0,4.5,0.8,6.3,1.4c1.2,0.4,2.8,0.9,4,1l0.2,0l-0.3,2.2l-0.2,0
				c-1.4-0.2-3.1-0.7-4.5-1.1c-1.5-0.5-4-1.3-5.6-1.3c-1,0-2.1,0.4-3,0.7c-1.4,0.4-2.8,0.9-4.3,0.9h-20.6c-1.5,0-2.9-0.4-4.3-0.9
				c-0.9-0.3-2-0.7-3-0.7c-1.6,0-4.1,0.8-5.6,1.3c-1.4,0.4-3,0.9-4.5,1.1l-0.2,0l-0.3-2.2L134.1,148.9z"/>
			<path class="st13" d="M134.1,149.1c1-0.1,2.5-0.6,4-1c2.2-0.7,4.6-1.4,6.3-1.4c1.2,0,2.5,0.4,3.7,0.8c1.2,0.4,2.4,0.8,3.6,0.8
				H162h10.3c1.2,0,2.4-0.4,3.6-0.8c1.3-0.4,2.5-0.8,3.7-0.8c1.7,0,4,0.7,6.3,1.4c1.6,0.5,3.1,0.9,4.1,1l-0.3,1.9
				c-1.1-0.1-2.7-0.6-4.4-1.1c-2.1-0.6-4.3-1.3-5.6-1.3c-0.9,0-2,0.3-3.1,0.7c-1.4,0.4-2.8,0.9-4.2,0.9H162h-10.3
				c-1.5,0-2.9-0.4-4.2-0.9c-1.1-0.3-2.2-0.7-3.1-0.7c-1.3,0-3.6,0.7-5.6,1.3c-1.7,0.5-3.3,1-4.4,1.1L134.1,149.1z"/>
			<path class="st2" d="M206.3,140.3c-0.4,3.2-1.1,6.2-2.2,9.1l-3.8-1.1c-0.9,2.3-2,4.6-3.3,6.7l3.4,2.1c-1.8,2.9-3.9,5.5-6.4,7.9
				l-3-2.5c-1.7,1.7-3.7,3.2-5.7,4.6l1.8,3.5c-2.1,1.3-4.3,2.5-6.6,3.5l-5.2-12.9c-0.1-0.4-0.3-0.7-0.5-1.1c8.1-3.8,14-11,15.7-19.7
				H206.3z M133.6,140.3c1.7,8.7,7.6,15.9,15.7,19.7c-0.2,0.4-0.4,0.7-0.5,1.1l-5.2,12.9c-2.3-1-4.5-2.2-6.6-3.5l1.8-3.5
				c-2-1.4-4-2.9-5.7-4.6l-3,2.5c-2.4-2.4-4.6-5-6.4-7.9l3.4-2.1c-1.3-2.1-2.4-4.3-3.3-6.7l-3.9,1.1c-1.1-2.9-1.8-6-2.2-9.1H133.6z"
				/>
			<path class="st8" d="M120,149.2l3.9-1.1l0.1,0.2c0.9,2.3,2,4.5,3.3,6.6l0.1,0.2l-3.4,2.1c1.7,2.7,3.8,5.3,6.1,7.6l3-2.5l0.1,0.1
				c1.7,1.7,3.6,3.2,5.7,4.6l0.1,0.1l-1.8,3.5c2,1.3,4.1,2.4,6.3,3.4l5.1-12.7c0.1-0.3,0.3-0.6,0.4-0.9
				c-8.1-3.9-13.9-11.1-15.6-19.6h-15.5C118.3,143.4,119,146.3,120,149.2z M190.6,140.5c-1.7,8.5-7.5,15.7-15.6,19.6
				c0.1,0.3,0.3,0.6,0.4,0.9l5.1,12.7c2.2-1,4.3-2.1,6.3-3.4l-1.8-3.5l0.1-0.1c2-1.4,3.9-2.9,5.7-4.6l0.1-0.1l3,2.5
				c2.3-2.3,4.4-4.8,6.1-7.6l-3.4-2.1l0.1-0.2c1.3-2.1,2.4-4.3,3.3-6.6l0.1-0.2l3.8,1.1c1-2.8,1.7-5.7,2.1-8.7H190.6z"/>
			<path class="st9" d="M200.9,140.3c-1.2,8-5.3,15.1-11.1,20.6c-3.3,3.1-7.3,5.7-11.7,7.5l-0.2-0.4c4.3-1.8,8.2-4.3,11.5-7.4
				c5.8-5.4,9.7-12.4,11-20.2H200.9z M123.5,140.3c1.2,7.8,5.2,14.9,11,20.2c3.3,3.1,7.2,5.6,11.5,7.4l-0.2,0.4
				c-4.4-1.8-8.3-4.4-11.7-7.5c-5.9-5.4-9.9-12.6-11.1-20.6H123.5z M197.1,140.3c-1.2,7-4.8,13.3-10,18.1c-3,2.7-6.4,5-10.3,6.7
				l-0.2-0.4c3.8-1.6,7.2-3.9,10.2-6.6c5.1-4.7,8.6-10.9,9.8-17.7H197.1z M127.4,140.3c1.2,6.9,4.7,13,9.8,17.7
				c2.9,2.7,6.4,4.9,10.2,6.6l-0.2,0.4c-3.8-1.6-7.3-3.9-10.3-6.7c-5.2-4.8-8.7-11.1-10-18.1H127.4z"/>
			<path class="st2" d="M172.9,150.1L179,164c-0.7,0.4-1.5,0.7-2.2,1.1l0-0.1l-1.5-3.8c-2-5-7.6-9.1-13.2-9.1s-11.2,4.1-13.2,9.1
				l-1.5,3.7l-0.1,0.2c-0.8-0.3-1.5-0.7-2.2-1.1l6.2-13.8H172.9z"/>
			<path class="st3" d="M151.3,150.3l-6,13.3c0.6,0.3,1.3,0.6,1.9,0.9l1.4-3.5c2-5.1,7.7-9.2,13.4-9.2c5.7,0,11.4,4.2,13.4,9.2
				l1.4,3.5c0.6-0.3,1.3-0.6,1.9-0.9l-6-13.3H151.3z"/>
			<path class="st9" d="M129.8,148.5l5.5-2.4l0.3,0.6l-5.6,2.4L129.8,148.5z M194.2,148.5l-5.5-2.4l-0.3,0.6l5.5,2.4L194.2,148.5z
				 M185.8,159.2l-3.7-4l-0.5,0.4l3.7,4L185.8,159.2z M138.2,159.2l3.6-4l0.5,0.4l-3.6,4L138.2,159.2z"/>
			<g>
				<polygon class="st2" points="161,155.8 162.5,157.1 163.9,155.8 162.9,154.8 164.3,153.5 166.9,155.9 166.8,158.7 165.3,157.2 
					163.9,158.5 166.3,160.8 164.8,162.2 162.5,159.9 160.1,162.2 158.7,160.8 161.1,158.5 159.6,157.2 158.6,158.2 157.1,156.8 
					160.5,153.5 162,154.8 				"/>
				<polygon class="st3" points="161.7,154.8 160.5,153.7 157.4,156.8 158.6,157.9 159.6,156.9 161.3,158.5 159,160.8 160.1,161.9 
					162.5,159.7 164.8,161.9 166,160.8 163.7,158.5 165.3,157 166.6,158.3 166.7,156 164.3,153.7 163.1,154.8 164.1,155.8 
					162.5,157.4 160.8,155.8 				"/>
			</g>
			<g>
				<path class="st2" d="M162,164.3c-1.6,0-5.1-2.3-10.5-3.6c-1.8,4.8-3.6,9.6-5.4,14.4c3.5,0.4,7.7,1.1,11,2.4
					c2.1,0.8,3.1,1.7,5,1.7s2.9-0.8,5-1.7c3.3-1.3,7.5-2,11-2.4c-1.8-4.8-3.6-9.6-5.4-14.4C167.1,162,163.6,164.3,162,164.3z"/>
				<path class="st7" d="M146.3,174.9c3.6,0.4,7.5,1.1,10.8,2.4c1.6,0.7,3.1,1.7,4.9,1.7s3.3-1,4.9-1.7c3.3-1.3,7.3-2,10.8-2.4
					c-1.8-4.7-3.5-9.4-5.3-14.1c-2.3,0.6-4.4,1.4-6.6,2.3c-0.9,0.4-2.9,1.3-3.9,1.3c-1,0-2.9-0.9-3.9-1.3c-2.1-0.9-4.3-1.7-6.5-2.3
					C149.8,165.5,148,170.2,146.3,174.9z"/>
			</g>
			<path class="st9" d="M173.7,172.4h-2.6c0-0.4,0.1-0.8,0.3-1.1c0.1-0.3,0.4-0.8,0.9-1.2c0.2-0.3,0.4-0.5,0.5-0.7
				c0.1-0.2,0.1-0.3,0.1-0.4c0-0.1,0-0.3-0.1-0.4c-0.1-0.1-0.2-0.2-0.3-0.2c-0.1,0-0.2,0-0.3,0.2s-0.1,0.3-0.1,0.6l-0.9-0.1
				c0-0.4,0.1-0.7,0.2-0.9c0.1-0.2,0.2-0.4,0.4-0.5c0.2-0.1,0.4-0.2,0.7-0.2c0.3,0,0.5,0.1,0.7,0.2c0.2,0.1,0.3,0.3,0.4,0.5
				c0.1,0.2,0.1,0.5,0.1,0.7c0,0.3,0,0.6-0.2,0.9c-0.1,0.3-0.3,0.6-0.6,0.9c-0.2,0.2-0.3,0.3-0.3,0.4c-0.1,0.1-0.1,0.2-0.2,0.3h1.3
				V172.4z M170.2,167.5v4.9h-0.9v-3.2c-0.1,0.2-0.3,0.3-0.4,0.4c-0.1,0.1-0.3,0.2-0.5,0.3v-1.1c0.3-0.2,0.5-0.3,0.7-0.5
				c0.2-0.2,0.3-0.5,0.4-0.8H170.2z M167,169.1c0-0.3,0-0.5-0.1-0.6c-0.1-0.1-0.2-0.2-0.3-0.2c-0.1,0-0.2,0.1-0.3,0.2
				c-0.1,0.1-0.1,0.3-0.1,0.6c0,0.3,0,0.5,0.1,0.6c0.1,0.1,0.2,0.2,0.3,0.2c0.1,0,0.2-0.1,0.3-0.2C166.9,169.6,167,169.4,167,169.1z
				 M165.4,171.3l0.9-0.2c0,0.2,0.1,0.3,0.1,0.4c0.1,0.1,0.1,0.1,0.2,0.1c0.1,0,0.2-0.1,0.3-0.3c0-0.2,0.1-0.5,0.1-1
				c-0.1,0.2-0.2,0.3-0.3,0.4c-0.1,0.1-0.2,0.1-0.4,0.1c-0.3,0-0.5-0.2-0.7-0.5c-0.2-0.3-0.3-0.7-0.3-1.2c0-0.3,0-0.6,0.1-0.9
				c0.1-0.3,0.2-0.5,0.4-0.6s0.4-0.2,0.6-0.2c0.3,0,0.6,0.1,0.8,0.3c0.2,0.2,0.3,0.4,0.4,0.8c0.1,0.4,0.2,0.8,0.2,1.4
				c0,0.9-0.1,1.5-0.4,1.9c-0.2,0.4-0.6,0.6-1,0.6c-0.3,0-0.4,0-0.6-0.1c-0.1-0.1-0.3-0.2-0.4-0.4
				C165.5,171.8,165.4,171.5,165.4,171.3z M164.4,167.5v4.9h-0.9v-3.2c-0.1,0.2-0.3,0.3-0.4,0.4c-0.1,0.1-0.3,0.2-0.5,0.3v-1.1
				c0.3-0.2,0.5-0.3,0.7-0.5c0.2-0.2,0.3-0.5,0.4-0.8H164.4z M157.6,167.5h1.1l0.5,1.5l0.5-1.5h1l-1,2.3l1.1,2.5h-1.1l-0.6-1.5
				l-0.6,1.5h-1.1l1.1-2.5L157.6,167.5z M156.3,171h0.9v1.3h-0.9V171z M154.2,169.9c0,0.6,0,1,0.1,1.3c0.1,0.2,0.2,0.3,0.3,0.3
				c0.1,0,0.2,0,0.2-0.1c0.1-0.1,0.1-0.3,0.1-0.5c0-0.2,0-0.5,0-1c0-0.6,0-1.1-0.1-1.3c-0.1-0.2-0.2-0.3-0.3-0.3
				c-0.1,0-0.2,0.1-0.3,0.3C154.2,168.9,154.2,169.3,154.2,169.9z M153.3,169.9c0-0.9,0.1-1.6,0.3-1.9c0.2-0.4,0.5-0.6,1-0.6
				c0.2,0,0.4,0,0.5,0.1c0.1,0.1,0.2,0.2,0.3,0.3c0.1,0.1,0.2,0.3,0.2,0.4c0,0.1,0.1,0.3,0.1,0.5c0.1,0.4,0.1,0.7,0.1,1.1
				c0,0.9-0.1,1.5-0.3,1.9c-0.2,0.4-0.5,0.6-1,0.6c-0.3,0-0.5-0.1-0.6-0.2c-0.2-0.1-0.3-0.3-0.4-0.6c-0.1-0.2-0.1-0.4-0.2-0.7
				C153.3,170.6,153.3,170.3,153.3,169.9z M152.9,172.4h-2.6c0-0.4,0.1-0.8,0.3-1.1c0.2-0.3,0.4-0.8,0.9-1.2
				c0.3-0.3,0.4-0.5,0.5-0.7c0.1-0.2,0.1-0.3,0.1-0.4c0-0.1,0-0.3-0.1-0.4c-0.1-0.1-0.2-0.2-0.3-0.2c-0.1,0-0.2,0-0.3,0.2
				c-0.1,0.1-0.1,0.3-0.1,0.6l-0.9-0.1c0-0.4,0.1-0.7,0.2-0.9c0.1-0.2,0.2-0.4,0.4-0.5c0.2-0.1,0.4-0.2,0.7-0.2
				c0.3,0,0.5,0.1,0.7,0.2c0.2,0.1,0.3,0.3,0.4,0.5c0.1,0.2,0.1,0.5,0.1,0.7c0,0.3-0.1,0.6-0.2,0.9c-0.1,0.3-0.3,0.6-0.6,0.9
				c-0.2,0.2-0.3,0.3-0.3,0.4c-0.1,0.1-0.1,0.2-0.2,0.3h1.3V172.4z M161.3,171h0.9v1.3h-0.9V171z"/>
			<path class="st2" d="M162,185.5c0.5-0.1,1.4-0.7,1.8-0.9c1.3-0.7,2.6-1.4,4-1.9c10.3-4.2,21.3-8.9,29.5-16.5
				c7.9-7.3,11.7-16.1,12.8-25.9h-96.1c1.2,9.9,5,18.6,12.9,25.9c8.1,7.6,19.2,12.3,29.5,16.5c1.4,0.6,2.7,1.2,4,1.9
				C160.6,184.9,161.5,185.4,162,185.5z M162,185.3c0.5-0.2,1.2-0.6,1.6-0.8c1.3-0.7,2.6-1.4,4-1.9c10.3-4.2,21.2-8.9,29.4-16.5
				c7.6-7,11.5-15.5,12.7-25.5h-95.6c1.2,10,5.2,18.5,12.7,25.5c8.1,7.6,19.1,12.3,29.4,16.5c1.4,0.6,2.7,1.2,4,1.9
				C160.8,184.7,161.5,185.1,162,185.3z M204.5,84.3c-1.5-4.5-2.9-9.1-4.4-13.6c-12.7,0-25.4,0-38.1,0s-25.4,0-38.1,0
				c-1.5,4.5-2.9,9.1-4.4,13.6c8.5,3.9,9.3,12.1,5.2,19.6c-2.3,4.2-5,8.2-7,12.5c-2.5,5.3-3.8,10.7-3.8,16.6c0,1.7,0.1,3.4,0.2,5.1
				H210c0.1-1.7,0.2-3.4,0.2-5.1c0-5.9-1.3-11.3-3.8-16.6c-2-4.3-4.8-8.3-7-12.5C195.3,96.4,196,88.2,204.5,84.3z M210.3,138.4
				c0.1-1.8,0.2-3.5,0.2-5.3c0-6-1.3-11.3-3.9-16.7c-2.1-4.4-4.8-8.3-7-12.5c-4.2-7.9-3-15.7,5.3-19.4c-1.5-4.7-3-9.3-4.5-14
				c-12.8,0-25.5,0-38.3,0s-25.6,0-38.3,0c-1.5,4.7-3,9.3-4.5,14c8.3,3.7,9.5,11.5,5.3,19.4c-2.3,4.2-5,8.1-7,12.5
				c-2.6,5.4-3.9,10.8-3.9,16.7c0,1.8,0.1,3.6,0.2,5.3H210.3z"/>
		</g>
	</g>
</g>
</svg>
