<?xml version="1.0" encoding="UTF-8" standalone="no"?>
<!-- Generator: Adobe Illustrator 26.3.1, SVG Export Plug-In . SVG Version: 6.00 Build 0)  -->

<svg
   width="2100"
   height="1200"
   version="1.1"
   viewBox="0 0 2100 1200"
   xml:space="preserve"
   id="svg217"
   sodipodi:docname="Flag_of_Quintana_Roo.svg"
   inkscape:version="1.1.2 (0a00cf5339, 2022-02-04)"
   xmlns:inkscape="http://www.inkscape.org/namespaces/inkscape"
   xmlns:sodipodi="http://sodipodi.sourceforge.net/DTD/sodipodi-0.dtd"
   xmlns="http://www.w3.org/2000/svg"
   xmlns:svg="http://www.w3.org/2000/svg"><defs
   id="defs221" /><sodipodi:namedview
   id="namedview219"
   pagecolor="#ffffff"
   bordercolor="#666666"
   borderopacity="1.0"
   inkscape:pageshadow="2"
   inkscape:pageopacity="0.0"
   inkscape:pagecheckerboard="0"
   showgrid="false"
   inkscape:zoom="0.19047689"
   inkscape:cx="1244.2454"
   inkscape:cy="514.49811"
   inkscape:window-width="1920"
   inkscape:window-height="1008"
   inkscape:window-x="0"
   inkscape:window-y="0"
   inkscape:window-maximized="1"
   inkscape:current-layer="svg217" />
<style
   type="text/css"
   id="style2">
	.Arched_x0020_Green{fill:url(#SVGID_1_);stroke:#FFFFFF;stroke-width:0.25;stroke-miterlimit:1;}
	.st0{fill:#FFFFFF;}
	.st1{fill:#3D3A39;}
	.st2{fill:#403D3C;}
	.st3{fill:#BAB7B6;}
	.st4{fill:#A4A0A0;}
	.st5{fill:#4F4B4A;}
	.st6{fill:#B8B5B5;}
	.st7{fill:#9F9B9B;}
	.st8{fill:#D0CECD;}
	.st9{fill:#726D6C;}
	.st10{fill:#4D4948;}
	.st11{fill:#D0CDCD;}
	.st12{fill:#5F5E5E;}
	.st13{fill:#938F8E;}
	.st14{fill:#6A6664;}
	.st15{fill:#969191;}
	.st16{fill:#6F6B6A;}
	.st17{fill:#C8C8C9;}
	.st18{fill:#9F9D9D;}
	.st19{fill:#DC5B2A;}
	.st20{fill:#FBB430;}
	.st21{fill:#1E6CB5;}
	.st22{fill:#DC5C2A;}
	.st23{fill:#FCB530;}
	.st24{fill:#DFE0E2;}
	.st25{fill:#BEBAB9;}
	.st26{fill:#FDFEFF;}
	.st27{fill:#B6B5B5;}
	.st28{fill:#989392;}
	.st29{fill:#CDD1D3;}
	.st30{fill:#595453;}
	.st31{fill:#D0CFD0;}
	.st32{fill:#989EA1;}
	.st33{fill:#E0EBF0;}
	.st34{fill:#9EA8AD;}
	.st35{fill:#CDDAE1;}
	.st36{fill:#C2C8CB;}
	.st37{fill:#5C5C5C;}
	.st38{fill:#C5C5C6;}
	.st39{fill:#C0BDBC;}
	.st40{fill:#B4B0B0;}
	.st41{fill:#898888;}
	.st42{fill:#9E9D9D;}
	.st43{fill:#99A1A4;}
	.st44{fill:#83888A;}
	.st45{fill:#67696B;}
	.st46{fill:#4D4D4D;}
	.st47{fill:#666A6B;}
	.st48{fill:#D1CBC9;}
	.st49{fill:#3F3D3B;}
	.st50{fill:#8C8988;}
	.st51{fill:#757271;}
	.st52{fill:#5F5C5B;}
	.st53{fill:#E9E8E7;}
	.st54{fill:#DBDDDE;}
	.st55{fill:#C5CACE;}
	.st56{fill:#A6AFB3;}
	.st57{fill:#818A8E;}
	.st58{fill:#ADA9A9;}
	.st59{fill:#909192;}
	.st60{fill:#6F7072;}
	.st61{fill:#4D4F4F;}
	.st62{fill:#CED8DE;}
	.st63{fill:#B0B4B6;}
	.st64{fill:#878484;}
	.st65{fill:#168D4E;}
	.st66{fill:#9DA2AA;}
	.st67{fill:#DCA131;}
	.st68{fill:#5F5029;}
	.st69{fill:#AB8333;}
</style>
<linearGradient
   id="SVGID_1_"
   x1="880.92133"
   x2="881.62842"
   y1="969.59448"
   y2="968.88739"
   gradientUnits="userSpaceOnUse">
	<stop
   stop-color="#20AC4B"
   offset="0"
   id="stop4" />
	<stop
   stop-color="#19361A"
   offset=".9831"
   id="stop6" />
</linearGradient>
<rect
   class="st0"
   width="2100"
   height="1200"
   stroke-width="1.09382"
   id="rect9"
   x="0"
   y="0" />
<g
   transform="matrix(1.8594459,0,0,1.8644206,-673.24148,-421.98217)"
   id="g215">
	<path
   d="m 1060.7,469.3 v 235.6 c -0.2,0.3 -0.1,0.6 -0.1,0.8 v 0.5 0.6 c 0,7.3 -4.3,15.7 -13.3,19.1 -3.3,1.3 -6.7,2.1 -10.3,2.2 -0.5,0 -1,0.2 -1.5,0.1 h -0.8 -1 -0.8 c -0.5,0.1 -1,-0.1 -1.5,0.1 H 823 c -0.3,-0.2 -0.6,-0.1 -0.9,-0.1 h -0.5 -1 -0.7 c -4.5,-0.1 -8.9,-1.1 -13.1,-2.8 -6.8,-2.9 -11.1,-8 -13,-15 -0.4,-1.3 -0.7,-2.6 -0.7,-3.9 0,-0.5 0.1,-1 -0.1,-1.5 v -0.5 c 0,-0.3 0.1,-0.6 -0.2,-0.8 V 469.3 c 0.6,-0.6 1.4,-0.4 2.1,-0.4 h 25.8 c 2.4,0 2.5,0 2.5,-2.6 0.1,-4.2 0.7,-8.4 1.3,-12.5 0.3,-1.7 0.7,-3.5 1,-5.2 0.3,-1.5 0.7,-1.8 2.3,-1.5 4.9,1 9.8,1.9 14.5,3.3 0.5,0.1 0.8,0.3 1.2,0.3 0.4,0.1 0.7,0.2 1.1,0.2 0.2,0.2 0.6,0.2 0.8,0.4 -0.3,-0.2 -0.6,-0.2 -0.8,-0.4 -0.3,0 -0.7,-0.1 -1,-0.2 -0.3,0 -0.6,-0.1 -0.9,-0.2 -5,-1.5 -9.9,-3.2 -14.9,-5 -1.1,-0.4 -1.4,-0.9 -1,-2 2.3,-8.1 5.6,-15.8 9.6,-23.3 0.6,-1.1 0.9,-1.2 2.1,-0.6 2.8,1.4 5.5,2.9 8.2,4.3 2,1.1 4.1,2.1 6,3.4 0.3,0.2 0.6,0.4 1,0.6 0.2,0.1 0.3,0.2 0.5,0.3 0.2,0.1 0.2,0.2 0.4,0.2 0.1,0.1 0.3,0.2 0.4,0.3 0.1,0.1 0.2,0.2 0.4,0.2 h 0.1 -0.1 c -0.2,0 -0.2,-0.1 -0.4,-0.2 -0.1,-0.1 -0.3,-0.2 -0.4,-0.3 -0.1,0 -0.2,-0.1 -0.3,-0.1 -0.2,-0.1 -0.4,-0.3 -0.7,-0.4 -0.3,-0.2 -0.6,-0.3 -0.9,-0.5 -4.6,-2.9 -8.9,-6.2 -13.3,-9.4 -0.9,-0.6 -0.9,-1.2 -0.5,-2 3,-4.5 6.2,-8.9 9.8,-13 1.9,-2.2 4,-4.3 6.1,-6.5 1,-1.2 1.6,-1.2 2.7,-0.1 3.4,3.4 6.9,6.7 10.1,10.2 0.6,0.5 1,1.1 1.6,1.7 0.1,0.1 0.2,0.3 0.3,0.4 l 0.6,0.6 c 0.1,0.1 0.1,0.2 0.3,0.3 0,0 0,0.1 0.1,0.2 l 0.1,0.1 -0.3,-0.3 c -0.1,-0.1 -0.2,-0.2 -0.2,-0.3 l -0.6,-0.6 c -0.1,-0.1 -0.1,-0.2 -0.2,-0.3 -0.6,-0.6 -1.1,-1.3 -1.7,-1.9 -3,-3.8 -6,-7.7 -8.9,-11.5 -0.9,-1.2 -0.8,-1.4 0.2,-2.3 6.3,-5.2 12.9,-9.8 20.1,-13.6 0.3,-0.2 0.7,-0.4 1,-0.5 1.1,-0.5 1.5,-0.4 2.1,0.7 2.6,4.9 5.5,9.7 7.9,14.7 0.1,0.2 0.2,0.4 0.2,0.6 0.1,0.3 0.2,0.6 0.4,0.8 0.1,0.2 0.1,0.4 0.2,0.5 v 0.1 l 0.1,-0.1 c -0.1,0 -0.2,-0.1 -0.2,-0.2 0,-0.2 -0.1,-0.4 -0.2,-0.6 -0.1,-0.2 -0.2,-0.4 -0.2,-0.6 -0.1,-0.3 -0.3,-0.5 -0.4,-0.8 -2.4,-5.1 -4.2,-10.5 -6.2,-15.6 -0.4,-1 0,-1.5 0.8,-1.8 6.5,-2.7 13.1,-5 20,-6.5 1.3,-0.3 2.6,-0.5 3.9,-0.8 1.8,-0.4 2.1,-0.2 2.5,1.6 0.9,4.5 2,9 2.7,13.6 0,0.3 0.2,0.5 0.2,0.8 0,0.4 0.1,0.9 0.1,1.3 0.1,0.2 0.1,0.3 0.1,0.5 0,0.4 0.2,0.7 0.2,1 -0.1,-0.5 -0.2,-1.1 -0.3,-1.7 -0.2,-0.7 -0.1,-1.5 -0.4,-2.2 -0.5,-4.7 -0.9,-9.3 -1.2,-14 -0.1,-1.5 0.1,-1.7 1.6,-1.8 1.7,-0.1 3.5,-0.2 5.2,-0.2 h 1.1 0.8 0.8 c 0.6,-0.1 1.2,0.1 1.8,-0.1 h 6 c 0.3,0.2 0.7,0.1 1,0.1 h 0.6 0.8 1 c 2.1,0 4.2,0.2 6.3,0.2 0.9,0.1 1.3,0.5 1.4,1.4 0.1,1.5 -0.1,3.1 -0.3,4.6 -0.4,3.9 -0.6,7.9 -1.2,11.9 -0.4,0.7 -0.2,1.5 -0.4,2.2 -0.1,0.4 -0.2,0.9 -0.2,1.3 -0.1,0.2 0.1,0.1 0.1,0 -0.2,-0.3 0,-0.6 0.1,-0.9 0,-0.6 0.2,-1.1 0.2,-1.7 0.8,-5.4 2.2,-10.8 3.2,-16.1 0.4,-2.1 0.6,-2.1 2.7,-1.7 8,1.6 15.6,4 23,7.2 1.8,0.8 2,1 1.3,2.8 -2,4.7 -3.6,9.6 -5.8,14.3 -0.2,0.4 -0.4,0.9 -0.6,1.3 -0.1,0.2 -0.3,0.4 -0.3,0.6 l -0.3,0.3 0.1,0.1 c 0,-0.1 0,-0.2 0.1,-0.2 0.1,-0.3 0.3,-0.5 0.4,-0.7 0.2,-0.4 0.3,-0.7 0.5,-1.1 2.3,-4.7 5,-9.3 7.5,-14 0.7,-1.3 1,-1.4 2.4,-0.7 6.4,3.4 12.4,7.3 18,12 1,0.8 2,1.6 2.9,2.4 0.6,0.5 0.8,1.1 0.3,1.8 -3.3,4.3 -6.5,8.6 -10.1,12.7 -0.3,0.4 -0.7,0.8 -1.1,1.3 -0.1,0.1 -0.1,0.2 -0.3,0.3 l -0.3,0.3 c 0,0.1 -0.1,0.2 -0.2,0.2 v 0.1 -0.1 c 0.1,0 0.2,-0.1 0.2,-0.2 l 0.6,-0.6 c 0.4,-0.4 0.8,-0.8 1.1,-1.3 3.5,-3.8 7.3,-7.3 10.9,-11 1.3,-1.3 1.5,-1.3 2.8,0 5.8,5.9 10.9,12.3 15.4,19.3 0.5,0.8 0.5,1.5 -0.4,2.1 -4.1,2.9 -8,5.9 -12.2,8.6 -0.5,0.3 -0.9,0.6 -1.4,0.8 -0.2,0.1 -0.2,0.1 -0.3,0.1 -0.2,0.1 -0.3,0.2 -0.5,0.3 0,0 -0.1,0.1 -0.2,0.1 v 0.1 -0.1 c 0.1,0 0.2,-0.1 0.3,-0.1 0.2,-0.1 0.2,-0.2 0.3,-0.2 0.2,-0.1 0.3,-0.2 0.4,-0.3 0.5,-0.3 0.9,-0.6 1.4,-0.8 4.2,-2.6 8.6,-4.7 12.9,-7.1 1,-0.5 1.4,-0.4 2,0.6 3.4,6.5 6.4,13.2 8.5,20.3 0.3,1.1 0.7,2.2 1,3.3 0.2,0.8 0,1.3 -0.7,1.5 -4.8,1.5 -9.5,3.5 -14.4,4.7 -0.3,0.1 -0.6,0.3 -0.8,0.3 -0.3,0.2 -0.7,0.2 -1.1,0.4 -0.1,0 -0.2,0.1 -0.2,0.1 -0.1,0 -0.3,0.2 -0.4,-0.1 0.1,0.2 0.3,0.1 0.4,0 0.2,0 0.2,-0.1 0.3,-0.1 0.4,0 0.7,-0.1 1,-0.3 0.4,0 0.7,-0.2 1.1,-0.3 4.4,-1.3 8.8,-2.1 13.3,-3 1.9,-0.4 2.4,-0.1 2.7,1.8 1.1,5.5 1.9,11.1 2.1,16.7 0.2,3.5 0.1,2.9 3,2.9 h 26.6 c 1.2,0.3 1.9,0.2 2.6,0.8 z"
   id="path11" />
	<path
   class="st1"
   d="m 923.8,368.1 c -0.6,0.4 -1.2,0.2 -1.8,0.2 -0.1,-0.1 -0.1,-0.1 0,-0.1 v -0.1 z"
   id="path13" />
	<path
   class="st2"
   d="m 1031.5,728.4 c 0.4,-0.4 1,-0.2 1.5,-0.2 v 0.2 c 0,0 0,0.1 -0.1,0.1 -0.4,-0.1 -1,-0.1 -1.4,-0.1 z"
   id="path15" />
	<path
   class="st3"
   d="m 919.5,368.3 c 0,-0.1 0,-0.1 0.1,-0.2 h 1 l 0.1,0.1 v 0.1 c -0.5,0 -0.9,0.1 -1.2,0 z"
   id="path17" />
	<path
   class="st4"
   d="m 1033.8,728.2 h 1 c 0.1,0.1 0.1,0.1 0.1,0.2 l -0.1,0.1 h -1 c -0.2,-0.1 -0.2,-0.1 -0.2,-0.2 0.1,-0.1 0.2,-0.1 0.2,-0.1 z"
   id="path19" />
	<path
   class="st5"
   d="m 930.8,368.3 c -0.4,0 -0.7,0.1 -1,-0.2 h 1 c 0,0 0.1,0 0,0.2 z"
   id="path21" />
	<path
   class="st6"
   d="m 933,368.1 v 0.2 c -0.3,0.1 -0.6,0 -1,0 -0.1,0 -0.1,-0.1 -0.1,-0.1 0,-0.1 0.1,-0.1 0.1,-0.1 z"
   id="path23" />
	<path
   class="st7"
   d="m 820.7,728.2 h 1 c 0.1,0 0.2,0.1 0.1,0.1 0,0.1 0,0.1 -0.1,0.1 h -1 c 0,0 -0.1,-0.1 0,-0.2 z"
   id="path25" />
	<path
   class="st8"
   d="m 1034.7,728.4 v -0.2 h 0.7 v 0.2 z"
   id="path27" />
	<path
   class="st9"
   d="m 1033.8,728.2 v 0.2 h -0.8 v -0.2 z"
   id="path29" />
	<path
   class="st10"
   d="m 822.3,728.2 c 0.3,0 0.6,-0.1 0.8,0.2 h -0.8 c -0.1,0 -0.1,-0.1 0,-0.2 -0.1,0 0,0 0,0 z"
   id="path31" />
	<path
   class="st11"
   d="m 820.7,728.2 v 0.2 H 820 v -0.2 z"
   id="path33" />
	<path
   class="st12"
   d="m 1060.4,705.7 c 0,-0.3 -0.1,-0.6 0.2,-0.8 v 0.8 c 0.1,0.1 0,0.1 -0.2,0 z"
   id="path35" />
	<path
   d="m 793.1,703.7 c 0.3,0.2 0.3,0.4 0.2,0.8 -0.1,0.1 -0.1,0.1 -0.2,0 z"
   id="path37" />
	<path
   class="st13"
   d="m 932,368.1 v 0.2 h -0.7 c -0.1,0 -0.1,-0.1 -0.1,-0.1 l 0.1,-0.1 z"
   id="path39" />
	<path
   class="st14"
   d="m 922,368.1 v 0.2 h -0.8 c 0,0 -0.1,-0.1 0,-0.1 0,-0.1 0,-0.1 0.1,-0.1 z"
   id="path41" />
	<path
   class="st15"
   d="m 921.3,368.1 c 0,0.1 0,0.1 -0.1,0.2 h -0.7 v -0.2 z"
   id="path43" />
	<path
   class="st16"
   d="m 931.3,368.1 v 0.2 h -0.5 c -0.1,-0.1 -0.1,-0.1 -0.1,-0.2 z"
   id="path45" />
	<path
   class="st16"
   d="m 822.3,728.2 v 0.2 h -0.5 v -0.2 z"
   id="path47" />
	<path
   class="st17"
   d="m 1060.7,706.6 h -0.2 v -0.5 c 0.1,-0.2 0.1,-0.2 0.2,-0.1 z"
   id="path49" />
	<path
   class="st18"
   d="m 1060.7,706.1 c 0,0.1 -0.1,0.1 -0.2,0.1 v -0.5 h 0.2 z"
   id="path51" />
	<path
   d="m 793.2,704.6 h 0.2 v 0.5 c 0.4,0.1 0.2,2.2 0.1,2.2 -0.2,-0.2 -0.3,-2.5 -0.3,-2.7 z"
   id="path53" />
	<path
   class="st19"
   d="m 926.8,470.1 h -37.4 c -1.6,0 -1.5,0 -1.5,-1.6 0.4,-7.5 2.6,-14.3 6.9,-20.4 6.1,-8.7 14.5,-14.2 25,-16.1 13.1,-2.3 24.6,1.3 34.1,10.6 6.3,6.1 9.9,13.6 11.2,22.2 0.2,1.5 0.4,3 0.3,4.5 0,0.6 -0.2,0.9 -0.8,0.9 -0.3,-0.1 -0.7,0 -1,0 -12.1,-0.1 -24.5,-0.1 -36.8,-0.1 z"
   id="path55" />
	<path
   class="st20"
   d="m 927.2,601.5 h 126.9 c 1.9,0 1.6,-0.3 1.6,1.6 v 97.8 c 0,2.8 -0.3,5.5 -0.9,8.2 -1.5,6.8 -5.8,10.9 -12.5,12.6 -4.2,1 -8.6,1.3 -12.9,1.3 H 944.6 826.5 c -3.9,0 -7.8,-0.2 -11.7,-1 -3.3,-0.7 -6.4,-1.8 -9.1,-3.8 -3.7,-2.7 -5.7,-6.4 -6.6,-10.8 -0.4,-2 -0.5,-3.9 -0.5,-5.9 V 603 602.5 c 0,-0.9 0,-0.9 1,-0.9 h 1 c 42.1,-0.1 84.3,-0.1 126.6,-0.1 z"
   id="path57" />
	<path
   class="st21"
   d="m 992.4,596 h -61.3 c -1.8,0 -1.7,0.2 -1.7,-1.5 V 476.2 c 0,-1.7 -0.2,-1.5 1.6,-1.5 h 122.8 0.6 c 0.9,0 0.9,0 1,1 v 0.8 117.9 c 0,1.9 0.2,1.7 -1.8,1.7 -20.3,-0.1 -40.8,-0.1 -61.2,-0.1 z"
   id="path59" />
	<path
   class="st22"
   d="m 861.4,474.7 h 60.8 1.1 c 0.9,0.1 0.9,0.1 0.9,1 v 0.7 117.8 c 0,1.9 0.3,1.7 -1.7,1.7 H 800.3 c -2.1,0 -1.8,0.3 -1.8,-1.8 V 476.4 c 0,-2.1 -0.3,-1.8 1.8,-1.8 20.3,0.1 40.7,0.1 61.1,0.1 z"
   id="path61" />
	<path
   class="st23"
   d="m 909.6,430 c -1.1,-2.8 -2.2,-5.5 -3.2,-8.2 -5.3,-13.6 -10.6,-27.2 -16,-40.9 -0.1,-0.1 -0.1,-0.2 -0.1,-0.3 -0.4,-1 -0.4,-1 0.6,-1.3 2.7,-1.1 5.7,-2.1 8.6,-2.9 2.1,-0.6 4.3,-1.2 6.5,-1.6 0.9,-0.2 0.9,-0.2 1.1,0.7 1.1,5.1 2.1,10.2 3.2,15.2 2.4,11.8 4.9,23.5 7.4,35.3 0.1,0.3 0,0.5 0.1,0.8 0.2,0.5 -0.1,0.7 -0.5,0.8 -2.6,0.4 -5.1,1.3 -7.7,2.4 z"
   id="path63" />
	<path
   class="st23"
   d="m 889.6,447.2 c -14.7,-10.5 -29.3,-20.9 -44,-31.4 1.2,-2.6 8.5,-11.6 11.2,-13.8 0.2,0.3 0.5,0.8 0.8,1.1 12.1,12.2 24.3,24.3 36.4,36.5 l 0.5,0.5 c 0.5,0.3 0.4,0.6 0.1,1 -1.8,1.9 -3.2,3.9 -4.7,6 0,0 -0.1,0 -0.3,0.1 z"
   id="path65" />
	<path
   class="st23"
   d="m 898.4,437.2 c -11.1,-14.3 -22.2,-28.5 -33.4,-42.8 4.6,-3.8 9.4,-7 14.5,-9.8 0.4,0.1 0.5,0.5 0.7,0.8 8.3,15.3 16.5,30.6 24.8,45.9 0.5,0.9 0.6,0.8 -0.3,1.4 -2.3,1.3 -4.3,2.8 -6.3,4.5 z"
   id="path67" />
	<path
   class="st23"
   d="m 926.6,372.5 c 2.6,-0.1 5.3,0.1 8,0.3 1.2,0.1 1.2,0.1 1.1,1.2 -0.5,6.4 -1.1,12.8 -1.6,19.1 -0.4,4.5 -0.7,9 -1.1,13.5 -0.4,5.5 -0.9,10.9 -1.4,16.4 -0.1,1 -0.2,1.9 -0.2,2.9 -0.1,0.5 -0.2,0.7 -0.8,0.7 -2.5,-0.2 -4.9,-0.2 -7.3,0 -0.6,0 -0.8,-0.2 -0.9,-0.8 -0.3,-3.9 -0.6,-7.9 -1,-11.8 -0.3,-4.4 -0.7,-8.9 -1.1,-13.3 -0.4,-4.5 -0.7,-8.9 -1.1,-13.4 -0.4,-4.4 -0.8,-8.8 -1.1,-13.2 -0.2,-1.2 -0.2,-1.2 0.9,-1.3 2.6,-0.2 5,-0.3 7.6,-0.3 z"
   id="path69" />
	<path
   class="st23"
   d="m 944.2,430.3 c -2.6,-1.2 -5.4,-2.1 -8.2,-2.8 0.7,-3.5 1.4,-6.8 2.1,-10.2 2.5,-11.7 4.9,-23.5 7.4,-35.3 0.4,-2.1 0.9,-4.1 1.3,-6.2 0.2,-1 0.3,-1 1.2,-0.8 5,1.2 10,2.7 14.9,4.7 1,0.4 1,0.4 0.6,1.5 -6.4,16.2 -12.7,32.4 -19,48.5 -0.1,0.1 -0.2,0.3 -0.3,0.6 z"
   id="path71" />
	<path
   class="st23"
   d="m 955.3,437.6 c -2.1,-1.8 -4.2,-3.4 -6.4,-4.8 -0.6,-0.4 -0.3,-0.8 -0.1,-1.2 1.9,-3.4 3.7,-6.8 5.5,-10.2 6.4,-11.8 12.7,-23.6 19.1,-35.3 0.2,-0.4 0.3,-0.8 0.7,-1.1 5,2.8 9.8,6.1 14.4,9.9 -11,14.3 -22.1,28.5 -33.2,42.7 z"
   id="path73" />
	<path
   class="st23"
   d="m 887.4,451.4 -0.3,0.6 c -0.9,2 -1.8,4 -2.5,6.1 -0.3,1 -0.4,1 -1.3,0.7 -5.4,-1.8 -10.8,-3.7 -16,-5.5 -11,-3.8 -22,-7.5 -33.1,-11.3 -0.2,-0.1 -0.4,-0.1 -0.6,-0.2 -0.5,-0.1 -0.5,-0.3 -0.4,-0.8 l 1.8,-5.1 c 1.2,-3.3 2.6,-6.4 4.1,-9.5 0.7,-1.3 0.5,-1.1 1.6,-0.5 11.1,6.1 22.4,12.1 33.6,18.2 4.1,2.2 8.1,4.4 12.2,6.6 0.4,0.3 0.8,0.3 0.9,0.7 z"
   id="path75" />
	<path
   class="st23"
   d="m 1007.6,416.2 c -0.1,0.4 -0.4,0.5 -0.7,0.7 -2.3,1.7 -4.6,3.3 -7,4.9 -11.7,8.4 -23.4,16.7 -35.2,25.1 -1.1,0.8 -1.1,0.8 -1.9,-0.4 -1.1,-1.8 -2.4,-3.5 -3.8,-5.1 -0.4,-0.4 -0.5,-0.7 0,-1.1 0.2,-0.1 0.3,-0.3 0.4,-0.4 12.1,-12.1 24.2,-24.1 36.2,-36.3 1.1,-1.1 1.1,-1.1 2.1,0.1 3.4,3.6 6.5,7.5 9.3,11.6 z"
   id="path77" />
	<path
   class="st23"
   d="m 1013.4,426 c 1,2 2,4 2.9,6.1 1.3,2.9 2.4,5.8 3.3,8.8 0.3,1.2 0.3,1.2 -0.8,1.6 -10.3,3.5 -20.7,7.1 -31,10.6 -5.7,2 -11.4,3.9 -17.2,5.9 -0.4,0.1 -0.7,0.3 -1,0.4 -0.4,0.1 -0.6,0.1 -0.8,-0.4 -0.7,-2.3 -1.6,-4.6 -2.6,-6.8 -0.2,-0.4 -0.1,-0.6 0.2,-0.8 0.8,-0.4 1.5,-0.8 2.2,-1.2 14.5,-7.8 29.1,-15.7 43.6,-23.5 0.3,-0.3 0.6,-0.6 1.2,-0.7 z"
   id="path79" />
	<path
   class="st23"
   d="m 830.5,452.6 c 3.2,0.6 6.5,1.3 9.7,2 8.6,1.8 17.3,3.6 25.9,5.4 5.4,1.1 10.8,2.3 16.2,3.4 0.9,0.2 0.9,0.2 0.7,1.1 -0.2,1.4 -0.3,2.7 -0.5,4.1 -0.1,0.5 -0.3,0.7 -0.8,0.7 H 881 830.2 830 c -1.3,0 -1.3,0.2 -1.3,-1.3 0.1,-4.9 0.7,-9.9 1.5,-14.8 0.1,-0.2 0.1,-0.4 0.3,-0.6 z"
   id="path81" />
	<path
   class="st23"
   d="M 997.4,469.3 H 972 c -1.3,0 -1.3,0 -1.5,-1.4 -0.1,-1 -0.3,-2.1 -0.4,-3.1 -0.2,-1 -0.2,-1 0.8,-1.2 3.3,-0.7 6.6,-1.4 9.8,-2 9.7,-2 19.5,-4.1 29.3,-6.1 3.9,-0.8 7.7,-1.6 11.6,-2.4 0.8,-0.1 0.9,-0.1 1,0.7 0.3,1.6 0.5,3.3 0.7,4.9 0.4,3.1 0.7,6.3 0.8,9.5 0,1.2 0,1.2 -1.2,1.2 -8.5,-0.1 -17,-0.1 -25.5,-0.1 z"
   id="path83" />
	<path
   class="st24"
   d="m 867.7,406.8 c 0.1,-0.1 0.2,-0.3 0.3,-0.4 0.7,0.6 1.2,1.4 1.7,2.1 -0.1,0.1 -0.2,0.1 -0.3,0 -0.6,-0.4 -1.2,-1 -1.7,-1.7 z"
   id="path85" />
	<path
   class="st25"
   d="m 939.2,386.5 c 0.1,0.3 0,0.6 0.2,0.8 -0.1,0.6 -0.2,1.1 -0.2,1.7 -0.2,0.1 -0.3,0 -0.3,-0.2 0.1,-0.8 0,-1.5 0.3,-2.3 z"
   id="path87" />
	<path
   class="st26"
   d="m 913.8,385.3 c 0.3,-0.3 0.2,-0.8 0.2,-1.1 0.3,0.8 0.2,1.6 0.3,2.4 -0.1,0 -0.1,0.1 -0.2,0.1 l -0.1,-0.1 c 0,-0.5 -0.2,-0.9 -0.2,-1.3 z"
   id="path89" />
	<path
   class="st27"
   d="m 984.2,408.1 c 0.1,0.1 0.2,0.2 0.3,0.2 -0.4,0.5 -0.7,0.9 -1.3,1.2 0.1,-0.6 0.6,-1 1,-1.4 z"
   id="path91" />
	<path
   class="st28"
   d="m 914.3,386.5 c 0.4,0.6 0.2,1.2 0.1,1.8 -0.3,-0.4 -0.3,-0.8 -0.4,-1.3 0.2,-0.1 0.1,-0.3 0.2,-0.5 z"
   id="path93" />
	<path
   class="st29"
   d="m 1000.8,427.1 c 0.1,0.1 0.2,0.2 0.3,0.2 -0.5,0.3 -0.9,0.8 -1.6,0.7 h 0.1 c 0.1,-0.5 0.7,-0.7 1.2,-0.9 z"
   id="path95" />
	<path
   class="st30"
   d="m 938.9,388.8 c 0.1,0.1 0.2,0.1 0.3,0.2 0.1,0.4 -0.2,0.7 -0.3,1 -0.1,-0.4 -0.3,-0.8 0,-1.2 z"
   id="path97" />
	<path
   class="st31"
   d="m 963.5,393.8 0.3,0.3 c 0,0.4 -0.3,0.7 -0.5,1 -0.1,0.1 -0.2,0.1 -0.3,0 0,-0.5 0.2,-0.9 0.5,-1.3 z"
   id="path99" />
	<path
   class="st32"
   d="m 844,450.5 c 0.3,0.1 0.7,0.2 1,0.2 0.1,0.1 0.1,0.1 0.1,0.2 v 0.1 c -0.4,0 -0.7,0 -1,-0.2 -0.1,-0.1 -0.2,-0.1 -0.1,-0.3 z"
   id="path101" />
	<path
   class="st33"
   d="m 853,427.5 c 0.1,-0.1 0.1,-0.1 0.3,-0.2 0.2,0.1 0.5,0.3 0.8,0.5 0.1,0.1 0.1,0.1 0.1,0.2 0,0.1 -0.1,0.1 -0.1,0.1 -0.5,-0.1 -0.8,-0.3 -1.1,-0.6 z"
   id="path103" />
	<path
   class="st34"
   d="m 1009.5,450.8 c -0.3,0.3 -0.6,0.2 -0.9,0.2 0.2,-0.4 0.7,-0.3 1,-0.4 0.1,0.1 0.2,0.1 0.1,0.1 z"
   id="path105" />
	<path
   class="st35"
   d="m 844,450.5 v 0.3 c -0.4,0 -0.7,0 -1,-0.2 0,-0.1 0.1,-0.2 0.2,-0.2 0.3,0 0.6,0.1 0.8,0.1 z"
   id="path107" />
	<path
   class="st36"
   d="m 1009.5,450.8 v -0.2 c 0.2,-0.1 0.5,-0.2 0.7,-0.2 0.1,0 0.2,0.1 0.3,0.2 -0.3,0.3 -0.7,0.2 -1,0.2 z"
   id="path109" />
	<path
   class="st37"
   d="m 845,451 v -0.3 c 0.2,0.1 0.5,0.2 0.7,0.3 -0.2,0.4 -0.4,0.2 -0.7,0 z"
   id="path111" />
	<path
   class="st30"
   d="m 870.8,409.8 c 0.2,0.1 0.4,0.3 0.4,0.6 -0.3,-0.1 -0.5,-0.3 -0.7,-0.6 0.1,-0.1 0.2,-0.1 0.3,0 z"
   id="path113" />
	<path
   class="st38"
   d="m 890,394.3 c 0.1,-0.1 0.2,-0.2 0.2,-0.3 0.3,0.2 0.3,0.5 0.4,0.8 -0.1,0.1 -0.2,0.1 -0.4,0 0,-0.2 -0.2,-0.3 -0.2,-0.5 z"
   id="path115" />
	<path
   class="st39"
   d="m 890.3,394.8 h 0.4 c 0.2,0.1 0.2,0.3 0.2,0.5 0.1,0.1 0.1,0.3 -0.1,0.4 -0.3,-0.3 -0.4,-0.6 -0.5,-0.9 z"
   id="path117" />
	<path
   class="st40"
   d="m 962.9,395 h 0.3 c -0.1,0.3 -0.2,0.6 -0.5,0.8 -0.1,-0.1 -0.1,-0.2 0,-0.4 0,-0.1 0,-0.3 0.2,-0.4 z"
   id="path119" />
	<path
   class="st41"
   d="m 962.7,395.5 v 0.4 c 0.1,0.2 0,0.4 -0.2,0.4 h -0.1 c 0,-0.3 0.1,-0.6 0.3,-0.8 z"
   id="path121" />
	<path
   class="st42"
   d="m 890.7,395.6 c 0,-0.1 0.1,-0.3 0.1,-0.4 0.3,0.2 0.3,0.5 0.3,0.8 v 0.1 c -0.4,-0.1 -0.4,-0.3 -0.4,-0.5 z"
   id="path123" />
	<path
   class="st43"
   d="m 854,428.1 v -0.3 c 0.2,0.1 0.5,0.2 0.5,0.5 -0.2,0 -0.4,0 -0.5,-0.2 z"
   id="path125" />
	<path
   class="st44"
   d="m 999.2,428.3 c -0.1,0.3 -0.3,0.3 -0.5,0.3 h 0.1 c 0,-0.3 0.3,-0.4 0.5,-0.5 0,0 0,0.1 -0.1,0.2 z"
   id="path127" />
	<path
   class="st45"
   d="m 855.3,428.8 c -0.3,-0.1 -0.5,-0.1 -0.5,-0.3 -0.1,0 -0.1,-0.1 -0.1,-0.1 0,0 0,-0.1 0.1,-0.1 0.3,0.1 0.4,0.2 0.5,0.5 z"
   id="path129" />
	<path
   class="st46"
   d="m 998.5,428.7 c -0.1,0.2 -0.3,0.3 -0.4,0.2 -0.1,-0.2 0.2,-0.3 0.4,-0.4 0.1,0.1 0.1,0.1 0,0.2 z"
   id="path131" />
	<path
   class="st47"
   d="m 1008.5,451 c -0.1,0.1 -0.2,0.1 -0.2,0.2 -0.1,0.1 -0.4,0.1 -0.4,0 -0.1,-0.2 0.2,-0.1 0.3,-0.1 0.1,-0.1 0.2,-0.1 0.3,-0.1 z"
   id="path133" />
	<path
   class="st48"
   d="m 914.2,386.5 c 0.1,0.2 0,0.3 -0.2,0.5 v -0.5 z"
   id="path135" />
	<path
   class="st49"
   d="m 855.8,429 c -0.2,0 -0.4,0 -0.5,-0.2 l 0.1,-0.1 c 0.2,0.1 0.3,0.1 0.4,0.3 z"
   id="path137" />
	<path
   class="st50"
   d="M 891.3,396.5 C 891,396.4 891,396.2 891,396 v -0.1 c 0.3,0.1 0.2,0.3 0.2,0.5 h 0.1 z"
   id="path139" />
	<path
   class="st51"
   d="m 962.5,396.3 c -0.1,0.1 -0.1,0.2 -0.1,0.3 -0.1,0 -0.1,-0.1 -0.1,-0.1 0,-0.1 0,-0.2 0.2,-0.2 z"
   id="path141" />
	<path
   class="st52"
   d="m 891.2,396.5 c 0.2,0 0.2,0.1 0.2,0.2 0,0.1 -0.1,0.1 -0.1,0.1 v -0.3 z"
   id="path143" />
	<path
   class="st53"
   d="m 869.4,408.6 h 0.3 c 0.1,0 0.2,0.1 0.1,0.2 v 0.1 c -0.2,-0.1 -0.3,-0.2 -0.4,-0.3 z"
   id="path145" />
	<path
   class="st54"
   d="m 870,409 c -0.2,0.1 -0.2,0 -0.2,-0.2 v -0.1 c 0.2,0.1 0.3,0.2 0.2,0.3 z"
   id="path147" />
	<path
   class="st55"
   d="m 870,409.1 c 0.3,0 0.3,0.1 0.3,0.2 -0.2,0 -0.3,-0.1 -0.3,-0.2 z"
   id="path149" />
	<path
   class="st56"
   d="m 870.3,409.3 c 0.1,0 0.2,0.1 0.2,0.2 h 0.1 c -0.3,0.1 -0.3,0 -0.3,-0.2 z"
   id="path151" />
	<path
   class="st57"
   d="m 870.8,409.8 h -0.3 c 0,-0.1 0.1,-0.2 0.1,-0.3 h -0.1 c 0.2,0 0.3,0.1 0.3,0.3 z"
   id="path153" />
	<path
   class="st58"
   d="m 983.2,409.5 c 0,0.2 0,0.2 -0.2,0.2 0,-0.1 0,-0.2 0.2,-0.2 z"
   id="path155" />
	<path
   class="st59"
   d="m 982.8,410 c 0,-0.2 0,-0.3 0.3,-0.3 -0.1,0.2 -0.2,0.3 -0.3,0.3 z"
   id="path157" />
	<path
   class="st60"
   d="m 982.8,410 c -0.1,0.1 -0.2,0.2 -0.3,0.2 0,-0.1 0.1,-0.1 0.3,-0.2 z"
   id="path159" />
	<path
   class="st61"
   d="m 982.5,410.3 -0.1,0.1 c 0,0 0,-0.1 0.1,-0.1 -0.1,0 0,0 0,0 z"
   id="path161" />
	<path
   class="st62"
   d="m 999.2,428.3 v -0.2 h 0.2 -0.1 c 0.3,0.1 0.1,0.1 -0.1,0.2 z"
   id="path163" />
	<path
   class="st63"
   d="m 854.8,428.3 v 0.2 c -0.2,0 -0.3,0 -0.3,-0.2 0.1,-0.1 0.2,-0.1 0.3,0 z"
   id="path165" />
	<path
   class="st64"
   d="m 998.5,428.7 v -0.2 h 0.2 -0.1 c 0.1,0.2 0,0.2 -0.1,0.2 z"
   id="path167" />
	<path
   class="st49"
   d="m 855.8,429 c 0,0.1 0.1,0.1 0,0 z"
   id="path169" />
	<path
   d="m 927.1,603.1 h 125.5 c 1.9,0 1.7,-0.2 1.7,1.6 v 96.2 c 0,3.6 -0.7,7 -2.1,10.3 -1.5,3.8 -4.2,6.4 -8,7.9 -3.4,1.3 -6.8,2 -10.4,2 H 938.5 819.9 c -10.9,0 -18.6,-8.4 -19.9,-17.2 -0.1,-0.9 -0.2,-1.8 -0.2,-2.6 v -96.8 -0.6 c -0.1,-0.6 0.1,-0.9 0.7,-0.8 h 1.2 z"
   id="path171" />
	<path
   class="st23"
   d="m 992.5,594.2 h -59.8 c -1.7,0 -1.6,0.3 -1.6,-1.5 V 477.8 c 0,-1.8 -0.2,-1.6 1.5,-1.6 h 119.8 c 1.7,0 1.5,-0.1 1.5,1.5 v 115 c 0,1.7 0.2,1.5 -1.4,1.5 z"
   id="path173" />
	<path
   class="st23"
   d="M 861.1,594.2 H 801.9 801 c -1.2,0 -1.2,0 -1.2,-1.2 v -0.6 -114.2 c 0,-2.2 -0.3,-1.9 1.8,-1.9 h 119.1 c 2,0 1.8,-0.2 1.8,1.8 v 114.5 c 0,1.9 0.2,1.7 -1.7,1.7 -19.8,-0.1 -39.7,-0.1 -59.7,-0.1 z"
   id="path175" />
	<path
   class="st23"
   d="M 927.1,605.6 H 1050 c 2.1,0 1.8,-0.3 1.8,1.8 v 93.2 c 0,3.3 -0.6,6.5 -1.8,9.6 -1.3,3.3 -3.6,5.5 -6.8,6.7 -3,1.1 -6,1.7 -9.2,1.8 h -0.5 -213.6 c -4.3,0 -8.1,-1.2 -11.3,-4 -4.1,-3.5 -6.3,-8 -6.3,-13.4 -0.1,-31.4 -0.1,-62.8 -0.1,-94.2 v -0.2 c 0.1,-1.4 -0.2,-1.3 1.3,-1.3 h 78.6 z"
   id="path177" />
	<path
   class="st21"
   d="m 992.5,478.6 h 57.4 c 1.8,0 1.6,-0.1 1.6,1.5 v 110.1 0.5 c -0.1,1.1 -0.1,1.1 -1.1,1.1 h -0.5 -114.7 c -1.9,0 -1.6,0.2 -1.6,-1.5 V 480.2 c 0,-1.7 -0.3,-1.5 1.5,-1.5 19.1,-0.1 38.3,-0.1 57.4,-0.1 z"
   id="path179" />
	<path
   class="st19"
   d="m 861.3,478.5 h 57 0.6 c 1.4,0 1.4,0 1.4,1.4 v 35.6 74.6 c 0,1.8 0.2,1.6 -1.6,1.6 H 803.9 c -1.7,0 -1.5,0.1 -1.5,-1.5 V 480.1 c 0,-1.7 -0.1,-1.6 1.7,-1.6 z"
   id="path181" />
	<path
   d="m 926.9,674.5 h 98.7 c 0.6,0 1.2,-0.1 1.9,0.1 1.3,0.4 2.1,1.3 2.2,2.6 0.1,0.3 0.1,0.5 0.1,0.8 v 15 c 0,0.3 0,0.5 -0.1,0.8 -0.1,1.6 -1.3,2.7 -2.9,2.8 h -1 -27 -0.6 c -2,0 -1.7,-0.2 -1.7,1.6 v 10.5 c 0,0.5 0,0.9 -0.1,1.4 -0.3,1.2 -1.4,2.1 -2.7,2.3 h -1.3 -131 c -3.2,0 -4.2,-1.7 -4.1,-4.1 0.1,-3.4 0,-6.8 0,-10.2 0,-1.6 0.2,-1.4 -1.5,-1.4 h -27.6 -0.8 c -2.1,0 -3.4,-1.3 -3.4,-3.3 v -8.1 -7.3 c 0,-2.2 1.3,-3.5 3.5,-3.5 h 1 z"
   id="path183" />
	<path
   d="m 860.5,665 h -15.9 c -0.6,0 -1.2,0.1 -1.8,-0.2 -1.6,-0.6 -2.4,-2.3 -1.8,-4.1 0.3,-1.1 0.7,-2.2 1.1,-3.3 5.1,-14.5 10.1,-28.9 15.2,-43.4 0.1,-0.3 0.2,-0.6 0.4,-1 0.6,-1.2 1.5,-1.8 2.9,-1.8 1.4,0 2.4,0.7 2.9,2 0.5,1.3 0.9,2.5 1.4,3.8 5,14.3 10.1,28.7 15.1,43 0.3,0.6 0.5,1.3 0.5,1.9 -0.1,1.7 -1.2,2.9 -2.8,3 h -1.3 c -5.5,0.1 -10.7,0.1 -15.9,0.1 z"
   id="path185" />
	<path
   d="m 927,665 h -15.6 -1.3 c -1.8,-0.1 -3.1,-1.8 -2.8,-3.6 l 0.3,-1.2 c 5.3,-15.4 10.7,-30.8 16.1,-46.1 0.2,-0.3 0.3,-0.6 0.4,-0.9 0.5,-1.2 1.5,-1.9 2.8,-1.9 1.3,0 2.3,0.6 2.9,1.8 0.2,0.4 0.2,0.7 0.4,1.1 5.3,15.3 10.7,30.6 16.1,45.9 0.1,0.2 0.2,0.5 0.2,0.7 0.7,2.4 -1,4.3 -3.1,4.3 C 938,664.9 932.5,665 927,665 Z"
   id="path187" />
	<path
   d="m 993.5,665 h -16 c -0.6,0 -1.1,0.1 -1.7,-0.1 -1.6,-0.6 -2.5,-2.3 -1.9,-4.1 0.9,-2.8 1.9,-5.6 2.9,-8.4 4.5,-12.7 8.9,-25.5 13.4,-38.3 l 0.3,-0.9 c 0.5,-1.2 1.5,-1.9 2.8,-2 1.4,-0.1 2.4,0.6 3,1.9 0.2,0.5 0.5,1.2 0.7,1.7 5.2,14.9 10.4,29.9 15.6,44.8 0.1,0.4 0.3,0.8 0.4,1.3 0.6,2.1 -0.7,3.9 -2.9,4 -1.5,0.1 -3,0 -4.5,0 -4,0.1 -8.1,0.1 -12.1,0.1 z"
   id="path189" />
	<path
   d="m 952.8,521 c 4.3,0.3 8.2,0.6 12.3,0.9 2.6,0.2 5.3,0.4 7.8,0.6 3.1,0.2 6.2,0.5 9.4,0.7 2,0.1 1.6,0.3 2,-1.4 2.3,-9 4.6,-17.9 6.9,-26.9 0.1,-0.2 0.1,-0.5 0.2,-0.7 0.5,-1.3 1.3,-1.9 2.6,-1.9 1.2,0 2.1,0.7 2.4,2 0.7,2.6 1.3,5.1 2,7.7 1.7,6.7 3.3,13.5 5,20.2 0.3,1.3 0.1,1.2 1.5,1.1 5.1,-0.4 10.1,-0.8 15.2,-1.2 l 8.7,-0.6 c 1.7,-0.1 3.3,-0.2 4.9,-0.4 0.5,-0.1 1,-0.1 1.5,-0.1 1.3,0 2.4,0.7 2.7,1.9 0.4,1.3 -0.1,2.3 -1.3,3 -4.8,2.8 -9.6,5.7 -14.5,8.5 -3.7,2.1 -7.3,4.3 -11,6.5 -1.1,0.7 -1.1,0.4 -0.6,1.7 3.6,8.4 7.1,16.8 10.7,25.2 0.2,0.6 0.5,1.1 0.6,1.8 0.2,1.3 -0.2,2.2 -1.2,2.8 -1,0.6 -2,0.5 -2.9,-0.2 -1.5,-1.2 -2.9,-2.3 -4.4,-3.5 -6.2,-4.9 -12.2,-9.9 -18.4,-14.8 -1.5,-1.2 -1,-1.1 -2.4,0 -7.6,6 -15.1,12 -22.6,18 -0.8,0.6 -1.7,1.1 -2.8,0.8 -1.3,-0.5 -2.1,-1.7 -1.7,-3.1 0.1,-0.4 0.3,-0.9 0.5,-1.3 3.7,-8.5 7.3,-17 11,-25.6 0.4,-1 0.7,-0.9 -0.5,-1.6 -8.1,-4.8 -16.3,-9.7 -24.5,-14.5 -0.4,-0.2 -0.7,-0.4 -1.1,-0.6 -1.1,-0.7 -1.5,-1.8 -1.1,-2.9 0.3,-1.1 1.4,-1.9 2.6,-1.9 0.4,-0.2 0.5,-0.2 0.5,-0.2 z"
   id="path191" />
	<path
   d="m 867.2,560 c 1.3,0 2.7,-0.2 4.1,-0.5 3.5,-0.8 6.1,-2.7 7.8,-5.8 2.1,-3.7 2.6,-7.6 1.5,-11.7 -0.6,-2.2 -2,-3.9 -4.2,-4.6 -0.5,-0.2 -1,-0.5 -1.6,-0.9 -2,-1.5 -4.4,-1.4 -6.3,0.3 -0.4,0.3 -0.6,0.7 -0.8,1.1 -0.7,1.9 -1.8,2.4 -3.7,2.1 -1.6,-0.3 -2.9,-1.7 -2.9,-3.3 -0.1,-0.8 0.2,-1.6 0.4,-2.3 0.5,-1.2 1,-2.3 1.6,-3.4 0.5,-1 1,-2 1.3,-3.1 0.2,-0.6 0.1,-1.2 -0.5,-1.6 -1.2,-0.8 -1.6,-2 -1.3,-3.4 0.4,-1.4 1.5,-2.1 2.9,-2.4 1.7,-0.3 3.4,0.1 5.1,0.5 3.9,0.9 7.7,2.2 11.6,3.2 1.6,0.4 3.1,0.8 4.8,1.1 2.4,0.4 4.6,-0.3 6.9,-0.8 1.3,-0.3 2.5,-0.8 3.8,-1 0.9,-0.1 1.8,-0.1 2.7,0.2 2.7,0.8 3.5,4.6 1.7,6.3 -2.8,2.7 -4.8,6 -6.2,9.7 -2,5.4 -1.9,10.9 -0.7,16.5 1.3,5.4 3.6,10.4 6.3,15.3 0.4,0.6 0.7,1.3 1.1,2 0.6,1 0.6,2.1 0.3,3.3 -0.5,1.8 -2.2,2.8 -4,2.4 -1.2,-0.2 -2.2,-0.8 -3.2,-1.5 -5.4,-3.9 -11.4,-6.2 -18,-7.3 -4.1,-0.7 -8.2,-0.9 -12.3,-0.6 -6.3,0.4 -12.5,1.7 -18.5,3.7 -3.2,1.1 -6.4,2.4 -9.5,3.9 -1.3,0.6 -2.6,1 -4.1,0.9 -0.8,-0.1 -1.5,-0.4 -2.2,-0.9 -1.3,-1.1 -1.6,-2.5 -0.8,-4 2.3,-4 4.4,-8.1 6,-12.5 2.1,-5.4 3.4,-10.9 3.5,-16.7 0.1,-5.6 -1,-11 -3.8,-16 -1.4,-2.7 -2.8,-5.4 -4.3,-8 -4.1,-7.5 -9.2,-14.3 -14.9,-20.6 -0.4,-0.4 -0.7,-0.8 -1.1,-1.3 -0.6,-1 -0.4,-2.4 0.3,-3.2 0.8,-0.9 2.1,-1.1 3.2,-0.5 l 0.9,0.6 c 13.6,10.9 27.3,21.7 40.9,32.6 1.9,1.5 1.9,3.1 0.1,4.7 -2,1.8 -3.9,3.6 -5.6,5.8 -1,1.2 -1.7,2.5 -2.4,3.8 -1.3,2.9 -1.4,5.9 -0.2,8.8 1,2.5 2.5,4.7 4.3,6.7 0.3,0.4 0.8,0.6 1.2,0.8 2.8,1 5.6,1.6 8.8,1.6 z"
   id="path193" />
	<path
   class="st65"
   d="m 926.8,677.7 h 98.2 c 1.9,0 1.7,-0.2 1.7,1.7 v 12.5 c 0,1.7 0.2,1.6 -1.6,1.6 H 995 c -1.6,0 -1.5,-0.1 -1.5,1.5 v 12.6 0.7 c 0,0.9 0,0.9 -1,1 h -0.7 -129.5 c -2,0 -1.8,0.3 -1.8,-1.8 V 695 694.1 c 0,-0.4 -0.2,-0.6 -0.6,-0.6 h -1 -30.2 c -1.5,0 -1.5,0 -1.5,-1.4 v -12.9 -0.7 c 0,-0.5 0.2,-0.7 0.7,-0.7 h 1.1 c 32.6,-0.1 65.2,-0.1 97.8,-0.1 z"
   id="path195" />
	<path
   class="st65"
   d="m 860.5,614.7 c 0.4,0.2 0.4,0.6 0.5,1 4.1,11.6 8.2,23.2 12.2,34.8 1.2,3.4 2.4,6.8 3.6,10.2 0.4,1.1 0.4,1.1 -0.7,1.2 h -7.5 -23.2 c -1.5,0 -1.6,0 -1,-1.5 5.2,-15 10.5,-30 15.7,-45 0.1,-0.3 0.1,-0.6 0.4,-0.7 z"
   id="path197" />
	<path
   class="st65"
   d="m 927.1,614.7 c 0.6,1.5 1.1,2.9 1.6,4.4 4.2,12.2 8.5,24.4 12.8,36.6 0.6,1.8 1.2,3.5 1.8,5.3 0.3,0.7 0.2,0.8 -0.6,0.8 h -0.6 -30.2 c -0.4,0 -0.8,0.1 -1.4,-0.2 5.4,-15.7 10.9,-31.4 16.3,-47 0.2,0.1 0.3,0.1 0.3,0.1 z"
   id="path199" />
	<path
   class="st65"
   d="m 993.3,614.6 c 0.5,0.2 0.4,0.7 0.6,1 2.9,8.2 5.7,16.3 8.5,24.5 2.4,6.8 4.8,13.7 7.2,20.5 0.4,1.3 0.4,1.3 -0.9,1.3 h -30.5 c -1.3,0 -1.3,0 -0.9,-1.4 1.8,-5.2 3.7,-10.5 5.5,-15.8 2.5,-7.1 4.9,-14.1 7.4,-21.2 1,-2.9 2.1,-5.9 3.1,-8.9 z"
   id="path201" />
	<path
   class="st66"
   d="m 994,495.3 c 0.5,1.9 0.9,3.8 1.4,5.7 2.1,8 4,16 6.1,24.1 0.3,1 0.3,1.1 1.3,1 3.1,-0.2 6.1,-0.4 9.1,-0.7 2.7,-0.2 5.5,-0.4 8.2,-0.6 4.4,-0.3 8.9,-0.6 13.3,-1 0.5,0 1,0 1.7,-0.1 -0.3,0.5 -0.7,0.6 -1.1,0.9 l -25.5,15 -0.9,0.6 c -0.5,0.2 -0.6,0.5 -0.4,1 0.5,1.1 1,2.3 1.5,3.4 3.4,8 6.8,15.9 10.1,23.9 0.2,0.4 0.3,0.8 0.3,1.3 -0.3,-0.3 -0.6,-0.5 -0.9,-0.8 -7.8,-6.2 -15.6,-12.5 -23.4,-18.8 -1,-0.8 -0.7,-0.7 -1.7,0.1 -8,6.3 -15.9,12.7 -23.8,19 -0.2,0.2 -0.5,0.3 -0.8,0.6 -0.1,-0.5 0.2,-0.9 0.3,-1.2 3.8,-9 7.7,-17.9 11.6,-26.9 v -0.1 c 0.5,-1 0.5,-1 -0.5,-1.6 -4.5,-2.7 -9.2,-5.4 -13.8,-8.1 -4,-2.4 -8.1,-4.8 -12.2,-7.2 -0.3,-0.2 -0.6,-0.4 -0.9,-0.8 1.7,0.1 3.5,0.2 5.2,0.3 1.6,0.1 3.2,0.3 4.8,0.4 5.4,0.4 10.7,0.7 16.1,1.1 1.9,0.1 3.8,0.3 5.7,0.4 1.2,0.1 1.2,0 1.5,-1.2 2,-7.8 3.9,-15.5 5.9,-23.3 0.5,-2.1 1,-4.1 1.6,-6.2 0,-0.2 0.1,-0.2 0.2,-0.2 z"
   id="path203" />
	<path
   class="st23"
   d="m 820.1,498.4 8.1,6.3 c 10.1,8.1 20.1,16.1 30.3,24.1 0.4,0.3 0.8,0.7 1.2,1 0,0.5 -0.4,0.6 -0.7,0.8 -2.5,2.3 -4.8,4.6 -6.6,7.4 -1.9,2.9 -3,5.9 -2.8,9.4 0.2,2.2 0.9,4.3 1.9,6.3 1.1,2.1 2.6,4 4.2,5.8 0.3,0.3 0.5,0.5 0.9,0.7 5.6,2.7 11.3,3.4 17.2,1.4 4.7,-1.7 7.6,-5.2 9.2,-9.9 1.2,-3.5 1.3,-7 0.2,-10.5 -1,-2.9 -2.7,-5.1 -5.7,-6.1 -0.4,-0.2 -0.8,-0.5 -1.2,-0.8 -3.2,-2.3 -7.7,-1.8 -10.2,1.3 -0.3,0.4 -0.6,0.8 -0.8,1.3 -0.1,0.2 -0.1,0.6 -0.5,0.6 -0.4,-0.1 -0.8,-0.2 -0.9,-0.7 -0.1,-0.5 0,-0.9 0.2,-1.3 0.5,-1 0.9,-1.9 1.5,-2.9 0.6,-1.2 1.2,-2.4 1.5,-3.7 0.4,-1.8 0.2,-3.4 -1.3,-4.6 -0.2,-0.1 -0.5,-0.3 -0.4,-0.6 0.1,-0.3 0.4,-0.5 0.7,-0.5 0.8,-0.1 1.7,-0.1 2.5,0.1 3.5,0.7 6.9,1.8 10.4,2.8 2.8,0.8 5.7,1.6 8.7,2 1.2,0.1 2.4,0.1 3.7,-0.1 2,-0.4 4.1,-1.1 6.1,-1.6 0.6,-0.1 1.2,-0.2 1.8,-0.2 0.6,0 1.1,0.2 1.4,0.8 0.2,0.6 0,1 -0.5,1.4 -2,2.2 -3.8,4.6 -5.2,7.3 -2.5,4.9 -3.5,10.1 -3,15.6 0.6,6.1 2.7,11.8 5.3,17.2 0.9,1.9 1.9,3.7 2.9,5.5 0.2,0.3 0.3,0.5 0.5,0.8 0.2,0.5 0.3,1 -0.2,1.4 -0.4,0.4 -0.9,0.2 -1.2,0.1 -0.8,-0.3 -1.5,-0.7 -2.2,-1.2 -5.8,-4 -12.3,-6.3 -19.3,-7.4 -9.6,-1.4 -19.1,-0.3 -28.4,2.4 -4.3,1.2 -8.4,2.8 -12.4,4.8 -0.7,0.3 -1.3,0.6 -2,0.7 -0.3,0.1 -0.7,0.1 -1,0.1 -1,-0.1 -1.2,-0.6 -0.7,-1.5 2.3,-3.9 4.3,-8 5.9,-12.3 2.3,-6.1 3.8,-12.4 3.6,-19 -0.1,-6.6 -1.9,-12.8 -5.4,-18.4 -0.4,-0.8 -0.8,-1.5 -1.2,-2.2 -3.7,-7.3 -8.3,-14 -13.4,-20.3 l -2.4,-3 c -0.5,-0.4 -0.5,-0.5 -0.3,-0.6 z"
   id="path205" />
	<path
   class="st67"
   d="m 820.1,498.4 c -0.1,0.1 -0.1,0.3 -0.1,0.4 -0.3,-0.2 -0.6,-0.5 -0.8,-0.8 0.1,-0.1 0.2,-0.1 0.3,0 0.3,0.1 0.5,0.2 0.6,0.4 z"
   id="path207" />
	<path
   class="st68"
   d="m 818.3,497 c 0.3,0 0.6,0.2 0.8,0.5 -0.1,0.2 -0.2,0.2 -0.3,0.1 -0.3,-0.2 -0.4,-0.4 -0.5,-0.6 z"
   id="path209" />
	<path
   class="st69"
   d="m 818.8,497.5 c 0.1,0 0.2,-0.1 0.3,-0.1 0.2,0.2 0.4,0.3 0.5,0.5 h -0.3 c -0.3,0 -0.4,-0.2 -0.5,-0.4 z"
   id="path211" />
	<path
   class="st68"
   d="m 818.3,497 -0.1,-0.1 c 0,0 0.1,0 0.1,0.1 z"
   id="path213" />
</g>
</svg>
