<?xml version="1.0" encoding="UTF-8"?>
<!-- Created with Inkscape (http://www.inkscape.org/) -->
<svg id="svg14357" width="699.9999" height="400" version="1.0" xmlns="http://www.w3.org/2000/svg" xmlns:cc="http://creativecommons.org/ns#" xmlns:dc="http://purl.org/dc/elements/1.1/" xmlns:rdf="http://www.w3.org/1999/02/22-rdf-syntax-ns#" xmlns:xlink="http://www.w3.org/1999/xlink">
 <metadata id="metadata14362">
  <rdf:RDF>
   <cc:Work rdf:about="">
    <dc:format>image/svg+xml</dc:format>
    <dc:type rdf:resource="http://purl.org/dc/dcmitype/StillImage"/>
   </cc:Work>
  </rdf:RDF>
 </metadata>
 <g id="layer1" transform="translate(409.2857,90.49496)">
  <path id="path2161" d="m290.7142-90.49496v400h-700v-400z" fill="#ffffff" fill-rule="evenodd"/>
  <g id="g2662" transform="matrix(1.046332 0 0 1.046332 -165.2712 -60.95768)">
   <g stroke="#000000" stroke-miterlimit="10.0286">
    <g id="g236" transform="matrix(.9913073 0 0 .9813397 1.819781 3.029348)" stroke-width="3.254">
     <path id="path238" d="m101.125 315.922s-12.783-14.645-25.033-14.645c-12.248 0-15.443 5.857-29.289 5.857-13.849 0-35.949-14.114-35.949-37.013v-149.92c0-1.579-6.125-11.184-9.854-11.184l39.412-32.22s10.117 7.19 19.438 7.19 18.108-8.788 18.108-8.788l23.167-0.267" fill="#6a95a9" stroke="#000000" stroke-linecap="round" stroke-linejoin="round" stroke-miterlimit="9.78499" stroke-width=".783408"/>
    </g>
    <g id="g240" transform="matrix(.9913073 0 0 .9813397 1.400884 3.029348)" stroke-width="1.954">
     <path id="path242" d="m101.498 315.8144s12.41002-14.53735 24.66002-14.53735c12.248 0 15.443 5.857 29.289 5.857 13.849 0 35.949-14.114 35.949-37.013v-149.92c0-1.581 6.125-11.184 9.854-11.184l-39.412-32.22s-10.117 7.19-19.438 7.19-18.108-8.788-18.108-8.788l-23.167-0.267" fill="#eb3b42" stroke="#000000" stroke-linecap="round" stroke-linejoin="round" stroke-miterlimit="10.0286" stroke-width=".783408"/>
    </g>
    <path id="path244" d="m103.1023 193.6025v-117.0325l-24.57531 0.541025s-7.564201 8.344934-16.93801 8.344934c-9.374822 0-19.55024-7.054012-19.55024-7.054012l-39.63957 31.61405c3.750532 0 9.910902 9.42367 9.910902 10.97401v72.61251" fill="#eb3b42" stroke-width=".772684"/>
   </g>
   <path id="path246" d="m191.2466 193.6094v-72.62011c0-1.5515 6.00122-10.97531 9.65486-10.97531l-38.61555-31.61877s-9.91254 7.055829-19.04519 7.055829c-9.13264 0-17.74207-8.624009-17.74207-8.624009l-23.85522-0.262018-0.28909 117.0444" fill="#6a95a9"/>
   <g fill="#f9bd57" stroke="#000000">
    <path id="path248" d="m179.5497 122.4515s-28.06392-6.8105-53.65252 18.52083c-25.58861 25.33131-27.91422 43.11712-27.91422 43.11712l11.64786 29.20172s35.9002-13.98016 55.26836-35.37533c19.29578-21.31568 14.65052-55.46434 14.65052-55.46434z" stroke-miterlimit="8.68889" stroke-width=".772684"/>
    <polyline id="polyline256" transform="matrix(.9913073 0 0 .9813397 1.189602 3.240629)" points="95.398 75.201 125.752 75.201 133.942 56.137 101.855 49.945" stroke-miterlimit="10.0286" stroke-width=".783408"/>
    <polyline id="polyline258" transform="matrix(.9913073 0 0 .9813397 1.189602 3.240629)" points="104.785 75.201 77.958 75.201 69.769 56.137 101.855 49.945" stroke-miterlimit="10.0286" stroke-width=".783408"/>
   </g>
   <g stroke="#000000" stroke-width=".772684">
    <g stroke-miterlimit="10.0286">
     <path id="path260" d="m66.63584 50.70381c0-9.995926 10.1956-19.50118 21.77703-19.50118 11.58146 0 7.028376 3.822318 13.95761 3.822318v25.67381s-2.969951 4.213873-6.236307 4.213873c-3.266364 0-5.493832-2.008802-7.96911-4.262939 0 0-2.623004 4.458224-6.385016 4.458224-3.762011 0-15.14421-0.881242-15.14421-14.4041z" fill="#eb3b42"/>
     <path id="path262" d="m88.16605 60.64969s-5.197429-4.947915-5.197429-9.652457c0-4.70356 0.857481-15.97228 19.40186-15.97228v23.87796" fill="none"/>
     <path id="path264" d="m138.1051 50.70381c0-9.995926-10.19559-19.50118-21.77705-19.50118-11.58143 0-7.02837 3.822318-13.9576 3.822318v25.67381s2.96996 4.213873 6.23632 4.213873c3.26635 0 5.49382-2.008802 7.96911-4.262939 0 0 2.623 4.458224 6.38502 4.458224 3.762 0 15.1442-0.881242 15.1442-14.4041z" fill="#eb3b42"/>
     <path id="path266" d="m116.5759 60.64969s5.19743-4.947915 5.19743-9.652457c0-4.70356-0.85749-15.97228-19.40187-15.97228v23.87796" fill="none"/>
    </g>
    <path id="path270" d="m145.1642 228.9298c-0.0704-0.31206-0.22106-0.56917-0.53332-0.59763-1.06366-0.10206-2.19971 0.34641-3.01455 1.00194-0.80793 0.65259-0.95959 1.4622-1.15587 2.42294-0.13186 0.63885-0.40744 1.57799-1.27582 1.47593-0.35291-0.0432-0.53332-0.37684-0.65129-0.6732-0.16456-0.4102-0.25278-0.84885-0.39256-1.26887-0.17545-0.52697-0.43418-1.02256-0.58685-1.55739-0.14672-0.51226-0.22899-1.05494-0.62552-1.4514-0.36579-0.36408-0.96751-0.19529-1.2322 0.20904-0.48078 0.73501-0.33703 1.71733-0.33902 2.54657-2e-3 0.47692-2e-3 0.95876 0.0178 1.43569 0.0178 0.42296 0.20321 1.08536-0.1031 1.44944-0.42032 0.49951-1.027-0.44553-1.19749-0.6938-0.34003-0.49754-0.63643-1.01766-0.95364-1.5299-0.63048-1.01375-2.24036-2.60742-2.8738-0.90187-0.4907 1.32285 0.17149 4.20898 0.22998 5.62799 0.0496 1.19625-0.1715 2.89495-1.04683 3.81151-0.3648 0.38175-0.87532 0.66438-1.30554 0.96565-0.5472 0.38468-1.09838 0.76053-1.65945 1.12657-0.95364 0.62119-0.62948 2.104-0.0724 2.9028 1.24112 1.78213 3.22175 0.30716 3.95433-1.08633 0.34002-0.64769 0.80097-1.20411 1.57221-1.30911 0.57297-0.0795 1.39576-0.26987 1.93008 0.0285 0.47483 0.26594 0.61857 0.95778 0.56306 1.45925-0.0684 0.631-0.63146 1.06966-1.03592 1.5093-0.60966 0.66339-1.32042 1.22373-1.98757 1.82628-0.62651 0.56819-1.24112 1.15896-1.95684 1.61626-0.37769 0.2424-0.78314 0.44748-1.21733 0.57016-1.37494 0.38861-2.82323-0.32972-3.9791-1.01079-1.3799-0.81254-2.2691-1.9185-3.11865-3.2443-0.78413-1.22373-1.99649-2.76247-3.6946-2.15306-1.06468 0.38468-2.15808 1.93718-1.75363 3.07944 0.16059 0.45142 0.5819 0.71736 0.64137 1.23256 0.11599 1.00097-0.59775 1.80862 0.0426 2.77917 0.30633 0.46417 0.80397 1.13637 1.42055 1.14815 0.70184 0.0147 1.23021-0.66142 1.92611-0.63787 0.6513 0.0206 1.01807 0.59961 1.38784 1.05495 1.12414 1.38075 3.22769 1.39644 4.58479 2.45727 0.39156 0.30716 0.45897 0.62217 0.4679 1.10401 0.0169 0.95288-0.25576 1.88221-0.26171 2.83312-4e-3 0.82433 0.6483 1.67515 1.49787 1.70557 0.75538 0.0275 1.48795-0.14033 2.23044-0.31108 3.20787-0.74091 1.82203 0.66535 0.53332 1.31009-0.78115 0.38959-1.48994 0.90283-2.24333 1.34247-1.23219 0.71932-3.03637 1.18643-4.45493 1.25808-1.36304 0.0707-1.25897-0.56918-2.08174-1.31205-0.56009-0.50539-1.77147-0.39647-2.32959 0.1001-1.20939 1.07456-1.07852 2.60054-3.08593 2.65943-0.28945 9e-3 -0.46591-0.0412-0.5819 0.24435-0.6602 1.62902 0.76529 3.16777 2.25722 3.38366 0.5244 0.0765 1.19353-0.0108 1.66638 0.26987 0.57991 0.34445 0.41535 1.18448 1.01312 1.45532 1.23219 0.5574 2.80638-1.23845 3.74417-1.77916 1.73379-0.99902 4.11392-1.07751 6.0549-0.88028 1.95387 0.19727 4.19421 0.40531 6.09753 0.81944 3.64702 0.79291 6.01723 2.66727 9.85161 1.10204 1.37792-0.56329 3.35359-2.80762 4.87525-1.41902 0.88821 0.81156 0.86541 2.80466 0.73159 3.88709-0.22206 1.79977-0.75836 2.8557-2.48026 3.35715-0.83072 0.24142-1.82897 0.46516-2.69932 0.34838-0.71176-0.0942-1.54843 0.16389-2.22053-0.15309-0.52739-0.24926-0.71573-0.81451-0.90605-1.3199-0.34102-0.90676-1.71199-1.13934-2.56156-1.01961-0.50159 0.0697-0.99725 0.28754-1.40468 0.58487-0.7524 0.55054-0.98139 1.60155-1.72785 2.18741-0.61162 0.4789-1.48992 0.10697-2.09758 0.51913-0.16259 0.10991-0.2984 0.43081-0.37175 0.60647-0.40644 0.95975-0.12193 2.00095 0.47086 2.82331 0.31425 0.43377 1.10037 0.38568 1.56727 0.56821 0.50953 0.19823 0.88226 0.55346 1.10034 1.05296 0.34002 0.77723 0.99726 1.11775 1.82401 1.10697 0.83864-0.01 1.90628-0.0569 2.53278-0.6997 0.6176-0.63297 0.48773-1.46711 0.86939-2.19133 0.57695-1.08242 2.44357-0.43768 3.30599-0.24927 1.22428 0.26791 1.90333 1.1992 2.93229 1.8037 2.53776 1.49261 4.86435-1.05789 6.82418-2.28259 1.35709-0.8469 4.53522-2.29731 6.0668-1.20803 1.11521 0.7939 0.99626 2.26984 0.66516 3.41408-0.42427 1.46808 0.11698 3.10889-1.27284 4.1805-0.54721 0.42297-1.65251 2.53873-0.45501 2.81842 0.32615 0.0785 0.84856-0.0922 1.07557 0.21001 0.24486 0.32286 0.10408 0.96465 0.20917 1.34639 0.33902 1.22177 2.34444 2.42881 3.59249 1.82431 0.87335-0.42296 1.0141-1.50537 1.31746-2.30517 0.10605-0.28262 0.10605-0.4308 0.39354-0.59273 0.46492-0.26397 1.05773-0.10991 1.51868-0.34936 0.8555-0.44357 1.23121-1.90576 0.91101-2.77227-0.48673-1.31697-2.98582-0.21983-2.97789-2.12264 3e-3 -0.74583 0.53432-1.23355 1.10334-1.63002 1.4483-1.01176 1.68423-2.26983 1.44136-3.95185-0.36382-2.51615-0.31327-4.84291-2.13825-6.86251-0.92391-1.02255-2.09762-3.16874-0.42726-4.08433 1.3809-0.75759 2.45744-2.05395 3.03241-3.51123 0.35885-0.90676 0.27658-1.88025 0.3648-2.83313 0.15266-1.64472 0.21115-3.75657-0.36877-5.32377-0.61064-1.65552-2.30281-3.63291-3.45371-4.99795-0.88226-1.04318-1.78436-1.89596-2.9551-2.61038-1.02401-0.62511-2.14816-1.19428-2.76177-2.2718-0.81783-1.43766-0.82775-5.31493 1.58906-5.25703 1.23914 0.0285 1.92214 1.35131 2.50108 2.2139 1.30752 1.94893 2.11643 3.64764 4.39645 4.55538 2.00343 0.79684 4.46485 1.25414 5.80607-0.98331 0.98635-1.64472-0.1011-3.48178-0.0436-5.19815 0.0377-1.14523 0.68005-2.51517-0.87927-3.07748-2.79253-1.00587-2.00443 3.471-2.93427 4.64958-1.61881 2.05199-2.09266-0.39744-2.69735-1.71047-0.44014-0.95877-2.01633-2.75266-2.93329-3.19328-2.23837-1.0775-5.36694-0.87241-7.59143 0.0236-0.37868 0.15113-0.82179 0.53875-1.03492 0.85769-0.56505 0.84494-0.55513 2.16287-0.59379 3.16482-0.0535 1.38761-0.28055 2.73499 0.29738 3.91162 0.50558 1.03236 1.19454 1.52696 2.05598 2.23059 2.69735 2.21291 5.05368 4.87921 6.57434 8.06954 0.68797 1.44453 1.22626 3.30418 0.59678 4.85862-1.13902 2.80761-4.64526 2.64667-7.03433 1.71931-0.74644-0.2895-1.47506-0.684-2.14816-1.11676-0.74644-0.4789-1.5048-0.96271-2.14617-1.578-0.60173-0.57899-1.0726-1.30028-1.8706-1.63884-0.72366-0.30617-1.6297-0.3945-2.08472-1.1207-0.50754-0.8096 0.0971-1.44256 0.62353-2.02841 0.85451-0.94799 0.75439-2.24335 0.86145-3.42979 0.15067-1.6722 0.34993-3.34245 0.3866-5.0215 0.0218-0.99313-0.16554-1.96759-0.37272-2.93422-0.20322-0.94797-0.37273-1.90282-0.6959-2.82135-0.52341-1.48575-0.87335-2.62018-2.23242-3.43567-2.15312-1.29046-4.37563-2.64765-4.74738-5.35026-0.0981-0.71539 0.0387-1.42786 0.0664-2.14423 0.0139-0.24141 0.0367-0.66534-0.0436-1.01962z" fill="#f9bd57" stroke-miterlimit="8.68889"/>
    <path id="path274" d="m191.1331 193.6094v-72.62011c0-1.5515 6.07177-10.97531 9.76834-10.97531l-39.0694-31.61877s-10.02905 7.055829-19.26902 7.055829c-9.23998 0-16.7842-8.417623-16.7842-8.417623l-24.07919 0.02979" fill="none" stroke-linecap="round" stroke-linejoin="round" stroke-miterlimit="10.0286"/>
   </g>
   <g stroke="#000000">
    <polygon id="polygon280" transform="matrix(.9913073 0 0 .9813397 1.400884 3.029348)" points="110.377 81.917 119.165 87.11 151.94 132.192 144.663 137.875 112.241 94.033" fill="#9fb6c3" stroke-miterlimit="8.68889" stroke-width=".783408"/>
    <path id="path282" d="m155.7434 128.7478c-1.07359-1.30028-2.89958-1.57506-4.07824-0.6202l-12.31601 9.99101c-1.17767 0.95583-1.26292 2.78209-0.18735 4.07844 1.07359 1.30028 2.89957 1.57604 4.07823 0.62021l12.31502-9.99102c1.17866-0.95485 1.26292-2.78112 0.18835-4.07844z" fill="#9fb6c3" stroke-miterlimit="8.68889" stroke-width=".772684"/>
    <path id="path3574" d="m147.9944 166.7367-12.54511-12.47231-20.15954 21.76952 13.03279 13.86729z" fill="#75888f" stroke-miterlimit="9.94738" stroke-width=".772684"/>
   </g>
   <g fill="#ffffff" stroke="#000000" stroke-miterlimit="8.68889" stroke-width=".772684">
    <rect id="rect286" x="128.5053" y="185.1336" width="17.0257" height="30.71294"/>
    <rect id="rect288" x="124.1485" y="215.773" width="26.99231" height="8.101939"/>
    <rect id="rect290" x="53.27203" y="215.773" width="26.72664" height="8.101939"/>
   </g>
   <g stroke="#000000">
    <g id="g3733" transform="matrix(.9913073 0 0 .9813397 230.7252 47.61989)">
     <path id="path3735" d="m-162.5879 109.8219 17.14722 0.16453-0.75968 28.709-16.17048 0.24677z" fill="#000000" stroke-width="2.30327"/>
     <path id="path3737" d="m-167.1256 102.2602v10.35278h1.90357l-1.90357 27.04401h10.36289c-0.63671-9.68602 5.35507-11.04259 5.27328 0h10.99342l-2.75276-27.04401h2.75276v-10.35278h-5.24585l-0.21869 4.22562h-4.89435l-0.33802-4.22562h-5.45107l-0.23548 4.11896-5.17741 0.10666-0.0382-4.22562z" fill="#f9bd56" stroke-miterlimit="8.68889" stroke-width=".783408"/>
    </g>
    <g>
     <g stroke-miterlimit="8.68889">
      <circle id="circle300" transform="matrix(.9913073 0 0 .9813397 1.400884 4.109014)" cx="66.693" cy="172.506" r="11.917" fill="#1f8fc9" stroke-width=".783408"/>
      <rect id="rect302" x="58.42188" y="185.1336" width="17.0257" height="30.59073" fill="#ffffff" stroke-width=".772684"/>
      <ellipse id="ellipse304" transform="matrix(.9913073 0 0 .9813397 1.400884 3.029348)" cx="101.125" cy="194.206" rx="26.295" ry="32.688" fill="#a0b6c4" stroke-width=".783408"/>
     </g>
     <path id="path310" d="m101.6468 183.1925c-3.735247 0.17763-7.394165 2.51225-7.856114 7.00481-0.792054 7.69273-12.15434 22.91916-12.15434 22.91916l26.08023 8.58577z" stroke-linecap="round" stroke-linejoin="round" stroke-miterlimit="10.0286" stroke-width="1.92725"/>
     <path id="path312" d="m101.6468 183.1925c3.73524 0.17763 7.39416 2.51225 7.8561 7.00481 0.79205 7.69273 12.15437 22.69658 12.15437 22.69658l-19.58422 6.25981z" stroke-linecap="round" stroke-linejoin="round" stroke-miterlimit="10.0286" stroke-width="1.92725"/>
     <path id="path314" d="m121.7575 214.0125c-4.7216 8.20302-11.31974 11.67402-20.11065 11.67402-8.097993 0-15.33354-4.54459-20.11461-11.67402 0 0 9.269705-8.64364 20.35648-8.64364 11.08678 0 19.86878 8.64364 19.86878 8.64364z" fill="#1f8fc9" stroke-miterlimit="9.98797" stroke-width=".772684"/>
     <g id="g316" transform="matrix(.9913073 0 0 .9813397 1.400884 3.029348)" stroke-miterlimit="10.0286" stroke-width="1.954">
      <path id="path318" d="m101.125 185.816c1.628 0 5.375 3.177 6.597 4.398s0.611 5.863 0.611 7.369c0 1.507-2.198 2.2-2.81 2.812-0.611 0.613 0.53 11.115 0.53 11.115s-4.083 4.929-4.927 4.929-4.927-4.929-4.927-4.929 1.141-10.502 0.53-11.115c-0.612-0.611-2.81-1.305-2.81-2.812 0-1.506-0.611-6.147 0.611-7.369s4.967-4.398 6.595-4.398" fill="#fae2cc" stroke="#000000" stroke-miterlimit="9.78499" stroke-width=".783408"/>
     </g>
     <g id="g320" transform="matrix(.9913073 0 0 .9813397 1.400884 3.029348)" stroke-miterlimit="10.0286" stroke-width=".783408">
      <path id="path322" d="m101.039 184.72c1.364 0-5.009 0.033-6.141-0.366s-3.995-3.029-3.995-8.021c0-4.993 6.058-6.291 7.889-6.291s-0.483-4.628 2.247-4.628c2.729 0 0.416 4.628 2.247 4.628s7.889 1.298 7.889 6.291c0 4.992-2.862 7.622-3.994 8.021s-7.507 0.366-6.142 0.366z" fill="#f9bd57"/>
      <path id="path324" d="m103.285 170.041c-1.831 0 0.483-4.628-2.247-4.628s-0.416 4.628-2.247 4.628c-0.27 0-0.638 0.032-1.058 0.097 0.476 2.08 1.768 3.582 3.305 3.582s2.829-1.502 3.305-3.582c-0.42-0.065-0.788-0.097-1.058-0.097z" fill="#d09a49"/>
      <g id="g326">
       <path id="path328" d="m101.039 184.72c1.364 0-5.009 0.033-6.141-0.366s-3.995-3.029-3.995-8.021c0-4.993 6.058-6.291 7.889-6.291s-0.483-4.628 2.247-4.628c2.729 0 0.416 4.628 2.247 4.628s7.889 1.298 7.889 6.291c0 4.992-2.862 7.622-3.994 8.021s-7.507 0.366-6.142 0.366z" fill="none" stroke="#000000" stroke-miterlimit="10.0286" stroke-width=".783408"/>
      </g>
     </g>
    </g>
    <g>
     <g id="g3565" transform="matrix(.9913073 0 0 .9813397 1.400884 3.029348)" stroke-width=".783408">
      <path id="path3563" d="m137.3344 156.305 10.41224 10.33033 12.23428-11.25853c0.85817 0.76072 2.09223 0.83105 3.00601-0.0639l4.63155-4.29044c1.61974-1.96361-1.03848-6.00592-2.76267-4.52483 2.46732-1.87791-0.91158-6.78762-3.11758-4.96924 2.0738-1.68684-0.82254-5.93361-3.174-4.2869 0.86073-2.76542 0.11271-4.09734-3.01402-4.19987l-11.73708 9.32888c-2.34455 2.9198-4.0853 10.97025-6.47873 13.93453zm27.62571-9.99477-5.48012 4.78194c-1.51527 1.40999-0.69608 3.86355 0.45678 4.15067" fill="#fbe3cc" stroke-miterlimit="8.68889"/>
      <g stroke="#000000" stroke-miterlimit="9.78499">
       <path id="path3559" d="m161.6739 141.6313s-5.40049 4.58713-6.9031 5.69115c-3.79556 2.78869 0.79855 6.6357 3.0562 5.2235 0.13088-0.0819 1.7192-1.50011 1.51258-1.26869" fill="none"/>
       <path id="path3557" d="m158.5541 137.3404-6.91377 5.6317c-4.50732 2.2787-5.4651-2.76973-3.06306-4.58294" fill="none"/>
       <path id="path3517" d="m146.1968 140.509c16.53299-1.47582 18.03448 4.85996 2.34754 7.92946" fill="#fbe3cc"/>
      </g>
     </g>
     <g id="g3721" transform="matrix(.9913073 0 0 .9813397 191.0313 -.00452238)">
      <path id="path3719" d="m-162.569 108.8722 17.1093 0.1704-0.758 29.73252-16.08144 0.0403z" fill="#000000" stroke-width="2.34137"/>
      <path id="path3717" d="m-167.1256 102.2602v10.35278h1.90357l-1.90357 27.04401h10.36289c-0.63671-9.68602 5.35507-11.04259 5.27328 0h10.99342l-2.75276-27.04401h2.75276v-10.35278h-5.24585l-0.21869 4.22562h-4.89435l-0.33802-4.22562h-5.45107l-0.23548 4.11896-5.17741 0.10666-0.0382-4.22562z" fill="#f9bd56" stroke-miterlimit="8.68889" stroke-width=".783408"/>
     </g>
     <g id="g3727" transform="matrix(.9913073 0 0 .9813397 230.7252 -.00452238)">
      <path id="path3729" d="m-162.5746 109.1894 17.1206 0.16863-0.75849 29.4254-16.1454 0.25293z" fill="#000000" stroke-width="2.33002"/>
      <path id="path3731" d="m-167.1256 102.2602v10.35278h1.90357l-1.90357 27.04401h10.36289c-0.63671-9.68602 5.35507-11.04259 5.27328 0h10.99342l-2.75276-27.04401h2.75276v-10.35278h-5.24585l-0.21869 4.22562h-4.89435l-0.33802-4.22562h-5.45107l-0.23548 4.11896-5.17741 0.10666-0.0382-4.22562z" fill="#f9bd56" stroke-miterlimit="8.68889" stroke-width=".783408"/>
     </g>
     <g id="g3739" transform="matrix(.9913073 0 0 .9813397 191.0313 47.61989)">
      <path id="path3741" d="m-162.5794 109.4537 17.13008 0.16717-0.75892 29.16951-16.15432 0.25074z" fill="#000000" stroke-width="2.3205"/>
      <path id="path3743" d="m-167.1256 102.2602v10.35278h1.90357l-1.90357 27.04401h10.36289c-0.63671-9.68602 5.35507-11.04259 5.27328 0h10.99342l-2.75276-27.04401h2.75276v-10.35278h-5.24585l-0.21869 4.22562h-4.89435l-0.33802-4.22562h-5.45107l-0.23548 4.11896-5.17741 0.10666-0.0382-4.22562z" fill="#f9bd56" stroke-miterlimit="8.68889" stroke-width=".783408"/>
     </g>
     <g id="g3751" transform="matrix(.9913073 0 0 .9813397 6.427565 3.029348)">
      <g id="g3608" transform="translate(316.922)">
       <g id="g3504" transform="translate(-7.962844 -.6825295)">
        <g id="g3675" transform="translate(-23.74831 -.879567)">
         <path id="path3635" d="m-236.0914 235.82c0.0221 1.63419 0.98976 2.55921 2.33286 3.20265l-1.71092 30.82799c3.71329-0.21199 11.36998-2.34629 13.47178 0.66469l-10.48643-34.57094z" fill="#000000" stroke-miterlimit="10.0286"/>
         <path id="path3633" d="m-241.3158 235.82c-0.39527 1.5098-1.61171 3.05677-2.95481 3.70021l1.41212 30.50483c-3.61308-0.24845-11.11062-4.87951-13.04047-1.20042l10.35392-33.00462z" fill="#000000" stroke-miterlimit="10.0286"/>
         <g id="g3621" transform="translate(-7.214594 -.6219478)">
          <g id="g3596" transform="translate(13.43407 2.985349)" fill="#fbe3cc" stroke="#000000" stroke-width=".783408">
           <path id="path3594" d="m-249.1757 242.4886c0.24859-0.15339 0.45536-1.36241 0.33964-2.12035-8.56171-15.37337 17.03674-15.2715 7.71406 0.3058-0.1863 1.51194-0.17116 1.01522 0.33623 2.13588 1.48001 0.31356 3.48947 0.32467 5.34117 2.36335 4.99934 5.50415 10.17758 16.4861 10.74929 17.63026 0.1494 2.53978-0.057 5.70562-0.14939 7.61932h-5.07955l-0.92077-7.96689-5.50271-7.48051c-0.33849 1.2004-0.6186 2.45918-1.71874 2.89793l0.14942 10.68199c2.31031 2.24423 2.96288 2.54389 4.63134 5.90124h-21.88688c0.56712-2.25482 2.41036-4.19061 4.55666-6.05063l-0.97437-10.35935c-1.46238-0.74306-1.75549-2.86642-1.78951-2.99506l-7.76872 16.11828-3.5362-4.08378c2.769-6.78855 5.46864-17.15558 10.08218-22.4685z" stroke-miterlimit="9.78499"/>
           <path id="path3580" d="m-236.4488 255.2711c-0.95283 4.02296-4.90604 4.99129-6.98252 1.75871" stroke-miterlimit="10.0286"/>
           <path id="path4114" d="m-253.3404 255.2711c0.95283 4.02296 4.90604 4.99129 6.98252 1.75871" stroke-miterlimit="10.0286"/>
          </g>
         </g>
         <g id="g3639" transform="translate(-.4975582 .2487791)">
          <path id="path3601" d="m-246.6334 235.1359 15.5487-0.18659 3.35851-14.42919-0.24878-3.6073-11.31945-2.3634-11.19506 2.23901v3.73169z" fill="#ffc65a" stroke-miterlimit="9.78499" stroke-width=".783408"/>
          <path id="path3607" transform="translate(-6.592647 -1.368285)" d="m-239.9827 236.7816 15.53032-0.0742 0.63994-3.28795-17.04099-0.0873z" fill="#ffc65a" stroke-miterlimit="9.94738" stroke-width=".783408"/>
          <g fill="#fbe3cc" stroke-miterlimit="10.0286">
           <path id="path3609" d="m-246.5579 216.2502-0.10657 4.7675"/>
           <path id="path3611" d="m-231.489 216.3704-0.12439 4.37398"/>
           <path id="path3613" d="m-235.3295 215.5576v4.58928"/>
           <path id="path3615" d="m-242.8329 215.5576-0.0533 4.71367"/>
          </g>
         </g>
        </g>
        <g id="g3720" transform="translate(-51.71854 -1.055481)" fill="#f9bd56">
         <path id="path3696" d="m-221.4402 276.509-9.64018 14.41416c9.86817 9.96459 29.2715 10.23133 43.20489 1.54693l-11.87415-16.88769c-7.14012 2.27879-14.74957 3.02869-21.69056 0.9266z" stroke-miterlimit="9.78499" stroke-width=".783408"/>
         <g stroke-miterlimit="10.0286">
          <path id="path3698" d="m-224.085 288.288-3.44051 5.30944"/>
          <path id="path3700" d="m-220.9593 290.2182-2.62665 5.41826"/>
          <path id="path3702" d="m-218.0058 291.4817-1.73044 5.80514"/>
          <path id="path3704" d="m-214.6819 292.1182-0.85273 6.1745"/>
          <path id="path3706" d="m-211.4275 292.2941-0.0204 6.33289"/>
          <path id="path3708" d="m-208.1833 292.3709 0.25369 6.08019"/>
          <path id="path3712" d="m-203.7364 298.0896-1.31935-6.04332"/>
          <path id="path3714" d="m-201.5866 291.2178 2.12948 6.06901"/>
          <path id="path3716" d="m-198.0581 289.8328 2.86369 6.17299"/>
          <path id="path3718" d="m-194.5602 288.2481 3.0109 6.05299"/>
         </g>
        </g>
       </g>
       <g id="g3467" transform="translate(-19.56585 -.9100393)">
        <path id="path3441" d="m-234.3289 279.523c-2.33405 0.062-0.38777 3.08472-0.38777 3.08472 1.45335-1.36792 1.65502-2.92105 0.38777-3.08472z" fill="#1d7b4c" stroke-width=".4"/>
        <g id="g3402" transform="translate(-2.539774 3.61962)">
         <circle id="path3336" transform="translate(.5602467 -5.863904)" cx="-231.2315" cy="279.3856" r="1.232537" fill="#ea5c9f" stroke-width=".6"/>
         <circle id="path3344" transform="translate(1.157841 -3.847025)" cx="-231.2315" cy="279.3856" r="1.232537" fill="#ea5c9f" stroke-width=".6"/>
         <g id="g3378" transform="translate(2.987969 -3.88436)">
          <circle id="path3332" transform="translate(-6.237383 .1867334)" cx="-231.2315" cy="279.3856" r="1.232537" fill="#ea5c9f" stroke-width=".6"/>
          <g id="g3452">
           <g fill="#1d7b4c" stroke-width=".4">
            <path id="path3429" transform="translate(-.4481964 .2240977)" d="m-230.6753 269.841c-0.67704-2.23456 2.80513-1.3406 2.80513-1.3406-0.83992 1.81053-2.25024 2.4916-2.80513 1.3406z"/>
            <path id="path3439" transform="translate(-.4481964 .2240977)" d="m-234.3919 270.1128c0.67704-2.23456-2.80513-1.3406-2.80513-1.3406 0.83992 1.81053 2.25024 2.4916 2.80513 1.3406z"/>
            <path id="path3437" transform="translate(-.4481964 .2240977)" d="m-235.475 273.5863c0.67704-2.23456-2.80513-1.3406-2.80513-1.3406 0.83992 1.81053 2.25024 2.4916 2.80513 1.3406z"/>
            <path id="path3435" transform="translate(-.4481964 .2240977)" d="m-237.4172 278.255c0.67704-2.23456-2.80513-1.3406-2.80513-1.3406 0.83992 1.81053 2.25024 2.4916 2.80513 1.3406z"/>
            <path id="path3443" transform="translate(-.4481964 .2240977)" d="m-228.8728 278.7023c-2.33405 0.062-0.38777 3.08472-0.38777 3.08472 1.45335-1.36792 1.65502-2.92105 0.38777-3.08472z"/>
            <path id="path3433" transform="translate(-.4481964 .2240977)" d="m-227.8843 277.8068c-0.67704-2.23456 2.80513-1.3406 2.80513-1.3406-0.83992 1.81053-2.25024 2.4916-2.80513 1.3406z"/>
            <path id="path3431" transform="translate(-.4481964 .2240977)" d="m-229.9012 272.9514c-0.67704-2.23456 2.80513-1.3406 2.80513-1.3406-0.83992 1.81053-2.25024 2.4916-2.80513 1.3406z"/>
           </g>
           <circle id="path3330" transform="translate(3.510864 -.07469923)" cx="-231.2315" cy="279.3856" r="1.232537" fill="#ea5c9f" stroke-width=".6"/>
           <circle id="path3334" transform="translate(-4.145805 -.1867627)" cx="-231.2315" cy="279.3856" r="1.232537" fill="#ea5c9f" stroke-width=".6"/>
          </g>
          <g fill="#ea5c9f" stroke-width=".6">
           <circle id="path3338" transform="translate(-.03734709 .1867334)" cx="-231.2315" cy="279.3856" r="1.232537"/>
           <circle id="path3340" transform="translate(1.680735 -1.38195)" cx="-231.2315" cy="279.3856" r="1.232537"/>
           <circle id="path3342" transform="translate(-.1867456 -1.45665)" cx="-231.2315" cy="279.3856" r="1.232537"/>
           <circle id="path3346" transform="translate(-4.6687 -2.278341)" cx="-231.2315" cy="279.3856" r="1.232537"/>
           <circle id="path3348" transform="translate(-6.162684 -3.100033)" cx="-231.2315" cy="279.3856" r="1.232537"/>
           <circle id="path3350" transform="translate(-4.967496 -4.892814)" cx="-231.2315" cy="279.3856" r="1.232537"/>
           <circle id="path3352" transform="translate(-3.025316 -4.594017)" cx="-231.2315" cy="279.3856" r="1.232537"/>
           <circle id="path3354" transform="translate(-1.008437 -3.772326)" cx="-231.2315" cy="279.3856" r="1.232537"/>
           <circle id="path3356" transform="translate(1.008442 -3.39883)" cx="-231.2315" cy="279.3856" r="1.232537"/>
           <circle id="path3358" transform="translate(2.875923 -2.726537)" cx="-231.2315" cy="279.3856" r="1.232537"/>
           <circle id="path3360" transform="translate(1.381938 -5.191611)" cx="-231.2315" cy="279.3856" r="1.232537"/>
           <circle id="path3362" transform="translate(-.4108432 -5.938604)" cx="-231.2315" cy="279.3856" r="1.232537"/>
           <circle id="path3364" transform="translate(-2.577121 -6.2374)" cx="-231.2315" cy="279.3856" r="1.232537"/>
           <circle id="path3366" transform="translate(-4.594 -7.806084)" cx="-231.2315" cy="279.3856" r="1.232537"/>
           <circle id="path3368" transform="translate(-2.502422 -7.880784)" cx="-231.2315" cy="279.3856" r="1.232537"/>
           <circle id="path3370" transform="translate(.1120514 -7.880784)" cx="-231.2315" cy="279.3856" r="1.232537"/>
           <circle id="path3372" transform="translate(-.7843394 -9.822964)" cx="-231.2315" cy="279.3856" r="1.232537"/>
           <circle id="path3374" transform="translate(-3.100016 -9.897663)" cx="-231.2315" cy="279.3856" r="1.232537"/>
           <circle id="path3376" transform="translate(-2.128926 -11.98924)" cx="-231.2315" cy="279.3856" r="1.232537"/>
          </g>
         </g>
        </g>
       </g>
       <g id="g3534" transform="translate(-56.28674 -2.783404)">
        <path id="path3536" d="m-234.3289 279.523c-2.33405 0.062-0.38777 3.08472-0.38777 3.08472 1.45335-1.36792 1.65502-2.92105 0.38777-3.08472z" fill="#1d7b4c" stroke-width=".4"/>
        <g id="g3538" transform="translate(-2.539774 3.61962)">
         <circle id="path3540" transform="translate(.5602467 -5.863904)" cx="-231.2315" cy="279.3856" r="1.232537" fill="#ea5c9f" stroke-width=".6"/>
         <circle id="path3542" transform="translate(1.157841 -3.847025)" cx="-231.2315" cy="279.3856" r="1.232537" fill="#ea5c9f" stroke-width=".6"/>
         <g id="g3544" transform="translate(2.987969 -3.88436)">
          <circle id="path3546" transform="translate(-6.237383 .1867334)" cx="-231.2315" cy="279.3856" r="1.232537" fill="#ea5c9f" stroke-width=".6"/>
          <g id="g3548">
           <g fill="#1d7b4c" stroke-width=".4">
            <path id="path3550" transform="translate(-.4481964 .2240977)" d="m-230.6753 269.841c-0.67704-2.23456 2.80513-1.3406 2.80513-1.3406-0.83992 1.81053-2.25024 2.4916-2.80513 1.3406z"/>
            <path id="path3552" transform="translate(-.4481964 .2240977)" d="m-234.3919 270.1128c0.67704-2.23456-2.80513-1.3406-2.80513-1.3406 0.83992 1.81053 2.25024 2.4916 2.80513 1.3406z"/>
            <path id="path3554" transform="translate(-.4481964 .2240977)" d="m-235.475 273.5863c0.67704-2.23456-2.80513-1.3406-2.80513-1.3406 0.83992 1.81053 2.25024 2.4916 2.80513 1.3406z"/>
            <path id="path3556" transform="translate(-.4481964 .2240977)" d="m-237.4172 278.255c0.67704-2.23456-2.80513-1.3406-2.80513-1.3406 0.83992 1.81053 2.25024 2.4916 2.80513 1.3406z"/>
            <path id="path3558" transform="translate(-.4481964 .2240977)" d="m-228.8728 278.7023c-2.33405 0.062-0.38777 3.08472-0.38777 3.08472 1.45335-1.36792 1.65502-2.92105 0.38777-3.08472z"/>
            <path id="path3560" transform="translate(-.4481964 .2240977)" d="m-227.8843 277.8068c-0.67704-2.23456 2.80513-1.3406 2.80513-1.3406-0.83992 1.81053-2.25024 2.4916-2.80513 1.3406z"/>
            <path id="path3562" transform="translate(-.4481964 .2240977)" d="m-229.9012 272.9514c-0.67704-2.23456 2.80513-1.3406 2.80513-1.3406-0.83992 1.81053-2.25024 2.4916-2.80513 1.3406z"/>
           </g>
           <circle id="path3564" transform="translate(3.510864 -.07469923)" cx="-231.2315" cy="279.3856" r="1.232537" fill="#ea5c9f" stroke-width=".6"/>
           <circle id="path3566" transform="translate(-4.145805 -.1867627)" cx="-231.2315" cy="279.3856" r="1.232537" fill="#ea5c9f" stroke-width=".6"/>
          </g>
          <g fill="#ea5c9f" stroke-width=".6">
           <circle id="path3568" transform="translate(-.03734709 .1867334)" cx="-231.2315" cy="279.3856" r="1.232537"/>
           <circle id="path3570" transform="translate(1.680735 -1.38195)" cx="-231.2315" cy="279.3856" r="1.232537"/>
           <circle id="path3573" transform="translate(-.1867456 -1.45665)" cx="-231.2315" cy="279.3856" r="1.232537"/>
           <circle id="path3575" transform="translate(-4.6687 -2.278341)" cx="-231.2315" cy="279.3856" r="1.232537"/>
           <circle id="path3577" transform="translate(-6.162684 -3.100033)" cx="-231.2315" cy="279.3856" r="1.232537"/>
           <circle id="path3579" transform="translate(-4.967496 -4.892814)" cx="-231.2315" cy="279.3856" r="1.232537"/>
           <circle id="path3581" transform="translate(-3.025316 -4.594017)" cx="-231.2315" cy="279.3856" r="1.232537"/>
           <circle id="path3583" transform="translate(-1.008437 -3.772326)" cx="-231.2315" cy="279.3856" r="1.232537"/>
           <circle id="path3585" transform="translate(1.008442 -3.39883)" cx="-231.2315" cy="279.3856" r="1.232537"/>
           <circle id="path3587" transform="translate(2.875923 -2.726537)" cx="-231.2315" cy="279.3856" r="1.232537"/>
           <circle id="path3589" transform="translate(1.381938 -5.191611)" cx="-231.2315" cy="279.3856" r="1.232537"/>
           <circle id="path3591" transform="translate(-.4108432 -5.938604)" cx="-231.2315" cy="279.3856" r="1.232537"/>
           <circle id="path3593" transform="translate(-2.577121 -6.2374)" cx="-231.2315" cy="279.3856" r="1.232537"/>
           <circle id="path3595" transform="translate(-4.594 -7.806084)" cx="-231.2315" cy="279.3856" r="1.232537"/>
           <circle id="path3597" transform="translate(-2.502422 -7.880784)" cx="-231.2315" cy="279.3856" r="1.232537"/>
           <circle id="path3599" transform="translate(.1120514 -7.880784)" cx="-231.2315" cy="279.3856" r="1.232537"/>
           <circle id="path3602" transform="translate(-.7843394 -9.822964)" cx="-231.2315" cy="279.3856" r="1.232537"/>
           <circle id="path3604" transform="translate(-3.100016 -9.897663)" cx="-231.2315" cy="279.3856" r="1.232537"/>
           <circle id="path3606" transform="translate(-2.128926 -11.98924)" cx="-231.2315" cy="279.3856" r="1.232537"/>
          </g>
         </g>
        </g>
       </g>
      </g>
      <path id="path3745" d="m43.84088 234.5223c-0.685024 1.43577-1.181732 2.49032-2.957939 3.3805l-0.528203-3.16922c1.23246-0.0705 1.958758-0.73067 3.486142-0.21128z" fill="#000000" stroke-width=".6"/>
      <path id="path3749" d="m49.22855 234.8392c0.685024 1.43577 1.181732 2.49032 2.957939 3.3805l0.528203-3.16922c-1.23246-0.0704-1.958758-0.73067-3.486142-0.21128z" fill="#000000" stroke-width=".6"/>
     </g>
     <path id="path3713" d="m44.48096 269.4099c5.973359 2.37442 11.12349 1.88411 17.54115 0.42014l2.110049 3.03583c-7.799923 2.52266-15.06228 1.95006-22.26981-0.2559 0.788768-1.15079 1.668236-2.21088 2.618603-3.20007z" fill="#f9bd56" stroke-width=".591787"/>
    </g>
    <path id="path4046" d="m103.6684 24.24248v-4.908862h3.74211v-2.623263h-3.74211v-3.93528h-2.546v3.93528h-3.742092v2.623263h3.742092v4.909635c-2.408442 0.576422-4.204932 2.72912-4.204932 5.313748 0 3.026604 2.451721 5.47833 5.478322 5.47833 3.02583 0 5.47756-2.451726 5.47756-5.47833 0-2.584628-1.7965-4.738099-4.20495-5.314521z" fill="#f9bd57" stroke-width=".772684"/>
    <circle id="circle284" transform="matrix(.9913073 0 0 .9813397 1.400884 4.109014)" cx="137.192" cy="172.506" r="11.917" fill="#1f8fc9" stroke-miterlimit="9.78499" stroke-width=".783408"/>
   </g>
  </g>
 </g>
</svg>
