<?xml version="1.0" encoding="UTF-8"?>
<!DOCTYPE svg PUBLIC "-//W3C//DTD SVG 1.1//EN" "http://www.w3.org/Graphics/SVG/1.1/DTD/svg11.dtd">
<svg xmlns="http://www.w3.org/2000/svg" version="1.1" width="1920px" height="1280px" style="shape-rendering:geometricPrecision; text-rendering:geometricPrecision; image-rendering:optimizeQuality; fill-rule:evenodd; clip-rule:evenodd" xmlns:xlink="http://www.w3.org/1999/xlink">
<g><path style="opacity:1" fill="#fcde00" d="M -0.5,-0.5 C 639.5,-0.5 1279.5,-0.5 1919.5,-0.5C 1919.5,426.167 1919.5,852.833 1919.5,1279.5C 1279.5,1279.5 639.5,1279.5 -0.5,1279.5C -0.5,852.833 -0.5,426.167 -0.5,-0.5 Z"/></g>
<g><path style="opacity:1" fill="#000000" d="M 646.5,78.5 C 660.167,78.5 673.833,78.5 687.5,78.5C 691.659,114.092 695.159,149.758 698,185.5C 701.197,149.829 704.364,114.162 707.5,78.5C 721.167,78.5 734.833,78.5 748.5,78.5C 741.669,129.144 735.003,179.811 728.5,230.5C 708.833,230.5 689.167,230.5 669.5,230.5C 662.019,179.802 654.353,129.135 646.5,78.5 Z"/></g>
<g><path style="opacity:1" fill="#000000" d="M 754.5,78.5 C 767.5,78.5 780.5,78.5 793.5,78.5C 793.5,129.167 793.5,179.833 793.5,230.5C 780.5,230.5 767.5,230.5 754.5,230.5C 754.5,179.833 754.5,129.167 754.5,78.5 Z"/></g>
<g><path style="opacity:1" fill="#000000" d="M 809.5,78.5 C 822.5,78.5 835.5,78.5 848.5,78.5C 848.5,119.167 848.5,159.833 848.5,200.5C 856.5,200.5 864.5,200.5 872.5,200.5C 872.5,210.5 872.5,220.5 872.5,230.5C 851.5,230.5 830.5,230.5 809.5,230.5C 809.5,179.833 809.5,129.167 809.5,78.5 Z"/></g>
<g><path style="opacity:1" fill="#000000" d="M 882.5,78.5 C 895.5,78.5 908.5,78.5 921.5,78.5C 921.5,119.167 921.5,159.833 921.5,200.5C 929.5,200.5 937.5,200.5 945.5,200.5C 945.5,210.5 945.5,220.5 945.5,230.5C 924.5,230.5 903.5,230.5 882.5,230.5C 882.5,179.833 882.5,129.167 882.5,78.5 Z"/></g>
<g><path style="opacity:1" fill="#000000" d="M 955.5,78.5 C 977.5,78.5 999.5,78.5 1021.5,78.5C 1021.5,88.5 1021.5,98.5 1021.5,108.5C 1012.5,108.5 1003.5,108.5 994.5,108.5C 994.5,118.167 994.5,127.833 994.5,137.5C 1002.83,137.5 1011.17,137.5 1019.5,137.5C 1019.5,147.167 1019.5,156.833 1019.5,166.5C 1011.17,166.5 1002.83,166.5 994.5,166.5C 994.5,177.833 994.5,189.167 994.5,200.5C 1004.17,200.5 1013.83,200.5 1023.5,200.5C 1023.5,210.5 1023.5,220.5 1023.5,230.5C 1000.83,230.5 978.167,230.5 955.5,230.5C 955.5,179.833 955.5,129.167 955.5,78.5 Z"/></g>
<g><path style="opacity:1" fill="#000000" d="M 1069.5,78.5 C 1090.19,78.1443 1110.86,78.6443 1131.5,80C 1145.8,81.3025 1154.96,88.8025 1159,102.5C 1160.11,120.471 1160.61,138.471 1160.5,156.5C 1160.61,174.529 1160.11,192.529 1159,210.5C 1157.35,219.479 1152.19,225.313 1143.5,228C 1139.89,228.945 1136.22,229.612 1132.5,230C 1111.5,230.5 1090.5,230.667 1069.5,230.5C 1069.5,179.833 1069.5,129.167 1069.5,78.5 Z"/></g>
<g><path style="opacity:1" fill="#000000" d="M 1175.5,78.5 C 1197.5,78.5 1219.5,78.5 1241.5,78.5C 1241.5,88.5 1241.5,98.5 1241.5,108.5C 1232.5,108.5 1223.5,108.5 1214.5,108.5C 1214.5,118.167 1214.5,127.833 1214.5,137.5C 1222.83,137.5 1231.17,137.5 1239.5,137.5C 1239.5,147.167 1239.5,156.833 1239.5,166.5C 1231.17,166.5 1222.83,166.5 1214.5,166.5C 1214.5,177.833 1214.5,189.167 1214.5,200.5C 1224.17,200.5 1233.83,200.5 1243.5,200.5C 1243.5,210.5 1243.5,220.5 1243.5,230.5C 1220.83,230.5 1198.17,230.5 1175.5,230.5C 1175.5,179.833 1175.5,129.167 1175.5,78.5 Z"/></g>
<g><path style="opacity:1" fill="#fcdf00" d="M 1108.5,104.5 C 1114.77,103.379 1118.94,105.713 1121,111.5C 1121.17,125.333 1121.33,139.167 1121.5,153C 1121.63,168.543 1121.13,184.043 1120,199.5C 1117.34,203.563 1113.51,205.229 1108.5,204.5C 1108.5,171.167 1108.5,137.833 1108.5,104.5 Z"/></g>
<g><path style="opacity:1" fill="#020200" d="M 736.5,313.5 C 882.833,313.5 1029.17,313.5 1175.5,313.5C 1175.38,437.168 1175.72,560.835 1176.5,684.5C 1176.66,715.893 1176.16,747.226 1175,778.5C 1169.28,787.211 1161.11,792.045 1150.5,793C 1091.83,793.167 1033.16,793.667 974.5,794.5C 968.139,803.028 961.973,811.694 956,820.5C 948.225,811.723 940.058,803.223 931.5,795C 869.833,794.667 808.167,794.333 746.5,794C 742.157,792.99 738.99,790.49 737,786.5C 736.5,628.834 736.333,471.167 736.5,313.5 Z"/></g>
<g><path style="opacity:1" fill="#fdc800" d="M 1170.5,449.5 C 1170.82,479.24 1170.49,508.907 1169.5,538.5C 1163.01,539.273 1156.68,540.773 1150.5,543C 1145.19,543.83 1139.86,544.33 1134.5,544.5C 1141.16,505.517 1147.83,466.517 1154.5,427.5C 1154.27,426.068 1153.6,425.568 1152.5,426C 1141.77,433.027 1130.77,439.527 1119.5,445.5C 1124.65,414.068 1130.32,382.735 1136.5,351.5C 1133.65,349.282 1130.32,348.282 1126.5,348.5C 1121.53,379.017 1116.19,409.35 1110.5,439.5C 1101.17,430.675 1092.01,421.675 1083,412.5C 1082.67,412.833 1082.33,413.167 1082,413.5C 1074.79,453.693 1067.29,493.693 1059.5,533.5C 1048.26,538.227 1036.6,541.56 1024.5,543.5C 1001.87,473.233 978.37,403.233 954,333.5C 929.704,403.021 905.871,472.688 882.5,542.5C 872.655,539.108 862.655,536.108 852.5,533.5C 845.324,491.769 837.824,450.102 830,408.5C 820.632,418.036 811.132,427.369 801.5,436.5C 796.166,406.166 790.833,375.832 785.5,345.5C 781.944,345.642 778.61,346.476 775.5,348C 781.611,379.393 787.278,410.893 792.5,442.5C 780.643,436.154 769.143,429.154 758,421.5C 764.013,462.255 770.846,502.922 778.5,543.5C 766.183,541.703 753.85,540.037 741.5,538.5C 741.5,465.167 741.5,391.833 741.5,318.5C 884.5,318.5 1027.5,318.5 1170.5,318.5C 1170.5,362.167 1170.5,405.833 1170.5,449.5 Z"/></g>
<g><path style="opacity:1" fill="#000000" d="M 1024.5,543.5 C 1005.16,545.912 986.826,542.745 969.5,534C 961.821,532.119 954.154,532.119 946.5,534C 926.077,543.742 904.744,546.575 882.5,542.5C 905.871,472.688 929.704,403.021 954,333.5C 978.37,403.233 1001.87,473.233 1024.5,543.5 Z"/></g>
<g><path style="opacity:1" fill="#fd0c00" d="M 801.5,436.5 C 800.063,439.438 798.063,441.938 795.5,444C 794.002,444.585 793.002,444.085 792.5,442.5C 787.278,410.893 781.611,379.393 775.5,348C 778.61,346.476 781.944,345.642 785.5,345.5C 790.833,375.832 796.166,406.166 801.5,436.5 Z"/></g>
<g><path style="opacity:1" fill="#fe0c00" d="M 1119.5,445.5 C 1119.22,446.289 1118.72,446.956 1118,447.5C 1115.3,444.964 1112.8,442.297 1110.5,439.5C 1116.19,409.35 1121.53,379.017 1126.5,348.5C 1130.32,348.282 1133.65,349.282 1136.5,351.5C 1130.32,382.735 1124.65,414.068 1119.5,445.5 Z"/></g>
<g><path style="opacity:1" fill="#020101" d="M 852.5,533.5 C 854.109,540.754 855.442,548.087 856.5,555.5C 858.833,567.5 861.167,579.5 863.5,591.5C 864.833,599.166 866.166,606.832 867.5,614.5C 870.091,627.788 872.424,641.121 874.5,654.5C 870.908,654.302 867.574,653.302 864.5,651.5C 862.725,637.294 860.059,623.294 856.5,609.5C 855.886,602.435 854.886,595.435 853.5,588.5C 851.417,576.421 849.084,564.421 846.5,552.5C 845.662,546.145 844.662,539.812 843.5,533.5C 837.2,498.39 830.534,463.39 823.5,428.5C 816.152,434.874 809.485,441.874 803.5,449.5C 800.833,451.833 798.167,454.167 795.5,456.5C 787.564,451.525 779.564,446.525 771.5,441.5C 771.167,442.5 770.833,443.5 770.5,444.5C 776.298,477.49 781.965,510.49 787.5,543.5C 788.823,550.8 790.156,558.133 791.5,565.5C 793.328,576.66 795.328,587.66 797.5,598.5C 798.582,605.49 799.582,612.49 800.5,619.5C 802.828,632.133 805.162,644.8 807.5,657.5C 804.14,657.616 800.807,657.949 797.5,658.5C 795.779,645.788 793.779,633.121 791.5,620.5C 790.166,613.161 788.833,605.828 787.5,598.5C 785.939,587.289 783.939,576.289 781.5,565.5C 780.76,558.131 779.76,550.798 778.5,543.5C 770.846,502.922 764.013,462.255 758,421.5C 769.143,429.154 780.643,436.154 792.5,442.5C 793.002,444.085 794.002,444.585 795.5,444C 798.063,441.938 800.063,439.438 801.5,436.5C 811.132,427.369 820.632,418.036 830,408.5C 837.824,450.102 845.324,491.769 852.5,533.5 Z"/></g>
<g><path style="opacity:1" fill="#020101" d="M 1110.5,439.5 C 1112.8,442.297 1115.3,444.964 1118,447.5C 1118.72,446.956 1119.22,446.289 1119.5,445.5C 1130.77,439.527 1141.77,433.027 1152.5,426C 1153.6,425.568 1154.27,426.068 1154.5,427.5C 1147.83,466.517 1141.16,505.517 1134.5,544.5C 1132.84,551.784 1131.51,559.118 1130.5,566.5C 1128.75,577.582 1126.75,588.582 1124.5,599.5C 1123.5,606.825 1122.5,614.158 1121.5,621.5C 1119.25,633.846 1116.91,646.18 1114.5,658.5C 1111.31,658.142 1108.31,657.475 1105.5,656.5C 1107.87,644.23 1109.87,631.896 1111.5,619.5C 1113.07,612.67 1114.4,605.67 1115.5,598.5C 1117.5,587.53 1119.5,576.53 1121.5,565.5C 1122.63,558.518 1123.63,551.518 1124.5,544.5C 1130.92,510.909 1136.75,477.242 1142,443.5C 1133.6,448.754 1125.1,453.754 1116.5,458.5C 1113.53,456.853 1110.86,454.853 1108.5,452.5C 1102.47,445.096 1095.8,438.096 1088.5,431.5C 1082,465.152 1075.67,498.819 1069.5,532.5C 1068.24,539.128 1067.24,545.794 1066.5,552.5C 1063.68,564.285 1061.34,576.285 1059.5,588.5C 1057.86,595.744 1056.52,603.077 1055.5,610.5C 1052.82,624.527 1050.16,638.527 1047.5,652.5C 1044.45,654.101 1041.12,655.101 1037.5,655.5C 1039.86,642.075 1042.52,628.741 1045.5,615.5C 1046.36,607.718 1047.7,600.051 1049.5,592.5C 1051.45,580.063 1053.79,567.73 1056.5,555.5C 1057.5,548.169 1058.5,540.836 1059.5,533.5C 1067.29,493.693 1074.79,453.693 1082,413.5C 1082.33,413.167 1082.67,412.833 1083,412.5C 1092.01,421.675 1101.17,430.675 1110.5,439.5 Z"/></g>
<g><path style="opacity:1" fill="#fcc700" d="M 843.5,533.5 C 835.432,533.434 827.766,535.101 820.5,538.5C 814.707,508.869 809.041,479.202 803.5,449.5C 809.485,441.874 816.152,434.874 823.5,428.5C 830.534,463.39 837.2,498.39 843.5,533.5 Z"/></g>
<g><path style="opacity:1" fill="#fcc700" d="M 1108.5,452.5 C 1103.53,481.029 1098.19,509.362 1092.5,537.5C 1085.09,534.733 1077.43,533.066 1069.5,532.5C 1075.67,498.819 1082,465.152 1088.5,431.5C 1095.8,438.096 1102.47,445.096 1108.5,452.5 Z"/></g>
<g><path style="opacity:1" fill="#fdc800" d="M 795.5,456.5 C 800.627,484.803 805.627,513.137 810.5,541.5C 802.985,543.257 795.318,543.924 787.5,543.5C 781.965,510.49 776.298,477.49 770.5,444.5C 770.833,443.5 771.167,442.5 771.5,441.5C 779.564,446.525 787.564,451.525 795.5,456.5 Z"/></g>
<g><path style="opacity:1" fill="#fdc800" d="M 1124.5,544.5 C 1117.07,544.154 1109.73,543.154 1102.5,541.5C 1107.17,513.831 1111.83,486.164 1116.5,458.5C 1125.1,453.754 1133.6,448.754 1142,443.5C 1136.75,477.242 1130.92,510.909 1124.5,544.5 Z"/></g>
<g><path style="opacity:1" fill="#fd0801" d="M 803.5,449.5 C 809.041,479.202 814.707,508.869 820.5,538.5C 820.991,545.278 821.991,551.945 823.5,558.5C 824.899,569.402 826.899,580.068 829.5,590.5C 830.314,597.197 831.314,603.863 832.5,610.5C 835.202,623.072 837.535,635.739 839.5,648.5C 836.303,648.405 833.303,649.072 830.5,650.5C 828.317,638.109 825.984,625.776 823.5,613.5C 822.593,607.153 821.593,600.82 820.5,594.5C 818.589,583.781 816.589,573.114 814.5,562.5C 813.409,555.419 812.075,548.419 810.5,541.5C 805.627,513.137 800.627,484.803 795.5,456.5C 798.167,454.167 800.833,451.833 803.5,449.5 Z"/></g>
<g><path style="opacity:1" fill="#fd0701" d="M 1108.5,452.5 C 1110.86,454.853 1113.53,456.853 1116.5,458.5C 1111.83,486.164 1107.17,513.831 1102.5,541.5C 1100.9,547.989 1099.57,554.656 1098.5,561.5C 1096.6,572.154 1094.6,582.821 1092.5,593.5C 1091.31,600.137 1090.31,606.803 1089.5,613.5C 1086.93,625.331 1084.6,637.331 1082.5,649.5C 1079.57,648.701 1076.57,648.368 1073.5,648.5C 1075.56,635.422 1077.89,622.422 1080.5,609.5C 1081.72,602.868 1082.72,596.201 1083.5,589.5C 1086.12,579.077 1088.12,568.41 1089.5,557.5C 1091.01,550.945 1092.01,544.278 1092.5,537.5C 1098.19,509.362 1103.53,481.029 1108.5,452.5 Z"/></g>
<g><path style="opacity:1" fill="#9c7c0a" d="M 1170.5,449.5 C 1171.5,478.995 1171.83,508.662 1171.5,538.5C 1170.83,538.5 1170.17,538.5 1169.5,538.5C 1170.49,508.907 1170.82,479.24 1170.5,449.5 Z"/></g>
<g><path style="opacity:1" fill="#f9fafb" d="M 1024.5,543.5 C 1036.6,541.56 1048.26,538.227 1059.5,533.5C 1058.5,540.836 1057.5,548.169 1056.5,555.5C 1025.73,569.531 995.395,568.698 965.5,553C 960.167,551 954.833,551 949.5,553C 929.461,564.007 908.128,567.674 885.5,564C 875.644,561.657 865.977,558.824 856.5,555.5C 855.442,548.087 854.109,540.754 852.5,533.5C 862.655,536.108 872.655,539.108 882.5,542.5C 904.744,546.575 926.077,543.742 946.5,534C 954.154,532.119 961.821,532.119 969.5,534C 986.826,542.745 1005.16,545.912 1024.5,543.5 Z"/></g>
<g><path style="opacity:1" fill="#f9fafb" d="M 843.5,533.5 C 844.662,539.812 845.662,546.145 846.5,552.5C 838.409,552.863 830.742,554.863 823.5,558.5C 821.991,551.945 820.991,545.278 820.5,538.5C 827.766,535.101 835.432,533.434 843.5,533.5 Z"/></g>
<g><path style="opacity:1" fill="#fafafb" d="M 1069.5,532.5 C 1077.43,533.066 1085.09,534.733 1092.5,537.5C 1092.01,544.278 1091.01,550.945 1089.5,557.5C 1085.08,556.303 1080.74,554.803 1076.5,553C 1073.18,552.502 1069.85,552.335 1066.5,552.5C 1067.24,545.794 1068.24,539.128 1069.5,532.5 Z"/></g>
<g><path style="opacity:1" fill="#f9fafc" d="M 741.5,538.5 C 753.85,540.037 766.183,541.703 778.5,543.5C 779.76,550.798 780.76,558.131 781.5,565.5C 767.845,564.336 754.512,561.669 741.5,557.5C 741.5,551.167 741.5,544.833 741.5,538.5 Z"/></g>
<g><path style="opacity:1" fill="#f9fafb" d="M 1169.5,538.5 C 1170.17,538.5 1170.83,538.5 1171.5,538.5C 1171.5,544.5 1171.5,550.5 1171.5,556.5C 1158.63,562.801 1144.96,566.134 1130.5,566.5C 1131.51,559.118 1132.84,551.784 1134.5,544.5C 1139.86,544.33 1145.19,543.83 1150.5,543C 1156.68,540.773 1163.01,539.273 1169.5,538.5 Z"/></g>
<g><path style="opacity:1" fill="#f9f9fb" d="M 810.5,541.5 C 812.075,548.419 813.409,555.419 814.5,562.5C 806.884,563.89 799.218,564.89 791.5,565.5C 790.156,558.133 788.823,550.8 787.5,543.5C 795.318,543.924 802.985,543.257 810.5,541.5 Z"/></g>
<g><path style="opacity:1" fill="#fafafb" d="M 1102.5,541.5 C 1109.73,543.154 1117.07,544.154 1124.5,544.5C 1123.63,551.518 1122.63,558.518 1121.5,565.5C 1113.64,565.195 1105.98,563.862 1098.5,561.5C 1099.57,554.656 1100.9,547.989 1102.5,541.5 Z"/></g>
<g><path style="opacity:1" fill="#013398" d="M 1056.5,555.5 C 1053.79,567.73 1051.45,580.063 1049.5,592.5C 1022.34,601.545 995.677,600.379 969.5,589C 962.901,587.504 956.234,587.171 949.5,588C 921.275,601.688 892.608,602.855 863.5,591.5C 861.167,579.5 858.833,567.5 856.5,555.5C 865.977,558.824 875.644,561.657 885.5,564C 908.128,567.674 929.461,564.007 949.5,553C 954.833,551 960.167,551 965.5,553C 995.395,568.698 1025.73,569.531 1056.5,555.5 Z"/></g>
<g><path style="opacity:1" fill="#043397" d="M 846.5,552.5 C 849.084,564.421 851.417,576.421 853.5,588.5C 845.3,586.874 837.3,587.541 829.5,590.5C 826.899,580.068 824.899,569.402 823.5,558.5C 830.742,554.863 838.409,552.863 846.5,552.5 Z"/></g>
<g><path style="opacity:1" fill="#053397" d="M 1066.5,552.5 C 1069.85,552.335 1073.18,552.502 1076.5,553C 1080.74,554.803 1085.08,556.303 1089.5,557.5C 1088.12,568.41 1086.12,579.077 1083.5,589.5C 1075.58,587.363 1067.58,587.029 1059.5,588.5C 1061.34,576.285 1063.68,564.285 1066.5,552.5 Z"/></g>
<g><path style="opacity:1" fill="#013397" d="M 741.5,557.5 C 754.512,561.669 767.845,564.336 781.5,565.5C 783.939,576.289 785.939,587.289 787.5,598.5C 772.044,597.875 756.71,596.208 741.5,593.5C 741.5,581.5 741.5,569.5 741.5,557.5 Z"/></g>
<g><path style="opacity:1" fill="#013397" d="M 1171.5,556.5 C 1171.5,568.833 1171.5,581.167 1171.5,593.5C 1161.53,595.324 1151.53,597.157 1141.5,599C 1135.84,599.499 1130.18,599.666 1124.5,599.5C 1126.75,588.582 1128.75,577.582 1130.5,566.5C 1144.96,566.134 1158.63,562.801 1171.5,556.5 Z"/></g>
<g><path style="opacity:1" fill="#033397" d="M 1098.5,561.5 C 1105.98,563.862 1113.64,565.195 1121.5,565.5C 1119.5,576.53 1117.5,587.53 1115.5,598.5C 1107.7,597.454 1100.03,595.787 1092.5,593.5C 1094.6,582.821 1096.6,572.154 1098.5,561.5 Z"/></g>
<g><path style="opacity:1" fill="#063397" d="M 814.5,562.5 C 816.589,573.114 818.589,583.781 820.5,594.5C 812.974,596.566 805.307,597.9 797.5,598.5C 795.328,587.66 793.328,576.66 791.5,565.5C 799.218,564.89 806.884,563.89 814.5,562.5 Z"/></g>
<g><path style="opacity:1" fill="#f8f9fb" d="M 853.5,588.5 C 854.886,595.435 855.886,602.435 856.5,609.5C 848.308,606.518 840.308,606.851 832.5,610.5C 831.314,603.863 830.314,597.197 829.5,590.5C 837.3,587.541 845.3,586.874 853.5,588.5 Z"/></g>
<g><path style="opacity:1" fill="#f8fafb" d="M 1049.5,592.5 C 1047.7,600.051 1046.36,607.718 1045.5,615.5C 1017.74,624.016 991.069,621.516 965.5,608C 960.924,606.524 956.257,606.19 951.5,607C 924.645,621.718 896.645,624.218 867.5,614.5C 866.166,606.832 864.833,599.166 863.5,591.5C 892.608,602.855 921.275,601.688 949.5,588C 956.234,587.171 962.901,587.504 969.5,589C 995.677,600.379 1022.34,601.545 1049.5,592.5 Z"/></g>
<g><path style="opacity:1" fill="#f8f9fb" d="M 1083.5,589.5 C 1082.72,596.201 1081.72,602.868 1080.5,609.5C 1072.04,605.452 1063.71,605.785 1055.5,610.5C 1056.52,603.077 1057.86,595.744 1059.5,588.5C 1067.58,587.029 1075.58,587.363 1083.5,589.5 Z"/></g>
<g><path style="opacity:1" fill="#f8f9fb" d="M 741.5,593.5 C 756.71,596.208 772.044,597.875 787.5,598.5C 788.833,605.828 790.166,613.161 791.5,620.5C 774.388,620.544 757.721,617.877 741.5,612.5C 741.5,606.167 741.5,599.833 741.5,593.5 Z"/></g>
<g><path style="opacity:1" fill="#f9f9fb" d="M 1092.5,593.5 C 1100.03,595.787 1107.7,597.454 1115.5,598.5C 1114.4,605.67 1113.07,612.67 1111.5,619.5C 1104.07,617.809 1096.73,615.809 1089.5,613.5C 1090.31,606.803 1091.31,600.137 1092.5,593.5 Z"/></g>
<g><path style="opacity:1" fill="#f8fafb" d="M 1171.5,593.5 C 1171.5,599.5 1171.5,605.5 1171.5,611.5C 1155.7,618.913 1139.03,622.246 1121.5,621.5C 1122.5,614.158 1123.5,606.825 1124.5,599.5C 1130.18,599.666 1135.84,599.499 1141.5,599C 1151.53,597.157 1161.53,595.324 1171.5,593.5 Z"/></g>
<g><path style="opacity:1" fill="#f9fafb" d="M 820.5,594.5 C 821.593,600.82 822.593,607.153 823.5,613.5C 816.077,616.305 808.411,618.305 800.5,619.5C 799.582,612.49 798.582,605.49 797.5,598.5C 805.307,597.9 812.974,596.566 820.5,594.5 Z"/></g>
<g><path style="opacity:1" fill="#013398" d="M 1045.5,615.5 C 1042.52,628.741 1039.86,642.075 1037.5,655.5C 1013.88,661.777 990.879,659.61 968.5,649C 956.532,646.328 945.198,647.995 934.5,654C 914.484,661.127 894.484,661.294 874.5,654.5C 872.424,641.121 870.091,627.788 867.5,614.5C 896.645,624.218 924.645,621.718 951.5,607C 956.257,606.19 960.924,606.524 965.5,608C 991.069,621.516 1017.74,624.016 1045.5,615.5 Z"/></g>
<g><path style="opacity:1" fill="#033397" d="M 856.5,609.5 C 860.059,623.294 862.725,637.294 864.5,651.5C 856.398,648.887 848.064,647.887 839.5,648.5C 837.535,635.739 835.202,623.072 832.5,610.5C 840.308,606.851 848.308,606.518 856.5,609.5 Z"/></g>
<g><path style="opacity:1" fill="#083498" d="M 1080.5,609.5 C 1077.89,622.422 1075.56,635.422 1073.5,648.5C 1068.49,648.334 1063.49,648.501 1058.5,649C 1054.98,650.674 1051.31,651.84 1047.5,652.5C 1050.16,638.527 1052.82,624.527 1055.5,610.5C 1063.71,605.785 1072.04,605.452 1080.5,609.5 Z"/></g>
<g><path style="opacity:1" fill="#013397" d="M 1171.5,611.5 C 1171.5,625.5 1171.5,639.5 1171.5,653.5C 1161.83,655.165 1152.17,656.998 1142.5,659C 1133.12,659.78 1123.79,659.613 1114.5,658.5C 1116.91,646.18 1119.25,633.846 1121.5,621.5C 1139.03,622.246 1155.7,618.913 1171.5,611.5 Z"/></g>
<g><path style="opacity:1" fill="#003397" d="M 741.5,612.5 C 757.721,617.877 774.388,620.544 791.5,620.5C 793.779,633.121 795.779,645.788 797.5,658.5C 789.493,658.666 781.493,658.5 773.5,658C 762.871,656.173 752.204,654.673 741.5,653.5C 741.5,639.833 741.5,626.167 741.5,612.5 Z"/></g>
<g><path style="opacity:1" fill="#053397" d="M 823.5,613.5 C 825.984,625.776 828.317,638.109 830.5,650.5C 822.983,653.296 815.317,655.63 807.5,657.5C 805.162,644.8 802.828,632.133 800.5,619.5C 808.411,618.305 816.077,616.305 823.5,613.5 Z"/></g>
<g><path style="opacity:1" fill="#063397" d="M 1089.5,613.5 C 1096.73,615.809 1104.07,617.809 1111.5,619.5C 1109.87,631.896 1107.87,644.23 1105.5,656.5C 1097.55,655.023 1089.89,652.69 1082.5,649.5C 1084.6,637.331 1086.93,625.331 1089.5,613.5 Z"/></g>
<g><path style="opacity:1" fill="#f9fafc" d="M 1037.5,655.5 C 1041.12,655.101 1044.45,654.101 1047.5,652.5C 1051.31,651.84 1054.98,650.674 1058.5,649C 1063.49,648.501 1068.49,648.334 1073.5,648.5C 1076.57,648.368 1079.57,648.701 1082.5,649.5C 1089.89,652.69 1097.55,655.023 1105.5,656.5C 1108.31,657.475 1111.31,658.142 1114.5,658.5C 1123.79,659.613 1133.12,659.78 1142.5,659C 1152.17,656.998 1161.83,655.165 1171.5,653.5C 1171.5,659.5 1171.5,665.5 1171.5,671.5C 1152.81,680.639 1133.14,683.472 1112.5,680C 1101.08,677.526 1090.08,673.86 1079.5,669C 1073.9,667.544 1068.24,667.211 1062.5,668C 1029.86,684.609 997.189,684.609 964.5,668C 959.487,666.107 954.487,666.107 949.5,668C 918.094,684.321 886.427,684.654 854.5,669C 848.142,667.117 841.809,667.117 835.5,669C 804.7,683.012 773.367,684.179 741.5,672.5C 741.5,666.167 741.5,659.833 741.5,653.5C 752.204,654.673 762.871,656.173 773.5,658C 781.493,658.5 789.493,658.666 797.5,658.5C 800.807,657.949 804.14,657.616 807.5,657.5C 815.317,655.63 822.983,653.296 830.5,650.5C 833.303,649.072 836.303,648.405 839.5,648.5C 848.064,647.887 856.398,648.887 864.5,651.5C 867.574,653.302 870.908,654.302 874.5,654.5C 894.484,661.294 914.484,661.127 934.5,654C 945.198,647.995 956.532,646.328 968.5,649C 990.879,659.61 1013.88,661.777 1037.5,655.5 Z"/></g>
<g><path style="opacity:1" fill="#013398" d="M 1171.5,671.5 C 1171.5,684.5 1171.5,697.5 1171.5,710.5C 1164.71,711.365 1158.04,712.865 1151.5,715C 1143.85,716.016 1136.19,716.85 1128.5,717.5C 1111.54,716.232 1095.2,712.399 1079.5,706C 1072.83,705.333 1066.17,705.333 1059.5,706C 1029.1,719.8 998.766,719.8 968.5,706C 961.493,704.082 954.493,704.082 947.5,706C 927.463,715.56 906.463,718.56 884.5,715C 874.456,712.208 864.456,709.208 854.5,706C 848.167,705.333 841.833,705.333 835.5,706C 825.675,709.609 815.675,712.609 805.5,715C 799.672,715.56 793.838,716.06 788,716.5C 772.454,715.156 756.954,713.49 741.5,711.5C 741.5,698.5 741.5,685.5 741.5,672.5C 773.367,684.179 804.7,683.012 835.5,669C 841.809,667.117 848.142,667.117 854.5,669C 886.427,684.654 918.094,684.321 949.5,668C 954.487,666.107 959.487,666.107 964.5,668C 997.189,684.609 1029.86,684.609 1062.5,668C 1068.24,667.211 1073.9,667.544 1079.5,669C 1090.08,673.86 1101.08,677.526 1112.5,680C 1133.14,683.472 1152.81,680.639 1171.5,671.5 Z"/></g>
<g><path style="opacity:1" fill="#1b1707" d="M 680.5,690.5 C 701.784,688.624 716.284,697.624 724,717.5C 729.137,730.968 729.804,744.635 726,758.5C 721.752,773.993 715.586,788.659 707.5,802.5C 710.687,803.865 714.02,804.699 717.5,805C 758.808,805.663 799.474,810.997 839.5,821C 861.156,827.996 882.822,834.996 904.5,842C 931.709,851.257 959.376,852.923 987.5,847C 1014.34,839.276 1041.01,830.943 1067.5,822C 1108.73,811.01 1150.73,805.343 1193.5,805C 1196.56,804.355 1199.56,803.522 1202.5,802.5C 1193.18,785.867 1186.68,768.2 1183,749.5C 1180.25,728.758 1186.41,711.258 1201.5,697C 1215.86,688.051 1229.86,688.384 1243.5,698C 1246.95,700.482 1250.12,703.315 1253,706.5C 1270.73,695.633 1289.9,692.133 1310.5,696C 1319.49,697.236 1326.65,701.403 1332,708.5C 1334.13,727.252 1332.13,745.586 1326,763.5C 1317.54,782.15 1303.04,789.983 1282.5,787C 1273.34,784.756 1265.34,780.422 1258.5,774C 1249.29,764.285 1239.62,755.119 1229.5,746.5C 1229.17,747 1228.83,747.5 1228.5,748C 1230.46,754.895 1232.63,761.728 1235,768.5C 1240.21,777.586 1244.88,786.919 1249,796.5C 1253.25,813.763 1251.58,830.43 1244,846.5C 1231.99,857.417 1217.83,863.917 1201.5,866C 1180.54,868.135 1159.54,869.802 1138.5,871C 1111.56,873.388 1085.23,878.721 1059.5,887C 1032.91,896.419 1005.91,904.419 978.5,911C 956.483,915.142 934.817,913.809 913.5,907C 880.39,896.185 847.057,886.185 813.5,877C 802.49,875.415 791.49,873.749 780.5,872C 754.4,870.682 728.4,868.349 702.5,865C 688.662,862.248 676.662,856.082 666.5,846.5C 657.567,826.186 657.401,805.853 666,785.5C 669.755,780.997 672.755,775.997 675,770.5C 677.915,762.329 680.748,754.162 683.5,746C 681.024,746.747 678.691,748.081 676.5,750C 665.357,762.484 653.024,773.484 639.5,783C 624.591,789.756 610.257,788.756 596.5,780C 592.154,776.133 588.654,771.633 586,766.5C 578.228,746.965 576.228,726.965 580,706.5C 586.116,700.013 593.616,696.18 602.5,695C 618.367,692.966 633.701,694.966 648.5,701C 651.912,702.455 655.079,704.288 658,706.5C 664.68,699.767 672.18,694.434 680.5,690.5 Z"/></g>
<g><path style="opacity:1" fill="#f8db49" d="M 681.5,694.5 C 697.336,691.163 709.503,696.496 718,710.5C 726.035,726.459 727.701,743.126 723,760.5C 718.808,774.882 712.975,788.549 705.5,801.5C 700.364,802.141 695.364,801.308 690.5,799C 685.833,796.667 681.167,794.333 676.5,792C 673.689,790.356 671.356,788.19 669.5,785.5C 683.202,762.025 689.702,736.692 689,709.5C 688.056,703.611 685.556,698.611 681.5,694.5 Z"/></g>
<g><path style="opacity:1" fill="#f8dc49" d="M 1212.5,693.5 C 1218.18,693.334 1223.84,693.501 1229.5,694C 1225.29,697.917 1222.79,702.75 1222,708.5C 1220.83,736.16 1227.33,761.826 1241.5,785.5C 1231.74,794.463 1220.24,800.129 1207,802.5C 1205.74,802.241 1204.74,801.574 1204,800.5C 1195.01,784.532 1189.01,767.532 1186,749.5C 1182.94,730.34 1188.11,713.84 1201.5,700C 1205.1,697.539 1208.76,695.373 1212.5,693.5 Z"/></g>
<g><path style="opacity:1" fill="#f8dc49" d="M 676.5,694.5 C 681.587,697.306 684.754,701.64 686,707.5C 686.916,718.926 686.25,730.26 684,741.5C 671.867,751.965 660.034,762.798 648.5,774C 637.552,783.571 624.885,786.905 610.5,784C 599.511,780.347 591.678,773.18 587,762.5C 582.618,750.877 580.618,738.877 581,726.5C 590.514,742.49 604.014,746.99 621.5,740C 626.492,737.839 631.159,735.172 635.5,732C 646.497,722.003 657.164,711.669 667.5,701C 670.921,699.301 673.921,697.135 676.5,694.5 Z"/></g>
<g><path style="opacity:1" fill="#f8dc49" d="M 1232.5,694.5 C 1236.61,696.728 1240.61,699.228 1244.5,702C 1254.53,712.364 1264.86,722.364 1275.5,732C 1286.91,741.77 1299.91,744.77 1314.5,741C 1322.12,736.937 1327.29,730.77 1330,722.5C 1331.31,740.003 1327.65,756.337 1319,771.5C 1308.36,783.268 1295.19,787.434 1279.5,784C 1270.5,780.167 1262.5,774.834 1255.5,768C 1246.6,758.432 1237.1,749.599 1227,741.5C 1224.7,730.272 1224.03,718.939 1225,707.5C 1225.96,702.233 1228.46,697.899 1232.5,694.5 Z"/></g>
<g><path style="opacity:1" fill="#f7da48" d="M 606.5,696.5 C 621.367,695.978 635.7,698.478 649.5,704C 651.717,705.268 653.717,706.768 655.5,708.5C 645.704,721.139 633.704,730.973 619.5,738C 600.919,743.793 588.086,737.626 581,719.5C 578.763,712.155 580.93,706.655 587.5,703C 593.59,699.738 599.924,697.571 606.5,696.5 Z"/></g>
<g><path style="opacity:1" fill="#f7da48" d="M 1286.5,696.5 C 1299.4,695.652 1311.73,697.819 1323.5,703C 1325.33,704.833 1327.17,706.667 1329,708.5C 1330.42,711.03 1330.75,713.697 1330,716.5C 1327.12,724.447 1322.62,731.281 1316.5,737C 1307.24,741.497 1297.9,741.497 1288.5,737C 1276.2,729.711 1265.37,720.544 1256,709.5C 1255.38,708.551 1255.55,707.718 1256.5,707C 1265.86,701.382 1275.86,697.882 1286.5,696.5 Z"/></g>
<g><path style="opacity:1" fill="#f9fafc" d="M 1171.5,710.5 C 1171.5,716.5 1171.5,722.5 1171.5,728.5C 1152.52,737.926 1132.52,740.759 1111.5,737C 1100.2,734.179 1089.2,730.512 1078.5,726C 1073.57,724.582 1068.57,724.249 1063.5,725C 1030.44,741.647 997.437,741.647 964.5,725C 962,724.5 959.5,724 957,723.5C 947.702,726.6 938.535,730.1 929.5,734C 914.3,737.738 898.966,738.405 883.5,736C 870.719,732.437 858.052,728.604 845.5,724.5C 835.161,726.557 825.161,729.724 815.5,734C 790.361,739.77 765.695,738.27 741.5,729.5C 741.5,723.5 741.5,717.5 741.5,711.5C 756.954,713.49 772.454,715.156 788,716.5C 793.838,716.06 799.672,715.56 805.5,715C 815.675,712.609 825.675,709.609 835.5,706C 841.833,705.333 848.167,705.333 854.5,706C 864.456,709.208 874.456,712.208 884.5,715C 906.463,718.56 927.463,715.56 947.5,706C 954.493,704.082 961.493,704.082 968.5,706C 998.766,719.8 1029.1,719.8 1059.5,706C 1066.17,705.333 1072.83,705.333 1079.5,706C 1095.2,712.399 1111.54,716.232 1128.5,717.5C 1136.19,716.85 1143.85,716.016 1151.5,715C 1158.04,712.865 1164.71,711.365 1171.5,710.5 Z"/></g>
<g><path style="opacity:1" fill="#003397" d="M 1171.5,728.5 C 1171.67,744.17 1171.5,759.837 1171,775.5C 1167.84,781.344 1163,785.177 1156.5,787C 1095.21,788.152 1033.88,788.985 972.5,789.5C 967.077,797.345 961.411,805.011 955.5,812.5C 948.543,805.342 941.543,798.175 934.5,791C 873.5,790.667 812.5,790.333 751.5,790C 748.097,789.422 744.93,788.255 742,786.5C 741.5,767.503 741.333,748.503 741.5,729.5C 765.695,738.27 790.361,739.77 815.5,734C 825.161,729.724 835.161,726.557 845.5,724.5C 858.052,728.604 870.719,732.437 883.5,736C 898.966,738.405 914.3,737.738 929.5,734C 938.535,730.1 947.702,726.6 957,723.5C 959.5,724 962,724.5 964.5,725C 997.437,741.647 1030.44,741.647 1063.5,725C 1068.57,724.249 1073.57,724.582 1078.5,726C 1089.2,730.512 1100.2,734.179 1111.5,737C 1132.52,740.759 1152.52,737.926 1171.5,728.5 Z"/></g>
<g><path style="opacity:1" fill="#f5d948" d="M 667.5,788.5 C 677.592,796.378 688.925,801.878 701.5,805C 736.559,808.277 771.559,811.944 806.5,816C 816.927,817.92 827.26,820.253 837.5,823C 868.095,833.755 899.095,843.088 930.5,851C 950.298,854.6 969.965,853.934 989.5,849C 1015.35,841.606 1041.02,833.606 1066.5,825C 1104.72,814.18 1143.72,808.513 1183.5,808C 1201.58,807.72 1218.58,803.387 1234.5,795C 1237.33,792.833 1240.17,790.667 1243,788.5C 1249.8,805.081 1250.3,821.915 1244.5,839C 1243.92,842.07 1242.59,844.737 1240.5,847C 1231.38,854.393 1221.05,859.393 1209.5,862C 1176.5,865.216 1143.5,868.55 1110.5,872C 1098.37,874.033 1086.37,876.7 1074.5,880C 1045.23,889.315 1015.9,898.315 986.5,907C 962.692,912.032 939.025,911.365 915.5,905C 882.394,894.186 849.061,884.186 815.5,875C 805.5,873.333 795.5,871.667 785.5,870C 760.486,868.181 735.486,866.181 710.5,864C 696.094,861.979 683.094,856.646 671.5,848C 666.706,840.958 663.873,833.125 663,824.5C 661.274,812.029 662.774,800.029 667.5,788.5 Z"/></g>
<g><path style="opacity:1" fill="#131006" d="M 1205.5,818.5 C 1211.83,818.5 1218.17,818.5 1224.5,818.5C 1224.5,820.167 1224.5,821.833 1224.5,823.5C 1222.5,823.5 1220.5,823.5 1218.5,823.5C 1218.5,830.167 1218.5,836.833 1218.5,843.5C 1216.5,843.5 1214.5,843.5 1212.5,843.5C 1212.5,836.833 1212.5,830.167 1212.5,823.5C 1210.17,823.5 1207.83,823.5 1205.5,823.5C 1205.5,821.833 1205.5,820.167 1205.5,818.5 Z"/></g>
<g><path style="opacity:1" fill="#131006" d="M 686.5,819.5 C 688.167,819.5 689.833,819.5 691.5,819.5C 691.5,823.167 691.5,826.833 691.5,830.5C 691.5,833.5 691.5,836.5 691.5,839.5C 695.167,839.5 698.833,839.5 702.5,839.5C 702.5,841.167 702.5,842.833 702.5,844.5C 696.819,844.365 691.152,844.032 685.5,843.5C 685.264,835.458 685.597,827.458 686.5,819.5 Z"/></g>
<g><path style="opacity:1" fill="#0a0802" d="M 1192.5,819.5 C 1196.17,819.5 1199.83,819.5 1203.5,819.5C 1203.5,820.833 1203.5,822.167 1203.5,823.5C 1202.5,823.5 1201.5,823.5 1200.5,823.5C 1200.47,828.862 1200.81,834.195 1201.5,839.5C 1202.5,839.5 1203.5,839.5 1204.5,839.5C 1204.5,841.167 1204.5,842.833 1204.5,844.5C 1200.83,844.5 1197.17,844.5 1193.5,844.5C 1195.04,837.948 1195.71,831.281 1195.5,824.5C 1194.5,824.5 1193.5,824.5 1192.5,824.5C 1192.5,822.833 1192.5,821.167 1192.5,819.5 Z"/></g>
<g><path style="opacity:1" fill="#0a0803" d="M 712.5,820.5 C 714.833,820.5 717.167,820.5 719.5,820.5C 721.974,828.729 723.974,837.062 725.5,845.5C 721.518,846.422 719.184,844.922 718.5,841C 717.167,840.833 715.833,840.667 714.5,840.5C 711.49,841.242 708.823,842.575 706.5,844.5C 705.5,844.167 704.5,843.833 703.5,843.5C 706.79,835.924 709.79,828.257 712.5,820.5 Z"/></g>
<g><path style="opacity:1" fill="#0f0d04" d="M 1181.5,820.5 C 1184.17,820.5 1186.83,820.5 1189.5,820.5C 1189.5,822.167 1189.5,823.833 1189.5,825.5C 1185.82,825.335 1182.15,825.501 1178.5,826C 1177.67,831.026 1178,836.026 1179.5,841C 1183.11,840.762 1186.78,840.595 1190.5,840.5C 1190.5,841.833 1190.5,843.167 1190.5,844.5C 1186.51,845.164 1182.51,845.831 1178.5,846.5C 1176.63,846.61 1175.13,845.944 1174,844.5C 1172.49,837.567 1172.16,830.567 1173,823.5C 1175.71,822.004 1178.55,821.004 1181.5,820.5 Z"/></g>
<g><path style="opacity:1" fill="#120f06" d="M 730.5,821.5 C 734.835,821.917 739.168,822.417 743.5,823C 748.218,824.449 749.718,827.615 748,832.5C 747.5,833.667 746.667,834.5 745.5,835C 749.423,839.261 749.423,843.594 745.5,848C 739.801,848.08 734.134,847.58 728.5,846.5C 729.332,838.183 729.999,829.85 730.5,821.5 Z"/></g>
<g><path style="opacity:1" fill="#0c0a03" d="M 1164.5,822.5 C 1165.5,822.414 1166.33,822.748 1167,823.5C 1167.9,831.501 1168.73,839.501 1169.5,847.5C 1167.74,847.357 1166.07,847.691 1164.5,848.5C 1161.14,844.307 1157.97,839.974 1155,835.5C 1154.79,839.893 1155.29,844.227 1156.5,848.5C 1154.7,849.768 1152.7,850.435 1150.5,850.5C 1150.04,842.098 1149.04,833.764 1147.5,825.5C 1149.92,825.192 1152.26,825.526 1154.5,826.5C 1156.81,829.975 1159.31,833.308 1162,836.5C 1162.42,832.152 1162.25,827.819 1161.5,823.5C 1162.79,823.737 1163.79,823.404 1164.5,822.5 Z"/></g>
<g><path style="opacity:1" fill="#0f0c04" d="M 755.5,825.5 C 760.232,825.378 764.898,825.878 769.5,827C 773.292,829.053 774.458,832.219 773,836.5C 772.383,841.523 771.216,846.357 769.5,851C 764.428,851.751 759.428,851.418 754.5,850C 753.667,849.167 752.833,848.333 752,847.5C 751.536,841.471 751.869,835.471 753,829.5C 753.662,828.016 754.496,826.683 755.5,825.5 Z"/></g>
<g><path style="opacity:1" fill="#ebd045" d="M 735.5,827.5 C 737.833,827.5 740.167,827.5 742.5,827.5C 742.5,829.167 742.5,830.833 742.5,832.5C 740.167,832.5 737.833,832.5 735.5,832.5C 735.5,830.833 735.5,829.167 735.5,827.5 Z"/></g>
<g><path style="opacity:1" fill="#0f0c04" d="M 1138.5,827.5 C 1140.17,827.5 1141.83,827.5 1143.5,827.5C 1143.67,829.912 1143,832.079 1141.5,834C 1142.55,838.11 1143.21,842.277 1143.5,846.5C 1144.83,846.5 1146.17,846.5 1147.5,846.5C 1147.5,848.167 1147.5,849.833 1147.5,851.5C 1144.09,851.782 1140.76,852.449 1137.5,853.5C 1136.05,852.15 1135.38,850.484 1135.5,848.5C 1136.5,848.5 1137.5,848.5 1138.5,848.5C 1137.72,843.516 1137.06,838.516 1136.5,833.5C 1133.53,833.254 1132.2,831.588 1132.5,828.5C 1134.74,828.795 1136.74,828.461 1138.5,827.5 Z"/></g>
<g><path style="opacity:1" fill="#96842c" d="M 686.5,819.5 C 688.265,818.539 690.265,818.205 692.5,818.5C 692.817,822.702 692.483,826.702 691.5,830.5C 691.5,826.833 691.5,823.167 691.5,819.5C 689.833,819.5 688.167,819.5 686.5,819.5 Z"/></g>
<g><path style="opacity:1" fill="#0e0b04" d="M 778.5,829.5 C 783.19,830.138 787.856,830.971 792.5,832C 793.931,832.465 795.097,833.299 796,834.5C 797.35,840.616 795.85,845.783 791.5,850C 795.128,855.954 793.795,858.12 787.5,856.5C 787.322,853.784 786.822,851.117 786,848.5C 784.301,847.594 782.467,847.261 780.5,847.5C 780.5,849.833 780.5,852.167 780.5,854.5C 777.944,854.868 775.944,854.034 774.5,852C 775.996,844.521 777.33,837.021 778.5,829.5 Z"/></g>
<g><path style="opacity:1" fill="#d2ba3e" d="M 715.5,828.5 C 717.04,830.838 717.706,833.505 717.5,836.5C 715.712,836.785 714.045,836.452 712.5,835.5C 713.702,833.22 714.702,830.886 715.5,828.5 Z"/></g>
<g><path style="opacity:1" fill="#f0d447" d="M 758.5,830.5 C 761.545,830.508 764.545,830.841 767.5,831.5C 767.494,836.215 766.994,840.882 766,845.5C 763.333,846.833 760.667,846.833 758,845.5C 757.749,840.499 757.916,835.499 758.5,830.5 Z"/></g>
<g><path style="opacity:1" fill="#131006" d="M 1127.5,829.5 C 1128.5,829.5 1129.5,829.5 1130.5,829.5C 1129.5,838.18 1128.33,846.846 1127,855.5C 1125.22,856.24 1123.38,856.907 1121.5,857.5C 1116.66,850.496 1112.33,843.163 1108.5,835.5C 1110.42,834.359 1112.42,834.192 1114.5,835C 1116.87,839.581 1119.37,844.081 1122,848.5C 1123.07,842.524 1123.9,836.524 1124.5,830.5C 1125.79,830.737 1126.79,830.404 1127.5,829.5 Z"/></g>
<g><path style="opacity:1" fill="#efd346" d="M 782.5,835.5 C 785.206,835.575 787.873,835.908 790.5,836.5C 790.5,838.833 790.5,841.167 790.5,843.5C 787.794,843.425 785.127,843.092 782.5,842.5C 782.5,840.167 782.5,837.833 782.5,835.5 Z"/></g>
<g><path style="opacity:1" fill="#edd246" d="M 734.5,837.5 C 736.857,837.337 739.19,837.503 741.5,838C 742.38,839.356 742.714,840.856 742.5,842.5C 739.833,842.5 737.167,842.5 734.5,842.5C 734.5,840.833 734.5,839.167 734.5,837.5 Z"/></g>
<g><path style="opacity:1" fill="#0c0a03" d="M 811.5,836.5 C 814.679,837.793 818.012,838.46 821.5,838.5C 821.5,840.167 821.5,841.833 821.5,843.5C 820.178,843.33 819.011,843.663 818,844.5C 817.231,848.514 816.397,852.514 815.5,856.5C 816.894,858.646 817.56,860.979 817.5,863.5C 813.833,862.833 810.167,862.167 806.5,861.5C 806.5,859.833 806.5,858.167 806.5,856.5C 807.833,856.5 809.167,856.5 810.5,856.5C 811.035,852.489 811.702,848.489 812.5,844.5C 812.122,842.865 811.456,841.365 810.5,840C 810.989,838.862 811.322,837.695 811.5,836.5 Z"/></g>
<g><path style="opacity:1" fill="#0c0903" d="M 825.5,840.5 C 827.827,840.665 829.993,841.331 832,842.5C 833,847.167 834,851.833 835,856.5C 837.482,853.051 840.315,849.884 843.5,847C 846.304,846.029 848.304,846.862 849.5,849.5C 847.321,856.729 845.655,864.062 844.5,871.5C 841.756,871.8 840.089,870.633 839.5,868C 840.405,864.494 840.905,860.994 841,857.5C 839.38,859.241 837.88,861.075 836.5,863C 835.167,863.667 833.833,863.667 832.5,863C 831.259,859.876 830.092,856.709 829,853.5C 827.53,857.378 826.697,861.378 826.5,865.5C 824.25,865.819 822.25,865.319 820.5,864C 822.871,856.347 824.537,848.513 825.5,840.5 Z"/></g>
<g><path style="opacity:1" fill="#0d0a03" d="M 1087.5,840.5 C 1088.5,840.414 1089.33,840.748 1090,841.5C 1093.97,848.3 1098.14,854.966 1102.5,861.5C 1099.17,864.252 1096.17,863.919 1093.5,860.5C 1091.5,861 1089.5,861.5 1087.5,862C 1086.59,863.699 1086.26,865.533 1086.5,867.5C 1085.07,867.421 1083.74,867.754 1082.5,868.5C 1081.37,859.458 1081.7,850.458 1083.5,841.5C 1085.1,841.768 1086.43,841.434 1087.5,840.5 Z"/></g>
<g><path style="opacity:1" fill="#0e0c04" d="M 1070.5,845.5 C 1071.83,845.5 1073.17,845.5 1074.5,845.5C 1072.37,852.267 1073.04,858.934 1076.5,865.5C 1077.09,865.291 1077.59,864.957 1078,864.5C 1078.4,865.872 1078.9,867.205 1079.5,868.5C 1076.1,870.133 1072.6,871.466 1069,872.5C 1068.6,871.128 1068.1,869.795 1067.5,868.5C 1068.59,867.216 1069.25,865.716 1069.5,864C 1068.75,860.17 1068.08,856.337 1067.5,852.5C 1064.09,852.616 1062.76,850.95 1063.5,847.5C 1066.15,847.59 1068.49,846.924 1070.5,845.5 Z"/></g>
<g><path style="opacity:1" fill="#0f0d04" d="M 854.5,849.5 C 859.63,850.533 864.63,852.033 869.5,854C 872.376,859.663 871.709,864.996 867.5,870C 863.467,869.874 859.467,869.54 855.5,869C 854.594,870.699 854.261,872.533 854.5,874.5C 852.5,874.167 850.5,873.833 848.5,873.5C 849.884,865.349 851.884,857.349 854.5,849.5 Z"/></g>
<g><path style="opacity:1" fill="#0c0a03" d="M 1057.5,849.5 C 1058.5,849.5 1059.5,849.5 1060.5,849.5C 1061.46,857.506 1063.13,865.339 1065.5,873C 1063.3,874.373 1060.97,874.706 1058.5,874C 1056.04,870.535 1053.2,867.369 1050,864.5C 1049.87,868.65 1050.7,872.65 1052.5,876.5C 1050.7,877.768 1048.7,878.435 1046.5,878.5C 1045.22,870.754 1043.55,863.087 1041.5,855.5C 1043.19,853.744 1045.19,853.244 1047.5,854C 1050.78,857.405 1053.95,860.905 1057,864.5C 1056.76,859.775 1055.92,855.108 1054.5,850.5C 1055.79,850.737 1056.79,850.404 1057.5,849.5 Z"/></g>
<g><path style="opacity:1" fill="#dbc140" d="M 1087.5,849.5 C 1089.75,851.146 1091.42,853.313 1092.5,856C 1090.9,856.273 1089.4,856.773 1088,857.5C 1087.5,854.854 1087.34,852.187 1087.5,849.5 Z"/></g>
<g><path style="opacity:1" fill="#e7cc44" d="M 858.5,855.5 C 864.574,855.069 866.74,857.736 865,863.5C 862.226,864.523 859.393,864.523 856.5,863.5C 856.858,860.733 857.525,858.067 858.5,855.5 Z"/></g>
<g><path style="opacity:1" fill="#0d0b04" d="M 875.5,855.5 C 881.621,856.817 887.454,858.817 893,861.5C 893.524,867.74 892.024,873.407 888.5,878.5C 889.156,880.453 889.489,882.453 889.5,884.5C 887.418,884.528 885.584,883.861 884,882.5C 883.239,879.947 882.406,877.447 881.5,875C 877.075,874.044 875.408,875.877 876.5,880.5C 874.833,880.5 873.167,880.5 871.5,880.5C 872.078,872.034 873.411,863.701 875.5,855.5 Z"/></g>
<g><path style="opacity:1" fill="#0d0b03" d="M 1034.5,856.5 C 1035.83,856.5 1037.17,856.5 1038.5,856.5C 1039.45,864.565 1040.78,872.565 1042.5,880.5C 1040.5,880.833 1038.5,881.167 1036.5,881.5C 1036.49,877.593 1035.65,873.926 1034,870.5C 1030.94,880.759 1026.94,881.093 1022,871.5C 1022.48,876.121 1022.98,880.788 1023.5,885.5C 1021.23,885.859 1019.4,885.192 1018,883.5C 1017.09,876.955 1015.92,870.455 1014.5,864C 1015.49,860.753 1017.49,859.92 1020.5,861.5C 1022.81,864.975 1025.31,868.308 1028,871.5C 1029.48,866.899 1030.65,862.232 1031.5,857.5C 1032.79,857.737 1033.79,857.404 1034.5,856.5 Z"/></g>
<g><path style="opacity:1" fill="#e5ca43" d="M 879.5,861.5 C 882.167,862.167 884.833,862.833 887.5,863.5C 887.756,865.792 887.423,867.959 886.5,870C 883.808,870.43 881.141,870.263 878.5,869.5C 879.092,866.873 879.425,864.206 879.5,861.5 Z"/></g>
<g><path style="opacity:1" fill="#0e0c04" d="M 898.5,861.5 C 904.235,862.012 909.735,863.346 915,865.5C 915.506,873.291 914.34,880.791 911.5,888C 907.428,888.658 903.428,888.325 899.5,887C 897.069,886.705 895.236,885.538 894,883.5C 893.4,875.663 894.9,868.33 898.5,861.5 Z"/></g>
<g><path style="opacity:1" fill="#0c0a03" d="M 998.5,863.5 C 1002.77,863.203 1006.93,863.536 1011,864.5C 1013.47,871.904 1013.97,879.404 1012.5,887C 1006.97,889.226 1001.3,889.726 995.5,888.5C 993.11,881.712 992.277,874.712 993,867.5C 994.456,865.535 996.29,864.201 998.5,863.5 Z"/></g>
<g><path style="opacity:1" fill="#0a0802" d="M 918.5,865.5 C 923.481,866.089 928.481,866.589 933.5,867C 937.5,871 937.5,875 933.5,879C 937.152,882.582 937.485,886.582 934.5,891C 928.484,891.499 922.484,891.332 916.5,890.5C 917.407,882.189 918.074,873.856 918.5,865.5 Z"/></g>
<g><path style="opacity:1" fill="#f1d547" d="M 901.5,867.5 C 903.92,867.292 906.253,867.626 908.5,868.5C 909.341,873.15 909.175,877.816 908,882.5C 905.226,883.523 902.393,883.523 899.5,882.5C 899.294,877.343 899.961,872.343 901.5,867.5 Z"/></g>
<g><path style="opacity:1" fill="#070601" d="M 977.5,892.5 C 972.833,892.5 968.167,892.5 963.5,892.5C 963.5,891.167 963.5,889.833 963.5,888.5C 967.702,888.817 971.702,888.483 975.5,887.5C 976.451,886.081 976.784,884.415 976.5,882.5C 972.833,882.5 969.167,882.5 965.5,882.5C 964.25,882.423 963.417,881.756 963,880.5C 961.04,868.313 966.207,863.98 978.5,867.5C 978.5,869.167 978.5,870.833 978.5,872.5C 975.15,872.335 971.817,872.502 968.5,873C 967.62,874.356 967.286,875.856 967.5,877.5C 978.311,874.82 982.811,878.82 981,889.5C 980.28,891.056 979.113,892.056 977.5,892.5 Z"/></g>
<g><path style="opacity:1" fill="#141106" d="M 939.5,867.5 C 941.5,867.5 943.5,867.5 945.5,867.5C 945.5,874.5 945.5,881.5 945.5,888.5C 948.167,888.5 950.833,888.5 953.5,888.5C 953.5,881.833 953.5,875.167 953.5,868.5C 955.5,868.5 957.5,868.5 959.5,868.5C 959.896,876.253 959.396,883.92 958,891.5C 957.5,892 957,892.5 956.5,893C 952.167,893.667 947.833,893.667 943.5,893C 941.667,892.5 940.5,891.333 940,889.5C 939.5,882.174 939.334,874.841 939.5,867.5 Z"/></g>
<g><path style="opacity:1" fill="#e9ce44" d="M 999.5,868.5 C 1002.12,868.232 1004.62,868.565 1007,869.5C 1008.17,874.184 1008.34,878.85 1007.5,883.5C 1004.92,884.393 1002.25,884.726 999.5,884.5C 999.156,880.456 998.49,876.456 997.5,872.5C 997.803,870.886 998.47,869.552 999.5,868.5 Z"/></g>
<g><path style="opacity:1" fill="#d7be3f" d="M 923.5,870.5 C 925.854,870.838 928.187,871.338 930.5,872C 931.833,873.333 931.833,874.667 930.5,876C 928.19,876.497 925.857,876.663 923.5,876.5C 923.5,874.5 923.5,872.5 923.5,870.5 Z"/></g>
<g><path style="opacity:1" fill="#ecd145" d="M 927.5,881.5 C 931.161,881.35 932.161,882.85 930.5,886C 929.207,886.49 927.873,886.657 926.5,886.5C 925.791,885.596 924.791,885.263 923.5,885.5C 923.5,884.167 923.5,882.833 923.5,881.5C 924.833,881.5 926.167,881.5 927.5,881.5 Z"/></g>
<g><path style="opacity:1" fill="#726522" d="M 965.5,882.5 C 969.167,882.5 972.833,882.5 976.5,882.5C 976.784,884.415 976.451,886.081 975.5,887.5C 975.5,886.167 975.5,884.833 975.5,883.5C 971.958,883.813 968.625,883.479 965.5,882.5 Z"/></g>
<g><path style="opacity:1" fill="#796b23" d="M 927.5,881.5 C 926.167,881.5 924.833,881.5 923.5,881.5C 923.5,882.833 923.5,884.167 923.5,885.5C 924.791,885.263 925.791,885.596 926.5,886.5C 925.167,886.5 923.833,886.5 922.5,886.5C 922.5,884.5 922.5,882.5 922.5,880.5C 924.415,880.216 926.081,880.549 927.5,881.5 Z"/></g>
<g><path style="opacity:1" fill="#7b6c24" d="M 975.5,887.5 C 971.702,888.483 967.702,888.817 963.5,888.5C 963.5,889.833 963.5,891.167 963.5,892.5C 968.167,892.5 972.833,892.5 977.5,892.5C 972.695,893.487 967.695,893.821 962.5,893.5C 962.5,891.5 962.5,889.5 962.5,887.5C 966.833,887.5 971.167,887.5 975.5,887.5 Z"/></g>
<g><path style="opacity:1" fill="#000000" d="M 446.5,986.5 C 465.38,984.639 482.713,988.806 498.5,999C 508.366,1007.23 514.199,1017.73 516,1030.5C 517.568,1066.82 517.902,1103.15 517,1139.5C 516.863,1173.3 500.03,1192.47 466.5,1197C 447.615,1199.36 430.282,1195.36 414.5,1185C 404.634,1176.77 398.801,1166.27 397,1153.5C 395.432,1117.18 395.098,1080.85 396,1044.5C 396.324,1010.68 413.157,991.349 446.5,986.5 Z"/></g>
<g><path style="opacity:1" fill="#000000" d="M 1238.5,986.5 C 1257.38,984.639 1274.71,988.806 1290.5,999C 1300.37,1007.23 1306.2,1017.73 1308,1030.5C 1309.57,1066.82 1309.9,1103.15 1309,1139.5C 1308.86,1173.3 1292.03,1192.47 1258.5,1197C 1239.62,1199.36 1222.28,1195.36 1206.5,1185C 1196.63,1176.77 1190.8,1166.27 1189,1153.5C 1187.43,1117.18 1187.1,1080.85 1188,1044.5C 1188.32,1010.68 1205.16,991.349 1238.5,986.5 Z"/></g>
<g><path style="opacity:1" fill="#000000" d="M 268.5,991.5 C 294.195,991.089 319.862,991.589 345.5,993C 355.57,994.129 364.404,997.963 372,1004.5C 377.784,1012.52 380.784,1021.52 381,1031.5C 381.667,1046.83 381.667,1062.17 381,1077.5C 381.246,1092.53 374.413,1102.69 360.5,1108C 347.691,1111.08 334.691,1112.24 321.5,1111.5C 321.5,1138.83 321.5,1166.17 321.5,1193.5C 303.833,1193.5 286.167,1193.5 268.5,1193.5C 268.5,1126.17 268.5,1058.83 268.5,991.5 Z"/></g>
<g><path style="opacity:1" fill="#000000" d="M 537.5,991.5 C 555.167,991.5 572.833,991.5 590.5,991.5C 590.5,1058.83 590.5,1126.17 590.5,1193.5C 572.833,1193.5 555.167,1193.5 537.5,1193.5C 537.5,1126.17 537.5,1058.83 537.5,991.5 Z"/></g>
<g><path style="opacity:1" fill="#000000" d="M 612.5,991.5 C 626.849,991.167 641.182,991.501 655.5,992.5C 665.432,1021.8 675.265,1051.13 685,1080.5C 685.5,1050.84 685.667,1021.17 685.5,991.5C 700.167,991.5 714.833,991.5 729.5,991.5C 729.5,1058.83 729.5,1126.17 729.5,1193.5C 714.152,1193.83 698.819,1193.5 683.5,1192.5C 674.567,1162.87 665.734,1133.2 657,1103.5C 656.5,1133.5 656.333,1163.5 656.5,1193.5C 641.833,1193.5 627.167,1193.5 612.5,1193.5C 612.5,1126.17 612.5,1058.83 612.5,991.5 Z"/></g>
<g><path style="opacity:1" fill="#000000" d="M 742.5,991.5 C 780.5,991.5 818.5,991.5 856.5,991.5C 856.5,1005.17 856.5,1018.83 856.5,1032.5C 846.5,1032.5 836.5,1032.5 826.5,1032.5C 826.5,1086.17 826.5,1139.83 826.5,1193.5C 808.833,1193.5 791.167,1193.5 773.5,1193.5C 773.5,1139.83 773.5,1086.17 773.5,1032.5C 763.167,1032.5 752.833,1032.5 742.5,1032.5C 742.5,1018.83 742.5,1005.17 742.5,991.5 Z"/></g>
<g><path style="opacity:1" fill="#000000" d="M 869.5,991.5 C 898.167,991.5 926.833,991.5 955.5,991.5C 955.5,1005.17 955.5,1018.83 955.5,1032.5C 944.5,1032.5 933.5,1032.5 922.5,1032.5C 922.5,1044.83 922.5,1057.17 922.5,1069.5C 932.833,1069.5 943.167,1069.5 953.5,1069.5C 953.5,1082.5 953.5,1095.5 953.5,1108.5C 943.167,1108.5 932.833,1108.5 922.5,1108.5C 922.5,1123.17 922.5,1137.83 922.5,1152.5C 934.833,1152.5 947.167,1152.5 959.5,1152.5C 959.5,1166.17 959.5,1179.83 959.5,1193.5C 929.5,1193.5 899.5,1193.5 869.5,1193.5C 869.5,1126.17 869.5,1058.83 869.5,991.5 Z"/></g>
<g><path style="opacity:1" fill="#000000" d="M 1050.5,991.5 C 1064.85,991.167 1079.18,991.501 1093.5,992.5C 1103.43,1021.8 1113.27,1051.13 1123,1080.5C 1123.5,1050.84 1123.67,1021.17 1123.5,991.5C 1138.17,991.5 1152.83,991.5 1167.5,991.5C 1167.5,1058.83 1167.5,1126.17 1167.5,1193.5C 1152.15,1193.83 1136.82,1193.5 1121.5,1192.5C 1112.57,1162.87 1103.73,1133.2 1095,1103.5C 1094.5,1133.5 1094.33,1163.5 1094.5,1193.5C 1079.83,1193.5 1065.17,1193.5 1050.5,1193.5C 1050.5,1126.17 1050.5,1058.83 1050.5,991.5 Z"/></g>
<g><path style="opacity:1" fill="#000000" d="M 1329.5,991.5 C 1347.17,991.5 1364.83,991.5 1382.5,991.5C 1382.5,1058.83 1382.5,1126.17 1382.5,1193.5C 1364.83,1193.5 1347.17,1193.5 1329.5,1193.5C 1329.5,1126.17 1329.5,1058.83 1329.5,991.5 Z"/></g>
<g><path style="opacity:1" fill="#000000" d="M 1404.5,991.5 C 1425.84,991.333 1447.17,991.5 1468.5,992C 1475.86,992.383 1483.19,993.05 1490.5,994C 1504.38,996.885 1513.55,1005.05 1518,1018.5C 1522.22,1035.76 1522.55,1053.09 1519,1070.5C 1517.73,1075.76 1514.89,1079.93 1510.5,1083C 1504.76,1085.6 1498.76,1087.27 1492.5,1088C 1505.86,1090.04 1515.02,1097.21 1520,1109.5C 1521.43,1137.47 1521.93,1165.47 1521.5,1193.5C 1505.17,1193.5 1488.83,1193.5 1472.5,1193.5C 1472.67,1167.16 1472.5,1140.83 1472,1114.5C 1471.59,1105.27 1466.76,1101.27 1457.5,1102.5C 1457.5,1132.83 1457.5,1163.17 1457.5,1193.5C 1439.83,1193.5 1422.17,1193.5 1404.5,1193.5C 1404.5,1126.17 1404.5,1058.83 1404.5,991.5 Z"/></g>
<g><path style="opacity:1" fill="#000000" d="M 1542.5,991.5 C 1571.17,991.5 1599.83,991.5 1628.5,991.5C 1628.5,1005.17 1628.5,1018.83 1628.5,1032.5C 1617.5,1032.5 1606.5,1032.5 1595.5,1032.5C 1595.5,1044.83 1595.5,1057.17 1595.5,1069.5C 1605.83,1069.5 1616.17,1069.5 1626.5,1069.5C 1626.5,1082.5 1626.5,1095.5 1626.5,1108.5C 1616.17,1108.5 1605.83,1108.5 1595.5,1108.5C 1595.5,1123.17 1595.5,1137.83 1595.5,1152.5C 1607.83,1152.5 1620.17,1152.5 1632.5,1152.5C 1632.5,1166.17 1632.5,1179.83 1632.5,1193.5C 1602.5,1193.5 1572.5,1193.5 1542.5,1193.5C 1542.5,1126.17 1542.5,1058.83 1542.5,991.5 Z"/></g>
<g><path style="opacity:1" fill="#fcdf00" d="M 453.5,1020.5 C 460.518,1019.42 464.018,1022.42 464,1029.5C 464.667,1070.5 464.667,1111.5 464,1152.5C 464.108,1162.43 459.775,1165.43 451,1161.5C 449.908,1158.96 449.241,1156.29 449,1153.5C 448.333,1112.5 448.333,1071.5 449,1030.5C 449.164,1026.51 450.664,1023.18 453.5,1020.5 Z"/></g>
<g><path style="opacity:1" fill="#fcdf00" d="M 1245.5,1020.5 C 1252.52,1019.42 1256.02,1022.42 1256,1029.5C 1256.67,1070.5 1256.67,1111.5 1256,1152.5C 1256.11,1162.43 1251.78,1165.43 1243,1161.5C 1241.91,1158.96 1241.24,1156.29 1241,1153.5C 1240.33,1112.5 1240.33,1071.5 1241,1030.5C 1241.16,1026.51 1242.66,1023.18 1245.5,1020.5 Z"/></g>
<g><path style="opacity:1" fill="#fcdf00" d="M 321.5,1025.5 C 326.606,1024.93 331.106,1026.26 335,1029.5C 335.973,1031.39 336.64,1033.39 337,1035.5C 337.667,1046.17 337.667,1056.83 337,1067.5C 335.253,1075.83 330.087,1079.17 321.5,1077.5C 321.5,1060.17 321.5,1042.83 321.5,1025.5 Z"/></g>
<g><path style="opacity:1" fill="#fcdf00" d="M 1457.5,1025.5 C 1464.91,1024.61 1469.74,1027.61 1472,1034.5C 1472.67,1043.17 1472.67,1051.83 1472,1060.5C 1472.23,1065.9 1469.73,1069.07 1464.5,1070C 1462.19,1070.5 1459.86,1070.66 1457.5,1070.5C 1457.5,1055.5 1457.5,1040.5 1457.5,1025.5 Z"/></g>
<g><path style="opacity:1" fill="#000000" d="M 969.5,1092.5 C 991.167,1092.5 1012.83,1092.5 1034.5,1092.5C 1034.5,1104.17 1034.5,1115.83 1034.5,1127.5C 1012.83,1127.5 991.167,1127.5 969.5,1127.5C 969.5,1115.83 969.5,1104.17 969.5,1092.5 Z"/></g>
</svg>
