<?xml version="1.0" encoding="UTF-8" standalone="no"?>
<!-- Created with Inkscape (http://www.inkscape.org/) -->

<svg
   version="1.1"
   id="svg1"
   width="1240.0769"
   height="810.1438"
   viewBox="0 0 1240.0769 810.14379"
   xml:space="preserve"
   xmlns="http://www.w3.org/2000/svg"
   xmlns:svg="http://www.w3.org/2000/svg"><defs
     id="defs1" /><g
     id="g1"><rect
       style="fill:#ffffff;fill-opacity:1;stroke-width:0.999999"
       id="rect1"
       width="1240.0769"
       height="810.14368"
       x="0"
       y="0.00012207031" /><g
       id="g2"
       transform="translate(205.93354,-7.1629534)"><path
         style="fill:#eb4323"
         d="m 121.96415,745.85443 c -10.26356,-4.64054 -21.26152,-14.35957 -25.582626,-22.60769 -3.250752,-6.20503 -3.90617,-21.95285 -0.913668,-21.95285 1.079102,0 5.095954,2.75164 8.926334,6.11475 20.3919,17.90433 43.52246,20.11976 98.9074,9.47328 54.31923,-10.44161 69.19783,-12.21953 91.8254,-10.97268 18.53642,1.02141 27.42347,3.70659 25.03865,7.56531 -0.52903,0.85598 -5.03958,1.09672 -10.02345,0.53496 -10.42592,-1.17515 -37.68977,2.36108 -54.01747,7.00627 -6.14902,1.74939 -23.36526,7.6274 -38.25831,13.06225 -34.60888,12.62965 -49.4712,16.01224 -70.11101,15.95687 -12.3127,-0.033 -19.02433,-1.1209 -25.79125,-4.18047 z M 668.84252,729.244 c 0.0398,-2.51551 1.39763,-10.06204 3.01735,-16.77007 2.68481,-11.11909 4.08779,-40.06956 1.64795,-34.00555 -1.66177,4.13019 -12.03945,8.59635 -19.97468,8.59635 -9.366,0 -17.2868,-7.40885 -17.2868,-16.16949 0,-3.40483 -0.32087,-6.1906 -0.71304,-6.1906 -0.39217,0 -3.59373,1.00421 -7.11458,2.23159 -4.84813,1.69007 -6.40153,3.44893 -6.40153,7.24821 0,12.08771 -10.73648,17.53766 -16.98236,8.62042 l -2.98373,-4.25988 -6.06727,4.48573 c -9.20235,6.80359 -22.79218,7.62999 -31.99015,1.94534 -6.97192,-4.30889 -7.83587,-4.40733 -12.83949,-1.46294 -5.12271,3.01447 -12.2735,4.23534 -22.06394,3.76702 -2.47661,-0.11847 -7.62839,-2.95959 -11.4484,-6.3136 -3.82001,-3.35402 -7.39642,-6.09821 -7.94758,-6.09821 -0.55116,0 -1.55095,2.74419 -2.22175,6.09821 -1.0744,5.372 -2.0609,6.0982 -8.28403,6.0982 -4.44533,0 -7.75881,-1.24085 -8.93744,-3.34696 -1.73902,-3.10746 -2.215,-3.10746 -6.65151,0 -2.79276,1.95612 -8.75275,3.34696 -14.34231,3.34696 -7.73933,0 -10.31437,-0.95414 -13.49801,-5.00148 l -3.93417,-5.00148 -4.69864,5.00148 c -9.59058,10.2087 -23.09003,4.24528 -25.57551,-11.29806 -1.16206,-7.26714 -1.60729,-7.8035 -3.82026,-4.60225 -1.37769,1.99295 -3.19367,5.91037 -4.03551,8.70538 -3.28279,10.89932 -15.27889,17.28327 -15.27889,8.13094 0,-2.23601 -0.91473,-4.06547 -2.03274,-4.06547 -1.118,0 -2.03274,0.96141 -2.03274,2.13646 0,3.3013 -13.00348,7.95717 -18.48251,6.61763 -6.6029,-1.61431 -12.00852,-6.5578 -12.00852,-10.98191 0,-7.23462 -4.66094,-6.46031 -11.63244,1.93246 -6.45747,7.77394 -7.76784,8.4263 -16.92549,8.4263 -5.45937,0 -13.04193,-1.48582 -16.85014,-3.30183 -6.58959,-3.14235 -7.20655,-3.09679 -12.77357,0.94337 -7.79059,5.65388 -22.94256,9.45408 -30.31608,7.60344 -3.26251,-0.81883 -9.19881,-4.92309 -13.19178,-9.12057 l -7.25993,-7.63178 -7.01555,4.65614 c -3.85855,2.56088 -12.91963,6.55014 -20.13574,8.86503 -16.75653,5.37539 -28.23012,3.99388 -37.98851,-4.57411 -6.34034,-5.56689 -7.24444,-5.82185 -10.44015,-2.94417 -11.89428,10.71054 -45.21663,16.03434 -56.0276,8.95133 -18.58068,-12.17349 -19.73725,-36.61109 -4.2999,-90.85449 11.49122,-40.37755 11.26596,-55.6016 -0.91589,-61.90108 -14.76004,-7.63272 -34.412171,0.85305 -41.87351,18.08092 -3.472719,8.01834 -0.507181,14.18712 8.934925,18.58603 9.484413,4.41863 9.374106,4.28161 6.365509,7.90675 -5.270938,6.35109 -28.83286,2.25061 -36.995733,-6.43837 -3.697938,-3.93628 -4.488378,-6.88702 -4.118999,-15.37641 0.38073,-8.75029 1.551619,-11.63464 7.008562,-17.26477 10.898558,-11.24446 26.333787,-17.36301 46.368036,-18.38035 14.78286,-0.75069 18.97786,-0.19734 28.0317,3.69751 22.85143,9.83042 26.35102,31.66683 13.53317,84.44313 -7.78526,32.05506 -9.27733,53.30652 -4.10576,58.47809 5.90366,5.90366 18.0103,6.16053 28.95515,0.61435 l 10.03138,-5.08328 -0.90504,-27.07487 c -1.98905,-59.50428 12.00531,-102.1461 34.93441,-106.44762 17.62552,-3.30657 25.56614,9.88301 21.47403,35.66893 -3.4118,21.49907 -13.08532,52.94231 -22.44359,72.95169 -8.75483,18.7191 -9.03363,20.07189 -5.66195,27.47191 4.71833,10.35562 21.28491,9.84699 37.43352,-1.14929 l 6.9787,-4.75209 0.0139,-29.78633 c 0.029,-62.25009 15.33074,-101.32513 39.67872,-101.32513 8.1328,0 16.54469,6.38231 18.17099,13.78679 3.20824,14.60705 -9.47775,62.491 -24.41317,92.14879 -5.76914,11.45598 -7.16121,16.26238 -6.281,21.68646 2.73092,16.82869 13.11902,22.61891 24.71373,13.77519 6.11296,-4.66258 7.09553,-6.5912 7.1053,-13.9465 0.0144,-10.84709 3.25756,-22.62231 7.11164,-25.82091 3.45219,-2.86507 12.29954,-1.2339 13.7244,2.53034 0.53265,1.40716 0.0759,8.72854 -1.01495,16.26975 -2.37577,16.42377 -0.97536,23.89433 4.47917,23.89433 6.00703,0 6.98106,-3.78106 2.01081,-7.80572 -5.77789,-4.67865 -3.94434,-11.19387 4.08638,-14.5203 7.16309,-2.96705 13.6658,-1.20499 15.37014,4.1649 1.9616,6.18047 4.66321,2.77911 6.19821,-7.80364 2.53391,-17.46942 7.09642,-20.84874 16.05424,-11.89092 4.14627,4.14627 4.59429,5.88477 3.15784,12.25381 -1.88634,8.36374 -0.4705,23.06528 2.39166,24.83419 2.36645,1.46255 9.76129,-5.0518 9.76129,-8.59903 0,-1.45112 1.08704,-5.02419 2.41564,-7.94016 1.84728,-4.05434 3.46524,-5.03831 6.87666,-4.1821 3.50949,0.88082 4.97685,-0.12569 6.87937,-4.71877 1.33009,-3.21113 5.10024,-8.40783 8.3781,-11.54822 5.10774,-4.89353 6.75757,-5.43028 11.54053,-3.75456 5.22617,1.831 5.65379,2.89102 6.72967,16.68191 2.00246,25.66822 10.27127,24.70476 14.64123,-1.70596 2.29562,-13.87401 2.92838,-15.18043 7.58635,-15.66309 9.35472,-0.96934 10.91994,1.86049 10.47886,18.94519 -0.22294,8.63535 0.13395,17.3998 0.79309,19.47655 1.79769,5.66403 8.03762,4.55601 13.95656,-2.47824 4.08117,-4.8502 5.26253,-8.47106 5.26253,-16.12956 0,-12.05638 2.54388,-19.28488 7.44925,-21.16724 4.8043,-1.84359 10.84538,5.40748 10.84538,13.01766 v 5.60554 l 9.01069,-9.01069 c 7.95743,-7.95743 9.91771,-8.936 16.77007,-8.37167 l 7.75938,0.63904 0.61085,10.56919 c 0.49472,8.55978 -0.20575,11.3858 -3.68433,14.86438 -5.39276,5.39276 -8.93075,4.34422 -9.78326,-2.89942 -0.62008,-5.26881 -0.88359,-5.40857 -4.32506,-2.29408 -3.49499,3.16292 -3.29714,3.68785 4.27111,11.33211 8.67508,8.76223 16.48557,11.84736 20.84141,8.23234 1.53785,-1.2763 3.4497,-7.55193 4.24857,-13.94584 1.98665,-15.90059 5.82462,-22.41321 15.90563,-26.99014 10.69074,-4.85376 14.13172,-4.89745 18.35295,-0.23303 7.50117,8.28869 1.4016,24.37633 -11.26083,29.70048 l -5.82247,2.44817 5.04483,5.44346 c 6.27495,6.77079 11.3494,6.88113 19.03526,0.4139 5.31093,-4.46885 6.09098,-6.6184 6.99701,-19.2813 1.14034,-15.93787 3.9877,-21.15711 10.49289,-19.2336 6.87904,2.03406 9.08772,6.30187 7.31926,14.14298 -1.43046,6.34248 -1.15537,7.03864 2.7715,7.01363 10.14271,-0.0646 13.08138,-2.23182 15.37448,-11.33853 2.0239,-8.03763 2.86947,-8.96107 8.2054,-8.96107 3.27193,0 6.68901,1.14342 7.59349,2.54092 0.90448,1.39751 2.10188,10.70113 2.66089,20.67472 1.16145,20.72234 3.04432,22.83843 12.18664,13.69611 l 6.10798,-6.10798 v -40.52794 -40.52794 l -10.67186,-1.28184 c -5.86953,-0.70502 -23.56141,-1.2898 -39.31529,-1.29951 -32.6973,-0.0202 -43.90897,2.43251 -54.78965,11.98587 -8.72027,7.65651 -12.59893,7.93122 -15.20493,1.07691 -3.56446,-9.37523 -2.38027,-18.96561 3.00702,-24.3529 4.73574,-4.73574 6.20862,-4.98858 28.96648,-4.97255 21.14965,0.0149 32.37182,1.05564 77.03904,7.14467 l 10.37454,1.41426 2.32023,-9.21448 c 4.47383,-17.7672 16.0798,-21.25397 45.60792,-13.70195 31.71125,8.11037 58.75357,25.88141 55.4108,36.41356 -3.05404,9.62243 -25.15175,10.86111 -62.86904,3.5241 l -24.15592,-4.69896 1.2622,23.59928 c 2.82632,52.84367 3.83742,93.51999 2.50163,100.64033 -2.69034,14.34075 -25.70661,31.48926 -25.50897,19.00572 z m -93.64978,-76.60214 c 2.95431,-5.52019 2.61687,-10.29732 -0.72737,-10.29732 -3.10808,0 -5.29932,4.27137 -5.29932,10.32994 0,5.03053 3.32661,5.01253 6.02669,-0.0326 z M 218.47079,596.64991 c 5.72238,-22.8919 7.72848,-46.1288 4.11379,-47.65069 -3.15551,-1.32856 -10.90449,15.8197 -14.2133,31.45359 -1.6439,7.76734 -3.47049,24.18448 -4.05909,36.48254 l -1.07018,22.36009 4.82491,-10.16368 c 2.6537,-5.59002 7.33544,-20.20686 10.40387,-32.48185 z m 67.25956,14.81857 c 10.47411,-30.79516 15.22213,-60.3415 10.03272,-62.43247 -6.64022,-2.67555 -15.63057,30.38938 -18.18545,66.88297 -1.38477,19.77986 0.207,18.91093 8.15273,-4.4505 z m 466.81831,-35.87015 c 2.13378,-2.16861 1.75903,-3.35313 -2.04426,-6.4617 -8.20164,-6.70346 -27.11952,-12.81537 -40.25296,-13.00475 -15.15161,-0.21849 -19.12123,2.51364 -19.12123,13.16036 0,7.45101 0.3029,7.79515 7.62276,8.66037 16.00663,1.89202 51.13002,0.3549 53.79569,-2.35428 z M 321.11508,467.38097 c -22.44911,-10.85614 -38.38342,-22.46855 -55.97498,-40.79276 -17.81203,-18.55385 -25.2647,-29.40818 -36.55153,-53.23491 -11.26546,-23.78163 -19.03763,-54.53486 -21.3607,-84.5209 -1.0039,-12.9582 -1.84693,-66.44203 -1.8734,-118.85296 l -0.0481,-95.292594 18.8028,1.469704 c 33.06905,2.58481 72.63752,15.160889 100.4401,31.92296 24.01041,14.47578 49.30438,39.62308 63.43567,63.06782 l 4.52791,7.51208 -4.67105,2.88024 c -25.11999,15.48935 -41.28823,26.96661 -52.10487,36.98739 -39.1285,36.24952 -61.31754,85.34843 -61.31754,135.68068 0,27.03374 4.36908,45.60249 15.88736,67.52181 7.26006,13.81592 26.80479,35.70708 43.06198,48.23175 3.91301,3.01462 6.60882,5.53013 5.99068,5.59002 -0.61814,0.0599 -8.82807,-3.61675 -18.24429,-8.17033 z m 76.28479,-3.50708 c -33.47693,-7.48316 -57.64537,-26.10238 -71.68158,-55.22305 -6.31875,-13.10938 -7.50557,-17.85103 -8.23624,-32.90584 -0.75058,-15.46486 -0.24754,-18.91341 4.16472,-28.55106 10.61759,-23.19186 26.02304,-34.15261 48.00187,-34.15261 15.31124,0 25.25141,3.86079 35.39913,13.74912 8.27753,8.06595 11.63397,16.86451 11.65175,30.54386 0.0224,17.2438 -14.17467,34.43 -35.87,43.42222 -6.02259,2.49622 -10.63591,5.50635 -10.25184,6.68917 1.27697,3.93269 24.60952,11.99738 37.30851,12.89536 29.59687,2.09287 60.81776,-18.33865 76.80529,-50.2628 15.15381,-30.25933 10.68032,-61.77226 -11.78036,-82.98531 -13.35448,-12.61266 -28.53115,-19.73306 -51.30965,-24.0728 -9.95686,-1.89697 -18.79962,-4.0517 -19.65055,-4.78829 -1.91253,-1.65553 4.19769,-19.77672 11.69247,-34.6766 13.13857,-26.11993 28.10402,-45.90823 54.60638,-72.20412 37.47101,-37.1791 68.66636,-57.104549 108.03086,-69.002683 16.30676,-4.928807 42.8374,-9.358801 44.72773,-7.468478 0.55485,0.554855 0.99969,44.534781 0.98852,97.733181 -0.0272,129.70317 -2.28782,150.63768 -20.32229,188.19746 -18.22201,37.95038 -50.51606,69.15477 -90.86119,87.79537 -35.12736,16.22984 -81.30178,22.44591 -113.41353,15.2679 z"
         id="path3" /><path
         style="fill:#363636"
         d="m 121.96415,745.85443 c -10.26356,-4.64054 -21.26152,-14.35957 -25.582626,-22.60769 -3.250752,-6.20503 -3.90617,-21.95285 -0.913668,-21.95285 1.079102,0 5.095954,2.75164 8.926334,6.11475 20.45828,17.96261 44.94507,20.28137 99.89577,9.45956 45.45682,-8.95212 64.31901,-11.54154 82.98107,-11.3917 19.90678,0.15984 30.6707,2.27892 31.42318,6.18626 0.51469,2.67258 -1.18562,3.04314 -10.44143,2.27557 -17.74653,-1.47168 -47.76294,4.81399 -82.24956,17.22369 -42.86984,15.42634 -56.9745,18.84976 -77.6135,18.83805 -13.00805,-0.007 -19.53895,-1.03195 -26.42557,-4.14564 z M 668.79424,729.244 c 0.0133,-2.51551 1.37451,-9.60467 3.02498,-15.7537 2.70086,-10.06241 4.20597,-41.27864 1.6886,-35.02192 -1.66177,4.13019 -12.03945,8.59635 -19.97468,8.59635 -9.366,0 -17.2868,-7.40885 -17.2868,-16.16949 0,-3.40483 -0.32087,-6.1906 -0.71304,-6.1906 -0.39217,0 -3.59373,1.00421 -7.11458,2.23159 -4.84813,1.69007 -6.40153,3.44893 -6.40153,7.24821 0,12.12171 -10.74034,17.53215 -17.01631,8.57195 l -3.01768,-4.30834 -6.43056,4.57897 c -9.45616,6.73338 -23.1083,7.75587 -30.50813,2.28494 -6.98843,-5.16677 -7.91732,-5.24538 -15.46528,-1.30885 -3.20231,1.67012 -10.13552,3.04221 -15.40714,3.0491 -7.76139,0.0101 -10.90605,-1.14758 -16.53024,-6.08568 -3.82001,-3.35402 -7.39642,-6.09821 -7.94758,-6.09821 -0.55116,0 -1.55095,2.74419 -2.22175,6.09821 -1.08552,5.4276 -2.02853,6.0982 -8.57534,6.0982 -5.62652,0 -7.60364,-0.94811 -8.4104,-4.03316 -1.05188,-4.0224 -1.06838,-4.0224 -6.18203,0 -7.78895,6.12679 -23.38055,5.59789 -28.54553,-0.96832 l -3.93417,-5.00148 -4.69864,5.00148 c -5.18865,5.52306 -13.33577,6.51774 -19.06591,2.32775 -2.01111,-1.47055 -4.75603,-7.00394 -6.09985,-12.29641 l -2.44329,-9.62269 -5.97691,11.78824 c -4.2477,8.37774 -7.30012,11.97615 -10.55056,12.43779 -3.47898,0.49409 -4.57365,-0.35732 -4.57365,-3.55729 0,-2.31377 -0.91473,-4.20685 -2.03274,-4.20685 -1.118,0 -2.03274,0.88255 -2.03274,1.96122 0,3.17412 -8.07832,6.57627 -15.61521,6.57627 -7.74015,0 -14.87582,-5.16393 -14.87582,-10.76531 0,-6.97675 -4.38195,-6.23677 -12.01247,2.02856 -6.9135,7.48867 -8.65952,8.3302 -17.28359,8.3302 -9.07301,0 -17.11627,-2.613 -19.58483,-6.36248 -0.61138,-0.92862 -4.46139,0.58785 -8.55558,3.36992 -4.0942,2.78208 -12.07265,6.12675 -17.72989,7.43259 -12.27385,2.83315 -21.35065,-0.42919 -28.64511,-10.29547 l -4.47051,-6.04668 -7.69746,4.85919 c -21.98865,13.88083 -45.15925,15.85335 -57.62774,4.90587 l -6.4594,-5.67143 -14.5191,7.20696 c -11.9442,5.92884 -16.84721,7.22886 -27.64665,7.33046 -20.70317,0.19477 -30.29146,-8.85297 -32.86311,-31.01044 -1.63654,-14.1005 0.97038,-29.82046 10.4685,-63.12613 9.02152,-31.63445 10.23449,-52.31039 3.46724,-59.10155 -11.26072,-11.3005 -35.893456,-4.65209 -44.739017,12.07512 -5.660848,10.70482 -3.672764,16.73276 7.187362,21.7923 9.484413,4.41863 9.374106,4.28161 6.365509,7.90675 -5.084385,6.12631 -26.863199,2.70854 -36.121831,-5.66863 -3.686508,-3.33554 -4.573655,-6.30567 -4.573655,-15.31238 0,-10.55087 0.498506,-11.65181 8.936995,-19.73731 12.625556,-12.09741 30.842022,-17.98401 51.781217,-16.73296 40.9348,2.44574 49.55974,24.89014 33.79287,87.93809 -4.88539,19.5355 -7.10344,33.05574 -7.10344,43.29937 v 14.8944 l 7.04929,2.94538 c 9.73196,4.06628 13.90856,3.72445 25.35328,-2.07504 l 9.90733,-5.02042 -1.12406,-24.39726 c -1.78727,-38.79184 5.0383,-77.96032 16.70254,-95.84749 6.0876,-9.33537 17.34384,-14.86851 26.68317,-13.11644 12.08777,2.26768 16.70296,15.04969 12.99687,35.99549 -3.86522,21.84518 -13.95028,54.21947 -22.41487,71.95452 -8.77846,18.39268 -9.21969,20.54818 -5.76034,28.14062 3.71721,8.1584 12.24872,9.93975 24.72766,5.16304 19.55924,-7.48691 19.08971,-6.40402 20.27903,-46.7698 1.15361,-39.1532 4.3728,-57.53113 13.15129,-75.07872 9.56317,-19.11612 26.40014,-25.85299 38.51162,-15.40941 5.36605,4.62707 5.67491,5.77587 5.22214,19.42332 -0.61231,18.4562 -10.15927,51.83367 -22.04133,77.0595 -10.02472,21.28265 -10.77479,26.7501 -4.97483,36.26253 5.65485,9.27442 12.5744,10.48065 21.4198,3.73393 6.11296,-4.66258 7.09553,-6.5912 7.1053,-13.9465 0.0144,-10.84709 3.25756,-22.62231 7.11164,-25.82091 3.45393,-2.86651 12.30884,-1.23179 13.70633,2.53034 0.5227,1.40716 0.0344,8.60293 -1.08501,15.99061 -2.44305,16.12245 -0.9219,24.17347 4.5673,24.17347 6.00703,0 6.98106,-3.78106 2.01081,-7.80572 -5.77789,-4.67865 -3.94434,-11.19387 4.08638,-14.5203 7.16309,-2.96705 13.6658,-1.20499 15.37014,4.1649 2.01802,6.35822 4.80814,2.58754 6.27663,-8.48252 1.29313,-9.74808 4.8892,-16.04381 9.16411,-16.04381 1.08897,0 4.22024,2.2403 6.95838,4.97844 4.29932,4.29932 4.68537,5.74929 2.83,10.62929 -2.368,6.22832 -0.65343,24.3181 2.48897,26.26022 2.43059,1.50218 9.84515,-4.93487 9.84515,-8.54721 0,-1.45112 1.08704,-5.02419 2.41564,-7.94016 1.84728,-4.05434 3.46524,-5.03831 6.87666,-4.1821 3.50949,0.88082 4.97685,-0.12569 6.87937,-4.71877 1.33009,-3.21113 5.10024,-8.40783 8.3781,-11.54822 5.10604,-4.89189 6.75917,-5.43014 11.54053,-3.75753 4.96557,1.73705 5.63712,3.06844 6.09176,12.07739 0.82314,16.31089 2.49848,23.3379 5.56408,23.3379 4.22418,0 9.16889,-8.18013 9.18181,-15.18963 0.006,-3.38476 0.96396,-9.58434 2.12828,-13.77686 1.64588,-5.92652 3.13604,-7.62276 6.69669,-7.62276 7.69106,0 9.45831,3.843 9.45831,20.56765 0,8.629 0.55523,17.136 1.23385,18.90445 1.95909,5.1053 8.11651,3.75244 13.83098,-3.03881 4.08117,-4.8502 5.26253,-8.47106 5.26253,-16.12956 0,-12.05638 2.54388,-19.28488 7.44925,-21.16724 4.8043,-1.84359 10.84538,5.40748 10.84538,13.01766 v 5.60554 l 9.01069,-9.01069 c 7.95743,-7.95743 9.91771,-8.936 16.77007,-8.37167 l 7.75938,0.63904 0.61085,10.56919 c 0.49472,8.55978 -0.20575,11.3858 -3.68433,14.86438 -5.39276,5.39276 -8.93075,4.34422 -9.78326,-2.89942 -0.62008,-5.26881 -0.88359,-5.40857 -4.32506,-2.29408 -3.49499,3.16292 -3.29714,3.68785 4.27111,11.33211 8.70801,8.79548 16.48764,11.84565 20.89135,8.1909 1.56531,-1.2991 3.48438,-7.11831 4.2646,-12.93159 2.30226,-17.15376 5.81258,-23.41334 15.62835,-27.86835 10.90677,-4.95017 14.32631,-5.01052 18.56426,-0.32763 7.58015,8.37596 1.38603,24.38288 -11.53818,29.8171 l -6.09983,2.56479 5.32685,5.32684 c 6.84744,6.84745 13.5779,6.75946 20.1309,-0.26318 4.22838,-4.53142 5.41425,-8.22991 6.26203,-19.53009 1.23593,-16.47398 4.22535,-20.77375 12.3068,-17.70119 4.71373,1.79216 5.83914,3.3593 5.93524,8.26479 0.0109,0.55901 -0.57217,3.53188 -1.29582,6.6064 -1.1408,4.84684 -0.70252,5.58633 3.29666,5.56226 10.40885,-0.0626 13.3198,-2.17471 15.62728,-11.33853 2.0291,-8.05827 2.86065,-8.96107 8.25384,-8.96107 8.24477,0 10.48039,5.18387 9.91213,22.98387 -0.66909,20.95808 1.52973,23.53246 12.33426,14.44105 l 6.25417,-5.26254 v -41.20725 -41.20724 l -10.67186,-1.28184 c -5.86953,-0.70502 -23.56141,-1.2898 -39.31529,-1.29951 -32.6973,-0.0202 -43.90897,2.43251 -54.78965,11.98587 -8.72027,7.65651 -12.59893,7.93122 -15.20493,1.07691 -3.56446,-9.37523 -2.38027,-18.96561 3.00702,-24.3529 4.71177,-4.71176 6.27445,-4.98944 28.07936,-4.98944 12.69945,0 33.55117,1.41108 46.33714,3.13572 12.78597,1.72465 27.45559,3.66535 32.59915,4.31266 l 9.35194,1.17694 2.32647,-9.23923 c 4.48064,-17.79425 16.07176,-21.28237 45.61415,-13.7267 31.71125,8.11037 58.75357,25.88141 55.4108,36.41356 -3.05042,9.61102 -23.22464,10.788 -61.84965,3.60837 l -25.16927,-4.67848 1.26992,25.57964 c 3.04834,61.40206 3.80867,91.51476 2.48838,98.55251 -2.6964,14.37307 -25.62326,31.42478 -25.55776,19.00843 z m -93.6015,-76.60214 c 2.95431,-5.52019 2.61687,-10.29732 -0.72737,-10.29732 -3.10808,0 -5.29932,4.27137 -5.29932,10.32994 0,5.03053 3.32661,5.01253 6.02669,-0.0326 z M 218.67215,596.18475 c 5.51885,-22.04117 7.4792,-45.68382 3.91243,-47.18553 -3.15114,-1.32672 -10.90027,15.80632 -14.22619,31.45359 -1.651,7.76734 -3.51369,24.64185 -4.13932,37.4989 l -1.13751,23.37647 5.12274,-11.89808 c 2.81751,-6.54394 7.52804,-21.50434 10.46785,-33.24535 z m 64.63329,22.27515 c 11.39652,-30.21058 18.03017,-67.17855 12.45763,-69.42389 -3.81576,-1.53749 -10.90024,14.80638 -13.96592,32.21937 -3.41738,19.41056 -6.33707,50.92549 -4.71798,50.92549 0.57762,0 3.37945,-6.17444 6.22627,-13.72097 z m 469.09355,-42.66925 c 4.28997,-4.28997 -3.38146,-9.89417 -21.70159,-15.85362 -26.35709,-8.57384 -39.56719,-5.45047 -39.56719,9.35521 0,7.45101 0.3029,7.79515 7.62276,8.66037 15.22241,1.79932 51.13191,0.35215 53.64602,-2.16196 z"
         id="path2" /></g></g></svg>
