<?xml version="1.0" encoding="UTF-8" standalone="no"?>
<!-- Created with Inkscape (http://www.inkscape.org/) -->

<svg
   version="1.1"
   id="svg1"
   width="600"
   height="300"
   viewBox="0 0 600 300"
   sodipodi:docname="Alūksnes_novada_karogs.svg"
   inkscape:version="1.3.2 (091e20e, 2023-11-25, custom)"
   xmlns:inkscape="http://www.inkscape.org/namespaces/inkscape"
   xmlns:sodipodi="http://sodipodi.sourceforge.net/DTD/sodipodi-0.dtd"
   xmlns:xlink="http://www.w3.org/1999/xlink"
   xmlns="http://www.w3.org/2000/svg"
   xmlns:svg="http://www.w3.org/2000/svg">
  <defs
     id="defs1" />
  <sodipodi:namedview
     id="namedview1"
     pagecolor="#ffffff"
     bordercolor="#000000"
     borderopacity="0.25"
     inkscape:showpageshadow="2"
     inkscape:pageopacity="0.0"
     inkscape:pagecheckerboard="0"
     inkscape:deskcolor="#d1d1d1"
     inkscape:zoom="1.4142136"
     inkscape:cx="387.14096"
     inkscape:cy="220.97087"
     inkscape:window-width="1920"
     inkscape:window-height="1009"
     inkscape:window-x="3832"
     inkscape:window-y="-8"
     inkscape:window-maximized="1"
     inkscape:current-layer="layer1-9" />
  <g
     inkscape:groupmode="layer"
     inkscape:label="Image"
     id="g1">
    <path
       style="display:inline;opacity:1;fill:#8b0039;fill-opacity:1;fill-rule:evenodd;stroke:none;stroke-width:0.336;paint-order:markers fill stroke"
       d="M 0,300 H 600 V 0 Z"
       id="path1" />
    <path
       style="display:inline;fill:#c8c8c8;fill-opacity:1;fill-rule:evenodd;stroke:none;stroke-width:0.336;paint-order:markers fill stroke"
       d="M 600,0 H 0 v 300 z"
       id="path1-9" />
    <g
       transform="matrix(0.48008148,0,0,0.48008148,161.02003,-77.115253)"
       id="layer1-9"
       inkscape:label="Layer 1"
       style="opacity:1">
      <path
         style="color:#000000;display:inline;overflow:visible;visibility:visible;fill:none;stroke:#c8c8c8;stroke-width:8.42000019;stroke-linecap:butt;stroke-linejoin:miter;stroke-miterlimit:4;stroke-dasharray:none;stroke-dashoffset:0;stroke-opacity:1;marker:none;enable-background:accumulate"
         d="m 226.80568,60.710117 c 0,0 0,74.365523 0,103.363163 0,28.99764 19.5131,75.2166 73.19432,75.2166 53.68122,0 73.19432,-46.21896 73.19432,-75.2166 0,-28.99764 0,-103.363163 0,-103.363163 z"
         id="path3776-0"
         inkscape:connector-curvature="0"
         sodipodi:nodetypes="czzzcc"
         transform="matrix(2.0829797,0,0,2.0829797,-335.40146,160.62951)" />
      <path
         style="color:#000000;display:inline;overflow:visible;visibility:visible;fill:#8f2241;fill-opacity:1;stroke:none;stroke-width:4;marker:none;enable-background:accumulate"
         d="m 2,-8 v 215.3125 c 0,29.43694 9.783753,67.31924 32.625,98.5 L 154.46875,232.40625 274.3125,305.8125 c 22.84125,-31.18076 32.625,-69.06306 32.625,-98.5 V -8 Z"
         id="path5081"
         transform="translate(135.03017,295.08746)"
         inkscape:connector-curvature="0" />
      <path
         style="color:#000000;display:inline;overflow:visible;visibility:visible;fill:#0033ab;fill-opacity:1;stroke:none;stroke-width:4;marker:none;enable-background:accumulate"
         d="M 274.3125,305.8125 154.46875,232.40625 34.625,305.8125 c 24.026578,32.79887 62.521324,58.15625 119.84375,58.15625 57.32243,0 95.81717,-25.35738 119.84375,-58.15625 z"
         id="path5084"
         transform="translate(135.03017,295.08746)"
         inkscape:connector-curvature="0" />
      <g
         id="g5031">
        <path
           style="color:#000000;display:inline;overflow:visible;visibility:visible;fill:#ffffff;stroke:#000000;stroke-width:2;stroke-linecap:butt;stroke-linejoin:miter;stroke-miterlimit:4;stroke-dasharray:none;stroke-dashoffset:0;stroke-opacity:1;marker:none;enable-background:accumulate"
           d="m 289.49892,512.49371 -127.09375,77.84375 c 3.00831,4.90003 6.3041,9.66442 9.90625,14.28125 l 117.1875,-71.78125 117.1875,71.78125 c 3.60018,-4.61483 6.89934,-9.38352 9.90625,-14.28125 z"
           id="path4915"
           inkscape:connector-curvature="0" />
        <path
           style="color:#000000;display:inline;overflow:visible;visibility:visible;fill:#000000;stroke:none;stroke-width:2;marker:none;enable-background:accumulate"
           d="m 289.49892,512.49371 15.1875,9.3125 v 20.34375 l -15.1875,-9.3125 z"
           id="path4920"
           inkscape:connector-curvature="0" />
        <path
           style="color:#000000;display:inline;overflow:visible;visibility:visible;fill:#000000;stroke:none;stroke-width:2;marker:none;enable-background:accumulate"
           d="m 319.87392,531.11871 15.1875,9.3125 v 20.34375 l -15.1875,-9.3125 z"
           id="path4935"
           inkscape:connector-curvature="0" />
        <path
           inkscape:connector-curvature="0"
           id="path4939"
           d="m 350.24892,549.74371 15.1875,9.3125 v 20.34375 l -15.1875,-9.3125 z"
           style="color:#000000;display:inline;overflow:visible;visibility:visible;fill:#000000;stroke:none;stroke-width:2;marker:none;enable-background:accumulate" />
        <path
           style="color:#000000;display:inline;overflow:visible;visibility:visible;fill:#000000;stroke:none;stroke-width:2;marker:none;enable-background:accumulate"
           d="m 380.62392,568.36871 15.1875,9.3125 v 20.34375 l -15.1875,-9.3125 z"
           id="path4943"
           inkscape:connector-curvature="0" />
        <path
           style="color:#000000;display:inline;overflow:visible;visibility:visible;fill:#000000;stroke:none;stroke-width:2;marker:none;enable-background:accumulate"
           d="m 410.99892,586.99371 v 11.8125 c 1.95228,-2.75892 3.81017,-5.55485 5.5625,-8.40625 z"
           id="path4947"
           inkscape:connector-curvature="0" />
        <path
           style="color:#000000;display:inline;overflow:visible;visibility:visible;fill:#000000;stroke:none;stroke-width:2;marker:none;enable-background:accumulate"
           d="m 274.31142,521.80621 -15.1875,9.3125 v 20.34375 l 15.1875,-9.3125 z"
           id="path4951"
           inkscape:connector-curvature="0" />
        <path
           inkscape:connector-curvature="0"
           id="path4953"
           d="m 243.93642,540.43121 -15.1875,9.3125 v 20.34375 l 15.1875,-9.3125 z"
           style="color:#000000;display:inline;overflow:visible;visibility:visible;fill:#000000;stroke:none;stroke-width:2;marker:none;enable-background:accumulate" />
        <path
           style="color:#000000;display:inline;overflow:visible;visibility:visible;fill:#000000;stroke:none;stroke-width:2;marker:none;enable-background:accumulate"
           d="m 213.56142,559.05621 -15.1875,9.3125 v 20.34375 l 15.1875,-9.3125 z"
           id="path4955"
           inkscape:connector-curvature="0" />
        <path
           style="color:#000000;display:inline;overflow:visible;visibility:visible;fill:#000000;stroke:none;stroke-width:2;marker:none;enable-background:accumulate"
           d="m 183.18642,577.68121 -15.1875,9.3125 v 11.8125 c 1.38659,1.9595 2.8224,3.90265 4.3125,5.8125 l 10.875,-6.65625 z"
           id="path4957"
           inkscape:connector-curvature="0" />
      </g>
      <path
         style="color:#000000;display:inline;overflow:visible;visibility:visible;fill:none;stroke:#000000;stroke-width:4;stroke-linecap:butt;stroke-linejoin:miter;stroke-miterlimit:4;stroke-dasharray:none;stroke-dashoffset:0;stroke-opacity:1;marker:none;enable-background:accumulate"
         d="m 137.03017,287.08746 c 0,0 0,154.90188 0,215.30337 0,60.40149 40.64539,156.67465 152.46229,156.67465 111.8169,0 152.46229,-96.27316 152.46229,-156.67465 0,-60.40149 0,-215.30337 0,-215.30337 z"
         id="path3776"
         inkscape:connector-curvature="0"
         sodipodi:nodetypes="czzzcc" />
      <g
         id="g5389"
         transform="translate(1.1708744)">
        <path
           style="color:#000000;display:inline;overflow:visible;visibility:visible;fill:#000000;stroke:none;stroke-width:1.5;marker:none;enable-background:accumulate"
           d="M 213.51231,486.85569 231.99446,476.4988 V 310.12404 c 0,0 -1.61607,0 -8.97322,0 -7.35714,0 -10.43134,6.52049 -9.50893,14.60216 z"
           id="path5232"
           inkscape:connector-curvature="0"
           sodipodi:nodetypes="cccscc" />
        <path
           sodipodi:nodetypes="czccscccccccccccc"
           inkscape:connector-curvature="0"
           id="path5105"
           d="m 358.42303,494.68155 c 0,0 -1.875,-3.625 -1.875,-8.4375 0,-4.8125 1.875,-8.4375 1.875,-8.4375 V 307.8512 c 0,0 -128.04464,0 -135.40179,0 -7.35714,0 -14.59822,8.03572 -9.50893,16.875 0,0 1.33036,-12.05357 9.50893,-12.05357 v 37.60498 c -7.35714,0 -14.59822,8.03572 -9.50893,16.875 0,0 1.33036,-12.05357 9.50893,-12.05357 v 79.27377 c -7.35714,0 -14.59822,8.03572 -9.50893,16.875 0,0 1.33036,-12.05357 9.50893,-12.05357 v 30.78645 c -7.35714,0 -14.59822,8.03572 -9.50893,16.875 l 13.79464,9.91071 z"
           style="color:#000000;display:inline;overflow:visible;visibility:visible;fill:#d0b67f;fill-opacity:1;stroke:#000000;stroke-width:1.5;stroke-linecap:butt;stroke-linejoin:miter;stroke-miterlimit:4;stroke-dasharray:none;stroke-dashoffset:0;stroke-opacity:1;marker:none;enable-background:accumulate" />
        <path
           sodipodi:nodetypes="cszsc"
           transform="translate(135.03017,295.08746)"
           inkscape:connector-curvature="0"
           id="path5099"
           d="m 225.35714,181.51374 c 0,0 -111.28571,0 -125.357143,0 -14.071426,0 -18.468679,0.92857 -18.468679,9.64286 0,8.71428 4.397249,9.64285 18.468679,9.64285 14.071433,0 125.357143,0 125.357143,0"
           style="color:#000000;display:inline;overflow:visible;visibility:visible;fill:none;stroke:#000000;stroke-width:7;stroke-linecap:butt;stroke-linejoin:miter;stroke-miterlimit:4;stroke-dasharray:none;stroke-dashoffset:0;stroke-opacity:1;marker:none;enable-background:accumulate" />
        <path
           inkscape:connector-curvature="0"
           id="path5137"
           d="M 226.54803,307.8512 V 476.06548"
           style="color:#000000;display:inline;overflow:visible;visibility:visible;fill:none;stroke:#000000;stroke-width:1.5;stroke-linecap:butt;stroke-linejoin:miter;stroke-miterlimit:4;stroke-dasharray:none;stroke-dashoffset:0;stroke-opacity:1;marker:none;enable-background:accumulate" />
        <circle
           transform="matrix(0.92777516,0,0,0.92777516,142.32118,297.99076)"
           id="path5139"
           style="color:#000000;display:inline;overflow:visible;visibility:visible;fill:none;stroke:#000000;stroke-width:1.61677;stroke-linecap:square;stroke-linejoin:miter;stroke-miterlimit:4;stroke-dasharray:none;stroke-dashoffset:0;stroke-opacity:1;marker:none;enable-background:accumulate"
           cx="100.3125"
           cy="20.754812"
           r="4.4196429" />
        <use
           height="365.97803"
           width="308.92459"
           transform="matrix(-1,0,0,1,585.65712,0)"
           id="use5151"
           xlink:href="#path5139"
           y="0"
           x="0" />
        <use
           height="365.97803"
           width="308.92459"
           transform="matrix(1,0,0,-1,0,781.28359)"
           id="use5153"
           xlink:href="#path5139"
           y="0"
           x="0" />
        <use
           x="0"
           y="0"
           xlink:href="#path5139"
           id="use5155"
           transform="rotate(180,292.82856,390.64179)"
           width="308.92459"
           height="365.97803" />
        <path
           sodipodi:nodetypes="ccccccccccccccccscssscsccscssscscccccccccccccccccsssccccssscccccccccccccccccccccccsccccccccccccccccccccccccsccsscsccscccccccscsccccccccccc"
           inkscape:connector-curvature="0"
           id="path5161"
           transform="translate(135.03017,295.08746)"
           d="m 116.40625,17.8125 c 0,4.103664 -1.22694,7.925919 -3.3125,11.125 l 8.375,14.34375 L 107.125,34.875 c -3.20184,2.090979 -7.01554,3.3125 -11.125,3.3125 v 114.71875 c 4.09417,0 7.8992,1.2358 11.09375,3.3125 l 14.375,-8.40625 -8.40625,14.375 c 2.09098,3.20184 3.34375,7.01554 3.34375,11.125 h 82.78125 c 0,-4.10946 1.25083,-7.92121 3.34375,-11.125 l -8.40625,-14.375 14.375,8.40625 c 3.19648,-2.07863 6.99958,-3.3125 11.09375,-3.3125 v -5.21875 c -3.99282,-0.32007 -6.0625,-2.3721 -6.0625,-4.875 V 140.75 h -0.875 c -3.19846,0 -5.75,-2.02484 -5.75,-4.53125 0,-2.50641 2.55154,-4.5625 5.75,-4.5625 h 0.875 v -2.0625 c 0,-2.5029 2.06968,-4.55085 6.0625,-4.875 v -58.3125 c -3.99282,-0.324155 -6.0625,-2.372099 -6.0625,-4.875 v -2.0625 h -0.875 c -3.19846,0 -5.75,-2.05609 -5.75,-4.5625 0,-2.50641 2.55154,-4.53125 5.75,-4.53125 h 0.875 v -2.0625 c 0,-2.502901 2.06968,-4.554929 6.0625,-4.875 v -5.25 c -4.10946,0 -7.92316,-1.221521 -11.125,-3.3125 L 194.125,43.28125 202.5,28.9375 c -2.08556,-3.199081 -3.3125,-7.021336 -3.3125,-11.125 z m 17.36607,20.40625 h 4.08036 l 14.8125,30.09375 h -5.00893 l -5.9375,-12.15625 H 129.875 l -5.10268,12.15625 h -5.84375 z m 31.50893,0 h 13.90625 c 7.23215,0 10.71875,8.314885 10.71875,14.875 0,6.560115 -3.4866,14.84375 -10.71875,14.84375 h -13.90625 z m 3.875,3.46875 v 22.78125 h 8.3125 c 5.15522,0 8.6875,-4.81488 8.6875,-11.375 0,-6.56011 -3.53228,-11.40625 -8.6875,-11.40625 z M 135.8125,43.09375 131.375,52.875 h 8.875 z m 19.28125,19.21875 h 5.09375 v 5.09375 h -5.09375 z m 35.09375,0 h 5.09375 v 5.09375 H 190.1875 Z M 143.4375,82.5 v 3.03125 c 0,0 -4.15324,1.14451 -7.5625,8.53125 l 5.46875,-1.71875 c 0,0 3.22906,3.811389 5.3125,7.03125 0,0 0.94892,3.02522 -0.1875,9.84375 L 137.375,120.375 h -3.21875 c 0,0 -7.5625,-6.42766 -7.5625,-13.625 0,-7.197337 6.99476,-19.704313 16.84375,-24.25 z m 18.75,0.375 10.21875,10.625 -6.8125,6.25 8.34375,9.09375 -12.5,11.53125 -10.40625,-11.15625 7.375,-7.03125 c 0,0 -7.5625,-8.121193 -7.5625,-8.5 z m -42.40625,2.46875 h 2.4375 v 23.6875 c 0,0 1.51602,1.12388 3.03125,4.34375 l -5.28125,5.3125 c 0,0 -0.97525,-3.42798 -3.4375,-4.375 l -2.0625,2.28125 -2.84375,-1.6875 c 0,0 1.51032,-2.67989 3.59375,-3.4375 V 95.9375 c 0,0 -4.35787,3.221446 -6.0625,6.0625 l -2.09375,-1.6875 c 0,0 5.90022,-10.423064 12.71875,-14.96875 z m 67.59375,0 c 8.52316,6.060916 11.75682,17.42004 7.96875,25.375 -3.78807,7.95495 -15.53125,22.75 -15.53125,22.75 l -1.71875,-3.625 c 0,0 4.20257,-4.57064 8.15625,-10.21875 5.3033,-7.57615 6.73103,-14.29076 3.78125,-18.375 -2.89205,-4.004291 -5.45455,-5.453411 -7.5625,-5.875 0,0 -2.10005,7.6296 -1.15625,9.28125 0.9438,1.65165 6.4375,7.78125 6.4375,7.78125 l -4.53125,6.0625 c -10.03839,-5.4927 -8.16117,-17.82741 -4.5625,-22.5625 3.59867,-4.73509 8.71875,-10.59375 8.71875,-10.59375 z m -27.40625,3.78125 -2.8125,2.84375 5.65625,5.6875 2.46875,-2.84375 z M 135.375,97.84375 c 0,0 -3.61279,3.79235 -1.71875,8.90625 1.89403,5.1139 5.125,6.625 5.125,6.625 0,0 1.69321,-4.36057 1.125,-8.90625 -0.56821,-4.54569 -4.53125,-6.625 -4.53125,-6.625 z m 26.125,6.25 c -0.18941,0.56821 -2.84375,3.21875 -2.84375,3.21875 l 4.9375,5.125 3.03125,-2.84375 z m 36.5625,7.28125 3.46875,2.71875 -2,2.71875 -3.46875,-2.71875 z"
           style="color:#000000;display:inline;overflow:visible;visibility:visible;fill:#000000;stroke:none;stroke-width:1.5;marker:none;enable-background:accumulate" />
        <rect
           ry="4.1668792"
           rx="4.1668792"
           y="334.28113"
           x="358.77896"
           height="31.440998"
           width="6.8185296"
           id="rect5234"
           style="color:#000000;display:inline;overflow:visible;visibility:visible;fill:#000000;fill-opacity:1;fill-rule:evenodd;stroke:none;stroke-width:1.5;marker:none;enable-background:accumulate" />
        <use
           height="365.97803"
           width="308.92459"
           transform="matrix(1,0,0,-1,0,781.29992)"
           id="use5261"
           xlink:href="#rect5234"
           y="0"
           x="0" />
      </g>
    </g>
  </g>
</svg>
