<?xml version="1.0" encoding="UTF-8" standalone="no"?>
<svg
   xmlns:dc="http://purl.org/dc/elements/1.1/"
   xmlns:cc="http://creativecommons.org/ns#"
   xmlns:rdf="http://www.w3.org/1999/02/22-rdf-syntax-ns#"
   xmlns:svg="http://www.w3.org/2000/svg"
   xmlns="http://www.w3.org/2000/svg"
   width="799.99994"
   height="400.00003"
   viewBox="0 0 211.66665 105.83334"
   version="1.1"
   id="svg847">
  <defs
     id="defs841" />
  <metadata
     id="metadata844">
    <rdf:RDF>
      <cc:Work
         rdf:about="">
        <dc:format>image/svg+xml</dc:format>
        <dc:type
           rdf:resource="http://purl.org/dc/dcmitype/StillImage" />
        <dc:title></dc:title>
      </cc:Work>
    </rdf:RDF>
  </metadata>
  <path
     id="rect844"
     style="fill:#0054a5;fill-opacity:1;stroke-width:1.32292;stroke-miterlimit:10;stroke-dashoffset:1.4"
     d="M 105.83332,0 H 0 v 105.83334 h 105.83332 l 5.29167,-52.91667 z" />
  <path
     id="path876"
     style="fill:#249855;fill-opacity:1;stroke-width:1.32292;stroke-miterlimit:10;stroke-dashoffset:1.4"
     d="M 211.66666,0 H 105.83332 v 105.83334 h 105.83334 z" />
  <g
     id="layer1-2"
     transform="matrix(0.72255689,0,0,0.72255689,45.120592,-21.133096)">
    <path
       id="path871"
       style="fill:#ecb011;fill-opacity:1;stroke:#000000;stroke-width:0.926042;stroke-miterlimit:10;stroke-dasharray:none"
       d="m 84.02485,54.108834 4.231086,38.159231 29.974484,-23.99082 -23.990823,29.974481 38.159233,4.231084 -38.159234,4.23109 23.990824,29.97448 -29.974485,-23.99082 -4.231087,38.15923 -4.231086,-38.15923 -29.974482,23.99082 23.990821,-29.97448 -38.15923,-4.23109 38.159231,-4.231085 -23.99082,-29.974481 29.97448,23.99082 z" />
    <path
       id="path844-5"
       style="fill:#ecb011;fill-opacity:1;stroke:#000000;stroke-width:1.05833;stroke-miterlimit:10;stroke-dasharray:none"
       d="m 62.525047,48.087093 c -0.34687,0.005 -0.67471,0.11198 -0.93996,0.22185 -0.70732,0.29298 -1.713,0.91645 -1.11809,2.60315 0.59491,1.6867 0.50617,2.46663 -0.98833,2.27386 -1.49451,-0.19277 -2.14444,0.81394 -1.79202,2.74453 0.35243,1.9306 1.84508,2.68749 1.7083,4.12495 -0.13678,1.43746 -1.84175,-0.0655 -2.73523,0.78787 -0.89348,0.85337 0.27957,4.37153 2.74872,5.35094 2.46915,0.9794 5.30425,2.35997 5.33791,3.72682 0.0337,1.36686 -1.40794,0.682 -2.21525,1.40087 -0.80731,0.71888 -0.26536,3.21634 2.08131,3.418 2.34667,0.20166 5.041562,1.31261 5.637436,2.84314 0.595924,1.5305 -0.617925,1.56864 -0.233015,3.13428 0.384911,1.56565 2.201687,1.29741 3.346838,1.65156 0.923747,0.28568 1.448823,1.18504 1.80225,2.13433 a 20.044035,20.044035 0 0 0 -9.121009,9.12055 c -0.94912,-0.35343 -1.84871,-0.87866 -2.13433,-1.80225 -0.35415,-1.14515 -0.0859,-2.96193 -1.65156,-3.34684 -1.56565,-0.38491 -1.60334,0.82897 -3.13383,0.23302 -1.53051,-0.59589 -2.64147,-3.29077 -2.84313,-5.63744 -0.20166,-2.34668 -2.69913,-2.88862 -3.418,-2.08131 -0.71887,0.80731 -0.0345,2.24893 -1.40133,2.21526 -1.36686,-0.0337 -2.74695,-2.86878 -3.72636,-5.33792 -0.97941,-2.46914 -4.49757,-3.6422 -5.35094,-2.74872 -0.85337,0.89348 0.64959,2.59844 -0.78787,2.73523 -1.43746,0.13678 -2.19482,-1.35587 -4.12541,-1.7083 -1.93059,-0.35242 -2.93684,0.29751 -2.74407,1.79202 0.19277,1.4945 -0.58716,1.58324 -2.27386,0.98833 -1.6867,-0.59491 -2.31017,0.41123 -2.60315,1.11856 -0.29298,0.70732 -0.56315,1.8595 1.05019,2.63152 1.61335,0.772 2.10142,1.38595 0.90834,2.30641 -1.19309,0.92047 -0.94088,2.09184 0.67345,3.20777 1.61434,1.11594 3.2057,0.59561 4.12541,1.70877 0.91972,1.11315 -1.34925,1.25631 -1.37761,2.49152 -0.0284,1.23521 3.28917,2.89333 5.72766,1.83993 2.4385,-1.0534 5.41918,-2.0822 6.4095,-1.13949 0.99032,0.94271 -0.51325,1.47792 -0.57579,2.5571 -0.0625,1.07918 2.08674,2.46229 3.88868,0.94554 1.80194,-1.51675 4.4929,-2.63708 5.99649,-1.9762 1.50361,0.66086 0.67276,1.54592 2.05201,2.38083 1.37925,0.83491 2.47364,-0.63922 3.5338,-1.19855 0.85514,-0.45116 1.86249,-0.18595 2.78361,0.23534 a 20.044035,20.044035 0 0 0 -1.066,6.449037 20.044035,20.044035 0 0 0 1.066,6.44903 c -0.92109,0.42127 -1.9285,0.68602 -2.78361,0.23487 -1.06016,-0.55932 -2.15502,-2.03346 -3.53427,-1.19855 -1.37925,0.83489 -0.54791,1.72002 -2.05154,2.38083 -1.50359,0.66088 -4.19455,-0.45899 -5.99649,-1.97573 -1.80195,-1.51676 -3.95121,-0.13409 -3.88868,0.94507 0.0625,1.07918 1.56611,1.6144 0.57579,2.5571 -0.99032,0.94271 -3.971,-0.086 -6.4095,-1.13948 -2.43849,-1.05341 -5.75602,0.60471 -5.72766,1.83992 0.0284,1.23521 2.29733,1.37836 1.37761,2.49153 -0.91971,1.11316 -2.51107,0.59283 -4.12541,1.70876 -1.61433,1.11593 -1.86654,2.28731 -0.67345,3.20777 1.19308,0.92047 0.70501,1.53487 -0.90834,2.30688 -1.61334,0.77202 -1.34317,1.9242 -1.05019,2.63153 0.29298,0.70731 0.91644,1.713 2.60315,1.11809 1.6867,-0.59491 2.46663,-0.50571 2.27386,0.98879 -0.19277,1.49452 0.81348,2.14445 2.74407,1.79202 1.93059,-0.35242 2.68795,-1.84555 4.12541,-1.70877 1.43746,0.13679 -0.0655,1.84176 0.78787,2.73524 0.85337,0.89348 4.37153,-0.27958 5.35094,-2.74873 0.9794,-2.46915 2.3595,-5.30425 3.72636,-5.33791 1.36685,-0.0337 0.68199,1.4084 1.40087,2.21572 0.71887,0.80731 3.2168,0.2649 3.41846,-2.08177 0.20166,-2.34668 1.31261,-5.04156 2.84313,-5.63744 1.53051,-0.59592 1.56818,0.61793 3.13383,0.23302 1.56564,-0.38491 1.29741,-2.2017 1.65156,-3.34684 0.28566,-0.92373 1.18553,-1.44837 2.13479,-1.80179 a 20.044035,20.044035 0 0 0 9.120085,9.12055 c -0.353427,0.94915 -0.878161,1.84869 -1.801786,2.13432 -1.145149,0.35415 -2.961927,0.0859 -3.346838,1.65156 -0.38491,1.56565 0.82897,1.60334 0.233015,3.13383 -0.595891,1.53051 -3.290766,2.64148 -5.637436,2.84313 -2.34668,0.20166 -2.88862,2.6996 -2.08131,3.41847 0.80731,0.71887 2.24892,0.034 2.21525,1.40086 -0.0337,1.36686 -2.86877,2.74696 -5.33791,3.72636 -2.46915,0.97941 -3.6422,4.49757 -2.74872,5.35094 0.89348,0.85333 2.59844,-0.64912 2.73523,0.78834 0.13678,1.43746 -1.35587,2.19435 -1.7083,4.12494 -0.35242,1.93059 0.29751,2.93732 1.79202,2.74454 1.4945,-0.19276 1.58324,0.58669 0.98833,2.27339 -0.59491,1.68671 0.41077,2.31064 1.11809,2.60362 0.70732,0.29298 1.85997,0.56315 2.63199,-1.0502 0.772,-1.61334 1.38595,-2.10187 2.30641,-0.90879 0.92047,1.19309 2.091842,0.94087 3.207774,-0.67346 1.115932,-1.61434 0.59561,-3.20523 1.708766,-4.12494 1.113155,-0.91972 1.256309,1.3488 2.491523,1.37715 1.235209,0.0284 2.893324,-3.28917 1.839922,-5.72767 -1.053409,-2.4385 -2.082193,-5.41918 -1.139487,-6.4095 0.942706,-0.99032 1.477924,0.51324 2.557102,0.57579 1.079179,0.0625 2.462292,-2.08673 0.945542,-3.88867 -1.516758,-1.80194 -2.637093,-4.49291 -1.976196,-5.9965 0.660847,-1.5036 1.545925,-0.67229 2.380832,-2.05154 0.834903,-1.37924 -0.639231,-2.47411 -1.198557,-3.53427 -0.451139,-0.8551 -0.186394,-1.86252 0.234875,-2.7836 a 20.044035,20.044035 0 0 0 6.449498,1.066 20.044035,20.044035 0 0 0 6.449032,-1.066 c 0.421268,0.92108 0.686013,1.9285 0.234874,2.7836 -0.559325,1.06016 -2.033462,2.15503 -1.198555,3.53427 0.834905,1.37925 1.720021,0.54792 2.380832,2.05154 0.660883,1.5036 -0.459448,4.19456 -1.976198,5.9965 -1.516757,1.80194 -0.133626,3.95122 0.945541,3.88867 1.079177,-0.0625 1.6144,-1.56611 2.557105,-0.57579 0.942705,0.99032 -0.08613,3.971 -1.139485,6.4095 -1.05341,2.4385 0.604703,5.75602 1.839914,5.72767 1.23522,-0.0283 1.378368,-2.29686 2.491527,-1.37715 1.113159,0.91971 0.592832,2.5106 1.708764,4.12494 1.115931,1.61434 2.287298,1.86655 3.207778,0.67346 0.92046,-1.19308 1.5344,-0.70501 2.30641,0.90833 0.77202,1.61335 1.92466,1.34364 2.63198,1.05066 0.70733,-0.29298 1.71301,-0.91691 1.1181,-2.60362 -0.59492,-1.68669 -0.50617,-2.46616 0.98833,-2.27339 1.49452,0.19277 2.14445,-0.81395 1.79202,-2.74454 -0.35242,-1.93059 -1.84508,-2.68748 -1.70831,-4.12494 0.1368,-1.43746 1.84175,0.0651 2.73524,-0.78834 0.89347,-0.85337 -0.27957,-4.37153 -2.74872,-5.35094 -2.46915,-0.9794 -5.30426,-2.3595 -5.33792,-3.72636 -0.0337,-1.3669 1.40794,-0.68198 2.21526,-1.40086 0.80731,-0.71887 0.26536,-3.21681 -2.08131,-3.41847 -2.34668,-0.20165 -5.041565,-1.31262 -5.637439,-2.84313 -0.59592,-1.53051 0.617925,-1.56818 0.233014,-3.13383 -0.38491,-1.56568 -2.201685,-1.29741 -3.346831,-1.65156 -0.923814,-0.28569 -1.44883,-1.18542 -1.802257,-2.13479 a 20.044035,20.044035 0 0 0 9.121013,-9.12008 c 0.94912,0.35342 1.8487,0.87821 2.13433,1.80179 0.35415,1.14515 0.0859,2.96193 1.65156,3.34684 1.56565,0.38491 1.60334,-0.82897 3.13382,-0.23302 1.53052,0.59589 2.64147,3.29077 2.84314,5.63744 0.20166,2.34668 2.69959,2.88907 3.41846,2.08177 0.71887,-0.80732 0.034,-2.24938 1.40087,-2.21572 1.36686,0.0337 2.74695,2.86877 3.72636,5.33791 0.97941,2.46915 4.49757,3.64221 5.35094,2.74873 0.85333,-0.89349 -0.64959,-2.59845 0.78787,-2.73524 1.43746,-0.13678 2.19482,1.35634 4.12541,1.70877 1.93059,0.35242 2.93684,-0.29751 2.74407,-1.79202 -0.19276,-1.4945 0.58716,-1.58371 2.27386,-0.98879 1.6867,0.5949 2.31016,-0.41079 2.60315,-1.11809 0.29298,-0.70733 0.56315,-1.85951 -1.0502,-2.63153 -1.61334,-0.77201 -2.10141,-1.38641 -0.90833,-2.30688 1.19308,-0.92047 0.94088,-2.09184 -0.67346,-3.20777 -1.61433,-1.11593 -3.20569,-0.59561 -4.12541,-1.70876 -0.91971,-1.11316 1.34927,-1.25632 1.37762,-2.49153 0.0283,-1.23521 -3.28918,-2.89332 -5.72767,-1.83992 -2.4385,1.0534 -5.41917,2.08219 -6.4095,1.13948 -0.99031,-0.9427 0.51325,-1.47792 0.5758,-2.5571 0.0626,-1.07917 -2.08675,-2.46182 -3.88868,-0.94507 -1.80195,1.51675 -4.49291,2.63662 -5.99649,1.97573 -1.50362,-0.66085 -0.67276,-1.54592 -2.05201,-2.38083 -1.37925,-0.8349 -2.47364,0.63923 -3.53381,1.19855 -0.8551,0.45115 -1.86251,0.1864 -2.7836,-0.23487 a 20.044035,20.044035 0 0 0 1.066,-6.44903 20.044035,20.044035 0 0 0 -1.066,-6.449497 c 0.92107,-0.42125 1.92853,-0.686 2.7836,-0.23488 1.06017,0.55933 2.15456,2.03346 3.53381,1.19855 1.37925,-0.8349 0.54839,-1.72001 2.05201,-2.38083 1.50359,-0.66087 4.19455,0.45946 5.99649,1.9762 1.80194,1.51677 3.95123,0.13363 3.88868,-0.94554 -0.0626,-1.07917 -1.56611,-1.61439 -0.5758,-2.5571 0.99033,-0.94271 3.971,0.0861 6.4095,1.13949 2.4385,1.0534 5.75602,-0.60472 5.72767,-1.83993 -0.0283,-1.23521 -2.29732,-1.37836 -1.37762,-2.49152 0.91972,-1.11316 2.51108,-0.59283 4.12541,-1.70877 1.61434,-1.11593 1.86654,-2.2873 0.67346,-3.20777 -1.19308,-0.92046 -0.70501,-1.53441 0.90833,-2.30641 1.61335,-0.77202 1.34318,-1.9242 1.0502,-2.63152 -0.29299,-0.70733 -0.91645,-1.71347 -2.60315,-1.11856 -1.6867,0.59492 -2.46662,0.50617 -2.27386,-0.98833 0.19277,-1.49451 -0.81348,-2.14444 -2.74407,-1.79202 -1.93059,0.35243 -2.68795,1.84555 -4.12541,1.70877 -1.43746,-0.13679 0.0655,-1.84222 -0.78787,-2.7357 -0.85337,-0.89348 -4.37153,0.27958 -5.35094,2.74872 -0.97941,2.46915 -2.3595,5.30425 -3.72636,5.33792 -1.36681,0.0337 -0.682,-1.40795 -1.40087,-2.21526 -0.71887,-0.80731 -3.2168,-0.26536 -3.41846,2.08131 -0.20166,2.34667 -1.31261,5.04156 -2.84314,5.63744 -1.53049,0.59592 -1.56817,-0.61793 -3.13382,-0.23302 -1.56568,0.38491 -1.29741,2.20169 -1.65156,3.34684 -0.28563,0.92359 -1.18521,1.44882 -2.13433,1.80225 a 20.044035,20.044035 0 0 0 -9.120545,-9.12055 c 0.353427,-0.94924 0.878083,-1.84867 1.801789,-2.13433 1.145146,-0.35415 2.961921,-0.0859 3.346831,-1.65156 0.384911,-1.56564 -0.828979,-1.6038 -0.233014,-3.13428 0.595883,-1.53052 3.290769,-2.64148 5.637439,-2.84314 2.34668,-0.20166 2.88908,-2.69913 2.08177,-3.418 -0.80731,-0.71887 -2.24938,-0.034 -2.21572,-1.40087 0.0337,-1.36685 2.86878,-2.74741 5.33792,-3.72682 2.46915,-0.97941 3.64219,-4.49757 2.74872,-5.35094 -0.89349,-0.85337 -2.59844,0.64959 -2.73524,-0.78787 -0.13677,-1.43746 1.35589,-2.19435 1.70831,-4.12495 0.35243,-1.93059 -0.2975,-2.9373 -1.79202,-2.74453 -1.4945,0.19277 -1.58325,-0.58716 -0.98833,-2.27386 0.59491,-1.6867 -0.41077,-2.31017 -1.1181,-2.60315 -0.70732,-0.29298 -1.85996,-0.56315 -2.63198,1.05019 -0.77201,1.61335 -1.38595,2.10142 -2.30641,0.90834 -0.92048,-1.19309 -2.091847,-0.94041 -3.207778,0.67392 -1.115932,1.61434 -0.595605,3.20523 -1.708764,4.12494 -1.11315,0.91972 -1.256307,-1.34879 -2.491527,-1.37715 -1.235211,-0.0284 -2.893324,3.28917 -1.839914,5.72767 1.053389,2.4385 2.08219,5.41871 1.139485,6.40903 -0.942705,0.99032 -1.477928,-0.51324 -2.557105,-0.57579 -1.079177,-0.0625 -2.462288,2.0872 -0.945541,3.88914 1.516759,1.80195 2.63709,4.49291 1.976198,5.9965 -0.660853,1.50361 -1.545927,0.67229 -2.380832,2.05154 -0.834907,1.37925 0.63923,2.47411 1.198555,3.53427 0.451139,0.85511 0.186394,1.86205 -0.234874,2.78314 a 20.044035,20.044035 0 0 0 -6.449032,-1.066 20.044035,20.044035 0 0 0 -6.449498,1.066 c -0.42127,-0.92109 -0.686014,-1.92803 -0.234875,-2.78314 0.559326,-1.06016 2.03346,-2.15502 1.198557,-3.53427 -0.834907,-1.37925 -1.720018,-0.54792 -2.380832,-2.05154 -0.660881,-1.5036 0.459447,-4.19456 1.976196,-5.9965 1.516757,-1.80194 0.133627,-3.95167 -0.945542,-3.88914 -1.079175,0.0625 -1.614396,1.56611 -2.557102,0.57579 -0.942706,-0.99032 0.08609,-3.97054 1.139487,-6.40903 1.053402,-2.4385 -0.604711,-5.75603 -1.839922,-5.72767 -1.235214,0.0284 -1.378361,2.29687 -2.491523,1.37715 -1.113156,-0.91971 -0.592836,-2.5106 -1.708766,-4.12494 -1.115932,-1.61433 -2.287304,-1.86701 -3.207774,-0.67392 -0.92046,1.19308 -1.53441,0.70501 -2.30641,-0.90834 -0.48252,-1.00834 -1.11391,-1.28092 -1.69203,-1.27204 z" />
    <path
       id="path977"
       style="color:#000000;font-style:normal;font-variant:normal;font-weight:normal;font-stretch:normal;font-size:medium;line-height:normal;font-family:sans-serif;font-variant-ligatures:normal;font-variant-position:normal;font-variant-caps:normal;font-variant-numeric:normal;font-variant-alternates:normal;font-variant-east-asian:normal;font-feature-settings:normal;font-variation-settings:normal;text-indent:0;text-align:start;text-decoration:none;text-decoration-line:none;text-decoration-style:solid;text-decoration-color:#000000;letter-spacing:normal;word-spacing:normal;text-transform:none;writing-mode:lr-tb;direction:ltr;text-orientation:mixed;dominant-baseline:auto;baseline-shift:baseline;text-anchor:start;white-space:normal;shape-padding:0;shape-margin:0;inline-size:0;clip-rule:nonzero;display:inline;overflow:visible;visibility:visible;isolation:auto;mix-blend-mode:normal;color-interpolation:sRGB;color-interpolation-filters:linearRGB;solid-color:#000000;solid-opacity:1;vector-effect:none;fill:#000000;fill-opacity:1;fill-rule:nonzero;stroke:none;stroke-width:1.05833;stroke-linecap:butt;stroke-linejoin:miter;stroke-miterlimit:10;stroke-dasharray:none;stroke-dashoffset:0;stroke-opacity:1;color-rendering:auto;image-rendering:auto;shape-rendering:auto;text-rendering:auto;enable-background:accumulate;stop-color:#000000"
       d="m 63.782924,54.578818 c 0,0 2.77282,6.881624 4.65844,11.470367 -2.954915,-2.41451 -6.633523,-3.230886 -6.633523,-3.230886 0,0 4.353629,2.485933 7.342385,4.946909 0.130899,0.30426 1.14782,2.668777 2.136344,4.992491 -1.960662,-1.375377 -3.557539,-0.870329 -3.557539,-0.870329 0,0 2.085705,0.292884 4.225021,2.448942 0.921781,2.275234 2.005393,4.48695 3.169864,6.659115 -0.510095,-2.552728 -1.347075,-4.698708 -2.280548,-6.914213 0.04408,-2.846876 0.656243,-5.072412 0.656243,-5.072412 0,0 -0.963853,1.229299 -1.296484,3.556015 -1.014707,-2.386452 -2.109371,-4.931603 -2.222788,-5.195304 0.245109,-3.745858 0.766397,-7.960836 0.766397,-7.960836 0,0 -1.229923,2.606277 -1.481427,6.307275 -2.033223,-4.559597 -5.482403,-11.137128 -5.482403,-11.137128 z" />
    <path
       id="path983"
       style="color:#000000;font-style:normal;font-variant:normal;font-weight:normal;font-stretch:normal;font-size:medium;line-height:normal;font-family:sans-serif;font-variant-ligatures:normal;font-variant-position:normal;font-variant-caps:normal;font-variant-numeric:normal;font-variant-alternates:normal;font-variant-east-asian:normal;font-feature-settings:normal;font-variation-settings:normal;text-indent:0;text-align:start;text-decoration:none;text-decoration-line:none;text-decoration-style:solid;text-decoration-color:#000000;letter-spacing:normal;word-spacing:normal;text-transform:none;writing-mode:lr-tb;direction:ltr;text-orientation:mixed;dominant-baseline:auto;baseline-shift:baseline;text-anchor:start;white-space:normal;shape-padding:0;shape-margin:0;inline-size:0;clip-rule:nonzero;display:inline;overflow:visible;visibility:visible;isolation:auto;mix-blend-mode:normal;color-interpolation:sRGB;color-interpolation-filters:linearRGB;solid-color:#000000;solid-opacity:1;vector-effect:none;fill:#000000;fill-opacity:1;fill-rule:nonzero;stroke:none;stroke-width:1.05833;stroke-linecap:butt;stroke-linejoin:miter;stroke-miterlimit:10;stroke-dasharray:none;stroke-dashoffset:0;stroke-opacity:1;color-rendering:auto;image-rendering:auto;shape-rendering:auto;text-rendering:auto;enable-background:accumulate;stop-color:#000000"
       d="m 104.26678,150.3868 c 0,0 -2.77282,-6.88163 -4.658445,-11.47037 2.954915,2.41451 6.633525,3.23088 6.633525,3.23088 0,0 -4.35363,-2.48593 -7.342387,-4.94691 -0.130899,-0.30426 -1.147819,-2.66877 -2.136344,-4.99248 1.96066,1.37537 3.557541,0.87032 3.557541,0.87032 0,0 -2.085707,-0.29288 -4.225021,-2.44893 -0.92178,-2.27524 -2.005391,-4.48696 -3.169861,-6.65912 0.510094,2.55272 1.347074,4.69871 2.280545,6.91421 -0.0441,2.84688 -0.656239,5.07241 -0.656239,5.07241 0,0 0.963847,-1.22929 1.296484,-3.55601 1.014707,2.38645 2.109371,4.9316 2.222782,5.19531 -0.245102,3.74585 -0.766392,7.96083 -0.766392,7.96083 0,0 1.229919,-2.60628 1.481429,-6.30728 2.033223,4.5596 5.482403,11.13713 5.482403,11.13713 z" />
    <path
       id="path989"
       style="color:#000000;font-style:normal;font-variant:normal;font-weight:normal;font-stretch:normal;font-size:medium;line-height:normal;font-family:sans-serif;font-variant-ligatures:normal;font-variant-position:normal;font-variant-caps:normal;font-variant-numeric:normal;font-variant-alternates:normal;font-variant-east-asian:normal;font-feature-settings:normal;font-variation-settings:normal;text-indent:0;text-align:start;text-decoration:none;text-decoration-line:none;text-decoration-style:solid;text-decoration-color:#000000;letter-spacing:normal;word-spacing:normal;text-transform:none;writing-mode:lr-tb;direction:ltr;text-orientation:mixed;dominant-baseline:auto;baseline-shift:baseline;text-anchor:start;white-space:normal;shape-padding:0;shape-margin:0;inline-size:0;clip-rule:nonzero;display:inline;overflow:visible;visibility:visible;isolation:auto;mix-blend-mode:normal;color-interpolation:sRGB;color-interpolation-filters:linearRGB;solid-color:#000000;solid-opacity:1;vector-effect:none;fill:#000000;fill-opacity:1;fill-rule:nonzero;stroke:none;stroke-width:1.05833;stroke-linecap:butt;stroke-linejoin:miter;stroke-miterlimit:10;stroke-dasharray:none;stroke-dashoffset:0;stroke-opacity:1;color-rendering:auto;image-rendering:auto;shape-rendering:auto;text-rendering:auto;enable-background:accumulate;stop-color:#000000"
       d="m 64.464826,150.66926 c 0,0 2.905363,-6.82673 4.81676,-11.40479 0.382124,3.79676 2.406028,6.97518 2.406028,6.97518 0,0 -1.320661,-4.83629 -1.693858,-8.68983 0.122585,-0.30771 1.07548,-2.69875 2.019601,-5.04086 0.413858,2.35894 1.900145,3.13098 1.900145,3.13098 0,0 -1.267716,-1.68191 -1.255878,-4.7192 0.957036,-2.26063 1.754727,-4.59078 2.467273,-6.95014 -1.44436,2.16575 -2.369962,4.27502 -3.276495,6.50168 -2.044216,1.98187 -4.050771,3.1227 -4.050771,3.1227 0,0 1.550792,-0.1877 3.431234,-1.59773 -0.96997,2.40498 -1.995619,4.97873 -2.101886,5.24538 -2.822039,2.47541 -6.171086,5.08724 -6.171086,5.08724 0,0 2.712604,-0.97322 5.507443,-3.41239 -1.786414,4.66183 -3.998494,11.75178 -3.998494,11.75178 z" />
    <path
       id="path995"
       style="color:#000000;font-style:normal;font-variant:normal;font-weight:normal;font-stretch:normal;font-size:medium;line-height:normal;font-family:sans-serif;font-variant-ligatures:normal;font-variant-position:normal;font-variant-caps:normal;font-variant-numeric:normal;font-variant-alternates:normal;font-variant-east-asian:normal;font-feature-settings:normal;font-variation-settings:normal;text-indent:0;text-align:start;text-decoration:none;text-decoration-line:none;text-decoration-style:solid;text-decoration-color:#000000;letter-spacing:normal;word-spacing:normal;text-transform:none;writing-mode:lr-tb;direction:ltr;text-orientation:mixed;dominant-baseline:auto;baseline-shift:baseline;text-anchor:start;white-space:normal;shape-padding:0;shape-margin:0;inline-size:0;clip-rule:nonzero;display:inline;overflow:visible;visibility:visible;isolation:auto;mix-blend-mode:normal;color-interpolation:sRGB;color-interpolation-filters:linearRGB;solid-color:#000000;solid-opacity:1;vector-effect:none;fill:#000000;fill-opacity:1;fill-rule:nonzero;stroke:none;stroke-width:1.05833;stroke-linecap:butt;stroke-linejoin:miter;stroke-miterlimit:10;stroke-dasharray:none;stroke-dashoffset:0;stroke-opacity:1;color-rendering:auto;image-rendering:auto;shape-rendering:auto;text-rendering:auto;enable-background:accumulate;stop-color:#000000"
       d="m 103.58488,54.296362 c 0,0 -2.90536,6.826724 -4.816756,11.40479 -0.38212,-3.796756 -2.406025,-6.975191 -2.406025,-6.975191 0,0 1.320659,4.836301 1.69386,8.689843 -0.122592,0.307704 -1.075485,2.698742 -2.019603,5.040848 -0.413864,-2.358936 -1.900143,-3.130976 -1.900143,-3.130976 0,0 1.26771,1.681916 1.255875,4.719205 -0.957034,2.26063 -1.754728,4.59078 -2.467272,6.950137 1.444357,-2.165743 2.369962,-4.275014 3.276495,-6.501678 2.044218,-1.981874 4.050769,-3.122701 4.050769,-3.122701 0,0 -1.550791,0.187697 -3.431233,1.597728 0.969967,-2.404982 1.995617,-4.97872 2.101882,-5.245383 2.822041,-2.475402 6.171081,-5.087236 6.171081,-5.087236 0,0 -2.71259,0.973229 -5.507435,3.412389 1.786415,-4.661827 3.998495,-11.751782 3.998495,-11.751782 z" />
    <path
       id="path1001"
       style="color:#000000;font-style:normal;font-variant:normal;font-weight:normal;font-stretch:normal;font-size:medium;line-height:normal;font-family:sans-serif;font-variant-ligatures:normal;font-variant-position:normal;font-variant-caps:normal;font-variant-numeric:normal;font-variant-alternates:normal;font-variant-east-asian:normal;font-feature-settings:normal;font-variation-settings:normal;text-indent:0;text-align:start;text-decoration:none;text-decoration-line:none;text-decoration-style:solid;text-decoration-color:#000000;letter-spacing:normal;word-spacing:normal;text-transform:none;writing-mode:lr-tb;direction:ltr;text-orientation:mixed;dominant-baseline:auto;baseline-shift:baseline;text-anchor:start;white-space:normal;shape-padding:0;shape-margin:0;inline-size:0;clip-rule:nonzero;display:inline;overflow:visible;visibility:visible;isolation:auto;mix-blend-mode:normal;color-interpolation:sRGB;color-interpolation-filters:linearRGB;solid-color:#000000;solid-opacity:1;vector-effect:none;fill:#000000;fill-opacity:1;fill-rule:nonzero;stroke:none;stroke-width:1.05833;stroke-linecap:butt;stroke-linejoin:miter;stroke-miterlimit:10;stroke-dasharray:none;stroke-dashoffset:0;stroke-opacity:1;color-rendering:auto;image-rendering:auto;shape-rendering:auto;text-rendering:auto;enable-background:accumulate;stop-color:#000000"
       d="m 36.120848,122.72473 c 0,0 6.881626,-2.77282 11.470368,-4.65844 -2.414509,2.95492 -3.230885,6.63352 -3.230885,6.63352 0,0 2.485932,-4.35362 4.946908,-7.34238 0.30426,-0.1309 2.668778,-1.14782 4.992492,-2.13635 -1.375378,1.96066 -0.870331,3.55755 -0.870331,3.55755 0,0 0.292885,-2.08571 2.448944,-4.22503 2.275233,-0.92178 4.486949,-2.00539 6.659114,-3.16986 -2.552729,0.5101 -4.698707,1.34708 -6.914212,2.28055 -2.846877,-0.0441 -5.072412,-0.65624 -5.072412,-0.65624 0,0 1.229297,0.96384 3.556015,1.29648 -2.386453,1.01471 -4.931603,2.10937 -5.195305,2.22278 -3.745857,-0.24511 -7.960836,-0.76639 -7.960836,-0.76639 0,0 2.606277,1.22992 6.307274,1.48142 -4.559595,2.03323 -11.137127,5.48241 -11.137127,5.48241 z" />
    <path
       id="path1007"
       style="color:#000000;font-style:normal;font-variant:normal;font-weight:normal;font-stretch:normal;font-size:medium;line-height:normal;font-family:sans-serif;font-variant-ligatures:normal;font-variant-position:normal;font-variant-caps:normal;font-variant-numeric:normal;font-variant-alternates:normal;font-variant-east-asian:normal;font-feature-settings:normal;font-variation-settings:normal;text-indent:0;text-align:start;text-decoration:none;text-decoration-line:none;text-decoration-style:solid;text-decoration-color:#000000;letter-spacing:normal;word-spacing:normal;text-transform:none;writing-mode:lr-tb;direction:ltr;text-orientation:mixed;dominant-baseline:auto;baseline-shift:baseline;text-anchor:start;white-space:normal;shape-padding:0;shape-margin:0;inline-size:0;clip-rule:nonzero;display:inline;overflow:visible;visibility:visible;isolation:auto;mix-blend-mode:normal;color-interpolation:sRGB;color-interpolation-filters:linearRGB;solid-color:#000000;solid-opacity:1;vector-effect:none;fill:#000000;fill-opacity:1;fill-rule:nonzero;stroke:none;stroke-width:1.05833;stroke-linecap:butt;stroke-linejoin:miter;stroke-miterlimit:10;stroke-dasharray:none;stroke-dashoffset:0;stroke-opacity:1;color-rendering:auto;image-rendering:auto;shape-rendering:auto;text-rendering:auto;enable-background:accumulate;stop-color:#000000"
       d="m 131.92884,82.24087 c 0,0 -6.88162,2.772821 -11.47036,4.65844 2.4145,-2.954915 3.23088,-6.633523 3.23088,-6.633523 0,0 -2.48593,4.353629 -4.94691,7.342385 -0.30426,0.130899 -2.66878,1.14782 -4.99249,2.136344 1.37537,-1.960661 0.87033,-3.557539 0.87033,-3.557539 0,0 -0.29288,2.085705 -2.44895,4.225022 -2.27523,0.92178 -4.48694,2.005392 -6.65911,3.16986 2.55273,-0.510093 4.6987,-1.347072 6.91421,-2.280545 2.84688,0.04408 5.07241,0.656243 5.07241,0.656243 0,0 -1.2293,-0.963853 -3.55601,-1.296484 2.38646,-1.014707 4.93161,-2.109371 5.1953,-2.222788 3.74587,0.245109 7.96084,0.766397 7.96084,0.766397 0,0 -2.60627,-1.229923 -6.30727,-1.481427 4.55959,-2.033223 11.13713,-5.482402 11.13713,-5.482402 z" />
    <path
       id="path1013"
       style="color:#000000;font-style:normal;font-variant:normal;font-weight:normal;font-stretch:normal;font-size:medium;line-height:normal;font-family:sans-serif;font-variant-ligatures:normal;font-variant-position:normal;font-variant-caps:normal;font-variant-numeric:normal;font-variant-alternates:normal;font-variant-east-asian:normal;font-feature-settings:normal;font-variation-settings:normal;text-indent:0;text-align:start;text-decoration:none;text-decoration-line:none;text-decoration-style:solid;text-decoration-color:#000000;letter-spacing:normal;word-spacing:normal;text-transform:none;writing-mode:lr-tb;direction:ltr;text-orientation:mixed;dominant-baseline:auto;baseline-shift:baseline;text-anchor:start;white-space:normal;shape-padding:0;shape-margin:0;inline-size:0;clip-rule:nonzero;display:inline;overflow:visible;visibility:visible;isolation:auto;mix-blend-mode:normal;color-interpolation:sRGB;color-interpolation-filters:linearRGB;solid-color:#000000;solid-opacity:1;vector-effect:none;fill:#000000;fill-opacity:1;fill-rule:nonzero;stroke:none;stroke-width:1.05833;stroke-linecap:butt;stroke-linejoin:miter;stroke-miterlimit:10;stroke-dasharray:none;stroke-dashoffset:0;stroke-opacity:1;color-rendering:auto;image-rendering:auto;shape-rendering:auto;text-rendering:auto;enable-background:accumulate;stop-color:#000000"
       d="m 35.838411,82.922759 c 0,0 6.826724,2.905363 11.40479,4.81676 -3.796757,0.382124 -6.97519,2.406028 -6.97519,2.406028 0,0 4.8363,-1.320661 8.689842,-1.693857 0.307705,0.122584 2.698742,1.075479 5.040848,2.019601 -2.358936,0.413857 -3.130976,1.900143 -3.130976,1.900143 0,0 1.681917,-1.267716 4.719206,-1.255877 2.26063,0.957036 4.590779,1.754731 6.950136,2.467274 -2.165743,-1.444361 -4.275013,-2.369963 -6.501677,-3.276496 -1.981875,-2.044216 -3.122703,-4.050771 -3.122703,-4.050771 0,0 0.187698,1.550792 1.59773,3.431235 -2.404983,-0.969971 -4.97872,-1.99562 -5.245384,-2.101887 -2.475403,-2.822039 -5.087237,-6.171086 -5.087237,-6.171086 0,0 0.973229,2.712603 3.412391,5.507444 -4.661828,-1.786416 -11.751783,-3.998494 -11.751783,-3.998494 z" />
    <path
       id="path1019"
       style="color:#000000;font-style:normal;font-variant:normal;font-weight:normal;font-stretch:normal;font-size:medium;line-height:normal;font-family:sans-serif;font-variant-ligatures:normal;font-variant-position:normal;font-variant-caps:normal;font-variant-numeric:normal;font-variant-alternates:normal;font-variant-east-asian:normal;font-feature-settings:normal;font-variation-settings:normal;text-indent:0;text-align:start;text-decoration:none;text-decoration-line:none;text-decoration-style:solid;text-decoration-color:#000000;letter-spacing:normal;word-spacing:normal;text-transform:none;writing-mode:lr-tb;direction:ltr;text-orientation:mixed;dominant-baseline:auto;baseline-shift:baseline;text-anchor:start;white-space:normal;shape-padding:0;shape-margin:0;inline-size:0;clip-rule:nonzero;display:inline;overflow:visible;visibility:visible;isolation:auto;mix-blend-mode:normal;color-interpolation:sRGB;color-interpolation-filters:linearRGB;solid-color:#000000;solid-opacity:1;vector-effect:none;fill:#000000;fill-opacity:1;fill-rule:nonzero;stroke:none;stroke-width:1.05833;stroke-linecap:butt;stroke-linejoin:miter;stroke-miterlimit:10;stroke-dasharray:none;stroke-dashoffset:0;stroke-opacity:1;color-rendering:auto;image-rendering:auto;shape-rendering:auto;text-rendering:auto;enable-background:accumulate;stop-color:#000000"
       d="m 132.21129,122.04284 c 0,0 -6.82672,-2.90537 -11.40479,-4.81676 3.79676,-0.38213 6.97519,-2.40604 6.97519,-2.40604 0,0 -4.83629,1.32066 -8.68983,1.69386 -0.30771,-0.12258 -2.69875,-1.07547 -5.04086,-2.0196 2.35894,-0.41385 3.13098,-1.90014 3.13098,-1.90014 0,0 -1.68191,1.26772 -4.7192,1.25587 -2.26064,-0.95703 -4.59078,-1.75472 -6.95014,-2.46727 2.16574,1.44437 4.27501,2.36996 6.50168,3.2765 1.98187,2.04421 3.1227,4.05077 3.1227,4.05077 0,0 -0.1877,-1.5508 -1.59773,-3.43124 2.40498,0.96998 4.97871,1.99563 5.24538,2.10189 2.47541,2.82204 5.08724,6.17109 5.08724,6.17109 0,0 -0.97323,-2.71261 -3.41239,-5.50745 4.66183,1.78642 11.75178,3.9985 11.75178,3.9985 z" />
  </g>
</svg>
