<?xml version="1.0" encoding="UTF-8" standalone="no"?>
<!-- Created with Inkscape (http://www.inkscape.org/) -->

<svg
   width="1000"
   height="500"
   viewBox="0 0 264.5833 132.29166"
   version="1.1"
   id="svg5"
   xml:space="preserve"
   xmlns="http://www.w3.org/2000/svg"
   xmlns:svg="http://www.w3.org/2000/svg"><defs
     id="defs2" /><g
     id="layer1"
     transform="translate(-74.833977,-28.947262)"><rect
       style="opacity:1;fill:#eaaa00;fill-opacity:1;stroke:none;stroke-width:0.611896;stroke-miterlimit:10;stop-color:#000000"
       id="rect22816"
       width="264.58331"
       height="132.29166"
       x="74.833977"
       y="28.947262" /><rect
       style="opacity:1;fill:#ffffff;fill-opacity:1;stroke:none;stroke-width:0.273648;stroke-miterlimit:10;stop-color:#000000"
       id="rect23548"
       width="264.58331"
       height="26.45833"
       x="74.833977"
       y="81.86393" /><g
       id="g24730"
       transform="matrix(0.5,0,0,0.5,174.05272,55.73632)"
       style="opacity:1"><path
         id="path844"
         style="fill:#0033a0;fill-opacity:1;fill-rule:evenodd;stroke:#000000;stroke-width:2.11666;stroke-linejoin:miter;stroke-miterlimit:5;stroke-dasharray:none;stroke-dashoffset:0"
         d="M 1.0583301,1.0583301 V 91.287562 c 0,35.943358 29.1406769,65.081188 65.0875059,65.081188 35.946814,0 65.087494,-29.13783 65.087494,-65.081188 V 1.0583301 Z" /><path
         style="fill:#000000;fill-opacity:1;stroke-width:0.219136"
         d="M 34.493773,70.504772 C 32.729001,69.020383 30.971376,66.84928 30.157257,65.148107 29.59974,63.98308 29.450621,63.0217 29.650105,61.878406 c 0.06129,-0.351211 0.133793,-0.696809 0.161114,-0.768 0.02731,-0.07124 -0.2313,0.116197 -0.574729,0.416428 -0.343408,0.300232 -0.839203,0.673496 -1.101769,0.829485 -1.026804,0.610019 -2.339414,0.895843 -3.469226,0.755452 -1.261983,-0.156819 -2.142451,-0.588716 -3.134874,-1.53771 -1.289676,-1.233275 -1.874205,-2.623861 -1.8746,-4.459692 0,-1.060647 0.119453,-1.78339 0.471918,-2.850011 0.320867,-0.970985 0.844332,-2.013612 1.498215,-2.984122 l 0.526228,-0.781042 0.0494,0.862044 c 0.02715,0.474124 0.09911,1.076435 0.159864,1.338465 0.227178,0.979601 0.756563,1.748581 1.431144,2.07886 0.654672,0.320543 1.780231,0.15796 2.633927,-0.380448 0.346301,-0.218415 1.444013,-1.22284 1.444013,-1.321316 0,-0.02692 -0.253773,-0.06364 -0.563918,-0.08165 -0.481763,-0.02792 -0.607005,-0.06284 -0.859507,-0.240157 -0.438195,-0.307646 -0.641231,-0.722053 -0.635968,-1.298021 0.0033,-0.362245 0.04364,-0.537371 0.179707,-0.780834 0.171396,-0.306675 0.172493,-0.317686 0.04767,-0.481092 -0.170937,-0.22377 -0.29243,-0.831624 -0.232352,-1.162525 0.138792,-0.764348 0.737838,-1.285028 1.47846,-1.285028 0.129299,0 0.235093,-0.03206 0.235093,-0.07124 0,-0.03918 -0.127742,-0.394381 -0.283857,-0.789341 -0.70964,-1.79521 -1.762996,-3.243171 -3.077009,-4.229713 -2.394735,-1.797901 -4.843669,-1.694931 -5.950284,0.250186 -0.120374,0.211591 -0.34696,0.770633 -0.503512,1.242317 -0.453587,1.366661 -0.87389,2.086992 -1.621638,2.779287 -1.697613,1.571676 -4.331232,1.334779 -6.9967313,-0.629363 l -0.5763788,-0.4247 0.6114559,-0.08777 C 10.557379,45.581113 11.236981,44.956306 11.24038,43.839483 11.24258,43.177462 11.020701,42.482812 10.461058,41.397674 9.9413639,40.389981 9.687108,39.671538 9.4747092,38.610392 9.2689971,37.582709 9.2502064,35.382116 9.4385782,34.381308 c 0.4120365,-2.188881 1.1670428,-3.774812 2.3558798,-4.948514 1.880192,-1.856267 4.473884,-2.267879 7.656622,-1.215079 2.062727,0.682311 3.9238,1.859762 5.735888,3.628948 0.472729,0.461534 0.859506,0.814745 0.859506,0.784916 0,-0.02983 -0.07807,-0.311388 -0.173501,-0.625691 -0.999593,-3.292222 -0.989529,-6.333018 0.02813,-8.505785 0.747617,-1.596215 2.481408,-3.611029 4.706015,-5.468785 2.066762,-1.725932 3.457584,-3.030835 4.246378,-3.984046 l 0.279186,-0.337393 1.29803,1.242011 c 0.713916,0.683105 2.213667,2.069273 3.332779,3.080376 1.119112,1.011102 2.177751,1.993264 2.352526,2.182583 0.732093,0.793025 1.844079,2.324897 2.198822,3.029101 0.531885,1.055851 0.80662,2.222527 0.863103,3.664928 0.0624,1.59432 -0.123138,2.979192 -0.645814,4.820554 -0.133684,0.47097 -0.243073,0.879809 -0.243073,0.908532 0,0.02873 0.386776,-0.327451 0.859506,-0.791501 1.336861,-1.312317 2.456214,-2.135118 3.876548,-2.849522 3.226612,-1.622931 6.320571,-1.778041 8.451116,-0.423679 2.325206,1.478112 3.732274,4.790216 3.55533,8.369019 -0.08667,1.753616 -0.376779,2.863117 -1.164916,4.455393 -0.632548,1.277935 -0.785286,1.744604 -0.789451,2.412234 -0.0035,0.557873 0.161091,0.984918 0.510418,1.324354 0.3424,0.332732 0.751257,0.505208 1.518389,0.640564 l 0.679646,0.119923 -0.556663,0.407006 c -1.467321,1.072815 -2.675958,1.558453 -4.064872,1.633287 -1.317894,0.07101 -2.128747,-0.239148 -3.052123,-1.167429 -0.709576,-0.713369 -1.022068,-1.265824 -1.50942,-2.668637 -0.494568,-1.423576 -0.909783,-1.98599 -1.794045,-2.430141 -2.168871,-1.08935 -5.602401,0.900272 -7.270743,4.21315 -0.257347,0.511029 -0.72216,1.66487 -0.72216,1.792691 0,0.04004 0.149975,0.0735 0.333278,0.07435 0.579224,0.0027 1.226594,0.428927 1.416519,0.932696 0.138025,0.366116 0.09171,1.047153 -0.09509,1.398504 l -0.169556,0.318894 0.174598,0.34057 c 0.147674,0.288048 0.170982,0.417423 0.151182,0.838929 -0.01929,0.411005 -0.0585,0.548954 -0.223472,0.78701 -0.281971,0.406883 -0.781295,0.644128 -1.355652,0.644128 -0.244564,0 -0.442295,0.03102 -0.442295,0.06934 0,0.14059 1.045769,1.096698 1.480588,1.353645 0.607574,0.359035 1.112139,0.503588 1.746946,0.500516 0.628843,-0.003 1.087144,-0.203376 1.492976,-0.652573 0.558328,-0.618004 0.810851,-1.37979 0.921315,-2.779433 l 0.07753,-0.982291 0.51316,0.765457 c 1.299367,1.938151 1.977632,3.940137 1.975198,5.829928 -0.0022,1.318815 -0.314444,2.395351 -0.988718,3.403428 -1.477846,2.209384 -3.8842,3.116383 -6.29551,2.372888 -0.86604,-0.267033 -1.603132,-0.713658 -2.427096,-1.470612 -0.395153,-0.363037 -0.477201,-0.413846 -0.437954,-0.271295 0.276709,1.005155 0.304204,2.005338 0.07973,2.90013 -0.239829,0.956017 -1.35791,2.887132 -2.383463,4.116706 -0.822759,0.986434 -2.049242,2.050423 -3.059163,2.653858 l -0.253028,0.151177 z"
         id="path1657" /><path
         id="path1629"
         style="fill:#000000;fill-opacity:1;stroke-width:0.219136"
         d="m 95.613761,13.659743 -2.166483,2.117672 -2.166943,2.117244 0.377726,0.279644 c 0.510093,0.378059 0.772083,0.89594 0.81837,1.617053 0.01841,0.287097 0.01381,0.522031 -0.01031,0.522031 -0.02411,0 -0.239037,-0.156879 -0.477484,-0.34902 -1.328282,-1.070349 -3.037323,-1.483866 -4.703429,-1.137847 -1.210234,0.25135 -2.284841,0.796699 -3.122771,1.584935 -1.172853,1.103315 -1.701537,2.542967 -1.613196,4.392509 0.05763,1.205645 0.303304,1.903647 1.035924,2.942043 0.69631,0.986961 1.903152,2.075518 3.631114,3.275648 0.998953,0.693809 1.946447,1.469223 2.397736,1.961789 0.275368,0.300575 0.29764,0.346582 0.17558,0.366579 -0.972778,0.159294 -1.507845,0.800614 -1.507845,1.806765 0,0.229271 -0.01271,0.241959 -0.241969,0.241959 -0.50667,0 -0.95978,0.149036 -1.250477,0.411115 -0.29537,0.266287 -0.538239,0.703683 -0.54087,0.974685 0,0.08683 -0.02882,0.157594 -0.06254,0.157594 -0.144163,0 -1.495668,-1.512855 -2.039751,-2.283401 -1.754466,-2.484686 -2.845162,-3.635638 -4.132141,-4.360821 -1.304058,-0.734796 -3.12094,-0.861549 -4.707701,-0.328892 -1.678883,0.563582 -2.981692,2.078677 -3.522743,4.096593 -0.208036,0.775867 -0.226967,2.115923 -0.03982,2.806717 0.227263,0.838853 0.902891,2.06001 1.374239,2.483821 0.254365,0.228734 0.180439,0.272052 -0.405977,0.238105 -0.702733,-0.04068 -1.270039,-0.302366 -1.595643,-0.736153 -0.121492,-0.161846 -0.23783,-0.33545 -0.25866,-0.38585 -0.02339,-0.05658 -0.856204,0.740361 -2.176774,2.083413 l -2.138658,2.175057 0.852637,0.877046 c 0.468869,0.482375 1.429341,1.464638 2.134378,2.182765 l 1.281738,1.305719 0.204273,-0.331461 c 0.252655,-0.410618 0.528579,-0.611727 1.071471,-0.780692 0.379433,-0.118092 1.179817,-0.183162 1.179817,-0.09593 0,0.01925 -0.171294,0.24711 -0.38071,0.506615 -1.358678,1.683717 -1.655186,3.740912 -0.835936,5.797576 0.724857,1.819721 1.893456,2.941773 3.570281,3.427251 0.485139,0.14046 0.71432,0.161442 1.751095,0.161442 1.153782,0 1.212456,-0.007 1.793919,-0.214973 1.507135,-0.539709 2.904117,-1.821382 4.59978,-4.219928 0.868038,-1.227839 1.360891,-1.833352 1.957523,-2.404169 l 0.474922,-0.453938 0.08055,0.31733 c 0.197113,0.776276 0.693758,1.182532 1.5177,1.241483 l 0.486059,0.03511 v 0.295063 c 0,0.923397 0.508432,1.564338 1.357099,1.710409 l 0.291647,0.05013 -0.385861,0.409405 c -0.523881,0.555668 -1.267437,1.165436 -2.315509,1.899687 -1.239531,0.868387 -2.036858,1.529225 -2.808441,2.327091 -1.476417,1.526764 -1.959494,2.709941 -1.871854,4.585645 0.09215,1.971818 0.932145,3.439348 2.532203,4.424201 1.742099,1.072284 3.92251,1.276391 5.618584,0.526312 0.476613,-0.210781 1.266656,-0.724805 1.506134,-0.980251 0.09355,-0.09976 0.200315,-0.181584 0.237266,-0.181584 0.03962,0 0.05333,0.208149 0.03342,0.508761 -0.05453,0.824212 -0.369932,1.38027 -1.024788,1.806764 -0.159902,0.104139 -0.147344,0.118968 1.193515,1.440194 0.745267,0.73434 1.717125,1.687656 2.159659,2.118092 l 0.803811,0.782408 0.353303,-0.326327 c 0.194201,-0.179472 1.180637,-1.132918 2.192178,-2.118952 l 1.838902,-1.793067 -0.315628,-0.199554 c -0.415329,-0.26275 -0.64489,-0.575359 -0.808084,-1.099739 -0.136278,-0.437881 -0.181704,-1.11858 -0.07454,-1.11858 0.03262,0 0.119389,0.06634 0.192711,0.147324 0.190869,0.210901 1.193921,0.860893 1.607211,1.041486 2.06793,0.903637 4.92148,0.316811 6.59498,-1.356676 0.59823,-0.598243 0.954,-1.180896 1.24578,-2.038877 0.19218,-0.565073 0.21981,-0.748028 0.24837,-1.663302 0.0376,-1.2052 -0.0618,-1.783551 -0.44237,-2.577605 -0.65998,-1.377158 -1.77405,-2.507685 -4.10345,-4.163833 -1.21764,-0.865725 -2.11013,-1.597694 -2.53606,-2.08041 -0.27625,-0.31306 -0.28,-0.323956 -0.11992,-0.344738 0.89165,-0.115704 1.38183,-0.648919 1.44833,-1.575086 l 0.0338,-0.47364 h 0.3105 c 0.47398,0 0.88931,-0.130116 1.17981,-0.369574 0.28659,-0.236239 0.52175,-0.675877 0.52417,-0.980682 0,-0.106123 0.0279,-0.193138 0.0603,-0.193138 0.095,0 1.02774,0.944909 1.43934,1.457747 0.20813,0.259515 0.65189,0.862166 0.98624,1.339548 1.86839,2.667777 3.48867,4.046536 5.17322,4.40236 0.66173,0.13978 2.28407,0.100137 2.90222,-0.07104 1.52264,-0.421741 2.68438,-1.405444 3.40583,-2.8838 0.54694,-1.120719 0.66425,-1.629471 0.66206,-2.876522 -0.002,-0.996614 -0.0131,-1.085035 -0.21926,-1.665017 -0.25811,-0.726549 -0.66713,-1.438561 -1.10828,-1.929242 -0.17589,-0.195625 -0.3199,-0.379331 -0.3199,-0.408118 0,-0.108778 1.1081,0.02517 1.44618,0.174723 0.40879,0.180836 0.61409,0.36045 0.86291,0.755854 l 0.18628,0.295917 2.12026,-2.18619 2.12066,-2.186193 -0.6839,-0.705748 c -0.37599,-0.388252 -1.32914,-1.366371 -2.11812,-2.173344 l -1.4346,-1.467165 -0.10963,0.168728 c -0.44258,0.680199 -0.98265,0.979726 -1.86287,1.032927 -0.47211,0.02854 -0.54875,0.01846 -0.48435,-0.06381 0.042,-0.05373 0.22086,-0.27705 0.39697,-0.496335 0.78603,-0.978705 1.17531,-1.999543 1.22778,-3.219118 0.0403,-0.937668 -0.0725,-1.631045 -0.40896,-2.512086 -0.55169,-1.444707 -1.47437,-2.503979 -2.69666,-3.096213 -0.91639,-0.444013 -1.30893,-0.522416 -2.63115,-0.52417 -1.11913,-0.0015 -1.17812,0.0057 -1.76779,0.216262 -1.42297,0.507996 -2.77843,1.686543 -4.24564,3.691902 -0.3395,0.464056 -0.85111,1.162281 -1.13697,1.551532 -0.50063,0.681635 -1.54252,1.799484 -1.67703,1.799484 -0.0358,0 -0.0825,-0.131302 -0.10406,-0.292062 -0.09,-0.670787 -0.71455,-1.166315 -1.55497,-1.233776 l -0.45906,-0.03683 v -0.323754 c 0,-0.906734 -0.43149,-1.46349 -1.27875,-1.654311 l -0.34688,-0.07794 0.73659,-0.709602 c 0.44411,-0.427752 1.21462,-1.048813 1.93952,-1.563522 2.66403,-1.891589 3.9052,-3.221837 4.44905,-4.76808 0.18943,-0.538646 0.21406,-0.707117 0.23852,-1.618766 0.0382,-1.422676 -0.15622,-2.252843 -0.76656,-3.274361 -0.87334,-1.461705 -2.86327,-2.560679 -4.83233,-2.668395 -1.48359,-0.08116 -2.78719,0.372602 -4.015644,1.397792 l -0.333191,0.278359 v -0.342596 c 0,-0.462515 0.178482,-1.121218 0.391424,-1.444471 0.09605,-0.145883 0.328519,-0.359707 0.516477,-0.475352 L 99.98565,17.924271 98.53646,16.50421 c -0.797057,-0.7809 -1.780572,-1.74003 -2.185774,-2.131804 z m -6.787684,9.458648 c 0.439422,-0.01492 0.933615,0.04676 1.330133,0.179863 1.230686,0.413131 1.70914,0.941166 2.133944,2.353635 0.147735,0.491174 0.157971,0.672249 0.183275,3.221688 0.01471,1.485715 0.01731,2.892996 0.005,3.127473 l -0.02231,0.426534 -0.27965,-0.391417 c -0.153968,-0.215181 -1.295293,-1.401397 -2.536065,-2.636277 -2.103687,-2.093688 -2.273315,-2.280895 -2.510381,-2.771602 -0.321144,-0.664684 -0.433408,-1.264187 -0.328888,-1.751522 0.171618,-0.800203 0.675257,-1.425776 1.32585,-1.647459 0.19144,-0.06523 0.43524,-0.101963 0.698901,-0.110916 z m 13.383103,0.0073 c 0.0821,3.94e-4 0.16694,0.0033 0.2548,0.0081 0.89146,0.04889 1.4071,0.375164 1.79392,1.13485 0.3837,0.753529 0.2732,1.697461 -0.3139,2.675247 -0.24693,0.411259 -1.45835,1.667742 -3.2474,3.368575 -0.44604,0.424065 -0.998495,0.992281 -1.227777,1.262466 -0.229261,0.270184 -0.4884,0.58575 -0.57556,0.701465 l -0.158441,0.210698 0.02401,-3.087219 c 0.02221,-2.878697 0.03382,-3.123439 0.171278,-3.620812 0.344598,-1.246683 0.809544,-1.885349 1.65562,-2.273553 0.59551,-0.273242 1.04861,-0.382688 1.62347,-0.379853 z M 78.110929,33.879785 c 0.206388,-0.0032 0.416068,0.02061 0.623097,0.07366 1.012381,0.259357 1.699365,0.816999 3.985697,3.234534 1.094118,1.156902 1.495978,1.536682 2.4046,2.273552 l 0.17556,0.142178 -2.912061,-0.0056 c -1.601478,-0.0032 -2.974916,-0.01892 -3.052101,-0.03469 -1.695923,-0.346426 -2.404269,-0.746977 -2.85897,-1.617052 -0.34836,-0.666575 -0.473642,-1.145782 -0.473642,-1.811049 0,-0.708218 0.134147,-1.121293 0.498906,-1.535688 0.40036,-0.454837 0.989808,-0.710123 1.608914,-0.719879 z m 35.043781,0.01627 c 0.5933,0.0015 1.1393,0.223824 1.52498,0.620955 0.72758,0.749161 0.78979,2.039816 0.15973,3.314617 -0.39973,0.808845 -1.02035,1.254859 -2.21059,1.588361 -0.49091,0.137558 -0.73329,0.149181 -3.59598,0.172155 -1.68832,0.01355 -3.06967,0.01281 -3.06967,-0.0018 0,-0.01452 0.24437,-0.219485 0.54344,-0.455224 0.29907,-0.235737 1.3965,-1.304583 2.43844,-2.375474 2.44378,-2.511696 2.96571,-2.866833 4.20965,-2.863676 z m -20.66328,2.764751 v 1.474018 1.473593 h -1.468463 -1.468873 l 0.232524,-0.345596 c 0.295459,-0.43904 0.416529,-0.942057 0.373004,-1.550246 l -0.03382,-0.477492 0.502329,0.03811 c 0.608128,0.046 1.142025,-0.08987 1.56952,-0.399552 z m 6.245543,0.01114 0.388833,0.23425 c 0.499437,0.300735 0.987114,0.416292 1.537844,0.364864 l 0.43381,-0.04068 -0.002,0.645366 c -0.002,0.675769 0.10741,1.044745 0.44966,1.525408 v 0 l 0.14732,0.207272 h -1.47789 -1.478287 V 38.1404 Z m -9.199588,9.181144 h 1.477007 1.477038 v 1.473592 c 0,0.81039 -0.008,1.470235 -0.01751,1.466311 -0.01001,-0.0039 -0.187508,-0.113345 -0.395267,-0.242817 -0.459354,-0.28627 -1.006538,-0.409644 -1.539984,-0.347733 l -0.397408,0.04582 v -0.65393 c 0,-0.70655 -0.109082,-1.089759 -0.430387,-1.51299 z m 9.198708,0 H 100.21827 101.7 l -0.11606,0.158023 c -0.3592,0.488311 -0.56331,1.231546 -0.49677,1.808907 l 0.045,0.388418 -0.65437,-0.0018 c -0.571026,-0.0013 -0.703332,0.02273 -1.040205,0.188426 v -4.39e-4 c -0.212242,0.104395 -0.456632,0.242298 -0.543462,0.306194 l -0.15802,0.116056 V 47.33472 Z m 11.134817,0.01327 c 2.30425,0.0035 2.8003,0.102661 3.71719,0.550296 0.69796,0.340763 1.05079,0.713826 1.3464,1.423915 0.6461,1.552022 0.35568,2.883966 -0.75843,3.477776 -0.8239,0.439144 -1.73087,0.34929 -2.77118,-0.274076 -0.28552,-0.17109 -1.00233,-0.853 -2.38147,-2.265844 -1.08515,-1.111693 -2.22033,-2.2166 -2.52278,-2.455557 l -0.54989,-0.434658 2.8153,-0.01842 c 0.40947,-0.0027 0.7757,-0.0039 1.10486,-0.0034 z m -25.86603,4.4e-4 c 1.272901,-0.0015 1.315745,0.02276 1.191384,0.11006 -0.519078,0.364388 -1.112268,0.9046 -1.896268,1.726684 -2.671223,2.801063 -3.299904,3.360892 -4.152263,3.697895 -0.94156,0.37227 -1.967819,0.185096 -2.593037,-0.473211 -0.397108,-0.418107 -0.503149,-0.686659 -0.537029,-1.359677 -0.03712,-0.736993 0.05993,-1.231737 0.369152,-1.876999 0.405903,-0.846965 1.037416,-1.308348 2.24744,-1.641463 0.532806,-0.146682 0.718192,-0.155362 3.648653,-0.174723 0.737043,-0.0049 1.297675,-0.0081 1.721968,-0.0086 z m 8.48697,7.178238 -0.02101,3.122336 c -0.02041,3.00436 -0.02752,3.141868 -0.179423,3.642655 -0.3661,1.207201 -0.798088,1.787043 -1.611925,2.163058 -0.283393,0.130935 -0.725646,0.282471 -0.982814,0.337033 0,0 0,0 0,0 -1.280034,0.271155 -2.301701,-0.172219 -2.756191,-1.196515 -0.212772,-0.479414 -0.214133,-1.243812 -0.003,-1.824324 0.27866,-0.767789 0.717592,-1.29218 2.678237,-3.200281 1.030571,-1.002954 2.034267,-2.019366 2.230309,-2.258563 0.196023,-0.239187 0.421612,-0.513774 0.501468,-0.610249 z m 6.245543,0 0.227391,0.276218 c 0.71552,0.870118 1.306236,1.487041 2.387046,2.493246 2.04534,1.90418 2.69273,2.678553 3.00073,3.588264 0.18726,0.553096 0.16415,1.261722 -0.0574,1.761368 -0.19521,0.440282 -0.70295,0.924449 -1.12073,1.068471 -0.69984,0.241278 -1.46009,0.197283 -2.33052,-0.135327 -1.046819,-0.400009 -1.523052,-0.997781 -1.913386,-2.402025 -0.143112,-0.514904 -0.152647,-0.719702 -0.172159,-3.598109 z" /><path
         style="fill:#b7b8b9;fill-opacity:1;stroke-width:0.219136"
         d="m 40.04296,47.063419 c 0.845714,-2.991888 2.189066,-5.782687 3.689715,-7.66538 1.367996,-1.71628 2.924799,-2.873341 4.704438,-3.496497 2.49123,-0.872333 4.367453,-0.602587 5.809056,0.835183 0.544492,0.543038 0.934011,1.173605 1.145511,1.854432 0.162034,0.521546 0.175277,0.835831 0.122633,2.911792 -0.028,1.103795 0.0501,1.568693 0.378884,2.255713 l 0.167429,0.349825 -0.172428,-0.161979 c -0.256383,-0.240865 -0.711943,-1.217322 -0.829051,-1.777004 -0.05983,-0.286018 -0.103776,-0.886751 -0.105201,-1.438355 -0.0022,-0.553916 -0.04526,-1.151141 -0.105553,-1.438355 -0.314421,-1.497627 -1.445878,-2.667273 -2.915195,-3.013589 -0.609197,-0.14359 -1.069888,-0.13564 -1.896088,0.03273 -2.5956,0.52895 -4.761642,2.138228 -6.514728,4.840199 -0.555172,0.855625 -1.557286,2.859491 -2.027208,4.053606 -0.336369,0.854754 -0.854485,2.363858 -0.854594,2.489156 -2.2e-5,0.02895 0.264956,0.05262 0.588849,0.05262 h 0.588872 l 0.188411,-0.57885 c 0.272192,-0.836222 0.942103,-2.195437 1.452105,-2.946229 0.601128,-0.884953 1.813866,-2.093796 2.643443,-2.634983 1.100014,-0.717619 2.042752,-1.048963 3.16842,-1.113608 1.226287,-0.07042 2.142692,0.275548 2.984087,1.126579 0.574335,0.580898 0.836747,1.046646 1.190263,2.11268 0.494304,1.490586 1.040441,2.351935 1.804173,2.845567 0.528596,0.34164 0.781669,0.420598 1.493918,0.466073 0.42265,0.02699 0.71111,1.4e-4 1.167657,-0.108723 0.596744,-0.142272 1.603812,-0.543817 1.603812,-0.639481 0,-0.0269 -0.08227,-0.09294 -0.182841,-0.146767 -0.323478,-0.173126 -0.85271,-0.820348 -1.015293,-1.241661 -0.202093,-0.523698 -0.217507,-1.391616 -0.03738,-2.105839 0.07073,-0.280415 0.37623,-1.014375 0.678921,-1.631022 0.30267,-0.616644 0.629128,-1.370684 0.725472,-1.675642 0.849902,-2.69042 0.429994,-6.266554 -0.986854,-8.404759 -1.577478,-2.380558 -4.16639,-3.063731 -7.496428,-1.978185 -3.563246,1.16157 -6.639028,3.974883 -9.155364,8.374111 -1.573313,2.750588 -2.991125,6.475011 -3.543687,9.308843 -0.09681,0.496459 -0.176001,0.91823 -0.176001,0.937272 0,0.01905 0.343012,0.03462 0.762219,0.03462 h 0.762242 z"
         id="path1675" /><path
         style="fill:#b7b8b9;fill-opacity:1;stroke-width:0.219136"
         d="m 34.790544,40.959108 c 0.005,-3.937451 0.04201,-7.45125 0.08803,-8.366945 0.09856,-1.960324 0.220029,-3.455469 0.28673,-3.528771 0.06051,-0.06652 0.185495,1.393976 0.292933,3.423526 0.04524,0.854563 0.08168,4.368848 0.08672,8.366934 l 0.0088,6.893497 0.926491,7e-5 0.926491,7e-5 0.03675,-0.228032 c 0.346039,-2.14682 0.828305,-3.864299 1.728879,-6.156862 0.522962,-1.331268 1.417243,-3.202006 2.083776,-4.35899 2.141574,-3.717462 3.310875,-7.943003 2.968191,-10.726172 -0.18597,-1.509988 -0.582439,-2.501027 -1.556992,-3.891748 -0.747902,-1.067271 -1.528518,-1.88098 -3.500185,-3.648533 -0.868277,-0.778395 -2.121556,-1.926373 -2.785063,-2.551065 l -1.2064,-1.135801 -0.195407,0.25621 c -0.273244,0.358244 -1.858222,1.806335 -3.355736,3.06591 -1.461401,1.22922 -2.376886,2.096066 -3.050348,2.888325 -1.604339,1.887339 -2.169201,2.97383 -2.425759,4.665884 -0.449815,2.966485 0.670678,7.166896 2.985293,11.191105 1.69906,2.953984 3.294671,7.252489 3.64628,9.822913 0.04752,0.34731 0.09804,0.67094 0.112283,0.719178 0.01907,0.06447 0.272785,0.08768 0.957758,0.08763 l 0.931863,-7e-5 0.0088,-6.788263 z"
         id="path1673" /><path
         style="fill:#b7b8b9;fill-opacity:1;stroke-width:0.219136"
         d="m 29.694988,47.691606 c 0,-0.190032 -0.833655,-2.471178 -1.250889,-3.422795 -1.611881,-3.676427 -3.528338,-5.988648 -5.991942,-7.229297 -0.949009,-0.477918 -2.391466,-0.869004 -3.205147,-0.869004 -1.604799,0 -3.06574,1.040444 -3.643802,2.594997 -0.146489,0.393907 -0.177382,0.636625 -0.223384,1.75515 -0.03153,0.766488 -0.100399,1.497295 -0.168151,1.784639 -0.133663,0.566772 -0.448457,1.233871 -0.747091,1.583218 l -0.209943,0.245572 0.136161,-0.245572 c 0.423943,-0.764613 0.55528,-1.736235 0.431638,-3.193189 -0.0806,-0.949877 -0.07759,-1.123519 0.02846,-1.646922 0.434862,-2.146114 2.26219,-3.644782 4.448843,-3.648656 1.033556,-0.0018 2.5865,0.407592 3.734642,0.984622 1.164961,0.585478 2.644144,1.830428 3.539018,2.978588 1.585898,2.034801 2.93962,4.883821 3.792286,7.981117 l 0.111055,0.403441 h 0.768162 c 0.760159,0 0.767812,-0.0018 0.733343,-0.157868 -0.01907,-0.08683 -0.06898,-0.363097 -0.110727,-0.613932 -0.406752,-2.44343 -1.927442,-6.534824 -3.429342,-9.226522 -2.731849,-4.895997 -6.067302,-7.832859 -10.100864,-8.893807 -0.743253,-0.195497 -0.918597,-0.215135 -1.973444,-0.221015 -1.344601,-0.0075 -1.733681,0.07048 -2.656422,0.532348 -1.372316,0.686893 -2.514911,2.21115 -3.055259,4.075842 -0.32613,1.125398 -0.41719,1.815903 -0.41844,3.173522 -0.0022,1.907505 0.222857,2.904201 1.004,4.455393 0.571988,1.135842 0.803441,1.757036 0.9093,2.440442 0.173919,1.122859 -0.270656,2.251141 -1.085455,2.754702 -0.132346,0.08181 -0.240661,0.17351 -0.240661,0.203786 0,0.09808 0.979486,0.496254 1.567568,0.637248 2.183146,0.52341 3.597274,-0.466051 4.465353,-3.124386 0.318017,-0.973918 0.663026,-1.603746 1.176997,-2.148755 1.287002,-1.364675 3.281867,-1.552775 5.390683,-0.508297 2.135435,1.057669 3.937306,3.265696 4.87373,5.972286 l 0.224546,0.649013 h 0.587577 c 0.323192,0 0.5876,-0.02516 0.5876,-0.05591 z"
         id="path1671" /><path
         style="fill:#b7b8b9;fill-opacity:1;stroke-width:0.219136"
         d="m 43.496377,49.83866 c 0.189266,-0.183456 0.231365,-0.277778 0.231365,-0.518455 0,-0.185116 -0.04973,-0.355616 -0.134122,-0.459839 l -0.134122,-0.165641 -8.169717,-0.0184 -8.169738,-0.0184 -0.185956,0.14628 c -0.265087,0.208502 -0.265262,0.714968 0,1.034695 l 0.185583,0.224017 h 8.072846 8.072868 L 43.49675,49.83866 Z"
         id="path1669" /><path
         style="fill:#b7b8b9;fill-opacity:1;stroke-width:0.219136"
         d="m 43.555534,51.925442 c 0.257522,-0.25753 0.236583,-0.631744 -0.05205,-0.929518 l -0.224239,-0.231372 h -8.093526 -8.093523 l -0.169817,0.192951 c -0.249893,0.283908 -0.244455,0.794112 0.01053,0.994739 0.184619,0.145216 0.196174,0.145416 8.317586,0.145416 h 8.132727 z"
         id="path1667" /><path
         style="fill:#b7b8b9;fill-opacity:1;stroke-width:0.219136"
         d="m 26.365015,62.093279 c 1.92718,-0.497485 3.652551,-2.326732 4.45051,-4.718501 0.17462,-0.523379 0.689578,-2.810398 0.899916,-3.996627 l 0.06532,-0.368361 h -0.61229 -0.612266 l -0.08766,0.543772 c -0.404253,2.507795 -2.27004,5.099378 -4.125608,5.730489 -0.952934,0.324125 -1.703336,0.291447 -2.488973,-0.108392 -0.444575,-0.22626 -1.105255,-0.937757 -1.360848,-1.465499 -0.353735,-0.730418 -0.366343,-0.857951 -0.04502,-0.45547 0.998759,1.251016 2.071827,1.754434 3.142306,1.474143 0.746608,-0.195492 1.153887,-0.441012 1.79525,-1.082269 1.052237,-1.052092 1.919439,-2.562657 2.27927,-3.970222 0.0592,-0.231533 0.123883,-0.476233 0.143726,-0.543761 0.03127,-0.106301 -0.01513,-0.122791 -0.344855,-0.122791 h -0.380989 l -0.361716,0.486449 c -1.804875,2.427169 -4.598754,3.102665 -6.174039,1.492754 -0.351324,-0.359035 -0.733738,-0.99651 -0.955807,-1.593302 -0.04378,-0.117617 -0.08038,-0.07784 -0.226234,0.245571 -0.280414,0.621866 -0.577119,1.592501 -0.695783,2.276222 -0.13318,0.767179 -0.09747,2.045301 0.07448,2.665196 0.453346,1.634555 1.801235,3.027412 3.373254,3.485804 0.544976,0.158901 1.680028,0.171419 2.248048,0.02481 z"
         id="path1665" /><path
         style="fill:#b7b8b9;fill-opacity:1;stroke-width:0.219136"
         d="m 46.28872,62.083273 c 1.553886,-0.385691 2.996278,-1.881747 3.437739,-3.565631 0.348604,-1.329681 0.109763,-3.218882 -0.607639,-4.80622 l -0.206107,-0.456061 -0.161376,0.396957 c -0.235685,0.579812 -0.51338,1.025367 -0.847009,1.358988 -1.429017,1.429008 -3.76922,1.059026 -5.618145,-0.888219 -0.233295,-0.24571 -0.530701,-0.596721 -0.660899,-0.780016 -0.232526,-0.327357 -0.243468,-0.333281 -0.616322,-0.333281 h -0.379564 l 0.04874,0.228031 c 0.349196,1.633515 1.615125,3.859949 2.680607,4.714448 0.831966,0.667232 1.733417,0.957278 2.516159,0.809583 0.733168,-0.138329 1.648981,-0.793874 2.180867,-1.561053 0.276949,-0.399449 0.279909,-0.258158 0.0066,0.31436 -0.504413,1.056704 -1.23473,1.699002 -2.176481,1.914205 -1.135426,0.259449 -2.340466,-0.168486 -3.444428,-1.22321 -1.221375,-1.166898 -2.293455,-3.252521 -2.477701,-4.820108 l -0.04423,-0.376256 h -0.620049 -0.620073 l 0.04146,0.228031 c 0.161837,0.889889 0.682079,3.326674 0.799823,3.746294 0.378489,1.348882 1.036713,2.514659 1.981139,3.508908 0.586701,0.617633 0.968721,0.907999 1.629619,1.238599 1.014788,0.50764 2.059811,0.624047 3.157217,0.351651 z"
         id="path1663" /><path
         id="path1659"
         style="fill:#b7b8b9;fill-opacity:1;stroke-width:0.219136"
         d="m 37.019908,53.018886 c -0.392942,0 -0.952447,0.003 -1.530978,0.006 0.04715,1.089093 0.02969,4.810043 -0.03983,6.650216 -0.07988,2.11469 -0.276357,4.958247 -0.3563,5.156931 -0.04907,0.1219 -0.05695,0.114575 -0.06081,-0.05483 -0.0024,-0.107252 -0.05134,-0.833317 -0.108346,-1.613634 -0.05701,-0.780316 -0.135686,-2.160346 -0.175154,-3.066665 -0.0648,-1.487791 -0.08934,-5.619146 -0.05567,-7.066894 l -1.994342,0.01451 -0.373001,1.824324 c -0.205053,1.003344 -0.675552,2.955672 -1.045776,4.338553 -0.370201,1.382871 -0.707989,2.737046 -0.750287,3.009702 -0.21468,1.383662 0.235281,2.539864 1.823044,4.684571 0.704553,0.951695 2.689355,2.988761 2.830275,2.904793 0.04966,-0.02962 0.255744,-0.175301 0.457793,-0.323325 1.418449,-1.039235 2.852193,-2.782883 3.73516,-4.5424 0.544471,-1.084991 0.70364,-1.841404 0.566141,-2.692371 -0.04253,-0.26322 -0.394156,-1.668294 -0.781548,-3.122336 -0.387391,-1.454043 -0.85996,-3.417076 -1.05006,-4.362537 -0.190078,-0.945451 -0.345846,-1.727258 -0.346021,-1.737384 -1.1e-4,-0.005 -0.285181,-0.008 -0.744291,-0.008 z" /><path
         style="fill:#b7b8b9;fill-opacity:1;stroke-width:0.219136"
         d="m 97.771389,68.587405 c 0.492022,-0.481966 0.894583,-0.900705 0.894583,-0.930543 0,-0.02982 -0.09505,-0.185466 -0.211231,-0.345857 -0.430547,-0.594331 -0.490711,-0.976689 -0.48777,-3.099954 l 0.003,-1.90457 0.420061,0.816537 c 0.318213,0.618564 0.529994,0.929222 0.873561,1.281343 0.590859,0.605577 1.342147,1.090184 2.075927,1.339036 0.50946,0.172769 0.69896,0.200325 1.39635,0.202987 0.96757,0.004 1.5868,-0.147645 2.58894,-0.632692 0.55178,-0.267073 0.75855,-0.41829 1.2668,-0.926471 0.88301,-0.882905 1.23026,-1.673928 1.31378,-2.992872 0.10017,-1.581936 -0.33489,-2.661634 -1.61489,-4.007614 -0.74506,-0.783458 -1.48226,-1.39823 -2.64251,-2.203651 -2.17884,-1.512515 -3.54778,-2.962105 -3.689448,-3.906867 -0.04513,-0.300873 0.105448,-0.877509 0.252938,-0.968658 0.0333,-0.02061 0.12148,0.09747 0.19585,0.262388 0.26129,0.579432 0.69252,0.824001 1.20807,0.685172 0.34895,-0.09396 0.51671,-0.381683 0.51213,-0.878284 -0.004,-0.421482 -0.13961,-0.707974 -0.4747,-1.002185 -0.31943,-0.280468 -0.71684,-0.384297 -1.34873,-0.352391 -0.425854,0.02151 -0.553087,0.05881 -0.800989,0.23492 -0.172819,0.12276 -0.370533,0.354451 -0.478035,0.560168 -0.160231,0.306664 -0.183305,0.434897 -0.183305,1.018849 0,0.612027 0.01891,0.706139 0.22644,1.122619 0.403482,0.809997 0.918749,1.401286 3.054189,3.50475 2.30851,2.273951 2.66315,2.712902 2.96628,3.671631 0.52638,1.664752 -0.21492,3.334648 -1.72134,3.877629 -0.53794,0.193891 -1.42305,0.211171 -2.09627,0.04092 -1.737132,-0.439281 -2.62266,-1.341708 -3.108548,-3.167913 l -0.158682,-0.596391 -0.02151,-7.139155 -0.02151,-7.139152 6.40437,5.9e-5 c 3.75977,3.3e-5 6.7121,0.02924 7.14961,0.07073 2.07501,0.196772 3.43211,0.93467 4.02751,2.189861 1.06706,2.2495 0.44744,4.306746 -1.49418,4.960829 -0.52884,0.178152 -1.30551,0.1923 -1.84503,0.03362 -0.20961,-0.06163 -0.63368,-0.239544 -0.94241,-0.395327 -0.52664,-0.265747 -0.69994,-0.4229 -2.80655,-2.544964 -2.23611,-2.252543 -2.79392,-2.742961 -3.56072,-3.13056 -1.00348,-0.507238 -2.23224,-0.319619 -2.75224,0.420232 -0.17639,0.250991 -0.21408,0.379765 -0.23556,0.805065 -0.0319,0.631884 0.0719,1.029281 0.35239,1.348717 0.289,0.329152 0.55529,0.458083 0.96542,0.467425 0.46754,0.01066 0.74161,-0.118892 0.88333,-0.417487 0.23587,-0.497098 -0.0247,-1.007341 -0.6447,-1.262248 -0.16761,-0.06892 -0.30489,-0.145557 -0.30502,-0.17031 0,-0.09089 0.57256,-0.27071 0.86067,-0.270046 0.83721,0.002 2.26302,1.180262 3.51251,2.902819 1.76155,2.428478 2.47077,3.262855 3.3495,3.940553 1.03047,0.794735 1.76008,1.044148 3.0472,1.041626 1.5317,-0.003 2.41287,-0.347238 3.36948,-1.316393 1.12131,-1.13598 1.72799,-2.899273 1.50482,-4.373649 -0.22737,-1.502194 -1.05961,-2.713313 -2.57716,-3.750478 -0.90314,-0.617225 -0.99321,-0.578936 1.24612,-0.529648 1.81679,0.03998 2.20436,0.125055 2.89459,0.63536 l 0.19329,0.142897 0.25157,-0.241472 c 0.13838,-0.132811 0.81283,-0.825586 1.49881,-1.539501 l 1.24723,-1.298028 -1.48237,-1.531036 -1.48239,-1.531035 -0.42021,0.253036 c -0.74233,0.447015 -0.92524,0.479122 -2.91101,0.510921 -1.09935,0.01761 -1.76211,0.0036 -1.719,-0.0363 0.0386,-0.03573 0.36011,-0.261193 0.71448,-0.501037 2.22349,-1.504822 3.07219,-3.719086 2.30337,-6.009389 -0.58892,-1.754326 -1.72883,-2.885027 -3.33359,-3.306603 -0.32061,-0.08423 -0.71658,-0.118278 -1.33311,-0.114654 -0.74666,0.0044 -0.96186,0.03259 -1.44753,0.189664 -1.35683,0.43884 -2.78495,1.758507 -4.34039,4.01078 -1.4468,2.094991 -2.88885,3.469318 -3.87085,3.689079 -0.31595,0.07071 -0.41513,0.06512 -0.68697,-0.0387 -0.17476,-0.06673 -0.33383,-0.147404 -0.35352,-0.179272 -0.0197,-0.03187 0.13457,-0.154097 0.34282,-0.271623 0.51423,-0.290217 0.70278,-0.563673 0.6516,-0.945142 -0.0595,-0.444106 -0.35625,-0.678825 -0.85814,-0.678825 -0.92586,0 -1.435,0.595331 -1.435,1.677883 0,0.855465 0.49154,1.437816 1.367,1.619562 0.70238,0.145813 1.26821,-0.01121 2.21135,-0.613616 0.4861,-0.310495 1.00512,-0.793681 2.80655,-2.612805 1.21559,-1.227523 2.36113,-2.331991 2.54565,-2.454369 1.60567,-1.064902 3.29009,-1.016685 4.43369,0.126917 0.99624,0.996236 1.07239,2.706234 0.19517,4.382892 -0.49889,0.953548 -1.40929,1.527724 -3.03672,1.91526 -0.48048,0.114412 -1.10713,0.126912 -7.48811,0.149351 l -6.963758,0.02449 v -6.907824 c 0,-7.489679 -0.006,-7.356989 0.390154,-8.546686 0.202946,-0.609394 0.576681,-1.226084 0.983954,-1.623581 0.549436,-0.536243 2.03235,-1.100046 2.89336,-1.100046 1.21213,0 2.25845,0.656423 2.77101,1.738421 0.21132,0.446095 0.22339,0.515591 0.22192,1.278617 -0.002,0.742961 -0.0186,0.846185 -0.21594,1.303003 -0.11791,0.272867 -0.33823,0.683324 -0.48959,0.912128 -0.33893,0.512322 -1.47571,1.694325 -2.75173,2.861158 -1.49142,1.363802 -2.590052,2.700178 -2.852112,3.469277 -0.13892,0.407726 -0.140111,1.171664 -0.002,1.561903 0.312159,0.884758 1.089772,1.269706 2.061802,1.020681 0.53658,-0.137461 0.8096,-0.321558 0.98196,-0.662132 0.19162,-0.378605 0.23547,-0.666513 0.14992,-0.984291 -0.10854,-0.403048 -0.35209,-0.570942 -0.82823,-0.570942 -0.34932,0 -0.40734,0.02297 -0.61553,0.24371 -0.12642,0.134044 -0.27642,0.378739 -0.33336,0.543768 l -0.10351,0.30006 -0.14699,-0.315737 c -0.207542,-0.445789 -0.190893,-0.809042 0.0597,-1.304362 0.46988,-0.928542 1.61401,-2.045845 3.30551,-3.227939 3.48359,-2.43451 4.60037,-4.01389 4.45945,-6.306709 -0.0529,-0.860768 -0.1908,-1.395559 -0.52371,-2.030942 -0.61271,-1.169422 -1.80857,-2.032403 -3.3697,-2.431665 -0.64915,-0.166027 -1.76891,-0.179493 -2.36514,-0.02845 -0.97288,0.246468 -2.174653,1.027041 -2.715393,1.763704 -0.138579,0.188768 -0.409755,0.674128 -0.602646,1.078579 l -0.350681,0.735368 -0.006,-1.939651 c -0.007,-2.16267 0.05113,-2.536941 0.484368,-3.13504 0.116186,-0.160389 0.211241,-0.316945 0.211241,-0.347903 0,-0.09314 -3.012198,-2.975383 -3.083239,-2.950197 -0.03612,0.01283 -0.732641,0.683825 -1.547768,1.491118 l -1.482011,1.467806 0.135438,0.183193 c 0.5403,0.730803 0.642519,1.283155 0.643399,3.476582 v 1.754092 l -0.47187,-0.872631 C 92.309385,21.333103 91.77697,20.741901 90.948074,20.228893 89.715827,19.466229 88.25721,19.310505 86.830822,19.78933 c -1.833292,0.61541 -2.976258,1.761586 -3.36341,3.372875 -0.142722,0.593927 -0.158241,1.875704 -0.02922,2.4136 0.367981,1.534425 1.613656,2.932758 4.282357,4.807196 1.756618,1.233797 2.889888,2.325287 3.332122,3.20925 0.290547,0.580787 0.31372,0.921126 0.09365,1.375731 l -0.152578,0.315205 -0.08705,-0.25132 c -0.126602,-0.365727 -0.303344,-0.608689 -0.526862,-0.724272 -0.228431,-0.118119 -0.71398,-0.133831 -0.909082,-0.02942 -0.321464,0.172035 -0.452379,0.878592 -0.250333,1.350826 0.286224,0.668969 1.25578,1.039469 2.087438,0.797695 1.01163,-0.294086 1.459187,-1.625856 0.934866,-2.781878 -0.371893,-0.819928 -0.972078,-1.518453 -3.255638,-3.789032 -2.065825,-2.054057 -2.243377,-2.250075 -2.514103,-2.775335 -0.600734,-1.165592 -0.658858,-2.157649 -0.185076,-3.159139 0.559461,-1.182617 1.805046,-1.789927 3.244302,-1.581831 1.066642,0.154218 2.128861,0.672565 2.625336,1.281132 0.537228,0.658506 0.952447,1.782273 1.09832,2.972562 0.05133,0.419237 0.07744,2.854054 0.07755,7.244399 v 6.612925 l -6.612935,-2.1e-4 c -6.985308,-2.11e-4 -7.396423,-0.01607 -8.469659,-0.326978 -1.276132,-0.369675 -2.075381,-0.975062 -2.540218,-1.924039 -0.925724,-1.889885 -0.612841,-3.728793 0.787342,-4.627285 1.015843,-0.651858 2.16022,-0.647144 3.461976,0.01425 0.534137,0.271388 0.706856,0.427889 2.848935,2.581426 2.31801,2.330416 2.829704,2.770488 3.691068,3.174529 1.493487,0.700536 3.065089,-0.201747 2.873038,-1.649464 -0.12218,-0.922644 -0.632703,-1.452057 -1.400033,-1.452057 -0.620576,0 -0.90724,0.257182 -0.90724,0.81391 0,0.37778 0.235184,0.665464 0.737353,0.901918 l 0.328088,0.15448 -0.222838,0.132945 c -0.951646,0.567773 -2.599702,-0.574599 -4.35774,-3.020626 -1.545517,-2.150339 -2.331018,-3.056384 -3.267375,-3.768798 -0.533226,-0.405688 -1.278934,-0.774326 -1.824257,-0.901805 -0.542741,-0.126873 -1.823906,-0.110115 -2.413615,0.03158 -1.374881,0.330359 -2.386905,1.18938 -3.068129,2.604282 -0.878407,1.8244 -0.716043,3.711307 0.453148,5.266678 0.422825,0.562467 0.856173,0.95776 1.651659,1.506576 l 0.657477,0.453604 -1.499445,0.01993 c -0.871611,0.0116 -1.694873,-0.01261 -1.966209,-0.05781 -0.495685,-0.08257 -1.223437,-0.388945 -1.383608,-0.582494 -0.05297,-0.064 -0.120704,-0.116356 -0.150545,-0.116356 -0.06429,0 -2.884542,2.840493 -2.967796,2.989085 -0.04207,0.07513 0.32635,0.496344 1.391765,1.591127 0.79695,0.81892 1.475565,1.498703 1.508038,1.510629 0.03245,0.01193 0.192819,-0.07524 0.356367,-0.193703 0.602443,-0.436414 1.019545,-0.512162 3.010573,-0.546739 l 1.789181,-0.03107 -0.631483,0.437929 c -0.887699,0.615624 -1.241609,0.922707 -1.638166,1.4214 -0.780287,0.981208 -1.133299,1.946937 -1.133299,3.100322 0,0.846671 0.184203,1.562181 0.640266,2.487233 0.606435,1.230034 1.499839,1.996283 2.797762,2.399563 0.692557,0.215183 2.114953,0.232713 2.77147,0.03412 1.493587,-0.451729 2.759733,-1.601397 4.578137,-4.156952 1.234448,-1.734891 2.062533,-2.62374 2.999551,-3.219686 0.43576,-0.27715 0.747238,-0.385936 1.104944,-0.385936 0.268424,0 0.754393,0.176862 0.754393,0.274552 0,0.02644 -0.110514,0.08804 -0.245601,0.136885 -0.601786,0.217606 -0.909472,0.75076 -0.709487,1.229384 0.14101,0.337443 0.394306,0.484133 0.835979,0.484133 0.743367,0 1.244904,-0.455995 1.396171,-1.26937 0.119439,-0.642225 -0.009,-1.134422 -0.395807,-1.52164 -0.398418,-0.398407 -0.857092,-0.549123 -1.571622,-0.516402 -0.997422,0.04568 -1.856475,0.612254 -3.484379,2.298088 -2.864283,2.96623 -3.395948,3.443161 -4.267709,3.828286 -0.915225,0.404326 -1.943365,0.424838 -2.734609,0.05457 -1.748073,-0.81802 -2.212444,-2.855944 -1.125215,-4.937983 0.62808,-1.202732 1.914909,-1.885383 3.942682,-2.09155 0.451629,-0.04592 3.166727,-0.07387 7.174246,-0.07387 h 6.44763 v 6.683089 c 0,7.016391 -0.01381,7.372174 -0.320884,8.456465 -0.185497,0.655315 -0.566886,1.381581 -0.939739,1.789524 -0.809225,0.885437 -2.63083,1.448229 -3.797169,1.173151 -1.817733,-0.428705 -2.746386,-2.25462 -2.078363,-4.086438 0.344608,-0.944871 0.531906,-1.175033 2.755591,-3.385988 1.164348,-1.157702 2.274315,-2.298145 2.466586,-2.53432 1.022857,-1.256481 1.277663,-2.202127 0.856901,-3.180191 -0.289996,-0.674102 -0.786171,-0.948929 -1.632126,-0.904014 -0.602596,0.032 -0.970167,0.197217 -1.266957,0.56951 -0.1746,0.218993 -0.215994,0.342384 -0.235425,0.701637 -0.02872,0.531514 0.06854,0.742571 0.421862,0.915584 0.371913,0.182105 0.758955,0.106197 1.076227,-0.211077 0.134057,-0.134061 0.262341,-0.336821 0.285104,-0.45058 0.06014,-0.300868 0.132496,-0.305841 0.268864,-0.01848 0.187818,0.395773 0.119229,0.966848 -0.17425,1.451091 -0.510973,0.843098 -1.581957,1.901583 -2.764296,2.732039 -2.237814,1.571799 -3.474033,2.672759 -4.145608,3.692002 -0.187708,0.284883 -0.43539,0.790063 -0.550436,1.122613 -0.189569,0.548083 -0.20891,0.686723 -0.206589,1.481708 0.004,1.417651 0.327008,2.348894 1.116961,3.221834 0.757024,0.836528 1.918561,1.440434 3.193773,1.6605 1.576054,0.271975 3.055523,-0.218055 4.23605,-1.403063 0.495815,-0.497695 0.618535,-0.675337 0.997853,-1.444527 l 0.432538,-0.877042 -0.01841,2.034745 c -0.01751,1.949185 -0.02531,2.052444 -0.183785,2.455725 -0.09095,0.231543 -0.259389,0.55862 -0.374235,0.726836 l -0.20879,0.305865 1.534711,1.494635 1.5347,1.494636 0.631473,-0.607448 c 0.347309,-0.334091 1.034033,-1.001773 1.526055,-1.483749 z"
         id="path1631" /><path
         id="path1972"
         style="fill:#eaaa00;fill-opacity:1;fill-rule:evenodd;stroke:#000000;stroke-width:1.32292;stroke-linejoin:miter;stroke-miterlimit:5;stroke-dasharray:none;stroke-dashoffset:0"
         d="M 123.92852,120.6163 66.145753,62.060427 8.3629933,120.61672 c 10.7039477,21.04633 32.5514157,35.4743 57.7827597,35.4743 25.231457,0 47.078887,-14.42821 57.782767,-35.47472 z" /><path
         style="fill:#000000;fill-opacity:1;stroke-width:0.219136"
         d="m 67.294517,140.07363 c -0.313368,-0.3885 -0.781317,-1.66143 -1.002531,-2.72711 -0.307141,-1.47964 -0.382875,-2.39237 -0.384299,-4.63081 -0.0022,-2.67358 0.114191,-3.72711 0.724901,-6.58951 0.501144,-2.34885 0.528202,-5.44274 0.06646,-7.60109 -0.0547,-0.25577 -0.102308,-0.33327 -0.204725,-0.33327 -0.122414,0 -0.129167,0.0362 -0.0819,0.43852 0.08336,0.70923 0.0547,2.91644 -0.04533,3.49064 -0.157539,0.90425 -0.371999,1.68129 -0.513774,1.86154 -0.269845,0.34305 -0.897877,0.14576 -0.897877,-0.28207 0,-0.0961 0.06282,-0.40389 0.139582,-0.6841 0.218298,-0.7967 0.35071,-1.83618 0.350951,-2.7547 0,-0.84673 -0.111956,-2.0636 -0.198476,-2.15289 -0.02557,-0.0264 -0.170805,-0.0579 -0.322753,-0.0701 -0.326635,-0.0262 -0.278528,-0.16563 -0.597817,1.73192 -0.416225,2.47345 -0.632461,4.71359 -0.80934,8.38455 -0.159578,3.3117 -0.455165,4.96848 -1.265119,7.0909 -0.660876,1.73181 -1.783935,3.5804 -2.716851,4.47205 l -0.242217,0.23151 -0.248972,-0.65249 c -0.500926,-1.31281 -0.841812,-2.60619 -0.999483,-3.79233 -0.02438,-0.18329 -0.06103,-0.33327 -0.08146,-0.33327 -0.02039,0 -0.200032,0.1372 -0.399123,0.30489 -1.074623,0.9051 -2.288127,1.5022 -3.649503,1.79571 l -0.621234,0.13395 0.04769,-1.24007 c 0.04537,-1.17893 0.130811,-2.23133 0.221806,-2.73144 l 0.04157,-0.22846 -0.603584,0.27754 c -1.109552,0.51019 -4.231949,1.73551 -4.281788,1.68029 -0.0136,-0.0151 0.174006,-0.82058 0.417037,-1.78991 0.287056,-1.14483 0.519233,-1.91565 0.662652,-2.19971 0.121406,-0.24052 0.207816,-0.45023 0.19203,-0.46601 -0.01579,-0.0158 -0.492638,0.0831 -1.059649,0.21983 -0.567032,0.13669 -1.353415,0.29465 -1.747517,0.35101 -0.394122,0.0563 -0.803747,0.11779 -0.910265,0.13649 -0.1892,0.0332 -0.184091,0.0197 0.219547,-0.58054 1.831801,-2.7243 4.629955,-5.51096 7.165914,-7.13651 0.289426,-0.18552 1.157702,-0.66869 1.929504,-1.07371 4.028913,-2.11426 6.031914,-3.68178 6.906725,-5.40509 l 0.155127,-0.30559 -0.478802,-0.51014 c -0.263333,-0.28058 -0.501123,-0.51407 -0.528421,-0.51884 -0.02728,-0.005 -0.362155,0.22672 -0.74413,0.51447 -1.257226,0.94704 -2.446918,2.25185 -3.409411,3.73927 -0.459486,0.71008 -0.468848,0.71918 -0.739615,0.71918 -0.212684,0 -0.306879,-0.0415 -0.419645,-0.18488 -0.07998,-0.10167 -0.145436,-0.23871 -0.145436,-0.30453 0,-0.17531 0.63393,-1.20141 1.208988,-1.95693 0.27513,-0.36144 0.83394,-1.00727 1.241832,-1.43515 0.717403,-0.75259 0.730186,-0.77142 0.390812,-0.57671 -1.452017,0.83314 -2.529491,1.76885 -4.264246,3.70319 -1.480916,1.6513 -4.104033,3.40909 -7.188937,4.81742 -1.460984,0.66697 -3.844843,1.58201 -4.483223,1.72088 l -0.219722,0.0478 0.133026,-0.65278 c 0.270064,-1.32545 0.866675,-2.81022 1.558183,-3.87784 0.174094,-0.26879 0.301222,-0.51349 0.282519,-0.54377 -0.01864,-0.0303 -0.142476,-0.055 -0.27502,-0.055 -0.736018,0 -3.19039,-0.63457 -4.552905,-1.17714 l -0.676927,-0.26958 0.795701,-0.70678 c 0.437625,-0.38874 1.283647,-1.18906 1.880039,-1.77851 l 1.084337,-1.07171 -0.565674,-0.12274 c -1.185724,-0.25728 -2.418369,-0.78652 -3.504154,-1.50452 -0.945457,-0.6252 -0.959841,-0.52963 0.196042,-1.30344 0.548396,-0.36712 1.273209,-0.80804 1.610697,-0.9798 0.337488,-0.17177 0.613406,-0.32809 0.613165,-0.34738 0,-0.0193 -0.195603,-0.14559 -0.434138,-0.28065 -0.640244,-0.36252 -1.694389,-1.16237 -2.363751,-1.79352 l -0.588806,-0.5552 0.308151,-0.0893 c 0.53627,-0.15558 2.157448,-0.36202 3.465519,-0.44132 3.339819,-0.20246 7.054858,0.30581 10.03342,1.37271 3.980961,1.42594 6.06318,1.976 7.993824,2.11172 l 0.671402,0.0472 0.0022,-0.44887 c 0,-0.2469 0.045,-0.65412 0.09819,-0.90495 0.118379,-0.5583 0.09079,-0.60046 -0.621717,-0.95062 -0.87036,-0.42774 -2.022076,-0.45936 -3.374219,-0.0927 -0.904061,0.2452 -1.107931,0.2488 -1.285796,0.0227 -0.200493,-0.25488 -0.189486,-0.42456 0.04261,-0.65643 0.221718,-0.22151 0.978543,-0.45012 1.958468,-0.59159 0.33922,-0.0489 0.583587,-0.10954 0.543024,-0.13462 -0.292495,-0.18076 -3.289979,-0.83933 -5.509764,-1.21051 -0.824863,-0.13793 -1.768127,-0.31333 -2.096142,-0.38979 -3.333744,-0.77702 -6.116374,-2.2694 -8.081244,-4.33413 -0.638096,-0.67053 -1.364686,-1.68205 -1.271345,-1.76991 0.09771,-0.0919 1.173423,-0.40484 1.818819,-0.529 0.388992,-0.0748 0.997795,-0.12237 1.622406,-0.12667 0.549864,-0.004 0.999725,-0.0227 0.999659,-0.042 -6.6e-5,-0.0193 -0.11371,-0.22345 -0.252546,-0.4537 -0.613978,-1.018248 -1.65341,-3.346761 -1.543165,-3.456994 0.04049,-0.04052 3.606703,0.812115 3.953554,0.945211 0.07058,0.02712 0.01776,-0.116357 -0.150129,-0.408344 C 47.245572,96.889411 46.990505,96.395069 46.821147,96.038434 46.651811,95.6818 46.3498,95.119409 46.150031,94.788679 45.950262,94.45795 45.798861,94.175298 45.813595,94.16056 c 0.01469,-0.01471 0.357463,0.004 0.761606,0.04172 0.805788,0.07514 2.160803,0.336712 2.874808,0.554927 0.713915,0.218215 0.720055,0.215303 0.553987,-0.26297 -0.07704,-0.221897 -0.345667,-1.113848 -0.596919,-1.982125 -0.251252,-0.868276 -0.473343,-1.635686 -0.493558,-1.705355 -0.03019,-0.10411 0.0549,-0.08075 0.477903,0.131245 1.201422,0.602074 2.492107,1.557731 3.733151,2.764101 2.096077,2.037556 3.553532,4.292507 4.695425,7.264727 1.378214,3.58739 2.428149,5.31059 4.111093,6.74733 l 0.518159,0.44235 0.231891,-0.20359 c 0.127523,-0.11198 0.288023,-0.23502 0.356652,-0.27342 0.114718,-0.0642 0.117392,-0.10568 0.03315,-0.51454 -0.134824,-0.65442 -0.449596,-1.41995 -0.861063,-2.09416 -0.433546,-0.7104 -1.555311,-1.86461 -2.235308,-2.29996 -0.771385,-0.49387 -0.771801,-0.49427 -0.771801,-0.73922 0,-0.35289 0.169095,-0.53855 0.490532,-0.53855 0.215491,0 0.401534,0.0866 0.894807,0.41653 1.650164,1.10379 2.914164,2.79122 3.394348,4.53149 0.166859,0.60472 0.222046,0.66418 0.485644,0.52312 0.151421,-0.0811 0.143506,-0.28021 -0.05146,-1.29451 -0.409318,-2.12933 -2.002386,-4.99794 -4.267711,-7.684826 -1.396194,-1.655977 -1.569541,-1.873732 -2.01598,-2.532319 -1.194517,-1.762178 -1.962327,-3.698056 -2.258901,-5.695439 -0.161224,-1.085762 -0.129343,-3.142108 0.05153,-3.322972 0.06556,-0.06554 1.205743,0.503238 1.781546,0.888739 0.717359,0.480285 1.131983,0.818458 1.791741,1.461416 0.297911,0.290346 0.554602,0.513784 0.570411,0.496544 0.01579,-0.01721 0.0053,-0.536517 -0.02366,-1.15396 -0.02884,-0.617443 -0.03646,-1.521361 -0.01688,-2.00871 l 0.03552,-0.886097 0.418834,0.09776 c 0.44839,0.1046 1.218372,0.464636 1.691846,0.791083 0.787873,0.543221 1.784637,1.584607 2.406946,2.514699 0.213013,0.318362 0.398838,0.578841 0.412958,0.578841 0.01403,0 0.0936,-0.228901 0.176681,-0.508681 0.374477,-1.261132 0.974377,-2.191754 2.515613,-3.902413 l 0.529034,-0.587196 0.287321,0.317382 c 0.718783,0.793904 1.392466,2.713803 1.551058,4.420209 0.05391,0.580022 0.06247,0.574149 0.559249,-0.38393 0.385528,-0.743545 0.738254,-1.15427 1.43498,-1.670936 0.448961,-0.33293 1.711558,-1.052282 1.846952,-1.052282 0.06749,0 0.04732,1.539961 -0.03046,2.325501 -0.163327,1.649384 -0.562143,3.469705 -1.089468,4.972645 -0.498206,1.419973 -1.144677,2.643884 -3.501501,6.629334 -1.392663,2.355038 -2.090156,3.911818 -2.279094,5.086868 -0.08402,0.52269 -0.09736,1.681 -0.02061,1.79698 0.02835,0.0429 0.201522,0.10007 0.384826,0.12708 l 0.333278,0.0491 v -0.25638 c 0,-0.44219 0.278308,-1.64588 0.533091,-2.30559 0.519234,-1.34444 1.482012,-2.83938 2.365922,-3.67365 0.444531,-0.41956 0.659298,-0.46494 0.928092,-0.19615 0.267345,0.26735 0.222396,0.47606 -0.201941,0.93764 -1.485455,1.61581 -2.42635,3.55968 -2.605619,5.38319 l -0.04857,0.49405 0.353998,0.1658 0.353998,0.1658 0.140415,-0.1687 c 0.07724,-0.0928 0.190385,-0.31562 0.251428,-0.49517 0.124496,-0.36616 0.546071,-1.00482 0.942343,-1.42763 0.601983,-0.64227 1.895978,-3.26733 2.499278,-5.07015 0.331414,-0.990364 0.557187,-1.963961 0.695388,-2.998673 0.21981,-1.645842 0.628579,-2.957663 1.342676,-4.309096 0.743136,-1.406325 1.832391,-2.820054 3.029358,-3.93171 0.607509,-0.564213 1.665296,-1.401452 1.775429,-1.405254 0.05273,-0.002 0.312719,1.062498 0.428085,1.752653 0.118248,0.707165 0.115837,3.001638 -0.004,3.531291 -0.05073,0.224948 -0.07885,0.422482 -0.06234,0.438951 0.01641,0.01651 0.358646,-0.124651 0.760397,-0.31361 0.40173,-0.188958 1.236809,-0.504108 1.855704,-0.70034 0.618906,-0.196243 1.487184,-0.499586 1.929498,-0.674126 0.442343,-0.17452 0.831617,-0.317372 0.865096,-0.317452 0.07874,0 -0.002,0.930022 -0.142562,1.648714 -0.196763,1.003444 -0.768161,2.401434 -1.295683,3.170014 -0.110704,0.161312 -0.201306,0.321924 -0.201306,0.356914 0,0.03502 0.228912,0.006 0.508692,-0.06344 1.038116,-0.259309 2.211469,-0.421411 3.343128,-0.461854 l 1.15051,-0.04112 -0.03822,0.624657 c -0.120659,1.97326 -1.537812,4.203311 -3.701553,5.824831 -0.833569,0.62467 -1.191404,0.82374 -2.420259,1.3465 -1.632097,0.6943 -2.84161,1.1172 -4.262045,1.49018 -3.322307,0.87239 -4.818,1.54704 -6.998383,3.15674 -0.424973,0.31373 -0.772656,0.57977 -0.772656,0.5912 0,0.0114 0.111845,0.20615 0.248533,0.43271 0.136688,0.22658 0.30245,0.56494 0.36836,0.75194 l 0.119826,0.33998 0.315738,-0.0453 c 0.173654,-0.0249 0.584617,-0.0743 0.913247,-0.10969 1.153448,-0.12416 2.671747,-0.60398 4.068378,-1.28573 0.405202,-0.19779 1.318536,-0.75078 2.029624,-1.22884 1.873525,-1.25958 2.956967,-1.80835 4.711824,-2.38659 2.122278,-0.69932 4.125607,-1.03314 6.653257,-1.10867 l 1.501942,-0.0448 -0.04573,0.239 c -0.09866,0.51542 -0.587797,1.35198 -1.134851,1.94085 -0.29559,0.31816 -0.490732,0.57847 -0.433679,0.57847 0.05703,0 0.493933,0.12792 0.970827,0.28426 1.031972,0.33832 2.165232,0.88242 2.541748,1.22035 l 0.271376,0.24357 -0.337644,0.47317 c -0.451219,0.63233 -1.192584,1.40432 -1.711532,1.78224 -0.232703,0.16944 -0.423082,0.3247 -0.423082,0.34498 0,0.0203 0.149816,0.11578 0.332941,0.21219 0.445805,0.23471 1.48217,0.91621 1.922032,1.26391 l 0.355484,0.281 -0.515876,0.51572 c -0.599133,0.5989 -1.314014,1.08249 -2.019008,1.36573 -0.273897,0.11004 -0.514675,0.21676 -0.535067,0.23716 -0.02041,0.0204 0.586376,0.44369 1.348424,0.94064 l 1.385485,0.90357 -0.538389,0.0823 c -1.679134,0.25651 -4.011862,0.35545 -5.665201,0.24027 -2.78807,-0.19423 -4.905985,-0.68571 -6.840965,-1.58754 -1.334936,-0.62217 -3.692158,-1.4853 -4.876388,-1.78557 -0.17365,-0.044 -0.374935,-0.0973 -0.447297,-0.11847 -0.07234,-0.0211 0.219987,0.30437 0.649673,0.72335 0.6795,0.66258 0.781148,0.79146 0.780578,0.98981 0,0.30473 -0.212532,0.50868 -0.527873,0.50868 -0.211191,0 -0.304314,-0.0615 -0.649012,-0.42884 -1.085133,-1.15627 -2.740275,-2.02938 -3.687902,-1.94542 -0.256646,0.0227 -0.274209,0.0407 -0.400328,0.40967 -0.156488,0.45784 -0.214022,0.38788 0.786689,0.95649 1.467695,0.83395 4.17095,1.97413 5.53022,2.33254 1.06316,0.28033 1.746011,0.40002 3.227541,0.56575 1.589532,0.17781 2.715418,0.41863 4.104575,0.87795 2.427974,0.80281 4.668149,2.0493 6.267837,3.48756 l 0.361327,0.32486 -0.999173,0.49836 c -0.549546,0.2741 -1.366164,0.61977 -1.814701,0.76817 l -0.815528,0.26981 0.914304,0.83546 c 0.502859,0.45951 0.987907,0.93239 1.077869,1.05084 l 0.163564,0.21539 -0.657188,0.22231 c -0.794075,0.26863 -1.77924,0.36953 -2.849464,0.29188 -0.405193,-0.0294 -0.745198,-0.0456 -0.755574,-0.036 -0.01031,0.01 0.07504,0.30476 0.189749,0.65588 0.304955,0.93316 0.501998,2.032 0.546684,3.04841 0.04533,1.03094 0.113585,0.95846 -0.738074,0.78347 -1.851842,-0.3805 -3.66053,-1.28342 -5.487358,-2.73939 -0.882006,-0.70295 -2.601693,-2.45698 -3.449209,-3.5181 -0.936688,-1.17275 -1.604801,-2.12374 -2.552054,-3.6326 -0.410875,-0.65445 -0.925745,-1.43867 -1.144195,-1.74271 -0.47593,-0.66246 -1.552637,-1.938 -1.635935,-1.938 -0.03258,0 -0.05924,0.16861 -0.05924,0.37468 0,0.53188 -0.246603,1.45628 -0.428832,1.60745 -0.323982,0.26875 -0.835015,0.0536 -0.833283,-0.35082 0,-0.10613 0.04745,-0.3666 0.104413,-0.57886 0.218976,-0.81578 0.0925,-1.78783 -0.285676,-2.19567 l -0.17769,-0.19164 -0.385221,0.3138 c -0.211873,0.17258 -0.508534,0.3831 -0.659298,0.46783 l -0.274078,0.15403 0.105356,0.25223 c 0.49643,1.18851 2.148678,3.09668 4.371093,5.04814 2.058033,1.8071 3.74387,3.95741 5.426375,6.92141 0.983545,1.73267 1.963517,3.78667 2.536035,5.3155 l 0.177572,0.47421 -0.190029,-0.0456 c -1.11659,-0.26813 -2.528681,-0.90218 -3.540351,-1.58968 l -0.684103,-0.46488 v 0.9177 c 0,1.28175 -0.150496,2.28171 -0.538839,3.58025 l -0.182374,0.60979 -0.537719,-0.27035 c -0.720193,-0.36212 -1.645059,-0.98964 -2.478758,-1.68187 -0.415369,-0.3449 -0.696069,-0.53391 -0.71225,-0.47961 -0.01469,0.0493 -0.08061,0.35801 -0.146489,0.68602 -0.211522,1.05299 -1.057544,3.36786 -1.23087,3.36786 -0.162912,0 -1.494927,-1.80928 -2.027491,-2.75393 -0.234238,-0.41552 -0.354372,-0.50586 -0.354372,-0.26649 0,0.26424 -0.403068,1.33286 -0.694336,1.84082 -0.161815,0.28217 -0.427911,0.66674 -0.591348,0.85459 -0.239391,0.27515 -0.312208,0.3229 -0.374587,0.24557 z"
         id="path1599" /><path
         style="fill:#0033a0;fill-opacity:1;stroke-width:0.219136"
         d="m 65.92299,106.71251 0.213277,-0.0426 -0.03793,-0.5017 c -0.07507,-0.9925 0.213057,-2.34779 0.769302,-3.61868 0.408924,-0.93427 0.95015,-1.92578 2.261927,-4.143781 1.913015,-3.234651 2.397365,-4.168585 2.874588,-5.542922 0.539581,-1.553899 0.951947,-3.502404 1.061204,-5.014269 l 0.05054,-0.69919 -0.203671,0.131585 c -0.415239,0.268263 -1.013473,0.766218 -1.175047,0.9781 -0.09165,0.120188 -0.269823,0.423762 -0.395921,0.674596 -0.126119,0.250833 -0.596019,1.11911 -1.044256,1.929504 l -0.814952,1.473433 -0.04699,-0.350821 c -0.02585,-0.19295 -0.04975,-0.671094 -0.05313,-1.062558 -0.01162,-1.354865 -0.249147,-3.002458 -0.579947,-4.024303 -0.184619,-0.570226 -0.551137,-1.403273 -0.617419,-1.403273 -0.0639,0 -0.863848,0.952345 -1.29382,1.540302 -0.527741,0.721623 -0.830235,1.453431 -1.233962,2.985258 -0.203409,0.771792 -0.383379,1.427337 -0.399934,1.456754 -0.01645,0.02942 -0.196984,-0.286324 -0.400985,-0.701632 -0.899894,-1.832058 -1.932355,-3.137325 -3.114811,-3.937813 -0.408441,-0.276509 -0.810129,-0.500907 -0.89665,-0.500907 -0.100597,0 0.03988,2.617458 0.214592,3.997888 0.100027,0.790312 0.17302,1.482908 0.162188,1.539121 -0.01075,0.05623 -0.292517,-0.243099 -0.625971,-0.665121 -0.808879,-1.023716 -1.309497,-1.566046 -2.014554,-2.182469 -0.671578,-0.587116 -1.94994,-1.474604 -2.021309,-1.403243 -0.07545,0.07544 0.103798,1.980243 0.25204,2.678073 0.389213,1.832238 1.299193,3.812992 2.449769,5.332441 0.175344,0.231533 0.671138,0.831436 1.10179,1.333103 2.288479,2.665926 3.764155,5.057904 4.529291,7.341634 0.222507,0.66413 0.484196,1.87383 0.484196,2.2382 0,0.22535 0.09812,0.25503 0.546553,0.16535 z"
         id="path1625" /><path
         style="fill:#0033a0;fill-opacity:1;stroke-width:0.219136"
         d="m 72.217558,107.19771 c 1.855547,-1.23325 3.181029,-1.7888 6.147621,-2.57675 2.011044,-0.53414 4.438277,-1.44287 5.648421,-2.1147 0.963373,-0.53482 2.340243,-1.76872 3.040265,-2.724513 0.555628,-0.758674 1.066351,-1.847808 1.229265,-2.621471 l 0.04803,-0.22803 h -0.445956 c -1.488655,0 -3.585718,0.484297 -5.608038,1.295131 l -1.134871,0.455011 0.980602,-0.997852 c 1.04461,-1.062998 1.557304,-1.728529 1.984889,-2.576544 0.450929,-0.894322 0.927693,-2.385565 0.762678,-2.385565 -0.08315,0 -1.858306,0.574709 -2.549463,0.825372 -0.668243,0.242349 -1.699125,0.762997 -2.750768,1.389265 -0.481897,0.286954 -0.8892,0.521749 -0.90514,0.521749 -0.01601,0 0.124722,-0.307846 0.31254,-0.684102 0.623317,-1.248634 0.781008,-1.944693 0.781858,-3.450805 0,-1.01508 -0.118197,-2.179827 -0.222287,-2.179827 -0.110153,0 -1.387226,1.268396 -1.927616,1.914506 -0.6962,0.832416 -1.301207,1.746059 -1.748343,2.640181 -0.653145,1.306087 -0.917397,2.174344 -1.154922,3.794791 -0.315561,2.152822 -0.859046,3.862513 -1.924263,6.053143 -0.214088,0.44024 -0.389233,0.81529 -0.389233,0.83344 0,0.0181 0.262017,-0.0546 0.582249,-0.16174 0.82552,-0.27612 1.771438,-0.4247 2.773884,-0.4357 0.830167,-0.009 0.87075,-0.003 0.999834,0.15615 0.193871,0.23871 0.173079,0.53056 -0.05033,0.70631 -0.159031,0.12508 -0.284113,0.14561 -0.894583,0.1468 -1.259464,0.002 -2.444442,0.24541 -3.336816,0.68411 -0.61834,0.30396 -1.301845,0.91576 -1.566625,1.40227 -0.202839,0.37265 -0.402016,1.05053 -0.402016,1.36815 v 0.1989 l 0.543922,-0.41403 c 0.299139,-0.22773 0.827999,-0.60288 1.175243,-0.83365 z"
         id="path1623-1" /><path
         style="fill:#0033a0;fill-opacity:1;stroke-width:0.219136"
         d="m 61.60178,109.12318 c 0.09415,-0.12541 0.192622,-0.26449 0.218845,-0.30906 0.0286,-0.0486 -0.180628,-0.2733 -0.52261,-0.56132 -1.553296,-1.3081 -2.901996,-3.48874 -4.094188,-6.61958 -0.546401,-1.43496 -1.180791,-2.781986 -1.75131,-3.718682 -0.87981,-1.444446 -2.234102,-3.071628 -3.445458,-4.139659 -0.698108,-0.615502 -1.625629,-1.333103 -1.723047,-1.333103 -0.114278,0 0.68276,2.455225 1.067081,3.287161 0.148858,0.322225 0.230072,0.570277 0.180475,0.551246 -1.15358,-0.442663 -4.073774,-1.238849 -4.174481,-1.138142 -0.05468,0.05463 0.543791,1.263484 0.953131,1.925172 0.177229,0.286474 0.566463,0.827414 0.864944,1.202088 l 0.542694,0.68123 -0.36233,-0.09415 c -3.590477,-0.933364 -4.430227,-1.142174 -4.4627,-1.109715 -0.05359,0.05363 0.803156,1.709829 1.195875,2.311894 0.17769,0.27237 0.523487,0.71442 0.768447,0.98234 0.244982,0.26791 0.517326,0.5671 0.605206,0.66487 l 0.159798,0.17777 -0.928245,-0.24232 c -0.880577,-0.22987 -0.991303,-0.2426 -2.15611,-0.24793 -1.148647,-0.005 -2.01984,0.0864 -2.314659,0.2437 -0.139297,0.0742 1.348394,1.56166 2.159487,2.15901 2.110877,1.55461 4.509426,2.49487 7.732859,3.03139 2.658483,0.44248 4.459851,0.83779 6.279658,1.37809 0.904345,0.26848 2.235111,0.76413 2.675848,0.99661 0.149077,0.0786 0.290961,0.14436 0.315321,0.14606 0.02436,0.002 0.121318,-0.0995 0.215469,-0.22493 z"
         id="path1621" /><path
         style="fill:#0033a0;fill-opacity:1;stroke-width:0.219136"
         d="m 66.65002,109.98091 c 0.324923,-0.0902 0.729417,-0.53181 0.830256,-0.90637 0.105904,-0.39325 -0.01294,-0.7926 -0.337027,-1.13291 -0.607641,-0.638 -1.624731,-0.47578 -1.984583,0.31654 -0.164644,0.36253 -0.164994,0.70101 -0.0022,1.05796 0.157956,0.34396 0.338189,0.51038 0.687824,0.63507 0.326459,0.11643 0.472926,0.12184 0.804625,0.0297 z"
         id="path1619" /><path
         style="fill:#0033a0;fill-opacity:1;stroke-width:0.219136"
         d="m 69.972164,112.23564 c 1.320219,-0.60932 0.736018,-2.59061 -0.696332,-2.36157 -0.327621,0.0524 -0.697449,0.31284 -0.888053,0.62543 -0.149931,0.24587 -0.17859,0.76128 -0.05979,1.07485 0.157957,0.41686 0.703195,0.79083 1.153033,0.79083 0.11577,0 0.336786,-0.0583 0.491147,-0.12954 z"
         id="path1617" /><path
         style="fill:#0033a0;fill-opacity:1;stroke-width:0.219136"
         d="m 63.538124,112.33944 c 0.794912,-0.41527 0.955499,-1.42566 0.32089,-2.01901 -0.901824,-0.84319 -2.380635,0.0185 -2.06207,1.20164 0.0918,0.34091 0.377701,0.69285 0.66421,0.81765 0.283265,0.12337 0.840562,0.12322 1.07697,0 z"
         id="path1615" /><path
         style="fill:#0033a0;fill-opacity:1;stroke-width:0.219136"
         d="m 69.027145,116.06939 c 0.789496,-0.39874 0.963152,-1.42261 0.337751,-1.99146 -0.40969,-0.37266 -0.842228,-0.46175 -1.304366,-0.26865 -0.347947,0.14539 -0.504412,0.29498 -0.65772,0.6288 -0.379454,0.82638 0.208913,1.75183 1.133672,1.78314 0.09795,0.003 0.318741,-0.065 0.490663,-0.15183 z"
         id="path1613" /><path
         style="fill:#0033a0;fill-opacity:1;stroke-width:0.219136"
         d="m 65.023206,116.0531 c 0.498251,-0.25766 0.757462,-0.95783 0.567582,-1.53316 -0.103734,-0.31434 -0.475689,-0.64581 -0.850736,-0.75817 -0.530724,-0.159 -1.165158,0.12976 -1.439717,0.65528 -0.127194,0.24348 -0.127414,0.85038 0,1.09452 0.324376,0.62342 1.096001,0.8659 1.723266,0.54153 z"
         id="path1611" /><path
         style="fill:#0033a0;fill-opacity:1;stroke-width:0.219136"
         d="m 91.161622,116.72752 0.350821,-0.0487 -1.261874,-0.83067 c -0.694048,-0.45688 -1.301647,-0.84594 -1.350255,-0.86459 -0.206508,-0.0792 0.02101,-0.14225 0.677209,-0.18743 0.385291,-0.0265 0.883537,-0.0945 1.107225,-0.15092 0.571028,-0.14415 1.62111,-0.6746 1.990262,-1.0054 0.36613,-0.32807 0.404172,-0.27256 -0.604047,-0.88111 -0.760786,-0.45921 -1.478188,-0.75352 -2.259996,-0.92714 -0.318363,-0.0707 -0.578853,-0.14593 -0.578853,-0.16718 0,-0.0212 0.335763,-0.16164 0.746129,-0.31194 0.80228,-0.29387 1.397291,-0.64154 1.954461,-1.142 0.395367,-0.35513 1.018094,-1.04885 1.018094,-1.13415 0,-0.1821 -2.153636,-0.96365 -3.683593,-1.33677 -0.501678,-0.12234 -0.956689,-0.23696 -1.011171,-0.25471 -0.05643,-0.0184 0.195342,-0.21174 0.585336,-0.44953 0.376436,-0.22949 0.799869,-0.51579 0.94101,-0.6362 0.283723,-0.24203 0.92318,-0.97865 0.92318,-1.06342 0,-0.15818 -2.079723,-0.009 -3.683624,0.26465 -2.938326,0.50086 -4.934481,1.30523 -7.472417,3.01107 -1.369396,0.92044 -2.595139,1.58818 -3.490643,1.90161 -0.202606,0.0709 -0.368361,0.15175 -0.368361,0.17966 0,0.0279 0.102609,0.0727 0.228031,0.0996 0.970887,0.20808 3.212443,0.98712 3.410706,1.18538 0.144493,0.14449 0.128794,0.50104 -0.02972,0.67624 -0.183175,0.20241 -0.380288,0.16561 -1.854894,-0.34636 -2.046034,-0.71035 -3.881959,-0.96999 -5.069327,-0.7169 l -0.403443,0.0859 v 0.47533 0.47531 l 0.719179,0.0862 c 2.550477,0.30548 5.524193,1.18022 8.367034,2.46126 1.981878,0.89306 3.740577,1.34049 6.034083,1.53513 0.858032,0.0729 3.587598,0.0847 4.069495,0.0178 z"
         id="path1609" /><path
         style="fill:#0033a0;fill-opacity:1;stroke-width:0.219136"
         d="m 44.923698,125.13886 c 2.700734,-1.03306 5.523248,-2.52525 7.332114,-3.87627 0.644827,-0.48163 1.592125,-1.39389 3.052124,-2.9393 1.5397,-1.62978 3.254612,-2.80264 5.022608,-3.43507 0.344065,-0.12307 0.625576,-0.24631 0.625576,-0.27386 0,-0.0832 -0.151949,-0.49202 -0.182908,-0.49202 -0.01579,0 -0.320649,0.12411 -0.677235,0.27579 -1.129439,0.48042 -2.529579,0.75171 -3.568968,0.69154 -0.570869,-0.033 -0.733343,-0.10838 -0.840233,-0.38954 -0.08194,-0.21547 0.09369,-0.56403 0.306528,-0.60838 0.08613,-0.0179 0.582842,-0.0457 1.103808,-0.0617 0.952692,-0.0292 1.722674,-0.17382 2.355201,-0.44213 0.326371,-0.13846 0.350643,-0.12864 -0.67127,-0.27171 -1.696867,-0.23756 -3.722276,-0.78929 -6.220282,-1.69442 -3.022063,-1.095 -4.783941,-1.46654 -7.834421,-1.65206 -1.10133,-0.0669 -1.699015,-0.0661 -2.876714,0.004 -0.817606,0.0488 -1.611619,0.11055 -1.764444,0.13722 l -0.277892,0.0484 0.312974,0.25392 c 0.935633,0.75912 1.897294,1.27225 3.151625,1.68168 0.445167,0.14531 0.762132,0.28075 0.704378,0.301 -0.05775,0.0202 -0.373402,0.10247 -0.701418,0.18275 -1.031539,0.25244 -2.254033,0.81216 -3.247728,1.48697 l -0.417803,0.28373 0.482113,0.27085 c 1.384858,0.77797 2.863712,1.18315 4.326057,1.18522 0.396205,6.6e-4 0.403924,0.004 0.323433,0.15469 -0.04537,0.0847 -0.924518,0.99722 -1.953666,2.02772 l -1.871203,1.87361 0.705804,0.21409 c 1.745807,0.52956 2.792562,0.71142 4.097433,0.71181 h 0.935897 l -0.429776,0.4981 c -0.480226,0.55658 -0.974837,1.27315 -1.351222,1.95762 -0.263311,0.47883 -0.70611,1.5177 -0.782238,1.83528 -0.02458,0.10254 -0.06611,0.2422 -0.09226,0.31038 -0.03861,0.10064 -0.02219,0.11398 0.08742,0.0709 0.07422,-0.0291 0.450692,-0.17376 0.836593,-0.32137 z"
         id="path1607" /><path
         style="fill:#0033a0;fill-opacity:1;stroke-width:0.219136"
         d="m 86.144913,130.40729 c 0,-0.44076 -0.294379,-1.88955 -0.52237,-2.57094 -0.132326,-0.39539 -0.387042,-1.01053 -0.566044,-1.36698 -0.308828,-0.61488 -0.317142,-0.64628 -0.162324,-0.61281 0.08975,0.0194 0.494724,0.10813 0.899917,0.19717 0.597493,0.1313 0.957739,0.16282 1.906134,0.16687 0.643159,0.003 1.192874,-0.0185 1.22157,-0.0472 0.137629,-0.13762 -1.252768,-1.28065 -2.331868,-1.91699 l -0.825103,-0.48654 1.049562,-0.0437 c 0.7322,-0.0305 1.208654,-0.0877 1.575764,-0.18938 0.510203,-0.14123 1.578206,-0.54732 1.945337,-0.73968 l 0.180383,-0.0946 -0.378747,-0.2852 c -1.25446,-0.94458 -3.319625,-1.99661 -5.044935,-2.56996 -1.378891,-0.45823 -2.47421,-0.69012 -4.157085,-0.88005 -1.437635,-0.16226 -2.673224,-0.39929 -3.649664,-0.70015 -1.660073,-0.51151 -4.758393,-1.91297 -5.798571,-2.62286 l -0.309533,-0.21126 -0.130109,0.16068 -0.13011,0.16068 1.219358,1.20115 c 1.386414,1.36572 2.087219,2.25868 3.305727,4.21224 3.099609,4.96937 6.441136,8.1071 9.825668,9.2264 0.814067,0.26922 0.877043,0.27016 0.877043,0.0131 z"
         id="path1605" /><path
         style="fill:#0033a0;fill-opacity:1;stroke-width:0.219136"
         d="m 60.052651,137.74996 c 1.297811,-1.97226 2.161176,-4.47289 2.512959,-7.27846 0.04028,-0.32127 0.10597,-1.39226 0.145963,-2.37995 0.114674,-2.83261 0.306221,-5.05396 0.635794,-7.37382 0.129868,-0.91409 0.441834,-2.66926 0.524562,-2.95119 0.02105,-0.0719 -0.06131,-0.16208 -0.239939,-0.26249 l -0.272082,-0.15292 -0.317096,0.54314 c -1.061841,1.81888 -2.971304,3.28315 -7.207574,5.52711 -1.824235,0.96633 -2.68668,1.54378 -4.035491,2.70203 -1.199471,1.03002 -4.004816,4.04923 -3.879179,4.17488 0.03905,0.039 1.976885,-0.43949 3.081899,-0.76103 l 0.816466,-0.23757 -0.459529,0.74326 c -0.705826,1.14165 -1.053992,1.91771 -1.249442,2.78507 -0.09476,0.42061 -0.189617,0.82 -0.210754,0.88753 -0.05319,0.17 0.02642,0.15716 0.729856,-0.11771 1.729823,-0.67595 3.047893,-1.30686 4.13826,-1.98082 0.834774,-0.51599 0.822736,-0.58857 0.09874,0.59517 -0.20911,0.3419 -0.388071,0.73457 -0.43166,0.94721 -0.188478,0.91919 -0.355709,3.20483 -0.234479,3.20483 0.145591,0 0.849135,-0.27215 1.31851,-0.51004 1.137682,-0.5766 2.113902,-1.41736 3.029145,-2.60882 0.35744,-0.46531 0.579662,-0.70511 0.555894,-0.59982 -0.4287,1.89769 -0.361497,3.0028 0.321087,5.27982 0.07807,0.26048 0.155259,0.47361 0.171506,0.47361 0.01623,0 0.221718,-0.29206 0.456591,-0.64902 z"
         id="path1603" /><path
         style="fill:#0033a0;fill-opacity:1;stroke-width:0.219136"
         d="m 67.99769,137.56129 c 0.274844,-0.8316 0.345271,-1.60665 0.271314,-2.98623 -0.03515,-0.65604 -0.061,-1.19769 -0.05742,-1.20366 0.0035,-0.006 0.256647,0.52552 0.562385,1.18114 0.842514,1.80662 2.148459,4.05693 2.354411,4.05693 0.08052,0 0.458477,-1.16185 0.639127,-1.96459 0.07382,-0.32802 0.151466,-0.89634 0.172559,-1.26294 0.02105,-0.36661 0.05495,-0.80316 0.07523,-0.97013 l 0.03692,-0.30355 0.784233,0.79471 c 0.431333,0.43709 1.036824,0.99742 1.345544,1.24519 0.622742,0.49979 1.710397,1.23037 1.759134,1.18161 0.08655,-0.0865 0.317232,-1.38995 0.391035,-2.20935 0.114776,-1.27446 -0.02461,-2.43365 -0.478875,-3.98339 -0.02261,-0.0771 0.36562,0.25519 0.862795,0.73859 0.943271,0.91715 1.808648,1.5529 2.775533,2.03903 0.300252,0.15098 0.57648,0.27451 0.613802,0.27451 0.08435,0 -0.127523,-0.48735 -0.841943,-1.93628 -1.457987,-2.95695 -3.266154,-5.69288 -4.895086,-7.40673 -0.372636,-0.39206 -1.214294,-1.19429 -1.870325,-1.78273 -2.206125,-1.97881 -3.450063,-3.43221 -4.079454,-4.76634 -0.109213,-0.23154 -0.203518,-0.43073 -0.20957,-0.44267 -0.0061,-0.0119 -0.182777,0.0282 -0.392763,0.0892 l -0.381823,0.11099 0.124935,0.64742 c 0.230334,1.19355 0.292693,2.16598 0.25248,3.93762 -0.03935,1.7347 -0.160039,2.78496 -0.469921,4.08973 -0.428306,1.80339 -0.637635,3.7278 -0.639719,5.881 -0.0024,2.4268 0.213474,4.21131 0.686509,5.67654 l 0.111078,0.3441 0.159469,-0.26423 c 0.08773,-0.14534 0.240004,-0.50785 0.338409,-0.80559 z"
         id="path1601" /></g></g></svg>
