<?xml version="1.0" encoding="UTF-8" standalone="no"?>
<!-- Created with Inkscape (http://www.inkscape.org/) -->

<svg
   version="1.1"
   id="svg1"
   width="600"
   height="300"
   viewBox="0 0 600 300"
   sodipodi:docname="Balvu_novada_karogs.svg"
   inkscape:version="1.3.2 (091e20e, 2023-11-25, custom)"
   xmlns:inkscape="http://www.inkscape.org/namespaces/inkscape"
   xmlns:sodipodi="http://sodipodi.sourceforge.net/DTD/sodipodi-0.dtd"
   xmlns="http://www.w3.org/2000/svg"
   xmlns:svg="http://www.w3.org/2000/svg">
  <defs
     id="defs1" />
  <sodipodi:namedview
     id="namedview1"
     pagecolor="#ffffff"
     bordercolor="#000000"
     borderopacity="0.25"
     inkscape:showpageshadow="2"
     inkscape:pageopacity="0.0"
     inkscape:pagecheckerboard="0"
     inkscape:deskcolor="#d1d1d1"
     inkscape:zoom="0.2096277"
     inkscape:cx="398.32522"
     inkscape:cy="550.97681"
     inkscape:window-width="1920"
     inkscape:window-height="1009"
     inkscape:window-x="3832"
     inkscape:window-y="-8"
     inkscape:window-maximized="1"
     inkscape:current-layer="g1" />
  <g
     inkscape:groupmode="layer"
     inkscape:label="Image"
     id="g1">
    <rect
       style="fill:#a7a9ac;fill-opacity:1;fill-rule:evenodd;stroke:none;stroke-width:0.383093;paint-order:markers fill stroke"
       id="rect1"
       width="600"
       height="100"
       x="0"
       y="200" />
    <rect
       style="fill:#ffffff;fill-opacity:1;fill-rule:evenodd;stroke:none;stroke-width:0.540989;paint-order:markers fill stroke"
       id="rect1-9"
       width="600"
       height="199.41951"
       x="0"
       y="0.58049697" />
    <g
       id="g2"
       transform="matrix(0.24254425,0,0,0.23922966,272.75246,38.546889)"
       style="opacity:1">
      <path
         id="path844"
         style="fill:#8e2140;fill-opacity:1;fill-rule:evenodd;stroke:#000000;stroke-width:7.00003;stroke-linejoin:round;stroke-miterlimit:5;stroke-dasharray:none;stroke-dashoffset:0"
         d="M -134.15949,13.500015 V 340 c 0,136.1382 110.361807,246.49999 246.49999,246.49999 136.13819,0 246.50001,-110.36178 246.50001,-246.49999 V 13.500015 Z" />
      <path
         id="path865"
         style="fill:#8f908b;fill-opacity:1;fill-rule:evenodd;stroke:#000000;stroke-width:3;stroke-linejoin:round;stroke-miterlimit:5;stroke-dasharray:none;stroke-dashoffset:0"
         d="m 132.97331,401.4922 c 5.20169,7.36104 5.94003,13.72887 -1.56445,20.04884 -7.50444,6.3199 -8.28657,16.61632 -2.86328,21.61523 5.42329,4.999 3.94437,7.73496 -1.51367,11.95507 -4.28979,3.31679 -7.01117,7.19803 -6.98633,12.26562 a 148.49333,148.49333 0 0 0 -7.70508,-0.20107 148.49333,148.49333 0 0 0 -1.4375,0.008 c -1.16739,-2.87471 -2.02419,-6.34477 -2.43164,-11.63085 -0.69674,-9.03931 -0.46062,-15.52608 -7.6875,-18.56055 -7.226868,-3.03447 -8.247559,-8.44002 -5.460936,-16.52931 2.786626,-8.08924 -5.226452,-15.41722 -10.740231,-18.55079 6.893749,5.80676 9.217501,11.78102 3.554687,19.79297 -5.662809,8.01192 -3.81761,18.17133 2.693364,21.63674 6.510958,3.46541 5.774309,6.48624 1.560536,11.9492 -3.342497,4.33331 -4.997907,8.81904 -3.624998,13.76954 a 148.49333,148.49333 0 0 0 -8.27148,1.57032 c -1.804158,-2.3969 -3.493678,-5.43304 -5.238278,-10.17578 -3.129902,-8.50869 -4.66741,-14.81782 -12.447273,-15.77147 -7.779859,-0.95369 -10.232489,-5.87766 -9.751948,-14.41996 0.48054,-8.54226 -9.224459,-13.41256 -15.382806,-14.92773 8.213575,3.71206 12.075897,8.82962 8.806636,18.08008 -3.269261,9.25036 1.270299,18.52283 8.478512,20.08596 7.208216,1.5631 7.320378,4.67282 4.751958,11.07617 -1.769431,4.41124 -2.289611,8.5863 -0.648438,12.48435 a 148.49333,148.49333 0 0 0 -9.234384,3.91408 c -2.004797,-1.85806 -4.068718,-4.31044 -6.458978,-8.00977 -4.920219,-7.61484 -7.803956,-13.43066 -15.603516,-12.65431 -7.79956,0.77624 -11.27264,-3.49009 -12.67773,-11.92966 -1.40508,-8.43961 -11.9424696,-11.06211 -18.2831996,-11.18948 8.82784,1.81984 13.7169796,5.9647 12.55664,15.70704 -1.16037,9.74226 5.3060996,17.79424 12.6816396,17.7383 7.37554,-0.0563 8.1656,2.95087 7.06445,9.76169 -0.68648,4.24573 -0.41829,8.07832 1.45897,11.32033 a 148.49333,148.49333 0 0 0 -8.9785,6.41601 c -2.00408,-1.34007 -4.17296,-3.12155 -6.74219,-5.70701 -6.3904496,-6.43083 -10.4150296,-11.52503 -17.8847596,-9.15039 -7.4697604,2.37453 -11.7507304,-1.07928 -14.8730504,-9.04494 -3.12232,-7.96588 -13.97348,-8.3506 -20.20313,-7.16209 9.01334,-0.048 14.65485,2.99418 15.53711,12.76562 0.88223,9.77136 8.87408,16.31074 16.0781304,14.72852 7.20402002,-1.58234 8.60046,1.19667 8.93359,8.08788 0.18652,3.85985 1.0604,7.2344 3.05469,9.89843 a 148.49333,148.49333 0 0 0 -6.47655998,7.16406 c -1.97384002,-1.14255 -4.14147002,-2.67897 -6.69727002,-4.85352 -6.9049704,-5.87497 -11.3405104,-10.61295 -18.5859404,-7.62304 -7.24546,2.98983 -11.79981,-0.0964 -15.57617,-7.77343 -3.77638,-7.67743 -14.62177,-7.15355 -20.73047,-5.44921 8.9779,-0.79997 14.85202,1.76013 16.54688,11.42381 1.69482,9.66365 10.20512,15.51209 17.25195,13.33399 7.0468,-2.17815 8.67091,0.47504 9.57813,7.31444 0.6188,4.66549 2.19325,8.5276 5.4707,11.11718 a 148.49333,148.49333 0 0 0 -5.24219,9.12892 c 37.94543,24.16652 82.991366,38.17383 131.312493,38.17383 48.32113,0 93.36705,-14.00731 131.31249,-38.17383 a 148.49333,148.49333 0 0 0 -2.12501,-3.88475 c 1.81781,-3.74971 4.12887,-7.19403 9.92776,-12.00586 6.97686,-5.78937 12.41137,-9.34379 10.71485,-16.99612 -1.69655,-7.65218 2.12674,-11.60693 10.33984,-14.0039 8.21337,-2.39688 9.5675,-13.17137 8.94138,-19.48241 -0.75908,8.98144 -4.29426,14.33019 -14.10546,14.33397 -9.81108,0.004 -17.03864,7.37858 -16.1074,14.69533 0.93124,7.31664 -1.96214,8.45877 -8.85547,8.17384 -5.84776,-0.24189 -10.72293,1.19376 -13.99026,5.86522 a 148.49333,148.49333 0 0 0 -5.15036,-6.10742 c 1.00531,-3.14562 2.67904,-6.49712 6.1621,-11.10156 5.46928,-7.23047 9.94712,-11.93205 6.54686,-18.99413 -3.40029,-7.06216 -0.58087,-11.78578 6.86721,-15.9961 7.44813,-4.21032 6.30376,-15.00888 4.25193,-21.00979 1.31335,8.91727 -0.90637,14.92974 -10.457,17.1758 -9.55057,2.2461 -14.90279,11.07795 -12.32425,17.98828 2.57858,6.9103 0.0227,8.6846 -6.75194,9.98242 -4.6185,0.88456 -8.38159,2.67488 -10.77928,6.08984 a 148.49333,148.49333 0 0 0 -7.5176,-5.79882 c 0.7649,-2.45605 1.96112,-5.20566 3.97852,-8.68165 4.55074,-7.84116 8.42415,-13.05154 4.19139,-19.64844 -4.23274,-6.59694 -2.00667,-11.62919 4.87502,-16.71288 6.88172,-5.08362 4.43335,-15.6618 1.66794,-21.36915 2.38658,8.69178 0.91416,14.93099 -8.29296,18.32032 -9.20708,3.38925 -13.44552,12.80356 -10.04686,19.34959 3.39871,6.54607 1.07611,8.61744 -5.49218,10.72853 -4.14595,1.33251 -7.4663,3.34881 -9.4961,6.56251 a 148.49333,148.49333 0 0 0 -8.70705,-4.15627 c 0.37569,-2.45999 1.10366,-5.26526 2.459,-8.83983 3.21422,-8.47721 6.18735,-14.24817 0.93751,-20.06838 -5.24987,-5.82017 -3.8728,-11.14545 2.08986,-17.28125 5.96265,-6.13572 1.82717,-16.17615 -1.83009,-21.35739 3.76917,8.18755 3.32973,14.58331 -5.20312,19.42575 -8.53285,4.84241 -11.18234,14.82282 -6.7637,20.72852 4.41865,5.9057 2.46535,8.32471 -3.67188,11.47657 -4.10642,2.1089 -7.16988,4.82895 -8.5488,8.66604 a 148.49333,148.49333 0 0 0 -9.58791,-2.27584 c -0.24529,-2.81945 -0.0998,-6.13198 0.72461,-10.69727 1.61129,-8.92176 3.47883,-15.1393 -2.74609,-19.90235 -6.22489,-4.763 -5.84477,-10.25109 -1.10351,-17.37305 4.74127,-7.12191 -1.15879,-16.23629 -5.70118,-20.66211 z" />
      <path
         style="fill:#000000;fill-rule:evenodd;stroke:none;stroke-width:0.999999;stroke-linejoin:round;stroke-miterlimit:5;stroke-dasharray:none;stroke-dashoffset:0"
         d="m 210.78293,348.9007 c 0,-0.25852 1.04753,-1.33803 2.32788,-2.39913 5.79016,-4.79871 7.16705,-6.30361 8.51456,-9.30629 2.53293,-5.64408 4.04054,-15.62672 3.04475,-20.16057 -0.24983,-1.13699 -0.61395,-1.50429 -1.49155,-1.50429 -1.01223,0 -1.27098,0.43726 -2.01748,3.40925 -2.02136,8.04779 -6.40123,12.45131 -14.88926,14.96969 -3.92836,1.16557 -12.29892,1.07542 -17.57382,-0.18898 -4.19988,-1.0069 -11.13278,-3.82828 -10.63362,-4.32741 0.14891,-0.14891 2.1182,-0.71206 4.37609,-1.25136 10.86931,-2.59608 14.68615,-7.68779 14.05621,-18.75137 -0.37822,-6.64286 -1.44945,-14.69802 -1.89052,-14.21582 -0.20409,0.22299 -1.09852,2.45125 -1.98769,4.95137 -2.46365,6.92727 -8.70576,19.16745 -12.34545,24.20829 -11.19288,15.50184 -25.40681,23.5477 -42.97871,24.32825 -7.77535,0.34545 -17.55998,-1.02308 -21.66109,-3.0296 -4.19982,-2.05477 -13.44171,-11.18623 -13.44171,-13.28107 0,-0.27212 1.53482,-0.19956 3.66181,0.17386 7.56589,1.32775 15.06071,0.34545 20.72017,-2.71551 5.14613,-2.7834 9.86286,-8.58327 12.47353,-15.33797 1.64097,-4.24573 3.31092,-10.96626 2.84157,-11.43564 -0.16554,-0.16554 -0.37644,-0.20636 -0.4687,-0.0907 -0.0922,0.11566 -1.61068,2.14235 -3.37444,4.50357 -4.59041,6.14536 -9.46536,10.73859 -13.50894,12.72821 -3.11786,1.53411 -3.77181,1.6665 -8.23242,1.6665 -4.67382,0 -4.99627,-0.0748 -9.10023,-2.11306 -2.3401,-1.16216 -5.49636,-3.22809 -7.01391,-4.59091 l -2.759167,-2.4779 3.803407,-0.28762 c 8.64743,-0.65397 13.21066,-5.16575 14.94269,-14.77414 1.28521,-7.12966 0.33207,-10.34033 -5.7729,-19.44582 -3.97087,-5.92252 -6.70908,-8.30732 -13.426249,-11.69325 -11.578987,-5.83669 -23.287918,-8.09983 -36.593389,-7.07293 -16.286498,1.25699 -31.637485,4.18753 -36.336255,6.9366 -2.57721,1.50785 -3.72419,3.00911 -7.26613,9.51058 -4.01023,7.36105 -6.1398,9.52218 -10.9473096,11.10969 -14.74737,4.8697 -19.9895904,3.41817 -27.4296704,-7.59518 -1.33874,-1.98172 -3.36004,-4.67297 -4.49177,-5.98058 -2.67702,-3.09305 -4.05167,-5.84364 -4.05167,-8.10708 0,-3.34583 1.64178,-4.84105 6.06092,-5.51993 4.04,-0.62063 3.88388,-0.44644 4.22026,-4.70847 0.16932,-2.14536 0.50114,-5.1156 0.73736,-6.60053 0.31952,-2.00855 0.26937,-2.76132 -0.19586,-2.93984 -0.34393,-0.13198 -2.26959,0.24971 -4.27923,0.84821 -15.04467,4.48049 -28.36156,5.20192 -40.6361,2.20142 -4.72322,-1.15459 -12.37005,-3.7369 -15.15229,-5.11688 -11.39022,-5.64949 -19.9675,-17.09878 -21.389347,-28.55137 -0.88185,-7.10307 1.055177,-18.36427 4.239817,-24.64886 4.70842,-9.29161 13.53142,-15.80479 24.47314,-18.06619 2.63902,-0.54542 4.87089,-0.92022 4.95969,-0.83288 0.0888,0.0873 -0.87344,1.94229 -2.13834,4.12212 -2.71521,4.67919 -5.07393,10.90033 -5.87338,15.49108 -1.32587,7.61374 1.58861,15.774 7.78216,21.78932 4.19492,4.07419 7.82152,6.16989 13.95769,8.06571 11.33895,3.50327 29.70073,2.73555 49.4974804,-2.06952 2.91681002,-0.70797 5.48568,-1.45685 5.70859,-1.66417 0.22292,-0.20731 -0.73202,-1.24427 -2.12205998,-2.30433 -2.73318002,-2.08435 -5.19434002,-5.19229 -6.40357002,-8.08637 -0.5817,-1.3922 -3.24388,-13.06747 -3.24388,-14.22636 0,-0.11747 -0.8523104,-0.14306 -1.8940304,-0.0568 -1.74617,0.14453 -2.02061,0.39336 -3.51524,3.18722 -2.3308,4.35686 -5.72381,15.04228 -6.06878,19.11205 -0.17828,2.10315 -0.54524,3.55155 -0.93803,3.70227 -1.22406,0.46972 -4.36864,-1.52361 -6.04507,-3.83192 -2.91245,-4.01023 -3.50967,-6.76762 -3.50967,-16.20448 v -8.3339 l -3.61642,-0.28165 c -4.59646,-0.358 -6.93575,-1.80431 -8.9733,-5.54797 -2.65541,-4.87887 -3.41597,-8.84763 -3.69398,-19.27608 -0.13856,-5.1966 -0.10265,-10.24384 0.0798,-11.21611 0.2612,-1.3923 0.97248,-2.25513 3.34893,-4.06244 1.65953,-1.26208 3.14034,-2.29469 3.29071,-2.29469 0.71122,0 9.37656,-6.14737 16.88791,-11.98063 6.38113,-4.95554 8.36442,-6.76577 8.4646,-7.72599 0.18278,-1.75171 -0.36158,-2.37212 -2.42018,-2.75831 -1.65126,-0.30977 -2.12779,-0.0632 -6.49799,3.3629 -10.47345,8.21077 -16.05582,12.73065 -17.84789,14.45093 l -1.88649,1.81091 -1.24974,-1.17407 c -3.8941,-3.65832 -10.92524,-23.26385 -11.73157,-32.71213 -0.30829,-3.61234 -0.29699,-3.65695 1.30552,-5.15391 1.96396,-1.83461 5.86083,-3.72871 10.09093,-4.90479 2.96787,-0.825135 3.40447,-0.826695 7.57552,-0.0272 9.47305,1.81596 31.4115104,8.43835 36.6731804,11.07023 1.38896002,0.69477 3.77545,1.971 5.3033,2.83608 1.52786,0.86508 3.3009,1.57698 3.9401,1.58201 0.63919,0.005 3.2529596,-0.87682 5.8083796,-1.95965 15.665,-6.63797 64.372512,-16.970345 87.226173,-18.503375 6.22856,-0.41782 8.89377,-1.18749 15.72998,-4.54259 3.09797,-1.52043 5.93218,-2.76442 6.29823,-2.76442 0.36604,0 3.33969,-0.91493 6.60809,-2.03317 9.51542,-3.25556 21.18121,-6.45125 30.31301,-8.30384 16.01268,-3.24853 23.1233,-3.76176 39.28803,-2.83571 l 7.07108,0.40509 1.69153,-1.47336 c 4.00108,-3.48505 17.1882,-7.46645 34.9265,-10.54486 10.8977,-1.89125 26.7013,-0.81839 36.36548,2.46874 l 2.77791,0.94488 0.14854,4.23584 c 0.50343,14.35322 -10.89657,39.556015 -23.20656,51.304395 -3.7886,3.61578 -15.23838,11.43908 -21.06531,14.39336 -4.1065,2.082 -11.88699,4.10582 -19.01121,4.9451 -5.69466,0.67086 -13.42103,1.92006 -13.71908,2.21809 -0.12397,0.12378 0.98044,0.50176 2.45385,0.83995 1.47341,0.33819 4.60101,1.15928 6.95021,1.82467 6.42596,1.8201 10.99896,1.67046 18.51942,-0.60598 13.50078,-4.08666 31.24963,-15.44156 37.77649,-24.16765 4.36853,-5.84055 8.71348,-15.47942 10.06591,-22.330295 l 0.58265,-2.95149 6.61844,-0.0751 c 7.70249,-0.0875 11.48285,-0.7567 15.38914,-2.72437 3.53337,-1.77983 7.75571,-6.28049 10.62754,-11.32799 1.19448,-2.09944 2.40881,-3.73821 2.69855,-3.64171 0.28989,0.0965 1.16379,1.97484 1.94241,4.1741 1.31974,3.72769 1.39888,4.39226 1.16795,9.80704 -0.69884,16.385025 -9.08772,29.991795 -22.2816,36.140835 -5.61846,2.6185 -8.77928,3.2379 -19.43924,3.80938 -5.41353,0.29019 -9.93616,0.62104 -10.0503,0.73516 -0.61874,0.61875 2.95673,4.49929 5.21639,5.66142 5.7131,2.93821 16.45924,0.8296 27.73856,-5.44287 2.89013,-1.6072 5.88382,-3.33437 6.65265,-3.83812 l 1.39793,-0.91594 -0.36926,3.74614 c -0.77276,7.84241 -4.02459,14.9917 -9.57815,21.05804 -5.22898,5.71179 -13.22975,10.21635 -22.42541,12.62585 -4.1554,1.08883 -6.38445,1.32434 -14.63237,1.54599 -8.15145,0.21907 -9.63719,0.37353 -9.15711,0.952 1.99982,2.40966 15.44179,3.94539 24.24756,2.77026 10.48407,-1.39909 14.64846,-3.30652 20.73188,-9.49598 2.40552,-2.44743 4.94305,-5.13173 5.63905,-5.9651 0.69593,-0.83337 1.45331,-1.32768 1.68303,-1.09845 0.65491,0.65352 0.32088,6.55766 -0.56894,10.05134 -1.93995,7.61826 -8.27387,17.374 -12.38592,19.07727 -1.79706,0.74437 -1.78678,0.62284 -0.50529,5.96821 1.17963,4.92067 1.21584,6.5512 0.26419,11.89169 -1.67535,9.40009 -7.53672,15.96944 -16.25038,18.21313 -4.45905,1.1482 -11.94172,1.0414 -16.96891,-0.24215 -5.22621,-1.33437 -9.18259,-3.17133 -14.44433,-6.70656 -4.44068,-2.98359 -6.05771,-3.53404 -9.61274,-3.27225 l -2.18532,0.16093 4.03775,2.78199 c 2.22077,1.5301 6.21966,4.68845 8.88646,7.01855 14.67707,12.82407 23.25592,17.22104 33.59973,17.22104 5.28412,0 9.06078,-1.02632 12.67019,-3.4432 5.57714,-3.73446 7.87623,-9.17712 7.44506,-17.62484 -0.2502,-4.89846 -0.20901,-5.19593 0.71566,-5.19593 1.68464,0 3.71875,1.36097 6.37035,4.26222 3.59411,3.93253 4.34332,6.45335 4.04326,13.60373 -0.4795,11.42712 -5.33336,20.05178 -14.88532,26.44916 -5.69129,3.81171 -11.44222,5.40112 -20.3613,5.62735 -6.47354,0.16403 -12.16411,-1.13695 -21.7547,-4.97425 -4.22294,-1.68966 -7.77793,-2.97224 -7.89997,-2.85021 -0.61545,0.61544 1.28667,2.57782 4.55048,4.69463 4.66261,3.02409 12.563,10.95277 15.71943,15.77583 5.20543,7.95383 8.8492,16.13133 11.16998,25.06788 0.71777,2.7638 2.2266,7.97985 3.35301,11.59116 1.85151,5.93606 2.25747,6.76471 4.23141,8.63736 2.46122,2.33488 4.52076,3.02305 10.50308,3.50952 l 3.95807,0.322 -1.11167,1.1833 c -1.56567,1.66658 -7.35908,4.61166 -10.87148,5.5265 -5.7185,1.48951 -11.51523,0.72457 -17.74287,-2.34131 -5.46565,-2.69072 -11.10713,-9.33868 -15.44553,-18.2011 -1.45508,-2.97245 -2.82974,-5.41573 -3.05477,-5.42956 -0.22526,-0.0151 -0.25058,3.78675 -0.0567,8.44569 0.29291,7.04365 0.21581,8.937 -0.45914,11.23794 -3.02207,10.30533 -16.23976,22.57814 -27.46548,25.5021 -3.17103,0.8259 -11.25786,1.02799 -11.25786,0.28119 z M -1.2559726,255.61231 c 3.55098,-0.99634 3.58427,-1.17812 1.44371002,-7.88234 -0.82148,-2.57291 -1.64602002,-5.64395 -1.83232002,-6.82458 -0.18629,-1.1806 -0.48012,-2.1521 -0.65296,-2.15888 -0.88484,-0.0348 -9.6166704,4.37792 -9.5193004,4.81054 0.16528,0.73442 7.1441504,12.87001 7.4041504,12.87513 0.12068,0.003 1.54119,-0.36658 3.15672,-0.81987 z M 19.616017,247.3379 c 0.48815,-0.78983 3.73895,-2.3876 13.6326,-6.70046 11.298225,-4.92513 13.508176,-5.74568 18.074264,-6.71092 14.592752,-3.08482 30.648132,-1.38037 42.348782,4.49577 l 5.369737,2.6967 0.311282,-2.64835 c 0.402932,-3.42832 -0.491259,-14.38565 -1.441568,-17.66494 -1.12729,-3.89002 -7.775112,-12.20203 -12.933679,-16.17145 -8.57647,-6.59945 -21.260391,-11.43911 -35.673861,-13.61167 -5.166009,-0.77869 -20.944597,-0.94203 -30.789057,-0.31874 -6.12439,0.38775 -6.74053,0.80068 -9.4170796,6.31113 -2.54011,5.22951 -3.92929,10.09449 -4.25068,14.88605 l -0.28199,4.20439 1.96757,-0.84573 c 11.1205696,-4.77996 28.3897996,-8.29163 40.8584366,-8.30853 12.61245,-0.017 22.138462,2.62371 31.8576,8.83158 5.088971,3.25045 13.346721,12.54002 13.346721,15.0144 0,0.48985 -0.0898,0.89063 -0.199635,0.89063 -0.109795,0 -1.821751,-0.69027 -3.804321,-1.53393 -12.3783,-5.26744 -21.706378,-7.66046 -29.827759,-7.65202 -10.567668,0.011 -21.308623,1.9826 -34.590953,6.34952 -5.28638,1.73803 -11.4867,3.69784 -13.77848,4.35513 -2.2917796,0.6573 -4.1668796,1.44305 -4.1668796,1.74611 0,1.42462 5.4447996,7.83869 9.0913696,10.70981 2.83456,2.23177 3.73651,2.58342 4.29761,1.67552 z M 128.96057,206.73857 c 0,-0.11025 -2.32967,-1.74925 -5.17704,-3.64222 -7.67193,-5.10043 -14.70166,-12.44848 -19.15186,-20.0191 -2.52394,-4.2937 -2.72197,-4.47444 -4.712988,-4.30154 -1.357962,0.11793 -1.531491,0.32802 -1.671901,2.02415 -0.348812,4.21382 5.680879,12.3402 13.560509,18.27583 4.8362,3.64306 10.99968,7.0386 13.61774,7.50218 1.78994,0.31696 3.53554,0.3963 3.53554,0.1607 z m 150.26019,-9.41711 c 3.67222,-1.38624 6.48083,-4.03792 7.35016,-6.93942 0.35225,-1.17554 0.53737,-2.24034 0.41151,-2.36621 -0.12585,-0.12586 -1.95337,0.31876 -4.06106,0.9881 -6.48832,2.06042 -9.89114,2.42045 -20.64605,2.1844 l -9.99821,-0.21944 0.99073,1.25947 c 4.50928,5.73265 17.50356,8.28268 25.95292,5.0931 z M 117.07773,181.65864 c -1.9371,-1.95915 -5.45391,-5.26057 -7.81514,-7.33649 -4.22928,-3.71825 -6.03689,-5.88916 -10.242869,-12.30157 -2.653561,-4.0456 -3.478851,-4.61098 -4.87985,-3.34309 -0.57185,0.51751 -1.039718,1.11046 -1.039718,1.31767 0,0.77447 4.70527,6.59678 8.224397,10.17691 5.90701,6.00939 17.1247,14.98831 18.78364,15.03487 0.27035,0.008 -1.09337,-1.58914 -3.03046,-3.5483 z m 0.89103,-9.44361 c -7.0707,-6.93526 -14.40332,-15.63603 -16.28383,-19.32214 -1.09739,-2.15105 -3.002668,-3.76085 -3.666039,-3.09748 -1.358151,1.35815 3.998219,9.79933 10.300359,16.2325 5.48053,5.59447 14.76555,13.07353 16.28651,13.11874 0.24389,0.007 -2.74277,-3.11198 -6.637,-6.93162 z m 77.42155,-51.22109 c 1.36331,-2.03827 4.90964,-6.33611 7.88077,-9.55075 4.96951,-5.37684 7.27491,-7.41523 17.36005,-15.349385 4.29774,-3.38112 18.2685,-11.41761 25.47182,-14.65234 2.89739,-1.3011 6.77639,-3.12527 8.62004,-4.05371 1.84362,-0.92844 4.17343,-1.84216 5.17735,-2.0305 1.81266,-0.34004 2.70441,-1.36284 2.07549,-2.38046 -0.50948,-0.82434 -10.48936,-0.0409 -14.8464,1.1655 -15.02891,4.1612 -33.04622,18.70116 -48.09857,38.815535 -4.10177,5.48115 -9.97651,14.57685 -9.94548,15.39829 0.034,0.85754 3.57048,-3.27384 6.30493,-7.36218 z"
         id="path1022" />
      <path
         id="path1028"
         style="fill:#ffffff;fill-rule:evenodd;stroke:none;stroke-width:0.999999;stroke-linejoin:round;stroke-miterlimit:5;stroke-dasharray:none;stroke-dashoffset:0"
         d="m -9.5980726,257.27768 c 0.2829,-0.2829 -4.5488004,-8.38982 -5.0092804,-8.40491 -0.20837,-0.007 -0.37881,2.06479 -0.37881,4.60362 v 4.61602 l 2.59387,-0.3072 c 1.42664,-0.16894 2.6840304,-0.39734 2.7942204,-0.50753 z m 20.1435496,-5.93648 3.41469,-1.05469 -4.8572896,-4.8573 c -2.67151,-2.67151 -4.98215,-4.73242 -5.13476,-4.57982 -0.54815,0.54814 1.84802,11.5465 2.51559,11.5465 0.35588,0 2.18369,-0.47461 4.0617696,-1.05469 z M 3.4019974,202.83023 c 0.99426,-3.23211 2.47906,-7.15277 3.29957,-8.71257 l 1.49182,-2.836 h -4.45558 c -2.45056,0 -5.16583,0.14203 -6.03393,0.31566 l -1.57836,0.31567 v 3.61883 c 0,4.39992 0.97869,8.35736 3.10294002,12.5471 1.48581,2.93051 1.62582,3.06405 1.98226998,1.89055 0.21093,-0.69448 1.19702,-3.90714 2.19127,-7.13925 z m -24.4868604,-2.66677 c 1.68849,-4.69884 3.01277,-8.59284 2.94285,-8.65334 -0.0699,-0.0605 -2.22953,-0.20667 -4.7991,-0.32478 l -4.67196,-0.21479 0.017,2.30212 c 0.0593,8.0283 1.77267,17.15181 2.98639,15.90234 0.25016,-0.25753 1.83632,-4.31273 3.52481,-9.01156 z M 143.38413,146.77499 c 1.23416,-0.31075 2.24394,-0.79171 2.24394,-1.06876 0,-0.83313 -3.30002,-5.03032 -5.89807,-7.50149 -5.26302,-5.00604 -6.63048,-5.46154 -8.99308,-2.99551 -2.27241,2.37188 -5.09405,3.20404 -9.99237,2.94695 -5.51042,-0.28921 -8.1998,-1.66902 -9.88865,-5.07337 -1.4875,-2.99849 -1.67549,-8.3959 -0.37969,-10.90171 0.46639,-0.90189 0.71163,-1.86038 0.54498,-2.13003 -0.3835,-0.62052 -6.81502,-0.63096 -7.79233,-0.0125 -0.44396,0.28089 -1.05868,2.4187 -1.5674,5.45099 -0.46033,2.74388 -1.15441,5.64913 -1.54241,6.45608 -0.941927,1.95907 -3.744428,3.77776 -5.821278,3.77776 -1.36111,0 -1.742381,0.23479 -1.991221,1.22624 -0.438769,1.74822 0.141883,3.1621 1.44167,3.51056 0.615833,0.16509 2.71694,0.30327 4.669123,0.30709 4.191876,0.008 5.794486,0.83983 5.794486,3.00709 0,1.0466 0.30335,1.51527 1.13642,1.75583 0.62503,0.18048 7.58489,0.53773 15.46635,0.79387 7.88146,0.25615 14.45376,0.58955 14.60512,0.7409 0.48303,0.48303 5.64045,0.29533 7.96441,-0.28985 z m -17.5677,-12.56907 c 1.81732,-1.10802 2.64318,-2.74253 2.63133,-5.20779 -0.0113,-2.31744 -0.37723,-2.67079 -4.54962,-4.39134 -5.36754,-2.2134 -5.76178,-2.06501 -5.94805,2.23878 -0.18013,4.16134 0.51906,6.12912 2.63647,7.42032 1.98394,1.20981 3.16954,1.19621 5.22987,-0.06 z" />
    </g>
  </g>
</svg>
