<?xml version="1.0" encoding="UTF-8" standalone="no"?>
<svg
   xmlns:dc="http://purl.org/dc/elements/1.1/"
   xmlns:cc="http://creativecommons.org/ns#"
   xmlns:rdf="http://www.w3.org/1999/02/22-rdf-syntax-ns#"
   xmlns:svg="http://www.w3.org/2000/svg"
   xmlns="http://www.w3.org/2000/svg"
   xmlns:sodipodi="http://sodipodi.sourceforge.net/DTD/sodipodi-0.dtd"
   xmlns:inkscape="http://www.inkscape.org/namespaces/inkscape"
   width="700"
   height="90"
   viewBox="0 0 185.20833 23.812501"
   version="1.1"
   id="svg847"
   sodipodi:docname="svg.svg"
   inkscape:version="1.0.2 (e86c870879, 2021-01-15, custom)">
  <defs
     id="defs841" />
  <sodipodi:namedview
     id="base"
     pagecolor="#ffffff"
     bordercolor="#666666"
     borderopacity="1.0"
     inkscape:pageopacity="0.0"
     inkscape:pageshadow="2"
     inkscape:zoom="3.959798"
     inkscape:cx="102.91347"
     inkscape:cy="29.438679"
     inkscape:document-units="px"
     inkscape:current-layer="layer1"
     inkscape:document-rotation="0"
     showgrid="false"
     inkscape:snap-smooth-nodes="true"
     inkscape:showpageshadow="false"
     borderlayer="true"
     units="px"
     inkscape:window-width="1920"
     inkscape:window-height="1017"
     inkscape:window-x="-8"
     inkscape:window-y="-4"
     inkscape:window-maximized="1" />
  <metadata
     id="metadata844">
    <rdf:RDF>
      <cc:Work
         rdf:about="">
        <dc:format>image/svg+xml</dc:format>
        <dc:type
           rdf:resource="http://purl.org/dc/dcmitype/StillImage" />
        <dc:title></dc:title>
      </cc:Work>
    </rdf:RDF>
  </metadata>
  <g
     inkscape:label="Layer 1"
     inkscape:groupmode="layer"
     id="layer1"
     transform="translate(-23.697535,-78.163756)">
    <g
       transform="matrix(0.20565702,0,0,0.26286519,-84.654,-60.383514)"
       id="g852"
       style="stroke-width:1.13795">
      <path
         fill="#ffc726"
         d="m 527.14,617.36 v -90 l 900,30 v 30 z"
         id="path846"
         style="fill:#ed1b2d;fill-opacity:1;stroke-width:1.28574" />
      <path
         id="path969"
         style="fill:#ffd51f;fill-opacity:1;stroke-width:1.13838"
         d="m 178.54492,299.49805 v 41.3164 h 616.77539 v -15.0332 z"
         transform="matrix(1.2756297,0,0,1,412.60554,231.6457)" />
      <path
         d="m 527.14,617.36 v -90 l 900,30 v 30 z"
         stroke="#000000"
         stroke-dasharray="none"
         stroke-miterlimit="4"
         stroke-width="0.568976"
         fill="none"
         id="path850"
         style="stroke:#ed1b2d;stroke-opacity:1" />
    </g>
    <g
       id="layer2"
       inkscape:label="Layer 1"
       transform="matrix(0,-0.04503183,0.04503183,0,15.447961,101.31319)"
       style="stroke:none;stroke-width:5.87546">
      <g
         id="g3046"
         transform="matrix(-1,0,0,1,499.34384,0)"
         style="stroke:none;stroke-width:5.87546">
        <path
           id="path2416"
           d="m 188.02156,507.74173 -40.37563,40.81203 c 0,0 8.81134,3.94207 23.18773,20.40601 14.37639,16.46394 13.68075,22.49299 33.39032,44.52221 19.70957,22.02922 45.44794,40.81202 45.44794,40.81202 0,0 25.73838,-18.7828 45.44794,-40.81202 19.70957,-22.02922 19.01394,-28.05827 33.39033,-44.52221 14.37639,-16.46394 23.18772,-20.40601 23.18772,-20.40601 l -40.37562,-40.81203 c 0,0 -31.97008,53.79767 -61.65037,53.79767 -29.68029,0 -61.65037,-53.79767 -61.65036,-53.79767 z m 61.07067,114.55193 c 0.18729,-0.0166 0.38809,0 0.57969,0 3.50357,-1e-5 6.34764,2.84419 6.34764,6.3479 10e-6,3.50373 -2.84407,6.34789 -6.34764,6.34789 -3.50357,-1e-5 -6.34764,-2.84418 -6.34764,-6.34789 0,-3.31208 2.5304,-6.06006 5.76795,-6.3479 z"
           style="color:#000000;display:inline;overflow:visible;visibility:visible;fill:#ffd51f;fill-opacity:1;fill-rule:evenodd;stroke:none;stroke-width:5.87546;stroke-linecap:round;stroke-linejoin:miter;stroke-miterlimit:4;stroke-dasharray:none;stroke-dashoffset:0;stroke-opacity:1;marker:none"
           inkscape:connector-curvature="0" />
        <path
           inkscape:connector-curvature="0"
           sodipodi:nodetypes="ccssccssczcssscsccscssccssscsccscssc"
           d="m 249.67192,553.1796 c 30.60779,0 57.93806,-51.01503 57.93806,-51.01503 0,0 -5.99756,-6.89993 -5.99756,-12.98565 0,-16.69583 30.6078,-42.29023 30.6078,-76.05877 0,-25.97129 -22.26022,-64.00067 -22.26022,-64.00067 H 189.38383 c 0,0 -22.26021,38.02938 -22.26021,64.00067 0,33.76854 30.60779,59.36294 30.60779,76.05877 0,6.08572 -5.99756,12.98565 -5.99756,12.98565 0,0 27.33027,51.01503 57.93807,51.01503 z m 7.36936,-188.68636 c 0,0 12.07496,0.41706 13.96334,3.17716 6.98062,10.203 14.42468,26.89883 14.40329,50.08748 -0.0254,27.59483 -7.21273,41.9581 -14.95141,58.4354 -1.30689,2.78264 -17.07455,6.95993 -17.07455,6.95993 0,0 14.84015,-35.71623 14.84015,-65.39533 0,-29.68147 -11.18082,-53.26464 -11.18082,-53.26464 z m 16.74587,114.48268 c 0,0 29.68029,-29.14614 29.68029,-63.07313 0,-26.89884 -16.69516,-50.48433 -16.69516,-50.48433 0,0 9.27509,-4.24088 13.91263,-2.38579 6.26942,2.50786 19.47769,22.2611 19.47769,48.23239 0,38.95693 -37.12357,67.59521 -46.37545,67.71086 z m -31.4846,-114.48268 c 0,0 -12.07496,0.41706 -13.96334,3.17716 -6.98062,10.203 -14.42467,26.89883 -14.40329,50.08748 0.0255,27.59483 7.21273,41.9581 14.95142,58.4354 1.30689,2.78264 17.07454,6.95993 17.07454,6.95993 0,0 -14.84014,-35.71623 -14.84014,-65.39533 0,-29.68147 11.18081,-53.26464 11.18081,-53.26464 z m -16.74587,114.48268 c 0,0 -29.68028,-29.14614 -29.68028,-63.07313 0,-26.89884 16.69516,-50.48433 16.69516,-50.48433 0,0 -9.27509,-4.24088 -13.91264,-2.38579 -6.26941,2.50786 -19.47769,22.2611 -19.47769,48.23239 0,38.95693 37.12358,67.59521 46.37545,67.71086 z"
           style="fill:#ffd51f;fill-opacity:1;fill-rule:evenodd;stroke:none;stroke-width:5.87546px;stroke-linecap:butt;stroke-linejoin:miter;stroke-opacity:1"
           id="path5919" />
        <g
           id="g3075"
           transform="translate(1.391143)"
           style="stroke:none;stroke-width:5.87546">
          <g
             id="g1325"
             transform="matrix(-0.927509,0,0,0.927546,511.2297,-29.65523)"
             style="stroke:none;stroke-width:5.87546">
            <path
               sodipodi:nodetypes="ccczcccc"
               id="path1319"
               d="m 205,424.36218 -120.462165,-116 -3.537835,-17 c 0,0 -23,-7 -26,-4 -3.535534,3.53553 2,25 2,25 l 17.56287,6 123.43713,122 z"
               style="fill:#ffd51f;fill-opacity:1;fill-rule:evenodd;stroke:none;stroke-width:6.33454px;stroke-linecap:butt;stroke-linejoin:miter;stroke-opacity:1"
               inkscape:connector-curvature="0" />
            <path
               style="fill:#006bb6;fill-opacity:1;fill-rule:evenodd;stroke:none;stroke-width:6.33454px;stroke-linecap:butt;stroke-linejoin:miter;stroke-opacity:1"
               d="M 165.51828,386.34294 84.537835,308.36218 c 0,0 -25.537835,18.46558 -27.031576,49 -2.201619,44.21688 17.997496,106.00001 20.493741,128 6.648694,58.59651 3,85 -7,107.50376 0,0 24.726212,-10.07676 51,-49.04661 0,0 15.41299,24.88391 17,85.54285 0,0 26.74639,-25.67417 29,-73 2,-42 -12.04771,-73.53552 -14,-116 -2,-44 11.51828,-54.01924 11.51828,-54.01924 z"
               id="path1321"
               sodipodi:nodetypes="ccsscccssc"
               inkscape:connector-curvature="0" />
            <path
               sodipodi:nodetypes="cccscccccccccscc"
               id="path1323"
               d="m 115.43938,404.36218 c 0,0 0.043,-40.57454 17.5001,-49.39125 l -14.63551,-14.09338 c 0,0 -9.50698,4.11348 -14.83297,16.48463 -5.325995,12.37116 -6.471,33.529 -6.471,33.529 0,0 -37,-24.529 -39.654406,-27.99847 -0.07372,7.81203 0.462683,16.07126 1.40708,24.48862 2.247326,0.98085 31.740959,22.47047 39.702087,27.98085 8.545239,54 16.545239,92 14.013859,141.49737 3.12566,-3.93724 6.31694,-8.27249 9.53138,-13.04022 0,0 3.76705,6.08182 7.76823,19.56141 C 134,523.36218 125,465.36218 117.40743,427.86776 120,429.89174 146,448.36218 155.09031,454.4233 154.5986,449.85609 154.22147,445.17946 154,440.36218 c -0.1422,-3.12842 -0.20595,-6.08506 -0.20169,-8.87852 C 129,414.36218 115.43938,404.36218 115.43938,404.36218 Z"
               style="fill:#ffd51f;fill-opacity:1;fill-rule:evenodd;stroke:none;stroke-width:6.33454px;stroke-linecap:butt;stroke-linejoin:miter;stroke-opacity:1"
               inkscape:connector-curvature="0" />
          </g>
          <g
             id="g3099"
             transform="translate(-0.695509)"
             style="stroke:none;stroke-width:5.87546">
            <path
               sodipodi:nodetypes="czcccccccccccc"
               id="path4166"
               d="m 128.63439,638.07291 c -4.52869,4.43987 -11.80737,4.36764 -16.24703,-0.16123 -4.4397,-4.52886 -4.36747,-11.80781 0.16122,-16.24768 l 20.80593,-21.29862 4.62409,4.55904 23.22941,-23.35783 -6.91714,-6.87216 7.87579,-8.06542 C 174.91607,579.57002 181.5,594.30833 181.5,594.30833 l -6.70607,5.30605 -6.6722,-7.25665 -21.22441,21.36506 3.09131,2.97966 z"
               style="color:#000000;display:inline;overflow:visible;visibility:visible;fill:#ffd51f;fill-opacity:1;fill-rule:evenodd;stroke:none;stroke-width:5.87546;stroke-linecap:round;stroke-linejoin:miter;stroke-miterlimit:4;stroke-dasharray:none;stroke-dashoffset:0;stroke-opacity:1;marker:none"
               inkscape:connector-curvature="0" />
            <path
               style="color:#000000;display:inline;overflow:visible;visibility:visible;fill:#ffd51f;fill-opacity:1;fill-rule:evenodd;stroke:none;stroke-width:5.87546;stroke-linecap:round;stroke-linejoin:miter;stroke-miterlimit:4;stroke-dasharray:none;stroke-dashoffset:0;stroke-opacity:1;marker:none"
               d="m 369.31817,638.07291 c 4.52869,4.43987 11.80737,4.36764 16.24703,-0.16122 4.4397,-4.52887 4.36747,-11.80782 -0.16122,-16.24769 l -20.80593,-21.29861 -4.62409,4.55903 -23.22941,-23.35783 6.91714,-6.87215 -7.87579,-8.06542 c -12.74941,12.94101 -19.33334,27.67931 -19.33334,27.67931 l 6.70607,5.30605 6.6722,-7.25665 21.22441,21.36506 -3.09131,2.97967 z"
               id="path4169"
               sodipodi:nodetypes="czcccccccccccc"
               inkscape:connector-curvature="0" />
          </g>
          <g
             id="g1330"
             transform="matrix(0.927509,0,0,0.927546,-14.66815,-29.65523)"
             style="stroke:none;stroke-width:5.87546">
            <path
               style="fill:#ffd51f;fill-opacity:1;fill-rule:evenodd;stroke:none;stroke-width:6.33454px;stroke-linecap:butt;stroke-linejoin:miter;stroke-opacity:1"
               d="m 205,424.36218 -120.462165,-116 -3.537835,-17 c 0,0 -23,-7 -26,-4 -3.535534,3.53553 2,25 2,25 l 17.56287,6 123.43713,122 z"
               id="path1332"
               sodipodi:nodetypes="ccczcccc"
               inkscape:connector-curvature="0" />
            <path
               sodipodi:nodetypes="ccsscccssc"
               id="path1334"
               d="M 165.51828,386.34294 84.537835,308.36218 c 0,0 -25.537835,18.46558 -27.031576,49 -2.201619,44.21688 17.997496,106.00001 20.493741,128 6.648694,58.59651 3,85 -7,107.50376 0,0 24.726212,-10.07676 51,-49.04661 0,0 15.41299,24.88391 17,85.54285 0,0 26.74639,-25.67417 29,-73 2,-42 -12.04771,-73.53552 -14,-116 -2,-44 11.51828,-54.01924 11.51828,-54.01924 z"
               style="fill:#006bb6;fill-opacity:1;fill-rule:evenodd;stroke:none;stroke-width:6.33454px;stroke-linecap:butt;stroke-linejoin:miter;stroke-opacity:1"
               inkscape:connector-curvature="0" />
            <path
               style="fill:#ffd51f;fill-opacity:1;fill-rule:evenodd;stroke:none;stroke-width:6.33454px;stroke-linecap:butt;stroke-linejoin:miter;stroke-opacity:1"
               d="m 115.43938,404.36218 c 0,0 0.043,-40.57454 17.5001,-49.39125 l -14.63551,-14.09338 c 0,0 -9.50698,4.11348 -14.83297,16.48463 -5.325995,12.37116 -6.471,33.529 -6.471,33.529 0,0 -37,-24.529 -39.654406,-27.99847 -0.07372,7.81203 0.462683,16.07126 1.40708,24.48862 2.247326,0.98085 31.740959,22.47047 39.702087,27.98085 8.545239,54 16.545239,92 14.013859,141.49737 3.12566,-3.93724 6.31694,-8.27249 9.53138,-13.04022 0,0 3.76705,6.08182 7.76823,19.56141 C 134,523.36218 125,465.36218 117.40743,427.86776 120,429.89174 146,448.36218 155.09031,454.4233 154.5986,449.85609 154.22147,445.17946 154,440.36218 c -0.1422,-3.12842 -0.20595,-6.08506 -0.20169,-8.87852 C 129,414.36218 115.43938,404.36218 115.43938,404.36218 Z"
               id="path1336"
               sodipodi:nodetypes="cccscccccccccscc"
               inkscape:connector-curvature="0" />
          </g>
        </g>
        <path
           inkscape:connector-curvature="0"
           sodipodi:nodetypes="ccccsccccsssccccscccccsccccsssccccsccccc"
           d="m 184.74629,341.69911 -25.97025,-84.40669 c 7.25867,0 19.57218,10.73307 29.92612,21.67533 l -3.02836,2.44087 c -7.42007,-2.78264 -7.42007,4.17512 -4.63754,7.42037 2.56144,2.9874 11.1301,3.33536 7.42007,-4.22466 l 3.27635,-2.43385 c 9.18748,9.70952 16.20134,18.7166 16.20134,18.7166 l -7.95876,9.27546 c 0,0 -5.95388,-2.78263 -7.8089,0 -2.2479,3.372 3.71004,10.20301 20.4052,10.20301 16.69516,0 23.40114,-5.6502 21.33271,-9.27546 -1.85502,-3.25122 -7.79248,-0.49115 -7.79248,-0.49115 l -14.46774,-13.42204 15.28113,-14.90901 2.80646,2.85091 c -1.96602,3.23829 1.3901,9.27546 6.95516,3.71019 5.56505,-5.56528 -0.009,-9.44948 -3.71004,-6.90511 l -2.89246,-2.73818 19.58762,-19.11064 19.58763,19.11064 -2.89247,2.73818 c -3.70075,-2.54437 -9.27509,1.33983 -3.71003,6.90511 5.56505,5.56527 8.92118,-0.4719 6.95516,-3.71019 l 2.80645,-2.85091 15.28113,14.90901 -14.46774,13.42204 c 0,0 -5.93746,-2.76007 -7.79248,0.49115 -2.06842,3.62526 4.63755,9.27546 21.33271,9.27546 16.69516,0 22.6531,-6.83101 20.4052,-10.20301 -1.85502,-2.78263 -7.80889,0 -7.80889,0 l -7.95876,-9.27546 c 0,0 7.01386,-9.00708 16.20133,-18.7166 l 3.27636,2.43385 c -3.71004,7.56002 4.85862,7.21206 7.42007,4.22466 2.78253,-3.24525 2.78253,-10.20301 -4.63755,-7.42037 l -3.02836,-2.44087 c 10.35394,-10.94226 22.66746,-21.67533 29.92612,-21.67533 l -25.97025,84.40669 z"
           style="fill:#ffd51f;fill-opacity:1;fill-rule:evenodd;stroke:none;stroke-width:5.87546px;stroke-linecap:butt;stroke-linejoin:miter;stroke-opacity:1"
           id="path1338" />
      </g>
    </g>
  </g>
</svg>
