<?xml version="1.0" encoding="utf-8"?>
<svg xmlns:svg="http://www.w3.org/2000/svg" xmlns="http://www.w3.org/2000/svg" xmlns:xlink="http://www.w3.org/1999/xlink" x="0px" y="0px" width="4000px" height="2400px" xml:space="preserve">
  <path fill="#FAD115" d="M0,0h4000v2400H0V0z"/>
  <path fill="#BF0A30" d="M0,0h1000v600H0V0z"/>
  <path fill="#FFF" d="M0,54.545	v54.545h1000V54.545H0z M0,163.636v54.545h1000v-54.545H0z M0,272.728v54.545h1000v-54.545H0z M0,381.818v54.545h1000v-54.545H0z M0,490.909v54.545h1000v-54.545H0z"/>
  <path fill="#002868" d="M0,0h272.727v272.728H0V0z"/>
  <g transform="matrix(15,0,0,15,25,25)" fill="#FFF">
    <g>
      <path d="M7.424 1.97 5.739 7.157 8.332 8z"/>
      <path d="M6.516 8 7.424 1.97 9.11 7.157z"/>
    </g>
    <g transform="matrix(0.309017,0.95105652,-0.95105652,0.309017,0,0)">
      <path d="M10.263-4.191 9.355-10.221 7.67-5.034z"/>
      <path d="M8.447-4.191 9.355-10.221 11.041-5.034z"/>
    </g>
    <g transform="matrix(0.309017,-0.95105652,0.95105652,0.309017,0,0)">
      <path d="M-3.858 9.931-4.767 3.901-6.452 9.088z"/>
      <path d="M-5.675 9.931-4.767 3.901-3.081 9.088z"/>
    </g>
    <g transform="matrix(-0.809017,0.58778525,-0.58778525,-0.809017,0,0)">
      <path d="M-.734-9.794-1.642-15.825-3.328-10.637z"/>
      <path d="M-2.551-9.794-1.642-15.825.043-10.637z"/>
    </g>
    <g transform="matrix(-0.809017,-0.58778525,0.58778525,-0.809017,0,0)">
      <path d="M-9.462-1.067-10.37-7.097-12.056-1.909z"/>
      <path d="M-11.278-1.067-10.37-7.097-8.685-1.909z"/>
    </g>
  </g>
  <path fill="#0A9" d="M0,800h4000v800H0V800z"/>
  <g>
    <defs>
      <path id="a" d="M0,800h4000v800H0V800z"/>
    </defs>
    <clipPath id="b">
      <use xlink:href="#a" overflow="visible"/>
    </clipPath>
    <path clip-path="url(#b)" fill="#090" d="M2925.098,1613.497c0,0-130.876-139.798-163.594-166.567 s-306.365-104.104-377.751-118.977s-220.106-57.463-321.237-78.284c0,0-297.442-25.821-380.726-34.744 s-229.03,11.896-359.905,23.795s-166.568,17.847-255.8,20.821s-292.092-53.693-348.007-73.335 c-53.912-18.938-145.539-53.54-217.132-53.54c-73.558,0-309.34,58.463-353.956,67.386S51.808,1232.772,0,1232.771v380.726 L2925.098,1613.497z"/>
    <path clip-path="url(#b)" fill="none" stroke="#000" stroke-width="7" stroke-miterlimit="10" d="M2925.098,1613.497 c0,0-130.876-139.798-163.594-166.567s-306.365-104.104-377.751-118.977s-220.106-57.463-321.237-78.284 c0,0-297.442-25.821-380.726-34.744s-229.03,11.896-359.905,23.795s-166.568,17.847-255.8,20.821s-291.494-55.488-348.007-73.335 c-56.514-17.846-123.018-52.54-217.132-52.54c-101.025,0-309.34,57.463-353.956,66.386S51.808,1232.772,0,1232.771"/>
  </g>
  <g fill="#FFF">
    <path d="M2268.738,1020.803l-262.154,108.062l3.477,7.344l271.283-90.283 C2281.343,1045.926,2286.082,1032.67,2268.738,1020.803z"/>
    <path d="M2306.903,1071.485l-287.627,91.457l0.087,10.431l294.843-76.329 C2314.206,1097.044,2316.399,1081.747,2306.903,1071.485z"/>
    <path d="M2033.578,1201.019l277.889-56.508c0,0,13.988,11.69,2.175,25.559l-277.499,38.903L2033.578,1201.019z"/>
    <path d="M2073.219,1228.101l272.935-30.82c0,0,8.216,18.432,0.913,23.908l-272.935,13.604L2073.219,1228.101z"/>
    <path d="M2274.041,1247.921l52.031-2.738c0,0,5.478,8.867,0,18.908l-52.031-10.041V1247.921z"/>
    <path d="M2039.445,1272.306l3.651-7.302l145.139,65.723c0,0,4.564,18.257-11.866,25.56L2039.445,1272.306z"/>
    <path d="M2094.43,1274.593l7.651-5.302l169.308,49.743c0,0,4.564,18.257-11.866,25.56L2094.43,1274.593z"/>
    <path d="M2181.107,1263.004l0.216-7.867l142.924,20.82c0,0,6.39,20.995-6.39,22.821L2181.107,1263.004z"/>
  </g>
  <g stroke="#563823" stroke-width="10" stroke-miterlimit="10">
    <path fill="#FFF" stroke-linejoin="round" d="M1810.5,1201.5 l-53,279c0,0-4,21,125,21s109-21,109-21l-47-279H1810.5z"/>
    <g fill="none">
    <path d="M1838.334 1368.5H1914.334V1424.5H1838.334z"/>
    <path d="M1845.334 1286.5H1907.334V1334.5H1845.334z"/>
    <path d="M1852.834 1207.5H1899.834V1241.5H1852.834z"/>
    </g>
  </g>
    <g>
      <path fill="#FFF" d="M1875.174,1157.202c-25.02,0-40.912-1.994-49.081-3.421l42.353-66.259l56.538,65.129 C1916.057,1154.55,1899.277,1157.202,1875.174,1157.202z"/>
      <path fill="#563823" d="M1869.057,1095.852l46.413,53.465c-9.346,1.475-22.847,2.885-40.295,2.885 c-18.404,0-31.81-1.107-40.706-2.239L1869.057,1095.852 M1867.837,1079.192l-49.842,77.976c0,0,17.262,5.034,57.18,5.034 c38.839,0,58.912-6.694,58.912-6.694L1867.837,1079.192L1867.837,1079.192z"/>
    </g>
  <g fill="#FFF">
    <path d="M1725.297,1150.269l-0.045-15.363l-141.32-74.315c0,0-1.449-17.515,13.86-20.066l151.685,97.759 c7.479,15.03-3.402,40.823-14.458,50.178l-186.107-44.823c0,0-5.252-11.262,4.954-19.767l169.341,53.987l2.045-17.386 l-162.881-61.06c0,0-3.701-14.262,8.206-18.515L1725.297,1150.269z"/>
    <path d="M1552.185,1178.901l64.804,10.281l-66.231-0.01C1550.758,1189.173,1543.622,1180.329,1552.185,1178.901z"/>
    <path d="M1557.206,1290.046l169.618-50.164l5.97,3.646l-161.488,63.587 C1571.307,1307.115,1545.591,1307.47,1557.206,1290.046z"/>
    <path d="M1558.529,1262.976l134.935-42.493l-12.97-1.646l-133.581,25.585 C1546.913,1244.421,1530.652,1259.168,1558.529,1262.976z"/>
  </g>
  <g>
    <path fill="#725214" stroke="#291A06" stroke-width="7" stroke-miterlimit="10" d="M1176.543,1519.934 c0,0,8.629-28.764,27.326-46.022s57.529-83.419,67.597-117.936s21.573-67.597,27.326-128.002s11.506-176.902,11.506-176.902 l40.271,20.135c0,0,2.876,70.474,2.876,93.485s2.877,198.476,10.068,228.678s57.529,116.495,63.282,120.811s-15.82,8.63-15.82,8.63 v10.067c0,0-21.573-11.506-35.956-10.067s-31.641,25.888-40.271,27.326s-31.641-28.765-37.394-28.765s-18.697-4.314-25.888,1.438 s-8.629,17.259-20.135,17.259s-14.383-21.573-28.765-21.573S1170.79,1541.507,1176.543,1519.934z"/>
    <path fill="#090" d="M1132.5,943.114c14-16,40-10,57-17s65-64,84-67s61,11,79,8s46.895-39.511,69-35 c49,10,92,89,99,113c0,0,7,20,10,25c-7,10-26-3-19,11c4.025,8.05-12,23-12,23s-44-49-67-52s-30,3-30,3s53,46,62,75 c9.265,29.853,3,90-7,83s-25-89-68-86c-7,21-2,53,2,79s27.165,54.652,29,73c2,20-6,44-19,60c-20-64-42-109-54-122s-23,3-29,0 c-7.211-3.605-21-58-38-60s7.909,94.546-15,106c-6,3-38-94-36-117s-11.152,37.297-13,53c-2,17-7,61-7,61c-9-53-14-70-7-117 c3.83-25.716-43,114-28,136c15,22-35-14-40-57s-2-65,6-76s-30,18-27,1s7-61,22-61c-16-1-32,10-23-9 C1122.522,955.958,1132.5,943.114,1132.5,943.114z"/>
    <path fill="#21492A" d="M1402.5,952.5c19.696,22.545,53,46,62,75c9.265,29.853,3,90-7,83 s-25-89-68-86c-7,21-2,53,2,79s27.165,54.652,29,73c2,20-6,44-19,60c-20-64-42-109-54-122s-23,3-29,0c-7.211-3.605-21-58-38-60 s7.909,94.546-15,106c-6,3-38-94-36-117s-11.152,37.297-13,53c-2,17-7,61-7,61c-9-53-14-70-7-117c3.83-25.716-43,114-28,136 s-35-14-40-57s-2-65,6-76s-30,18-27,1s7-61,22-61c-16-1-32,10-23-9c10.021-21.156,20-34,20-34s-8.266,18.862-3.038,26.704 s22.652,11.326,22.652,11.326s-16.554,26.137-11.326,34.849s21.781,6.099,21.781,6.099s-28.75,67.085-23.523,88.866 s20.038,37.463,20.038,37.463s20.91-108.904,41.819-120.23s10.455,39.206,10.455,39.206s13.069-44.433,23.523-52.274 s11.326,87.123,21.781,106.29s-5.228-62.728,6.97-73.183s10.455-16.553,13.94-15.682s32.236,57.501,43.562,63.6 s28.75-2.613,35.72,7.841s36.591,77.54,40.077,96.707s13.069,2.613,13.94-14.811s-29.622-69.698-31.364-87.123 s-6.099-79.282,4.356-83.638s53.145,23.523,61.857,33.107S1408.257,969.818,1402.5,952.5z"/>
    <path fill="none" stroke="#000" stroke-width="10" stroke-linejoin="round" stroke-miterlimit="10" d="M1132.5,943.114c14-16,40-10,57-17s65-64,84-67s61,11,79,8s46.895-39.511,69-35c49,10,92,89,99,113c0,0,7,20,10,25 c-7,10-26-3-19,11c4.025,8.05-12,23-12,23s-44-49-67-52s-30,3-30,3s53,46,62,75c9.265,29.853,3,90-7,83s-25-89-68-86 c-7,21-2,53,2,79s27.165,54.652,29,73c2,20-6,44-19,60c-20-64-42-109-54-122s-23,3-29,0c-7.211-3.605-21-58-38-60 s7.909,94.546-15,106c-6,3-38-94-36-117s-11.152,37.297-13,53c-2,17-7,61-7,61c-9-53-14-70-7-117c3.83-25.716-43,114-28,136 c15,22-35-14-40-57s-2-65,6-76s-30,18-27,1s7-61,22-61c-16-1-32,10-23-9C1122.522,955.958,1132.5,943.114,1132.5,943.114z"/>
  </g>
</svg>
