<?xml version="1.0" encoding="UTF-8" standalone="no"?>
<svg
   width="1235"
   height="650"
   version="1.1"
   id="svg16"
   sodipodi:docname="Flag_of_Bikini_Atoll.svg"
   inkscape:version="1.3 (0e150ed6c4, 2023-07-21)"
   xmlns:inkscape="http://www.inkscape.org/namespaces/inkscape"
   xmlns:sodipodi="http://sodipodi.sourceforge.net/DTD/sodipodi-0.dtd"
   xmlns:xlink="http://www.w3.org/1999/xlink"
   xmlns="http://www.w3.org/2000/svg"
   xmlns:svg="http://www.w3.org/2000/svg">
  <sodipodi:namedview
     id="namedview16"
     pagecolor="#ffffff"
     bordercolor="#000000"
     borderopacity="0.25"
     inkscape:showpageshadow="2"
     inkscape:pageopacity="0.0"
     inkscape:pagecheckerboard="0"
     inkscape:deskcolor="#d1d1d1"
     inkscape:zoom="0.90364372"
     inkscape:cx="617.5"
     inkscape:cy="324.79615"
     inkscape:window-width="1920"
     inkscape:window-height="1007"
     inkscape:window-x="-9"
     inkscape:window-y="-9"
     inkscape:window-maximized="1"
     inkscape:current-layer="svg16" />
  <defs
     id="defs10">
    <path
       id="s"
       transform="scale(20)"
       d="M0,-1 L0.58779,0.80902 L-0.95106,-0.30902 L0.95106,-0.30902 L-0.58779,0.80902z" />
    <g
       id="s5">
      <g
         id="s4">
        <use
           xlink:href="#s"
           x="37"
           y="43.75"
           id="use1" />
        <use
           xlink:href="#s"
           x="142"
           y="43.75"
           id="use2" />
        <use
           xlink:href="#s"
           x="352"
           y="43.75"
           id="use3" />
        <use
           xlink:href="#s"
           x="457"
           y="43.75"
           id="use4" />
      </g>
      <use
         xlink:href="#s"
         x="247"
         y="43.75"
         id="use5" />
    </g>
    <g
       id="u"
       fill="#fff">
      <use
         xlink:href="#s5"
         id="use6" />
      <use
         xlink:href="#s4"
         y="65.625"
         id="use7" />
      <use
         xlink:href="#s5"
         y="131.25"
         id="use8" />
      <use
         xlink:href="#s4"
         y="196.875"
         id="use9" />
      <use
         xlink:href="#s5"
         y="262.5"
         id="use10" />
    </g>
  </defs>
  <rect
     width="1235"
     height="650"
     fill="#BF0A30"
     id="rect10" />
  <path
     stroke="#FFF"
     stroke-width="50"
     d="M0,75H1235M0,175H1235M0,275H1235M0,375H1235M0,475H1235M0,575H1235"
     id="path10" />
  <rect
     width="494"
     height="350"
     fill="#00205B"
     id="rect11" />
  <use
     xlink:href="#u"
     id="use11" />
  <path
     d="m 23.776039,495 v -38.17706 h 11.536452 l 6.927079,26.04165 6.848954,-26.04165 H 60.651017 V 495 H 53.489563 V 464.94793 L 45.911443,495 H 38.489572 L 30.937493,464.94793 V 495 Z m 44.531222,0 v -38.17706 h 28.307275 v 6.45833 H 76.01559 v 8.46354 h 19.166655 v 6.43228 H 76.01559 v 10.39062 H 97.343702 V 495 Z m 35.651029,0 v -38.17706 h 7.49999 l 15.62499,25.49478 v -25.49478 h 7.16146 V 495 h -7.73437 L 111.11974,470.10418 V 495 Z m 51.69267,-18.85416 q 0,-5.83333 1.74479,-9.79166 1.30208,-2.91666 3.54166,-5.23437 2.26563,-2.31771 4.94792,-3.4375 3.5677,-1.51041 8.22916,-1.51041 8.43749,0 13.48957,5.23437 5.07813,5.23437 5.07813,14.55728 0,9.24479 -5.02604,14.47916 -5.02604,5.20833 -13.43749,5.20833 -8.51562,0 -13.54166,-5.18229 -5.02604,-5.20833 -5.02604,-14.32291 z m 7.9427,-0.26041 q 0,6.48437 2.99479,9.84374 2.99479,3.33333 7.60416,3.33333 4.60938,0 7.55208,-3.30729 2.96875,-3.33333 2.96875,-9.97395 0,-6.56249 -2.89062,-9.79166 -2.86458,-3.22916 -7.63021,-3.22916 -4.76562,0 -7.68228,3.28124 -2.91667,3.25521 -2.91667,9.84375 z M 207.29155,495 v -31.71873 h -11.32812 v -6.45833 h 30.33852 v 6.45833 H 214.99988 V 495 Z m 23.98436,0 v -38.17706 h 28.30728 v 6.45833 h -20.59895 v 8.46354 h 19.16666 v 6.43228 h -19.16666 v 10.39062 h 21.32811 V 495 Z m 35.46873,0 v -38.17706 h 11.53645 l 6.92708,26.04165 6.84895,-26.04165 h 11.56249 V 495 h -7.16145 V 464.94793 L 288.88004,495 h -7.42187 l -7.55208,-30.05207 V 495 Z m 58.30726,-38.17706 h 7.68229 v 24.16665 q 0,4.73958 -0.83334,7.29166 -1.11979,3.33334 -4.06249,5.36458 -2.94271,2.00521 -7.76042,2.00521 -5.65103,0 -8.69791,-3.15104 -3.04687,-3.17708 -3.07291,-9.29687 l 7.26562,-0.83333 q 0.13021,3.28125 0.96354,4.63541 1.25,2.05729 3.80208,2.05729 2.57812,0 3.64583,-1.45833 1.06771,-1.48437 1.06771,-6.11979 z M 340.9373,495 v -38.17706 h 28.30728 v 6.45833 h -20.59895 v 8.46354 h 19.16666 v 6.43228 h -19.16666 v 10.39062 h 21.32812 V 495 Z m 49.34894,-38.17706 h 7.68229 v 24.16665 q 0,4.73958 -0.83333,7.29166 -1.11979,3.33334 -4.0625,5.36458 -2.94271,2.00521 -7.76041,2.00521 -5.65104,0 -8.69791,-3.15104 -3.04688,-3.17708 -3.07292,-9.29687 l 7.26562,-0.83333 q 0.13021,3.28125 0.96354,4.63541 1.25,2.05729 3.80209,2.05729 2.57812,0 3.64583,-1.45833 1.0677,-1.48437 1.0677,-6.11979 z M 421.01538,495 v -38.17706 h 16.22395 q 6.11979,0 8.8802,1.04167 2.78646,1.01562 4.45312,3.64583 1.66667,2.6302 1.66667,6.01562 0,4.29687 -2.52604,7.10937 -2.52604,2.78646 -7.55208,3.51562 2.5,1.45833 4.11458,3.20312 1.64062,1.7448 4.40104,6.19792 L 455.33827,495 h -9.21874 l -5.57291,-8.30729 q -2.96875,-4.45312 -4.0625,-5.59895 -1.09375,-1.17188 -2.31771,-1.58854 -1.22396,-0.44271 -3.8802,-0.44271 h -1.5625 V 495 Z m 7.70833,-22.03124 h 5.70312 q 5.54687,0 6.92708,-0.46875 1.38021,-0.46875 2.16146,-1.61458 0.78124,-1.14583 0.78124,-2.86458 0,-1.92708 -1.04166,-3.09896 -1.01563,-1.19791 -2.89062,-1.51041 -0.9375,-0.13021 -5.625,-0.13021 h -6.01562 z M 459.50493,495 v -38.17706 h 28.30728 v 6.45833 h -20.59895 v 8.46354 h 19.16666 v 6.43228 h -19.16666 v 10.39062 h 21.32811 V 495 Z m 49.34894,-38.17706 h 7.68229 v 24.16665 q 0,4.73958 -0.83333,7.29166 -1.1198,3.33334 -4.0625,5.36458 -2.94271,2.00521 -7.76041,2.00521 -5.65104,0 -8.69792,-3.15104 -3.04687,-3.17708 -3.07291,-9.29687 l 7.26562,-0.83333 q 0.13021,3.28125 0.96354,4.63541 1.25,2.05729 3.80208,2.05729 2.57813,0 3.64583,-1.45833 1.06771,-1.48437 1.06771,-6.11979 z M 539.32259,495 v -38.17706 h 7.70833 V 495 Z m 15.2604,0 v -37.86456 h 7.70832 v 31.43227 h 19.16666 V 495 Z m 30.80729,-18.85416 q 0,-5.83333 1.74479,-9.79166 1.30208,-2.91666 3.54166,-5.23437 2.26563,-2.31771 4.94792,-3.4375 3.5677,-1.51041 8.22916,-1.51041 8.43749,0 13.48957,5.23437 5.07813,5.23437 5.07813,14.55728 0,9.24479 -5.02604,14.47916 -5.02604,5.20833 -13.43749,5.20833 -8.51562,0 -13.54166,-5.18229 -5.02604,-5.20833 -5.02604,-14.32291 z m 7.9427,-0.26041 q 0,6.48437 2.99479,9.84374 2.99479,3.33333 7.60416,3.33333 4.60938,0 7.55208,-3.30729 2.96875,-3.33333 2.96875,-9.97395 0,-6.56249 -2.89062,-9.79166 -2.86458,-3.22916 -7.63021,-3.22916 -4.76562,0 -7.68228,3.28124 -2.91667,3.25521 -2.91667,9.84375 z m 49.9479,-19.06249 h 15.26041 q 4.53125,0 6.74479,0.39062 2.23958,0.36459 3.98437,1.5625 1.77083,1.19792 2.94271,3.20313 1.17187,1.97916 1.17187,4.45312 0,2.68229 -1.45833,4.92187 -1.43229,2.23958 -3.90625,3.35937 3.48958,1.01563 5.36458,3.46354 1.875,2.44792 1.875,5.75521 0,2.60416 -1.22396,5.07812 -1.19791,2.44792 -3.30729,3.93229 -2.08333,1.45833 -5.15625,1.79687 -1.92708,0.20834 -9.29686,0.26042 h -12.99479 z m 7.70833,6.35416 v 8.82812 h 5.05208 q 4.50521,0 5.59896,-0.13021 1.97916,-0.23437 3.09895,-1.35416 1.14583,-1.14583 1.14583,-2.99479 0,-1.77083 -0.98958,-2.86458 -0.96354,-1.11979 -2.89062,-1.35417 -1.14583,-0.13021 -6.58854,-0.13021 z m 0,15.18228 v 10.20833 h 7.13541 q 4.16667,0 5.28646,-0.23437 1.71875,-0.3125 2.78645,-1.51042 1.09375,-1.22396 1.09375,-3.2552 0,-1.71875 -0.83333,-2.91667 -0.83333,-1.19792 -2.42187,-1.74479 -1.5625,-0.54688 -6.82292,-0.54688 z M 681.77046,495 v -38.17706 h 28.30728 v 6.45833 h -20.59895 v 8.46354 h 19.16666 v 6.43228 h -19.16666 v 10.39062 h 21.32812 V 495 Z m 35.33851,0 v -38.17706 h 7.70832 V 495 Z m 15.13018,0 v -38.17706 h 7.5 l 15.62499,25.49478 v -25.49478 h 7.16145 V 495 h -7.73437 L 739.40061,470.10418 V 495 Z m 85.70307,0 h -8.38541 l -3.33334,-8.67187 h -15.2604 L 787.81203,495 h -8.17708 l 14.86978,-38.17706 h 8.15104 z m -14.1927,-15.10416 -5.26042,-14.16666 -5.15624,14.16666 z M 822.1089,495 v -38.17706 h 7.5 l 15.62499,25.49478 v -25.49478 h 7.16145 V 495 h -7.73437 L 829.27036,470.10418 V 495 Z m 38.20307,0 v -38.17706 h 7.70833 V 495 Z m 28.82816,-38.17706 h 7.68228 v 24.16665 q 0,4.73958 -0.83333,7.29166 -1.11979,3.33334 -4.0625,5.36458 -2.9427,2.00521 -7.76041,2.00521 -5.65104,0 -8.69791,-3.15104 -3.04687,-3.17708 -3.07292,-9.29687 l 7.26563,-0.83333 q 0.1302,3.28125 0.96354,4.63541 1.25,2.05729 3.80208,2.05729 2.57812,0 3.64583,-1.45833 1.06771,-1.48437 1.06771,-6.11979 z"
     id="text11"
     style="font-weight:bold;font-size:53.3333px;font-family:Arial;-inkscape-font-specification:'Arial, Bold'"
     aria-label="MEN OTEMJEJ REJ ILO BEIN ANIJ" />
  <use
     xlink:href="#s"
     x="1000"
     y="75"
     id="use12" />
  <use
     xlink:href="#s"
     x="1075"
     y="75"
     id="use13" />
  <use
     xlink:href="#s"
     x="1150"
     y="75"
     id="use14" />
  <use
     xlink:href="#s"
     x="1075"
     y="475"
     id="use15" />
  <use
     xlink:href="#s"
     x="1150"
     y="475"
     id="use16" />
</svg>
