<?xml version="1.0" encoding="UTF-8" standalone="no"?>
<!-- Created with Inkscape (http://www.inkscape.org/) -->
<svg xmlns="http://www.w3.org/2000/svg" width="297mm" height="671.055" version="1.0"><path d="M0 0v671.04h554.75s157.43-31.855 146.31-143.87c-20.069-202.22-184.07-153.01-274.11-295.66C406.926 139.328 578.87.04 578.87.04z" style="fill-rule:evenodd;fill:#0000c8"/><path d="M1122.5 671.04V0H568.28S410.32 31.855 421.44 143.87c20.069 202.22 184.07 153.01 274.11 295.66 20.024 92.182-149.87 231.51-149.87 231.51z" style="fill-rule:evenodd;fill:#c80000"/><path d="M729.68 0H499.75S375.4 94.894 373.79 178.96c-3.043 157.6 289.69 206.07 286.57 321.54-3.269 123.03-243.85 170.54-243.85 170.54h227.48s123.37-68.954 128.5-207.85c5.502-150.67-272.78-174.09-284.79-289.56C475.685 58.16 729.67 0 729.67 0z" style="fill-rule:evenodd;fill:#fff"/></svg>