<?xml version="1.0" encoding="UTF-8"?>
<!-- Creator: CorelDRAW -->
<svg id="svg3623" width="1e3" height="600" style="fill-rule:evenodd;image-rendering:optimizeQuality;shape-rendering:geometricPrecision;text-rendering:geometricPrecision" version="1.1" viewBox="0 0 1e3 600" xml:space="preserve" xmlns="http://www.w3.org/2000/svg" xmlns:cc="http://creativecommons.org/ns#" xmlns:dc="http://purl.org/dc/elements/1.1/" xmlns:rdf="http://www.w3.org/1999/02/22-rdf-syntax-ns#"><metadata id="metadata3691"><rdf:RDF><cc:Work rdf:about=""><dc:format>image/svg+xml</dc:format><dc:type rdf:resource="http://purl.org/dc/dcmitype/StillImage"/></cc:Work></rdf:RDF></metadata>
 <defs id="defs3625">
  <style id="style3627" type="text/css">
   
    .fil2 {fill:#FF0000}
    .fil0 {fill:#FFFF00}
    .fil3 {fill:#FFFFFF}
    .fil1 {fill:#00C000}
    .fnt0 {font-weight:normal;font-size:69;font-family:serif}
   
  </style>
 
  
  
  
  
  
  
  
  
  
  
  
  
  
  
  
  
  
  
  
  
  
  
  
  
  
  
  
  
  
  
 </defs>
 

<rect id="rect3630" class="fil0" width="1e3" height="600" style="fill-rule:evenodd;fill:#ffd400;image-rendering:optimizeQuality;shape-rendering:geometricPrecision;stroke-width:.977359"/><rect id="rect3632" class="fil1" width="1e3" height="400" style="fill-rule:evenodd;fill:#1eb53a;image-rendering:optimizeQuality;shape-rendering:geometricPrecision;stroke-width:.977756"/><rect id="rect3634" class="fil2" width="1e3" height="200" style="fill-rule:evenodd;fill:#da251d;image-rendering:optimizeQuality;shape-rendering:geometricPrecision;stroke-width:.976563"/><text id="text3636" class="fil3 fnt0" transform="scale(.919868 1.08711)" x="194.3324" y="297.0076" style="fill-rule:evenodd;fill:#ffffff;font-family:serif;font-size:62.0438px;image-rendering:optimizeQuality;line-height:0%;shape-rendering:geometricPrecision;stroke-width:.977516;text-rendering:geometricPrecision">DIOS UNION PROGRESO</text><g id="g2"><path id="path3638" class="fil0" d="m86.9991 298.442 2.93255 14.6627 14.6628 0.9776-12.7078 6.8426 3.91007 14.6627-10.7527-9.7751-12.7077 7.8201 5.8651-13.6852-10.7527-9.7752 13.6852 1.955z" style="fill-rule:evenodd;fill:#ffd400;image-rendering:optimizeQuality;shape-rendering:geometricPrecision;stroke-width:.977517"/><path id="path3640" class="fil0" d="m91.8866 261.297 2.93255 13.6853 14.6628 0.9775-12.7078 7.8201 3.91006 13.6853-10.7527-8.7977-12.7077 6.8426 5.8651-12.7077-11.7302-9.7752 14.6628 0.9776z" style="fill-rule:evenodd;fill:#ffd400;image-rendering:optimizeQuality;shape-rendering:geometricPrecision;stroke-width:.977517"/><path id="path3642" class="fil0" d="m107.527 218.286 2.9326 13.6852 14.6627 1.9551-11.7302 6.8426 2.9326 14.6627-10.7527-9.7751-12.7077 7.8201 5.8651-13.6852-10.7527-8.7977 13.6852 0.9775z" style="fill-rule:evenodd;fill:#ffd400;image-rendering:optimizeQuality;shape-rendering:geometricPrecision;stroke-width:.977517"/><path id="path3644" class="fil0" d="m130.01 185.05 2.9326 13.6853 14.6627 0.9775-11.7302 7.8201 2.9326 13.6852-10.7527-8.7976-12.7077 7.8201 5.8651-13.6852-10.7527-8.7977 13.6852 0.9776z" style="fill-rule:evenodd;fill:#ffd400;image-rendering:optimizeQuality;shape-rendering:geometricPrecision;stroke-width:.977517"/><path id="path3646" class="fil0" d="m157.38 155.725 2.9325 13.6852 14.6628 0.9776-11.7302 7.8201 2.9325 13.6852-10.7526-8.7976-11.7302 7.8201 4.8875-13.6852-10.7526-8.7977 13.6852 0.9775z" style="fill-rule:evenodd;fill:#ffd400;image-rendering:optimizeQuality;shape-rendering:geometricPrecision;stroke-width:.977517"/><path id="path3648" class="fil0" d="m191.593 127.377 2.9325 13.6852 14.6628 0.9776-11.7302 7.8201 2.9325 13.6852-10.7526-8.7976-11.7303 7.8201 4.8876-13.6852-10.7527-8.7977 13.6853 0.9775z" style="fill-rule:evenodd;fill:#ffd400;image-rendering:optimizeQuality;shape-rendering:geometricPrecision;stroke-width:.977517"/><path id="path3650" class="fil0" d="m228.739 103.917 3.9101 13.6852 14.6628 0.9776-12.7078 7.8201 3.9101 13.6852-10.7527-8.7976-11.7302 7.8201 4.8876-13.6852-11.7302-8.7977 14.6627 0.9775z" style="fill-rule:evenodd;fill:#ffd400;image-rendering:optimizeQuality;shape-rendering:geometricPrecision;stroke-width:.977517"/><path id="path3652" class="fil0" d="m267.84 84.3663 3.9101 13.6852 14.6627 0.97752-12.7077 7.82018 3.9101 13.6852-10.7527-8.7977-11.7302 7.8202 4.8876-13.6853-11.7302-8.79762 14.6627 0.97752z" style="fill-rule:evenodd;fill:#ffd400;image-rendering:optimizeQuality;shape-rendering:geometricPrecision;stroke-width:.977517"/><path id="path3654" class="fil0" d="m306.94 68.726 4.8876 13.6852 13.6852 0.97752-11.7302 7.82013 3.9101 13.6852-10.7527-8.79763-12.7077 7.82013 4.8876-12.7077-10.7527-9.77517 13.6852 0.97752z" style="fill-rule:evenodd;fill:#ffd400;image-rendering:optimizeQuality;shape-rendering:geometricPrecision;stroke-width:.977517"/><path id="path3656" class="fil0" d="m347.996 57.9733 3.9101 13.6852h14.6627l-11.7302 7.82014 3.9101 14.6628-11.7302-8.79765-11.7302 7.82014 4.8876-13.6852-11.7302-8.79766h14.6627z" style="fill-rule:evenodd;fill:#ffd400;image-rendering:optimizeQuality;shape-rendering:geometricPrecision;stroke-width:.977517"/><path id="path3658" class="fil0" d="m389.052 49.1756 3.9101 13.6852h14.6627l-12.7077 7.82013 4.8876 14.6628-11.7302-8.79765-11.7302 7.82013 4.8876-13.6852-11.7302-8.79765 14.6627 0.97752z" style="fill-rule:evenodd;fill:#ffd400;image-rendering:optimizeQuality;shape-rendering:geometricPrecision;stroke-width:.977517"/><path id="path3660" class="fil0" d="m432.063 42.333 3.91 13.6852h14.6628l-11.7302 8.79765 3.9101 13.6852-10.7527-8.79765-11.7302 7.82013 3.91-13.6852-11.7302-7.82013h14.6628z" style="fill-rule:evenodd;fill:#ffd400;image-rendering:optimizeQuality;shape-rendering:geometricPrecision;stroke-width:.977517"/><path id="path3662" class="fil0" d="m476.051 39.4005 3.9101 13.6852h14.6628l-11.7302 8.79765 3.91 13.6852-11.7302-8.79765-10.7527 8.79765 3.9101-13.6852-11.7302-8.79765h14.6627z" style="fill-rule:evenodd;fill:#ffd400;image-rendering:optimizeQuality;shape-rendering:geometricPrecision;stroke-width:.977517"/><path id="path3664" class="fil0" d="m913.001 298.442-3.91 14.6627-13.6853 0.9776 11.7302 6.8426-2.9325 14.6627 10.7527-9.7751 12.7077 7.8201-5.8651-13.6852 10.7527-9.7752-14.6628 1.955z" style="fill-rule:evenodd;fill:#ffd400;image-rendering:optimizeQuality;shape-rendering:geometricPrecision;stroke-width:.977517"/><path id="path3666" class="fil0" d="m908.113 261.297-3.91 13.6853-13.6853 0.9775 11.7302 7.8201-2.9325 13.6853 10.7527-8.7977 12.7077 6.8426-5.8651-12.7077 10.7527-9.7752-14.6628 0.9776z" style="fill-rule:evenodd;fill:#ffd400;image-rendering:optimizeQuality;shape-rendering:geometricPrecision;stroke-width:.977517"/><path id="path3668" class="fil0" d="m892.473 218.286-3.9101 13.6852-13.6852 1.9551 11.7302 6.8426-2.9326 14.6627 10.7527-9.7751 11.7302 7.8201-4.8876-13.6852 10.7527-8.7977-14.6627 0.9775z" style="fill-rule:evenodd;fill:#ffd400;image-rendering:optimizeQuality;shape-rendering:geometricPrecision;stroke-width:.977517"/><path id="path3670" class="fil0" d="m869.99 185.05-3.9101 13.6853-14.6627 0.9775 12.7077 7.8201-3.9101 13.6852 11.7302-8.7976 11.7302 7.8201-4.8876-13.6852 10.7527-8.7977-14.6627 0.9776z" style="fill-rule:evenodd;fill:#ffd400;image-rendering:optimizeQuality;shape-rendering:geometricPrecision;stroke-width:.977517"/><path id="path3672" class="fil0" d="m842.62 155.725-3.9101 13.6852-13.6852 0.9776 11.7302 7.8201-3.9101 13.6852 11.7302-8.7976 11.7302 7.8201-4.8875-13.6852 10.7526-8.7977-14.6627 0.9775z" style="fill-rule:evenodd;fill:#ffd400;image-rendering:optimizeQuality;shape-rendering:geometricPrecision;stroke-width:.977517"/><path id="path3674" class="fil0" d="m808.407 127.377-3.9101 13.6852-13.6852 0.9776 11.7302 7.8201-3.9101 13.6852 11.7302-8.7976 11.7303 7.8201-4.8876-13.6852 10.7527-8.7977-14.6628 0.9775z" style="fill-rule:evenodd;fill:#ffd400;image-rendering:optimizeQuality;shape-rendering:geometricPrecision;stroke-width:.977517"/><path id="path3676" class="fil0" d="m771.261 103.917-3.9101 13.6852-14.6628 0.9776 11.7302 7.8201-3.91 13.6852 11.7302-8.7976 11.7302 7.8201-4.8876-13.6852 10.7527-8.7977-13.6852 0.9775z" style="fill-rule:evenodd;fill:#ffd400;image-rendering:optimizeQuality;shape-rendering:geometricPrecision;stroke-width:.977517"/><path id="path3678" class="fil0" d="m732.16 84.3663-3.9101 13.6852-14.6627 0.97752 11.7302 7.82018-3.9101 13.6852 11.7302-8.7977 11.7302 7.8202-4.8876-13.6853 11.7302-8.79762-14.6627 0.97752z" style="fill-rule:evenodd;fill:#ffd400;image-rendering:optimizeQuality;shape-rendering:geometricPrecision;stroke-width:.977517"/><path id="path3680" class="fil0" d="m692.082 68.726-3.9101 13.6852-14.6627 0.97752 11.7302 7.82013-3.9101 13.6852 11.7302-8.79763 11.7302 7.82013-4.8876-12.7077 11.7302-9.77517-14.6627 0.97752z" style="fill-rule:evenodd;fill:#ffd400;image-rendering:optimizeQuality;shape-rendering:geometricPrecision;stroke-width:.977517"/><path id="path3682" class="fil0" d="m652.004 57.9733-3.9101 13.6852h-14.6627l11.7302 7.82014-3.9101 14.6628 11.7302-8.79765 11.7302 7.82014-4.8876-13.6852 11.7302-8.79766h-14.6627z" style="fill-rule:evenodd;fill:#ffd400;image-rendering:optimizeQuality;shape-rendering:geometricPrecision;stroke-width:.977517"/><path id="path3684" class="fil0" d="m610.948 49.1756-3.9101 13.6852h-14.6627l11.7302 7.82013-3.9101 14.6628 11.7302-8.79765 11.7302 7.82013-4.8876-13.6852 11.7302-8.79765-14.6627 0.97752z" style="fill-rule:evenodd;fill:#ffd400;image-rendering:optimizeQuality;shape-rendering:geometricPrecision;stroke-width:.977517"/><path id="path3686" class="fil0" d="m567.937 42.333-4.8876 13.6852h-13.6852l11.7302 8.79765-4.8876 13.6852 11.7302-8.79765 11.7302 7.82013-4.8875-13.6852 11.7302-7.82013h-14.6628z" style="fill-rule:evenodd;fill:#ffd400;image-rendering:optimizeQuality;shape-rendering:geometricPrecision;stroke-width:.977517"/><path id="path3688" class="fil0" d="m522.972 39.4005-3.91 13.6852h-14.6628l11.7302 8.79765-3.91 13.6852 10.7526-8.79765 11.7303 8.79765-3.9101-13.6852 11.7302-8.79765h-14.6628z" style="fill-rule:evenodd;fill:#ffd400;image-rendering:optimizeQuality;shape-rendering:geometricPrecision;stroke-width:.977517"/></g></svg>
