<svg xmlns="http://www.w3.org/2000/svg" viewBox="0 0 275.08042 183.38694"><defs><style>.a{fill:#db251a;}.b{fill:gold;}.c,.f,.g{fill:#005bb2;}.c{fill-rule:evenodd;}.d{fill:#e6e6e6;}.d,.e,.g,.h{stroke:#005bb2;stroke-miterlimit:10;}.d,.e,.g{stroke-width:0.5px;}.e,.h{fill:none;}.h{stroke-width:0.25px;}</style></defs><rect class="a" width="275.08042" height="183.38694"/><rect class="b" x="129.89909" width="15.28224" height="183.38694"/><rect class="b" x="129.89909" y="-45.84674" width="15.28224" height="275.08042" transform="translate(45.84674 229.23368) rotate(-90)"/><path class="c" d="M168.01365,54.99769H107.024V98.31384a30.51947,30.51947,0,0,0,61.03247,0v-.12652C168.01365,98.19576,168.01365,54.99769,168.01365,54.99769Z"/><polygon class="d" points="149.647 62.644 149.647 65.252 151.022 65.252 151.022 62.644 153.324 62.644 153.324 65.252 154.699 65.252 154.699 62.644 157.002 62.644 157.002 65.252 158.376 65.252 158.376 62.644 160.679 62.644 160.679 65.252 160.679 67.69 147.345 67.69 147.345 65.252 147.345 62.644 149.647 62.644"/><rect class="d" x="148.14905" y="67.6903" width="11.81954" height="16.85005" transform="translate(308.11764 152.23065) rotate(-180)"/><line class="e" x1="159.96859" y1="70.33212" x2="148.14905" y2="70.33212"/><line class="e" x1="159.96859" y1="73.00781" x2="148.14905" y2="73.00781"/><line class="e" x1="159.96859" y1="75.6835" x2="148.14905" y2="75.6835"/><line class="e" x1="159.96859" y1="78.35919" x2="148.14905" y2="78.35919"/><line class="e" x1="159.96859" y1="81.03489" x2="148.14905" y2="81.03489"/><line class="e" x1="154.00536" y1="78.35739" x2="154.00536" y2="81.02902"/><line class="e" x1="154.00536" y1="67.68623" x2="154.00536" y2="70.32715"/><line class="e" x1="151.02973" y1="75.68576" x2="151.02973" y2="78.35739"/><line class="e" x1="156.99658" y1="75.68576" x2="156.99658" y2="78.35739"/><rect class="f" x="153.187" y="70.32715" width="1.63674" height="5.35861" transform="translate(308.01073 146.01291) rotate(-180)"/><rect class="f" x="150.21136" y="70.32715" width="1.63674" height="5.35861" transform="translate(302.05946 146.01291) rotate(-180)"/><rect class="f" x="156.17821" y="70.32715" width="1.63674" height="5.35861" transform="translate(313.99315 146.01291) rotate(-180)"/><polygon class="d" points="143.371 58.098 143.371 60.706 141.019 60.706 141.019 58.098 138.716 58.098 138.716 60.706 136.364 60.706 136.364 58.098 134.062 58.098 134.062 60.706 131.709 60.706 131.709 58.098 129.407 58.098 129.407 60.706 129.407 63.144 145.674 63.144 145.674 60.706 145.674 58.098 143.371 58.098"/><rect class="d" x="130.35318" y="63.14451" width="14.37406" height="20.94827"/><line class="e" x1="130.35318" y1="65.94439" x2="144.72725" y2="65.94439"/><line class="e" x1="130.35318" y1="68.74431" x2="144.72725" y2="68.74431"/><line class="e" x1="130.35318" y1="71.54424" x2="144.72725" y2="71.54424"/><line class="e" x1="130.35318" y1="74.34416" x2="144.72725" y2="74.34416"/><line class="e" x1="130.35318" y1="77.14408" x2="144.72725" y2="77.14408"/><line class="e" x1="130.35318" y1="79.94401" x2="144.72725" y2="79.94401"/><line class="e" x1="137.54231" y1="81.74836" x2="137.54231" y2="79.93656"/><line class="e" x1="137.54231" y1="77.1421" x2="137.54231" y2="74.34764"/><line class="e" x1="137.54231" y1="65.9489" x2="137.54231" y2="63.13909"/><line class="e" x1="135.09637" y1="68.74336" x2="135.09637" y2="65.9489"/><line class="e" x1="135.09637" y1="79.93656" x2="135.09637" y2="77.1421"/><line class="e" x1="132.63485" y1="81.74836" x2="132.63485" y2="79.93656"/><line class="e" x1="132.63485" y1="77.1421" x2="132.63485" y2="74.34764"/><line class="e" x1="132.63485" y1="65.9489" x2="132.63485" y2="63.13909"/><line class="e" x1="139.98825" y1="68.74336" x2="139.98825" y2="65.9489"/><line class="e" x1="139.98825" y1="79.93656" x2="139.98825" y2="77.1421"/><line class="e" x1="142.43419" y1="81.74836" x2="142.43419" y2="79.93656"/><line class="e" x1="142.43419" y1="77.1421" x2="142.43419" y2="74.34764"/><line class="e" x1="142.43419" y1="65.9489" x2="142.43419" y2="63.13909"/><rect class="f" x="136.5965" y="67.12737" width="1.89407" height="7.21679"/><rect class="f" x="140.03997" y="67.12737" width="1.89407" height="7.21679"/><rect class="f" x="133.135" y="67.12737" width="1.89407" height="7.21679"/><polygon class="d" points="125.433 62.644 125.433 65.252 124.058 65.252 124.058 62.644 121.756 62.644 121.756 65.252 120.381 65.252 120.381 62.644 118.079 62.644 118.079 65.252 116.704 65.252 116.704 62.644 114.402 62.644 114.402 65.252 114.402 67.69 127.736 67.69 127.736 65.252 127.736 62.644 125.433 62.644"/><rect class="d" x="115.11184" y="67.6903" width="11.81954" height="16.85005"/><line class="e" x1="115.11184" y1="70.33212" x2="126.93138" y2="70.33212"/><line class="e" x1="115.11184" y1="73.00781" x2="126.93138" y2="73.00781"/><line class="e" x1="115.11184" y1="75.6835" x2="126.93138" y2="75.6835"/><line class="e" x1="115.11184" y1="78.35919" x2="126.93138" y2="78.35919"/><line class="e" x1="115.11184" y1="81.03489" x2="126.93138" y2="81.03489"/><line class="e" x1="121.07506" y1="81.02902" x2="121.07506" y2="78.35739"/><line class="e" x1="121.07506" y1="70.32715" x2="121.07506" y2="67.68623"/><line class="e" x1="124.0507" y1="78.35739" x2="124.0507" y2="75.68576"/><line class="e" x1="118.08385" y1="78.35739" x2="118.08385" y2="75.68576"/><rect class="f" x="120.2567" y="70.32715" width="1.63674" height="5.35861"/><rect class="f" x="123.23233" y="70.32715" width="1.63674" height="5.35861"/><rect class="f" x="117.26548" y="70.32715" width="1.63674" height="5.35861"/><polygon class="d" points="159.968 81.434 159.968 83.785 157.588 83.785 157.588 81.434 155.249 81.434 155.249 83.785 152.869 83.785 152.869 81.434 150.529 81.434 150.529 83.785 148.149 83.785 148.149 81.434 145.81 81.434 145.81 83.785 143.429 83.785 143.429 81.434 141.09 81.434 141.09 83.785 138.71 83.785 138.71 81.434 136.371 81.434 136.371 83.785 133.99 83.785 133.99 81.434 131.651 81.434 131.651 83.785 129.271 83.785 129.271 81.434 126.931 81.434 126.931 83.785 124.551 83.785 124.551 81.434 122.212 81.434 122.212 83.785 119.831 83.785 119.831 81.434 117.492 81.434 117.492 83.785 115.112 83.785 115.112 81.434 112.773 81.434 112.773 84.994 112.773 86.845 113.942 88.459 136.371 88.459 138.71 88.459 161.138 88.459 162.308 86.845 162.308 84.994 162.308 81.434 159.968 81.434"/><line class="e" x1="112.77267" y1="86.84506" x2="162.30776" y2="86.84506"/><rect class="d" x="113.94225" y="88.45948" width="47.19592" height="26.57633"/><path class="g" d="M137.54017,91.62066a6.17126,6.17126,0,0,0-6.21562,6.12589v17.28926h12.43136V97.74655A6.17136,6.17136,0,0,0,137.54017,91.62066Z"/><line class="e" x1="113.94225" y1="95.116" x2="129.90558" y2="95.116"/><line class="e" x1="161.13801" y1="95.11675" x2="145.16743" y2="95.11675"/><path class="e" d="M138.23868,89.90462h-1.397a7.252,7.252,0,0,0-7.30416,7.19866v17.93253h16.00536V97.10328A7.252,7.252,0,0,0,138.23868,89.90462Z"/><path class="d" d="M129.53461,97.73187v17.3042H122.041V91.452a7.756,7.756,0,0,1,1.69808.18424,7.06631,7.06631,0,0,1,1.72937.59884,6.10653,6.10653,0,0,1,1.12166.66022,7.48188,7.48188,0,0,1,.82574.691l.0155.01537a6.89291,6.89291,0,0,1,1.05938,1.36655A7.76592,7.76592,0,0,1,129.53461,97.73187Z"/><line class="e" x1="129.54066" y1="104.78691" x2="122.04804" y2="104.78691"/><polyline class="h" points="125.936 115.036 126.232 114.084 127.213 111.059 127.213 111.044 128.179 108.035 129.145 104.994 129.457 104.027 129.535 103.797"/><polyline class="h" points="123.988 115.036 124.3 114.084 124.3 114.069 125.266 111.044 126.232 108.019 127.198 104.994 127.198 104.979 127.509 104.027 128.179 101.97 129.145 98.945 129.535 97.732"/><polyline class="h" points="127.868 115.036 128.179 114.069 129.145 111.059 129.535 109.846"/><line class="h" x1="122.04804" y1="115.03581" x2="128.48522" y2="94.96133"/><polyline class="h" points="122.041 109.017 122.353 108.035 123.334 104.994 123.646 104.027 124.3 101.985 125.266 98.945 126.232 95.92 126.232 95.905 127.011 93.509"/><polyline class="h" points="125.468 92.235 125.266 92.88 124.3 95.92 124.3 95.935 123.318 98.945 122.353 101.97 122.041 102.937"/><polyline class="h" points="122.041 96.903 122.353 95.935 123.739 91.636"/><polyline class="h" points="122.041 107.052 122.353 108.035 123.318 111.044 123.318 111.059 124.3 114.069 124.3 114.084 124.596 115.036"/><polyline class="h" points="126.543 115.036 126.232 114.084 125.266 111.044 124.3 108.019 123.334 104.994 123.022 104.027 122.353 101.97 122.041 100.987"/><line class="h" x1="128.48522" y1="115.03581" x2="122.04804" y2="94.96133"/><path class="h" d="M122.89,91.452q.705,2.234,1.41,4.46812v.01532l.9659,3.00943.96591,3.04015.6543,2.04208.3116.952v.01534l.9815,3.04013.96591,3.02477q.19469.60649.38948,1.213"/><polyline class="h" points="125.001 92.051 125.266 92.88 126.232 95.905 126.232 95.92 127.213 98.945 128.179 101.97 128.834 104.027 129.145 104.994 129.535 106.207"/><polyline class="h" points="129.535 100.158 129.145 98.945 128.179 95.935 127.431 93.602 127.416 93.586"/><path class="d" d="M145.54291,97.73187v17.3042h7.4936V91.452a7.75609,7.75609,0,0,0-1.69808.18424,7.06645,7.06645,0,0,0-1.72937.59884,6.10686,6.10686,0,0,0-1.12166.66022,7.48188,7.48188,0,0,0-.82574.691l-.0155.01537a6.89329,6.89329,0,0,0-1.05938,1.36655A7.76583,7.76583,0,0,0,145.54291,97.73187Z"/><line class="e" x1="145.53685" y1="104.78691" x2="153.02948" y2="104.78691"/><polyline class="h" points="145.543 103.797 145.621 104.027 145.932 104.994 146.898 108.035 147.864 111.044 147.864 111.059 148.846 114.084 149.142 115.036"/><polyline class="h" points="145.543 97.732 145.932 98.945 146.898 101.97 147.568 104.027 147.88 104.979 147.88 104.994 148.846 108.019 149.812 111.044 150.778 114.069 150.778 114.084 151.089 115.036"/><polyline class="h" points="145.543 109.846 145.932 111.059 146.898 114.069 147.21 115.036"/><line class="h" x1="153.02948" y1="115.03581" x2="146.59229" y2="94.96133"/><polyline class="h" points="148.067 93.509 148.846 95.905 148.846 95.92 149.812 98.945 150.778 101.985 151.432 104.027 151.743 104.994 152.725 108.035 153.037 109.017"/><polyline class="h" points="153.037 102.937 152.725 101.97 151.759 98.945 150.778 95.935 150.778 95.92 149.812 92.88 149.609 92.235"/><polyline class="h" points="151.338 91.636 152.725 95.935 153.037 96.903"/><polyline class="h" points="150.482 115.036 150.778 114.084 150.778 114.069 151.759 111.059 151.759 111.044 152.725 108.035 153.037 107.052"/><polyline class="h" points="153.037 100.987 152.725 101.97 152.055 104.027 151.743 104.994 150.778 108.019 149.812 111.044 148.846 114.084 148.534 115.036"/><line class="h" x1="146.59229" y1="115.03581" x2="153.02948" y2="94.96133"/><path class="h" d="M145.54291,112.27228q.19468-.60649.38948-1.213l.9659-3.02477.9815-3.04013v-.01534l.31161-.952.6543-2.04208.9659-3.04015.96591-3.00943v-.01532q.705-2.234,1.41-4.46812"/><polyline class="h" points="145.543 106.207 145.932 104.994 146.244 104.027 146.898 101.97 147.864 98.945 148.846 95.92 148.846 95.905 149.812 92.88 150.076 92.051"/><polyline class="h" points="147.662 93.586 147.646 93.602 146.898 95.935 145.932 98.945 145.543 100.158"/><line class="e" x1="113.94225" y1="109.01719" x2="122.04804" y2="109.01719"/><line class="e" x1="113.94225" y1="105.54189" x2="122.04804" y2="105.54189"/><line class="e" x1="113.94225" y1="102.0666" x2="122.04804" y2="102.0666"/><line class="e" x1="113.94225" y1="98.5913" x2="122.04804" y2="98.5913"/><line class="e" x1="132.08842" y1="91.63626" x2="123.74637" y2="91.63626"/><line class="e" x1="122.04824" y1="91.63626" x2="113.94704" y2="91.63626"/><line class="e" x1="117.27373" y1="102.06175" x2="117.27373" y2="98.5917"/><line class="e" x1="117.27373" y1="109.01719" x2="117.27373" y2="105.54715"/><polyline class="e" points="117.274 95.122 117.274 91.636 117.274 91.621"/><polyline class="e" points="119.798 105.854 119.798 105.547 119.798 102.062"/><line class="e" x1="119.79756" y1="91.63626" x2="119.79756" y2="88.45794"/><line class="e" x1="125.7878" y1="91.63626" x2="125.7878" y2="88.45794"/><line class="e" x1="131.77804" y1="91.63626" x2="131.77804" y2="88.45794"/><line class="e" x1="119.79756" y1="98.5917" x2="119.79756" y2="95.12166"/><line class="e" x1="128.67773" y1="95.30591" x2="128.67773" y2="91.63626"/><line class="e" x1="161.13817" y1="109.01719" x2="153.03239" y2="109.01719"/><line class="e" x1="161.13817" y1="105.54189" x2="153.03239" y2="105.54189"/><line class="e" x1="161.13817" y1="102.0666" x2="153.03239" y2="102.0666"/><line class="e" x1="161.13817" y1="98.5913" x2="153.03239" y2="98.5913"/><line class="e" x1="151.33719" y1="91.63626" x2="142.94564" y2="91.63626"/><line class="e" x1="161.13653" y1="91.63626" x2="153.03533" y2="91.63626"/><line class="e" x1="157.8067" y1="98.5917" x2="157.8067" y2="102.06175"/><line class="e" x1="157.8067" y1="105.54715" x2="157.8067" y2="109.01719"/><polyline class="e" points="157.807 91.621 157.807 91.636 157.807 95.122"/><polyline class="e" points="155.283 102.062 155.283 105.547 155.283 105.854"/><line class="e" x1="155.28286" y1="88.45794" x2="155.28286" y2="91.63626"/><line class="e" x1="149.29262" y1="88.45794" x2="149.29262" y2="91.63626"/><line class="e" x1="143.30239" y1="88.45794" x2="143.30239" y2="91.63626"/><line class="e" x1="155.28286" y1="95.12166" x2="155.28286" y2="98.5917"/><line class="e" x1="146.4027" y1="91.63626" x2="146.4027" y2="95.30591"/><polygon class="d" points="138.734 91.786 136.346 91.786 135.406 88.458 139.674 88.458 138.734 91.786"/><polygon class="d" points="131.506 99.911 129.112 100.292 129.112 97.966 131.506 98.347 131.506 99.911"/><polygon class="d" points="143.575 99.911 145.969 100.292 145.969 97.966 143.575 98.347 143.575 99.911"/></svg>