<?xml version="1.0" encoding="UTF-8" standalone="no"?>
<svg width="300" height="180" version="1.0" viewBox="0 0 300 180" xmlns="http://www.w3.org/2000/svg" xmlns:svg="http://www.w3.org/2000/svg">
<rect width="300" height="180" fill="#004990" />
<g style="fill:none;stroke:#000000" transform="matrix(2.778383,0,0,2.778383,84.536,18.345)">
<line fill="none" stroke="#ffd51d" stroke-width="2.5" stroke-miterlimit="10" x1="25.789993" y1="40" x2="25.789993" y2="51.580002" />
<line fill="none" stroke="#ffd51d" stroke-width="2.5" stroke-miterlimit="10" x1="25.789993" y1="0" x2="25.789993" y2="11.580002" />
<line fill="none" stroke="#ffd51d" stroke-width="2.5" stroke-miterlimit="10" x1="11.579994" y1="25.790001" x2="0" y2="25.790001" />
<line fill="none" stroke="#ffd51d" stroke-width="2.5" stroke-miterlimit="10" x1="15.741989" y1="35.838005" x2="7.5539932" y2="44.026001" />
<line fill="none" stroke="#ffd51d" stroke-width="2.5" stroke-miterlimit="10" x1="44.026001" y1="7.5540009" x2="35.837997" y2="15.741997" />
<line fill="none" stroke="#ffd51d" stroke-width="2.5" stroke-miterlimit="10" x1="15.741989" y1="15.741997" x2="7.5539932" y2="7.5540009" />
<line fill="none" stroke="#ffd51d" stroke-width="2.5" stroke-miterlimit="10" x1="44.026001" y1="44.026001" x2="35.837997" y2="35.838005" />
<line fill="none" stroke="#ffd51d" stroke-width="2.5" stroke-miterlimit="10" x1="31.227997" y1="38.919006" x2="35.658997" y2="49.617004" />
<line fill="none" stroke="#ffd51d" stroke-width="2.5" stroke-miterlimit="10" x1="15.919998" y1="1.9629974" x2="20.35199" y2="12.662003" />
<line fill="none" stroke="#ffd51d" stroke-width="2.5" stroke-miterlimit="10" x1="12.660995" y1="31.228004" x2="1.9629974" y2="35.659004" />
<line fill="none" stroke="#ffd51d" stroke-width="2.5" stroke-miterlimit="10" x1="20.35199" y1="38.919006" x2="15.919998" y2="49.617004" />
<line fill="none" stroke="#ffd51d" stroke-width="2.5" stroke-miterlimit="10" x1="35.658997" y1="1.9629974" x2="31.227997" y2="12.662003" />
<line fill="none" stroke="#ffd51d" stroke-width="2.5" stroke-miterlimit="10" x1="12.660995" y1="20.353004" x2="1.9629974" y2="15.92099" />
<line fill="none" stroke="#ffd51d" stroke-width="2.5" stroke-miterlimit="10" x1="28.561996" y1="39.727997" x2="30.820999" y2="51.085007" />
<line fill="none" stroke="#ffd51d" stroke-width="2.5" stroke-miterlimit="10" x1="20.759003" y1="0.4960022" x2="23.01799" y2="11.852997" />
<line fill="none" stroke="#ffd51d" stroke-width="2.5" stroke-miterlimit="10" x1="11.853996" y1="28.562004" x2="0.49599457" y2="30.821007" />
<line fill="none" stroke="#ffd51d" stroke-width="2.5" stroke-miterlimit="10" x1="17.895996" y1="37.604996" x2="11.461998" y2="47.233002" />
<line fill="none" stroke="#ffd51d" stroke-width="2.5" stroke-miterlimit="10" x1="40.119003" y1="4.3470001" x2="33.684998" y2="13.974991" />
<line fill="none" stroke="#ffd51d" stroke-width="2.5" stroke-miterlimit="10" x1="13.975998" y1="17.896004" x2="4.3470001" y2="11.46199" />
<line fill="none" stroke="#ffd51d" stroke-width="2.5" stroke-miterlimit="10" x1="33.684998" y1="37.604996" x2="40.117996" y2="47.233002" />
<line fill="none" stroke="#ffd51d" stroke-width="2.5" stroke-miterlimit="10" x1="11.461998" y1="4.3470001" x2="17.895004" y2="13.974991" />
<line fill="none" stroke="#ffd51d" stroke-width="2.5" stroke-miterlimit="10" x1="13.974998" y1="33.685005" x2="4.3470001" y2="40.117996" />
<line fill="none" stroke="#ffd51d" stroke-width="2.5" stroke-miterlimit="10" x1="23.01799" y1="39.727997" x2="20.759003" y2="51.085007" />
<line fill="none" stroke="#ffd51d" stroke-width="2.5" stroke-miterlimit="10" x1="30.820999" y1="0.4960022" x2="28.561996" y2="11.854004" />
<line fill="none" stroke="#ffd51d" stroke-width="2.5" stroke-miterlimit="10" x1="11.852997" y1="23.018997" x2="0.49599457" y2="20.759003" />
<path stroke-width="1.49196" d="m 25.739637,14.607544 a 11.189699,11.189699 0 1 0 0.11477,0 z" style="stroke:#ffd51d;stroke-opacity:1" />
<path stroke-width="1.0329" d="m 25.797017,14.607544 v 22.3794 m 11.1897,-11.1897 h -22.37939 m 2.52485,-6.88597 a 14.919598,14.919598 0 0 0 17.32969,0 m 0,13.77194 a 14.919598,14.919598 0 0 0 -17.32969,0 m 7.8041,-17.78875 a 14.345768,14.345768 0 0 0 0,21.92033 m 1.72149,0 a 14.345768,14.345768 0 0 0 0,-21.92033" style="stroke:#ffd51d;stroke-opacity:1" />
</g>
</svg>