<?xml version="1.0" encoding="UTF-8"?>
<svg width="300" height="200" version="1.1" xmlns="http://www.w3.org/2000/svg">
 <rect width="300" height="200" fill="#fff"/>
 <path d="m273 131.72h-58.567v-63.449h58.567zm-62.482 0h-58.567v-63.449h58.567zm-62.478 0h-58.567v-63.449h58.567zm-62.473 0h-58.567v-63.449h58.567z" fill="#003478"/>
 <path d="m35.78 110.73c0.79462 1.8363 1.9637 3.6269 3.5055 5.372 1.5419 1.7442 3.5564 3.193 6.0391 4.3484 2.4794 1.1536 5.5158 1.7321 9.1123 1.7321 4.6101 0 8.8244-1.0158 12.642-3.039 3.8164-2.0257 6.7776-4.8322 8.8767-8.4137 2.0997-3.5813 3.15-7.5311 3.15-11.853 0-6.1838-2.036-11.225-6.1072-15.133-4.072-3.9076-9.3499-5.8593-15.84-5.8593-6.8719 0-12.509 2.0928-16.916 6.2785-4.4069 4.1883-6.6084 9.5953-6.6084 16.224 0 3.6708 0.71457 7.1179 2.1462 10.343m10.088-25.956c2.3864-2.655 5.5166-3.9833 9.3887-3.9833 2.7092 0 5.1912 0.71107 7.453 2.1264 2.2581 1.4162 4.1142 3.849 5.5657 7.2941 1.4506 3.4487 2.1772 7.5434 2.1772 12.283 0 5.6982-1.2276 9.9201-3.6777 12.665-2.451 2.7454-5.4856 4.1142-9.0988 4.1142-2.8392 0-5.477-0.86953-7.914-2.6163-2.4355-1.7441-4.2907-4.5111-5.5657-8.3001-1.2733-3.788-1.9086-7.5175-1.9086-11.19 0-5.6062 1.1924-9.7386 3.5804-12.394m56.433 22.699h2.7617c0.0292 1.6968 0.12397 3.0398 0.28065 4.0333 0.15669 0.99433 0.42356 1.968 0.80063 2.9193 0.37621 0.95042 0.95733 1.7554 1.7467 2.4131 0.78429 0.65774 1.6408 1.17 2.568 1.5367 0.92718 0.36502 1.8655 0.60693 2.828 0.72489 0.95734 0.11622 2.4096 0.17304 4.3596 0.17304 3.2043 0 5.8343-0.7903 7.8933-2.3761 2.0566-1.5823 3.0863-3.7509 3.0863-6.5103 0-1.2311-0.32542-2.3175-0.97451-3.2559-0.65084-0.93577-1.5823-1.6692-2.8022-2.1987-1.219-0.52858-3.837-1.2173-7.8558-2.067-4.0212-0.85228-6.6149-1.4661-7.7868-1.8492-1.7717-0.61382-3.1818-1.3619-4.2261-2.2418-1.0442-0.87727-1.8742-1.9921-2.4897-3.342-0.61811-1.349-0.92634-2.8169-0.92634-4.4026 0-2.3132 0.65858-4.4491 1.9809-6.399 1.3232-1.9525 3.4031-3.5331 6.2397-4.7521 2.8358-1.2156 5.9255-1.8242 9.2738-1.8242 2.0076 0 4.3329 0.24535 6.9784 0.7369 2.6455 0.49071 4.7978 1.1011 6.4541 1.8277-0.0861 3.305-0.14894 6.6704-0.18337 10.09h-2.7617c-0.16099-2.154-0.34177-3.5693-0.54839-4.2468-0.20747-0.68099-0.4864-1.2844-0.83504-1.8165-0.34952-0.52773-0.95475-1.0994-1.8122-1.7012-0.86087-0.60348-1.9646-1.1433-3.3153-1.6159-1.3533-0.47091-3.0157-0.7094-4.988-0.7094-2.7988 0-5.0491 0.76622-6.7531 2.2952-1.7028 1.5281-2.5508 3.3239-2.5508 5.3823 0 1.1484 0.24191 2.1367 0.72831 2.9589 0.48641 0.82387 1.1364 1.4945 1.9534 2.0076 0.81696 0.51481 1.9611 0.97709 3.4367 1.3886l7.8126 1.8096c3.9523 0.94009 6.6762 1.7502 8.1664 2.426 1.4902 0.67924 2.6894 1.7304 3.5985 3.1578 0.90827 1.4248 1.3662 3.1397 1.3662 5.137 0 3.9713-1.7571 7.4388-5.273 10.395-3.5142 2.9546-8.2207 4.4345-14.115 4.4345-2.7118 0-6.3216-0.38913-10.829-1.1588-2.4905-0.44422-3.8318-0.7533-4.0178-0.9315-0.12741-0.0895-0.19025-0.23675-0.19025-0.44422 0-0.20318 0.0318-0.45542 0.0973-0.74982 0.28839-1.2655 0.48038-2.4983 0.57938-3.707 0.0964-1.2078 0.17648-3.7199 0.24363-7.5466m97.438 8.4086-1.8965 2.9641c-2.1824 1.102-4.3397 1.9017-6.4741 2.4079-2.135 0.50104-4.5438 0.75672-7.2315 0.75672-6.642 0-11.932-1.8664-15.866-5.601-3.9352-3.7328-5.904-8.8612-5.904-15.382 0-3.4522 0.53031-6.4533 1.5884-9.009 1.0589-2.5508 2.3657-4.5214 3.9145-5.9083 1.0417-0.97367 3.0277-2.2332 5.9513-3.7836 2.9244-1.5496 4.9717-2.5474 6.1434-2.9907 2.148-0.8557 4.7237-1.281 7.7293-1.281 2.8435 0 5.4038 0.27377 7.6809 0.82388 1.4558 0.3478 2.9089 0.92802 4.3647 1.7399-0.39343 2.2633-0.67234 3.9765-0.83421 5.1352-0.16442 1.1605-0.37793 3.2705-0.63878 6.3258h-2.7609c-0.19026-2.8014-0.37793-4.5524-0.56475-5.248-0.12655-0.43217-0.40892-0.82213-0.84628-1.1708-1.126-0.80496-2.5758-1.5074-4.3458-2.1015-1.7709-0.59143-3.7044-0.88928-5.8033-0.88928-2.6335 0-4.9114 0.50964-6.8383 1.5229-1.9275 1.0176-3.4255 2.6248-4.4904 4.8314-1.0649 2.2074-1.5969 4.9415-1.5969 8.2052 0 4.0014 0.75414 7.6208 2.2676 10.853 1.51 3.2369 3.5633 5.5958 6.1631 7.0823 2.599 1.4868 5.5037 2.2263 8.7172 2.2263 1.6038 0 3.1689-0.18509 4.6961-0.55356 1.5281-0.36932 3.4884-1.0726 5.8833-2.1083zm62.432-2.5574c-2.8298 1.5504-5.2058 2.6162-7.1275 3.1965-1.9258 0.58369-3.8542 0.8712-5.793 0.8712-2.8599 0-5.6173-0.61898-8.2704-1.863-2.6532-1.2483-4.7384-3.1784-6.2466-5.8033-1.5117-2.6232-2.2952-6.053-2.3588-10.292h15.351c3.4401 0 6.8835-0.10934 10.326-0.328 1.819-0.11106 3.8758-0.35641 6.1709-0.73949 0.12052-1.1854 0.18337-2.1927 0.18337-3.0252 0-3.2869-0.66808-6.2346-2.0024-8.8405-1.3335-2.6094-3.4375-4.6677-6.3095-6.1795-2.8745-1.51-6.0882-2.2668-9.6431-2.2668-2.9218 0-5.6346 0.48985-8.1432 1.4618-1.9086 0.71108-3.8284 1.6779-5.7637 2.9038-1.937 1.225-3.3661 2.3098-4.2864 3.2568-1.2707 1.2982-2.4062 3.3153-3.4066 6.0478-1.0003 2.7342-1.4997 5.7981-1.4997 9.1943 0 4.3449 0.94184 8.1328 2.828 11.366 1.8854 3.2335 4.5231 5.663 7.9114 7.289 3.3876 1.6237 7.1747 2.4363 11.356 2.4363 2.1238 0 4.1434-0.21695 6.0581-0.64223 1.9155-0.42528 3.6183-0.95216 5.1085-1.5754 1.0124-0.41237 2.6111-1.256 4.7986-2.5276l1.5204-3.1862zm-26.437-28.704c2.209-2.438 5.1197-3.6588 8.7378-3.6588 3.4238 0 6.1631 1.12 8.2097 3.3601 2.0489 2.2392 3.0734 5.7482 3.0734 10.525 0 0.39515-0.0172 0.95216-0.0508 1.6796-1.3447 0.14635-4.1444 0.21866-8.3969 0.21866-1.7958 0-5.0758-0.0723-9.8445-0.21866-2.4974-0.11278-4.1934-0.22814-5.0879-0.34092 0.0301-5.2712 1.1501-9.1252 3.3592-11.565" fill="#fff"/>
</svg>
