<svg xmlns="http://www.w3.org/2000/svg" width="450" height="300" viewBox="0 0 119.063 79.375" xmlns:v="https://vecta.io/nano"><path d="M0 0h119.063v79.375H0z" fill="#fff"/><path d="M0 26.458h119.063v26.458H0z" fill="#009144"/><path d="M59.531 9.994c-16.36 0-29.693 13.334-29.693 29.693s13.334 29.693 29.693 29.693 29.693-13.334 29.693-29.693S75.891 9.994 59.531 9.994zm0 6.615a23.03 23.03 0 0 1 23.078 23.078 23.03 23.03 0 0 1-23.078 23.078 23.03 23.03 0 0 1-23.078-23.078 23.03 23.03 0 0 1 23.078-23.078z" fill="#0293d6"/><g fill="#fff"><use href="#B"/><use href="#B" x="0.985" y="7.164"/><use href="#B" x="3.866" y="13.796"/><use href="#B" x="8.429" y="19.406"/><use href="#B" x="14.337" y="23.576"/><use href="#B" x="21.151" y="25.998"/><use href="#B" x="28.365" y="26.491"/><use href="#B" x="35.445" y="25.02"/><use href="#B" x="41.866" y="21.693"/><use href="#B" x="47.151" y="16.757"/><use href="#B" x="50.908" y="10.579"/><use href="#B" x="52.859" y="3.615"/><use href="#B" x="52.859" y="-3.616"/><use href="#B" x="50.908" y="-10.579"/><use href="#B" x="47.151" y="-16.758"/><use href="#B" x="41.866" y="-21.694"/><use href="#B" x="35.445" y="-25.02"/><use href="#B" x="28.365" y="-26.492"/><use href="#B" x="21.151" y="-25.998"/><use href="#B" x="14.337" y="-23.577"/><use href="#B" x="8.429" y="-19.406"/><use href="#B" x="3.866" y="-13.797"/><use href="#B" x="0.985" y="-7.164"/></g><defs ><path id="B" d="M32.978 36.747l.664 2.06 2.164-.005-1.753 1.268.673 2.057-1.748-1.276-1.748 1.276.673-2.057-1.753-1.268 2.164.005z"/></defs></svg>